<?xml version="1.0" encoding="utf-8"?>
<!-- Generator: Adobe Illustrator 13.0.2, SVG Export Plug-In . SVG Version: 6.00 Build 14948)  -->
<!DOCTYPE svg PUBLIC "-//W3C//DTD SVG 1.0//EN" "http://www.w3.org/TR/2001/REC-SVG-20010904/DTD/svg10.dtd">
<svg version="1.0" id="Ebene_1" xmlns="http://www.w3.org/2000/svg" xmlns:xlink="http://www.w3.org/1999/xlink" x="0px" y="0px"
	 width="566px" height="565.975px" viewBox="0 0 566 565.975" enable-background="new 0 0 566 565.975" xml:space="preserve">
<path fill="#FFD64E" d="M566,197.992c0,0-37.283,31.669-72.477,32.465c-19.331-77.59-80.413-138.642-157.98-157.978
	C336.341,37.291,367.983,0,367.983,0H198.007c0,0,31.652,37.291,32.44,72.479C152.893,91.816,91.811,152.868,72.502,230.458
	C37.293,229.662,0,197.992,0,197.992v169.996c0,0,37.293-31.665,72.502-32.465c19.309,77.59,80.391,138.646,157.945,157.978
	c-0.788,35.193-32.44,72.474-32.44,72.474h169.976c0,0-31.642-37.281-32.44-72.474c77.567-19.332,138.649-80.388,157.98-157.978
	C528.717,336.324,566,367.988,566,367.988V197.992"/>
<path fill="#FFFFFF" d="M283,136.14c62.594,0,116.04,39.167,137.15,94.338h60.499C457.461,143.002,377.751,78.531,283,78.531
	S108.539,143.002,85.351,230.478h60.499C166.965,175.307,220.401,136.14,283,136.14"/>
<path fill="#FFFFFF" d="M283,429.821c-62.599,0-116.035-39.148-137.15-94.318H85.351C108.539,422.974,188.249,487.454,283,487.454
	s174.461-64.48,197.649-151.951H420.15C399.04,390.673,345.594,429.821,283,429.821"/>
<path fill="#003888" d="M168.074,173.841l-10.75,12.559l-1.009-0.866c1.464-2.103,2.525-3.639,0.045-5.767l-19.304-16.528
	c-2.633-2.243-4.177-0.631-5.694,0.906l-1.009-0.841l10.742-12.554l1.041,0.841c-1.379,1.762-2.846,3.519-0.098,5.856l19.284,16.538
	c2.558,2.172,3.904,0.811,5.739-1.036L168.074,173.841"/>
<path fill="#003888" d="M167.406,140.559c-3.088-2.172-9.21-4.805-13.357-1.091c-1.83,1.631-2.75,4.56-0.46,7.083
	c1.882,2.152,3.326,2.408,7.741,1.387l7.739-1.747c1.784-0.411,6.509-0.5,10.344,3.744c3.028,3.444,5.008,10.191-1.477,16.027
	c-3.376,2.963-6.145,3.039-7.206,4.024c-0.749,0.656-0.293,1.542,0.095,2.288l-1.014,0.871l-8.632-9.646l1.016-0.916
	c4.25,3.303,10.218,5.906,14.756,1.927c4.192-3.759,0.938-7.803,0.456-8.289c-2.317-2.648-4.848-2.122-8.196-1.301l-3.499,0.871
	c-8.915,2.167-11.878-1.207-13.492-2.993c-2.123-2.408-5.786-8.73,0.914-14.681c2.823-2.528,5.611-2.723,6.657-3.609
	c0.816-0.751,0.451-1.477-0.05-2.388l1.106-0.936l7.566,8.499L167.406,140.559"/>
<path fill="#003888" d="M217.008,138.001l-13.788,8.214l-0.676-1.106c1.972-1.537,3.424-2.623,1.757-5.401l-6.197-10.336
	l-9.811,5.831l6.197,10.362c1.637,2.753,3.281,2.027,5.566,1.016l0.678,1.156l-13.67,8.149l-0.678-1.136
	c1.984-1.597,3.116-2.608,1.549-5.251l-13.02-21.839c-1.759-2.913-3.542-1.977-5.374-1.136l-0.65-1.131l13.645-8.164l0.67,1.151
	c-1.712,1.207-3.494,2.383-1.737,5.371l5.571,9.335l9.761-5.836l-5.541-9.33c-1.76-2.963-3.712-1.972-5.542-1.031l-0.681-1.121
	l13.765-8.244l0.698,1.141c-1.664,1.177-3.424,2.408-1.664,5.356l13.017,21.784c1.614,2.703,3.158,2.052,5.496,1.091
	L217.008,138.001"/>
<path fill="#003888" d="M218.376,99.725l25.818-7.088l2.793,10.171l-1.086,0.315c-2.458-4.99-4.533-7.858-12.384-5.691
	c-2.458,0.701-3.231,1.086-2.625,3.303l3.229,11.683c5.639-1.412,5.351-5.176,4.91-9.44l1.134-0.31l4.68,17.108l-1.134,0.335
	c-1.639-4.024-3.379-7.493-9.14-5.921l3.256,11.778c0.916,3.354,2.798,2.938,5.981,2.222l0.353,1.271l-16.386,4.51l-0.36-1.296
	c2.533-0.996,3.907-1.547,3.031-4.68l-6.74-24.492c-0.918-3.349-2.798-2.913-4.993-2.527L218.376,99.725"/>
<path fill="#003888" d="M269.31,88.897c-9.11,0.631-16.173,8.324-15.367,19.767c0.763,10.967,8.329,18.1,17.975,17.429
	c9.663-0.701,16.15-8.774,15.397-19.767C286.521,94.899,278.417,88.252,269.31,88.897 M269.458,90.615
	c6.583-0.456,8.96,8.649,9.523,16.292c0.283,4.555,0.894,16.894-7.165,17.474c-8.099,0.536-9.205-11.743-9.543-16.323
	C261.719,100.42,262.851,91.07,269.458,90.615z"/>
<path fill="#003888" d="M312.185,90.584c-9.035-1.347-17.589,4.655-19.301,15.958c-1.637,10.897,4.192,19.451,13.76,20.923
	c9.565,1.441,17.669-5.041,19.336-15.938C327.664,100.205,321.207,91.961,312.185,90.584 M311.949,92.292
	c6.524,1.021,6.862,10.396,5.756,17.964c-0.696,4.525-2.818,16.704-10.842,15.497c-7.954-1.206-6.39-13.455-5.734-17.99
	C302.309,100.205,305.395,91.33,311.949,92.292z"/>
<path fill="#003888" d="M347.123,137.977l-15.767-6.007l0.48-1.226c3.301,0.936,4.435,1.256,6.004-2.888l9.809-25.838
	c-3.156-0.971-7.811-2.463-11.666,5.056l-1.306-0.481l3.912-9.831l26.494,10.051l-3.667,9.906l-1.276-0.48
	c2.112-8.179-2.348-10.167-5.356-11.498l-9.806,25.858c-1.577,4.17-0.558,4.655,2.625,6.172L347.123,137.977"/>
<path fill="#003888" d="M353.359,140.359l12.942,8.034c8.607,5.031,14.13,2.428,16.438-1.356c3.156-5.085,0.318-9.926-2.675-12.628
	l0.045-0.095c2.077,0.456,7.331,2.122,10.396-2.823c4.33-6.958-3.784-12.223-6.034-13.62l-12.434-7.688l-0.673,1.111
	c1.765,1.276,3.399,2.433,1.564,5.371l-13.377,21.624c-1.687,2.698-3.028,2.103-5.468,0.966L353.359,140.359 M379.796,119.896
	c0.704-1.016,1.477-2.147,3.521-0.891c3.256,2.022,2.508,5.206,0.581,8.314c-2.846,4.555-4.875,5.881-10.271,2.558L379.796,119.896z
	 M372.811,131.224l1.231,0.746c2.5,1.742,5.616,4.61,1.68,10.992c-1.68,2.728-4.648,6.367-9.083,3.614
	c-1.712-1.031-1.977-2.192-0.743-4.194L372.811,131.224z"/>
<path fill="#003888" d="M403.104,176.754c-1.734-1.461-1.081-3.324,1.209-8.865l11.112-27.38l-0.963-0.916l-27.31,13.91
	c-3.714,1.922-5.421,2.768-7.571,1.341l-0.891,0.961l6.995,6.517l0.908-0.941c-1.106-1.156-2.65-2.823-1.306-4.294
	c0.608-0.626,2.608-1.662,6.182-3.514l7.758,7.228c-0.65,1.662-2.197,5.546-3.181,6.603c-1.159,1.256-1.832,0.726-4.147-1.106
	l-0.894,0.966l11.185,10.456L403.104,176.754 M393.368,152.537l11.933-6.322l-5.206,12.604L393.368,152.537z"/>
<path fill="#003888" d="M418.874,200.81l-15.935-22.169l1.066-0.751c1.852,1.907,2.818,2.963,5.398,1.086l20.635-14.832
	c2.843-2.017,1.779-3.659,0.671-5.441l1.061-0.771l9.615,13.375l-1.056,0.746c-2.049-2.598-2.945-3.754-6.729-1.011l-20.127,14.441
	c-2.02,1.472-1.759,2.553,0.103,5.131c4.162,5.786,9.25,5.375,15.299,3.689l0.821,1.111L418.874,200.81"/>
<path fill="#003888" d="M431.956,227.855l-11.467-24.772l1.181-0.555c1.414,2.262,2.188,3.469,5.083,2.117l23.07-10.657
	c3.158-1.441,2.41-3.279,1.662-5.276l1.204-0.556l6.92,14.977l-1.179,0.545c-1.522-2.938-2.195-4.234-6.392-2.282l-22.492,10.401
	c-2.26,1.046-2.24,2.172-0.916,5.041c3.019,6.492,8.057,7.063,14.366,6.537l0.586,1.251L431.956,227.855"/>
<path fill="#003888" d="M170.82,408.493c1.955-3.258,3.979-9.761-0.388-14.181c-1.942-1.902-5.111-2.843-7.546-0.405
	c-1.992,1.997-2.09,3.494-0.553,8.194l2.753,8.149c0.65,1.902,1.326,6.893-2.701,10.942c-3.281,3.249-10.151,5.371-16.971-1.431
	c-3.543-3.529-3.974-6.477-5.081-7.608c-0.793-0.816-1.667-0.291-2.42,0.145l-1.076-1.086l9.205-9.185l1.056,1.061
	c-3.008,4.51-5.058,10.847-0.305,15.572c4.452,4.46,8.261,0.966,8.794,0.476c2.48-2.473,1.614-5.105,0.363-8.665l-1.326-3.669
	c-3.306-9.425-0.098-12.634,1.614-14.351c2.245-2.232,8.461-6.112,15.5,0.926c2.983,2.943,3.491,5.957,4.583,7.018
	c0.841,0.866,1.584,0.48,2.48-0.055l1.109,1.136l-8.054,8.049L170.82,408.493"/>
<path fill="#003888" d="M194.881,426.422c1.301-3.544,2.188-10.316-2.918-13.86c-2.245-1.546-5.474-1.902-7.446,0.891
	c-1.642,2.343-1.472,3.859,0.911,8.199l4.122,7.573c0.988,1.707,2.533,6.497-0.724,11.222c-2.675,3.764-9.057,7.088-16.966,1.572
	c-4.12-2.863-5.043-5.691-6.334-6.607c-0.918-0.625-1.692,0-2.348,0.581l-1.276-0.891l7.453-10.627l1.224,0.861
	c-2.147,4.951-3.033,11.568,2.436,15.352c5.183,3.614,8.339-0.5,8.729-1.086c2.024-2.868,0.696-5.326-1.159-8.599l-1.927-3.374
	c-4.92-8.65-2.337-12.369-0.989-14.361c1.83-2.628,7.278-7.548,15.427-1.862c3.476,2.388,4.485,5.231,5.781,6.072
	c0.968,0.696,1.634,0.245,2.41-0.46l1.296,0.901l-6.5,9.375L194.881,426.422"/>
<path fill="#003888" d="M222.979,427.819c-9.375-3.879-19.929-0.485-24.341,10.071c-4.212,10.176,0.123,20.227,10.051,24.352
	c9.954,4.145,20.057,0.095,24.322-10.071C237.373,441.579,232.332,431.678,222.979,427.819 M222.286,429.406
	c6.797,2.828,5.061,12.098,2.117,19.171c-1.782,4.24-6.745,15.517-15.064,12.048c-8.292-3.419-3.854-14.946-2.095-19.166
	C210.18,434.401,215.506,426.583,222.286,429.406z"/>
<path fill="#003888" d="M271.287,469.735c-4.458,3.764-8.97,6.387-15.622,5.356c-12.096-1.857-17.329-11.408-15.813-21.093
	c1.609-10.537,10.344-17.479,21.236-15.792c4.647,0.726,8.292,3.884,9.591,4.1c1.449,0.195,2.075-0.841,2.778-2.017l1.394,0.215
	l-1.882,12.143l-1.276-0.225c-1.101-4.785-4.552-11.518-10.456-12.429c-7.596-1.181-10.825,6.457-12.199,15.207
	c-0.483,3.154-0.913,8.144,0.476,11.758c1.625,4.075,5.624,5.506,7.213,5.762c4.022,0.63,8.169-0.351,13.214-4.53L271.287,469.735"
	/>
<path fill="#003888" d="M296.86,475.711l-18.365,0.46l-0.078-1.332c2.871-0.33,4.9-0.601,4.828-3.844l-0.598-25.418
	c-0.103-3.443-2.563-3.489-4.948-3.589l-0.07-1.326l18.37-0.431l0.04,1.327c-2.475,0.145-4.988,0.27-4.895,3.834l0.585,25.403
	c0.093,3.374,2.192,3.444,5.088,3.589L296.86,475.711"/>
<path fill="#003888" d="M338.536,467.327c-2.455,0.601-3.619-0.991-7.038-6.001l-17.021-24.707l-1.467,0.285l-5.639,30.514
	c-0.753,4.179-1.131,6.082-3.782,7.067l0.26,1.271l10.437-2.142l-0.265-1.276c-1.785,0.275-4.27,0.605-4.708-1.342
	c-0.163-0.826,0.252-3.108,0.923-7.113l11.595-2.362c1.034,1.521,3.469,4.96,3.782,6.337c0.338,1.712-0.573,1.952-3.711,2.888
	l0.237,1.251l16.658-3.389L338.536,467.327 M310.623,461.711l2.24-13.47l7.786,11.442L310.623,461.711z"/>
<path fill="#003888" d="M366.153,457.471l-17.304,7.233l-0.513-1.211c3.429-1.782,4.54-2.338,2.851-6.437l-10.677-25.528
	c-3.301,1.592-8.219,3.955-5.926,12.104l-1.404,0.581l-3.952-9.786l29.072-12.173l4.167,9.71l-1.394,0.606
	c-4.225-7.378-9.308-5.521-12.736-4.315l10.687,25.528c1.707,4.12,2.94,3.734,6.627,2.453L366.153,457.471"/>
<path fill="#003888" d="M394.214,441.008l-15.52,9.856l-0.729-1.086c2.272-1.732,3.907-3.003,2.143-5.756l-13.638-21.463
	c-1.852-2.928-4.004-1.672-6.099-0.521l-0.718-1.136l15.495-9.831l0.723,1.106c-2.024,1.417-4.147,2.818-2.245,5.812l13.67,21.453
	c1.782,2.848,3.639,1.832,6.217,0.456L394.214,441.008"/>
<path fill="#003888" d="M390.212,397.306c-7.375,6.922-8.632,17.955-0.821,26.299c7.571,8.043,18.482,8.244,26.346,0.871
	c7.859-7.358,8.344-18.28,0.796-26.309C408.675,389.807,397.588,390.363,390.212,397.306 M391.391,398.587
	c5.376-5.071,13.117,0.335,18.345,5.952c3.136,3.329,11.333,12.554,4.803,18.675c-6.535,6.146-15.214-2.648-18.35-5.952
	C390.936,411.666,386.045,403.567,391.391,398.587z"/>
<path fill="#003888" d="M433.555,402.997c1.424-2.818,1.927-4.24-0.963-6.152L411.746,383.2c-4.635,0.51-5.213,1.081-5.594,1.667
	l-1.091-0.701l6.054-9.275l28.729-2.988l0.05-0.045l-13.28-8.705c-2.65-1.762-4.465-2.167-7.042,1.227l-1.106-0.746l6.217-9.425
	l1.086,0.706c-1.687,3.449-0.866,4.33,1.276,5.756l25.858,16.918l-0.789,1.231l-36.613,3.924l-0.052,0.12l17.526,11.518
	c3.204,2.062,4.623,1.647,7.108-1.347l1.086,0.756l-6.53,9.926L433.555,402.997"/>
<path fill="#003888" d="M323.179,69.812c1.446-21.313,13.742-42.471,22.927-57.348c-29.647,0-96.593,0-126.208,0
	c9.18,14.876,21.471,36.035,22.895,57.348c13.019-2.438,26.464-3.719,40.207-3.719S310.17,67.374,323.179,69.812"/>
<path fill="#003888" d="M242.793,496.179c-1.424,21.308-13.71,42.466-22.895,57.343h126.208
	c-9.18-14.876-21.481-36.035-22.927-57.343c-13.007,2.433-26.437,3.714-40.179,3.714S255.813,498.611,242.793,496.179"/>
<path fill="#003888" d="M492.124,242.951H323.042v-88.247c-12.667-3.954-26.109-6.077-40.042-6.077
	c-13.938,0-27.382,2.123-40.037,6.077v88.247H73.848c-22.65,0-45.555-13.31-61.362-23.075v126.233
	c15.807-9.766,38.712-23.07,61.362-23.07h169.115v88.247c12.654,3.955,26.099,6.082,40.037,6.082
	c13.933,0,27.375-2.127,40.042-6.082v-88.247h169.083c22.682,0,45.583,13.305,61.415,23.07V219.876
	C537.707,229.642,514.806,242.951,492.124,242.951"/>
<path fill="#FFFFFF" d="M180.948,300.029h-14.223v-1.256c2.891-0.315,3.879-0.39,3.879-4.655v-26.734
	c-2.798,0.175-6.917,0.44-7.713,8.564h-1.126l0.095-10.201h23.906l0.077,10.201h-1.133c-0.818-8.124-4.92-8.389-7.671-8.564v26.734
	c0,4.31,0.963,4.385,3.909,4.655V300.029"/>
<path fill="#FFFFFF" d="M217.315,300.029h-13.572v-1.256c2.127-0.315,3.614-0.516,3.614-3.614v-11.668h-9.585v11.668
	c0,3.098,1.444,3.298,3.566,3.614v1.256h-13.43v-1.256c2.097-0.345,3.399-0.601,3.399-3.614v-24.542
	c0-3.279-1.717-3.399-3.399-3.589v-1.281h13.43v1.281c-1.787,0.17-3.566,0.24-3.566,3.589v10.486h9.585v-10.486
	c0-3.349-1.872-3.419-3.614-3.589v-1.281h13.572v1.281c-1.712,0.17-3.521,0.31-3.521,3.589v24.542c0,3.083,1.399,3.269,3.521,3.614
	V300.029"/>
<path fill="#FFFFFF" d="M218.694,265.747h22.988v10.201h-1.009c-0.913-7.208-3.741-8.464-9.135-8.464
	c-2.167,0-2.896,0.19-2.896,2.382v11.768c3.814,0.025,5.864-1.271,6.462-7.573h1.041v17.139h-1.041
	c-0.48-6.337-2.53-7.849-6.462-7.849v12.289c0,2.222,0.753,2.818,3.351,2.818c3.887,0,7.956-1.301,10.461-8.97h1.139L242,300.029
	h-23.306v-1.256c2.265-0.315,3.512-0.456,3.512-3.614v-24.542c0-3.349-1.682-3.419-3.512-3.589V265.747"/>
<path fill="#FFFFFF" d="M273.097,298.768c-0.48,0-1.091-0.045-1.639-0.966l-8.031-14.456c2.172-0.871,6.267-2.463,6.267-8.68
	c0-8.509-8.457-8.919-11.23-8.919h-12.824v1.276c2.285,0.195,3.526,0.315,3.526,4.655v22.439c0,4.12-0.826,4.26-3.526,4.65v1.261
	h13.495v-1.261c-2.648-0.451-3.516-0.596-3.516-4.65v-9.976h1.056l8.249,15.887h8.174V298.768 M255.618,269.581
	c0.195-1.567,0.243-2.102,2.462-2.102c3.156,0,4.818,2.192,4.818,7.303c0,6.607-2.05,7.693-7.28,7.769V269.581z"/>
<path fill="#FFFFFF" d="M274.01,298.768c2.362-0.34,3.469-0.726,3.469-4.044v-24.056c-2.192-3.474-2.851-3.644-3.351-3.644v-1.282
	h8.412l13.792,21.674h0.065v-15.377c0-3.063-0.455-4.7-3.684-5.015v-1.282h8.56v1.282c-2.875,0.456-3.091,1.617-3.091,4.049v29.868
	h-1.134l-17.707-27.51h-0.083v20.322c0,3.644,0.821,4.625,3.762,5.016v1.256h-9.01V298.768"/>
<path fill="#FFFFFF" d="M325.79,300.029h-13.913v-1.256c2.143-0.27,3.712-0.45,3.712-3.614v-24.542c0-3.349-1.882-3.419-3.712-3.589
	v-1.281h13.913v1.281c-1.862,0.095-3.79,0.17-3.79,3.589v24.542c0,3.269,1.614,3.414,3.79,3.614V300.029"/>
<path fill="#FFFFFF" d="M354.753,298.768c-0.483,0-1.081-0.045-1.639-0.966l-7.996-14.456c2.142-0.871,6.237-2.463,6.237-8.68
	c0-8.509-8.442-8.919-11.21-8.919h-12.819v1.276c2.24,0.195,3.469,0.315,3.469,4.655v22.439c0,4.12-0.773,4.26-3.469,4.65v1.261
	h13.45v-1.261c-2.656-0.451-3.521-0.596-3.521-4.65v-9.976h1.086l8.222,15.887h8.191V298.768 M337.254,269.581
	c0.195-1.567,0.293-2.102,2.485-2.102c3.173,0,4.818,2.192,4.818,7.303c0,6.607-2.065,7.693-7.303,7.769V269.581z"/>
<path fill="#FFFFFF" d="M355.384,265.747h22.988v10.201h-1.031c-0.886-7.208-3.714-8.464-9.107-8.464
	c-2.197,0-2.871,0.19-2.871,2.382v11.768c3.834,0.025,5.834-1.271,6.435-7.573h1.014v17.139h-1.014
	c-0.503-6.337-2.533-7.849-6.435-7.849v12.289c0,2.222,0.748,2.818,3.349,2.818c3.904,0,7.954-1.301,10.441-8.97h1.106
	l-1.564,10.542h-23.311v-1.256c2.265-0.315,3.516-0.456,3.516-3.614v-24.542c0-3.349-1.687-3.419-3.516-3.589V265.747"/>
<path fill="#FFFFFF" d="M404.796,300.029h-22.995v-1.256c2.25-0.345,3.444-0.516,3.444-3.614v-24.542
	c0-3.349-1.66-3.419-3.444-3.589v-1.281h13.88v1.281c-2.798,0.17-4.019,0.19-4.019,4.65v23.961c0,2.408,0.888,2.818,3.569,2.818
	c5.997,0,8.221-4.189,10.046-9.931h1.159L404.796,300.029"/>
<path fill="#FFFFFF" d="M434.729,298.768c-1.902,0.1-2.548-1.612-4.31-7.058l-8.895-26.659h-1.111l-8.842,27.79
	c-1.209,3.784-1.737,5.542-3.879,5.927v1.261h8.066v-1.261c-1.366-0.115-3.273-0.265-3.273-2.163c0-0.831,0.625-2.923,1.762-6.562
	h8.94c0.578,1.612,1.859,5.376,1.859,6.748c0,1.667-0.748,1.712-3.208,1.977v1.261h12.892V298.768 M414.822,288.071l3.762-12.318
	l4.002,12.318H414.822z"/>
<path fill="#FFFFFF" d="M436.42,298.768c2.383-0.34,3.494-0.726,3.494-4.044v-24.056c-2.218-3.474-2.868-3.644-3.376-3.644v-1.282
	h8.389l13.81,21.674h0.093v-15.377c0-3.063-0.503-4.7-3.682-5.015v-1.282h8.555v1.282c-2.916,0.456-3.111,1.617-3.111,4.049v29.868
	h-1.106l-17.739-27.51h-0.053v20.322c0,3.644,0.821,4.625,3.762,5.016v1.256h-9.035V298.768"/>
<path fill="#FFFFFF" d="M464.792,300.029H477.4c10.023-0.385,14.341-8.319,14.341-17.644c0-7.784-3.639-16.638-14.804-16.638
	h-12.146v1.281c1.562,0.19,3.319,0.315,3.319,3.394v24.998c0,1.862-0.809,3.354-3.319,3.354V300.029 M474.58,269.866
	c-0.077-1.126-0.103-2.382,2.46-2.382c6.833,0,7.756,10.771,7.756,15.402c0,12.148-3.496,15.372-7.956,15.372
	c-1.907,0-2.26-0.906-2.26-2.928V269.866z"/>
<path fill="#003888" d="M139.683,215.176l-6.294,15.302l-1.204-0.5c0.729-2.458,1.229-4.265-1.779-5.496l-23.481-9.64
	c-3.229-1.302-4.167,0.67-5.155,2.647l-1.189-0.5l6.247-15.312l1.231,0.51c-0.743,2.098-1.569,4.19,1.737,5.571l23.496,9.686
	c3.111,1.251,3.977-0.436,5.188-2.753L139.683,215.176"/>
<path fill="#003888" d="M155.541,185.479c-0.286,0.49-0.696,1.036-1.88,1.111l-17.694,0.265c0.558-2.608,1.712-7.618-3.782-10.992
	c-7.541-4.605-13.137,3.744-14.849,6.537l-7.926,12.969l1.109,0.666c1.587-2.192,2.433-3.349,6.294-1.011l19.739,12.128
	c3.659,2.237,3.321,3.108,1.972,6.097l1.111,0.67l8.382-13.615l-1.154-0.681c-2.025,2.393-2.675,3.213-6.269,1.016l-8.775-5.401
	l0.651-1.081l19.144,0.24l5.035-8.27L155.541,185.479 M118.975,187.386c-1.276-1.086-1.707-1.417-0.363-3.644
	c1.977-3.254,4.925-3.709,9.42-0.911c5.841,3.539,5.523,6.242,2.373,11.568L118.975,187.386z"/>
<path fill="#003888" d="M132.333,402.727c-1.477-2.022-0.46-3.764,2.943-8.8l16.601-24.972l-0.821-1.222l-30.44,6.117
	c-4.12,0.821-6.047,1.202-7.949-0.941l-1.091,0.701l5.884,8.92l1.086-0.721c-0.894-1.552-2.147-3.739-0.488-4.82
	c0.684-0.48,2.968-0.971,6.945-1.787l6.49,9.831c-1.019,1.546-3.332,5.085-4.535,5.851c-1.427,0.971-1.985,0.2-4.004-2.353
	l-1.106,0.741l9.375,14.151L132.333,402.727 M127.152,374.696l13.357-2.868l-7.746,11.417L127.152,374.696z"/>
<path fill="#FFFFFF" d="M74.259,298.768c2.415-0.34,3.521-0.726,3.521-4.044v-24.056c-2.215-3.474-2.886-3.644-3.394-3.644v-1.282
	h8.412l13.808,21.674h0.072v-15.377c0-3.063-0.476-4.7-3.707-5.015v-1.282h8.582v1.282c-2.851,0.456-3.119,1.617-3.119,4.049v29.868
	h-1.106L79.62,273.43h-0.055v20.322c0,3.644,0.798,4.625,3.762,5.016v1.256h-9.067V298.768"/>
<path fill="#FFFFFF" d="M117.889,264.965c-7.704,0-14.128,6.948-14.128,18.015c0,10.682,5.957,18.004,14.128,18.004
	c8.124,0,14.081-7.323,14.081-18.004C131.97,271.913,125.55,264.965,117.889,264.965 M117.889,266.637
	c5.566,0,7.015,8.94,7.015,16.343c0,4.43-0.215,16.363-7.015,16.363c-6.797,0-7.058-11.933-7.058-16.363
	C110.832,275.577,112.323,266.637,117.889,266.637z"/>
<path fill="#FFFFFF" d="M161.834,298.768c-0.485,0-1.066-0.045-1.624-0.966l-7.996-14.456c2.147-0.871,6.217-2.463,6.217-8.68
	c0-8.509-8.429-8.919-11.235-8.919h-12.814v1.276c2.287,0.195,3.516,0.315,3.516,4.655v22.439c0,4.12-0.773,4.26-3.516,4.65v1.261
	h13.444v-1.261c-2.603-0.451-3.469-0.596-3.469-4.65v-9.976h1.086l8.216,15.887h8.174V298.768 M144.358,269.581
	c0.188-1.567,0.291-2.102,2.46-2.102c3.184,0,4.818,2.192,4.818,7.303c0,6.607-2.05,7.693-7.278,7.769V269.581z"/>
<path fill="#FFD64E" d="M292.883,32.041c-2.641,2.823-5.016,4.745-7.008,6.062c1.236-2.037,2.843-4.325,4.956-6.788
	c7.463-8.785-2.568-16.333-8.877-10.486c-6.294-5.847-16.345,1.702-8.882,10.486c2.229,2.603,3.879,5.006,5.135,7.133
	c-2.015-1.321-4.45-3.273-7.165-6.191c-6.95-7.438-12.897,2.573-8.304,8.864c-4.593,6.307,1.354,16.338,8.304,8.895
	c3.687-3.979,6.862-6.177,9.155-7.393c0.543,3.168,0.508,8.049-2.044,14.676c0,0-1.442,4.115,4.339,4.245
	c5.469,0.12,3.79-4.485,3.79-4.485s-2.748-6.066-2.323-14.486c2.29,1.251,5.376,3.424,8.925,7.233
	c6.95,7.438,12.957-2.578,8.359-8.879C305.84,34.613,299.833,24.577,292.883,32.041"/>
<path fill="#FFD64E" d="M292.883,515.455c-3.549,3.81-6.635,5.987-8.92,7.243c-0.436-8.424,2.318-14.501,2.318-14.501
	s1.679-4.595-3.79-4.475c-5.781,0.12-4.339,4.234-4.339,4.234c2.558,6.627,2.587,11.513,2.044,14.681
	c-2.297-1.211-5.468-3.404-9.155-7.368c-6.955-7.488-12.907,2.563-8.289,8.855c-4.618,6.322,1.334,16.373,8.289,8.875
	c2.725-2.923,5.161-4.88,7.18-6.207c-1.256,2.143-2.911,4.565-5.15,7.203c-7.463,8.734,2.588,16.283,8.882,10.472
	c6.31,5.811,16.341-1.737,8.877-10.472c-2.123-2.488-3.731-4.79-4.96-6.842c1.987,1.316,4.367,3.233,7.013,6.071
	c6.955,7.463,12.967-2.568,8.349-8.879C305.85,518.053,299.838,507.992,292.883,515.455"/>
<path fill="#FFD64E" d="M534.981,274.13c-2.64,2.248-5.056,3.915-7.198,5.171c1.314-2.027,3.281-4.475,6.229-7.193
	c7.468-6.908-2.573-12.889-8.872-8.304c-6.332-4.585-16.345,1.396-8.895,8.304c3.972,3.664,6.167,6.842,7.38,9.14
	c-3.166,0.536-8.046,0.49-14.653-2.083c0,0-4.147-1.396-4.27,4.415c-0.092,5.476,4.513,3.759,4.513,3.759s6.052-2.748,14.468-2.313
	c-1.256,2.288-3.419,5.366-7.218,8.89c-7.436,6.988,2.585,12.989,8.882,8.344c6.269,4.645,16.32-1.356,8.859-8.344
	c-2.811-2.623-4.728-4.99-6.039-6.982c2.04,1.227,4.337,2.843,6.813,4.96c8.745,7.443,16.315-2.583,10.452-8.89
	C551.296,276.733,543.726,266.662,534.981,274.13"/>
<path fill="#FFD64E" d="M58.309,279.171c-6.623,2.578-11.508,2.618-14.681,2.078c1.221-2.298,3.414-5.471,7.403-9.135
	c7.446-6.917-2.6-12.899-8.9-8.289c-6.294-4.61-16.355,1.372-8.892,8.289c2.948,2.718,4.906,5.156,6.227,7.178
	c-2.137-1.256-4.555-2.913-7.19-5.155c-8.745-7.474-16.291,2.603-10.467,8.875c-5.824,6.312,1.722,16.328,10.467,8.89
	c2.48-2.112,4.783-3.724,6.827-4.96c-1.319,1.992-3.234,4.36-6.059,6.983c-7.463,6.987,2.588,12.994,8.872,8.344
	c6.329,4.65,16.36-1.357,8.9-8.344c-3.804-3.524-5.984-6.603-7.233-8.885c8.427-0.446,14.489,2.302,14.489,2.302
	s4.577,1.722,4.479-3.754C62.423,277.779,58.309,279.171,58.309,279.171"/>
</svg>
