<svg xmlns="http://www.w3.org/2000/svg" viewBox="1 1 180.61 298"><!-- Source: https://football-logos.cc --><path d="M321.473 169.483c-2.191 2.144-5.964 3.64-8.404 3.64-9.148 0-12.776-5.324-12.776-12.82 0-5.49 4.435-11.746 11.989-11.652 7.32.091 13.057 7.115 13.082 17.035.03 12.008-10.983 24.694-23.795 26.873l-4.961 5.213c18.216-.478 37.139-13.206 37.139-32.813 0-11.854-9.69-22.432-21.718-22.432-12.55 0-20.252 10.258-20.346 20.151-.087 9.15 7.393 16.11 17.416 16.11 1.73 0 3.834-.182 6.332-1.162 2.243-1.532 5.573-6.861 6.042-8.143M265.528 192.364c-4.62 0-13.371-2.362-13.371-10.642 0-4.62 4.275-8.16 8.772-10.526 8.548 3.252 17.502 5.618 17.453 12.17-.044 5.96-7.712 8.998-12.854 8.998m-.918-44.222c3.66 0 10.663 2.023 10.637 8.718-.02 5.056-4.004 7.409-6.22 9.042-6.818-2.583-15.127-4.779-15.127-11.02 0-5.135 6.178-6.74 10.71-6.74m.483-5.615c-12.93.077-19.346 6.416-19.346 14.347 0 6.363 4.371 10.071 9.688 12.05-4.25 2.17-11.632 4.258-11.68 14.138-.042 9.064 10.69 14.73 21.323 14.73 8.106 0 21.664-4.735 21.552-15.368-.094-8.888-6.616-11.454-12.717-14.766 8.62-4.247 9.513-8.624 9.513-11.696 0-7.495-7.213-13.502-18.333-13.435M234.472 197.787v-.828c-2.727-1.648-3.769-2.68-3.76-8.767.024-15.258.036-30.375.06-45.633l-2.024.001c-3.696 4.806-9.168 10.654-15.166 12.069l-.375 1.477 6.983-.066c1.089-.01 2.133-.612 2.127 3.394l-.046 29.18c-.01 6.172-1.823 7.447-5.113 8.415v.756zM296.719 314.027v-1.76c-2.127-.305-2.165-1.583-2.18-5.806l-.072-18.27c-.016-4.274-.297-5.165 2.369-5.705v-1.76l-10.955.024v1.76c1.54.446 2.576.518 2.576 4.79v18.552c0 4.327.558 6.175-2.553 6.433v1.76zM275.513 309.299c-1.558.027-4.144-.029-5.27-.149-1.09-.115-1.68-.208-1.68-2.571V288.19c0-4.323-.273-5.07 2.918-5.633v-1.76l-11.33-.023v1.76c2.696.023 2.482 1.78 2.426 6.102l-.235 18.06c-.054 4.218.107 5.559-2.157 5.536v1.76h21.53c.613-2.272 2.302-6.01 2.985-7.982l-.912-.084c-1.392 1.193-4.22 3.302-8.275 3.373M239.714 284.686c5.782 0 11.827 4.674 11.73 13.272-.095 8.22-6.614 12.309-11.39 12.309-6.435 0-12.662-5.156-12.67-13.097-.01-8.416 7.252-12.484 12.33-12.484m.202-3.987c-11.513 0-19.287 8.356-19.287 17.004 0 9.653 9.543 16.293 19.598 16.293 9.451 0 18.205-5.977 18.205-16.836 0-9.955-9.366-16.46-18.516-16.46" style="fill:#1b1918;fill-rule:evenodd" transform="translate(-39.961 -35.65)scale(.44103)" data-source="https://football-logos.cc"></path><path d="M209.943 309.383c-6.835-.161-12.47-4.818-12.236-12.756.218-7.387 4.163-11.206 11.452-11.278 4.583-.046 6.468 1.479 8.965 3.36l.18-6.864c-1.288-.442-5.39-1.109-9.461-1.093-11.781.047-18.313 7.371-18.266 16.224.042 7.994 4.924 17.113 18.297 17.113 3.419 0 7.764-.677 9.07-1.12.793-1.39 2.365-4.077 3.2-6.87l-.672-.341c-1.915 1.267-5.54 3.743-10.529 3.625M186.612 288.965l-.158-7.354c-.905-.352-5.33-.853-8.547-.853-8.732 0-12.72 3.655-12.673 8.412.048 4.826 3.837 7.614 9.217 9.781 4.17 1.68 8.288 3.547 8.444 6.51.116 2.228-3.767 4.257-6.833 4.247-4.388-.015-8.77-2.132-12.41-5.178l2.162 7.913c1.604 1.737 8.486 1.59 9.363 1.59 9.03-.009 14.232-4.418 14.232-10.15 0-4.977-5.422-7.17-10.996-9.664-4.436-1.985-6.22-3.365-6.293-5.66-.078-2.467 3.257-3.689 6.073-3.689 4.122 0 7.107 2.267 7.694 4.075zM150.324 297.173l-8.265-.023 4.007-9.7h.151zm14.65 16.866v-1.76c-1.971-.262-2.858-1.865-4.71-6.23l-10.047-23.687.011-1.51-9.104-.08-.77 1.222c2.031.644 2.13 1.797 1.44 3.46l-8.9 21.459c-1.737 4.187-2.06 4.94-4.3 5.366l-.05 1.76h10.308v-1.76c-2.24-.336-2.671-.66-1.66-2.96l3.31-7.536 11.434.047 2.949 7.509c.86 2.19.822 2.78-1.148 2.94v1.76zM323.613 309.383c-5.992-.114-11.721-4.631-11.487-12.569.218-7.387 3.413-11.394 10.702-11.465 4.583-.045 6.374 1.948 8.872 3.828l.273-7.332c-1.287-.442-5.39-1.109-9.46-1.093-11.782.046-16.954 7.559-16.907 16.412.042 7.993 4.83 16.925 16.938 16.925 3.418 0 7.763-.677 9.07-1.12.345-1.409 1.16-3.416 2.674-6.352l-.809-.616c-1.993 1.294-5.171 3.471-9.867 3.382" style="fill:#1b1918;fill-rule:evenodd" transform="translate(-39.961 -35.65)scale(.44103)"></path><path d="m353.569 297.173-8.266-.023 4.008-9.7h.15zm14.65 16.866v-1.76c-1.972-.262-2.859-1.865-4.71-6.23l-10.048-23.687.011-1.51-9.104-.08-.77 1.222c2.031.644 2.13 1.797 1.44 3.46l-8.9 21.459c-1.737 4.187-2.06 4.94-4.3 5.366l-.05 1.76h10.308v-1.76c-2.24-.336-2.671-.66-1.66-2.96l3.31-7.536 11.434.047 2.949 7.509c.86 2.19.822 2.78-1.148 2.94v1.76zM382.662 309.299c-1.557.026-3.886.111-5.012-.008-1.088-.116-1.937-.35-1.937-2.712V288.19c0-4.323-.257-5.352 2.067-5.633v-1.76l-10.195-.023v1.76c2.695.023 2.715.561 2.704 4.883l-.047 18.013c-.011 4.217.068 6.731-1.774 6.802v1.76h19.546c.613-2.272 2.302-6.01 2.985-7.981l-.912-.085c-1.392 1.193-3.37 3.303-7.425 3.373M408.935 309.383c-5.991-.114-11.72-4.631-11.486-12.569.217-7.387 3.413-11.394 10.702-11.465 4.583-.045 6.374 1.948 8.871 3.828l.274-7.332c-1.288-.442-5.39-1.109-9.461-1.093-11.781.046-16.953 7.559-16.906 16.412.042 7.993 4.83 16.925 16.937 16.925 3.419 0 7.764-.677 9.07-1.12.346-1.409 1.161-3.416 2.675-6.352l-.809-.616c-1.993 1.294-5.171 3.471-9.867 3.382" style="fill:#1b1918;fill-rule:evenodd" transform="translate(-39.961 -35.65)scale(.44103)"></path><path d="M429.947 314.027v-1.76c-2.127-.305-2.164-1.583-2.18-5.806l-.071-18.27c-.016-4.274-.298-5.165 2.368-5.705v-1.76l-10.955.024v1.76c1.54.446 2.577.518 2.577 4.79v18.552c0 4.327.557 6.175-2.554 6.433v1.76zM448.914 284.639c5.63.225 11.076 4.581 10.978 13.178-.093 8.219-6.032 12.074-11.933 12.074-6.435 0-10.712-5.015-10.72-12.956-.008-8.415 6.6-12.499 11.675-12.296m-.935-3.94c-11.513.049-17.167 8.356-17.167 17.004 0 9.653 7.493 16.289 18.086 16.334 9.029.038 17.423-7.145 17.468-17.065.045-9.952-7.315-16.32-18.387-16.273M361.056 192.364c-4.62 0-13.371-2.362-13.371-10.642 0-4.62 4.275-8.16 8.772-10.526 8.547 3.252 17.501 5.618 17.453 12.17-.044 5.96-7.712 8.998-12.854 8.998m-.919-44.222c3.66 0 10.663 2.023 10.637 8.718-.02 5.056-4.003 7.409-6.219 9.042-6.818-2.583-15.127-4.779-15.127-11.02 0-5.135 6.177-6.74 10.71-6.74m.484-5.615c-12.93.077-19.346 6.416-19.346 14.347 0 6.363 4.37 10.071 9.687 12.05-4.25 2.17-11.632 4.258-11.679 14.138-.042 9.064 10.69 14.73 21.323 14.73 8.105 0 21.663-4.735 21.551-15.368-.093-8.888-6.616-11.454-12.716-14.766 8.62-4.247 9.513-8.624 9.513-11.696 0-7.495-7.213-13.502-18.333-13.435M160.197 218.884h276.50800000000004v39.92H158.284v-39.92zm184.971 3.827v32.266h87.71V222.71zm-3.827 32.266V222.71h-88.015v32.266zM249.5 222.71H162.11v32.267H249.5zM185.192 468.107h-11.656v27.976h67.266v-27.976h-10.329m-60.696-84.97-.005 12.731h-7.018v-12.707m60.421 84.946h-11.682m-7.285 0h-11.707zm53.494-52.033-16.577 30.444h33.297zm-105.17-32.912v12.706h-7.494v-12.706h-7.453v19.795l7.185 8.47.743.876v144.54799999999997H167.3v-95.83h.012l-.023-47.624v-1.063l.645-.837 8.04-10.418v-17.917zm21.004 119.158v54.531h5.3v-30.27c0-3.666 1.497-6.998 3.91-9.411a13.28 13.28 0 0 1 9.412-3.911h.028c3.667 0 6.999 1.498 9.412 3.91a13.28 13.28 0 0 1 3.911 9.412v30.27h5.074v-30.27c0-3.666 1.498-6.998 3.911-9.411a13.28 13.28 0 0 1 9.412-3.911h.028c3.667 0 6.999 1.498 9.412 3.91a13.28 13.28 0 0 1 3.911 9.412v30.27h3.545V502.32zm-.012-41.583h67.561v-8.007h-10.417l2.5-4.592 21.798-40.031 2.72-4.995 2.736 4.983 21.985 40.031 2.529 4.604h-11.834v104.121h.004v6.236h-133.82999999999998V414.571l-7.184-8.47-.743-.876v-28.299h50.861000000000004v26.248999999999995l-.657.852-8.052 10.433zm25.749 96.114v-30.27a7.06 7.06 0 0 0-2.084-5.002 7.06 7.06 0 0 0-5.003-2.084h-.028a7.06 7.06 0 0 0-5.003 2.084 7.06 7.06 0 0 0-2.084 5.002v30.27zm48.049-104.121v104.121h19.544V452.73Zm-30.503 104.121h14.202v-30.27a7.06 7.06 0 0 0-2.084-5.002 7.06 7.06 0 0 0-5.003-2.084h-.028a7.06 7.06 0 0 0-5.002 2.084 7.06 7.06 0 0 0-2.084 5.002z" style="fill:#1b1918;fill-rule:evenodd" transform="translate(-39.961 -35.65)scale(.44103)"></path><path d="M151.786 426.571h10.266v18.375h-10.266zM151.786 511.61h10.266v20.43h-10.266zM252.132 511.61h10.833v20.43h-10.833z" style="fill:none" transform="translate(-39.961 -35.65)scale(.44103)"></path><path d="M262.965 511.61h-10.833v20.43h10.833zM263.815 464.272h-11.683v20.43h11.683zM162.052 532.04v-20.43h-10.266v20.43zM151.786 444.946h10.266v-18.375h-10.266z" style="fill:#191e18;fill-rule:evenodd" transform="translate(-39.961 -35.65)scale(.44103)"></path><path d="M162.052 444.946h-10.266v-18.375h10.266zm5.248 111.905v-95.83h.012l-.023-47.624v-1.063l.645-.837 8.04-10.418v-17.917h-6.197l-.005 12.706h-7.018V383.16l-10.223.002v12.706h-7.493v-12.706h-7.454l.001 19.795 7.184 8.47.743.877V556.85zm-15.514-45.24h10.266v20.43h-10.266zM240.802 502.32h-67.266v54.531h5.3v-30.27c0-3.666 1.497-6.998 3.91-9.411a13.28 13.28 0 0 1 9.412-3.911h.028c3.667 0 6.999 1.498 9.412 3.91a13.28 13.28 0 0 1 3.911 9.412v30.27h5.074v-30.27c0-3.666 1.498-6.998 3.911-9.411a13.28 13.28 0 0 1 9.412-3.911h.028c3.667 0 6.999 1.498 9.412 3.91a13.28 13.28 0 0 1 3.911 9.412v30.27h3.545zM247.322 452.73v104.121h19.544V452.73Zm16.493 31.972h-11.683v-20.43h11.683zm-11.683 26.909h10.833v20.43h-10.833zM241.125 446.518h33.297l-16.72-30.444z" style="fill:#e6b455;fill-rule:evenodd" transform="translate(-39.961 -35.65)scale(.44103)"></path><path d="M185.188 467.616h7.35v19.8h-7.35zM204.2 467.84h7.313v19.426h-7.312zM223.176 467.691h7.313v19.65h-7.313z" style="fill:none" transform="translate(-39.961 -35.65)scale(.44103)"></path><path d="M192.538 487.416v-19.8h-7.35l.001.486v19.314zM204.2 467.84v19.426h7.313V467.84zM223.173 468.107l.003 19.234h7.312v-19.65h-7.312z" style="fill:#191e18;fill-rule:evenodd" transform="translate(-39.961 -35.65)scale(.44103)"></path><path d="M192.538 487.416h-7.35l.003-19.309h-11.656v27.976h67.267v-27.976h-10.314v19.234h-7.312l-.001-19.234h-11.662v19.159H204.2v-19.16l-11.662.001z" style="fill:#e6b455;fill-rule:evenodd" transform="translate(-39.961 -35.65)scale(.44103)" data-source="https://football-logos.cc"></path><path d="M192.158 519.495a7.06 7.06 0 0 0-5.002 2.084 7.06 7.06 0 0 0-2.085 5.002v30.27h14.202v-30.27a7.06 7.06 0 0 0-2.084-5.002 7.06 7.06 0 0 0-5.003-2.084zM216.82 526.581v30.27h14.2v-30.27a7.06 7.06 0 0 0-2.083-5.002 7.06 7.06 0 0 0-5.003-2.084h-.028a7.06 7.06 0 0 0-5.002 2.084 7.06 7.06 0 0 0-2.084 5.002" style="fill:#e20612;fill-rule:evenodd" transform="translate(-39.961 -35.65)scale(.44103)"></path><path d="M491.062 420.045c0-90.695-22.047-172.469-57.772-231.511-35.21-58.192-83.628-94.095-137.002-94.095-53.167 0-100.765 35.674-135.278 93.519-35.27 59.113-56.796 141.19-56.796 232.237 0 91.155 21.57 173.708 56.912 233.234 34.482 58.078 82.003 94.022 135.087 94.022 53.296 0 101.678-36.257 136.902-94.767 35.825-59.507 57.947-141.823 57.947-232.64M442.99 182.687c36.738 60.718 59.41 144.57 59.41 237.358 0 92.897-22.747 177.296-59.585 238.485-37.266 61.902-89.038 100.26-146.602 100.26-57.391 0-108.303-38.078-144.832-99.604-36.332-61.193-58.506-145.797-58.506-238.991 0-93.077 22.148-177.22 58.435-238.04 36.557-61.269 87.533-99.054 144.978-99.054 57.625 0 109.437 37.998 146.702 99.586" style="fill:#e6b559;fill-rule:evenodd" transform="translate(-39.961 -35.65)scale(.44103)"></path><path d="m108.406 326.649 378.526.075v11.294l-378.526-.075z" style="fill:#e6b559;fill-rule:evenodd" transform="translate(-39.961 -35.65)scale(.44103)"></path><path d="M342.779 737.978V337.99l-47.1-.01v409.47h.534c16.042 0 31.639-3.284 46.566-9.472zM371.93 337.995v383.666c17.074-12.166 32.912-28.31 47.1-47.73V338.005ZM447.332 338.01v288.38c27.368-56.427 43.73-128.242 43.73-206.345 0-28.355-2.155-55.838-6.21-82.027z" style="fill:#1d1d1b;fill-rule:evenodd" transform="translate(-39.961 -35.65)scale(.44103)"></path><path d="M371.93 721.661V337.995l-29.151-.006v399.989c10.043-4.164 19.784-9.641 29.152-16.317zM419.03 338.005V673.93c4.898-6.702 9.599-13.794 14.085-21.247 5.016-8.33 9.762-17.109 14.217-26.294V338.01ZM253.326 254.977h88.015V222.71h-88.015z" style="fill:#fff;fill-rule:evenodd" transform="translate(-39.961 -35.65)scale(.44103)"></path><path d="M160.197 218.884h276.508v39.92H158.284v-39.92zm56.961-21.855c3.29-.968 5.103-2.243 5.113-8.415l.046-29.18c.006-4.006-1.038-3.404-2.127-3.394l-6.983.066.374-1.477c5.999-1.415 11.47-7.263 15.167-12.069h2.024l-.06 45.632c-.008 6.086 1.033 7.12 3.76 8.767v.828l-17.314-.002zm47.92.763c-10.633 0-21.365-5.666-21.322-14.73.046-9.88 7.429-11.967 11.679-14.138-5.317-1.979-9.688-5.687-9.688-12.05 0-7.93 6.417-14.27 19.346-14.347 11.12-.067 18.333 5.94 18.333 13.435 0 3.072-.892 7.45-9.513 11.696 6.1 3.312 12.623 5.878 12.717 14.767.112 10.632-13.446 15.367-21.552 15.367m44.021-19.003c-10.023 0-17.503-6.96-17.416-16.111.094-9.893 7.796-20.151 20.346-20.151 12.028 0 21.718 10.578 21.718 22.432 0 19.606-18.923 32.335-37.139 32.813l4.96-5.213c12.813-2.18 23.826-14.865 23.796-26.873-.025-9.92-5.762-16.944-13.082-17.035-7.554-.094-11.99 6.162-11.99 11.653 0 7.495 3.629 12.82 12.777 12.82 2.44 0 6.213-1.497 8.404-3.641-.469 1.282-3.8 6.61-6.042 8.143-2.498.98-4.602 1.163-6.332 1.163M177.907 280.758c3.218 0 7.642.501 8.547.853l.158 7.354-.725-.02c-.587-1.808-3.572-4.075-7.694-4.075-2.816 0-6.151 1.222-6.073 3.688.074 2.296 1.857 3.676 6.293 5.66 5.574 2.495 10.996 4.688 10.996 9.666 0 5.73-5.203 10.14-14.232 10.148-.877 0-7.76.148-9.363-1.589l-2.161-7.913c3.638 3.046 8.021 5.163 12.41 5.178 3.065.01 6.948-2.019 6.831-4.248-.155-2.962-4.273-4.829-8.443-6.509-5.38-2.167-9.17-4.955-9.217-9.78-.047-4.758 3.94-8.413 12.673-8.413m-65.799 45.891 370.864.074c-9.444-52.997-26.744-100.279-49.682-138.189-35.21-58.192-83.628-94.095-137.002-94.095-53.167 0-100.765 35.674-135.278 93.519-22.664 37.986-39.653 85.454-48.902 138.692m78.469-29.673c-.047-8.853 6.485-16.177 18.266-16.224 4.071-.016 8.173.651 9.46 1.093l-.179 6.863c-2.497-1.88-4.382-3.405-8.965-3.36-7.29.073-11.234 3.892-11.452 11.279-.235 7.938 5.4 12.595 12.236 12.756 4.99.118 8.614-2.358 10.53-3.625l.67.34c-.834 2.794-2.406 5.481-3.199 6.872-1.306.442-5.651 1.12-9.07 1.12-13.373 0-18.255-9.12-18.297-17.114m-25.602 15.303v1.76h-11.238v-1.76c1.97-.16 2.008-.75 1.148-2.94l-2.95-7.509-11.434-.047-3.31 7.536c-1.01 2.3-.58 2.624 1.661 2.96v1.76h-10.309l.05-1.76c2.24-.426 2.564-1.18 4.3-5.366l8.9-21.459c.69-1.663.592-2.816-1.438-3.46l.77-1.222 9.103.08-.011 1.51 10.048 23.687c1.851 4.365 2.738 5.968 4.71 6.23m265.837-14.576c0-8.648 5.654-16.955 17.167-17.004 11.072-.047 18.432 6.321 18.387 16.273-.045 9.92-8.44 17.103-17.468 17.065-10.593-.045-18.086-6.682-18.086-16.334m-70.206-99.911c-10.633 0-21.366-5.666-21.323-14.73.047-9.88 7.43-11.967 11.68-14.138-5.317-1.979-9.688-5.687-9.688-12.05 0-7.93 6.416-14.27 19.346-14.347 11.12-.067 18.333 5.94 18.333 13.435 0 3.072-.893 7.45-9.514 11.696 6.101 3.312 12.623 5.878 12.717 14.767.112 10.632-13.446 15.367-21.551 15.367m-120.69 82.907c9.15 0 18.516 6.506 18.516 16.46 0 10.86-8.754 16.837-18.205 16.837-10.055 0-19.598-6.64-19.598-16.293 0-8.648 7.774-17.004 19.287-17.004m127.669 1.834v-1.76l10.195.024v1.76c-2.324.281-2.067 1.31-2.067 5.633v18.389c0 2.363.849 2.596 1.937 2.712 1.126.12 3.455.034 5.012.008 4.056-.07 6.033-2.18 7.425-3.373l.912.085c-.683 1.97-2.372 5.709-2.985 7.98h-19.546v-1.76c1.842-.07 1.763-2.584 1.774-6.801l.047-18.013c.01-4.322-.008-4.86-2.704-4.884m23.344 14.63c-.047-8.852 5.125-16.365 16.906-16.41 4.071-.017 8.173.65 9.46 1.092l-.273 7.332c-2.497-1.88-4.288-3.873-8.871-3.828-7.289.071-10.485 4.078-10.702 11.465-.234 7.938 5.495 12.455 11.486 12.569 4.696.09 7.874-2.088 9.867-3.382l.81.616c-1.515 2.936-2.33 4.943-2.676 6.353-1.306.442-5.651 1.12-9.07 1.12-12.107 0-16.895-8.933-16.938-16.926m28.203 15.122c3.111-.259 2.553-2.106 2.553-6.433V287.3c0-4.272-1.036-4.344-2.576-4.79v-1.76l10.955-.023v1.76c-2.666.539-2.384 1.43-2.368 5.703l.07 18.271c.017 4.223.054 5.5 2.18 5.806v1.76l-10.814.017zm-96.62-31.533c4.071-.016 8.173.651 9.46 1.093l-.273 7.332c-2.497-1.88-4.288-3.873-8.87-3.828-7.29.071-10.485 4.078-10.703 11.465-.234 7.938 5.495 12.455 11.487 12.569 4.695.09 7.873-2.088 9.866-3.382l.81.616c-1.515 2.936-2.33 4.943-2.675 6.353-1.307.442-5.652 1.12-9.07 1.12-12.108 0-16.896-8.933-16.938-16.926-.047-8.853 5.125-16.366 16.906-16.412m13.626 26.16 8.9-21.458c.69-1.663.591-2.816-1.44-3.46l.77-1.222 9.104.08-.011 1.51 10.048 23.687c1.851 4.365 2.738 5.968 4.71 6.23v1.76H356.98v-1.76c1.97-.16 2.008-.75 1.148-2.94l-2.95-7.509-11.433-.047-3.31 7.536c-1.011 2.3-.58 2.624 1.66 2.96v1.76h-10.309l.05-1.76c2.24-.426 2.564-1.18 4.3-5.366m-73.796-.217.235-18.06c.055-4.321.27-6.078-2.425-6.102v-1.76l11.329.024v1.76c-3.191.563-2.917 1.31-2.917 5.634v18.388c0 2.363.59 2.456 1.678 2.571 1.127.12 3.713.176 5.27.149 4.056-.07 6.884-2.18 8.276-3.373l.912.085c-.683 1.97-2.372 5.709-2.985 7.98h-21.53v-1.76c2.264.024 2.102-1.317 2.157-5.536m26.115-.843V287.3c0-4.272-1.036-4.344-2.576-4.79v-1.76l10.955-.023v1.76c-2.666.539-2.385 1.43-2.369 5.703l.071 18.271c.016 4.223.054 5.5 2.18 5.806v1.76l-10.814.017v-1.76c3.111-.257 2.553-2.105 2.553-6.432" style="fill:#fff;fill-rule:evenodd" transform="translate(-39.961 -35.65)scale(.44103)"></path><path d="M253.9 154.882c0 6.241 8.31 8.437 15.128 11.02 2.215-1.633 6.199-3.986 6.219-9.042.026-6.696-6.977-8.718-10.637-8.718-4.532 0-10.71 1.606-10.71 6.74M260.93 171.196c-4.498 2.366-8.773 5.907-8.773 10.526 0 8.28 8.752 10.642 13.371 10.642 5.142 0 12.81-3.037 12.854-8.999.049-6.551-8.905-8.917-17.453-12.17M349.428 154.882c0 6.241 8.31 8.437 15.127 11.02 2.216-1.633 6.2-3.986 6.22-9.042.025-6.696-6.977-8.718-10.638-8.718-4.532 0-10.71 1.606-10.71 6.74M356.457 171.196c-4.497 2.366-8.772 5.907-8.772 10.526 0 8.28 8.751 10.642 13.37 10.642 5.143 0 12.81-3.037 12.855-8.999.048-6.551-8.906-8.917-17.453-12.17M150.324 297.173l-4.107-9.723h-.15l-4.008 9.7zM227.383 297.17c.008 7.94 6.235 13.097 12.67 13.097 4.777 0 11.296-4.09 11.39-12.309.098-8.598-5.947-13.272-11.729-13.272-5.078 0-12.34 4.068-12.33 12.484M349.31 287.45l-4.006 9.7 8.265.023-4.108-9.723zM437.239 296.935c.008 7.94 4.285 12.956 10.72 12.956 5.901 0 11.84-3.855 11.933-12.073.098-8.598-5.347-12.954-10.979-13.18-5.074-.202-11.683 3.882-11.674 12.297" style="fill:#fff;fill-rule:evenodd" transform="translate(-39.961 -35.65)scale(.44103)"></path><path d="M295.679 747.45V337.98l-185.404-.037c-3.961 26.259-6.061 53.818-6.061 82.252 0 91.155 21.57 173.708 56.912 233.234 34.366 57.883 81.684 93.78 134.553 94.02m-62.511-299.312 21.798-40.031 2.72-4.995 2.736 4.983 21.985 40.031 2.529 4.604h-11.832999999999998v104.121h.004v6.236H139.276V414.571l-7.184-8.47-.743-.876v-28.299h50.861000000000004v26.248999999999995l-.657.852-8.052 10.433.022 46.277h67.562v-8.007h-10.417zM345.168 254.977h87.71V222.71h-87.71z" style="fill:#e20612;fill-rule:evenodd" transform="translate(-39.961 -35.65)scale(.44103)"></path><path d="M249.499 254.977V222.71H162.11v32.266z" style="fill:#019541;fill-rule:evenodd" transform="translate(-39.961 -35.65)scale(.44103)" data-source="https://football-logos.cc"></path><!-- source: https://football-logos.cc --></svg>