<svg xmlns="http://www.w3.org/2000/svg" xml:space="preserve" viewBox="49.06 40.79 801.87 817.58"><!-- Source: https://football-logos.cc --><g transform="translate(-50 -50)" data-source="https://football-logos.cc"><path d="M319.502 867.765c-28.112-13.589-54.357-32.78-78.63-52.386h.103c-2.49-1.971-4.564-3.63-6.639-5.394-29.979-24.897-53.423-40.249-73.548 6.224-8.091-11.515-17.013-25.311-13.797-40.145 1.971-8.922 8.195-16.287 17.116-23.133-25.415-15.456-43.361-32.677-51.971-52.282-11.411-26.349-3.734-52.593 10.685-75.726-.207 26.349 7.365 48.444 26.349 58.61C117.842 626.478 100 561.126 100 491.727c0-220.332 179.668-400.104 400-400.104s400 179.772 400 400.104c0 69.398-17.842 134.751-49.17 191.805 18.983-10.166 26.555-32.262 26.349-58.61 14.419 23.133 22.095 49.378 10.685 75.726-8.61 19.606-26.556 36.826-51.971 52.282 8.921 6.846 15.146 14.211 17.116 23.133 3.216 14.834-5.705 28.63-13.796 40.145-20.125-46.473-43.569-31.12-73.548-6.224-2.075 1.764-4.149 3.423-6.639 5.394h.104c-24.274 19.606-50.519 38.797-78.631 52.386-111.412 54.15-249.586 54.15-360.997.001"></path><ellipse cx="500" cy="491.727" rx="283.506" ry="283.507" style="fill:#ec1c24" transform="rotate(-45.001 499.997 491.735)"></ellipse><path d="M500 770.669c-15.872-25.415-33.921-32.365-61.307-40.56-6.328-1.868-12.967-3.838-19.606-6.224-49.274-17.635-89.73-46.784-110.996-86.099-18.983-34.855-22.718-77.49-4.149-126.763 5.083-13.486 2.178-29.253-4.461-44.502-9.336-21.577-24.896-40.871-41.598-57.262l74.689-76.348c22.095 24.273 44.087 26.348 74.999 22.303 22.615-3.008 43.154-3.008 64.938 5.394 10.27 3.942 19.606 9.544 27.49 16.805 7.883-7.262 17.219-12.863 27.49-16.805 21.784-8.402 42.323-8.402 64.937-5.394 30.913 4.045 52.905 1.97 75-22.303l74.689 76.348c-16.701 16.39-32.262 35.685-41.598 57.262-6.639 15.249-9.544 31.016-4.461 44.502 18.569 49.273 14.834 91.909-4.149 126.763-21.265 39.315-61.722 68.465-110.996 86.099-6.639 2.386-13.278 4.357-19.606 6.224-27.384 8.195-45.33 15.145-61.305 40.56"></path><path d="M500 761.229c15.767-22.821 36.618-29.045 59.855-35.996 6.224-1.867 12.759-3.838 19.398-6.224 48.133-17.116 87.552-45.539 108.195-83.61 18.257-33.609 21.784-74.792 3.838-122.614-5.601-14.937-2.593-31.95 4.565-48.34 9.336-21.369 25.829-41.909 39.107-55.29l-67.427-68.776c-21.888 22.614-46.058 23.755-75.83 19.917-21.681-2.905-41.494-3.008-62.344 5.083-11.411 4.357-20.747 10.581-29.357 19.087-8.61-8.506-17.946-14.73-29.357-19.087-20.851-8.091-40.664-7.987-62.344-5.083-29.772 3.838-53.943 2.697-75.83-19.917l-67.427 68.776c13.278 13.382 29.772 33.921 39.108 55.29 7.157 16.39 10.166 33.403 4.564 48.34-17.946 47.822-14.42 89.005 3.838 122.614 20.643 38.071 60.062 66.494 108.195 83.61 6.639 2.385 13.174 4.357 19.399 6.224 23.236 6.951 44.086 13.175 59.854 35.996" style="fill:#fff"></path><path d="M500 737.889c15.664-14.834 35.166-21.266 55.498-27.282 28.734-8.61 56.224-20.125 80.186-38.693 30.394-23.548 50.83-55.809 52.075-94.917.519-18.05-2.801-37.759-10.685-58.921-7.469-19.606-3.423-40.976 4.772-59.648 7.78-17.946 19.295-34.336 32.054-48.963l-47.095-48.132c-23.237 17.012-49.585 17.635-77.075 14.108-41.701-5.499-61.411 2.697-89.73 30.394-28.32-27.697-48.029-35.892-89.731-30.394-27.49 3.527-53.838 2.904-77.075-14.108l-47.095 48.132c12.759 14.626 24.274 31.016 32.054 48.963 8.195 18.672 12.241 40.042 4.772 59.648-7.883 21.162-11.203 40.871-10.685 58.921 1.245 39.108 21.681 71.369 52.075 94.917 24.067 18.568 51.452 30.083 80.187 38.693 20.332 6.016 39.834 12.448 55.498 27.282"></path><path d="m217.842 613.304-64.523 21.058L150 624.196c-1.867-5.913-2.904-10.27-3.008-13.278-.208-4.15.622-7.884 2.697-11.1 2.075-3.112 4.979-5.394 8.714-6.536q3.735-1.244 7.158-.623c2.386.312 4.772 1.453 7.365 3.216q.777-6.846 4.046-10.892c2.178-2.697 5.186-4.668 8.921-5.913 3.631-1.141 7.261-1.245 10.892-.415 3.527.933 6.535 2.593 9.024 5.083 2.386 2.49 4.461 6.328 6.12 11.515zm-56.846 4.876 13.693-4.357-.933-2.697c-.934-3.009-2.282-4.979-4.046-6.017-1.66-1.037-3.63-1.244-5.809-.518-2.075.623-3.423 1.867-4.149 3.631q-1.09 2.646.311 6.846zm24.585-7.988 16.597-5.29-1.037-3.112q-2.489-7.624-5.29-9.648c-1.868-1.349-4.046-1.659-6.432-.829-2.801.934-4.668 2.593-5.601 5.29-.933 2.593-.623 6.224.934 11.1zM127.386 538.719c-1.245-9.544 1.245-18.153 7.261-25.829 6.12-7.78 14.108-12.241 23.963-13.278 9.855-1.245 18.569 1.038 26.245 6.95 7.677 5.913 12.033 13.693 13.174 23.341 1.245 10.062-1.141 18.88-7.365 26.452q-9.18 11.358-23.651 13.07-9.648 1.245-18.361-2.49c-5.809-2.385-10.581-6.224-14.419-11.203-3.839-5.084-6.121-10.789-6.847-17.013m12.552-1.452q1.09 9.336 8.402 14.938c4.875 3.734 10.581 5.186 17.324 4.357 7.469-.933 12.967-4.357 16.701-10.27 2.801-4.564 3.942-9.44 3.32-14.835-.726-6.12-3.631-10.996-8.506-14.73-4.98-3.735-10.581-5.187-17.013-4.461-6.432.83-11.619 3.631-15.56 8.506-3.838 4.876-5.498 10.374-4.668 16.495M167.323 444.217l-3.215 22.406 29.461 4.15-1.764 12.967-67.22-9.44 1.867-12.967 25.311 3.631 3.216-22.511-25.415-3.526 1.867-12.967 67.116 9.439-1.763 12.967zM192.635 405.731l6.639-23.236 12.24 3.423-10.27 35.685-65.248-18.776 10.269-35.581 12.137 3.527-6.639 23.236 11.722 3.423 6.743-23.339 11.929 3.423-6.742 23.34zM234.44 340.067l-5.706 9.855-44.191-9.129 33.403 27.905-6.328 10.892-52.904-44.087 6.327-10.892 48.859 10.062-33.091-37.448 6.224-10.789 64.523 23.964-6.224 10.788-40.768-15.042zM205.29 262.059l7.988-9.959 52.8 42.636-8.09 9.958zM245.85 217.142l10.063-8.402 63.589 35.166-10.27 8.61-13.07-7.261L275 262.992l4.772 14.315-10.27 8.61zm16.702 9.44 7.987 23.651 13.797-11.514zM337.655 231.976l-11.307 6.224-32.883-59.336 10.788-5.913 47.095 24.897-21.68-39.109 11.307-6.224 32.884 59.337-10.788 6.016-46.992-24.792zM430.913 193.906l-12.449 2.904-15.248-66.183 32.78-7.572 2.801 12.344-20.333 4.668 2.802 12.034 20.331-4.772 2.801 12.137-20.332 4.668zM492.635 116.001c9.544-.103 17.843 3.216 24.793 10.063q10.581 10.27 10.892 25.207c.104 9.855-3.112 18.361-9.854 25.311-6.639 6.95-14.834 10.581-24.482 10.684-10.166.208-18.672-3.112-25.519-10.062q-10.27-10.425-10.581-24.896c-.103-6.535 1.349-12.552 4.461-18.05 3.008-5.498 7.262-9.855 12.656-13.174 5.393-3.216 11.306-4.979 17.634-5.083m.104 12.656c-6.224.103-11.515 2.386-15.664 6.846-4.253 4.46-6.328 10.062-6.12 16.805.103 7.469 2.905 13.382 8.298 17.635 4.253 3.32 9.129 4.979 14.523 4.876 6.12-.104 11.204-2.386 15.456-6.951 4.149-4.46 6.225-9.958 6.12-16.494-.103-6.431-2.385-11.826-6.743-16.286-4.46-4.357-9.646-6.535-15.87-6.431M587.656 126.478c9.336 2.179 16.598 7.469 21.68 15.768 5.187 8.299 6.639 17.324 4.461 27.075-2.282 9.647-7.469 17.116-15.664 22.199-8.195 5.187-17.013 6.639-26.452 4.461-9.959-2.282-17.323-7.573-22.303-15.976-4.979-8.402-6.432-17.323-4.253-26.763 1.452-6.328 4.357-11.722 8.61-16.39q6.379-6.846 15.56-9.647c6.016-1.868 12.137-2.076 18.361-.727m-3.009 12.344c-6.12-1.452-11.722-.519-16.909 2.801-5.083 3.32-8.506 8.195-9.958 14.73-1.764 7.365-.415 13.797 3.838 19.191 3.32 4.253 7.573 7.054 12.863 8.195 6.017 1.452 11.515.415 16.701-2.905 5.187-3.319 8.61-8.195 10.063-14.523 1.452-6.224.519-12.033-2.697-17.427-3.216-5.29-7.884-8.713-13.901-10.062M637.241 143.594l34.232 15.249-5.186 11.618-11.308-4.979-22.407 50.312-11.929-5.291 22.406-50.311-10.995-4.979zM650 225.337l35.996-57.572 9.025 5.705c5.29 3.216 8.921 6.016 10.892 8.195 2.905 3.008 4.564 6.431 5.083 10.166.415 3.838-.415 7.366-2.49 10.685-1.349 2.179-3.112 3.942-5.083 5.083-2.075 1.245-4.669 1.971-7.677 2.282 2.49 3.734 3.735 7.469 3.838 10.892 0 3.527-.933 6.95-3.112 10.27-1.97 3.216-4.668 5.705-7.987 7.261-3.319 1.66-6.742 2.282-10.166 1.971-3.527-.311-7.468-1.971-12.137-4.875zm40.457-40.249-7.573 12.137 2.386 1.453c2.593 1.66 4.979 2.386 6.951 2.075 1.971-.312 3.527-1.453 4.772-3.423 1.141-1.764 1.452-3.631.829-5.395-.518-1.867-2.075-3.527-4.564-5.083zm-13.693 21.888-9.233 14.73 2.697 1.763q6.847 4.202 10.27 4.046c2.282-.207 4.149-1.349 5.498-3.527 1.556-2.49 1.867-5.083.933-7.677-1.037-2.593-3.631-5.187-7.883-7.883zM755.809 219.32l9.544 8.922-27.178 67.427-9.855-9.128 5.705-13.9-20.228-18.776-13.589 6.432-9.855-9.129zm-7.469 17.739-22.51 10.789 13.174 12.344zM759.751 308.221l11.099 15.145-9.958 7.262-18.672-25.623 54.876-39.938 7.675 10.478zM781.743 344.216l8.817 16.598-10.892 5.81-14.834-28.009 59.855-31.846 6.12 11.411zM862.136 456.043l-10.27-7.262c5.187-7.261 7.054-14.626 5.602-22.199-1.245-6.327-4.461-11.306-9.647-14.834-5.187-3.527-10.996-4.668-17.324-3.423-4.46.83-8.195 2.594-11.203 5.187-3.112 2.593-5.29 5.913-6.535 9.751-1.245 3.942-1.556 8.091-.623 12.344.623 3.734 1.971 6.951 3.942 9.751 1.971 2.801 5.187 5.602 9.439 8.61l-7.261 10.27c-5.706-3.942-9.959-7.987-12.656-11.93-2.697-4.045-4.668-8.817-5.705-14.522-2.075-10.27-.415-19.399 4.875-27.282 5.291-7.884 13.071-12.863 23.341-14.834 6.639-1.245 12.863-.934 18.569 1.037 5.705 2.075 10.685 5.498 14.937 10.581 4.253 4.979 6.951 10.685 8.195 17.116 1.141 5.498 1.038 10.996-.311 16.598-1.347 5.497-3.837 10.476-7.365 15.041M818.05 489.86l.726 18.776-12.344.415-1.141-31.639 67.842-2.386.415 12.966zM873.34 529.175l-2.282 12.759-43.257-7.676c-3.735-.623-6.432-.726-7.988-.415-1.763.415-3.112 1.244-4.357 2.593-1.141 1.349-1.97 3.112-2.282 5.187-.414 2.282-.207 4.253.519 6.12.726 1.764 1.867 3.112 3.319 4.046 1.453.829 4.461 1.764 8.921 2.49l41.702 7.365-2.282 12.759-39.835-7.054c-6.742-1.141-11.306-2.385-13.796-3.526-2.49-1.245-4.772-3.112-6.743-5.705-2.075-2.594-3.423-5.394-4.149-8.299-.623-3.008-.623-6.431 0-10.062.83-4.876 2.697-8.921 5.602-12.033q4.201-4.823 9.647-6.224c3.631-1.038 9.439-.727 17.428.622zM793.983 576.167l64.523 20.954-3.32 10.166c-1.867 5.809-3.735 9.959-5.29 12.448-2.282 3.527-5.187 6.017-8.714 7.366s-7.157 1.452-10.996.207c-2.386-.726-4.46-1.971-6.12-3.735q-2.489-2.49-4.046-6.846c-3.112 3.32-6.327 5.394-9.647 6.328-3.423.933-6.951.83-10.685-.415-3.631-1.245-6.639-3.216-9.025-6.016-2.385-2.905-3.838-6.017-4.357-9.44-.518-3.423.104-7.78 1.764-12.967zm48.755 29.46-13.589-4.46-.83 2.697c-.934 2.904-1.038 5.394-.311 7.261.829 1.867 2.282 3.112 4.46 3.838 1.971.622 3.838.414 5.498-.519 1.556-1.037 2.905-2.905 3.735-5.705zm-24.48-7.987-16.598-5.394-1.038 3.008c-1.556 5.083-2.075 8.713-1.349 10.996.726 2.179 2.282 3.631 4.772 4.461 2.697.829 5.29.518 7.573-1.038 2.282-1.556 4.149-4.668 5.809-9.544zM316.286 714.238c-35.892-29.875-67.427-26.556-105.291-22.511-9.855 1.141-20.124 2.179-30.809 2.801-36.515 1.971-56.535-18.361-60.892-53.216-9.751 21.162-9.854 40.146-2.49 57.262 10.685 24.482 34.44 40.872 56.639 53.839-8.817 6.328-18.983 13.485-21.473 24.793-1.66 7.676.519 16.908 7.884 28.527 21.369-44.191 51.556-21.473 77.801.311 2.282 1.971 4.564 3.838 6.432 5.394 23.963 19.398 49.793 38.278 77.697 51.764 109.959 53.423 246.473 53.423 356.432 0 27.905-13.486 53.734-32.366 77.697-51.764 1.867-1.556 4.149-3.423 6.431-5.394 26.245-21.784 56.431-44.502 77.801-.311 7.365-11.618 9.544-20.851 7.883-28.527-2.489-11.307-12.655-18.465-21.473-24.793 22.199-12.967 45.954-29.357 56.639-53.839 7.366-17.116 7.262-36.1-2.49-57.262-4.357 34.854-24.377 55.187-60.892 53.216-10.685-.622-20.954-1.66-30.809-2.801-37.863-4.046-69.398-7.365-105.291 22.511-105.703 87.759-261.72 87.759-367.426 0" style="fill:#fff"></path><path d="M309.751 722.018c-26.867-22.51-51.348-24.067-83.402-21.473-31.328 3.111-69.813 11.722-95.332-2.282 16.286 26.867 52.697 47.199 72.925 52.801-7.261 3.423-13.796 7.365-18.049 12.863 30.394-2.49 53.631 23.444 71.473 36.618 23.651 17.428 44.813 34.751 71.577 47.718 105.602 51.349 236.514 51.349 342.116 0 26.763-12.967 47.925-30.29 71.576-47.718 17.843-13.174 41.079-39.108 71.473-36.618-4.253-5.498-10.788-9.44-18.049-12.863 20.228-5.602 56.639-25.934 72.926-52.801-25.519 14.004-64.005 5.394-95.332 2.282-32.054-2.594-56.536-1.038-83.403 21.473-109.233 90.767-271.267 90.767-380.499 0"></path><path d="m336.411 764.756 11.307 6.016c7.261 3.838 12.241 7.677 14.834 11.307 2.594 3.735 3.942 8.195 4.046 13.589.104 5.187-1.245 10.581-4.149 16.079a31.9 31.9 0 0 1-7.572 9.647c-3.009 2.49-6.224 4.253-9.648 5.187-3.319.934-6.639 1.141-9.647.518-3.112-.518-7.884-2.593-14.419-6.016l-11.515-6.12zm4.564 14.212-16.805 31.64 4.46 2.386c4.357 2.282 7.781 3.527 10.27 3.527 2.49.104 4.979-.726 7.573-2.489 2.49-1.66 4.668-4.253 6.431-7.676 2.905-5.29 3.631-10.27 2.179-14.834-1.245-4.046-4.876-7.573-10.789-10.789zM399.896 794.632l10.58 2.594-8.921 35.685c-.83 3.112-1.038 5.29-.83 6.742.207 1.453.83 2.594 1.867 3.735 1.038 1.037 2.49 1.763 4.253 2.282 1.764.414 3.527.414 5.083-.104 1.555-.518 2.697-1.349 3.527-2.593.83-1.141 1.764-3.631 2.697-7.261l8.506-34.44 10.581 2.594-8.195 32.883c-1.349 5.602-2.697 9.336-3.838 11.411-1.141 1.971-2.801 3.734-5.084 5.29s-4.668 2.49-7.261 2.905c-2.49.414-5.291.207-8.402-.519-3.943-1.037-7.262-2.801-9.751-5.394-2.49-2.594-4.046-5.394-4.564-8.507-.623-3.008-.104-7.883 1.556-14.419zM464.626 865.171l1.971-56.846 8.921.312c5.187.207 8.921.623 11.307 1.349 3.319 1.037 6.016 2.801 7.883 5.29 1.971 2.593 2.905 5.498 2.697 8.818 0 2.178-.518 4.149-1.556 5.809-.933 1.764-2.49 3.32-4.564 4.876 3.32 1.66 5.81 3.838 7.366 6.328 1.349 2.489 2.075 5.394 1.971 8.714-.103 3.216-.933 6.016-2.697 8.61-1.763 2.593-3.942 4.46-6.535 5.705q-4.046 1.712-10.892 1.556zm12.449-46.162-.519 11.93 2.386.103c2.593.104 4.564-.415 5.913-1.452 1.349-1.038 1.971-2.49 2.075-4.461.104-1.763-.519-3.216-1.659-4.253-1.141-1.141-3.008-1.66-5.498-1.764zm-.83 21.577-.518 14.627 2.697.103c4.46.103 7.572-.311 9.128-1.452 1.66-1.038 2.49-2.697 2.49-4.876.103-2.386-.726-4.357-2.49-5.809-1.764-1.556-4.772-2.282-9.025-2.49zM548.651 852.516l15.664-1.867 1.245 10.165-26.452 3.32-6.95-56.432 10.788-1.348zM585.373 798.366l10.27-2.904 15.664 54.564-10.27 3.008zM659.44 831.457l-9.648 5.084-26.659-50.208 9.128-4.876 39.108 21.577-17.531-32.987 9.544-5.083 26.659 50.103-9.128 4.98-39.005-21.577zM256.95 754.902c6.017 0 10.789-4.876 10.789-10.789 0-6.016-4.772-10.892-10.789-10.892-5.913 0-10.788 4.876-10.788 10.892 0 5.913 4.875 10.789 10.788 10.789M743.05 754.902c5.913 0 10.788-4.876 10.788-10.789 0-6.016-4.875-10.892-10.788-10.892-6.016 0-10.788 4.876-10.788 10.892 0 5.913 4.771 10.789 10.788 10.789M500 698.055c-5.083-7.261-10.063-15.041-15.664-20.643l-3.216-44.502h37.759l-3.216 44.502c-5.601 5.602-10.58 13.382-15.663 20.643" style="fill:#fff"></path><path d="M500 658.325c-1.453-1.66-4.772-4.253-4.564-6.431l-.104-5.083c-.103-1.971 9.44-2.075 9.336 0l-.103 5.083c.207 2.177-3.113 4.771-4.565 6.431"></path><path d="M488.382 595.254c-.83 13.485-12.033 24.17-25.726 24.17-13.59 0-24.793-10.685-25.623-24.17h11.618v5.498c0 6.016 9.129 6.016 9.129 0v-5.498h9.854v5.498c0 6.016 9.129 6.016 9.129 0v-5.498zM444.398 679.694l3.527-52.075c-.207-8.713 7.054-5.498 14.834-6.12 7.677.623 14.938-2.593 14.73 6.12l3.527 52.075c0 8.713-36.618 8.713-36.618 0" style="fill:#fff"></path><path d="M462.759 650.233c-1.141-1.141-3.527-3.008-3.423-4.564l-.104-3.734c0-1.452 6.951-1.452 6.951 0l-.103 3.734c.102 1.556-2.283 3.423-3.321 4.564"></path><path d="M442.116 681.25c-2.49 1.556-2.593 2.801-2.593 5.394v5.705c.103 2.49.207 4.564 2.386 5.809 11.204 6.432 30.498 6.328 41.598 0 2.179-1.245 2.282-3.319 2.386-5.809v-5.705c0-2.594-.104-3.838-2.594-5.394-1.141 3.734-6.328 6.016-12.655 6.95a58 58 0 0 1-15.871 0c-6.329-.934-11.516-3.216-12.657-6.95" style="fill:#fff"></path><path d="M450.518 560.503c5.498 10.374-5.809 11.826-6.328 20.332-.518 7.055 10.166 9.648 15.561 9.233l7.157-.103c14.73.311 18.361-9.855 9.855-20.332-2.179-2.697-4.461-5.083-.934-8.506-2.593.415-4.668 1.141-5.601 2.697-2.697 4.46 4.564 8.298-1.971 12.967 1.245-5.913-.415-6.846-2.282-11.618-.83-2.282-.934-4.772.933-7.469-3.942.622-6.328 2.075-6.535 6.12-.311 5.083 3.112 8.195-2.49 13.07 1.972-11.619-1.867-15.976-7.365-16.391" style="fill:#ec1c24"></path><path d="M511.618 595.254c.829 13.485 12.033 24.17 25.726 24.17 13.589 0 24.793-10.685 25.622-24.17h-11.618v5.498c0 6.016-9.128 6.016-9.128 0v-5.498h-9.855v5.498c0 6.016-9.128 6.016-9.128 0v-5.498zM555.602 679.694l-3.527-52.075c.207-8.713-7.054-5.498-14.835-6.12-7.676.623-14.937-2.593-14.73 6.12l-3.527 52.075c0 8.713 36.619 8.713 36.619 0" style="fill:#fff"></path><path d="M537.24 650.233c1.141-1.141 3.527-3.008 3.423-4.564l.104-3.734c0-1.452-6.951-1.452-6.951 0l.104 3.734c-.103 1.556 2.283 3.423 3.32 4.564"></path><path d="M557.884 681.25c2.49 1.556 2.593 2.801 2.593 5.394v5.705c-.103 2.49-.207 4.564-2.386 5.809-11.203 6.432-30.498 6.328-41.598 0-2.178-1.245-2.282-3.319-2.385-5.809v-5.705c0-2.594.103-3.838 2.593-5.394 1.141 3.734 6.328 6.016 12.656 6.95a58 58 0 0 0 15.871 0c6.328-.934 11.515-3.216 12.656-6.95" style="fill:#fff"></path><path d="M525.104 560.503c5.498 10.374-5.809 11.826-6.328 20.332-.518 7.055 10.166 9.648 15.561 9.233l7.157-.103c14.73.311 18.361-9.855 9.854-20.332-2.178-2.697-4.46-5.083-.933-8.506-2.593.415-4.668 1.141-5.601 2.697-2.697 4.46 4.564 8.298-1.971 12.967 1.245-5.913-.415-6.846-2.282-11.618-.83-2.282-.933-4.772.934-7.469-3.942.622-6.328 2.075-6.536 6.12-.311 5.083 3.112 8.195-2.49 13.07 1.971-11.619-1.868-15.976-7.365-16.391" style="fill:#ec1c24"></path><path d="M417.738 537.267c-5.083-7.261-10.062-15.041-15.767-20.643l-3.216-44.398h37.966l-3.216 44.398c-5.704 5.601-10.684 13.381-15.767 20.643" style="fill:#fff"></path><path d="M417.738 497.64c-1.452-1.764-4.875-4.253-4.668-6.432l-.104-5.083c0-2.075 9.544-2.075 9.544 0l-.103 5.083c.207 2.179-3.217 4.668-4.669 6.432"></path><path d="M406.12 434.57c-.83 13.485-12.033 24.17-25.726 24.17s-24.897-10.685-25.726-24.17h11.722v5.498c0 6.016 9.129 6.016 9.129 0v-5.498h9.751v5.498c0 6.016 9.129 6.016 9.129 0v-5.498zM362.137 518.905l3.527-51.971c-.207-8.713 7.054-5.602 14.731-6.12 7.677.518 14.938-2.593 14.73 6.12l3.527 51.971c-.001 8.715-36.515 8.715-36.515 0" style="fill:#fff"></path><path d="M380.394 489.549c-1.038-1.141-3.527-3.008-3.32-4.564l-.103-3.734c0-1.453 6.846-1.453 6.846 0l-.104 3.734c.208 1.555-2.282 3.422-3.319 4.564"></path><path d="M359.855 520.462c-2.49 1.556-2.594 2.801-2.594 5.394v5.705c.104 2.49.104 4.564 2.282 5.809 11.203 6.328 30.498 6.328 41.702 0 2.178-1.245 2.178-3.319 2.282-5.809v-5.705c0-2.594-.104-3.838-2.594-5.394-1.141 3.735-6.224 6.017-12.655 6.951a57.4 57.4 0 0 1-15.768 0c-6.431-.935-11.514-3.217-12.655-6.951" style="fill:#fff"></path><path d="M368.257 399.819c5.498 10.373-5.913 11.826-6.432 20.332-.415 7.054 10.166 9.648 15.664 9.233l7.158-.104c14.73.312 18.257-9.855 9.855-20.332-2.179-2.697-4.461-5.083-.934-8.507-2.697.415-4.668 1.141-5.602 2.697-2.697 4.461 4.564 8.299-2.075 12.967 1.245-5.913-.311-6.846-2.179-11.618-.934-2.282-.934-4.772.934-7.469-4.046.623-6.328 2.075-6.535 6.12-.312 5.084 3.112 8.195-2.594 13.071 2.077-11.619-1.866-15.975-7.26-16.39" style="fill:#ec1c24"></path><path d="M429.357 434.57c.83 13.485 12.033 24.17 25.726 24.17s24.897-10.685 25.726-24.17h-11.722v5.498c0 6.016-9.128 6.016-9.128 0v-5.498h-9.751v5.498c0 6.016-9.128 6.016-9.128 0v-5.498zM473.34 518.905l-3.527-51.971c.208-8.713-7.054-5.602-14.73-6.12-7.677.518-14.937-2.593-14.73 6.12l-3.527 51.971c0 8.715 36.514 8.715 36.514 0" style="fill:#fff"></path><path d="M455.083 489.549c1.038-1.141 3.527-3.008 3.32-4.564l.103-3.734c0-1.453-6.846-1.453-6.846 0l.104 3.734c-.208 1.555 2.282 3.422 3.319 4.564"></path><path d="M475.623 520.462c2.489 1.556 2.593 2.801 2.593 5.394v5.705c-.104 2.49-.104 4.564-2.282 5.809-11.203 6.328-30.498 6.328-41.701 0-2.179-1.245-2.179-3.319-2.283-5.809v-5.705c0-2.594.104-3.838 2.594-5.394 1.141 3.735 6.224 6.017 12.655 6.951a57.4 57.4 0 0 0 15.768 0c6.431-.935 11.514-3.217 12.656-6.951" style="fill:#fff"></path><path d="M442.946 399.819c5.498 10.373-5.913 11.826-6.431 20.332-.415 7.054 10.166 9.648 15.663 9.233l7.158-.104c14.73.312 18.257-9.855 9.854-20.332-2.178-2.697-4.46-5.083-.934-8.507-2.697.415-4.772 1.141-5.601 2.697-2.697 4.461 4.564 8.299-2.075 12.967 1.245-5.913-.311-6.846-2.178-11.618-.933-2.282-.933-4.772.934-7.469-4.046.623-6.328 2.075-6.536 6.12-.311 5.084 3.112 8.195-2.593 13.071 2.075-11.619-1.867-15.975-7.261-16.39" style="fill:#ec1c24"></path><path d="M582.261 537.267c-5.083-7.261-10.062-15.041-15.767-20.643l-3.216-44.398h37.967l-3.216 44.398c-5.705 5.601-10.684 13.381-15.768 20.643" style="fill:#fff"></path><path d="M582.261 497.64c-1.452-1.764-4.875-4.253-4.668-6.432l-.104-5.083c0-2.075 9.544-2.075 9.544 0l-.103 5.083c.207 2.179-3.216 4.668-4.669 6.432"></path><path d="M570.643 434.57c-.829 13.485-12.033 24.17-25.726 24.17s-24.896-10.685-25.726-24.17h11.722v5.498c0 6.016 9.129 6.016 9.129 0v-5.498h9.75v5.498c0 6.016 9.129 6.016 9.129 0v-5.498zM526.66 518.905l3.527-51.971c-.207-8.713 7.054-5.602 14.731-6.12 7.677.518 14.938-2.593 14.73 6.12l3.526 51.971c0 8.715-36.514 8.715-36.514 0" style="fill:#fff"></path><path d="M544.917 489.549c-1.037-1.141-3.527-3.008-3.319-4.564l-.104-3.734c0-1.453 6.846-1.453 6.846 0l-.103 3.734c.207 1.555-2.282 3.422-3.32 4.564"></path><path d="M524.378 520.462c-2.49 1.556-2.594 2.801-2.594 5.394v5.705c.104 2.49.104 4.564 2.282 5.809 11.204 6.328 30.498 6.328 41.702 0 2.178-1.245 2.178-3.319 2.282-5.809v-5.705c0-2.594-.104-3.838-2.594-5.394-1.141 3.735-6.224 6.017-12.655 6.951a57.4 57.4 0 0 1-15.768 0c-6.432-.935-11.514-3.217-12.655-6.951" style="fill:#fff"></path><path d="M532.78 399.819c5.498 10.373-5.913 11.826-6.432 20.332-.414 7.054 10.166 9.648 15.664 9.233l7.158-.104c14.73.312 18.257-9.855 9.854-20.332-2.178-2.697-4.46-5.083-.933-8.507-2.697.415-4.772 1.141-5.602 2.697-2.697 4.461 4.564 8.299-2.075 12.967 1.245-5.913-.311-6.846-2.178-11.618-.934-2.282-.934-4.772.933-7.469-4.046.623-6.328 2.075-6.535 6.12-.311 5.084 3.112 8.195-2.593 13.071 2.075-11.619-1.867-15.975-7.261-16.39" style="fill:#ec1c24"></path><path d="M593.879 434.57c.83 13.485 12.033 24.17 25.726 24.17 13.694 0 24.897-10.685 25.727-24.17H633.61v5.498c0 6.016-9.129 6.016-9.129 0v-5.498h-9.751v5.498c0 6.016-9.128 6.016-9.128 0v-5.498zM637.863 518.905l-3.527-51.971c.208-8.713-7.054-5.602-14.73-6.12-7.676.518-14.937-2.593-14.73 6.12l-3.527 51.971c-.001 8.715 36.514 8.715 36.514 0" style="fill:#fff"></path><path d="M619.605 489.549c1.038-1.141 3.527-3.008 3.32-4.564l.103-3.734c0-1.453-6.846-1.453-6.846 0l.104 3.734c-.207 1.555 2.283 3.422 3.319 4.564"></path><path d="M640.145 520.462c2.49 1.556 2.593 2.801 2.593 5.394v5.705c-.103 2.49-.103 4.564-2.282 5.809-11.203 6.328-30.498 6.328-41.701 0-2.179-1.245-2.179-3.319-2.282-5.809v-5.705c0-2.594.103-3.838 2.593-5.394 1.141 3.735 6.225 6.017 12.656 6.951a57.4 57.4 0 0 0 15.768 0c6.431-.935 11.514-3.217 12.655-6.951" style="fill:#fff"></path><path d="M607.469 399.819c5.498 10.373-5.913 11.826-6.431 20.332-.415 7.054 10.166 9.648 15.664 9.233l7.157-.104c14.731.312 18.257-9.855 9.855-20.332-2.178-2.697-4.46-5.083-.934-8.507-2.697.415-4.772 1.141-5.601 2.697-2.697 4.461 4.564 8.299-2.075 12.967 1.245-5.913-.312-6.846-2.179-11.618-.934-2.282-.934-4.772.933-7.469-4.046.623-6.328 2.075-6.639 6.12-.207 5.084 3.216 8.195-2.49 13.071 1.972-11.619-1.866-15.975-7.26-16.39" style="fill:#ec1c24"></path><path d="M493.568 360.711c-2.49-.208-4.772-.623-6.95-1.971-1.764.415-3.216.312-4.876-.103-8.195-2.179-15.975-5.705-22.925-10.477-6.743-4.564-12.656-10.27-17.531-16.909-.83-1.141-1.349-2.282-1.349-3.837-1.141-.312-2.075-.934-2.697-1.971-7.676-12.967-11.722-28.942-9.544-44.087.311-2.179.726-3.527 1.349-4.357-.415-1.867-.519-3.631-.104-5.498 1.349-5.705 3.32-11.203 6.017-16.39 2.593-5.291 5.809-10.27 9.544-14.627 1.037-1.141 1.97-1.555 3.216-2.178.207-1.038.623-1.971 1.349-2.697 4.357-4.253 9.336-7.988 14.73-11.1 5.186-2.905 10.581-5.29 16.286-6.743 1.141-.311 2.075-.414 3.32-.311 1.037-.83 2.282-1.141 3.631-1.349a77.8 77.8 0 0 1 25.934 0c1.349.208 2.593.519 3.631 1.349 1.245-.103 2.178 0 3.319.311 5.705 1.453 11.1 3.838 16.287 6.743 5.394 3.112 10.373 6.846 14.73 11.1.727.726 1.142 1.659 1.349 2.697 1.245.623 2.179 1.037 3.216 2.178 3.734 4.357 6.95 9.336 9.544 14.627 2.697 5.187 4.668 10.685 6.016 16.39.415 1.867.311 3.631-.103 5.498.622.83 1.037 2.178 1.348 4.357 2.179 15.146-1.867 31.121-9.544 44.087-.622 1.037-1.555 1.66-2.696 1.971 0 1.555-.519 2.697-1.349 3.837-4.876 6.639-10.789 12.345-17.531 16.909-6.951 4.772-14.731 8.298-22.926 10.477-1.659.415-3.112.518-4.876.103-2.178 1.349-4.46 1.764-6.95 1.971a53.5 53.5 0 0 1-12.865 0"></path><path d="M508.714 218.802c-5.809-.623-11.618-.623-17.428.103 2.905.623 5.81 1.453 8.714 2.075a94 94 0 0 0 3.838-.934c1.452-.414 3.216-.829 4.876-1.244M481.016 252.723c1.245 3.942 2.594 7.78 3.942 11.618a202 202 0 0 0 4.046 11.1h21.992a202 202 0 0 0 4.046-11.1c1.349-3.838 2.697-7.676 3.942-11.618L500 239.238ZM489.834 322.951c6.536 1.141 13.797 1.141 20.332 0a108 108 0 0 0 8.507-10.374c2.386-3.319 4.668-6.742 6.639-10.27-2.179-4.046-4.357-7.988-6.743-11.826-2.386-3.942-4.979-7.78-7.78-11.722h-21.577c-5.394 7.468-10.062 15.456-14.523 23.547 4.253 7.367 9.336 14.422 15.145 20.645M489.834 326.271c-2.801 6.12-7.054 11.306-12.137 15.56a41 41 0 0 0 3.631 6.224c1.66 2.49 3.527 5.083 5.809 6.951 2.075 1.764 4.253 2.178 6.846 2.49 4.046.415 7.987.415 12.033 0 2.593-.312 4.772-.726 6.846-2.49 2.282-1.868 4.149-4.461 5.809-6.951a41 41 0 0 0 3.631-6.224c-5.084-4.253-9.336-9.44-12.137-15.56-6.742 1.141-13.692 1.141-20.331 0M501.556 223.989c.933-.207 1.97-.519 3.111-.726 3.008-.83 10.892-3.216 14.004-2.49 5.394 1.452 10.788 3.734 15.871 6.639 5.187 2.905 9.959 6.535 14.108 10.477 1.556 1.556-.829 6.639-2.489 10.27-.207.623-.519 1.141-.727 1.659-2.801-.207-6.224-.311-10.165-.207-4.253.103-9.129.311-14.212.518l-19.501-13.694zM545.643 253.138c3.112 3.838 6.017 7.677 8.714 11.722s5.186 8.194 7.365 12.552c-3.216 8.713-7.572 16.701-12.759 24.273-6.951.208-13.9-.207-20.747-1.037-4.358-7.987-9.025-15.872-14.42-23.341 1.556-3.838 3.009-7.78 4.461-11.826 1.349-3.942 2.697-7.987 3.942-12.033 4.772-.311 9.233-.414 13.174-.518 4.046-.103 7.573 0 10.27.208M564.73 278.761c2.594.207 3.838-.207 4.357 3.112 2.075 14.315-1.867 29.564-9.232 41.805-.933 1.764-6.535.103-8.195-.208 1.037-6.639 1.349-13.174-.104-19.709 5.394-7.884 9.958-16.079 13.174-25M567.842 275.648l-3.423-.312c-2.179-4.253-4.668-8.402-7.262-12.344-2.697-4.046-5.602-7.988-8.713-11.722.207-.518.414-1.141.726-1.764 1.037-2.282 2.386-5.083 2.905-7.676.311.207.519.415.829.83 3.527 4.149 6.639 8.818 9.233 13.9 2.49 4.979 4.46 10.27 5.705 15.664a9.5 9.5 0 0 1 0 3.424M524.689 339.549c-4.875-4.149-8.921-9.025-11.618-14.834 5.705-6.328 10.892-13.278 15.042-20.747 6.743.83 13.589 1.245 20.332 1.038 1.348 6.431.829 12.863-.207 19.295-5.811 7.675-14.524 12.343-23.549 15.248M517.116 355.524a52 52 0 0 0 4.253-5.498 90 90 0 0 0 4.253-7.262c9.544-3.112 18.776-7.987 24.897-16.182 2.075.519 4.149 1.037 6.224 1.141-.103.726-.311 1.141-.726 1.659a68.4 68.4 0 0 1-16.702 16.079c-6.535 4.461-14.419 8.196-22.199 10.063M498.444 223.989c-.934-.207-1.971-.519-3.112-.726-3.008-.83-10.892-3.216-14.004-2.49-5.394 1.452-10.789 3.734-15.872 6.639-5.187 2.905-9.959 6.535-14.108 10.477-1.556 1.556.829 6.639 2.49 10.27.208.623.519 1.141.726 1.659 2.801-.207 6.224-.311 10.166-.207 4.253.103 9.128.311 14.211.518l19.502-13.694v-12.446zM454.357 253.138c-3.112 3.838-6.016 7.677-8.714 11.722-2.697 4.045-5.187 8.194-7.366 12.552 3.216 8.713 7.573 16.701 12.759 24.273 6.951.208 13.901-.207 20.747-1.037 4.357-7.987 9.024-15.872 14.419-23.341-1.556-3.838-3.008-7.78-4.461-11.826-1.349-3.942-2.697-7.987-3.942-12.033-4.772-.311-9.233-.414-13.174-.518-4.044-.103-7.571 0-10.268.208M435.269 278.761c-2.593.207-3.838-.207-4.357 3.112-2.075 14.315 1.867 29.564 9.233 41.805.934 1.764 6.535.103 8.195-.208-1.038-6.639-1.349-13.174.103-19.709-5.393-7.884-9.958-16.079-13.174-25M432.157 275.648l3.423-.312c2.179-4.253 4.668-8.402 7.261-12.344 2.697-4.046 5.602-7.988 8.714-11.722-.207-.518-.415-1.141-.726-1.764-1.038-2.282-2.386-5.083-2.905-7.676-.312.207-.519.415-.83.83-3.527 4.149-6.639 8.818-9.232 13.9-2.49 4.979-4.461 10.27-5.706 15.664a9.5 9.5 0 0 0 .001 3.424M475.311 339.549c4.876-4.149 8.921-9.025 11.618-14.834-5.705-6.328-10.892-13.278-15.041-20.747-6.743.83-13.59 1.245-20.332 1.038-1.349 6.431-.83 12.863.208 19.295 5.808 7.675 14.522 12.343 23.547 15.248M482.883 355.524a52 52 0 0 1-4.253-5.498 90 90 0 0 1-4.253-7.262c-9.544-3.112-18.776-7.987-24.896-16.182-2.075.519-4.15 1.037-6.225 1.141.104.726.312 1.141.726 1.659a68.4 68.4 0 0 0 16.702 16.079c6.536 4.461 14.42 8.196 22.199 10.063" style="fill:#fff"></path><path d="M500 97.121c217.323 0 394.605 177.283 394.605 394.606 0 70.85-18.88 137.551-51.867 195.228-4.668 1.349-9.751 2.282-15.352 2.49 35.062-57.78 55.29-125.519 55.29-197.718 0-210.789-171.992-382.677-382.676-382.677-210.685 0-382.677 171.888-382.677 382.677 0 72.199 20.228 139.938 55.29 197.718-5.602-.208-10.685-1.141-15.353-2.49-32.988-57.677-51.867-124.378-51.867-195.228C105.394 274.404 282.676 97.121 500 97.121" style="fill:#fff"></path><path d="M500 202.723c159.128 0 288.9 129.876 288.9 289.005 0 78.319-31.432 149.585-82.469 201.764a95.2 95.2 0 0 1 19.813-6.743c45.228-52.49 72.718-120.643 72.718-195.021 0-164.627-134.337-298.963-298.963-298.963S201.036 327.101 201.036 491.728c0 74.378 27.49 142.531 72.718 195.021a95 95 0 0 1 19.813 6.743c-51.036-52.18-82.467-123.445-82.467-201.765 0-159.129 129.771-289.004 288.9-289.004" style="fill:#fff"></path></g><!-- source: https://football-logos.cc --></svg>