<svg xmlns="http://www.w3.org/2000/svg" xml:space="preserve" viewBox="2.6 2.4 278.8 278.8"><!-- Source: https://football-logos.cc --><circle cx="142" cy="141.8" r="139.4" style="fill:#962539" data-source="https://football-logos.cc"></circle><path d="M142 270c-70.7 0-128.2-57.5-128.2-128.2S71.3 13.5 142 13.5 270.2 71 270.2 141.7 212.7 270 142 270m0-250.6c-67.4 0-122.3 54.9-122.3 122.3S74.6 264.1 142 264.1s122.3-54.9 122.3-122.3S209.5 19.4 142 19.4" style="fill:#f8d100" data-source="https://football-logos.cc"></path><path d="m68.7 87.9-2.1 2.7-16.8-12.9c-2.3-1.8-2.6-3.7-1-5.9l1.6-2c1.7-2.2 3.6-2.4 6-.6l16.8 12.9-2.1 2.7-7.4-5.7-2.4 3.1zm-7.5-10.7L54.4 72q-1.2-.9-2.1.3l-.5.7q-.9 1.2.3 2.1l6.7 5.2zm8.2-17.6-1.5-1.7c-.7-.8-1.4-.8-2.1-.1l-.4.4q-1.05 1.05 0 2.1l2.9 3.1c.3.3.6.5.9.5s.6-.1 1.1-.2l3.6-.9q1.2-.3 1.8-.3c.4 0 .7 0 1.1.1.3.1.8.5 1.4 1.2l3.7 4c1.9 2.1 1.9 4.1-.1 6l-1.5 1.4c-2 1.8-4.1 1.6-6.2-.7l-.9-.9 2.5-2.3.9 1c.7.7 1.4.8 2.1.1l.4-.4c.7-.6.7-1.3 0-2L76 66.8c-.3-.3-.6-.5-.9-.5s-.6.1-1.1.2l-3.6.8q-1.2.3-1.8.3t-1.2-.3c-.4-.2-.8-.6-1.2-1.1l-3.5-3.9c-2-2.2-1.9-4.1.1-6l1.6-1.4c2-1.8 4-1.7 6 .5l1.7 1.8zm33.6-6.8.7 1.5c1.3 2.6.7 4.5-1.7 5.7l-2 1c-2.4 1.2-4.3.6-5.6-2l-7.6-15c-1.3-2.6-.7-4.5 1.7-5.7l2-1c2.4-1.2 4.3-.6 5.6 2l1.3 2.6-3 1.5-1.2-2.4c-.5-.9-1.1-1.1-2-.6l-.6.3c-.8.4-1 1.1-.5 1.9l7.4 14.6c.4.9 1.1 1.1 1.9.7l.8-.4c.8-.4 1-1.1.5-1.9l-.6-1.2zm8 3.4L102.8 32l3.2-1.1 8.2 24.2zm10.2-26 4.4 22-3.3.7-4.4-22-3.2.6-.6-3 9.8-2 .6 3zm16.9-1.8 1.1 22.4-3.4.2-1.1-22.4-3.3.2-.2-3.1 9.9-.5.2 3.1zm12.4 22.7-3.4-.4 2.4-21c.3-2.9 1.9-4.2 4.6-3.9l2.5.3q4.05.45 3.6 4.8l-2.4 21-3.4-.4 1.1-9.3-3.9-.4zm5.3-11.9 1-8.4c.1-1-.3-1.5-1.3-1.7l-.9-.1c-1-.1-1.5.3-1.7 1.3l-1 8.4zm7.7 14 7.4-24.4 5.7 1.7c3.1.9 4.1 3 3.2 6.1l-4.9 16.2c-.7 2.4-2.4 3.1-5 2.3zm4.2-2 2.5.7c.9.3 1.4 0 1.6-.7l4.8-15.7c.4-1.2 0-1.9-.9-2.2l-2.3-.7zm11.5 7.4 11.4-22.8 7.6 3.8-1.4 2.8-4.5-2.3-3.5 6.9 4 2-1.4 2.8-4-2-3.8 7.6 4.5 2.3-1.4 2.8zm18.9 11.3-6.6-4.7 14.7-20.9 2.8 2-13 18.4 3.8 2.7zm9.7 8.8-5.9-5.6 17.5-18.6 2.5 2.3-15.4 16.3 3.4 3.2zm5.3 6.1-2.1-2.7 16.8-12.9q3.45-2.7 6 .6l1.6 2c1.7 2.2 1.3 4.1-1 5.9l-16.8 12.9-2.1-2.7 7.4-5.7-2.4-3.1zm12.2-4.4 6.7-5.2q1.2-.9.3-2.1l-.6-.7q-.9-1.2-2.1-.3l-6.7 5.2zm-108 154.8-.2-2.5c.9-.1 1.8-.4 2.5-.8q1.05-.6 1.8-1.5l.3.1 1.9 1.7-5.4 23.6-3.2-.8 4.6-19.9zm13.2 16.4-.1 1c-.1 1.2.3 1.9 1.4 2h.5c.9.1 1.4-.4 1.5-1.4l.5-6.1-2.2 1.2-.8-.1c-2.7-.2-3.9-1.9-3.7-4.9l.6-7.1c.3-3 1.7-4.3 4.5-4.1l2.2.2c2.7.2 3.9 1.8 3.7 4.8l-1.5 16.4q-.45 4.5-4.5 4.2l-2-.2c-2.7-.2-3.9-1.9-3.7-4.9l.1-1.4zm3.9-6.1.7-8.4c.1-1-.4-1.6-1.5-1.7h-.4c-1-.1-1.6.4-1.7 1.4l-.6 6.6c-.1 1.2.3 1.9 1.4 2zm11.3 12.7 3.1-22.5-6.3.4-.2-3.1 8.9-.5 1.1 1.8L149 258zm19.7-15.7c1.8.1 2.9 1 3.2 2.6l1.1 5.4c.6 2.8-.5 4.5-3.1 5.1l-2.3.5c-2.7.5-4.3-.6-4.9-3.4l-.3-1.6 3.3-.7.3 1.4c.2 1 .7 1.4 1.6 1.2l.8-.2q1.5-.3 1.2-1.8l-1.1-5.1c-.2-1.1-1-1.5-2.3-1.2l-.9.2-.6-2.8.5-.1c1.3-.3 1.8-.9 1.6-2l-1-4.7q-.3-1.5-1.8-1.2l-.4.1c-.9.2-1.2.8-1 1.7l.5 2.5-3.3.7-.6-2.8c-.6-2.8.5-4.5 3.1-5.1l1.9-.4c2.7-.5 4.3.6 4.9 3.4l1 5c.6 1.5 0 2.6-1.4 3.3m15-91.5V92h-15.3v15.3h-15.3V92h-15.3v15.3H119V92h-15.3v59c-10.9 5.6-20.5 13.6-28 23.2 1.1 2.3 2.3 4.4 3.7 6.6 16.4-15.3 38.5-24.6 62.7-24.6s46.2 9.3 62.7 24.6c1.3-2.1 2.6-4.3 3.7-6.6-7.6-9.6-17.1-17.5-28.1-23.2M142 62c44 0 79.8 35.8 79.8 79.8S186 221.6 142 221.6s-79.8-35.8-79.8-79.8C62.3 97.8 98 62 142 62m0-5.9c-47.3 0-85.7 38.4-85.7 85.7s38.4 85.7 85.7 85.7 85.7-38.4 85.7-85.7c0-47.4-38.3-85.7-85.7-85.7m-60.6 74.1v29c2.6-2.4 5.4-4.6 8.3-6.7 2.7-1.9 5.4-3.7 8.3-5.3V132c-2.8 1.5-5.6 3-8.3 4.8v-11.9c-2.9 1.5-5.7 3.4-8.3 5.3m113-5.5v11.9c-2.7-1.7-5.4-3.3-8.3-4.8v15.3c2.9 1.6 5.6 3.4 8.3 5.3 2.9 2.1 5.7 4.3 8.3 6.7v-29c-2.7-1.8-5.4-3.7-8.3-5.4" style="fill:#fff" data-source="https://football-logos.cc"></path><!-- source: https://football-logos.cc --></svg>