<svg xmlns="http://www.w3.org/2000/svg" xmlns:xlink="http://www.w3.org/1999/xlink" xml:space="preserve" viewBox="0 0 506.23 600"><!-- Source: https://football-logos.cc --><defs data-source="https://football-logos.cc"><linearGradient id="a"><stop offset="0" style="stop-color:#144aa0;stop-opacity:1"></stop><stop offset=".143" style="stop-color:#1852a5;stop-opacity:1"></stop><stop offset=".283" style="stop-color:#1852a5;stop-opacity:1"></stop><stop offset=".459" style="stop-color:#2b62ae;stop-opacity:1"></stop><stop offset=".586" style="stop-color:#376eb6;stop-opacity:1"></stop><stop offset=".736" style="stop-color:#417abd;stop-opacity:1"></stop><stop offset=".863" style="stop-color:#427bbe;stop-opacity:1"></stop><stop offset="1" style="stop-color:#4b84c4;stop-opacity:1"></stop></linearGradient><linearGradient xlink:href="#a" id="b" x1="4.849" x2="501.068" y1="221.44" y2="221.44" gradientUnits="userSpaceOnUse"></linearGradient></defs><path d="M11.337 31.41C89.13 11.44 173.099.115 254.814 0c79.614-.11 159.24 10.133 240.31 31.667 8.492 45.016 11.41 87.802 11.078 129.065C504.826 331.614 435.477 506.436 252.461 600 82.177 509.252.851 350.011.006 156.33c-.17-38.959 3.015-82.697 11.33-124.92" style="fill:url(#b);stroke-width:1.05833;stroke:none;fill-opacity:1"></path><path d="M401.126 344.338c10.18-35.493 14.391-73.757 14.78-113.974.256-26.616-2.118-52.951-7.797-78.883-55.215-14.88-103.43-20.279-155.523-20.206-52.15.072-103.5 6.312-154.933 20.445-5.362 25.109-8.955 51.051-8.846 76.478.095 22.233 1.283 43.904 4.422 64.845 2.786 18.587 7.081 36.434 12.78 53.585l5.82-2.045c-5.642-16.998-9.822-34.498-12.514-52.453-3.169-21.14-4.262-42.598-4.353-63.958-.103-23.946 3.11-48.041 7.94-71.499 49.023-13.11 98.965-19.173 149.693-19.244 15.808-.022 31.609.47 47.376 1.627 35.002 2.567 69.017 8.484 102.904 17.4 5.009 24.269 7.115 49.08 6.876 73.848-.37 38.35-4.232 76.653-14.715 112.9z" style="fill:#fff;fill-rule:evenodd;stroke-width:1.05833"></path><path d="M252.593 587.876c68.086-37.818 120.406-83.907 158.272-137.529 57.952-82.064 82.746-181.09 83.798-289.73.382-39.459-3.978-78.455-11.558-117.318-74.718-19.96-151.046-29.301-228.271-29.193-77.31.107-157.694 9.856-233.1 29.548-6.69 37.222-11.376 74.918-11.213 112.614.142 32.96 1.9 65.083 6.554 96.127C25.96 311.661 44.045 367 72.076 416.733c39.174 69.505 101.209 128.073 180.517 171.143m-.033-7.034c60.034-33.79 113.328-77.472 153.278-134.045 59.498-84.253 81.683-184.252 82.67-286.239.365-37.687-3.707-75.297-10.717-112.299-72.87-19.104-147.629-28.104-222.949-27.999-76.109.106-153.92 9.451-227.74 28.363-6.241 35.516-10.582 71.52-10.427 107.618.138 31.81 1.768 63.76 6.487 95.242 8.532 56.908 25.965 111.998 54.276 162.228 40.521 71.895 103.353 127.58 175.122 167.131" style="fill:#fff;fill-rule:evenodd;stroke-width:1.05833"></path><path d="m122.587 398.593 96.8.62v5.379h2.885v-4.503l16.394.31 25.197-.337L265 386.18l5.532-.81-.068-.58 14.88-.081 1.382-.36v-22.341l-.628-.03-.788-2.542-2.85-1.153-.079-.592c6.242-1.698 8.936-5.503 15.2-14.87l.041-14.054c.013-.325.288-.138.3-.459.182-4.838.532-10.431 3.525-14.17.202-3.145.899-5.747 4.005-7.165l.596.37c6.679-3.473 7.679-9.232 7.927-16.07-.068-.249-.845-.995-.96-1.713s.433-1.55 1.03-1.685v-13.746l-1.77-1.54c1.327-2.188 1.556-4.556 3.03-7.559 1.148-2.335 3.758-5.267 6.738-8.23.313-4.266.39-8.418.531-12.733.312-9.493-.026-19.235.037-28.881l-.478-.261.195-2.854 1.698-.357c.228 15.37 1.235 29.958 2.08 46.107 2.087 1.245 4.573 4.81 6.332 8.17 1.203 2.3 1.827 5.784 3.316 7.584l.003 1.302-.999.513v13.533c.94 1.673.902 3.182-.54 4.404.542 3.61 1.085 6.37 2.053 9.555 2.17.754 5.173 1.11 7.343.941l.773 1.188c1.963 1.2 3.754 6.145 3.357 12.24 1.818 3.585 2.985 10.95 3.63 16.067 1.325 1.905 3.94 4.678 5.825 6.815 1.376 1.56 2.393 3.044 3.844 4.304 3.225 2.8 5.415 3.635 10.74 5.658l.214.731-1.708 1.458 1.442 1.71-2.345 1.665.08 10.509 26.902 8.268-11.622 33.575-30.383 40.184-21.935 10.706-57.606 14.838-53.404-1.618-25.52-3.465-63.891-43.562-8.942-11.636-3.2-10.352zm207.516-122.15a4.46 4.46 0 0 0-.622 2.206v7.762l1.584.9v-6.887c0-1.09-.315-2.775-.962-3.981m-10.993 10.676 6.222-.783v-7.865c0-2.096-1.642-4.142-3.41-5.343-1.296 1.095-2.811 2.579-2.811 4.132zm24.027 20.615c1.268 0 2.296 3.976 2.296 8.879s-1.028 8.879-2.296 8.879c-1.269 0-2.297-3.976-2.297-8.88 0-4.902 1.028-8.878 2.297-8.878m-26.33-1.84c4.55 0 8.242 3.944 8.242 8.808s-3.691 8.808-8.242 8.808-8.243-3.944-8.243-8.808 3.691-8.809 8.243-8.809" style="fill:#fff;fill-rule:evenodd;stroke-width:1.05833" data-source="https://football-logos.cc"></path><path d="M305.396 308.9c-1.812 1.195-2.143 3.12-2.285 5.345l-.034.525-.328.41c-2.74 3.421-3.002 8.964-3.161 13.19-.014.371-.118.704-.3.985l-.041 13.974-.28.418c-1.912 2.86-3.857 5.837-6.019 8.511-1.618 2.002-3.388 3.821-5.609 5.156q-.54.324-1.096.6l.426.173.676 2.182 1.047.05v25.219l-2.83.737-13.225.071.04.34-5.824.851-1.152 14.072-26.74.357-14.722-.279v4.472h-6.219v-5.39l-94.195-.603-3 4.974 1.125 3.642 14.773 19.223 56.395 38.45 44.554 6.049 37.45 1.135 49.559-12.765 32.205-15.718 28.16-37.245 11.077-31.999-28.014-8.61-.096-12.6 1.576-1.118-1.343-1.592 1.356-1.157c-3.505-1.346-6.251-2.547-9.351-5.239-1.534-1.331-2.67-2.95-4.001-4.46-1.96-2.221-4.264-4.55-5.944-6.966l-.234-.337-.052-.407c-.276-2.195-.594-4.39-.987-6.567-.392-2.178-.946-5.044-1.794-7.36-.484 4.369-2.003 7.56-3.802 7.56-2.19 0-3.964-4.723-3.964-10.546 0-5.779 1.748-10.473 3.913-10.545l-.35-.538c-2.293.035-4.967-.363-7.012-1.073l-.801-.279-.247-.812c-.987-3.25-1.601-6.433-2.106-9.79l-.138-.92.708-.6c.842-.713.672-1.414.165-2.316l-.214-.38v-14.988l.86-.441c-1.395-2.145-1.824-4.94-2.99-7.167-1.122-2.144-3.611-6.26-5.709-7.51l-.764-.457-.047-.889q-.196-3.708-.402-7.416a173 173 0 0 1-.333 6.43l-.046.622-.442.439c-2.065 2.053-5.132 5.169-6.416 7.782-1.013 2.063-1.5 4.369-2.441 6.429l1.35 1.175.002 15.837-.987.224c.216.409.688.786.857 1.403l.068.246-.01.255c-.275 7.533-1.582 13.721-8.825 17.488l-.843.438-.578-.36zm22.418-21.52 4.917 2.796v-9.752c0-2.255-.89-5.179-2.49-6.408-1.316.74-2.427 2.56-2.427 4.633zm-10.37 1.628 9.555-1.202v-9.335c0-2.646-2.051-5.766-5.238-7.37-2.336 1.911-4.317 3.724-4.317 6.159zm-.637 15.218c5.471 0 9.909 4.691 9.909 10.476 0 5.784-4.438 10.475-9.91 10.475-5.471 0-9.909-4.69-9.909-10.475s4.438-10.476 9.91-10.476" style="fill:#13499f;fill-rule:evenodd;stroke-width:1.05833;fill-opacity:1"></path><path d="m169.55 227.239 76.475-8.95.445-18.162h-7.185l2.057-13.865c-9.703-4.323-16.469-14.05-16.469-25.355 0-15.32 12.425-27.746 27.746-27.746s27.745 12.425 27.745 27.746c0 11.232-6.678 20.907-16.28 25.272l2.327 13.948h-7.52l.444 18.134 76.197 8.978v17.56l-69.634 8.395 6.183 159.188c.362 9.339 1.316 18.195 5.959 26.613 2.272 4.12 5.261 7.582 9.272 10.55 5.948 4.401 13.547 6.436 21.246 5.752 24.573-2.187 48.575-20.568 62.611-41.703 7.66-11.534 14.018-26.957 16.405-38.615l-14.076-3.229c10.098-14.533 20.81-30.2 29.162-46.998 9.213 15.63 15.128 35.744 14.668 57.084l-14.951-3.601c-3.986 19.743-8.677 31.713-18.459 45.909-16.666 24.186-41.921 41.494-69.1 51.942-15.248 5.861-31.42 10.347-42.994 17.343-8.28 5.006-14.088 11.607-18.66 19.739-3.244-6.836-11.533-15.368-18.763-19.739-11.574-6.996-27.746-11.482-42.994-17.343-27.18-10.448-52.435-27.756-69.1-51.942-9.782-14.196-14.473-26.166-18.459-45.909l-14.952 3.6c-.46-21.34 4.943-41.452 14.156-57.083 8.352 16.799 19.576 32.465 29.674 46.998l-14.332 3.23c2.387 11.657 9.002 27.08 16.661 38.614 14.036 21.136 38.039 39.516 62.612 41.703 7.698.684 15.297-1.35 21.246-5.752 4.017-2.972 7.009-6.44 9.282-10.568 4.557-8.274 5.211-16.338 5.554-25.46l6.023-160.257-70.223-8.46zm72.982-49 .857-5.778h18.406l.96 5.749c5.932-3.483 9.916-9.928 9.916-17.303 0-11.073-8.98-20.052-20.052-20.052-11.073 0-20.052 8.98-20.052 20.052 0 7.395 4.006 13.856 9.965 17.332" style="fill:#e3001f;fill-rule:evenodd;stroke-width:1.05833"></path><path d="M322.043 256.8c.313-4.266.39-8.418.531-12.733.312-9.493-.026-19.235.037-28.881l-.478-.261.195-2.854 1.698-.357c.228 15.37 1.235 29.958 2.08 46.107zM270.676 86.34c.004 6.25-3.432 10.422-9.812 10.426-6.441.005-10.238-4.021-10.242-10.414l-.013-20.647c-.004-6.903 3.655-11.005 10.155-11.01 6.445-.003 9.895 4.267 9.899 10.74v2.184l-6.951.005-.001-2.056c-.001-1.891-.87-3.707-2.72-3.706-2.158.001-3.175 1.37-3.174 3.453l.013 20.661c0 2.109.75 3.512 2.92 3.51 2.202 0 2.975-1.585 2.974-3.513l-.002-2.784 6.951-.004zM182.327 90.457c.736 6.206-2.187 10.753-8.523 11.504-6.396.759-10.345-2.829-11.098-9.178l-2.431-20.503c-.813-6.855 2.341-11.358 8.795-12.123 6.4-.759 10.034 3.113 10.796 9.542l.287 2.423-6.903.818-.273-2.296c-.222-1.878-1.299-3.58-3.134-3.362-2.143.254-2.7 1.698-2.455 3.767l2.432 20.517c.249 2.094.864 3.435 3.019 3.18 2.186-.26 2.768-1.924 2.54-3.839l-.297-2.51 6.904-.818zM211.35 87.935c.48 6.231-2.93 10.677-9.372 11.173-6.504.5-10.605-3.223-11.095-9.597l-1.585-20.587c-.53-6.882 3.112-11.274 9.674-11.78 6.507-.5 10.276 3.495 10.773 9.949zm-8.614-20.174c-.145-1.886-1.42-3.61-3.286-3.466-2.18.168-3.064 1.609-2.904 3.685l1.586 20.6c.162 2.102.986 3.447 3.177 3.279 2.223-.171 3.141-1.83 2.993-3.753zM440.166 110.37c-1.615 6.034-6.216 9.124-12.296 7.497-6.138-1.644-8.676-6.493-7.023-12.668l8.072-30.152 7.117 1.906-7.976 29.793c-.429 1.603-.308 3.44 1.76 3.994 2.097.562 3.07-.705 3.569-2.568l7.976-29.793 6.873 1.84zM87.227 106.593c1.644 6.024-.742 11.14-6.768 12.956-5.016 1.513-10.842-1.522-12.525-7.69l-8.22-30.111 7.107-1.94 8.123 29.753c.437 1.6 1.596 3.44 3.724 2.845 2.074-.58 2.105-2.437 1.597-4.298l-8.122-29.753 6.864-1.874ZM365.725 104.56l6.767-40.957 18.522 3.06-1.141 6.905-11.234-1.856L377 81.625l9.958 1.645-1.166 7.058-9.958-1.646-1.64 9.923 11.247 1.858-1.183 7.16zM335.657 100.382l5.081-40.898 6.917.86 4.837 21.129 2.556-20.21 7.121.884-5.08 40.898-6.885-.855-4.678-21.798-2.581 20.896zM220.728 97.322l-1.432-41.187 6.966-.243 8.109 20.102-.664-20.36 7.172-.25 1.432 41.188-6.934.24-8.056-20.786.746 21.04zM276.194 96.558l11.033-41.016 6.033.245 7.582 41.771-7.31-.296-1.25-8.743-6.761-.274-1.947 8.613zm10.817-14.944 4.249.172-1.695-10.996zM388.334 108.584l17.7-38.61 5.908 1.244.53 42.45-7.159-1.507.221-8.83-6.62-1.394-3.353 8.17zm13.152-12.938 4.16.877.157-11.125zM316.382 75.212l2.317.206c1.737.154 2.918-.613 3.552-1.948.765-1.61.934-4.58.667-6.28-.22-1.398-.977-2.467-3.037-2.647l-2.637-.23zM307.2 97.954l3.259-41.2 11.326.895c2.837.225 5.086 1.63 6.48 3.607 2.038 2.89 2.459 7.021 1.939 10.612-.401 2.769-1.386 6.954-5.572 8.543l4.813 19.303-7.773-.615-3.988-17.443-1.8-.166-1.348 17.044zM123.174 91.13c-2.04-.425-4.085-.83-6.027-1.637-4.634-1.922-5.375-7.885-5.644-9.635-.687-4.462.633-8.023 3.115-10.358 1.417-1.333 3.575-2.026 5.785-2.355 5.717-.851 10.547 3.01 11.586 9.4l.392 2.408-7.13 1.061-.34-2.287c-.311-2.09-1.682-3.366-3.525-3.224-2.084.16-3.106 1.618-2.939 3.553.113 1.296.185 2.46.659 3.421.87 1.768 2.418 1.866 4.152 2.147 2.074.337 4.65.825 6.48 1.62 5.425 2.356 5.49 9.265 5.737 11.015.631 4.469-.411 7.881-2.748 10.079-1.566 1.472-4.195 2.342-6.406 2.671-5.717.851-10.52-2.856-11.548-9.145l-.373-2.282 7.148-.935.265 1.78c.278 1.87 1.679 3.307 3.525 3.224 2.168-.098 3.18-1.63 3.058-3.57-.07-1.104-.112-2.427-.42-3.587-.702-2.64-2.51-2.885-4.802-3.363M145.65 97.89l7.287-1.11 1.004 7.459-7.304.983zM98.781 106.662l7.192-1.613 1.519 7.37-7.218 1.488zM248.407 232.848c0 1.495-.596 3.086-1.134 4.583l-2.965 8.253-3.9.008 3.144-8.084c-1.536.444-4.089-.414-4.089-3.222v-5.48c0-1.986 1.67-3.552 4.56-3.552 3.052 0 4.384 2.214 4.384 3.952zM245 229.875c-.003-.673-.366-1.108-.935-1.115-.709-.01-1.157.34-1.161 1.26l-.016 3.436c-.002.585.364 1.2 1.025 1.196.61-.004 1.112-.26 1.107-1.2zM272.464 225.475h-3.398l-2.82 1.96v3.937l2.564-1.745v16.025h3.654zM259.385 225.475h-3.398l-2.82 1.96v3.937l2.564-1.745v16.025h3.654zM233.227 225.475h-3.397l-2.821 1.96v3.937l2.564-1.745v16.025h3.654z" style="fill:#fff;fill-rule:evenodd;stroke-width:1.05833" data-source="https://football-logos.cc"></path><!-- source: https://football-logos.cc --></svg>