<svg xmlns="http://www.w3.org/2000/svg" fill="none" viewBox="0 0 76 101"><!-- Source: https://football-logos.cc --><path fill="#1D3448" fill-rule="evenodd" d="M38.099 100a3.48 3.48 0 0 0 2.18-.755l.068-.05.072-.037c2.764-1.466 10.35-6.036 17.66-15.475C66.278 73.116 73.998 56.395 74 31.678v-.112c.002-4.776-.286-13.48-.899-18.828a3.52 3.52 0 0 0-3.492-3.127l-.155.006-.057.004-.057.003h-.03c-.231.008-.877.026-1.819.026h-.183c-2.832-.002-8.113-.2-13.381-1.286-2.688-.546-5.358-1.326-7.68-2.367-2.33-1.044-4.282-2.344-5.644-3.844A3.52 3.52 0 0 0 38.006 1h-.007a3.53 3.53 0 0 0-2.595 1.145c-1.364 1.508-3.316 2.81-5.641 3.847-3.49 1.572-7.761 2.526-11.664 3.04a74 74 0 0 1-9.517.618h-.088c-.615 0-1.104-.01-1.426-.018-.172-.003-.297-.008-.354-.008h-.068l-.05-.003h-.003l-.032-.002-.168-.008a3.517 3.517 0 0 0-3.49 3.127C2.29 18.086 2 26.79 2 31.566v.108c.006 24.718 7.723 41.441 15.927 52.01 7.303 9.434 14.893 14.003 17.66 15.474l.07.037.067.052c.1.07.189.138.259.186a3.54 3.54 0 0 0 1.887.567h.229" clip-rule="evenodd" data-source="https://football-logos.cc"></path><path fill="#736C44" fill-rule="evenodd" d="m74.09 12.67-1.514.176za4.58 4.58 0 0 0-4.546-4.072c-.07 0-.152.006-.24.01l-.093.003c-.221.008-.854.026-1.78.026h-.097c-2.753.003-8.025-.19-13.23-1.264-2.62-.531-5.222-1.294-7.442-2.291-2.224-.995-4.058-2.232-5.279-3.583a4.57 4.57 0 0 0-3.38-1.5h-.008c-1.26 0-2.496.527-3.38 1.495-1.221 1.356-3.053 2.593-5.279 3.584-3.33 1.504-7.517 2.447-11.343 2.95-3.818.51-7.295.609-9.357.609h-.089c-.603 0-1.08-.01-1.4-.018q-.254-.006-.375-.008l-.095-.002-.224-.011A4.577 4.577 0 0 0 1.91 12.67C1.287 18.092 1 26.783 1 31.595v.073C.993 56.594 8.792 73.563 17.119 84.292c7.408 9.57 15.113 14.222 17.97 15.742a4.581 4.581 0 0 0 2.81.966l.087-.003.11.003c.875 0 1.743-.247 2.501-.741.108-.072.213-.15.314-.225 2.854-1.516 10.556-6.167 17.968-15.742C67.206 73.562 75.006 56.594 75 31.668v-.073c0-4.812-.287-13.503-.91-18.924M57.677 83.354c-7.361 9.513-15.012 14.035-17.608 15.393q-.146.122-.306.227a3.04 3.04 0 0 1-1.666.493H38a3.03 3.03 0 0 1-2.07-.72c-2.594-1.362-10.245-5.883-17.605-15.393C10.186 72.856 2.51 56.24 2.527 31.595c0-4.75.283-13.383.897-18.75a3.05 3.05 0 0 1 3.18-2.709s.03 0 .115.006q.127.002.387.013c.344.01.854.018 1.504.018a75 75 0 0 0 9.584-.627c3.927-.515 8.225-1.474 11.768-3.062 2.361-1.06 4.366-2.39 5.784-3.952A3.03 3.03 0 0 1 38 1.534a3.04 3.04 0 0 1 2.256.998c1.418 1.563 3.42 2.892 5.786 3.952C48.4 7.54 51.098 8.324 53.8 8.878c5.402 1.109 10.785 1.295 13.592 1.295.971 0 1.635-.024 1.89-.031.084-.006.112-.006.112-.006a3.05 3.05 0 0 1 3.18 2.71c.615 5.366.901 13.998.901 18.75.013 24.643-7.663 41.26-15.798 51.757" clip-rule="evenodd"></path><path fill="#1D3448" fill-rule="evenodd" d="M71.143 14.028c-.177-1.564-1.508-2.72-3.05-2.642 0 0-.024.004-.108.004-.243.01-.88.03-1.812.03-2.69.004-7.851-.179-13.028-1.261-2.588-.54-5.175-1.304-7.436-2.335-2.268-1.029-4.19-2.325-5.549-3.85A2.89 2.89 0 0 0 38 3c-.806 0-1.595.339-2.16.974-1.36 1.525-3.284 2.821-5.55 3.85-3.392 1.554-7.514 2.483-11.274 2.988-3.766.51-7.172.608-9.189.608a49 49 0 0 1-1.44-.018q-.252-.006-.371-.012l-.11-.004c-1.54-.078-2.87 1.078-3.047 2.642C4.287 19.095 4.018 27.495 4 32h68c-.018-4.505-.287-12.905-.857-17.972" clip-rule="evenodd"></path><path fill="#AC372C" fill-rule="evenodd" d="M71.132 17.516c.152-1.302-3.034-1.642-4.25-1.792-4.643-.561-9.736-.731-13.882-1.041l.162-.453c1.438-.219 3.31-.578 4.23-2.297-.28-1.015-1.901-1.137-2.94-1.298l.107-.313c.953-.348 3.668-.862 3.834-2.163.106-.812-1.286-1.34-2.392-1.853L56.11 6c5.469.604 11.393.885 17.44 2.762.622.19 1.501.321 2.015.807.786.732.326 2.752.038 3.65-1.205 3.647-3.974 5.398-6.202 6.781.19-.937 1.593-1.327 1.731-2.484" clip-rule="evenodd"></path><path fill="#746D44" fill-rule="evenodd" d="M53.262 14.561c1.27.093 2.615.173 4.036.257 3.168.188 6.443.382 9.574.758l.134.016c1.405.17 4.329.525 4.17 1.867-.078.652-.546 1.076-.96 1.45-.26.236-.51.462-.653.726 2.039-1.263 4.683-3.013 5.825-6.453.398-1.233.635-2.886-.008-3.483-.378-.355-.981-.511-1.514-.65q-.233-.058-.44-.12c-4.85-1.497-9.577-1.957-14.148-2.401-1.04-.101-2.024-.197-3.012-.305l-.046.13.27.123c1.07.481 2.175.98 2.071 1.77-.142 1.11-1.976 1.65-3.19 2.006-.245.072-.46.135-.628.193l-.049.14.194.028c1.018.144 2.411.341 2.678 1.31a.1.1 0 0 1-.009.076c-.89 1.657-2.629 2.066-4.203 2.308zM69.352 20a.1.1 0 0 1-.063-.018.105.105 0 0 1-.046-.11c.094-.46.465-.795.822-1.12.404-.365.822-.744.892-1.317.133-1.132-2.748-1.481-3.979-1.63l-.134-.017c-3.124-.375-6.395-.569-9.56-.756-1.474-.088-2.868-.17-4.182-.268a.11.11 0 0 1-.084-.048.1.1 0 0 1-.012-.094l.16-.446a.11.11 0 0 1 .088-.07c1.526-.231 3.224-.609 4.087-2.168-.258-.798-1.49-.973-2.485-1.113l-.325-.048a.11.11 0 0 1-.078-.05.1.1 0 0 1-.01-.09l.107-.308a.1.1 0 0 1 .066-.067c.18-.065.417-.135.691-.215 1.16-.34 2.91-.855 3.035-1.827.083-.636-.994-1.122-1.945-1.55q-.184-.083-.361-.165a.106.106 0 0 1-.058-.131l.107-.301A.11.11 0 0 1 56.202 6a248 248 0 0 0 3.098.314c4.582.445 9.32.906 14.193 2.41q.203.059.43.118c.56.145 1.192.31 1.61.702.924.856.217 3.234.066 3.702-1.219 3.669-4.09 5.442-6.188 6.736a.1.1 0 0 1-.06.017" clip-rule="evenodd"></path><path fill="#25562F" fill-rule="evenodd" d="M4.856 17.504c-.15-1.306 3.037-1.637 4.255-1.782 4.647-.552 9.74-.708 13.889-1.009l-.161-.458c-1.436-.22-3.307-.586-4.223-2.313.279-1.012 1.903-1.134 2.943-1.29l-.104-.316c-.955-.354-3.674-.873-3.832-2.176-.103-.815 1.29-1.34 2.398-1.85L19.915 6c-5.477.591-11.401.856-17.457 2.728-.624.19-1.504.315-2.018.802-.788.73-.333 2.759-.047 3.653 1.195 3.661 3.96 5.425 6.189 6.817-.19-.943-1.594-1.33-1.726-2.496" clip-rule="evenodd"></path><path fill="#746D44" fill-rule="evenodd" d="M19.758 6.223c-.99.106-1.975.2-3.015.298-4.574.433-9.303.88-14.161 2.374-.14.043-.293.082-.451.123-.53.136-1.13.29-1.504.642-.695.64-.338 2.494-.018 3.488 1.134 3.457 3.775 5.216 5.81 6.486-.141-.265-.39-.492-.65-.728-.413-.376-.882-.802-.956-1.46-.157-1.348 2.775-1.692 4.184-1.857l.126-.015c3.133-.37 6.408-.557 9.575-.737 1.422-.08 2.769-.157 4.04-.247l-.092-.258c-1.572-.244-3.307-.657-4.197-2.325a.1.1 0 0 1-.008-.077c.269-.97 1.67-1.163 2.694-1.304l.182-.025-.047-.142c-.17-.06-.389-.125-.639-.199-1.21-.36-3.04-.903-3.176-2.013-.101-.795 1.01-1.292 2.085-1.773l.263-.118zM6.63 20a.1.1 0 0 1-.06-.017C4.478 18.682 1.609 16.9.399 13.213c-.151-.47-.856-2.85.075-3.707.415-.391 1.045-.553 1.601-.696q.234-.059.442-.12c4.88-1.5 9.62-1.949 14.205-2.383 1.07-.101 2.082-.197 3.1-.306.053-.006.102.024.118.072l.105.306a.106.106 0 0 1-.058.13q-.173.08-.354.16c-.955.427-2.039.912-1.957 1.552.118.971 1.865 1.49 3.021 1.834.28.083.52.154.702.222a.1.1 0 0 1 .066.067l.104.311c.01.03.006.063-.011.09a.11.11 0 0 1-.078.05l-.312.043c-.948.131-2.24.31-2.5 1.109.86 1.57 2.556 1.95 4.08 2.183a.11.11 0 0 1 .087.071l.16.45a.1.1 0 0 1-.012.095.11.11 0 0 1-.084.048c-1.316.095-2.71.174-4.187.258-3.164.18-6.435.365-9.561.735l-.126.015c-1.128.132-4.123.483-3.991 1.62.066.58.483.96.887 1.327.357.325.726.66.82 1.123a.11.11 0 0 1-.046.11.1.1 0 0 1-.063.018" clip-rule="evenodd"></path><path fill="#FFFFFE" fill-rule="evenodd" d="m10 24.382-.101.083-.134-.1c-.2-.785-.68-1.895-1.531-1.895-.735 0-.868.884-.868 2.856 0 2.798.368 3.208 1.114 3.208.919 0 1.268-1.716 1.268-1.8l.136-.075.116.084C10 28.124 9.634 29 8.167 29 6.217 29 6 26.874 6 25.315 6 24.169 6.084 22 8.167 22c.267 0 .547.087.8.197.1.046.199.056.285.056a.64.64 0 0 0 .313-.111c.101-.067.234-.142.319-.142.099 0 .116.067.116.16zM15 25.315C15 27.078 14.806 29 12.994 29 11.194 29 11 27.078 11 25.315c0-1.343.194-3.315 1.994-3.315C14.806 22 15 23.972 15 25.315m-2.77.01c0 2.426.328 3.21.764 3.21.45 0 .78-.784.78-3.21 0-2.07-.33-2.855-.78-2.855-.436 0-.765.785-.765 2.856M19.725 24.418l-.107.047-.104-.064c-.279-.757-1.111-1.931-1.914-1.931-.436 0-.47.195-.47.438 0 .455.225.915 1.516 2.378C19.863 26.67 20 26.976 20 27.714c0 .99-.956 1.286-1.598 1.286-.474 0-.768-.1-.976-.176-.193-.066-.296-.093-.35-.093-.07 0-.207.066-.556.205l-.207.064-.088-.046v-2.352l.088-.065.104.065c.313.747.85 1.933 1.88 1.933.329 0 .504-.196.504-.485 0-.627-.524-1.307-1.514-2.43C16.347 24.56 16 23.85 16 23.17c0-.887.712-1.169 1.6-1.169.328 0 .713.104.976.216l.26.056c.067 0 .242-.066.4-.149.156-.076.26-.123.366-.123l.123.104zM22.253 25.203h.404l.2-.068.642-.651.11-.056.07.056v1.979l-.07.047-.13-.068-.623-.678-.199-.066h-.404v2.836h1.043c.237 0 .421-.053.494-.166l.99-1.793.127-.056.093.056v2.341l-.145.084h-4.742L20 28.946l.13-.086.547-.27c.13-.067.165-.149.165-.262v-5.653c0-.113-.035-.195-.165-.263l-.547-.27-.13-.084.113-.058h4.742l.145.087v2.323l-.093.055-.146-.064-.99-1.756c-.07-.12-.238-.176-.475-.176h-1.043zM25.738 22.675c0-.113-.051-.189-.162-.263l-.448-.27-.128-.095.11-.047h2.165c.126 0 .182.067.217.16l1.665 4.014h.035v-3.499c0-.113-.035-.189-.16-.252l-.51-.281-.124-.095.107-.047h2.386l.109.047-.128.095-.453.27c-.107.074-.16.15-.16.263V28.9c0 .063-.055.1-.181.1h-.758c-.163 0-.312-.092-.363-.233l-2.116-5.084h-.033v4.646c0 .112.053.189.18.251l.487.28.127.094-.11.046H25.11L25 28.954l.128-.093.448-.27c.11-.073.162-.15.162-.262zM31.09 22.058l.122-.058h3.636l.09.058-.03.091-2.656 6.385h1.18c.148 0 .3-.016.343-.112l.983-1.783.15-.12.092.12v2.288l-.138.073H31.06l-.06-.037.014-.109 2.673-6.406h-1.086c-.152 0-.244.057-.289.124l-.936 1.763c-.06.093-.103.14-.164.14l-.122-.11zM38.963 27.443l-.136-.086h-1.122l-.096.066-.226 1.029.078.166.333.215.15.113-.105.054h-1.748L36 28.946l.106-.092.427-.264c.09-.056.106-.149.121-.232l1.383-6.271.12-.087h.564l.136.104 1.444 6.264c.015.094.06.195.168.25l.44.242.091.086-.105.054h-2.19l-.106-.054.106-.086.413-.25.074-.188zm-.21-.579.063-.064-.535-2.289h-.032l-.5 2.297.045.056zM47 24.382l-.099.083-.136-.1c-.2-.785-.68-1.895-1.531-1.895-.734 0-.866.884-.866 2.856 0 2.798.366 3.208 1.117 3.208.914 0 1.263-1.716 1.263-1.8l.134-.075.118.084C47 28.124 46.634 29 45.167 29 43.217 29 43 26.874 43 25.315c0-1.146.084-3.315 2.167-3.315.267 0 .55.087.8.197.098.046.2.056.285.056a.63.63 0 0 0 .313-.111c.101-.067.236-.142.317-.142.1 0 .118.067.118.16zM50.963 27.443l-.136-.086H49.7l-.09.066-.228 1.029.075.166.337.215.15.113-.106.054H48.09l-.09-.054.106-.092.426-.264c.09-.056.106-.149.12-.232l1.385-6.271.12-.087h.562l.138.104 1.443 6.264c.016.094.06.195.167.25l.442.242.091.086-.105.054h-2.188l-.108-.054.108-.086.408-.25.076-.188zm-.211-.579.058-.064-.53-2.289h-.03l-.5 2.297.045.056zM53.701 22.675c0-.113-.03-.195-.138-.263l-.456-.27-.107-.085.09-.057h2.4l.089.057-.104.085-.458.27c-.108.068-.14.15-.14.263v5.86h.612c.183 0 .337-.027.398-.14l.946-1.81.092-.065.075.066v2.285c0 .083-.047.129-.167.129H53.09L53 28.946l.107-.085.456-.27c.108-.067.138-.15.138-.262zM62 24.382l-.1.083-.135-.1c-.197-.785-.683-1.895-1.533-1.895-.731 0-.865.884-.865 2.856 0 2.798.363 3.208 1.115 3.208.917 0 1.267-1.716 1.267-1.8l.135-.075.116.084C62 28.124 61.632 29 60.165 29 58.217 29 58 26.874 58 25.315c0-1.146.081-3.315 2.165-3.315.27 0 .551.087.801.197.104.046.2.056.285.056a.66.66 0 0 0 .318-.111c.1-.067.23-.142.315-.142.1 0 .116.067.116.16zM62.815 22.675c0-.113-.035-.195-.16-.263l-.534-.27-.121-.085.105-.057h2.787l.108.057-.126.085-.529.27c-.128.068-.162.15-.162.263v5.654c0 .112.034.195.162.262l.529.27.126.085-.108.054h-2.787L62 28.946l.121-.085.535-.27c.124-.067.159-.15.159-.262zM70 25.315C70 27.078 69.803 29 67.99 29 66.195 29 66 27.078 66 25.315c0-1.343.195-3.315 1.99-3.315 1.813 0 2.01 1.972 2.01 3.315m-2.773.01c0 2.426.33 3.21.763 3.21.45 0 .781-.784.781-3.21 0-2.07-.33-2.855-.78-2.855-.433 0-.764.785-.764 2.856" clip-rule="evenodd"></path><path fill="#BB3337" fill-rule="evenodd" d="M28 33v59.3a56 56 0 0 0 2.19 1.883A50 50 0 0 0 34 97V33z" clip-rule="evenodd"></path><path fill="#1D3448" fill-rule="evenodd" d="M22 33v52.749a61 61 0 0 0 1.716 1.975A60 60 0 0 0 28 92V33z" clip-rule="evenodd"></path><path fill="#BB3337" fill-rule="evenodd" d="M16 33v44.484q.617 1.037 1.242 2.004A67 67 0 0 0 22 86V33z" clip-rule="evenodd"></path><path fill="#1D3448" fill-rule="evenodd" d="M35 33v63.228a33 33 0 0 0 2.667 1.591q.15.076.255.132l.1.049.1-.049c.408-.206 1.43-.748 2.878-1.694V33z" clip-rule="evenodd" data-source="https://football-logos.cc"></path><path fill="#BB3337" fill-rule="evenodd" d="M3 33c.346 12.83 2.687 23.379 6 32V33z" clip-rule="evenodd"></path><path fill="#1D3448" fill-rule="evenodd" d="M10 33v31.467c.253.673.506 1.337.77 1.989A73.6 73.6 0 0 0 16 77V33z" clip-rule="evenodd"></path><path fill="#BB3337" fill-rule="evenodd" d="M66 33v32c3.31-8.601 5.65-19.157 6-32z" clip-rule="evenodd"></path><path fill="#1D3448" fill-rule="evenodd" d="M60 33v44a72.6 72.6 0 0 0 4.562-8.888c.5-1.157.98-2.348 1.438-3.585V33zM47 33v59a58 58 0 0 0 3.612-3.54A61 61 0 0 0 53 85.766V33z" clip-rule="evenodd"></path><path fill="#BB3337" fill-rule="evenodd" d="M41 33v64a48 48 0 0 0 3.14-2.274A53 53 0 0 0 47 92.31V33zM54 33v53a66.3 66.3 0 0 0 6-8.49V33z" clip-rule="evenodd"></path><path fill="#121011" fill-rule="evenodd" d="M58.187 58.051s-4.948-.14-10.037-3.386c0 0-4.809-4.946-8.202-5.229 0 0 2.262-11.297-2.404-11.436 0 0-.423 1.833-1.696 3.106 0 0-1.978 2.965-1.978 5.367 0 0-3.256-5.226-2.83-8.334 0 0-1.272-.139-2.263 3.957 0 0-1.413 6.494-1.413 8.471 0 0-.848 4.235-3.96 7.344 0 0-6.361 8.61-5.09 10.165 0 0-2.402 1.833 6.082 4.94 0 0-2.122 7.483 3.674 4.94 0 0-1.837 4.096 2.404 5.511 0 0 3.535 1.126 4.666-.424 0 0 7.213 5.506 8.486 3.528 0 0 3.531-3.813-2.547-9.743 0 0-2.263-3.106 1.979-2.822 0 0 7.493-.424 9.473.845 0 0 6.56-2.108 3.448-5.36 0 0-.44-.16-1.145-.406-.202-.691-.615-2.118-.605-1.942.01.172-.506 1.006-.79 1.455-.152-.055-.313-.108-.474-.162l-.924-1.46-.814.88-.637-.207-.497-1.034-.743.642c-.096-.023-.187-.056-.282-.083-.098-.249-.426-1.09-.412-1.002.012.093-.23.572-.34.782l-.162-.047-.551-.717-.357.469q-.16-.04-.305-.079l-.287-.475-.32.336c-.505-.111-.917-.175-1.197-.175 0 0-.788-1 1.457-.915l.255.433.455-.375.232.024s.083.01.226.022l.212.492.628-.42c.154.014.325.022.507.036.05.265.109.609.073.677-.037.066.319-.332.59-.641q.363.01.759.019l.582.85.705-.84c.317-.006.64-.02.964-.03l.538.922 1.024-1.044c.315-.038.63-.075.94-.125.225.551.52 1.323.48 1.488-.038.182.566-1.055.918-1.778 1.803-.478 3.261-1.32 3.625-2.775 0 0 2.545-4.66-2.12-4.235" clip-rule="evenodd"></path><path fill="#736C44" fill-rule="evenodd" d="m44.928 57.196.227-.054a2 2 0 0 0-.273.05zm13.897 3.054c-.528-.757-2.275-.342-3.05-.415-2.527-.224-5.643-1.125-7.759-2.369-1.896-1.117-3.283-3.341-5.226-4.48-.453-.268-2.184-1.115-2.686-1.088-.951.047-1.102 1.308-1.995 1.639-1.13-1.601-.015-4.8.224-6.56.183-1.355.579-3.938-.53-4.977-1.82.667-4.207 8.333-1.452 7.785.01.863-.643 1.437-.838 2.226l-.046.21c-1.426-2.512-3.661-5.586-4.648-4.962l-.41-2.617c-.774 1.328-1.63 6.269-1.713 7.879-.028.583.744.86.727 1.199-.013.249-.224.59-.265.804.022-.114.48.837.494.97-1.268.024-2.002.862-2.503 1.857-.739 1.456-1.974 1.522-1.528 2.885.417 1.28-2.056 2.711-2.464 4.033-.273.873-1.015 2.206-2.117 2.487-.417 1.967 2.582 1.139.845 2.697-.772.694 2.757.7 2.154 1.552-1.808 2.58 2.452 1.459 2.835 2.053.401.615-.864 2.952-.738 3.946 1.88.089 4.304-.518 3.967 2.118-.175 1.363-.98 2.224.692 3.152 1.639.906 2.62-.733 4.46-.786 2.303-.07 3.14 2.4 5.07 2.512 1.104-1.504-.126-2.55-.79-3.898-.648-1.339-.516-3.188-1.449-4.321-.684.395-.936 1.669-2.04 1.385-1.49-.384-.22-1.752.218-2.514 1.276-2.212 1.221-3.487 4.073-4.177-.019 1.463.191 2.083 1.581 1.805.43-.089.765-.5 1.275-.569 1.133-.14 2.318.557 3.439.697 2.306.302 5.507 1.263 7.816 1.255 1.042-1.088.463-1.882-.505-2.46v-1.364s-.454.48-.906.911c-.404-.165-.81-.304-1.161-.423-.088-.54-.148-1.08-.148-1.08s-.477.361-.936.692a15 15 0 0 1-1.077-.51c-.052-.378-.084-.71-.084-.71l-.342.489c-.243-.126-.485-.255-.73-.378l-.067-.23-.12.138a12 12 0 0 0-.803-.368l-.095-.356-.157.26a7 7 0 0 0-.83-.26l-.092-.237-.182.179a5 5 0 0 0-.727-.088c-2.295-.09-1.71-.845-.596-2.782.742-1.288.612-.501 1.013-.328.631.268.685.132 1.013.005l.264.582s.373-.386.667-.733q.265-.007.548-.021l.164.515.5-.521c.169.004.337.006.508.016l.19.744.723-.67q.28.023.555.05l.4 1.265 1.197-1.088.196.025c.08.015.226.018.42.015l.345.756.977-.845c.255-.03.521-.064.79-.11l.628.776.537-1.053c1.315-.405 2.243-1.129 1.221-2.359.662-.29 1.66-1.016 1.08-1.857M30.09 58.847c.38-.816 1.788-.465 1.708-1.922-.67-.11-.886-.595-.674-1.23.323-.117 2.34.019 3.87-.052-.427.832-.974 1.79-1.436 2.607-2.045.73-3.786 1.29-3.468.597m7.297 5.634c-.5.41-1.627.162-1.914.506-.568.678.485 1.714.446 2.394-.045.84-.865 2.43-1.113 3.248-.292.963-.128 1.312-1.28 1.937-1.048.57-2.006.621-2.995 1.406.016-2.128 1.854-4.393 2.13-6.557.093-.724 2.384-3.592 4.241-6.19.552.394 1.134.677 1.742.588.117.513-.911 2.39-1.258 2.668m4.422.592c-.332.612-.44 1.746-.728 2.448-.587 1.407-2.564 3.035-2.288.28l-.142-.14c1.131-2.23 1.99-4.212 4.68-4.278-.128.702-1.111.929-1.522 1.69m3.305-6.746c-.214.276-.45.493-.692.662-.647-.725-2.061-1.586-2.854-.975.051.97 1.337 1.286 2.351 1.257-1.175.494-2.546.033-3.697-.845.413-.543.158-1.219.092-.923l-1.82-.056c.823-.402 2.034-.733 3.204-.79-.871-.245-1.468-.564-1.312-.923 1.715-.227 4.017.784 4.77 1.407l.035.07-.262-.015-.046-.004c-.241-.019-.502-.047-.77-.074.465.267.825.653 1.001 1.21M59.959 12.8c-1.207-1.891-3.553-2.993-6.515-3.492-3.216-.535-6.833-.31-10.33.196-1.716.253-3.425.486-5.115.497-1.688-.011-3.397-.244-5.11-.497-3.5-.506-7.12-.731-10.334-.196-2.961.499-5.306 1.6-6.514 3.492-.079.132-.027.283.013.377.15.324.282.446.445.658q.246.286.553.62c.39.421.836.887 1.19 1.255.34.345.631.648.643.66.108.12.388.4.747.774.346.353.732.757.987 1.036.099.113.185.205.221.254.055.12.176.251.346.37.305.196.667.255.816.131h.005c1.14-.942 2.875-1.463 4.96-1.692 2.236-.237 4.71-.104 7.136.171.934.105 1.865.202 2.805.247q.334.021.66.027h.023q.205.008.407.006c.139 0 .272 0 .409-.006h.023q.328-.006.659-.027a44 44 0 0 0 2.807-.247c2.425-.275 4.901-.408 7.136-.17 2.084.228 3.823.749 4.961 1.691h.005c.15.124.51.065.816-.131.17-.119.29-.25.342-.37l.226-.254c.25-.28.64-.683.982-1.036.363-.373.642-.654.75-.773.014-.013.303-.316.64-.66.358-.37.802-.835 1.195-1.256.2-.222.389-.43.549-.62.166-.212.299-.334.45-.658.035-.094.091-.245.01-.377" clip-rule="evenodd"></path><path fill="#1D3448" fill-rule="evenodd" d="M42.772 10.599c-1.659.24-3.362.385-5.074.397-1.855.024-3.678-.23-5.468-.49-6.735-.968-13.555-.848-16.227 3.073-.103.152 2.376 2.768 2.563 2.99.168.194 2.138 2.277 2.061 2.342 2.608-2.309 7.816-2.336 12.887-1.735.749.088 1.491.166 2.238.226 1.957.195 3.817.088 5.737-.138 5.068-.603 10.273-.574 12.884 1.736-.073-.065 1.894-2.15 2.06-2.343.189-.218 2.668-2.838 2.564-2.986-2.675-3.925-9.49-4.045-16.225-3.072" clip-rule="evenodd"></path><path fill="#736C44" fill-rule="evenodd" d="m53.568 18.907-.027-.018-.016-.012c-1.095-.845-2.806-1.341-4.886-1.548a25 25 0 0 0-2.527-.118c-1.515 0-3.09.109-4.648.275-.942.1-1.889.195-2.849.24-.22.014-.443.018-.662.024h-.902c-.22-.006-.442-.01-.667-.024-.96-.045-1.91-.14-2.855-.24a43 43 0 0 0-4.641-.275c-.868 0-1.717.034-2.531.118-2.085.206-3.805.706-4.897 1.558l-.035.024-.01.004a.6.6 0 0 1-.332.085c-.236 0-.49-.08-.728-.225-.186-.117-.334-.252-.417-.418-.041-.042-.114-.124-.2-.213a44 44 0 0 0-.993-.98c-.365-.36-.644-.622-.754-.736l-.653-.63c-.36-.355-.813-.795-1.21-1.205-.204-.21-.398-.41-.57-.605-.151-.183-.316-.334-.488-.682a.7.7 0 0 1-.07-.3.44.44 0 0 1 .079-.275c1.281-1.885 3.723-2.95 6.752-3.428 1.328-.21 2.717-.299 4.139-.299 2.103 0 4.268.197 6.387.483 1.733.242 3.455.462 5.141.474 1.69-.012 3.41-.232 5.142-.474 2.12-.292 4.286-.483 6.386-.487 1.421.004 2.815.092 4.144.303 3.025.478 5.468 1.543 6.749 3.428l-.195.128.2-.124a.5.5 0 0 1 .076.272c0 .134-.045.237-.076.313-.165.334-.332.485-.49.676-.164.187-.358.389-.564.597-.398.41-.846.85-1.211 1.205l-.642.623c-.12.122-.4.384-.765.743a43 43 0 0 0-.992.98c-.085.089-.16.171-.198.213-.085.166-.233.301-.42.418-.237.145-.49.225-.725.225a.58.58 0 0 1-.35-.093m-32.402-.38.033-.027c1.213-.922 2.996-1.415 5.108-1.63.836-.086 1.7-.126 2.58-.126 1.537 0 3.125.116 4.694.286.943.095 1.882.19 2.827.236q.33.016.659.02h.016l.014.004h.799l.016-.004h.019q.33-.004.66-.02c.946-.046 1.883-.14 2.825-.236 1.566-.17 3.156-.286 4.696-.286q1.32-.001 2.579.125c2.11.216 3.89.71 5.121 1.644l.023.018.02.004.062.005a1 1 0 0 0 .476-.157c.143-.086.234-.194.253-.246l.013-.027.021-.023c.051-.065.137-.149.242-.258.258-.271.647-.655.999-.995.369-.354.65-.625.753-.73.023-.022.313-.306.656-.635.36-.351.805-.791 1.201-1.194.204-.21.394-.406.545-.58.179-.215.285-.304.416-.557l.036-.131-.007-.024c-1.16-1.718-3.464-2.76-6.427-3.226a27 27 0 0 0-4.068-.29c-2.07 0-4.217.188-6.321.478-1.732.24-3.475.464-5.207.477-1.728-.013-3.471-.237-5.205-.477-2.107-.29-4.25-.478-6.323-.478-1.402 0-2.769.084-4.064.29-2.97.467-5.271 1.508-6.431 3.226l-.006.024.027.11c.143.28.245.363.42.574.16.178.35.378.552.584.39.402.841.842 1.202 1.194.34.329.637.617.656.637.098.103.385.374.75.728.35.34.741.724 1.004.995.1.109.184.193.238.258l.02.02.011.03c.021.052.114.16.256.245.167.106.364.16.477.158z" clip-rule="evenodd"></path><path fill="#FFFFFE" fill-rule="evenodd" d="m31.337 12.649-.043-.065-.267-.134-.027-.037.06-.043c.237-.07.471-.225.563-.33l.053-.04h.073l.028.028c-.002.127-.024.326-.024.585l-.021 3.002c-.004.063.008.111.048.15l.18.15.04.048-.037.036-.893.001-.035-.034.043-.047.178-.153c.044-.039.056-.086.057-.153zM36 13.949c-.005 1.284-.105 2.051-.494 2.051-.394.003-.445-.65-.444-1.001l.034-.057.038.058c.069.323.133.733.358.731.187.002.209-.596.21-1.297l-.008-.002c-.05.092-.133.178-.224.18-.297-.002-.473-.52-.47-1.287.004-.64.14-1.323.508-1.325.356-.001.504.524.491 1.949m-.703-.656c-.004.672.035 1.05.196 1.05.17-.002.211-.37.215-.888.003-.816-.048-1.188-.203-1.186-.145-.001-.206.373-.208 1.024M39.337 12.647l-.04-.066-.267-.131-.03-.039.06-.042c.24-.066.47-.223.563-.328l.054-.04.071-.001.028.027c0 .128-.019.326-.022.583l-.024 3.007c-.002.063.01.112.05.15l.18.151.04.052-.036.03h-.892l-.035-.03.044-.049.177-.153c.042-.038.057-.088.057-.152zM43.116 14.822l-1.076.002-.04-.043.053-.144 1.235-2.572.09-.063.189-.002.06.049-.023 2.504.096-.023.232-.195.05-.031.018.034v.445l-.036.037-.365-.003-.005.794c0 .068.015.116.063.154l.205.154.05.058-.047.016-1.042.007-.041-.034.05-.045.21-.158c.052-.035.06-.083.063-.147zm.017-1.748-.017-.003-.64 1.353-.027.09.054.042.613-.001z" clip-rule="evenodd" data-source="https://football-logos.cc"></path><!-- source: https://football-logos.cc --></svg>