<svg xmlns="http://www.w3.org/2000/svg" viewBox="15.24 31.1 471.14 388.86"><!-- Source: https://football-logos.cc --><defs data-source="https://football-logos.cc"><clipPath id="a" clipPathUnits="userSpaceOnUse"><path d="M-569.377 334.088h800v-600h-800Z"></path></clipPath><clipPath id="b" clipPathUnits="userSpaceOnUse"><path d="M-400.002 261.9h800v-600h-800Z"></path></clipPath><clipPath id="c" clipPathUnits="userSpaceOnUse"><path d="M-457.914 235.153h800v-600h-800Z"></path></clipPath><clipPath id="d" clipPathUnits="userSpaceOnUse"><path d="M-304.66 340.361h800v-600h-800Z"></path></clipPath><clipPath id="e" clipPathUnits="userSpaceOnUse"><path d="M-448.488 401.807h800v-600h-800Z"></path></clipPath><clipPath id="f" clipPathUnits="userSpaceOnUse"><path d="M-566.486 336.86h800v-600h-800Z"></path></clipPath><clipPath id="g" clipPathUnits="userSpaceOnUse"><path d="M-296.068 358.348h800v-600h-800Z"></path></clipPath><clipPath id="h" clipPathUnits="userSpaceOnUse"><path d="M-309.563 360.943h800v-600h-800Z"></path></clipPath><clipPath id="i" clipPathUnits="userSpaceOnUse"><path d="M-322.762 363.254h800v-600h-800Z"></path></clipPath><clipPath id="j" clipPathUnits="userSpaceOnUse"><path d="M-342.007 372.045h800v-600h-800Z"></path></clipPath><clipPath id="k" clipPathUnits="userSpaceOnUse"><path d="M-352.682 378.402h800v-600h-800Z"></path></clipPath><clipPath id="l" clipPathUnits="userSpaceOnUse"><path d="M-359.807 379.025h800v-600h-800Z"></path></clipPath><clipPath id="m" clipPathUnits="userSpaceOnUse"><path d="M-376.596 368.656h800v-600h-800Z"></path></clipPath><clipPath id="n" clipPathUnits="userSpaceOnUse"><path d="M-390.924 371.75h800v-600h-800Z"></path></clipPath><clipPath id="o" clipPathUnits="userSpaceOnUse"><path d="M-414.502 368.756h800v-600h-800Z"></path></clipPath><clipPath id="p" clipPathUnits="userSpaceOnUse"><path d="M-430.073 368.09h800v-600h-800Z"></path></clipPath><clipPath id="q" clipPathUnits="userSpaceOnUse"><path d="M-432.63 379.588h800v-600h-800Z"></path></clipPath><clipPath id="r" clipPathUnits="userSpaceOnUse"><path d="M-450.672 368.36h800v-600h-800Z"></path></clipPath><clipPath id="s" clipPathUnits="userSpaceOnUse"><path d="M-451.478 378.012h800v-600h-800Z"></path></clipPath><clipPath id="t" clipPathUnits="userSpaceOnUse"><path d="M-468.203 364.58h800v-600h-800Z"></path></clipPath><clipPath id="u" clipPathUnits="userSpaceOnUse"><path d="M-488.026 362.832h800v-600h-800Z"></path></clipPath><clipPath id="v" clipPathUnits="userSpaceOnUse"><path d="M-493.266 370.541h800v-600h-800Z"></path></clipPath><clipPath id="w" clipPathUnits="userSpaceOnUse"><path d="M-502.937 360.598h800v-600h-800Z"></path></clipPath><clipPath id="x" clipPathUnits="userSpaceOnUse"><path d="M-509.985 367.102h800v-600h-800Z"></path></clipPath></defs><path d="m0 0-14.667 15.291L-.63 30.978l6.354 7.099-9.518-.428c-1.301-.059-29.417-1.448-52.695-12.147.103 1.424.137 2.444.149 3.021l.001.041v.045l.002.073v145.343l-6.659-6.218c-.407-.335-8.66-6.885-27.63-6.885-41.962 0-76.546 17.838-76.89 18.018l-1.856.971-1.86-.971c-.345-.18-34.927-18.018-76.89-18.018-18.97 0-27.223 6.55-27.63 6.885l-6.722 6.276.063-9.276V28.635l.003-.074.001-.044c.011-.578.046-1.596.149-3.015-23.277 10.699-51.395 12.088-52.696 12.147l-9.517.428 6.353-7.099 14.037-15.687L-338.748 0l-7.306-7.617 10.528.854c.009.001.957.076 2.605.076 6.954 0 24.535-1.272 40.884-12.752v-18.653c-.29-2.332.258-8.355 12.135-12.576.768-.273 1.601-.584 2.512-.922 6.231-2.31 16.563-6.144 34.949-9.185a126.7 126.7 0 0 1 18.94-15.45l51.931-34.068 2.196-1.441 2.196 1.441 51.908 34.053a126.7 126.7 0 0 1 18.963 15.465c18.386 3.041 28.719 6.875 34.949 9.185.912.338 1.745.649 2.514.922 11.874 4.221 12.423 10.244 12.133 12.576v18.653C-30.362-7.959-12.781-6.687-5.826-6.687c1.648 0 2.596-.075 2.604-.076L7.3-7.617Z" clip-path="url(#a)" style="fill:#9cbcda;fill-opacity:1;fill-rule:nonzero;stroke:none" transform="matrix(1.33333 0 0 -1.33333 476.641 270.979)"></path><path d="m0 0-28.014-19.492 9.884 32.666-27.199 20.617 34.123.699L0 66.731 11.205 34.49l34.125-.699-27.198-20.617 9.884-32.666Z" clip-path="url(#b)" style="fill:#630636;fill-opacity:1;fill-rule:nonzero;stroke:none" transform="matrix(1.33333 0 0 -1.33333 250.808 174.728)"></path><path d="M0 0c.385-2.702.595-5.464.595-8.28 0-32.308-26.193-58.507-58.506-58.507s-58.506 26.199-58.506 58.507c0 2.816.211 5.578.596 8.28a66.93 66.93 0 0 1-9.392-34.281c0-37.168 30.133-67.3 67.302-67.3s67.303 30.132 67.303 67.3A66.95 66.95 0 0 1 0 0" clip-path="url(#c)" style="fill:#630636;fill-opacity:1;fill-rule:nonzero;stroke:none" transform="matrix(1.33333 0 0 -1.33333 328.024 139.066)"></path><path d="M0 0c-6.851 19.321-7.437 32.538-7.485 34.992v125.824c5.535-2.033 13.436-3.827 24.08-3.827 37.871 0 69.274 13.301 78.748 17.767 9.476-4.466 40.877-17.767 78.748-17.767 10.645 0 18.544 1.794 24.081 3.827V35.031l-.001-.039c-.047-2.454-.633-15.671-7.485-34.992a137 137 0 0 0-1.301-3.49 112 112 0 0 1 7.356 2.013l.001.003c7.613 21.737 7.618 36.218 7.633 36.429V171.08s-8.818-7.888-30.284-7.888c-43.526 0-78.748 18.474-78.748 18.474s-35.221-18.474-78.748-18.474c-21.466 0-30.283 7.888-30.283 7.888V34.955c.015-.211.02-14.694 7.635-36.434 2.17-.68 4.612-1.354 7.355-2.011A141 141 0 0 0 0 0" clip-path="url(#d)" style="fill:#630636;fill-opacity:1;fill-rule:nonzero;stroke:none" transform="matrix(1.33333 0 0 -1.33333 123.685 279.343)"></path><path d="m0 0-48.485-31.807L-96.971 0a117 117 0 0 0-12.019 9.197c-3.827.465-7.362.967-10.642 1.492a122 122 0 0 1 19.24-15.863l51.907-34.053L3.422-5.174a122 122 0 0 1 19.239 15.863A284 284 0 0 0 12.02 9.197 117 117 0 0 0 0 0" clip-path="url(#e)" style="fill:#630636;fill-opacity:1;fill-rule:nonzero;stroke:none" transform="matrix(1.33333 0 0 -1.33333 315.457 361.27)"></path><path d="m0 0-17.234 17.969L-.723 36.421S-34.793 34.886-58.42 21.3a124 124 0 0 0-1.055-5.998c10.243-2.985 11.651-8.258 11.651-8.258s.116-.337 0-.922q-.017-.081-.039-.172l-.001-.006q-.023-.088-.054-.187v-.003c-.619-2.003-3.663-6.491-17.167-10.729l-.002-.004c-15.628-4.901-45.268-9.467-101.396-9.467s-85.769 4.566-101.396 9.467l-.002.004c-13.505 4.238-16.548 8.726-17.167 10.729l-.001.003q-.03.1-.053.187l-.001.006-.039.172c-.115.585 0 .922 0 .922s1.408 5.273 11.651 8.258c-.44 2.196-.788 4.207-1.056 5.998-23.627 13.586-57.696 15.121-57.696 15.121l16.512-18.452L-332.967 0s25.4 2.153 47.825-14.624v-21.002s-1.455-4.613 9.471-8.497c10.926-3.887 34.41-14.753 109.188-14.753S-68.221-48.01-57.296-44.123c10.926 3.884 9.472 8.497 9.472 8.497v21.002C-25.399 2.153 0 0 0 0" clip-path="url(#f)" style="fill:#fff;fill-opacity:1;fill-rule:nonzero;stroke:none" transform="matrix(1.33333 0 0 -1.33333 472.787 274.675)"></path><path d="M0 0c-.597.125-1.153.225-1.569.277v-9.131c.359-.136.891-.292 1.394-.398 2.54-.536 4.368.543 4.368 3.75C4.193-2.592 3.061-.643 0 0m-.416-11.426c-1.391.293-3.095.745-3.733.882l-1.724.388v1.622c.516-.011 1.129-.05 1.724-.141v9.808a18 18 0 0 0-1.724.626v1.622q.837-.183 1.667-.367c1.05-.229 2.715-.51 4.384-.864 4.152-.873 6.783-3.241 6.783-8.002 0-4.65-3.009-6.502-7.377-5.574" clip-path="url(#g)" style="fill:#630636;fill-opacity:1;fill-rule:nonzero;stroke:none" transform="matrix(1.33333 0 0 -1.33333 112.23 303.325)"></path><path d="M0 0a8 8 0 0 1-.997.125v-3.908a8 8 0 0 1 .919-.213c1.571-.293 2.51.35 2.51 1.613C2.432-1.082 1.653-.299 0 0m2.648-11.973Q1.006-8.881-.638-5.779c-.122.019-.241.046-.359.068v-3.734c.378-.112.819-.251 1.214-.446v-1.64a523 523 0 0 0-5.536 1.037v1.622c.518.005 1.132-.015 1.73-.087V.852a16 16 0 0 0-1.73.574v1.625c.518-.102 1.035-.197 1.552-.299.518-.1 2.39-.373 4.042-.678C3.249 1.535 5.166.168 5.166-2.599c0-1.888-1.279-3.055-3.175-3.115.241-.369.479-.749.682-1.106q1.034-1.817 2.073-3.637c.382-.121.86-.285 1.32-.44v-1.671c-1.14.201-2.277.394-3.418.595" clip-path="url(#h)" style="fill:#630636;fill-opacity:1;fill-rule:nonzero;stroke:none" transform="matrix(1.33333 0 0 -1.33333 130.223 306.786)"></path><path d="M0 0c-1.86.289-3.58-.916-3.58-3.963 0-2.869 1.122-4.924 3.542-5.297 1.759-.277 3.642.806 3.642 4.059C3.604-2.191 2.324-.361 0 0m-.217-11.604c-4.124.646-6.14 3.629-6.14 7.824 0 4.472 2.977 6.653 6.594 6.091 3.604-.555 6.148-3.078 6.148-7.713 0-4.473-2.945-6.772-6.602-6.202" clip-path="url(#i)" style="fill:#630636;fill-opacity:1;fill-rule:nonzero;stroke:none" transform="matrix(1.33333 0 0 -1.33333 147.821 309.867)"></path><path d="M0 0v-4.591c-1.347-.388-3.032-.487-4.677-.282-4.273.545-6.798 3.436-6.798 7.566 0 4.317 2.884 6.87 7.503 6.297a16.8 16.8 0 0 0 3.773-.959V4.402q-1.003.116-2.009.237a19 19 0 0 0-.241 1.652 7 7 0 0 1-1.664.402c-2.631.331-4.533-1.078-4.533-4.148 0-2.869 1.56-4.765 4.311-5.108a5.6 5.6 0 0 1 1.727.024v2.83a11.6 11.6 0 0 0-1.727.472v1.626c1.822-.224 3.642-.445 5.458-.65V.074C.762.037.384.021 0 0" clip-path="url(#j)" style="fill:#630636;fill-opacity:1;fill-rule:nonzero;stroke:none" transform="matrix(1.33333 0 0 -1.33333 173.481 321.588)"></path><path d="M0 0v1.645c.445.08.988.09 1.471.087V5.74a737 737 0 0 0-5.755.559V2.287a9 9 0 0 0 1.471-.369V.273q-2.92.293-5.829.62V2.52a15 15 0 0 0 1.747.044v9.811c-.602.106-1.225.277-1.747.434v1.627a483 483 0 0 1 5.829-.621V12.17c-.462-.072-.988-.079-1.471-.068V8.545c1.919-.193 3.834-.383 5.755-.559v3.553c-.483.084-1.026.194-1.471.354v1.65c1.946-.188 3.891-.358 5.841-.522v-1.623a15 15 0 0 0-1.754-.089V1.496a16 16 0 0 0 1.754-.391V-.518C3.891-.357 1.946-.187 0 0" clip-path="url(#k)" style="fill:#630636;fill-opacity:1;fill-rule:nonzero;stroke:none" transform="matrix(1.33333 0 0 -1.33333 187.715 330.065)"></path><path d="M0 0v1.625c.524.059 1.148.107 1.753.1v9.814c-.605.088-1.229.236-1.753.381v1.621q4.635-.37 9.268-.656V9.473l-1.954.125c-.081.507-.163.996-.201 1.379q-1.372.089-2.743.19V7.554q1.101-.08 2.198-.154c.059.381.14.753.241 1.088q.837-.052 1.672-.111V4.305c-.555.034-1.115.076-1.672.11-.121.349-.182.756-.241 1.121q-1.097.069-2.198.148V1.777c.922-.068 1.839-.132 2.762-.193.042.46.12.916.222 1.429.654-.042 1.304-.079 1.958-.122V-.658Q4.652-.372 0 0" clip-path="url(#l)" style="fill:#630636;fill-opacity:1;fill-rule:nonzero;stroke:none" transform="matrix(1.33333 0 0 -1.33333 197.214 330.895)" data-source="https://football-logos.cc"></path><path d="M0 0c-.604.03-1.169.033-1.592.019v-9.128a9 9 0 0 1 1.409-.17C2.401-9.4 4.255-8.021 4.255-4.814 4.255-1.904 3.108-.141 0 0m-.42-11.494c-1.413.068-3.148.24-3.794.273-.587.034-1.173.065-1.756.103v1.622c.527.068 1.152.133 1.756.137V.459c-.604.069-1.229.206-1.756.339v1.626q.852-.05 1.697-.1c1.069-.06 2.762-.067 4.459-.138C4.4 1.982 7.062.041 7.062-4.712c0-4.655-3.048-6.995-7.482-6.782" clip-path="url(#m)" style="fill:#630636;fill-opacity:1;fill-rule:nonzero;stroke:none" transform="matrix(1.33333 0 0 -1.33333 219.6 317.07)"></path><path d="M0 0a16 16 0 0 0-.626 2.162h-.02c-.163-.703-.362-1.481-.646-2.233-.393-1.072-.783-2.136-1.172-3.206 1.228-.028 2.449-.051 3.674-.071Q.609-1.676 0 0m1.007-8.822v1.627c.426.068.969.162 1.436.196-.193.536-.393 1.076-.587 1.615-1.654.019-3.307.054-4.963.095l-.565-1.588c.462-.057 1.006-.172 1.43-.258v-1.626q-2.562.057-5.124.144v1.623c.324.09.728.154 1.07.166q2.078 5.8 4.155 11.609 1.607-.036 3.211-.065Q3.189-1.172 5.307-7.049a5 5 0 0 0 1.071-.204v-1.63q-2.687.02-5.371.061" clip-path="url(#n)" style="fill:#630636;fill-opacity:1;fill-rule:nonzero;stroke:none" transform="matrix(1.33333 0 0 -1.33333 238.705 321.195)"></path><path d="M0 0v-6.482c0-3.689-1.995-5.483-5.631-5.544-4.297-.068-5.27 2.27-5.27 4.849v6.984a8.5 8.5 0 0 0-1.269.209v1.646c1.785.006 3.564.029 5.35.057V.072c-.465-.129-.989-.193-1.452-.238v-6.825c-.007-1.706.543-2.907 2.804-2.868 2.022.041 2.884.904 2.884 3.211v6.58c-.482.035-1.007.076-1.455.19v1.646c1.763.035 3.525.084 5.289.132V.258A7.7 7.7 0 0 0 0 0" clip-path="url(#o)" style="fill:#630636;fill-opacity:1;fill-rule:nonzero;stroke:none" transform="matrix(1.33333 0 0 -1.33333 270.141 317.203)"></path><path d="M0 0v-11.654a322 322 0 0 0-3.363-.19 2704 2704 0 0 0-4.156 6.676c-.609.981-1.072 1.961-1.453 2.826.138-2.04.122-4.908.122-7.879a9 9 0 0 0 1.453-.175v-1.645a478 478 0 0 0-5.754-.229v1.627c.524.118 1.152.262 1.755.319v9.795c-.603.019-1.231.095-1.755.179v1.621q2.578.092 5.149.2C-6.638-.745-5.278-2.965-3.91-5.172c.603-.953 1.011-1.775 1.513-2.77-.161 2.021-.145 4.829-.145 7.797A7.2 7.2 0 0 0-3.91.022v1.646q2.595.135 5.182.297V.318A12 12 0 0 0 0 0" clip-path="url(#p)" style="fill:#630636;fill-opacity:1;fill-rule:nonzero;stroke:none" transform="matrix(1.33333 0 0 -1.33333 290.903 316.315)"></path><path d="M0 0v1.626c.523.137 1.146.274 1.752.353v9.815c-.606 0-1.229.058-1.752.125v1.627c2.044.133 4.088.272 6.129.433v-1.626a17 17 0 0 0-1.752-.373V2.168c.6.01 1.223-.048 1.752-.109V.437Q3.067.198 0 0" clip-path="url(#q)" style="fill:#630636;fill-opacity:1;fill-rule:nonzero;stroke:none" transform="matrix(1.33333 0 0 -1.33333 294.313 331.645)"></path><path d="M0 0q-.96-.097-1.931-.19c-.098.612-.198 1.144-.239 1.638a192 192 0 0 0-2.094-.193v-9.533c.601.017 1.223-.024 1.752-.078v-1.625a502 502 0 0 0-6.121-.547v1.622c.524.147 1.151.3 1.754.391v9.53C-7.57.958-8.261.894-8.953.84c-.041-.501-.141-1.052-.242-1.684q-.972-.083-1.931-.155v3.807A542 542 0 0 1 0 3.808z" clip-path="url(#r)" style="fill:#630636;fill-opacity:1;fill-rule:nonzero;stroke:none" transform="matrix(1.33333 0 0 -1.33333 318.368 316.675)"></path><path d="M0 0v1.627c.523.156 1.147.318 1.751.422v9.81A14 14 0 0 0 0 11.92v1.623c3.081.315 6.163.657 9.24 1.037v-3.412q-.976-.118-1.945-.236c-.083.494-.163.964-.201 1.345q-1.364-.164-2.732-.312V8.353c.729.083 1.459.163 2.188.251.064.382.144.777.244 1.13.555.061 1.109.13 1.664.194V5.855c-.555-.064-1.109-.132-1.664-.193-.123.326-.18.719-.244 1.072q-1.094-.127-2.188-.248v-3.91c.919.1 1.83.207 2.75.313.045.47.121.933.221 1.469.653.072 1.3.156 1.953.232V1.037A545 545 0 0 0 0 0" clip-path="url(#s)" style="fill:#630636;fill-opacity:1;fill-rule:nonzero;stroke:none" transform="matrix(1.33333 0 0 -1.33333 319.442 329.544)"></path><path d="M0 0a18 18 0 0 1-1.58-.27V-9.4c.36-.011.896.019 1.397.087 2.57.35 4.409 2.064 4.409 5.274C4.226-1.123 3.086.427 0 0m-.422-11.57c-1.402-.19-3.127-.334-3.765-.417-.585-.072-1.17-.15-1.748-.221v1.627c.517.162 1.144.341 1.748.46v9.813a13 13 0 0 0-1.748.02v1.622q.843.106 1.687.213c1.06.14 2.743.433 4.431.669 4.187.571 6.824-.882 6.824-5.639 0-4.655-3.017-7.546-7.429-8.147" clip-path="url(#t)" style="fill:#630636;fill-opacity:1;fill-rule:nonzero;stroke:none" transform="matrix(1.33333 0 0 -1.33333 341.743 311.635)"></path><path d="M0 0c-.079.448-.156.871-.201 1.35-.898-.161-1.793-.317-2.695-.471v-3.733c.756.129 1.505.26 2.257.393a7 7 0 0 0 .221 1.143q.828.142 1.653.297v-4.196c-.55-.101-1.101-.197-1.653-.296a5.3 5.3 0 0 0-.221 1.068c-.752-.133-1.501-.266-2.257-.395v-3.872c.598.064 1.221.072 1.737.061v-1.622A455 455 0 0 0-7.231-11.3v1.622c.517.188 1.14.392 1.74.533V.666a14 14 0 0 0-1.74-.047v1.623q4.595.746 9.166 1.577V.347C1.288.232.646.114 0 0" clip-path="url(#u)" style="fill:#630636;fill-opacity:1;fill-rule:nonzero;stroke:none" transform="matrix(1.33333 0 0 -1.33333 368.174 309.304)"></path><path d="M0 0c0-.908-.721-1.781-1.611-1.949-.896-.163-1.637.445-1.637 1.345 0 .908.741 1.778 1.637 1.945C-.721 1.508 0 .9 0 0" clip-path="url(#v)" style="fill:#630636;fill-opacity:1;fill-rule:nonzero;stroke:none" transform="matrix(1.33333 0 0 -1.33333 375.16 319.583)"></path><path d="M0 0a23 23 0 0 0-.262 1.654c-.471 0-.889-.023-1.348-.123-2.246-.459-3.478-2.504-3.478-5.213 0-2.873 1.132-4.339 4.134-3.719.973.201 2.006.638 2.843 1.155.049-.791.106-1.584.159-2.375a13.2 13.2 0 0 0-3.58-1.326c-4.311-.881-6.42 1.217-6.42 5.266-.004 4.396 2.248 7.763 6.82 8.699.991.209 2.067.31 3.078.28V.407C1.3.273.649.141 0 0" clip-path="url(#w)" style="fill:#630636;fill-opacity:1;fill-rule:nonzero;stroke:none" transform="matrix(1.33333 0 0 -1.33333 388.054 306.325)"></path><path d="M0 0c0-.903-.719-1.806-1.611-2.002-.893-.198-1.626.388-1.626 1.291 0 .901.736 1.806 1.626 1.999C-.719 1.485 0 .904 0 0" clip-path="url(#x)" style="fill:#630636;fill-opacity:1;fill-rule:nonzero;stroke:none" transform="matrix(1.33333 0 0 -1.33333 397.453 314.998)" data-source="https://football-logos.cc"></path><!-- source: https://football-logos.cc --></svg>