<svg xmlns="http://www.w3.org/2000/svg" xml:space="preserve" viewBox="52 15.45 646 720.33"><!-- Source: https://football-logos.cc --><path d="M502.6 306.114c-1.079.44-2.022.81-2.739 1.091-6.036 2.432-12.119 4.742-18.297 6.784-18.905 15.608-51.881 35.48-102.013 42.019-47.224 6.16-87.693-1.592-113.393-9.197q.024 1.417.041 2.836c.036 3.09.047 6.179.055 9.27-.031 3.752-.616 7.462-.916 11.195-.089 1.482-.14 2.967-.174 4.453 5.493 16.863 10.732 36.728 13.662 57.6 4.37 31.123 9.127 72.195 9.127 116.878 0 25.651-1.57 52.49-5.68 79.32-3.094 20.206-5.718 41.297-5.718 62.182q-.001 3.969.13 7.924.194.706.393 1.408c.504 1.721 1.04 3.436 1.6 5.145a321 321 0 0 0 6.795 6.324 73 73 0 0 0-1.116-4.74c-.376-1.404-.794-2.797-1.128-4.211a.3.3 0 0 1-.012-.09v-.002l.002-.002h.006c.07.053.463.967.63 1.305.334.67.649 1.352.983 2.023.42.844.567 1.29.615 1.344l.002.002.002.002.002.002h.006l.002-.002v-.002l.002-.002c.01-.03.008-.14.006-.328 2.754 4.21 6.406 7.712 9.94 11.254 2.094 2.265 4.303 4.41 6.554 6.511a477 477 0 0 0 6.215 4.391c4.885 3.494 9.876 6.841 14.887 10.15 5.018 2.751 10.192 5.205 15.277 7.827 6.374 3.088 12.707 6.27 19.196 9.11 4.134 1.965 8.346 3.711 12.629 5.33 4.405 1.92 8.887 3.624 13.416 5.233 4.259 1.477 8.522 2.947 12.775 4.442 3.31.429 6.614.883 9.914 1.37 7.085 1.044 14.153 2.113 21.17 3.548a199 199 0 0 1 16.826 3.97c6.205 1.869 11.95 4.819 17.63 7.872 5.17 2.924 9.984 6.418 14.663 10.062l1.16.965a799 799 0 0 1 43.483.16c2.172-2.87 4.591-5.532 7.097-8.146 3.006-2.795 6.34-5.016 9.883-6.836a92 92 0 0 0-5.678-6.797c-15.138-16.455-34.647-26.978-46.74-33.383l-.295-.176c2.327.193 4.487.307 6.399.371 15.389.525 23.939 1.11 26.396 1.291.501.039.925-.509 1.008-.79 3.877-12.918 3.358-19.982 2.92-22.536-.13-.757-.758-.658-1.01-.437-7.244 6.327-14.863 7.207-29.314 7.421-13.003.192-22.919-4.243-27.307-10.804-2.187-3.269-1.428-6.228 1.3-6.752 2.006-.386 4.064-.386 7.173 0 .865.106 2.668.906 3.398 1.336 4.492 2.653 11.637 4.7 16.25 5.031 3.1.224 5.061-.52 6.162-1.19.805-.487.56-1.843.287-2.224-2.344-3.262-3.887-2.973-11.164-3.145-8.126-.193-12.84-4.826-14.466-8.105a13 13 0 0 1-1.26-4.41c-.122-1.185.26-1.997.777-2.125a19 19 0 0 0 7.147-3.498c2.625-2.076 4.074-5.028 4.738-6.737.324-.829.6-.976.91-.273 1.525 3.428 7.242 14.28 21.824 23.219 12.942 7.934 31.86 7.153 36.385 6.834.648-.046.882.937.795 1.443-1.607 9.29-9.428 16.827-12.078 19.15-.553.484-.72 1.255-.34 2.088 1.135 2.5 4.21 7.885 10.674 11.002 4.996 2.41 16.595 2.504 23.408-.57.276-.126.823.017.754.73-.333 3.322-2.534 13.238-16.748 19.334-.3.128-.798.771-.615 1.475.396 1.514 1.125 4.47 1.789 8.094 1.763-.504 3.54-.967 5.316-1.406 6.592-1.577 13.326-2.288 20.076-2.706a251 251 0 0 1 3.217-.144c1.278-.599 2.55-1.21 3.81-1.848 5.55-2.8 10.976-5.83 16.385-8.89 8.104-4.824 16.315-9.47 24.664-13.854 9.442-4.947 19.274-9.05 29.229-12.83 10.374-3.835 20.768-7.61 31.14-11.45 3.806-3.679 7.577-7.397 11.346-11.11a531 531 0 0 0 8.387-8.522q.244-4.22.568-8.436c.52-6.191.951-12.388 1.221-18.595.355-3.754.015-7.473-.37-11.203-.642-5.701-1.03-11.424-1.308-17.153-.25-5.367-.305-10.742-.351-16.115-.037-5.061-.05-10.122-.06-15.184-.01-8.484-.255-11.752 2.939-13.007-.859-8.24-1.5-16.451-1.955-24.596-1.228-3.94-2.249-7.944-3.188-11.961-1.293-6.141-2.136-12.369-2.94-18.59-.906-7.235-1.399-14.513-1.79-21.79-.224-4.292-.348-8.587-.426-12.884-.266-5.193.191-10.344 1-15.472.991-6.001 2.805-11.8 4.734-17.553 1.844-5.16 3.471-10.394 5.287-15.564q.758-2.028 1.535-4.045c1.277-11.383 2.67-21.997 4.026-31.653a300 300 0 0 1 3.824-21.398q.193-1.481.414-2.96c.682-3.806 1.705-7.525 2.95-11.173 3.612-13.883 7.81-26.599 11.792-37.365.169-1.536.297-3.074.051-4.48-.359-3.283-.427-6.564-.32-9.846-25.124 8.102-68.326 17.732-119.436 11.066-59.112-7.709-94.369-33.956-110.836-49.895ZM706.848 627.01c.12.941.22 1.922.578 2.443-.199-.813-.396-1.626-.578-2.443" style="display:inline;fill:#fff;stroke-width:1.22153" transform="translate(-125 -147.305)" data-source="https://football-logos.cc"></path><path d="M550.216 698.699c.526-2.64.442-6.122.032-9.974-.569-5.349-2.033-10.431-2.635-12.369-.163-.529.283-1.012.55-1.108 12.678-4.581 14.641-12.032 14.938-14.528.062-.536-.427-.644-.673-.549-6.077 2.31-16.422 2.24-20.878.429-5.766-2.342-8.509-6.388-9.521-8.266-.339-.626-.189-1.207.304-1.57 2.364-1.746 9.34-7.408 10.773-14.389.078-.38-.132-1.119-.71-1.085-4.036.24-20.909.827-32.452-5.135-13.006-6.717-18.105-14.869-19.465-17.445-.276-.528-.523-.418-.812.205-.592 1.284-1.884 3.502-4.226 5.062-2.532 1.689-5.141 2.377-6.374 2.628-.461.096-.802.706-.693 1.596a8.6 8.6 0 0 0 1.123 3.315c1.451 2.464 5.655 5.944 12.903 6.089 6.49.129 7.867-.088 9.958 2.363.244.286.462 1.306-.256 1.672-.982.503-2.732 1.061-5.497.893-4.115-.249-10.487-1.786-14.493-3.78-.651-.323-2.259-.924-3.031-1.004-2.773-.29-4.609-.29-6.397 0-2.434.394-3.111 2.618-1.16 5.074 3.914 4.93 12.758 8.263 24.355 8.119 12.889-.161 19.685-.823 26.146-5.577.225-.166.784-.241.9.328.391 1.919.854 7.227-2.604 16.933-.074.212-.452.624-.899.595-2.192-.136-9.817-.577-23.543-.971a138 138 0 0 1-5.707-.278l.263.132c10.786 4.813 28.187 12.719 41.689 25.083 7.33 6.711 11.449 13.091 13.602 17.212l.068.102a849 849 0 0 0-45.798-1.235c-47.856 0-95.615 4.063-141.165 11.911l-.193.033a208 208 0 0 1-10.478-6.662c-34.81-23.709-44.33-54.728-44.33-86.368 0-15.693 2.342-31.54 5.102-46.722 3.665-20.16 5.065-40.327 5.065-59.601 0-33.574-4.244-64.434-8.141-87.82-4.566-27.397-15.412-52.486-22.784-67.276 21.046 6.296 62.584 15.551 112.623 10.053 60.546-6.653 93.035-31.675 104.302-42.24 11.268 10.565 43.756 35.588 104.304 42.24 50.037 5.498 91.575-3.757 112.62-10.053-7.373 14.791-18.215 39.879-22.782 67.276-3.898 23.386-8.142 54.247-8.142 87.822 0 19.272 1.398 39.439 5.064 59.599 2.761 15.182 5.103 31.029 5.103 46.722 0 31.64-9.52 62.659-44.329 86.368a208 208 0 0 1-10.421 6.626l-.062.036c-29.636-5.115-60.208-8.626-91.136-10.458" style="fill:#ca2a2d" transform="translate(-125 -147.305)"></path><path d="M277.646 727.922c-6.473-5.44-11.704-10.89-15.585-16.496-24.76-35.761-23.032-73.451-12.291-144.588 14.595-96.65-1.537-212.63-36.105-277.386 0 0 70.289 24.355 153.252 14.498 93.892-11.157 133.086-56.251 133.086-56.251h-.006s39.193 45.094 133.086 56.251c82.963 9.857 153.252-14.498 153.252-14.498-34.568 64.756-50.7 180.736-36.105 277.386 10.743 71.136 12.469 108.827-12.289 144.588-3.871 5.592-9.086 11.03-15.537 16.455l-.059.045a529 529 0 0 0-6.783-1.964c-21.026-5.959-42.888-11.027-65.328-15.167l.059-.041a203 203 0 0 0 4.923-3.243c53.351-36.341 51.031-88.097 41.754-139.127-9.28-51.03-3.865-103.608 3.093-145.36s29.381-78.866 29.381-78.866-54.124 22.422-124.485 14.691c-74.183-8.152-104.958-44.846-104.958-44.846s-30.775 36.694-104.957 44.846c-70.361 7.732-124.485-14.691-124.485-14.691s22.422 37.113 29.381 78.866 12.372 94.33 3.093 145.36c-9.277 51.03-11.597 102.786 41.753 139.127a196 196 0 0 0 4.893 3.222l.097.059c-22.442 4.143-44.308 9.212-65.336 15.171a567 567 0 0 0-6.642 1.921z" style="fill:#231f20" transform="translate(-125 -147.305)"></path><path d="M499.999 773.522c48.518 0 87.977 3.592 140.654 14.776 32.153 6.826 58.075 17.12 82.605 23.933 10.437 2.899 19.136 8.409 18.846 12.468-.29 4.06-3.77 6.959-15.368 8.99-10.034 1.756-15.259 2.013-18.973 8.222-1.323 2.214-.852 4.794.886 7.073 4.505 5.907 15.466 17.893 36.935 25.297 33.634 11.598 68.718 8.409 68.718 8.409l-31.606-39.433L823 823.539s-28.995-.871-46.973-7.829c-17.976-6.959-28.125-15.657-30.153-21.747-2.294-6.877 2.898-12.757 7.537-20.587 6.849-11.556 14.208-15.657 8.41-22.034-10.211-11.232-26.677-16.817-47.051-22.591-63.57-18.016-136.771-28.587-214.771-28.587-77.999 0-151.2 10.571-214.77 28.587-20.374 5.774-36.841 11.36-47.05 22.591-5.799 6.377 1.561 10.478 8.409 22.034 4.639 7.83 9.831 13.71 7.538 20.587-2.029 6.089-12.178 14.788-30.154 21.747-17.977 6.958-46.972 7.829-46.972 7.829l40.303 19.717-31.605 39.433s35.084 3.189 68.718-8.409c21.468-7.403 32.428-19.389 36.934-25.297 1.738-2.279 2.209-4.859.885-7.073-3.713-6.209-8.937-6.467-18.972-8.222-11.598-2.031-15.078-4.929-15.367-8.99-.29-4.059 8.408-9.569 18.846-12.468 24.529-6.813 50.451-17.107 82.604-23.933 52.676-11.183 92.135-14.775 140.653-14.775" style="fill:#231f20" transform="translate(-125 -147.305)"></path><path d="m291.728 784.931-10.412-33.15q-.27-.858-.821-1.189-.553-.33-1.693-.288l-.282-.898 20.618-6.475q7.016-2.204 11.35-1.428 5.46.959 9.515 5.251 3.542 3.765 5.312 9.402 2.095 6.67.721 12.416-1.257 5.115-4.663 8.242-3.407 3.13-9.964 5.189l-20.62 6.474-.282-.898q.96-.616 1.226-1.203.265-.586-.005-1.445m4.253-2.184 14.099-4.427q6.204-1.949 8.608-4.807 2.826-3.403 3.003-8.643.099-3.487-1.076-7.234-2.14-6.807-7-10.184-2.69-1.856-5.758-2.025-3.07-.168-7.7 1.287l-14.1 4.429zM334.376 736.355l4.698 22.163q.833 3.934 1.585 5.445t2.297 2.412q3.751 2.147 12.36.323 9.373-1.988 11.589-5.921.737-1.32.733-2.932-.002-1.611-.767-5.22l-4.698-22.162q-.253-1.204-.752-1.635-.498-.431-1.697-.484l-.195-.922 8.013-1.697.195.922q-1.08.505-1.361 1.102-.28.596-.019 1.827l4.893 23.085q.903 4.258.551 6.666-.684 4.315-4.51 7.092-3.827 2.773-11.302 4.359-11.188 2.374-16.222-1.071-2.046-1.376-3.177-3.455-1.133-2.076-1.93-5.837l-4.893-23.084q-.261-1.233-.758-1.664-.5-.43-1.692-.455l-.195-.922 8.438-1.787.195.921q-1.075.534-1.354 1.13-.279.599-.025 1.801M382.584 728.358l4.684 31.911q.178 1.219.649 1.68.469.463 1.663.591l.136.932-8.104 1.189-.137-.932q1.136-.47 1.441-1.033.303-.56.121-1.807l-4.924-33.547q-.183-1.246-.652-1.709-.47-.462-1.659-.562l-.136-.933 11.662-1.71.138.932q-1.33.679-1.202 1.542.087.595 1.725 2.023l28.607 25.002-4.342-29.595q-.183-1.247-.653-1.711-.47-.46-1.659-.559l-.136-.933 8.103-1.19.138.933q-1.11.437-1.427 1.015-.318.577-.134 1.824l4.923 33.547q.183 1.249.65 1.696.468.447 1.662.576l.136.932-9.374 1.375-.138-.932q1.316-.556 1.189-1.42-.095-.651-1.563-1.954zM431.947 754.584l-2.268-34.672q-.059-.9-.517-1.351-.46-.45-1.577-.679l-.061-.94 21.564-1.411q7.338-.48 11.366 1.302 5.079 2.224 8 7.354 2.55 4.494 2.937 10.391.455 6.977-2.239 12.234-2.432 4.672-6.481 6.904-4.05 2.235-10.91 2.684l-21.566 1.409-.061-.94q1.078-.371 1.475-.878.397-.509.338-1.407m4.649-1.115 14.746-.966q6.49-.424 9.501-2.632 3.551-2.637 4.964-7.686.921-3.365.665-7.284-.466-7.118-4.39-11.549-2.173-2.442-5.115-3.333-2.941-.889-7.786-.571l-14.746.966zM505.093 743.391l-21.909.132-3.569 7.833q-.503 1.117-.501 1.569.005.905 1.769 1.197l.005.941-9.095.055-.006-.941q1.229-.219 1.871-.912.642-.695 1.679-3.014l14.82-32.495q.533-1.174.531-1.595-.007-.78-1.479-1.162l-.005-.941 9.961-.061.006.941q-1.467.492-1.462 1.269.001.332.55 1.501l14.552 31.145q1.61 3.442 2.125 4.041.514.597 2.226 1.007l.005.941-9.712.061-.006-.944q1.73-.252 1.724-1.337-.004-.482-.672-1.865zm-1.758-3.905-9.332-20.187-9.095 20.3zM526.013 751.366l26.103 1.163q1.255.056 1.798-.317.54-.374.864-1.523l.94.041-.349 7.822-.94-.041q-.22-1.174-.726-1.595-.506-.42-1.766-.477l-32.761-1.459.042-.941q1.206-.245 1.61-.74.405-.492.461-1.753l1.51-33.872q.055-1.257-.319-1.787-.375-.526-1.522-.879l.041-.941 8.617.384-.041.941q-1.174.25-1.593.74-.42.493-.476 1.75zM566.737 741.967l-1.356 12.117q-.138 1.226.199 1.791.337.567 1.458.993l-.105.937-8.572-.96.105-.935q1.189-.169 1.641-.632c.302-.308.497-.881.593-1.717l3.771-33.695q.14-1.254-.196-1.818-.337-.568-1.461-.967l.103-.937 8.572.96-.103.938q-1.19.168-1.642.631-.45.465-.592 1.719l-1.894 16.924 23.816-14.744q1.266-.762 1.328-1.333.073-.654-1.04-.962l.105-.937 10.784 1.208-.106.937q-1.8-.081-3.678 1.068l-17.958 10.987 15.588 25.102q.56.91 1.094 1.256.535.346 1.689.535l-.106.938-9.937-1.112.106-.937q1.316-.155 1.379-.723.04-.358-1.082-2.206l-12.564-20.507zM629.464 729.312l-2.724 13.723 17.444 3.463q1.237.247 1.83-.041.594-.288 1.086-1.375l.925.184-1.525 7.678-.924-.184q-.042-1.191-.48-1.683t-1.674-.739l-17.444-3.464-3.042 15.318q-.246 1.236.031 1.809.276.576 1.388 1.101l-.183.924-8.462-1.678.184-.925q1.198-.07 1.689-.491.489-.425.734-1.662l6.605-33.257q.243-1.234-.045-1.83-.288-.591-1.374-1.085l.183-.925 32.729 6.501q1.237.245 1.831-.035c.395-.186.756-.649 1.087-1.38l.925.182-1.526 7.678-.924-.182q-.037-1.21-.477-1.694-.439-.482-1.676-.729zM717.68 751.853l-6.438 5.768-.631-.699q.525-.778.674-1.266.363-1.174-2.756-4.089-4.284-4.026-10.246-5.872-8.03-2.487-14.391.404-6.473 2.948-8.697 10.128-2.215 7.155 1.595 13.505 3.674 6.185 11.153 8.502 7.308 2.263 14.196-.209 3.115-1.14 3.364-1.942.123-.4-.079-1.471l.857-.331 3.183 7.773-.893.35q-.582-.965-1.099-1.123-.315-.098-1.274.263-3.247 1.154-5.287 1.604a22.3 22.3 0 0 1-4.314.495q-4.723.135-9.853-1.454-9.888-3.064-14.375-10.482-4.72-7.777-1.949-16.722 2.184-7.053 7.853-10.953 8.868-6.112 21.574-2.177 8.4 2.6 14.878 9.495.427.444.626.508.373.115 1.687-.675z" style="fill:#fff" transform="translate(-125 -147.305)"></path><path d="M288.073 834.209c-3.113-1.489-6.864-2.12-11.46-2.892l-2.851-.487c-12.681-2.217-13.112-5.045-12.974-6.337.007-1.751 5.772-6.424 16.73-9.468a380 380 0 0 0 7.221-2.086c0 .001 1.325 11.932 3.334 21.27M711.927 834.209c3.111-1.489 6.863-2.12 11.457-2.892l2.852-.487c12.681-2.217 13.112-5.045 12.974-6.337-.007-1.751-5.773-6.424-16.73-9.468a380 380 0 0 1-7.221-2.086c.001.001-1.324 11.932-3.332 21.27" style="fill:#231f20" transform="translate(-125 -147.305)"></path><path d="M487.519 776.489c4.703 3.504 8.899 7.113 12.48 10.86 3.553-3.719 7.713-7.301 12.37-10.779l.066-.062a889 889 0 0 0-24.756-.001z" style="fill:#ca2a2d" transform="translate(-125 -147.305)"></path><path d="M379.45 787.332c19.573 10.142 40.983 21.288 63.9 33.887 53.697 29.523 56.652 41.173 56.652 41.173h-.007.008-.007s2.957-11.65 56.652-41.173c22.97-12.628 44.427-23.797 64.039-33.958l-.12-.032c-33.857-6.354-63.827-9.574-98.002-10.509l-.047.029c-9.448 6.269-17.237 12.792-22.52 19.73-5.275-6.93-13.053-13.444-22.484-19.707l-.072-.053c-34.219.937-64.222 4.163-98.131 10.532zM379.571 410.216c-5.785-9.092-12.612-18.847-18.483-23.776-6.477-5.437-15.736-3.083-18.557-.508-2.501 2.284-3.329 5.26-3.588 6.605-.087.449-.535 1.169-.767 1.428-2.934 3.27-7.757 9.741-9.293 11.821-.31.42-.095.791.543 1.014 1.922.669 6.078 2.168 8.508 3.437.442.231 1.368 1.395 1.461 2.733.16 2.289.072 6.469-1.576 12.323-2.609 9.278-6.813 28.56 3.625 42.768 10.439 14.208 23.513 14.665 31.604 26.241 6.06 8.67 4.206 18.412 2.582 22.819s-2.243 9.47.076 9.703 6.052-1.482 8.97-4.368c3.401-3.364 7.018-5.303 13.222-2.32 5.064 2.436 8.156 5.334 12.023 5.334 3.865 0 5.652-2.989 3.092-6.764-3.472-5.12-5.389-10.238-2.971-21.898.138-.668 1.286-1.788 2.686-1.253 4.504 1.719 14.939 6.042 22.901 11.94 9.433 6.988 19.815 16.662 26.15 26.449.673 1.04 2.202 3.905 2.787 4.892.984 1.663 2.709 3.911 4.891 4.033 3.479.193 4.833-.58 6.185-8.892 1.264-7.768 1.517-14.862-.821-21.595-.164-.47-.255-1.528.247-1.798 1.508-.815 5.053-3 9.322-7.439a21 21 0 0 0 5.912-15.005c-.022-.96-.59-1.409-1.416-1.229-3.331.723-12.343 2.52-18.849 2.317-6.958-.218-10.003-2.392-11.09-3.466-.363-.358-.213-.823.284-1.247 1.22-1.044 3.653-3.269 5.877-6.16 3.972-5.164 5.525-8.877 5.102-14.341-.04-.519-.441-1.575-.928-1.525-3.417.347-17.657 1.568-26.79-1.096-10.438-3.045-20.459-8.023-29.14-19.427-7.589-9.967-13.938-12.236-16.353-12.751-.676-.145-1.376-.699-1.969-1.513-1.021-1.404-2.817-3.603-5.019-5.162-3.48-2.466-5.364-4.35-10.44-12.324" style="fill:#231f20" transform="translate(-125 -147.305)"></path><path d="M392.475 434.137c-4.641 0-6.814-.145-8.119.58-1.306.725-1.015 2.755 1.304 4.495 2.32 1.739 4.204 4.494 2.32 5.219-1.885.725-3.189 1.305-3.045 2.899.09.99 1.02 2.093 1.71 2.787.422.422.611.956.189 1.453-.619.727-1.836 1.954-4.073 3.589-3.77 2.755-5.944 4.204-3.625 6.814s5.074 5.509 6.959 2.9c1.653-2.288 3.416-3.128 5.78-3.495.331-.051 1.034-.529 1.052-1.253.019-.725.054-1.776.127-3.081.146-2.609-1.885-5.219-.435-5.219s5.944.29 7.249-.29 2.609-2.029 2.609-5.364c0-2.462-1.422-4.292-2.167-5.081-.263-.279-.315-.51-.134-.655.543-.435 1.576-1.441 1.141-2.528-.579-1.451-2.173-3.77-8.842-3.77M411.096 488.645c10.787 4.814 28.187 12.72 41.688 25.084 10.36 9.485 14.308 18.306 15.352 21.032.214.557.692.581.867.416 2.374-2.226 2.578-7.565 1.904-13.91-.569-5.35-2.033-10.431-2.635-12.368-.164-.53.283-1.014.55-1.11 12.679-4.581 14.641-12.033 14.937-14.528.063-.536-.424-.643-.672-.549-6.076 2.311-16.422 2.24-20.879.429-5.764-2.342-8.508-6.387-9.521-8.266-.337-.626-.189-1.206.304-1.57 2.365-1.746 9.342-7.407 10.775-14.39.077-.378-.133-1.117-.71-1.083-4.036.24-20.909.827-32.453-5.135-13.006-6.718-18.105-14.87-19.463-17.446-.276-.528-.523-.418-.811.206-.593 1.284-1.885 3.501-4.227 5.062-2.532 1.689-5.141 2.378-6.374 2.628-.461.095-.801.707-.693 1.595a8.6 8.6 0 0 0 1.123 3.316c1.45 2.464 5.655 5.944 12.903 6.089 6.491.13 7.867-.089 9.958 2.363.244.286.462 1.307-.256 1.673-.982.502-2.731 1.061-5.497.893-4.116-.249-10.485-1.786-14.493-3.78-.651-.324-2.259-.923-3.031-1.004-2.773-.29-4.609-.29-6.397 0-2.434.394-3.11 2.618-1.16 5.074 3.914 4.93 12.757 8.263 24.355 8.118 12.887-.16 19.685-.822 26.145-5.577.226-.166.786-.241.901.328.391 1.919.853 7.226-2.604 16.934-.075.211-.452.623-.899.594-2.19-.137-9.817-.578-23.543-.97a143 143 0 0 1-5.709-.278z" style="fill:#fff" transform="translate(-125 -147.305)"></path><path d="M353.621 396.734c0 1.321-.989 2.392-2.212 2.392-1.22 0-2.21-1.071-2.21-2.392s.991-2.393 2.21-2.393c1.223 0 2.212 1.071 2.212 2.393m53.354 91.459c-9.699-.954-21.399-3.23-29.143-8.534-13.166-9.017-20.365-18.13-19.613-40.557.012-.347.367-1.123 1.817-1.16.556-.014.972-.005 1.269.008.652.028.558.789.549 1.152-.369 15.388 1.519 22.793 11.339 31.858 10.051 9.279 23.97 11.598 32.958 13.435 7.865 1.608 26.386 1.29 30.894 1.186.643-.015 1.106-.485 1.148-.712a15.3 15.3 0 0 0-.093-6.083c-.085-.371-.801-.474-1.123-.424-24.794 3.82-38.15.426-51.412-7.111-9.543-5.425-11.824-13.127-12.357-16.058-.138-.756.086-1.225.573-1.426.577-.237 1.492-.712 2.747-1.653 2.319-1.74 2.609-2.609 2.464-4.059s-2.32-3.334-3.77-4.205c-1.449-.87-2.899-.58-2.32-1.449.435-.652 1.931-1.142 2.651-1.346.24-.068.33-.34.258-.757-.219-1.25-.517-4.132.57-7.176 1.45-4.059 6.234-3.334 10.584-3.334s2.464-1.884-.725-3.479-6.089-4.349-10.148-10.583c-4.06-6.234-11.73-17.513-16.528-22.761-4.639-5.074-11.018-4.349-14.642-2.465-1.521.791-1.873 2.307-1.927 3.324-.032.599.279 1.177.649 1.465 1.287 1.009 4.178 3.702 4.178 7.534 0 3.773-3.624 6.379-3.624 6.379s.29 7.394-1.16 17.397-2.049 30.026 6.669 40.592c9.569 11.598 17.302 10.222 26.821 22.617 2.078 2.706 4.978 7.539 5.074 15.464s-1.45 12.854-2.32 14.882c-.87 2.031-.87 3.384.676 2.127 1.547-1.256 3.479-4.059 6.574-6.282 3.093-2.222 11.114-1.159 14.303.774s4.059 2.803 5.026 2.706.483-2.61-.87-5.316-1.739-7.442-1.643-14.401c.083-6.089 3.055-10.551 3.797-11.571z" style="fill:#fff" transform="translate(-125 -147.305)"></path><path d="M341.035 397.153c-.211-.326-.515-.335-.787-.038-.815.893-2.965 3.327-3.974 4.74-1.45 2.03-.394 3.19 1.691 4.157 1.209.56 2.235.828 2.884.954.469.092.893-.085 1.1-.438.429-.736 1.091-2.168 1.091-3.996-.002-2.045-1.348-4.367-2.005-5.379" style="fill:#fff" transform="translate(-125 -147.305)" data-source="https://football-logos.cc"></path><path d="M560.391 410.216c-5.786-9.092-12.614-18.847-18.484-23.776-6.477-5.437-15.735-3.083-18.557-.508-2.501 2.284-3.329 5.26-3.588 6.605-.086.449-.535 1.169-.767 1.428-2.934 3.27-7.757 9.741-9.293 11.821-.309.42-.095.791.544 1.014 1.921.669 6.075 2.168 8.507 3.437.442.231 1.369 1.395 1.462 2.733.159 2.289.071 6.469-1.577 12.323-2.609 9.278-6.812 28.56 3.624 42.768 10.44 14.208 23.514 14.665 31.607 26.241 6.06 8.67 4.205 18.412 2.579 22.819-1.623 4.407-2.242 9.47.079 9.703 2.32.233 6.051-1.482 8.968-4.368 3.402-3.364 7.018-5.303 13.222-2.32 5.064 2.436 8.158 5.334 12.024 5.334s5.651-2.989 3.09-6.764c-3.472-5.12-5.389-10.238-2.971-21.898.139-.668 1.284-1.788 2.686-1.253 4.504 1.719 14.939 6.042 22.902 11.94 9.434 6.988 19.813 16.662 26.149 26.449.674 1.04 2.202 3.905 2.787 4.892.985 1.663 2.71 3.911 4.891 4.033 3.479.193 4.833-.58 6.185-8.892 1.266-7.768 1.518-14.862-.821-21.595-.164-.47-.254-1.528.247-1.798 1.509-.815 5.054-3 9.322-7.439a21 21 0 0 0 5.913-15.005c-.023-.96-.59-1.409-1.418-1.229-3.328.723-12.342 2.52-18.848 2.317-6.958-.218-10.001-2.392-11.089-3.466-.362-.358-.212-.823.284-1.247 1.221-1.044 3.653-3.269 5.878-6.16 3.971-5.164 5.524-8.877 5.101-14.341-.04-.519-.439-1.575-.928-1.525-3.418.347-17.656 1.568-26.79-1.096-10.438-3.045-20.458-8.023-29.14-19.427-7.588-9.967-13.937-12.236-16.353-12.751-.676-.145-1.376-.699-1.968-1.513-1.021-1.404-2.817-3.603-5.019-5.162-3.482-2.466-5.366-4.35-10.44-12.324" style="fill:#231f20" transform="translate(-125 -147.305)"></path><path d="M573.294 434.137c-4.639 0-6.814-.145-8.119.58s-1.014 2.755 1.304 4.495c2.32 1.739 4.205 4.494 2.32 5.219-1.884.725-3.189 1.305-3.045 2.899.092.99 1.02 2.093 1.711 2.787.422.422.611.956.188 1.453-.618.727-1.834 1.954-4.072 3.589-3.771 2.755-5.945 4.204-3.625 6.814 2.318 2.61 5.073 5.509 6.959 2.9 1.651-2.288 3.415-3.128 5.779-3.495.333-.051 1.034-.529 1.053-1.253.018-.725.054-1.776.126-3.081.146-2.609-1.884-5.219-.434-5.219s5.944.29 7.249-.29c1.303-.58 2.608-2.029 2.608-5.364 0-2.462-1.421-4.292-2.166-5.081-.264-.279-.316-.51-.134-.655.542-.435 1.576-1.441 1.14-2.528-.579-1.451-2.173-3.77-8.842-3.77M591.916 488.645c10.786 4.814 28.187 12.72 41.688 25.084 10.36 9.485 14.307 18.306 15.35 21.032.215.557.692.581.868.416 2.373-2.226 2.578-7.565 1.902-13.91-.569-5.35-2.032-10.431-2.635-12.368-.163-.53.283-1.014.55-1.11 12.678-4.581 14.641-12.033 14.937-14.528.065-.536-.423-.643-.672-.549-6.076 2.311-16.422 2.24-20.878.429-5.765-2.342-8.509-6.387-9.521-8.266-.338-.626-.189-1.206.304-1.57 2.366-1.746 9.341-7.407 10.773-14.39.077-.378-.132-1.117-.709-1.083-4.036.24-20.91.827-32.453-5.135-13.005-6.718-18.105-14.87-19.463-17.446-.277-.528-.523-.418-.812.206-.594 1.284-1.885 3.501-4.226 5.062-2.533 1.689-5.141 2.378-6.374 2.628-.462.095-.804.707-.693 1.595a8.6 8.6 0 0 0 1.123 3.316c1.449 2.464 5.655 5.944 12.903 6.089 6.49.13 7.867-.089 9.958 2.363.243.286.461 1.307-.256 1.673-.982.502-2.732 1.061-5.497.893-4.116-.249-10.486-1.786-14.494-3.78-.65-.324-2.259-.923-3.029-1.004-2.773-.29-4.61-.29-6.398 0-2.432.394-3.109 2.618-1.16 5.074 3.915 4.93 12.758 8.263 24.357 8.118 12.887-.16 19.684-.822 26.145-5.577.224-.166.784-.241.9.328.391 1.919.854 7.226-2.604 16.934-.074.211-.452.623-.899.594-2.192-.137-9.816-.578-23.542-.97a143 143 0 0 1-5.709-.278z" style="fill:#fff" transform="translate(-125 -147.305)"></path><path d="M534.44 396.734c0 1.321-.99 2.392-2.212 2.392-1.22 0-2.209-1.071-2.209-2.392s.989-2.393 2.209-2.393c1.223 0 2.212 1.071 2.212 2.393m53.354 91.459c-9.698-.954-21.399-3.23-29.143-8.534-13.165-9.017-20.365-18.13-19.613-40.557.012-.347.368-1.123 1.818-1.16a18 18 0 0 1 1.268.008c.652.028.559.789.55 1.152-.37 15.388 1.519 22.793 11.339 31.858 10.05 9.279 23.969 11.598 32.958 13.435 7.864 1.608 26.384 1.29 30.894 1.186.643-.015 1.103-.485 1.147-.712a15.3 15.3 0 0 0-.093-6.083c-.085-.371-.803-.474-1.123-.424-24.794 3.82-38.15.426-51.412-7.111-9.543-5.425-11.824-13.127-12.358-16.058-.136-.756.086-1.225.573-1.426.578-.237 1.492-.712 2.747-1.653 2.32-1.74 2.61-2.609 2.464-4.059s-2.319-3.334-3.769-4.205c-1.45-.87-2.9-.58-2.32-1.449.435-.652 1.931-1.142 2.65-1.346.24-.068.33-.34.259-.757-.219-1.25-.517-4.132.571-7.176 1.449-4.059 6.233-3.334 10.583-3.334s2.464-1.884-.726-3.479c-3.188-1.595-6.087-4.349-10.147-10.583s-11.729-17.513-16.528-22.761c-4.638-5.074-11.017-4.349-14.642-2.465-1.519.791-1.873 2.307-1.926 3.324-.032.599.278 1.177.647 1.465 1.286 1.009 4.179 3.702 4.179 7.534 0 3.773-3.624 6.379-3.624 6.379s.289 7.394-1.161 17.397-2.048 30.026 6.669 40.592c9.569 11.598 17.302 10.222 26.821 22.617 2.079 2.706 4.978 7.539 5.075 15.464.095 7.925-1.45 12.854-2.321 14.882-.87 2.031-.87 3.384.677 2.127 1.545-1.256 3.479-4.059 6.571-6.282 3.094-2.222 11.115-1.159 14.306.774 3.188 1.933 4.059 2.803 5.025 2.706s.483-2.61-.868-5.316c-1.354-2.706-1.74-7.442-1.644-14.401.085-6.089 3.055-10.551 3.798-11.571z" style="fill:#fff" transform="translate(-125 -147.305)"></path><path d="M521.853 397.153c-.213-.326-.515-.335-.787-.038-.814.893-2.965 3.327-3.974 4.74-1.45 2.03-.393 3.19 1.691 4.157 1.21.56 2.235.828 2.884.954.469.092.893-.085 1.1-.438a8.05 8.05 0 0 0 1.091-3.996c-.001-2.045-1.348-4.367-2.005-5.379" style="display:inline;fill:#fff" transform="translate(-125 -147.305)"></path><path d="M550.216 698.699c.526-2.64.442-6.122.032-9.974-.569-5.349-2.033-10.431-2.635-12.369-.163-.529.283-1.012.55-1.108 12.678-4.581 14.641-12.032 14.938-14.528.062-.536-.427-.644-.673-.549-6.077 2.31-16.422 2.24-20.878.429-5.766-2.342-8.509-6.388-9.521-8.266-.339-.626-.189-1.207.304-1.57 2.364-1.746 9.34-7.408 10.773-14.389.078-.38-.132-1.119-.71-1.085-4.036.24-20.909.827-32.452-5.135-13.006-6.717-18.105-14.869-19.465-17.445-.276-.528-.523-.418-.812.205-.592 1.284-1.884 3.502-4.226 5.062-2.532 1.689-5.141 2.377-6.374 2.628-.461.096-.802.706-.693 1.596a8.6 8.6 0 0 0 1.123 3.315c1.451 2.464 5.655 5.944 12.903 6.089 6.49.129 7.867-.088 9.958 2.363.244.286.462 1.306-.256 1.672-.982.503-2.732 1.061-5.497.893-4.115-.249-10.487-1.786-14.493-3.78-.651-.323-2.259-.924-3.031-1.004-2.773-.29-4.609-.29-6.397 0-2.434.394-3.111 2.618-1.16 5.074 3.914 4.93 12.758 8.263 24.355 8.119 12.889-.161 19.685-.823 26.146-5.577.225-.166.784-.241.9.328.391 1.919.854 7.227-2.604 16.933-.074.212-.452.624-.899.595-2.192-.136-9.817-.577-23.543-.971a138 138 0 0 1-5.707-.278l.263.132c10.786 4.813 28.187 12.719 41.689 25.083 7.33 6.711 11.449 13.091 13.602 17.212l.068.102a992 992 0 0 0-6.921-.346l-.056-.073c-6.374-8.625-15.484-16.933-23.848-23.13-7.963-5.897-18.398-10.22-22.903-11.939-1.4-.536-2.548.585-2.685 1.254-2.418 11.659-.502 16.777 2.971 21.898 2.561 3.773.773 6.765-3.093 6.765s-6.959-2.9-12.021-5.336c-6.204-2.984-9.822-1.045-13.222 2.32-2.918 2.886-6.65 4.602-8.97 4.368-2.32-.232-1.702-5.296-.076-9.702 1.624-4.409 3.478-14.151-2.582-22.821-8.092-11.575-21.166-12.033-31.605-26.24-10.438-14.208-6.234-33.489-3.625-42.767 1.648-5.856 1.736-10.035 1.576-12.323-.093-1.338-1.019-2.503-1.461-2.733-2.43-1.269-6.585-2.769-8.508-3.437-.638-.223-.853-.595-.543-1.013 1.536-2.081 6.358-8.551 9.293-11.822.233-.258.68-.979.767-1.428.258-1.345 1.087-4.322 3.588-6.604 2.822-2.576 12.08-4.932 18.557.506 5.871 4.93 12.698 14.684 18.483 23.776 5.075 7.973 6.96 9.858 10.438 12.322 2.202 1.559 3.997 3.758 5.019 5.162.593.815 1.294 1.369 1.969 1.514 2.415.515 8.764 2.785 16.352 12.751 8.683 11.403 18.703 16.382 29.141 19.427 9.133 2.663 23.373 1.443 26.79 1.096.489-.049.888 1.005.928 1.524.423 5.465-1.13 9.178-5.102 14.342-2.223 2.891-4.656 5.115-5.877 6.16-.496.424-.646.89-.284 1.247 1.087 1.074 4.132 3.248 11.09 3.466 6.504.202 15.518-1.595 18.847-2.317.828-.18 1.395.269 1.418 1.229a21 21 0 0 1-5.913 15.005c-4.268 4.439-7.814 6.623-9.323 7.437-.501.273-.41 1.33-.246 1.8 2.089 6.013 2.111 12.313 1.19 19.125l-.021.103a960 960 0 0 0-5.112-.317" style="fill:#231f20" transform="translate(-125 -147.305)"></path><path d="M471.816 601.595c-4.64 0-6.814-.146-8.119.581-1.305.724-1.015 2.753 1.304 4.494 2.32 1.739 4.205 4.494 2.32 5.22-1.885.724-3.189 1.304-3.045 2.899.09.991 1.02 2.093 1.71 2.786.422.422.611.956.189 1.455-.619.725-1.836 1.953-4.073 3.586-3.77 2.756-5.944 4.204-3.625 6.814s5.074 5.51 6.959 2.899c1.653-2.287 3.416-3.127 5.78-3.494.331-.052 1.034-.529 1.052-1.254a100 100 0 0 1 .127-3.08c.146-2.61-1.885-5.22-.435-5.22s5.944.29 7.248-.29c1.304-.579 2.61-2.029 2.61-5.363 0-2.462-1.422-4.293-2.167-5.08-.263-.281-.315-.51-.134-.657.543-.434 1.576-1.439 1.142-2.526-.579-1.45-2.174-3.77-8.843-3.77" style="fill:#fff" transform="translate(-125 -147.305)"></path><path d="M432.962 564.191c0 1.323-.989 2.393-2.211 2.393s-2.211-1.069-2.211-2.393c0-1.321.99-2.391 2.211-2.391 1.222 0 2.211 1.071 2.211 2.391m53.354 91.46c-9.699-.953-21.399-3.23-29.143-8.534-13.166-9.017-20.366-18.131-19.613-40.557.012-.347.367-1.123 1.817-1.161.556-.013.972-.003 1.269.008.652.029.558.79.549 1.153-.369 15.387 1.519 22.792 11.339 31.858 10.051 9.277 23.97 11.597 32.958 13.434 7.865 1.608 26.385 1.29 30.895 1.185.642-.014 1.103-.483 1.147-.71a15.4 15.4 0 0 0-.093-6.084c-.085-.37-.803-.474-1.125-.424-24.793 3.82-38.149.425-51.411-7.112-9.543-5.424-11.824-13.127-12.357-16.058-.137-.756.086-1.226.573-1.425.577-.237 1.492-.712 2.747-1.653 2.318-1.74 2.609-2.61 2.464-4.059-.146-1.451-2.32-3.335-3.77-4.205-1.449-.871-2.899-.579-2.32-1.45.435-.652 1.931-1.141 2.651-1.345.24-.068.33-.341.259-.756-.219-1.251-.517-4.132.57-7.177 1.45-4.059 6.234-3.335 10.584-3.335s2.464-1.884-.725-3.478-6.089-4.349-10.148-10.584c-4.06-6.233-11.73-17.513-16.528-22.761-4.639-5.074-11.018-4.349-14.643-2.464-1.519.791-1.872 2.307-1.926 3.324-.032.598.278 1.175.649 1.465 1.287 1.008 4.178 3.703 4.178 7.534 0 3.771-3.624 6.379-3.624 6.379s.29 7.394-1.16 17.396c-1.45 10.004-2.049 30.026 6.669 40.594 9.569 11.597 17.301 10.22 26.821 22.616 2.078 2.707 4.978 7.537 5.074 15.464.096 7.925-1.45 12.855-2.32 14.884s-.87 3.383.676 2.126c1.546-1.256 3.48-4.059 6.574-6.282s11.114-1.16 14.303.772c3.189 1.935 4.059 2.804 5.026 2.707s.483-2.61-.87-5.316-1.74-7.441-1.643-14.4c.083-6.089 3.055-10.551 3.796-11.571z" style="fill:#fff" transform="translate(-125 -147.305)"></path><path d="M420.376 564.611c-.212-.326-.516-.335-.787-.038-.815.892-2.965 3.328-3.974 4.74-1.45 2.029-.394 3.19 1.691 4.156 1.209.56 2.235.828 2.884.954.469.092.893-.086 1.1-.437.429-.736 1.09-2.167 1.09-3.997-.001-2.043-1.347-4.365-2.004-5.378M659.315 768.884a3.77 3.77 0 1 1-7.54.001 3.77 3.77 0 0 1 7.54-.001M723.393 787.586a3.768 3.768 0 1 1-7.538 0 3.77 3.77 0 0 1 7.538 0" style="fill:#fff" transform="translate(-125 -147.305)"></path><path d="m527.098 200.356 16.746 51.581-43.859-31.863-43.864 31.863 16.742-51.581-43.861-31.865h54.215l16.768-51.582 16.767 51.582h54.214z" style="fill:#f9b233" transform="matrix(.49374 0 0 .49374 128.14 -42.27)"></path><path d="M490.135 612.371c-.149.004-.297.192-.46.543-.593 1.284-1.885 3.502-4.226 5.063-2.533 1.689-5.14 2.377-6.373 2.627-.462.095-.804.707-.693 1.595a8.6 8.6 0 0 0 1.123 3.317c1.449 2.464 5.654 5.943 12.902 6.088 6.49.13 7.868-.09 9.96 2.363.242.286.46 1.308-.257 1.674-.982.502-2.733 1.06-5.498.892-4.116-.249-10.486-1.785-14.494-3.78-.65-.323-2.26-.924-3.03-1.005-2.772-.29-4.608-.29-6.396 0-2.432.394-3.109 2.618-1.16 5.074 3.915 4.93 12.757 8.264 24.356 8.12 12.887-.16 19.685-.824 26.146-5.579.224-.166.785-.24.9.328.392 1.92.853 7.226-2.605 16.934-.074.211-.451.625-.898.596-2.192-.137-9.817-.579-23.543-.971a143 143 0 0 1-5.71-.277l.268.129c10.786 4.814 28.187 12.72 41.688 25.084 9.382 8.589 13.505 16.634 14.974 20.101l.239.012c.341.011.682.044 1.023.064q.456.014.908.065c1.488-2.646 1.55-7.311.975-12.703-.57-5.35-2.032-10.433-2.635-12.37-.163-.53.284-1.013.55-1.109 12.679-4.58 14.642-12.032 14.938-14.527.065-.536-.422-.643-.671-.55-6.076 2.312-16.423 2.24-20.88.429-5.764-2.342-8.509-6.387-9.52-8.266-.339-.626-.19-1.206.304-1.57 2.366-1.746 9.341-7.408 10.773-14.39.077-.379-.132-1.117-.709-1.083-4.036.24-20.91.827-32.453-5.135-13.005-6.718-18.105-14.871-19.463-17.447-.12-.231-.238-.339-.353-.336" style="fill:#fff" transform="translate(-125 -147.305)" data-source="https://football-logos.cc"></path><!-- source: https://football-logos.cc --></svg>