<svg xmlns="http://www.w3.org/2000/svg" viewBox="44.44 44.44 4150 4150"><!-- Source: https://football-logos.cc --><path d="M364.676 180.731a183.141 182.338 0 1 1-366.283 0 183.141 182.338 0 1 1 366.283 0z" style="fill:#fff;fill-opacity:1;stroke:#fff;stroke-width:1;stroke-opacity:1" transform="matrix(11.10953 0 0 11.10953 102.675 110.675)" data-source="https://football-logos.cc"></path><path d="m2463 1171 149 277c123-106 224-277 225-450-1-251-252-487-558-514-38-4-116-8-173-8-298 0-596 89-847 240l3 1514 304-299v-458h640l508 496h433l-535-521-150-277h-898l1-275c166-71 356-112 541-112 51 0 126 3 158 10 157 27 275 105 274 209 3 46-35 121-75 168zM1480 3254c184 101 410 158 626 158 323 0 636-118 877-335l225 212c-298 272-697 430-1102 430-406 0-798-158-1097-431l1098-1062 482 461-215 213-267-251-204 201h281v299h-598z" style="fill:#e60003;stroke:#e60003;stroke-width:2" transform="translate(13.438 21.438)"></path><path d="M325 2098c0-981 800-1782 1781-1782s1781 801 1781 1782-800 1781-1781 1781S324 3079 325 2098H32c0 1142 931 2074 2074 2074 1142 0 2074-932 2074-2074C4180 955 3248 24 2106 24 963 24 32 955 32 2098z" style="fill:#e60003;stroke:#e60003;stroke-width:2" transform="translate(13.438 21.438)" data-source="https://football-logos.cc"></path><path d="m909 3188 1200-1153 1195 1158c265-291 423-696 423-1095 0-425-177-849-477-1146l-216 219c247 244 386 583 386 927 0 215-57 446-159 631L2106 1615 955 2729c-102-190-163-411-163-631 0-344 143-688 386-930L959 951c-298 298-475 722-475 1147 0 399 158 798 425 1090z" style="fill:#e60003;stroke:#e60003;stroke-width:2" transform="translate(13.438 21.438)" data-source="https://football-logos.cc"></path><!-- source: https://football-logos.cc --></svg>