<?xml version="1.0" encoding="UTF-8"?>
<svg version="1.1" xmlns="http://www.w3.org/2000/svg" width="1228" height="2000">
<path d="M0 0 C37.53963213 -0.00549791 75.0792643 -0.01076988 112.61889648 -0.01586914 C113.35344082 -0.01596894 114.08798515 -0.01606874 114.8447884 -0.01617156 C193.52747128 -0.02685551 272.21015416 -0.0360795 350.89283752 -0.04234314 C352.63991824 -0.04248259 354.38699895 -0.04262204 356.13407967 -0.04276149 C392.80302397 -0.04568397 429.47196828 -0.04840071 466.14091261 -0.05087968 C484.56000727 -0.05212511 502.97910193 -0.05341008 521.39819659 -0.05473244 C524.17670642 -0.05493169 526.95521625 -0.05512981 529.73372607 -0.05532788 C572.53606662 -0.05838909 615.33840688 -0.06230021 658.14074707 -0.06866455 C659.06154732 -0.06880145 659.98234756 -0.06893835 660.93105085 -0.0690794 C675.77776808 -0.07129186 690.62448531 -0.07357543 705.47120253 -0.07586844 C748.21665448 -0.08246919 790.96210622 -0.08854709 833.70755863 -0.09113979 C834.58595569 -0.09119333 835.46435274 -0.09124686 836.36936789 -0.09130202 C855.6489256 -0.09246759 874.92848332 -0.09336253 894.20804106 -0.09400098 C901.96462749 -0.09426262 909.72121393 -0.09456324 917.47780037 -0.09487724 C918.32674288 -0.09491067 919.17568538 -0.0949441 920.05035342 -0.09497854 C947.43644878 -0.09607628 974.82254253 -0.10035175 1002.20863723 -0.10628221 C1029.77922141 -0.11223815 1057.34980401 -0.11510168 1084.92038885 -0.11362399 C1088.72436629 -0.11342089 1092.52834373 -0.11325351 1096.33232117 -0.11310768 C1097.07805444 -0.1130778 1097.82378772 -0.11304792 1098.59211897 -0.11301713 C1110.43336007 -0.11263545 1122.27459786 -0.11562992 1134.11583805 -0.12000986 C1145.7398126 -0.12424083 1157.36378131 -0.12486664 1168.98775654 -0.12183181 C1175.21402401 -0.1203113 1181.44028033 -0.1204303 1187.66654664 -0.12488318 C1193.31731011 -0.1288941 1198.9680536 -0.12840498 1204.61881673 -0.12413998 C1206.66325244 -0.12341869 1208.70768956 -0.12441701 1210.75212346 -0.12723524 C1213.50418799 -0.13079195 1216.25617952 -0.12832038 1219.00824159 -0.1241985 C1219.81463649 -0.12670737 1220.62103139 -0.12921625 1221.4518625 -0.13180115 C1226.88584499 -0.11415501 1226.88584499 -0.11415501 1228 1 C1228.10041848 3.52911045 1228.13480221 6.03098479 1228.1276505 8.56067652 C1228.13012667 9.77066788 1228.13012667 9.77066788 1228.13265286 11.00510351 C1228.13701805 13.74867613 1228.13416407 16.49219612 1228.13142776 19.23577023 C1228.13307551 21.21490164 1228.1351609 23.19403273 1228.13764787 25.17316326 C1228.14324884 30.66375989 1228.14253587 36.15434101 1228.14087028 41.64493959 C1228.14014283 47.59884186 1228.14515351 53.55273963 1228.1494453 59.50664002 C1228.15616153 69.95928093 1228.1591239 80.41191843 1228.15958023 90.86456108 C1228.16008193 102.08594419 1228.16272182 113.30732368 1228.16798782 124.5287056 C1228.16831796 125.23628684 1228.16864809 125.94386808 1228.16898823 126.67289118 C1228.17033817 129.55458219 1228.17170083 132.4362732 1228.17308033 135.31796421 C1228.18940294 169.47557363 1228.19577194 203.63318237 1228.2005282 237.79079504 C1228.20290992 254.79896207 1228.20661315 271.8071287 1228.2105653 288.81529543 C1228.22323295 343.36080024 1228.23401546 397.90630502 1228.23740576 452.45181128 C1228.237568 455.06018956 1228.23773356 457.66856785 1228.23790014 460.27694614 C1228.23823395 465.50819892 1228.23856443 470.73945171 1228.2388947 475.9707045 C1228.2392816 482.09539124 1228.23967121 488.22007799 1228.24006577 494.34476474 C1228.24017818 496.09770922 1228.2402896 497.85065371 1228.24040002 499.60359819 C1228.24394811 555.88074477 1228.25901914 612.15787857 1228.28233776 668.43502027 C1228.29908163 708.86105076 1228.31455562 749.28707883 1228.31907272 789.71311283 C1228.31921295 790.96051296 1228.31921295 790.96051296 1228.31935601 792.23311309 C1228.32137521 810.49019028 1228.32253113 828.74726743 1228.3228846 847.00434472 C1228.32302077 853.53754722 1228.32322977 860.07074971 1228.32347785 866.60395221 C1228.32353941 868.22926645 1228.32359773 869.85458069 1228.3236528 871.47989493 C1228.32457233 897.37047538 1228.33453728 923.26104249 1228.34911029 949.15161855 C1228.36373519 975.2389196 1228.36876271 1001.32620429 1228.36069075 1027.41350871 C1228.35957542 1031.0214979 1228.35856474 1034.62948711 1228.35761642 1038.23747635 C1228.35742646 1038.94472157 1228.35723649 1039.6519668 1228.35704076 1040.38064369 C1228.35431096 1051.56290295 1228.36163673 1062.7451319 1228.37318979 1073.92738458 C1228.38435003 1084.93309643 1228.38449258 1095.93877384 1228.37381961 1106.94448865 C1228.36842269 1112.8278037 1228.36773337 1118.71101372 1228.38032833 1124.59432011 C1228.39170602 1129.95381224 1228.38910036 1135.31311435 1228.37566125 1140.67260004 C1228.37323923 1142.59250878 1228.37576859 1144.51243236 1228.38405773 1146.43232473 C1228.44587787 1161.7673418 1227.23508259 1176.85613406 1222.3125 1191.5 C1222.05686279 1192.27786865 1221.80122559 1193.0557373 1221.5378418 1193.85717773 C1214.00007115 1216.1289871 1202.41718759 1235.31180604 1187 1253 C1186.49903809 1253.57540527 1185.99807617 1254.15081055 1185.48193359 1254.74365234 C1180.03060357 1260.9517595 1174.38065737 1266.74465857 1168 1272 C1167.08476563 1272.77988281 1166.16953125 1273.55976562 1165.2265625 1274.36328125 C1155.29084843 1282.77926527 1145.00910813 1290.24240786 1133.81274414 1296.91064453 C1132.48714532 1297.70725355 1131.16969344 1298.51746347 1129.85717773 1299.33544922 C1122.85777105 1303.64990774 1115.59517226 1307.31803762 1108.1875 1310.875 C1107.55271729 1311.18058838 1106.91793457 1311.48617676 1106.26391602 1311.80102539 C1089.06214508 1320.05399777 1071.71486026 1326.44779162 1053.27563477 1331.34912109 C1051.55024386 1331.8426188 1049.84220376 1332.397284 1048.14477539 1332.97973633 C998.46850345 1349.09627545 941.36815575 1349.86474179 889.81903076 1350.53485107 C877.33196042 1350.70913482 865.03092736 1351.4223689 852.625 1352.875 C851.56792847 1352.99717896 851.56792847 1352.99717896 850.48950195 1353.12182617 C837.36780953 1354.67388779 824.59787653 1357.51023649 811.79882812 1360.72460938 C808.12604531 1361.61612835 804.78375794 1362.21389665 801 1362 C800.67 1362.66 800.34 1363.32 800 1364 C797.70361328 1364.7043457 797.70361328 1364.7043457 794.6953125 1365.36328125 C788.24359187 1366.88610092 782.09707163 1368.91426778 775.875 1371.1875 C774.24485962 1371.78123413 774.24485962 1371.78123413 772.58178711 1372.38696289 C757.29627257 1378.02819318 743.07940408 1384.80052877 728.94921875 1392.89404297 C726.34487327 1394.37170893 723.70519043 1395.77981689 721.0625 1397.1875 C707.01080696 1404.85400122 694.04542807 1414.37114195 681.61791992 1424.42089844 C678.86379645 1426.63004065 676.25623991 1428.60219945 673 1430 C673 1430.66 673 1431.32 673 1432 C671.49609375 1433.48046875 671.49609375 1433.48046875 669.4375 1435.1875 C662.23452204 1441.34162328 656.19410136 1447.99663843 650.28173828 1455.40185547 C648.93612183 1457.07964695 647.5765136 1458.74537335 646.21484375 1460.41015625 C638.9417018 1469.3449342 632.14523484 1478.57264878 625.46142578 1487.95410156 C623.3876096 1490.85730564 621.28885144 1493.74166416 619.1875 1496.625 C618.56230469 1497.48351563 617.93710937 1498.34203125 617.29296875 1499.2265625 C616.86628906 1499.81179688 616.43960938 1500.39703125 616 1501 C612.16771055 1500.82079222 611.08474234 1500.09116221 608.421875 1497.2265625 C607.51842344 1496.03566433 606.62845444 1494.83445482 605.75 1493.625 C604.77697817 1492.33653182 603.80300866 1491.0487788 602.828125 1489.76171875 C602.34923828 1489.12153809 601.87035156 1488.48135742 601.37695312 1487.82177734 C595.91567222 1480.59623158 589.95630501 1473.74044181 584.09033203 1466.84228516 C581.14019403 1463.3675864 578.24331771 1459.85542205 575.375 1456.3125 C571.75688048 1451.86738173 567.99566444 1447.58536597 564.12890625 1443.35546875 C562.13719617 1441.15179686 560.22414365 1438.89796531 558.3125 1436.625 C555.52696061 1433.41487493 552.60731934 1431.27417958 549 1429 C547.33333333 1427.33333333 545.66666667 1425.66666667 544 1424 C525.88686338 1408.37881442 505.52932602 1395.33197862 484 1385 C482.10355266 1384.02202306 480.20771048 1383.04287167 478.3125 1382.0625 C424.10271624 1355.20693039 361.80927983 1349.1819393 302.1875 1346 C262.41174443 1343.87048759 221.90028047 1341.02263955 183 1332 C182.33307129 1331.84708496 181.66614258 1331.69416992 180.97900391 1331.53662109 C177.01270466 1330.61533451 173.07077706 1329.62034962 169.13720703 1328.56835938 C167.6453445 1328.17162006 166.15132913 1327.78292693 164.65576172 1327.40039062 C144.1640419 1322.13883902 124.59155784 1314.0871489 106 1304 C104.88165771 1303.39551025 104.88165771 1303.39551025 103.74072266 1302.77880859 C92.72612645 1296.76364915 82.52920441 1290.1039014 72.68066406 1282.32666016 C71.21143112 1281.16689667 69.72794387 1280.02523744 68.2421875 1278.88671875 C51.83314142 1266.14464599 37.48790842 1251.31115794 26 1234 C25.30132813 1232.95199219 24.60265625 1231.90398437 23.8828125 1230.82421875 C16.36642599 1219.08169274 10.70712169 1206.6673827 6.1875 1193.5 C5.90962646 1192.70722656 5.63175293 1191.91445312 5.34545898 1191.09765625 C0.43016585 1176.14391991 -0.43866284 1161.30119751 -0.36914349 1145.69833279 C-0.3713671 1143.68998848 -0.37490783 1141.68164528 -0.37963298 1139.6733053 C-0.38878448 1134.17626303 -0.37936138 1128.67938887 -0.36679858 1123.1823592 C-0.35645084 1117.19398073 -0.36361694 1111.20561844 -0.36853105 1105.21723658 C-0.37474021 1094.72939862 -0.36994025 1084.24160552 -0.35761642 1073.75377655 C-0.34445905 1062.50687427 -0.33790133 1051.25999653 -0.33932304 1040.01308632 C-0.33940912 1039.30140753 -0.3394952 1038.58972875 -0.33958388 1037.85648394 C-0.34005304 1034.22731351 -0.34062888 1030.59814311 -0.34124239 1026.96897271 C-0.34545947 1000.73401997 -0.33519119 974.49908904 -0.31719017 948.26414299 C-0.29941102 922.29038319 -0.28786255 896.31663274 -0.28463173 870.3428669 C-0.28452849 869.53563906 -0.28442526 868.72841123 -0.28431889 867.89672195 C-0.28337927 860.52372738 -0.2825162 853.15073281 -0.28174497 845.77773822 C-0.27982701 827.45090097 -0.27694918 809.12406392 -0.27341938 790.79722691 C-0.27325943 789.9627469 -0.27309948 789.12826689 -0.27293468 788.2684996 C-0.26507382 747.69519088 -0.24615266 707.12188832 -0.22631836 666.54858398 C-0.21944326 652.47218836 -0.21261711 638.39579272 -0.20599365 624.31939697 C-0.2055828 623.44635425 -0.20517196 622.57331152 -0.20474866 621.67381295 C-0.18570948 581.07329317 -0.17453741 540.47277232 -0.16538927 499.87224924 C-0.16479508 497.23579464 -0.1641975 494.59934005 -0.16359923 491.96288546 C-0.15963982 474.49067471 -0.15581588 457.01846393 -0.15208265 439.54625313 C-0.14465353 404.78214951 -0.1364285 370.01804609 -0.12765651 335.25394278 C-0.12723879 333.59845908 -0.12682163 331.94297538 -0.12640502 330.28749168 C-0.1076505 255.78011836 -0.07963814 181.27274956 -0.04760742 106.76538086 C-0.04715771 105.7190957 -0.04715771 105.7190957 -0.04669892 104.65167346 C-0.03169814 69.76778205 -0.01616871 34.88389089 0 0 Z " fill="#D90000" transform="translate(0,499)"/>
<path d="M0 0 C365.97 0 731.94 0 1109 0 C1109 86.46 1109 172.92 1109 262 C743.03 262 377.06 262 0 262 C0 175.54 0 89.08 0 0 Z " fill="#FEFDFD" transform="translate(58,558)"/>
<path d="M0 0 C55.11 0 110.22 0 167 0 C167.12967862 45.37027638 167.12967862 45.37027638 167.17773438 62.9694519 C167.18072631 64.06498652 167.18371824 65.16052114 167.18680084 66.28925377 C167.38458112 138.81653427 167.5633547 211.34378523 167.67749023 283.87124634 C167.67972144 285.28528527 167.68195267 286.69932421 167.68418391 288.11336314 C167.73094658 317.79421987 167.77441406 347.47508069 167.81407485 377.15594774 C167.83400121 392.06556462 167.85456078 406.97518058 167.87571906 421.88479576 C167.87890704 424.13385908 167.88207694 426.38292242 167.88524608 428.63198577 C167.93420755 463.26562927 167.99675162 497.89918283 168.09863281 532.53271484 C168.10082319 533.27740252 168.10301357 534.02209019 168.10527033 534.78934415 C168.1406684 546.79596369 168.1772061 558.80257977 168.21389505 570.80919542 C168.31954943 605.39073437 168.41678085 639.97220413 168.45823669 674.55388832 C168.45909326 675.26499102 168.45994982 675.97609372 168.46083233 676.70874498 C168.4794843 692.31895882 168.49380208 707.92917351 168.50401573 723.53939505 C168.50820169 729.820368 168.51301161 736.10134045 168.51803589 742.38231277 C168.51857072 743.06973896 168.51910556 743.75716514 168.5196566 744.46542242 C168.53720125 766.61667449 168.60554261 788.76741272 168.70051534 810.9184574 C168.79860253 833.85163047 168.84023742 856.78433241 168.81602204 879.7177587 C168.80382893 892.94489592 168.83650085 906.17017175 168.93276069 919.3969737 C168.99264271 928.2264671 168.99470453 937.05473803 168.94930902 945.88431497 C168.92508671 950.92020056 168.92642203 955.95256101 168.99813092 960.9880722 C169.06288862 965.57018345 169.05396393 970.14602262 168.98623961 974.72803705 C168.97481057 976.37480783 168.99023324 978.02203922 169.03576392 979.66822013 C169.1707004 984.87713506 169.00182943 989.14020629 167 994 C163.00696276 998.09143164 157.95434068 1000.61398962 152.85584807 1003.07253554 C150.49174442 1004.25400193 148.35865689 1005.67958327 146.2109375 1007.21484375 C145.56721191 1007.66754639 144.92348633 1008.12024902 144.26025391 1008.58666992 C143.63812012 1009.03244385 143.01598633 1009.47821777 142.375 1009.9375 C141.67681152 1010.43419189 140.97862305 1010.93088379 140.25927734 1011.44262695 C133.8787325 1016.01827318 127.68034471 1020.80864497 121.56835938 1025.73583984 C120.08677157 1026.93005866 118.59827785 1028.11569506 117.109375 1029.30078125 C98.78302328 1043.58294688 98.78302328 1043.58294688 85 1062 C81.44518829 1061.43709055 80.06404532 1060.32550747 77.8125 1057.5625 C77.20148438 1056.83675781 76.59046875 1056.11101562 75.9609375 1055.36328125 C75.31382812 1054.58339844 74.66671875 1053.80351563 74 1053 C55.11765784 1030.54430623 28.77273927 1012.57206137 4.1484375 997.01171875 C1 995 1 995 0 994 C-0.09848184 991.83592553 -0.12447095 989.66855854 -0.1241985 987.50224441 C-0.12547658 986.81070557 -0.12675467 986.11916672 -0.12807148 985.40667216 C-0.13116961 983.05552089 -0.12704988 980.70443496 -0.12304783 978.35328579 C-0.12378654 976.65692465 -0.12496413 974.96056366 -0.12654433 973.2642031 C-0.12963446 968.55884839 -0.12642086 963.85351504 -0.12226619 959.14816191 C-0.11884985 954.04574653 -0.12119936 948.94333345 -0.12284368 943.84091765 C-0.12492368 934.88382097 -0.12326302 925.92673092 -0.11920547 916.96963501 C-0.11318867 903.65060583 -0.11286797 890.33158086 -0.11374746 877.01255058 C-0.11506369 854.61153995 -0.11171839 832.21053222 -0.10573006 809.80952263 C-0.09981198 787.6184176 -0.09595585 765.42731378 -0.09487724 743.23620796 C-0.09484283 742.54759232 -0.09480842 741.85897669 -0.09477296 741.14949391 C-0.09445977 734.86025221 -0.09417208 728.5710105 -0.09391499 722.2817688 C-0.09327551 706.64589467 -0.09231614 691.01002056 -0.09113979 675.37414646 C-0.09108648 674.66204361 -0.09103316 673.94994077 -0.09097823 673.21625905 C-0.08835533 638.55815336 -0.0820472 603.90004847 -0.07543945 569.24194336 C-0.07314784 557.21152751 -0.07087249 545.18111166 -0.06866455 533.1506958 C-0.0685276 532.40459035 -0.06839065 531.6584849 -0.06824955 530.88977019 C-0.06190803 496.219343 -0.05818071 461.54891567 -0.05512976 426.87848804 C-0.05493169 424.6282609 -0.0547325 422.37803375 -0.05453308 420.12780661 C-0.05321332 405.21570671 -0.05193867 390.3036068 -0.05069422 375.39150689 C-0.04821757 345.71893764 -0.04547589 316.04636841 -0.04255217 286.37379919 C-0.04241293 284.96064448 -0.04227388 283.54748976 -0.04213501 282.13433505 C-0.03495751 209.11269869 -0.02355328 136.09106314 -0.0111084 63.06942749 C-0.01093499 62.05179054 -0.01076159 61.03415359 -0.01058293 59.98567916 C-0.00716816 39.99045275 -0.0035662 19.99522638 0 0 Z " fill="#FEFEFE" transform="translate(529,848)"/>
<path d="M0 0 C55.44 0 110.88 0 168 0 C168 312.18 168 624.36 168 946 C158.39744615 946 148.960424 945.90276994 139.3984375 945.3359375 C138.14235184 945.26360397 136.88626617 945.19127045 135.59211731 945.116745 C131.51921332 944.87748772 127.44703652 944.62848675 123.375 944.375 C122.67709476 944.33189068 121.97918953 944.28878136 121.26013565 944.24436569 C32.17300104 938.72433368 32.17300104 938.72433368 0 928 C0 621.76 0 315.52 0 0 Z " fill="#FEFDFD" transform="translate(195,848)"/>
<path d="M0 0 C55.11 0 110.22 0 167 0 C167 305.91 167 611.82 167 927 C160.13903186 929.05829044 153.8759377 930.69600089 146.90234375 931.90429688 C143.68620672 932.47428552 140.54286029 933.11942011 137.38134766 933.9453125 C132.61971163 935.14659869 127.8235162 935.90210956 122.96875 936.62109375 C122.00028641 936.76570541 121.03182281 936.91031708 120.03401184 937.05931091 C116.85721062 937.52749909 113.67902605 937.98467198 110.5 938.4375 C109.40585785 938.5937384 108.3117157 938.74997681 107.18441772 938.91094971 C84.12389512 942.15918145 61.06600537 943.82233123 37.81256104 944.87243652 C34.84794738 945.00689633 31.88371087 945.14836989 28.91943359 945.29003906 C26.8981306 945.38386545 24.8768094 945.47730075 22.85546875 945.5703125 C21.94509354 945.61372772 21.03471832 945.65714294 20.09675598 945.70187378 C13.37688063 946.00028986 6.74476597 946 0 946 C0 633.82 0 321.64 0 0 Z " fill="#FEFEFE" transform="translate(865,848)"/>
<path d="M0 0 C37.53963213 -0.00549791 75.0792643 -0.01076988 112.61889648 -0.01586914 C113.35344082 -0.01596894 114.08798515 -0.01606874 114.8447884 -0.01617156 C193.52747128 -0.02685551 272.21015416 -0.0360795 350.89283752 -0.04234314 C352.63991824 -0.04248259 354.38699895 -0.04262204 356.13407967 -0.04276149 C392.80302397 -0.04568397 429.47196828 -0.04840071 466.14091261 -0.05087968 C484.56000727 -0.05212511 502.97910193 -0.05341008 521.39819659 -0.05473244 C524.17670642 -0.05493169 526.95521625 -0.05512981 529.73372607 -0.05532788 C572.53606662 -0.05838909 615.33840688 -0.06230021 658.14074707 -0.06866455 C659.06154732 -0.06880145 659.98234756 -0.06893835 660.93105085 -0.0690794 C675.77776808 -0.07129186 690.62448531 -0.07357543 705.47120253 -0.07586844 C748.21665448 -0.08246919 790.96210622 -0.08854709 833.70755863 -0.09113979 C834.58595569 -0.09119333 835.46435274 -0.09124686 836.36936789 -0.09130202 C855.6489256 -0.09246759 874.92848332 -0.09336253 894.20804106 -0.09400098 C901.96462749 -0.09426262 909.72121393 -0.09456324 917.47780037 -0.09487724 C918.32674288 -0.09491067 919.17568538 -0.0949441 920.05035342 -0.09497854 C947.43644878 -0.09607628 974.82254253 -0.10035175 1002.20863723 -0.10628221 C1029.77922141 -0.11223815 1057.34980401 -0.11510168 1084.92038885 -0.11362399 C1088.72436629 -0.11342089 1092.52834373 -0.11325351 1096.33232117 -0.11310768 C1097.07805444 -0.1130778 1097.82378772 -0.11304792 1098.59211897 -0.11301713 C1110.43336007 -0.11263545 1122.27459786 -0.11562992 1134.11583805 -0.12000986 C1145.7398126 -0.12424083 1157.36378131 -0.12486664 1168.98775654 -0.12183181 C1175.21402401 -0.1203113 1181.44028033 -0.1204303 1187.66654664 -0.12488318 C1193.31731011 -0.1288941 1198.9680536 -0.12840498 1204.61881673 -0.12413998 C1206.66325244 -0.12341869 1208.70768956 -0.12441701 1210.75212346 -0.12723524 C1213.50418799 -0.13079195 1216.25617952 -0.12832038 1219.00824159 -0.1241985 C1219.81463649 -0.12670737 1220.62103139 -0.12921625 1221.4518625 -0.13180115 C1226.88584499 -0.11415501 1226.88584499 -0.11415501 1228 1 C1228.10041848 3.52911045 1228.13480221 6.03098479 1228.1276505 8.56067652 C1228.13012667 9.77066788 1228.13012667 9.77066788 1228.13265286 11.00510351 C1228.13701805 13.74867613 1228.13416407 16.49219612 1228.13142776 19.23577023 C1228.13307551 21.21490164 1228.1351609 23.19403273 1228.13764787 25.17316326 C1228.14324884 30.66375989 1228.14253587 36.15434101 1228.14087028 41.64493959 C1228.14014283 47.59884186 1228.14515351 53.55273963 1228.1494453 59.50664002 C1228.15616153 69.95928093 1228.1591239 80.41191843 1228.15958023 90.86456108 C1228.16008193 102.08594419 1228.16272182 113.30732368 1228.16798782 124.5287056 C1228.16831796 125.23628684 1228.16864809 125.94386808 1228.16898823 126.67289118 C1228.17033817 129.55458219 1228.17170083 132.4362732 1228.17308033 135.31796421 C1228.18940294 169.47557363 1228.19577194 203.63318237 1228.2005282 237.79079504 C1228.20290992 254.79896207 1228.20661315 271.8071287 1228.2105653 288.81529543 C1228.22323295 343.36080024 1228.23401546 397.90630502 1228.23740576 452.45181128 C1228.237568 455.06018956 1228.23773356 457.66856785 1228.23790014 460.27694614 C1228.23823395 465.50819892 1228.23856443 470.73945171 1228.2388947 475.9707045 C1228.2392816 482.09539124 1228.23967121 488.22007799 1228.24006577 494.34476474 C1228.24017818 496.09770922 1228.2402896 497.85065371 1228.24040002 499.60359819 C1228.24394811 555.88074477 1228.25901914 612.15787857 1228.28233776 668.43502027 C1228.29908163 708.86105076 1228.31455562 749.28707883 1228.31907272 789.71311283 C1228.31921295 790.96051296 1228.31921295 790.96051296 1228.31935601 792.23311309 C1228.32137521 810.49019028 1228.32253113 828.74726743 1228.3228846 847.00434472 C1228.32302077 853.53754722 1228.32322977 860.07074971 1228.32347785 866.60395221 C1228.32353941 868.22926645 1228.32359773 869.85458069 1228.3236528 871.47989493 C1228.32457233 897.37047538 1228.33453728 923.26104249 1228.34911029 949.15161855 C1228.36373519 975.2389196 1228.36876271 1001.32620429 1228.36069075 1027.41350871 C1228.35957542 1031.0214979 1228.35856474 1034.62948711 1228.35761642 1038.23747635 C1228.35742646 1038.94472157 1228.35723649 1039.6519668 1228.35704076 1040.38064369 C1228.35431096 1051.56290295 1228.36163673 1062.7451319 1228.37318979 1073.92738458 C1228.38435003 1084.93309643 1228.38449258 1095.93877384 1228.37381961 1106.94448865 C1228.36842269 1112.8278037 1228.36773337 1118.71101372 1228.38032833 1124.59432011 C1228.39170602 1129.95381224 1228.38910036 1135.31311435 1228.37566125 1140.67260004 C1228.37323923 1142.59250878 1228.37576859 1144.51243236 1228.38405773 1146.43232473 C1228.44587787 1161.7673418 1227.23508259 1176.85613406 1222.3125 1191.5 C1222.05686279 1192.27786865 1221.80122559 1193.0557373 1221.5378418 1193.85717773 C1214.00007115 1216.1289871 1202.41718759 1235.31180604 1187 1253 C1186.49903809 1253.57540527 1185.99807617 1254.15081055 1185.48193359 1254.74365234 C1180.03060357 1260.9517595 1174.38065737 1266.74465857 1168 1272 C1167.08476563 1272.77988281 1166.16953125 1273.55976562 1165.2265625 1274.36328125 C1155.29084843 1282.77926527 1145.00910813 1290.24240786 1133.81274414 1296.91064453 C1132.48714532 1297.70725355 1131.16969344 1298.51746347 1129.85717773 1299.33544922 C1122.85777105 1303.64990774 1115.59517226 1307.31803762 1108.1875 1310.875 C1107.55271729 1311.18058838 1106.91793457 1311.48617676 1106.26391602 1311.80102539 C1089.06214508 1320.05399777 1071.71486026 1326.44779162 1053.27563477 1331.34912109 C1051.55024386 1331.8426188 1049.84220376 1332.397284 1048.14477539 1332.97973633 C998.46850345 1349.09627545 941.36815575 1349.86474179 889.81903076 1350.53485107 C877.33196042 1350.70913482 865.03092736 1351.4223689 852.625 1352.875 C851.56792847 1352.99717896 851.56792847 1352.99717896 850.48950195 1353.12182617 C837.36780953 1354.67388779 824.59787653 1357.51023649 811.79882812 1360.72460938 C808.12604531 1361.61612835 804.78375794 1362.21389665 801 1362 C800.67 1362.66 800.34 1363.32 800 1364 C797.70361328 1364.7043457 797.70361328 1364.7043457 794.6953125 1365.36328125 C788.24359187 1366.88610092 782.09707163 1368.91426778 775.875 1371.1875 C774.24485962 1371.78123413 774.24485962 1371.78123413 772.58178711 1372.38696289 C757.29627257 1378.02819318 743.07940408 1384.80052877 728.94921875 1392.89404297 C726.34487327 1394.37170893 723.70519043 1395.77981689 721.0625 1397.1875 C707.01080696 1404.85400122 694.04542807 1414.37114195 681.61791992 1424.42089844 C678.86379645 1426.63004065 676.25623991 1428.60219945 673 1430 C673 1430.66 673 1431.32 673 1432 C671.49609375 1433.48046875 671.49609375 1433.48046875 669.4375 1435.1875 C662.23452204 1441.34162328 656.19410136 1447.99663843 650.28173828 1455.40185547 C648.93612183 1457.07964695 647.5765136 1458.74537335 646.21484375 1460.41015625 C638.9417018 1469.3449342 632.14523484 1478.57264878 625.46142578 1487.95410156 C623.3876096 1490.85730564 621.28885144 1493.74166416 619.1875 1496.625 C618.56230469 1497.48351563 617.93710937 1498.34203125 617.29296875 1499.2265625 C616.86628906 1499.81179688 616.43960938 1500.39703125 616 1501 C612.16771055 1500.82079222 611.08474234 1500.09116221 608.421875 1497.2265625 C607.51842344 1496.03566433 606.62845444 1494.83445482 605.75 1493.625 C604.77697817 1492.33653182 603.80300866 1491.0487788 602.828125 1489.76171875 C602.34923828 1489.12153809 601.87035156 1488.48135742 601.37695312 1487.82177734 C595.91567222 1480.59623158 589.95630501 1473.74044181 584.09033203 1466.84228516 C581.14019403 1463.3675864 578.24331771 1459.85542205 575.375 1456.3125 C571.75688048 1451.86738173 567.99566444 1447.58536597 564.12890625 1443.35546875 C562.13719617 1441.15179686 560.22414365 1438.89796531 558.3125 1436.625 C555.52696061 1433.41487493 552.60731934 1431.27417958 549 1429 C547.33333333 1427.33333333 545.66666667 1425.66666667 544 1424 C525.88686338 1408.37881442 505.52932602 1395.33197862 484 1385 C482.10355266 1384.02202306 480.20771048 1383.04287167 478.3125 1382.0625 C424.10271624 1355.20693039 361.80927983 1349.1819393 302.1875 1346 C262.41174443 1343.87048759 221.90028047 1341.02263955 183 1332 C182.33307129 1331.84708496 181.66614258 1331.69416992 180.97900391 1331.53662109 C177.01270466 1330.61533451 173.07077706 1329.62034962 169.13720703 1328.56835938 C167.6453445 1328.17162006 166.15132913 1327.78292693 164.65576172 1327.40039062 C144.1640419 1322.13883902 124.59155784 1314.0871489 106 1304 C104.88165771 1303.39551025 104.88165771 1303.39551025 103.74072266 1302.77880859 C92.72612645 1296.76364915 82.52920441 1290.1039014 72.68066406 1282.32666016 C71.21143112 1281.16689667 69.72794387 1280.02523744 68.2421875 1278.88671875 C51.83314142 1266.14464599 37.48790842 1251.31115794 26 1234 C25.30132813 1232.95199219 24.60265625 1231.90398437 23.8828125 1230.82421875 C16.36642599 1219.08169274 10.70712169 1206.6673827 6.1875 1193.5 C5.90962646 1192.70722656 5.63175293 1191.91445312 5.34545898 1191.09765625 C0.43016585 1176.14391991 -0.43866284 1161.30119751 -0.36914349 1145.69833279 C-0.3713671 1143.68998848 -0.37490783 1141.68164528 -0.37963298 1139.6733053 C-0.38878448 1134.17626303 -0.37936138 1128.67938887 -0.36679858 1123.1823592 C-0.35645084 1117.19398073 -0.36361694 1111.20561844 -0.36853105 1105.21723658 C-0.37474021 1094.72939862 -0.36994025 1084.24160552 -0.35761642 1073.75377655 C-0.34445905 1062.50687427 -0.33790133 1051.25999653 -0.33932304 1040.01308632 C-0.33940912 1039.30140753 -0.3394952 1038.58972875 -0.33958388 1037.85648394 C-0.34005304 1034.22731351 -0.34062888 1030.59814311 -0.34124239 1026.96897271 C-0.34545947 1000.73401997 -0.33519119 974.49908904 -0.31719017 948.26414299 C-0.29941102 922.29038319 -0.28786255 896.31663274 -0.28463173 870.3428669 C-0.28452849 869.53563906 -0.28442526 868.72841123 -0.28431889 867.89672195 C-0.28337927 860.52372738 -0.2825162 853.15073281 -0.28174497 845.77773822 C-0.27982701 827.45090097 -0.27694918 809.12406392 -0.27341938 790.79722691 C-0.27325943 789.9627469 -0.27309948 789.12826689 -0.27293468 788.2684996 C-0.26507382 747.69519088 -0.24615266 707.12188832 -0.22631836 666.54858398 C-0.21944326 652.47218836 -0.21261711 638.39579272 -0.20599365 624.31939697 C-0.2055828 623.44635425 -0.20517196 622.57331152 -0.20474866 621.67381295 C-0.18570948 581.07329317 -0.17453741 540.47277232 -0.16538927 499.87224924 C-0.16479508 497.23579464 -0.1641975 494.59934005 -0.16359923 491.96288546 C-0.15963982 474.49067471 -0.15581588 457.01846393 -0.15208265 439.54625313 C-0.14465353 404.78214951 -0.1364285 370.01804609 -0.12765651 335.25394278 C-0.12723879 333.59845908 -0.12682163 331.94297538 -0.12640502 330.28749168 C-0.1076505 255.78011836 -0.07963814 181.27274956 -0.04760742 106.76538086 C-0.04715771 105.7190957 -0.04715771 105.7190957 -0.04669892 104.65167346 C-0.03169814 69.76778205 -0.01616871 34.88389089 0 0 Z M29 30 C28.938125 215.7075 28.87625 401.415 28.8125 592.75 C28.78518799 651.45745117 28.75787598 710.16490234 28.72973633 770.65136719 C28.71970503 823.12857029 28.71970503 823.12857029 28.71366882 875.60577393 C28.71077363 899.81080287 28.6988522 924.01580501 28.68162364 948.22082656 C28.66351156 973.74182355 28.65511838 999.26280549 28.6593133 1024.78380904 C28.65989598 1028.34561576 28.66037171 1031.90742248 28.66078317 1035.46922922 C28.66086771 1036.16726349 28.66095225 1036.86529775 28.66103936 1037.58448457 C28.6620275 1047.8576704 28.65478589 1058.13082679 28.64235461 1068.40400457 C28.62869978 1079.72551902 28.62486329 1091.04697898 28.63449398 1102.36849869 C28.63902769 1108.0633963 28.63884716 1113.7581843 28.62535226 1119.45307016 C28.61312538 1124.65377547 28.61497429 1129.85428716 28.62758049 1135.05498982 C28.6297056 1136.91519632 28.62690777 1138.77541746 28.61829415 1140.63560522 C28.56320983 1153.34628375 29.76775438 1165.48712941 32 1178 C32.2123806 1179.19856728 32.42476119 1180.39713456 32.64357756 1181.63202207 C39.44221445 1217.47967107 64.3297973 1245.42121587 93.5 1265.42578125 C102.46642622 1271.37302804 112.02875685 1276.29005056 121.5625 1281.25 C122.53825485 1281.76065002 122.53825485 1281.76065002 123.53372192 1282.28161621 C136.67451088 1289.1353039 150.10320006 1294.54918345 164.1875 1299.1875 C165.65219727 1299.6815332 165.65219727 1299.6815332 167.14648438 1300.18554688 C177.58981271 1303.65286975 188.08388683 1306.16088998 198.9375 1307.9375 C200.73863964 1308.23612761 202.53940397 1308.53702524 204.33984375 1308.83984375 C205.34611816 1309.00871094 206.35239258 1309.17757813 207.38916016 1309.3515625 C210.15959096 1309.84907867 212.9123199 1310.38179867 215.66943359 1310.9453125 C228.33618352 1313.51105599 240.87555146 1315.07230477 253.75 1316.125 C255.69001996 1316.29189532 257.62996093 1316.45971133 259.56982422 1316.62841797 C270.62902601 1317.58313663 281.69345264 1318.51205177 292.76464844 1319.31689453 C297.55299876 1319.67460278 302.31573118 1320.14231955 307.08551025 1320.69833374 C319.07911823 1322.09303355 331.09172549 1322.90472909 343.13916016 1323.67724609 C352.34009101 1324.27237985 361.41550816 1324.87065705 370.49414062 1326.55810547 C374.33099974 1327.23471449 378.18217724 1327.50466385 382.0625 1327.8125 C394.86045292 1328.96244289 407.41040558 1331.49416246 420 1334 C420.79857422 1334.15645996 421.59714844 1334.31291992 422.41992188 1334.47412109 C429.49624239 1335.8672923 436.18544089 1337.66859089 443 1340 C444.42923569 1340.47791579 445.85891528 1340.95450637 447.2890625 1341.4296875 C449.514559 1342.17118132 451.73979743 1342.91340958 453.96435547 1343.65771484 C457.7101633 1344.90990466 461.45818693 1346.15214879 465.21875 1347.359375 C471.77850545 1349.47667263 477.91873625 1351.74218014 484 1355 C485.60843519 1355.68601238 487.21711264 1356.37146358 488.82714844 1357.05371094 C510.71395396 1366.5855377 530.79560759 1377.87189384 550 1392 C550.83789062 1392.61359375 551.67578125 1393.2271875 552.5390625 1393.859375 C568.75524279 1406.12779604 583.26362404 1419.96524603 595.56298828 1436.13525391 C598.61641788 1440.09755347 601.78698948 1443.96874671 604.94140625 1447.85083008 C607.1883371 1450.63915769 609.30339023 1453.41202113 611.22265625 1456.4375 C611.80917969 1457.283125 612.39570312 1458.12875 613 1459 C613.66 1459 614.32 1459 615 1459 C616.5345898 1456.98852572 617.96203281 1454.96981402 619.375 1452.875 C624.37144987 1445.66685498 629.89358872 1439.05504391 635.69140625 1432.48339844 C637.36843158 1430.58235255 639.0263593 1428.66492608 640.6875 1426.75 C641.22632813 1426.14027344 641.76515625 1425.53054688 642.3203125 1424.90234375 C643.53349377 1423.52834543 644.73523178 1422.14421402 645.9296875 1420.75390625 C661.71363061 1402.68620581 680.59190502 1389.19665169 700.74951172 1376.42626953 C702.70456754 1375.18723328 704.6520284 1373.93734361 706.59765625 1372.68359375 C724.54389908 1361.31986378 744.63365819 1352.13656105 764.68359375 1345.25 C767.94695908 1344.116969 771.10141375 1342.95422381 774.25390625 1341.53125 C779.44913309 1339.25713532 784.96938824 1337.95081194 790.4375 1336.5 C791.59677002 1336.19030273 792.75604004 1335.88060547 793.95043945 1335.56152344 C801.31417506 1333.62550819 808.64231986 1331.9258602 816.15063477 1330.67138672 C819.80291608 1330.03437438 823.41655168 1329.2925193 827.04296875 1328.5234375 C834.53159581 1326.99513437 842.01006178 1326.05632391 849.625 1325.375 C850.30698456 1325.31240997 850.98896912 1325.24981995 851.69161987 1325.18533325 C865.61098088 1323.93301276 879.52518669 1323.62751707 893.49267578 1323.38705444 C910.71687729 1323.09038906 927.82340381 1322.40176067 945 1321 C946.23133667 1320.89978546 946.23133667 1320.89978546 947.48754883 1320.79754639 C985.84375278 1317.64923472 1024.41284308 1313.65621506 1061 1301 C1062.00675781 1300.67515625 1063.01351563 1300.3503125 1064.05078125 1300.015625 C1077.40857885 1295.6986679 1090.20751317 1290.79984138 1102.62548828 1284.25146484 C1104.33667175 1283.34960113 1106.05167367 1282.45496933 1107.76904297 1281.56494141 C1126.31431835 1271.93794508 1143.00545538 1261.61578197 1158 1247 C1158.77472656 1246.29875 1159.54945312 1245.5975 1160.34765625 1244.875 C1175.47079861 1230.79207378 1185.41631987 1210.67334027 1191 1191 C1191.35835937 1189.82179688 1191.71671875 1188.64359375 1192.0859375 1187.4296875 C1196.3607406 1172.66494205 1196.14629204 1157.85237956 1196.12304783 1142.59846687 C1196.12378855 1140.65089817 1196.12496829 1138.70332959 1196.12654402 1136.75576138 C1196.12959994 1131.41515672 1196.12644931 1126.07457123 1196.12226575 1120.733968 C1196.11882682 1114.93304725 1196.12120665 1109.13212841 1196.12284851 1103.33120728 C1196.1250618 1092.48824727 1196.12275766 1081.64529375 1196.11841014 1070.80233456 C1196.11431039 1060.44194783 1196.1126554 1050.08156344 1196.11307228 1039.72117591 C1196.11311274 1038.66681187 1196.11311274 1038.66681187 1196.11315403 1037.59114754 C1196.11330161 1034.00632702 1196.11348464 1030.42150651 1196.11368043 1026.83668599 C1196.11501273 1001.15511014 1196.11163851 975.47353675 1196.10557556 949.79196167 C1196.09739507 915.06695458 1196.09547268 880.34195243 1196.09460449 845.61694336 C1196.0893515 762.11962839 1196.07539042 678.62231414 1196.0625 595.125 C1196.041875 408.63375 1196.02125 222.1425 1196 30 C810.89 30 425.78 30 29 30 Z " fill="#B19D67" transform="translate(0,499)"/>
<path d="M0 0 C0.99 0 1.98 0 3 0 C10.36471758 21.96588193 17.62057623 43.96397243 24.74111938 66.01020813 C27.02218386 73.07246876 29.3128149 80.13160713 31.60449219 87.19042969 C33.3433895 92.54676752 35.07914395 97.90412257 36.81481934 103.26150513 C38.28705549 107.80444232 39.76306439 112.34613429 41.24179077 116.88696289 C42.18926233 119.79804634 43.13440828 122.70988134 44.07904053 125.62188721 C44.52286202 126.98823406 44.96771069 128.35424773 45.41363525 129.71990967 C46.02321118 131.58714554 46.62890114 133.4556487 47.234375 135.32421875 C47.57694336 136.37697998 47.91951172 137.42974121 48.27246094 138.5144043 C49 141 49 141 49 143 C99.16 143 149.32 143 201 143 C201 146 201 146 198.65625 148.453125 C197.61185572 149.39402227 196.55921863 150.32582308 195.5 151.25 C194.94683105 151.7437915 194.39366211 152.23758301 193.82373047 152.74633789 C192.22265247 154.17218861 190.61249588 155.58709129 189 157 C187.96746094 157.91845703 187.96746094 157.91845703 186.9140625 158.85546875 C179.16376336 165.70889921 171.24933669 172.38427567 163.37109375 179.08984375 C157.94520123 183.71456296 152.56273368 188.36235626 147.3125 193.1875 C143.81740111 196.39645044 140.2571616 199.46065837 136.5625 202.4375 C132.56776014 205.65943101 128.75445651 209.00655495 125 212.5 C120.39688046 216.78310865 115.63527978 220.79091775 110.73828125 224.73828125 C106.00206412 228.65022093 101.47335469 232.79142331 97 237 C96.08806885 237.66281982 95.1761377 238.32563965 94.23657227 239.00854492 C91.80048938 241.66440388 91.80048938 241.66440388 91.94866943 244.14755249 C92.39027012 246.89058645 93.01176065 249.53254807 93.70703125 252.22265625 C93.9419931 253.22721863 94.17695496 254.23178101 94.41903687 255.26678467 C95.19038153 258.53897853 96.00138051 261.79996147 96.8125 265.0625 C97.35047418 267.31722406 97.88537859 269.57268274 98.41723633 271.82885742 C99.46328721 276.25667666 100.52166793 280.68122001 101.59082031 285.10351562 C103.24599721 291.98222245 104.74771453 298.88542023 106.1875 305.8125 C108.39299734 316.24401442 110.68331531 326.65525206 113 337.0625 C113.34074511 338.59553899 113.6814841 340.12857934 114.0222168 341.66162109 C115.4686302 348.16335204 116.92006654 354.66379785 118.39819336 361.15840149 C118.83212984 363.06610216 119.26375311 364.97432854 119.6953125 366.88256836 C120.216825 369.18649539 120.74260164 371.489463 121.2734375 373.79125977 C121.50289062 374.80760498 121.73234375 375.8239502 121.96875 376.87109375 C122.16919922 377.74693115 122.36964844 378.62276855 122.57617188 379.52514648 C123.01115187 382.06511896 123.07605428 384.42827058 123 387 C118.5066095 386.42477932 115.50904865 384.6971111 111.6875 382.3125 C110.34738529 381.48790522 109.00616028 380.66511322 107.6640625 379.84375 C106.92446289 379.39 106.18486328 378.93625 105.42285156 378.46875 C100.83831385 375.68957034 96.19733058 373.00665637 91.5625 370.3125 C89.47785105 369.09898158 87.39321582 367.88543959 85.30859375 366.671875 C83.73827393 365.75825195 83.73827393 365.75825195 82.13623047 364.82617188 C79.10091212 363.05875935 76.06761499 361.28793868 73.03515625 359.515625 C62.60244922 353.41910342 52.15559823 347.34807748 41.6875 341.3125 C40.60388184 340.68762695 39.52026367 340.06275391 38.40380859 339.41894531 C33.38665503 336.5265696 28.36812635 333.63661478 23.34765625 330.75 C21.64840215 329.77089468 19.9491812 328.79173183 18.25 327.8125 C17.49420654 327.3791333 16.73841309 326.9457666 15.9597168 326.49926758 C12.77848731 324.66398492 9.67260764 322.80392495 6.65625 320.70703125 C4.13972718 318.7758498 4.13972718 318.7758498 1.25 318.875 C-2.59428566 320.20571427 -5.7432158 322.09122708 -9.17431641 324.2578125 C-11.8059461 325.88035523 -14.46406767 327.3862413 -17.18359375 328.85546875 C-18.62424194 329.63579468 -18.62424194 329.63579468 -20.09399414 330.43188477 C-21.05297607 330.94936279 -22.01195801 331.46684082 -23 332 C-34.13762839 338.0306691 -45.25263024 344.09107234 -56.25 350.375 C-57.08192871 350.85018066 -57.91385742 351.32536133 -58.77099609 351.81494141 C-62.85038813 354.15643545 -66.89990019 356.53770543 -70.921875 358.9765625 C-76.19304338 362.15199606 -81.58129802 365.08560419 -87 368 C-88.82201867 368.98753607 -90.64363497 369.97581488 -92.46484375 370.96484375 C-93.36162842 371.45178711 -94.25841309 371.93873047 -95.18237305 372.44042969 C-96.09156494 372.93446289 -97.00075684 373.42849609 -97.9375 373.9375 C-98.89245361 374.45602539 -99.84740723 374.97455078 -100.83129883 375.50878906 C-106.92920906 378.83275407 -112.93872686 382.25221857 -118.85546875 385.890625 C-121 387 -121 387 -124 387 C-123.385235 381.3748805 -122.40876986 376.00093262 -121.06640625 370.5078125 C-120.87329361 369.70209808 -120.68018097 368.89638367 -120.48121643 368.06625366 C-119.84561879 365.41819539 -119.20402938 362.77162687 -118.5625 360.125 C-118.10940878 358.24164574 -117.65678062 356.35818003 -117.20458984 354.47460938 C-116.26690083 350.57021089 -115.32723314 346.66629643 -114.38623047 342.76269531 C-113.09313088 337.39349899 -111.81144047 332.02165309 -110.53515625 326.6484375 C-110.33608673 325.81073318 -110.13701721 324.97302887 -109.93191528 324.10993958 C-109.12824393 320.72703775 -108.32499108 317.34403822 -107.52331543 313.96066284 C-105.22651845 304.26863736 -102.90457899 294.58363785 -100.52636719 284.91122437 C-99.39327978 280.30012097 -98.26765864 275.687207 -97.14227295 271.07421875 C-96.59225097 268.82930372 -96.03846037 266.58530845 -95.48077393 264.34228516 C-94.70308171 261.21347539 -93.93816971 258.08178696 -93.17578125 254.94921875 C-92.93989792 254.01474411 -92.70401459 253.08026947 -92.46098328 252.11747742 C-90.91136269 246.05411439 -90.91136269 246.05411439 -92 240 C-93.99438299 237.92459649 -93.99438299 237.92459649 -96.625 236.0625 C-101.55669779 232.22387734 -106.14715063 228.1688684 -110.6875 223.875 C-115.0988474 219.71558846 -119.51808866 215.59396703 -124.11328125 211.63671875 C-126.43658787 209.62126228 -128.71748465 207.56151538 -131 205.5 C-134.60859396 202.24346399 -138.24586949 199.02501958 -141.9140625 195.8359375 C-145.28035988 192.87309149 -148.58723222 189.84447831 -151.8984375 186.8203125 C-153.86723421 184.96323333 -153.86723421 184.96323333 -156 184 C-156 183.34 -156 182.68 -156 182 C-156.556875 181.773125 -157.11375 181.54625 -157.6875 181.3125 C-160.62199324 179.64697681 -162.62221176 177.37778824 -165 175 C-165.99 174.67 -166.98 174.34 -168 174 C-169.35827971 172.35360035 -170.69254251 170.68704193 -172 169 C-172.66 168.67 -173.32 168.34 -174 168 C-174 167.34 -174 166.68 -174 166 C-174.80050781 165.67708984 -174.80050781 165.67708984 -175.6171875 165.34765625 C-178.87657608 163.50423156 -181.4281177 160.99986627 -184.125 158.4375 C-187.76403407 154.81366093 -187.76403407 154.81366093 -192 152 C-192 151.34 -192 150.68 -192 150 C-192.61875 149.71125 -193.2375 149.4225 -193.875 149.125 C-196 148 -196 148 -198 146 C-198 145.01 -198 144.02 -198 143 C-148.17 143 -98.34 143 -47 143 C-45.06681344 137.84483585 -43.18359457 132.70963236 -41.44140625 127.4921875 C-41.21098129 126.80424103 -40.98055634 126.11629456 -40.7431488 125.40750122 C-40.25921739 123.96073097 -39.77607711 122.51369587 -39.29370117 121.06640625 C-38.57081843 118.89993029 -37.84315305 116.73510076 -37.11523438 114.5703125 C-34.93462043 108.05392785 -32.83038873 101.5406103 -30.9765625 94.921875 C-29.05053033 88.04632566 -26.82690317 81.28540655 -24.53918457 74.52380371 C-23.23838278 70.6773374 -21.94917882 66.82698941 -20.66015625 62.9765625 C-20.37868744 62.13609375 -20.09721863 61.295625 -19.80722046 60.4296875 C-15.72748975 48.22313546 -11.74398677 35.98480785 -7.75 23.75 C-7.1714476 21.97819366 -7.1714476 21.97819366 -6.58120728 20.17059326 C-4.38605654 13.44752341 -2.19221116 6.72402894 0 0 Z " fill="#B19E68" transform="translate(611,0)"/>
<path d="M0 0 C95.04054054 0 95.04054054 0 113.75 17.75 C124.04234192 28.04234192 131.179338 40.13153559 132 55 C132.06445312 56.1034375 132.12890625 57.206875 132.1953125 58.34375 C132.71300966 75.04811161 127.52878868 88.69607436 116.625 101.3125 C105.68354389 112.86490036 92.78070717 120.0274116 77 122 C64.46 122 51.92 122 39 122 C39 147.41 39 172.82 39 199 C26.13 199 13.26 199 0 199 C0 133.33 0 67.66 0 0 Z " fill="#DA0404" transform="translate(950,591)"/>
<path d="M0 0 C7.59 0 15.18 0 23 0 C23 65.67 23 131.34 23 199 C15.41 199 7.82 199 0 199 C-0.33 192.73 -0.66 186.46 -1 180 C-2.588125 181.835625 -4.17625 183.67125 -5.8125 185.5625 C-15.2204478 196.04281237 -26.47820572 202.42224572 -40.69921875 203.203125 C-55.9008724 203.38179282 -69.67613691 200.16000537 -81.25 189.4375 C-95.31191711 174.09451841 -101.63252043 155.20409467 -101.375 134.5625 C-101.36484863 133.37889893 -101.35469727 132.19529785 -101.34423828 130.97583008 C-101.03626119 113.63719741 -96.98965824 97.1303234 -85 84 C-84.03900391 82.93652344 -84.03900391 82.93652344 -83.05859375 81.8515625 C-73.3305148 71.60947547 -61.40547022 66.14082314 -47.26806641 65.7121582 C-30.76937938 65.51662108 -18.23448075 70.61744476 -6.09375 81.8515625 C-4 84 -4 84 -1 88 C-0.67 58.96 -0.34 29.92 0 0 Z " fill="#DA0404" transform="translate(493,591)"/>
<path d="M0 0 C38.94 0 77.88 0 118 0 C118 10.23 118 20.46 118 31 C92.59 31 67.18 31 41 31 C41 46.84 41 62.68 41 79 C64.43 79 87.86 79 112 79 C112 89.56 112 100.12 112 111 C88.57 111 65.14 111 41 111 C41 129.48 41 147.96 41 167 C66.41 167 91.82 167 118 167 C118 177.56 118 188.12 118 199 C79.06 199 40.12 199 0 199 C0 133.33 0 67.66 0 0 Z " fill="#DA0606" transform="translate(151,591)"/>
<path d="M0 0 C12.87 0 25.74 0 39 0 C39 55.11 39 110.22 39 167 C64.41 167 89.82 167 116 167 C116 177.56 116 188.12 116 199 C77.72 199 39.44 199 0 199 C0 133.33 0 67.66 0 0 Z " fill="#DA0404" transform="translate(731,591)"/>
<path d="M0 0 C13.1835711 9.94584114 20.64491433 23.69869792 23.05151367 39.99926758 C24.11001367 48.11377411 24 55.68779717 24 64 C-7.02 64 -38.04 64 -70 64 C-68.41408119 78.27326925 -63.93882286 89.48074298 -52.6875 98.9375 C-40.74043569 107.33273438 -27.66223228 107.26376286 -13.60546875 105.59765625 C-5.97677313 104.00095252 0.785689 100.35209486 7.62890625 96.7421875 C11 95 11 95 14 94 C14 102.25 14 110.5 14 119 C6.16425378 121.84936226 -0.9723727 124.19591886 -9 126 C-9.825 126.20753906 -10.65 126.41507813 -11.5 126.62890625 C-29.58121281 130.66892724 -48.27958661 128.54175918 -64.28613281 119.10693359 C-76.69546693 111.09213005 -85.33480599 98.91337596 -90 85 C-90.25080322 84.40598389 -90.50160645 83.81196777 -90.76000977 83.19995117 C-93.54404223 76.10038036 -93.4094768 69.23229504 -93.3125 61.6875 C-93.31572266 60.44548828 -93.31894531 59.20347656 -93.32226562 57.92382812 C-93.25714893 46.63496036 -92.20579196 36.25580927 -87.4375 25.9375 C-87.08598877 25.16873535 -86.73447754 24.3999707 -86.37231445 23.60791016 C-79.44633131 9.07144343 -67.6464878 -1.48479338 -52.47265625 -6.90234375 C-35.37401236 -11.99206354 -14.8043723 -10.18915382 0 0 Z " fill="#DA0404" transform="translate(618,666)"/>
<path d="M0 0 C12.83806444 7.57481364 19.14721404 18.68216308 23.4375 32.5625 C27.3886659 47.948497 23.84301222 63.68426568 15.98828125 77.1328125 C11.03606391 84.89170213 4.42161539 90.98076504 -4.390625 94.23828125 C-15.40069483 95.88187081 -26.50113043 95.62064416 -35.765625 88.984375 C-45.43061783 81.03760311 -49.97603321 70.7037791 -52.5625 58.5625 C-53.71773261 40.4049615 -53.1796147 22.9442431 -41.3125 8.1875 C-30.90844371 -2.93647983 -13.92341281 -6.51198377 0 0 Z " fill="#FEFCFC" transform="translate(468.5625,678.4375)"/>
<path d="M0 0 C35.27863128 0 35.27863128 0 46.12109375 10.72265625 C52.36729501 18.29341578 53.7872348 25.78780921 53.4140625 35.48046875 C52.8422641 40.34075514 51.67989818 43.91979467 49 48 C48.56042969 48.68449219 48.12085938 49.36898437 47.66796875 50.07421875 C42.39898766 57.07729488 36.19387316 60.04281269 28 63 C18.76 63 9.52 63 0 63 C0 42.21 0 21.42 0 0 Z " fill="#FEF9F9" transform="translate(988,620)"/>
<path d="M0 0 C6.4392851 5.78502619 10.13745242 12.54689946 12 21 C12 23.97 12 26.94 12 30 C-10.11 30 -32.22 30 -55 30 C-53.77973415 17.7973415 -50.19830397 8.3656154 -41 0 C-29.11999794 -9.22718607 -12.08879191 -8.58031546 0 0 Z " fill="#FEFBFB" transform="translate(604,682)"/>
<path d="M0 0 C10.56 0 21.12 0 32 0 C32 10.56 32 21.12 32 32 C21.44 32 10.88 32 0 32 C0 21.44 0 10.88 0 0 Z " fill="#DB0909" transform="translate(1032,758)"/>
<path d="M0 0 C10.56 0 21.12 0 32 0 C32 10.56 32 21.12 32 32 C21.44 32 10.88 32 0 32 C0 21.44 0 10.88 0 0 Z " fill="#DB0808" transform="translate(294,758)"/>
<path d="M0 0 C10.23 0 20.46 0 31 0 C31 10.56 31 21.12 31 32 C20.77 32 10.54 32 0 32 C0 21.44 0 10.88 0 0 Z " fill="#DB0808" transform="translate(881,758)"/>
<path d="M0 0 C0.66 0.33 1.32 0.66 2 1 C-2.29 5.29 -6.58 9.58 -11 14 C-11.66 13.67 -12.32 13.34 -13 13 C-4.738041 3.40546697 -4.738041 3.40546697 0 0 Z " fill="#DF2828" transform="translate(550,667)"/>
</svg>
