<svg xmlns="http://www.w3.org/2000/svg" viewBox="64.74 56.93 662.96 995.55"><!-- Source: https://football-logos.cc --><path d="M49.058 283.705c0-130.159 111.308-231.675 248.61-231.675 137.3 0 248.611 101.516 248.611 231.675v514.99H49.058Z" style="fill:#2d3595;fill-opacity:1;fill-rule:nonzero;stroke:none" transform="matrix(1.33333 0 0 -1.33333 -.667 1121.853)" data-source="https://football-logos.cc"></path><path d="M524.18 663.344v111.5H71.157v-111.5z" style="fill:#fff;fill-opacity:1;fill-rule:nonzero;stroke:none" transform="matrix(1.33333 0 0 -1.33333 -.667 1121.853)"></path><path d="M128.02 685.065c0-7.42-2.565-13.25-15.07-13.25-12.507 0-15.072 5.83-15.072 13.25V710.4h10.774v-27.93c0-2.969 1.411-4.718 4.297-4.718s4.297 1.75 4.297 4.718v27.93h10.775zM136.125 710.4h12.416l10.623-24.01.001 24.01h9.969v-37.842H157.04l-10.79 25.332v-25.332h-10.126ZM176.958 710.4h10.596v-37.842h-10.596zM331.162 710.4h10.596v-37.842h-10.596zM191.815 710.4h10.565l4.988-29.256h.118l5.047 29.255h10.565l-9.508-37.841h-12.56zM227.485 710.4h24.911v-7.209H237.62v-7.579h13.873v-7.208H237.62v-8.638h15.442v-7.208h-25.576zM435.832 710.4h24.911v-7.209h-14.777v-7.579h13.873v-7.208h-13.873v-8.638h15.441v-7.208h-25.575zM259.313 710.4h17.692c8.972 0 12.045-4.665 12.045-9.858 0-5.513-2.635-8.215-7.528-9.223v-.106c6.713-.795 7.09-4.345 7.214-9.434.084-3.314.193-5.304.42-6.54.282-1.55 1.588-2.681 1.588-2.681H279.39c-.816 1.272-1.13 3.392-1.13 7.685 0 6.571-1.066 7.95-4.39 7.95h-4.016v-15.635h-10.54zm10.54-15.953h3.262c4.266 0 5.396 2.703 5.396 4.93 0 2.861-1.255 4.77-5.458 4.77h-3.2zM305.463 684.111v-1.324c0-2.862.91-5.036 4.427-5.036 3.576 0 4.607 2.332 4.607 4.505 0 8.162-18.613 3.604-18.613 17.755 0 6.042 3.698 11.13 14.187 11.13 10.187 0 13.825-4.505 13.825-10.335v-.9h-9.823c0 1.802-.242 3.126-.848 3.974-.608.901-1.577 1.325-3.094 1.325-2.544 0-4.06-1.325-4.06-4.08 0-7.897 18.613-3.923 18.613-17.278 0-8.586-5.456-12.032-14.794-12.032-7.397 0-14.25 1.961-14.25 9.858v2.438zM355.088 703.191h-8.658v7.208h27.015v-7.208h-8.66v-30.633h-9.697zM414.049 703.191h-8.658v7.208h27.015v-7.208h-8.66v-30.633h-9.697zM384.692 710.4h11.402l9.665-37.842h-9.447l-1.412 7.208h-9.284l-1.356-7.208h-9.45zm5.54-6.89h-.11l-3.203-16.854h6.625zM476.535 710.4h11.402l9.665-37.842h-9.448l-1.41 7.208h-9.285l-1.356-7.208h-9.45zm5.54-6.89h-.11l-3.203-16.854h6.625zM98.29 763.93h33.875v-9.562H112.04v-7.75h17.188v-8.937H112.04v-18.125H98.29zM137.32 735.527q0 7.362 4.973 12.132 4.973 4.771 13.436 4.772 9.674 0 14.618-5.605 3.972-4.515 3.972-11.117 0-7.423-4.928-12.163-4.929-4.74-13.632-4.74-7.764 0-12.556 3.938-5.884 4.876-5.884 12.783m12.375.013q0-4.303 1.748-6.362t4.393-2.06q2.674 0 4.392 2.03 1.716 2.03 1.717 6.513 0 4.179-1.732 6.225-1.733 2.045-4.286 2.045-2.706 0-4.469-2.076t-1.763-6.315M197.342 763.93v-12.25h6.812v-9h-6.812V731.3q-.001-2.054.394-2.717.607-1.027 2.123-1.026 1.365 0 3.823.785l.91-8.532q-4.58-1.003-8.554-1.003-4.611 0-6.795 1.18t-3.23 3.585-1.046 7.792v11.318h-4.563v9h4.563v5.913zM212.28 763.93h12.438v-15.367q1.845 1.934 4.19 2.9 2.346.968 5.19.968 5.87 0 9.714-4.227 3.843-4.225 3.843-12.132 0-5.27-1.756-9.284-1.755-4.015-4.856-5.998t-6.884-1.984q-3.24 0-5.931 1.391-2.028 1.09-4.418 4.086v-4.727h-11.53zm12.347-28.224q0-4.163 1.559-6.032 1.559-1.87 3.95-1.87 2.209 0 3.708 1.839t1.499 6.184q0 3.83-1.469 5.622-1.467 1.793-3.557 1.793-2.512 0-4.101-1.869-1.59-1.87-1.59-5.667M266.991 741.243l-11.75 1.25q.666 3.1 1.922 4.877 1.255 1.779 3.616 3.085 1.695.941 4.66 1.46 2.966.515 6.416.516 5.538 0 8.898-.621t5.599-2.588q1.573-1.364 2.481-3.86.908-2.497.908-4.767v-14.198q0-2.27.287-3.557t1.257-3.284H279.71q-.698 1.23-.91 1.875-.21.645-.423 2.026-2.423-2.326-4.814-3.322-3.271-1.33-7.602-1.33-5.754 0-8.736 2.664-2.983 2.663-2.983 6.57 0 3.66 2.15 6.023 2.15 2.361 7.934 3.51 6.933 1.393 8.992 1.952 2.06.56 4.362 1.47 0 2.29-.939 3.207-.938.918-3.3.917-3.03 0-4.542-.984-1.18-.77-1.907-2.89m10.688-6.438a57 57 0 0 0-5.29-1.613q-3.747-1.005-4.745-1.977-1.028-1.005-1.028-2.281 0-1.461 1.013-2.39 1.012-.927 2.977-.927 2.055 0 3.823 1.004 1.767 1.003 2.509 2.45.74 1.444.74 3.756zM299.764 763.93h12.375v-44.374h-12.375zM375.55 737.743l12-3.632q-1.212-5.062-3.816-8.456t-6.465-5.122q-3.863-1.727-9.828-1.727-7.239 0-11.827 2.101t-7.92 7.394q-3.33 5.292-3.33 13.548-.001 11.007 5.858 16.92 5.857 5.912 16.576 5.912 8.386 0 13.185-3.39t7.13-10.41l-12.125-2.7q-.636 2.033-1.33 2.973-1.15 1.577-2.813 2.427t-3.72.85q-4.658-.001-7.137-3.745-1.875-2.78-1.875-8.73 0-7.371 2.244-10.104 2.245-2.734 6.308-2.734 3.942 0 5.959 2.21 2.016 2.208 2.927 6.415M396.008 763.93h12.375v-44.374h-12.375zM452.387 719.556H440.89v5.192q-2.576-3.215-5.195-4.578t-6.436-1.364q-5.09 0-7.98 3.042-2.894 3.042-2.893 9.369v20.464h12.375V734q0-3.028 1.122-4.299t3.155-1.271q2.214 0 3.624 1.695t1.411 6.085v15.47h12.313zM462.16 763.93h12.438v-15.367q1.845 1.934 4.19 2.9 2.346.968 5.19.968 5.87 0 9.713-4.227 3.844-4.225 3.844-12.132 0-5.27-1.756-9.284-1.755-4.015-4.856-5.998t-6.884-1.984q-3.24 0-5.932 1.391-2.027 1.09-4.418 4.086v-4.727H462.16zm12.347-28.224q0-4.163 1.558-6.032 1.56-1.87 3.95-1.87 2.21 0 3.709 1.839t1.499 6.184q0 3.83-1.47 5.622-1.467 1.793-3.556 1.793-2.512 0-4.101-1.869-1.59-1.87-1.59-5.667" style="fill:#2d3595;fill-opacity:1;fill-rule:nonzero;stroke:none" transform="matrix(1.33333 0 0 -1.33333 -.667 1121.853)"></path><path d="m455.426 504.828-.347-30.56-6.774-1.499.228 20.03q-1.673-1.916-3.23-3.216-1.558-1.302-3.898-2.694l.077 6.812q3.453 2.135 5.376 4.484 1.92 2.348 3.028 5.417zM459.72 482.04l6.663 2.521q.248-1.689.878-2.268t1.553-.374q1.644.364 2.59 2.597.688 1.643 1.08 6.554-1.227-1.812-2.51-2.814a7.3 7.3 0 0 0-2.956-1.373q-3.264-.722-5.474 1.652t-2.16 6.76a14.7 14.7 0 0 0 1.201 5.705q1.169 2.713 3.181 4.416 2.014 1.702 5.037 2.371 3.633.803 5.813-.256 2.18-1.062 3.454-4.141 1.276-3.08 1.213-8.612-.094-8.135-2.899-12.525-2.805-4.392-7.7-5.474-2.894-.64-4.556-.179a5.26 5.26 0 0 0-2.752 1.816q-1.089 1.355-1.657 3.625m9.343 20.168c-.779-.171-1.419-.676-1.958-1.542-.553-.887-.842-2.137-.86-3.713-.018-1.567.243-2.7.777-3.365.495-.62 1.076-.832 1.828-.666.837.186 1.524.715 2.102 1.618.59.925.899 2.157.916 3.662.017 1.507-.267 2.62-.844 3.307-.544.643-1.185.871-1.961.7M492.61 488.182l-12.204-2.7.078 6.863 12.411 20.773 5.858 1.296-.21-18.437 3.051.675-.074-6.5-3.05-.674-.065-5.625-5.859-1.296zm-5.426 5.743 5.054 1.118.085 7.484zM506.985 501.886q-1.582.69-2.297 1.82-.975 1.538-.95 3.83.044 3.765 2.919 6.79 2.242 2.332 5.896 3.14 4.838 1.07 7.124-.71t2.246-5.258q-.023-2.027-.96-3.989-.705-1.462-2.191-3.015 1.937-.738 2.878-2.453.938-1.716.911-4.054a12.2 12.2 0 0 0-.88-4.399q-.853-2.143-2.073-3.477-1.222-1.334-3.03-2.236a16.7 16.7 0 0 0-3.847-1.351q-3.834-.847-5.845-.168-2.01.68-3.039 2.642-1.027 1.962-.996 4.669.029 2.645 1.042 4.702 1.014 2.055 3.092 3.517m5.833-1.653c-.72-.159-1.344-.656-1.91-1.52-.577-.878-.877-1.983-.89-3.284-.015-1.202.258-2.12.812-2.727.52-.576 1.1-.783 1.772-.634.674.15 1.308.675 1.884 1.562.595.918.903 2.002.916 3.222v.089c0 1.158-.272 2.05-.808 2.651-.525.58-1.106.79-1.776.641m.083 11.8c-.702-.155-1.264-.55-1.72-1.207-.469-.678-.702-1.457-.712-2.383-.01-.907.2-1.584.624-2.012.397-.405.937-.526 1.65-.368.658.146 1.19.53 1.627 1.173.455.67.68 1.439.69 2.351.01.91-.198 1.596-.62 2.04-.395.416-.899.548-1.539.406M452.883 540.594l15.257 3.376-.071-6.187-9.031-1.999-.058-5.062 7.69 1.701-.067-5.812-7.69-1.7-.134-11.813-6.224-1.377zM483.382 530.324l5.405-1.167q-.58-3.409-1.773-5.872-1.19-2.464-2.933-3.969-1.744-1.504-4.415-2.095-3.242-.717-5.283.195-2.04.915-3.492 4.03-1.454 3.116-1.391 8.493.081 7.168 2.751 11.598t7.474 5.494q3.758.832 5.885-.902 2.125-1.733 3.118-6.078l-5.451-2.956q-.27 1.258-.574 1.8-.503.911-1.244 1.298-.74.388-1.662.184-2.088-.462-3.227-3.149-.862-1.997-.906-5.876-.056-4.805.922-6.366.976-1.56 2.783-1.16 1.752.385 2.666 2.026.911 1.638 1.347 4.472M503.997 551.903l6.164 1.363-.197-17.207a22 22 0 0 0-.608-4.955 15.1 15.1 0 0 0-1.776-4.36q-1.2-1.963-2.503-2.94-1.812-1.362-4.334-1.92a19 19 0 0 0-3.182-.41q-1.721-.085-2.871.533-1.15.62-2.092 2.021a8.4 8.4 0 0 0-1.278 3.037q-.542 2.628-.518 4.755l.197 17.207 6.163 1.364-.2-17.608q-.027-2.361.865-3.488.89-1.128 2.502-.77 1.595.352 2.517 1.86.922 1.51.95 3.91zM505.129 564.858v90.78l.419-.044h18.632v-85.723zM90.208 552.42v103.156l-.532.018H71.158V547.442zM93.408 553.228v102.376l.705-.01h17.676l.669-.018v-97.312zM482.879 559.014v96.562l.344.018h18.707v-91.558zM460.629 553.201v102.375l.407.018h18.11l.534.046v-97.426zM438.379 547.358v108.218l.438.018h17.934l.679.049V552.359zM134.708 564.108v91.468l-.54.018H115.98l-.321-.023v-96.478zM156.958 569.92v85.719l-.359-.045h-18.08l-.611-.018V564.95z" style="fill:#fff;fill-opacity:1;fill-rule:nonzero;stroke:none" transform="matrix(1.33333 0 0 -1.33333 -.667 1121.853)"></path><path d="m80.605 547.6 1.816-5.152 5.473 1.523-4.35-4.708 1.818-5.15-4.507 2.243-4.349-4.707 1.566 6.093-4.505 2.244 5.473 1.521zM102.754 553.452l1.817-5.15 5.472 1.522-4.35-4.708 1.818-5.15-4.507 2.242-4.35-4.707 1.567 6.093-4.507 2.244 5.474 1.522zM124.902 559.306l1.818-5.152 5.47 1.522-4.349-4.706 1.818-5.152-4.506 2.244-4.35-4.708 1.566 6.094-4.506 2.243 5.473 1.521zM147.05 565.159l1.817-5.15 5.472 1.52-4.35-4.706 1.82-5.152-4.508 2.244-4.349-4.707 1.565 6.092-4.505 2.243 5.472 1.523z" style="fill:#feeb4c;fill-opacity:1;fill-rule:nonzero;stroke:none" transform="matrix(1.33333 0 0 -1.33333 -.667 1121.853)"></path><path d="M349.5 541.056c-.858 1.073-3.5-.167-5.334-3.167s-4.333-7-5.666-8.166-4.834-1-8.334-.167-7.833 2-10 3-4.666-.833-2.166-2.333 8.166-3.833 12.5-6 7-5.834 8-7.167 3-1 4.833 1 3.333 4.5 3.667 9.667 1.667 8 2.333 9.666.833 2.833.167 3.667" style="fill:#fff;fill-opacity:1;fill-rule:nonzero;stroke:none" transform="matrix(1.33333 0 0 -1.33333 -.667 1121.853)"></path><path d="M253.667 570.056c-3.334-2.667-5.5-2.667-5.5-1.5s2.5 4 6 6.167 5.333 4 12.666 4.833 8.167 2 15.333 6.333 10.5 5.834 12 5.5 2.167-1.833 2.334-6.666.5-6.834.5-6.834 4.833-2.166 10.167-4.833 8.5-7.667 9.333-11.333 4.833-5.167 10.166-7.834 10.5-6.333 13-9.166-.443-4.415-4.5-7.167c-4.666-3.167-7.666-4.667-10.333-2s-5.333 4.834-8.833 5.667-7.333-1.667-8.167-4.167-.5-6.166 2.833-8.833 5.334-2 9.667-3.667 3.334-3.5 1-5.833-6.833-4.667-10.333-3.334c-3.5 1.334-7.167 3.333-8.667 4.167s-2.333.5-1-2.667 2.5-8.833 5.333-8.833 3.667 1 6.167 1.167c2.5.166 4-2.5 2.167-7s-4.834-7.834-5.334-9.167.167-1.667 2.5-.5 4.834 3.833 6.667 6.5 3 5 4.5 3.333 1.167-6.333-.667-9.5c-1.833-3.166-2.833-5.5-1.5-6s3.834 1.334 6.167 3.5 5.667 1.334 9 .334 4.667-1.667 4.667-3.334c0-1.666-1.167-2.833-3-4.666-1.834-1.834-1.834-3.834 1.666-3.167s10.334 2.167 17.167 9.667 16.667 21.5 18.667 45.166c0 0-5.5 3.167-9.167 10.5s-4.166 11.333 1 14.667 9.167 3.5 12.333.833 6.167-2 8.667-3.666c2.5-1.667 2.333-4 1.167-5.667s-2-4.333 1.5-4.333 4.833-.667 4.333-5.5-3.833-10.167-4-13.334 1.834-5.5 2.5-7.5c.667-2-.667-3.333-2.833-5.5s-4-10.5-5.334-20.5-4.833-22.166-12.166-27.666-16.834-6.167-16.834-6.167 1.001-2 4.167-5 4-4.167 3.833-5.167-3.499-1.5-7.833-.833-9 3-9.667 1.833c-.666-1.166 1.334-1.833 3.667-4.5s2.334-5 .5-4.666c-1.833.333-6.167 3.167-10.833 6s-6.167 5.833-5.667 7.333 2.5 2.334 4.5 2.167 1 2.166-1.667 7.333-7 8.333-9 8.833-1.666-.666.334-3.5 5.666-4.833 7-7.666.5-3-3.834-2.334c-4.333.667-7.333 1.334-8.666 1-1.334-.333-1.5-1.666-4-5.5s-4.334-7.666-2.834-8.166 3.334-.667 6.167 3.666 3.167 5.833 4.833 5.667 3.5-1.666 4.834-5.333 1.666-6 6.166-8.5 14.5-9.334 27.834-10.167 24.333 1.833 24.333 1.833.333 5.333 1.167 7.667c.833 2.333 3.666 5.667 5.166 7.833s2.834 0 4.834-2.166 5.166-4 10-3.167 9.333 2.833 12.333 2.5 3.5-3.166 2.167-5.833-3.834-3.667-5.834-4.5-3.166-3.5-.666-2.834c2.5.667 4.667 2.333 6.833 2.167s2.833-2.333 1.167-4.5-4.334-3.334-7-4.834-2.5-2.5.166-2.333 5.667 1 5.5-1.5-.833-3.5-7.333-5-19.5-3.833-34.333-6c-14.834-2.167-25.167-2.834-29.167-2.667s-7.333 3.334-26.167 10.834c-18.833 7.5-27.666 11.333-32 12.833s-6 .501-2.333-1.833 10.167-5 14.833-6.834 6.167-4.5 7.834-7.5.5-3.499-4.167-5.666-17.667-7.5-27-11.334-27.167-11.166-26.667-16.333c0 0 1.834.5 3.334-.667 1.5-1.166 1-4.166 2.833-12.833s3.667-19.666 1-26.333-10.5-12.5-13.333-14.667-6.167-3.166-5.834.667 3.167 9.5 5.334 13 4.166 6.833 2.666 6.833-3.333-2-8.166-10.5-8-12.999-12.167-14.833-5.667-1.334-6.5-.667.333 3.833 1.833 5 .667 2.5-1.166 3c-1.834.5-3.5-1.667-9.334-8.667s-13.833-20-14.166-36 3.166-23.332 4.666-26.666 4.167-3.666 13.5-5.5 13.667-2.168 18.167-7.334 3.667-9 2.5-10-2.833.334-3.5 2.834-3.166 6.5-4.5 7.5c-1.333 1-3.5 1.834-1.333-1.5s4.5-7.834 3-10.667-4-3.999-4.5.167-1.834 7.833-4 9.333-3 1.833-2.167-1.167 1.667-9.334.167-10.5-3.667.168-6 2.334-4.833 2.334-6.667 2-2-2.667-4.5-4.167-10.167-2.5-13.833-.667c-3.667 1.834-4.833 3.167-6.667 8.667s-4 6.667-5 8.667-1.666 4.5-.5 9.333c1.167 4.833 1.334 8.333.5 23.5-.833 15.167-2.166 31.333 3 41 0 0-2.167-.667-6.167-4s-7.333-3.333-7.333-.833 2.935 11.087 10.833 16.5c9 6.167 21 13.333 21.167 24.833 0 0-5.333 3.668-7.333 10.834s-1.5 19.666-1.5 19.666-6.235 6.452-10.334 14.334c-4.333 8.333-6 20.5 2 28.667 9.086 9.274 19.834 17.333 23.667 25.666s3.333 16.167-4.167 21.167-13.166 2-13.166 2 .666-10.167-4.5-18.167-10.833-12.167-19.667-11.833c-8.833.333-13.333 5.333-13.5 8.333s3.167 2.334 6.833 1.834 6.834 2 3.834 6.666-1.834 6.5 3 4.667 8.5-2 9.666.833 1.834 6-3.833 7.167-10 1.833-10.167 8 .667 9.166 5.834 8.5 6.333-3.667 15.333-6.667 21.334-5 28.5-9.833 8.667-11 6.333-19.833c-2.333-8.834-11.333-16.667-17.166-22-5.834-5.334-10.667-12.834-11.167-20.334s1.696-12.55 6.333-15.333c4.167-2.5 15.334-1.334 20.167-.167s11.833 8.001 16.667 15.667c4.833 7.666 6.667 17 7.333 19.5s3.333.667 4.833-2.167 2.667-8.334 9-7.167c0 0 1.5 6.167 3.5 11.167s3 4.834 4.834 3.834 5.333-1.5 9.666 3.166 5.834 8.5 4.834 9.167-3.333-1.666-7.5-5.833-5.5-4.667-6.334-1.667-2.5 5.5-6.333-1.5-3.333-13.166-5-13.333-5.666.333-5.333 13c0 0-2.833-1-6.5-2.5s-9.334-.334-10.667.666-4.166 3 .667 5.167 15.5 9.166 14.833 17c0 0-4.833-6.334-9-8.5s-7-1-7.167.833c-.166 1.834 2.5 4.167 8 12.334s8.334 13.333 6.667 13.333-4-1-7.833-4.5-6.834-3.166-8.334-2.833-1.333 7 3.5 12 8 10.833 6.167 11.5-3.833-1.667-9-4.5-7.833-4.834-12-2.834-5.833 3 .833 7.834 23.5 16 25.667 18 2.167 3.667-1.167 2.5-7.333-3.5-11.666-3.5-7.5 2.167-2.167 6 24.5 19 26.833 21.166c2.334 2.167 3.167 3.834-.833 2-4-1.833-9.666-5.667-14.833-5.833s-6.5.667-6.834 2.833 3.334 4.167 7.667 9 7.334 10 8.167 11.667.166 2.333.166 2.333m54.334-9c-1.334 0-2.5-1-4.5-2.5s-3-3.5-1-3.667 4.167-.666 6.333 1c0 0 1 5.167-.833 5.167m-18.5 21.333c1.485 1.89 1.334 3 .5 3.334-.833.333-2.834-1.167-4.667-3.334s-2.833-4.5-1.5-4.333 3.834 2 5.667 4.333m-22.333-14.833c.894 1.193-.5 1.166-3.667.5-3.167-.667-5-2.333-6.5-4.333s-2.667-4.5-.833-3.667 9 4.833 11 7.5m14-8.333c.588 2.942-.834.833-2.334-2.167s-5.333-10.5-9-15.333-5.333-9.334-1.833-5.834c3.094 3.094 5.834 7.167 8.5 11.834s4 8.167 4.667 11.5M265.5 525.89c3.985 2.097 4.166 4.166 2.833 4.166s-6.833-3.5-7.167-4.666-.666-6.334-.833-10.334-.833-6.667 1.333-4.833 2 4.334 1.667 8.167-1 5.833 2.167 7.5m-15.167-23.5c2.275 3.736 4.667 4.167 3.167 5s-4.667-3.5-6.667-7.167-1.833-7.5-1.833-7.5 4.834-.334 7.5.5c2.667.833 5.333 4.833 5.833 5.833s-.833 2-3-.166-4.666-2.834-7.333-3.167c0 0 0 2.834 2.333 6.667M270 479.723s2.334 1.334 3 4.667c.667 3.333-.167 5.333-1.167 3.5s-2.166-4.667-1.833-8.167m-12.333-20.333s6.166.166 11.666 6.166 6.167 10 5 9.667-2.166-2-5.833-6.5-7-5.333-7-5.333.833 4 .833 9.833-.166 7.167-.833 7.167-1.667-2.667-2.167-9.667-1.667-11.333-1.667-11.333M277 531.556c-.281 2.25-1.167-1.666-4.167-10.166s-6-14.834-5.167-18.334c0 0 2.501 0 4.834 6.834s4.834 19 4.5 21.666m7.333-5c-.332 2.986-.833 2.334-1.667-1-.833-3.333-2.833-9.666-3.333-16.166s.333-9.5.333-9.5 3 2.833 3.5 8.166 1.334 17 1.167 18.5M296.5 507.39s-3.333-.167-6.333.166c-3 .334-5.334 2.167-4.5.5s6.999-4 13.666-2.5c0 0-1.333 5.333-2.333 10.167s-1.833 6.5-2.5 6.5-.833-2.334 0-6.5 2-8.333 2-8.333m79.5 50.5c-1.335.148-2.5-.334-4.834-2.834s-2.166-3.833-1.333-3.5 2.333 1.334 4.333 3c2 1.667 3.334 3.167 1.834 3.334m4.5-6.334c-1.405.234-3.5-.166-5-1.5-1.5-1.333-2.667-4.5-.834-4.166 1.834.333 4 2.666 5 3.666s1.834 1.834.834 2M354 481.223c-4.778-1.82-7.667-3-9.334-3.5s-3.999-1.833-1.333-1.833 6 .167 7.167-1 .333-2.167-.167-3.834c-.5-1.666 1.667-2.166 4 1s3.667 7.167 3.833 9-.666 1.5-4.166.167m-23.834-.167c-2.04 1.618-5 .667-3.166-.5 1.833-1.166 5-3.833 5.833-4.5s2.167 1.167-2.667 5m-13.5-17c1.82 1.68 3 3 3.334 6.5.333 3.5 0 5.167-1.667 1.5s-3.833-10-1.667-8m-14 24.667c-1.917 1.37-3.166 1.333-1.833-1s4.667-3.333 7.333-4.833 5.167-4.667 6-6.167 2.667 1.334 0 4.667-4.333 3.333-6.5 4.333-3.833 2.166-5 3M297 484.89c-2.668 1.956-3.333 1.166-2.5-.834s3.666-2.166 6.333-5.5 5.5-6.5 6.167-9 2.667-4 2.333 0-2.167 6.5-5.167 9.167-4.666 4.334-7.166 6.167m-10.5-2.5c-1.458 3.11-2.333 3-1.5-1.167s3.5-7.667 4.833-12.5.834-8.5 1.667-8.5 3.5 2.166 2.333 6.5S289 477.057 286.5 482.39m10.333-31c-1.387 3.814-3.666 5-3.833 3.666-.167-1.333 1-5.5 1-9.666s.5-5.5 4-4.167 7.166 4.667 9.5 6.5 1.666 3.167.666 3-4-1.5-7-3.667-3.833-2.833-4-.666c-.166 2.166.334 3.166-.333 5" style="fill:#fff;fill-opacity:1;fill-rule:nonzero;stroke:none" transform="matrix(1.33333 0 0 -1.33333 -.667 1121.853)"></path><path d="M315.834 404.556c-3.163.171-8.834-.333-27.167-7.833s-21.5-8.334-21.667-10.834 1.667-1.832 1.5-7.166.167-10.168 2.5-12.834 4.5-4.666 10.167.667 7.833 8.167 8 6.5-.5-3.666-2.167-6.833-1.5-6.5.167-10.167c1.666-3.667 5.166-6.834 8-2.167s7.5 9.668 9.833 12.334 4.833 4.333 2.667-1.667-5.333-9.833-5.167-12.333 4-4 5.5-13.167 3-13.167 6.667-19.667 4.833-8.666 9.833-6.333 12 3.167 20.334 3.167 12.666-1 11.833 2.666-4.167 7.166-6.667 8.5-4 .834-7.5-.833-5.833-2.667-7.166 2.833-7.167 27.334-7.5 36.167-.334 11 1 11.5c1.333.5 1.833-1 5.333-5s7.999-5.667 9.833-5.667 1.333 3.5-1 10.167-8.167 17.001-13 21.667-8 6-14.166 6.333M362.667 323.89c-2.212 3.252-5.667 2.666-5.833 1-.168-1.668.666-4 2.5-7.5 1.832-3.5 3.832-5.5 5.832-3.834s.334 6.166-2.5 10.333M368.5 325.222c-2.752 1.148-3.667.001-2-3.666s3-7 4.833-7.167 2.667 2.667 1.833 4.667-2.666 5.332-4.666 6.166M408 473.39c-8.957.895-11.5-.5-16-4.667s-6.167-9-4.334-9.834 4.167.667 7.167 3.167 5.834 2.5 13 2 16-1.5 20 .5 10.167 6.5 8.5 9.167-2.524.83-5.333-.167c-5.167-1.833-8-1.667-23-.167M412.334 458.223c-3.106-1.08-4.667-2.334-6.5-2.334s-3.167-1.5-2-3.166c1.166-1.667 4.5-2.167 9.5-.5s6.666 3.833 6.5 5.333-3.667 2-7.5.667" style="fill:#fff;fill-opacity:1;fill-rule:nonzero;stroke:none" transform="matrix(1.33333 0 0 -1.33333 -.667 1121.853)"></path><path d="M406.667 461.723c-4.002.117-4 .166-3.5-2.167s2.666-1 4.833-.5c2.166.5 4.333 2.5-1.334 2.667M411 414.222c-4.7-1.566-7-3.167-6-5.5s3.5-1.5 6.333.5 4.5 3.001 4.167 4.834-2 1-4.5.166M411.334 406.556c-2.654-.995-2.5-3-1.167-3.167s3.833.167 4.167 1.667-.334 2.5-3 1.5M414.167 609.722c-1.135 0-2-2.166-5.167-7.666-2.125-3.69-3.667-6.834-3.667-16.167 0-11.334-2-106.5-1.667-107.833.334-1.334 3-.834 4.5-.834s2.5 1.167 2.5 4.834S411 590.223 413 595.889c0 0 .833-8.5 0-60.667-.834-52.166-1-56.5 0-57.666 1-1.167 3.333-.5 4.833.666 1.5 1.167 1.333 3.833 1.333 15s1.5 98.167 1.5 100.5c0 2.334-2.666 7.167-3.5 9.5-1.28 3.586-2.166 6.5-3 6.5M385.424 286.785a42.5 42.5 0 0 1-6.3 9.998l-.2.25c-3.052 1.33-5.962 2.22-8.032 2.763l-.178.08c-1.092-.883-4.657-3.789-6.639-5.708l.064-.225c1.32-3.612 3.797-10.828 4.621-16.247l.215-.148c5.477-3.788 9.57-7.86 10.732-9.058l.19.114c2.408 1.688 4.766 3.595 6.135 4.734l.047.363c.058 1.969.106 6.852-.538 12.844zM377.24 298.87a42.6 42.6 0 0 1-13.04 9.214l-.537.239c1.936-1.688 4.6-4.3 7.004-7.652l.186-.039a58 58 0 0 0 6.787-2.2zM367.74 277.577c-1.904-1.516-8.3-6.694-12.466-11.051l-.134-.158c-3.407 1.194-12.989 4.571-18.211 6.595l-.083.228c-1.651 5.774-3.044 12.425-3.512 14.733l-.057.288c4.788 5.676 10.882 9.91 13.448 11.567l.255.143c7.269-1.242 14.17-4.644 16.208-5.71l.107-.29c1.271-3.456 3.794-10.727 4.65-16.19zM332.267 309.357a42.4 42.4 0 0 0 14.4 2.504c3.236 0 6.389-.362 9.418-1.048l.55-.139c-4.916-.011-8.625-.699-10.532-1.15l-.247-.056c-2.48.162-8.253.4-14.18-.338zM377.379 240.051c7.285 7.625 11.76 17.958 11.76 29.337l-.007.748c-.867.935-1.863 1.732-2.485 2.196l-.304.224c-1.435-1.189-3.774-3.067-6.146-4.72l-.218-.161c-1.147-8.271-4.008-14.193-5.115-16.246l-.098-.203c.5-2.023 1.76-7.274 2.393-11.368zM359.98 229.03c-3.415-.004-8.474.841-11.377 1.385l-.116.278c-1.013 2.426-1.519 5.358-1.717 6.755l-.026.314c5.672 3.363 10.064 8.393 11.967 10.787l.174.214c2.08.011 9.215.168 14.962 1.716l.262.067c.588-2.406 1.807-7.597 2.352-11.442l-.153-.135a42.5 42.5 0 0 0-15.991-9.812z" style="fill:#fff;fill-opacity:1;fill-rule:nonzero;stroke:none" transform="matrix(1.33333 0 0 -1.33333 -.667 1121.853)" data-source="https://football-logos.cc"></path><path d="M324.26 259.663c.496-3.47 1.754-10.32 4.516-16.186l.075-.186c5.45-2.728 14.376-4.43 17.04-4.896l.29-.037c5.646 3.302 10.028 8.326 11.907 10.691l.179.215c-.332 5.466-2.615 13.754-3.288 16.107l-.02.212c-3.324 1.165-12.996 4.572-18.29 6.622l-.212-.231c-2.054-1.907-8.992-8.391-12.231-11.988zM318.998 287.582a95 95 0 0 0-1.565 8.276l-.044.247c1.226 1.635 5.427 7.167 8.382 10.18l.23.218c.768.428 2.495 1.315 2.495 1.315 6.194 1.207 12.897 1.086 16.296.91l.028-.12c.601-2.252 1.302-6.672 1.525-8.121l-.22-.144c-2.688-1.75-8.66-5.95-13.4-11.545l-.247-.003c-5.406.19-11.021-.73-13.099-1.116zM304.584 263.604a43 43 0 0 0-.39 5.784c0 10.05 3.49 19.284 9.324 26.556l.246.005a56 56 0 0 0 2.908-.265l.007-.204c.266-1.84.775-4.89 1.633-8.469l-.154-.358c-2.647-6.097-4.376-13.37-4.856-15.515l-.242-.228c-1.907-1.775-5.023-4.784-7.132-7.374zM334.526 228.676a42.5 42.5 0 0 1 12.14-1.76c3.582 0 7.06.444 10.382 1.278l.396.146c-3.413.27-7.357.969-9.564 1.395l-.192-.094c-2.056-.602-6.922-1.63-14.084-.682z" style="fill:#fff;fill-opacity:1;fill-rule:nonzero;stroke:none" transform="matrix(1.33333 0 0 -1.33333 -.667 1121.853)"></path><path d="M323.113 238.768c2.44 1.67 4.253 3.566 4.969 4.362l-.133.228c-2.78 6.011-4.027 12.957-4.507 16.374l-.037.36c-1.6 1.427-6.606 5.981-9.95 10.066l-.202-.167c-1.955-1.836-4.903-4.717-6.84-7.13l-.037-.376c-.027-1.399.013-4.145.51-7.756l.021-.312a42.3 42.3 0 0 1 4.717-9.035l.168-.243c3.684-2.744 8.127-5.072 11.122-6.507zM323.054 237.504c.586-.975 1.61-2.576 2.738-3.865.807-.922 1.826-1.87 2.69-2.626l-.616.28a42.6 42.6 0 0 0-14.165 11.312l-.38.483c3.397-2.262 7.07-4.145 9.587-5.339zM134.728 540.6l-19.063-5-.007.471v3.59l19.05 4.999v-3.69zM137.908 541.802v3.66l19.05 5.01v-4.02l-.356-.115-18.685-4.901zM90.226 528.926l-18.2-4.773-.868-.222v4.041l19.05 5v-3.721zM112.446 534.755l-19.033-4.993-.005.484v3.556l19.05 5.025v-3.608z" style="fill:#fff;fill-opacity:1;fill-rule:nonzero;stroke:none" transform="matrix(1.33333 0 0 -1.33333 -.667 1121.853)"></path><path d="M128.35 538.502V471.52l.007-.369 28.199 7.397.402.091v67.812l-.356-.114-28.282-7.419z" style="fill:#ed192e;fill-opacity:1;fill-rule:nonzero;stroke:none" transform="matrix(1.33333 0 0 -1.33333 -.667 1121.853)"></path><path d="M128.35 471.52v66.982l-.03.416-28.565-7.492v-67.3l-.024-.482 28.625 7.507z" style="fill:#fcd016;fill-opacity:1;fill-rule:nonzero;stroke:none" transform="matrix(1.33333 0 0 -1.33333 -.667 1121.853)"></path><path d="M90.208 460.639V283.705c0-51.109 21.173-98.858 59.621-134.45 39.062-36.16 91.565-56.075 147.839-56.075s108.777 19.914 147.84 56.074c38.448 35.593 59.621 83.342 59.621 134.45v189.872l19.051 5V283.704c0-56.477-23.344-109.19-65.731-148.43-42.594-39.43-99.694-61.146-160.781-61.146s-118.187 21.716-160.78 61.146c-42.387 39.24-65.73 91.953-65.73 148.43v172.392l.805.263 18.244 4.785z" style="fill:#fff;fill-opacity:1;fill-rule:nonzero;stroke:none" transform="matrix(1.33333 0 0 -1.33333 -.667 1121.853)"></path><path d="M112.458 466.514v-182.81c0-44.838 18.64-86.788 52.486-118.121 34.936-32.342 82.072-50.153 132.724-50.153s97.788 17.81 132.724 50.153c33.848 31.333 52.487 73.283 52.487 118.122v184.028l19.051 5.03V283.705c0-50.206-20.81-97.121-58.596-132.103-38.47-35.61-90.2-55.223-145.666-55.223s-107.197 19.613-145.665 55.224c-37.786 34.98-58.595 81.895-58.595 132.102v177.903l-.006.375 19.055 4.998z" style="fill:#fff;fill-opacity:1;fill-rule:nonzero;stroke:none" transform="matrix(1.33333 0 0 -1.33333 -.667 1121.853)"></path><path d="M134.708 472.39V283.704c0-38.57 16.106-74.72 45.352-101.794 30.81-28.523 72.577-44.23 117.608-44.23 45.03 0 86.798 15.706 117.609 44.229 29.246 27.075 45.352 63.226 45.352 101.795V461.92l19.051 5.007V283.705c0-43.938-18.276-85.054-51.462-115.775-34.343-31.792-80.707-49.3-130.55-49.3s-96.207 17.508-130.55 49.3c-33.185 30.722-51.46 71.838-51.46 115.775v183.809l-.034.298 19.08 5.004z" style="fill:#fff;fill-opacity:1;fill-rule:nonzero;stroke:none" transform="matrix(1.33333 0 0 -1.33333 -.667 1121.853)"></path><path d="m156.556 478.548-18.643-4.89-.005-.351V283.705c0-37.667 15.742-72.985 44.326-99.447 30.217-27.972 71.212-43.379 115.434-43.379 44.223 0 85.219 15.406 115.435 43.378 28.585 26.463 44.328 61.78 44.328 99.448v177.37l-19.051-5v-172.37c0-32.768-13.215-62.322-38.218-85.467-26.686-24.703-63.085-38.308-102.494-38.308s-75.808 13.605-102.493 38.308c-25.002 23.145-38.217 52.699-38.217 85.467v194.934z" style="fill:#fff;fill-opacity:1;fill-rule:nonzero;stroke:none" transform="matrix(1.33333 0 0 -1.33333 -.667 1121.853)" data-source="https://football-logos.cc"></path><!-- source: https://football-logos.cc --></svg>