<svg xmlns="http://www.w3.org/2000/svg" xml:space="preserve" style="fill-rule:evenodd;clip-rule:evenodd;stroke-linejoin:round;stroke-miterlimit:1.41421" viewBox="0 0 132 165"><!-- Source: https://football-logos.cc --><path d="M0-165v126.431L65.919 0l66.078-38.775V-165z" style="fill:#fff;fill-rule:nonzero" transform="translate(0 165)" data-source="https://football-logos.cc"></path><path d="M0-156.133h-62.381V-36.5L0 0l62.528-36.699v-119.434zM39.443-32.992.02-8.905-39.298-32.86v-78.405h78.741zm16.814-83.741H-56.174v-33.936H56.257z" style="fill:#ed1c24;fill-rule:nonzero" transform="translate(65.957 160.569)"></path><path d="M0 27.521V0h10.742v9.371h10.073V0h10.743v27.521H20.815V16.864H10.742v10.657z" style="fill:#ed1c24;fill-rule:nonzero" transform="translate(16.7 12.966)"></path><path d="M0 27.521V0h25.259v6.938h-14.58v4.263h11.638v6.607H10.679v9.713z" style="fill:#ed1c24;fill-rule:nonzero" transform="translate(54.641 12.966)"></path><path d="M0 6.163h10.199c-.272 3.565-1.841 6.406-4.655 8.429-2.808 1.945-6.647 2.97-11.434 2.97-5.356 0-9.596-1.283-12.667-3.848-3.073-2.631-4.657-6.134-4.657-10.666 0-4.45 1.584-7.948 4.576-10.583 3.085-2.57 7.275-3.864 12.539-3.864 4.863 0 8.618.95 11.435 2.838 2.819 1.963 4.39 4.723 4.716 8.24H-.288c-.124-1.351-.679-2.438-1.631-3.18-.967-.663-2.327-1.079-4.037-1.079-2.128 0-3.703.686-4.791 1.892-1.039 1.286-1.578 3.172-1.578 5.736 0 2.501.539 4.385 1.707 5.679 1.092 1.275 2.751 1.94 4.935 1.94 1.639 0 3.014-.401 3.957-1.207C-.758 8.727-.145 7.58 0 6.163" style="fill:#ed1c24;fill-rule:nonzero" transform="translate(105.793 23.673)" data-source="https://football-logos.cc"></path><path d="M0-66.784c8.307 4.868 13.91 13.867 13.91 24.195 0 15.491-12.569 28.057-28.063 28.057-15.491 0-28.06-12.566-28.06-28.057 0-10.334 5.596-19.327 13.905-24.198-12.219 5.431-20.748 17.649-20.748 31.889 0 19.283 15.631 34.901 34.903 34.901 19.28 0 34.909-15.618 34.909-34.901 0-14.24-8.538-26.458-20.756-31.886" style="fill:#ed1c24;fill-rule:nonzero" transform="translate(80.15 119.618)"></path><path d="m0-43.232 5.403 12.256 13.316-1.446-7.912 10.81 7.912 10.797-13.316-1.44L0 0l-5.401-12.255-13.314 1.44 7.915-10.797-7.915-10.81 13.314 1.446z" style="fill:#ed1c24;fill-rule:nonzero" transform="translate(65.997 98.035)"></path><path d="m0-22.799 2.731 6.666 7.142-.968-4.411 5.703 4.411 5.699-7.142-.964L0 0l-2.733-6.663-7.137.964 4.406-5.699-4.406-5.703 7.137.968z" style="fill:#ed1c24;fill-rule:nonzero" transform="translate(65.997 146.102)" data-source="https://football-logos.cc"></path><!-- source: https://football-logos.cc --></svg>