<svg xmlns="http://www.w3.org/2000/svg" viewBox="0 0 198.89 274.34"><!-- Source: https://football-logos.cc --><clipPath id="a" data-source="https://football-logos.cc"><path d="M97.419 425.196c0-43.087 24.661-78.019 55.084-78.019 30.425 0 55.084 34.932 55.084 78.019 0 43.093-24.659 78.019-55.084 78.019-30.423 0-55.084-34.926-55.084-78.019"></path></clipPath><g stroke-width=".219" data-source="https://football-logos.cc"><path fill="#ffdb00" d="M198.888 137.169c0 75.755-44.519 137.168-99.446 137.168-54.92 0-99.443-61.413-99.443-137.168S44.522-.001 99.442-.001c54.927 0 99.446 61.415 99.446 137.17"></path><path fill="#231916" d="M188.295 137.169c0 69.5-39.775 125.845-88.849 125.845s-88.852-56.346-88.852-125.845c0-69.509 39.778-125.845 88.852-125.845s88.849 56.336 88.849 125.845"></path><g clip-path="url(#a)" transform="matrix(1.613 0 0 -1.613 -146.541 823.007)"><path fill="#00509e" d="M109.301 345.432H97.337v159.529h11.964zm24.592 0h-11.965v159.529h11.965zm24.592 0h-11.961v159.529h11.961zm24.59 0h-11.961v159.529h11.961zm24.593 0h-11.963v159.529h11.963z"></path></g><g fill="#ffdb00"><path d="m83.768 238.611-1.84-.185.362-.546 2.39-3.76.164-.292c.632-1.117 1.418-2.51 1.418-3.758 0-2.123-2.14-3.27-4.152-3.27a9.7 9.7 0 0 0-3.499.652l-.74 2.413c.797-.556 1.858-1.193 3.032-1.193.93 0 1.581.608 1.581 1.479 0 .789-.548 1.78-.874 2.374l-1.58 2.871-3.012 4.943h9.36l.83-2.618c-1.156.548-2.138.89-3.44.89M93.21 238.405c-1.755 0-1.89-3.387-1.89-4.426 0-1.17.03-2.502.4-3.502.272-.745.832-1.539 1.592-1.539 1.87 0 1.87 3.315 1.87 4.407 0 1.187-.144 5.06-1.972 5.06m5.318-4.795c0-1.973-.434-3.543-1.327-4.794-.954-1.32-2.29-2.015-3.868-2.015-1.699 0-3.265.895-4.19 2.392-.725 1.252-1.125 2.871-1.125 4.56 0 1.799.453 3.51 1.247 4.7a4.9 4.9 0 0 0 4.026 2.152c1.517 0 3.063-.895 4.029-2.334 1-1.526 1.208-3.376 1.208-4.661M105.398 238.405c-1.703 0-1.889-3.097-1.889-4.426 0-1.171.03-2.508.397-3.502.27-.743.83-1.539 1.592-1.539 1.868 0 1.868 3.315 1.868 4.407 0 1.187-.14 5.06-1.968 5.06m5.316-4.795c0-1.976-.435-3.546-1.327-4.794-.953-1.32-2.289-2.015-3.866-2.015-1.697 0-3.265.895-4.19 2.392-.727 1.25-1.128 2.868-1.128 4.56 0 1.797.456 3.51 1.248 4.7a4.91 4.91 0 0 0 4.026 2.152c1.518 0 3.063-.895 4.03-2.334.996-1.523 1.207-3.376 1.207-4.661M118.313 232.774l-.427-.134.419-.114c1.303-.354 2.177-1.431 2.177-2.683 0-.92-.593-1.811-1.588-2.382-.766-.42-1.813-.66-2.868-.66-1.066 0-2.184.165-3.233.398l-.6 2.034c.658-.319 1.668-.746 2.583-.746 1.022 0 2.114.464 2.114 1.767 0 2.014-2.25 2.014-2.992 2.014h-.303v1.563h.837c.818 0 1.615.043 2.33.56.565.444.865 1.072.865 1.82 0 1.533-1.182 2.644-2.81 2.644-.945 0-2.058-.308-2.991-.78.114.514.432 1.92.432 2.124q0 .02-.005.02a13 13 0 0 0 3.074.386c2.878 0 5.973-1.37 5.973-4.374 0-1.697-1.172-3.055-2.987-3.457M77.117 167.802c-2.763 4.163-9.809 6.27-9.888 6.286-4.463.62-12.875-.911-12.875-.911-9.263-.292-3.12-3-3.12-3-11.376.52-4.187-2.302-4.187-2.302-14.49 1.6 2.172-4.914 2.172-4.914-26.9 3.723-6.359-2.632-6.359-2.632-31.944-1.363-6.674-3.839-6.674-3.839-26.892-4.305-13.317-5.271-13.317-5.271-15.62-5.718 4.82-4.171 4.82-4.171-9.564-3.762-12.873-9.451-12.873-9.451-2.184-5.199 2.404-1.49 2.404-1.49 2.376 2.487 7.695 4.37 7.695 4.37-9.016-5.83-11.455-11.255-11.455-11.255-.866-4.25 2.236-.108 2.236-.108 4.772 5.678 13.904 8.79 13.904 8.79-14.98-13.376-15.496-19.402-15.496-19.402.238-5.142 3.584-.288 3.584-.288 5.582 8.5 8.636 8.98 8.636 8.98-11.75-15.7-10.614-18.767-10.614-18.767 1.926-4.093 3.845 1.025 3.845 1.025 6.29 11.952 11.075 14.397 11.075 14.397l-5.677-9.218c-6.769-10.181-6.548-15.19-6.548-15.19.033-3.134 2.228-1.967 2.228-1.967L19.568 95c-1.177-5.094 4.131-3.089 4.131-3.089l-.592-1.468c-.201-12.36 4.404-12.896 4.404-12.896 4.105.33 2.508 5.434 2.508 5.434-.79 1.742-.827 7.652-.827 7.652 4.108 12.81 26.791 30.709 26.791 30.709 15.495 11.833 26.34 32.563 26.34 32.563l2.798 11.5s-4.965-2.172-8.004 2.396"></path></g><path fill="#00509e" d="M47.642 169.756s-5.178.063-.137-1.51c0 0 6.854-1.91 9.96-3.205 0 0-.187 2.249 2.51 2.12 0 0-4.83 3.214-12.333 2.595m-5.102-1.932c-4.708.07 4.487-3.273 4.487-3.273 3.017-1.339 5.107-2.086 6.05-2.412.338 1.328 3.974 2.234 3.974 2.234-1.031.412-5.933 2.236-5.933 2.236-2.495.984-8.578 1.215-8.578 1.215m-3.924-4.02c-6.981.595 2.197-2.186 2.197-2.186 4.922-2.111 10.634-2.313 10.634-2.313.121.618 1.473 1.465 1.913 1.728-.358.226-.737.547-.737.547-3.313 1.49-14.007 2.224-14.007 2.224m-7.538-4.487s-8.638-1.046-.243-1.571c0 0 4.97-.921 7.526-1.007 0 0 12.19.61 13.481.91 0 0-.716.258-1.098.85 0 0-8.52 2.12-19.666.818m-8.286-6.006s-5.487-.57.765-1.684c0 0 5.253 1.615 13.09 2.291 0 0 8.532 1.277 13.663.803l1.026 2.216s-22.298-.782-28.544-3.626m-2.126-3.485s-5.765-2.337-.916-2.455l9.972.197s2.595.366 2.277.069c0 0 3.905.82 6.044.329l.818-.032s5.894 3.208 11.602 4.056c0 0-.27 1.136.068 1.975 0 0-3.421-.071-5.247.085 0 0-15.848-.332-24.618-4.224M15 137.28s-1.168-3.237 1.13-1.704c0 0 8.122 6.893 15.24 8.102 0 0 1.274.85 1.65.853 0 0 3.92 2.455 4.51 2.723 0 0-9.602-.597-9.397-.408 0 0-9.654-3.528-13.133-9.566m-.712-7.385s-1.97-4.091.684-1.233c0 0 3.407 4.357 10.241 7.765 0 0 4.92 2.15 6.822 3.215 0 0 2.708 2.058 3.211 2.124 0 0 3.865 3.605 15.272 6.962 0 0-.297 1.703.008 2.613 0 0-9.423-1.676-17.212-7.459 0 0-.966-.248-2.975-1.354 0 0-.672-.305-.805-.075 0 0-10.224-4.376-15.246-12.558m4.857-3.294s-4.09-4.118-4.478-9.107c0 0-.108-2.658 2.38.301 0 0 5.218 9.064 16.718 16.424l1.7 1.721s2.597 2.889 3.338 3.726c.105.057.201.123.308.192 0 0 7.565 4.695 13.728 6.154 0 0-1.373.632-.32 2.276 0 0-7.692-.213-16.59-6.981 0 0-3.385-2.475-3.343-2.396 0 0-5.368-2.156-13.44-12.31m-.622-11.519c-4.152-6.915-1.302-7.936-1.302-7.936 1.42-.217 2.7 3.554 2.7 3.554 5.096 10.354 14.387 17.585 14.387 17.585 3.652 3.053 4.792 5.792 5.178 6.11l3.13 3.276 1.055.58c2.396 1.578 10.575 4.922 10.575 4.922-.687.468.099 1.89.099 1.89l-.054.637c-11.3-3.597-15.749-7.73-15.749-7.73-1.736-2.493-1.627-1.814-3.605-3.696-1.842-1.216-5.425-4.404-5.425-4.404-4.27-3.495-10.989-14.788-10.989-14.788m3.804-5.71c-4.386-7.22-3.29-10.68-3.29-10.68.477-2.882 1.977.409 1.977.409.848 1.555 3.824 7.647 3.824 7.647 5.405 8.654 12.952 16.254 12.952 16.254.417 1.737 5.009 7.964 5.009 7.964-.073.16 1.65 1.92 4.458 3.44 0 0 3.615 2.776 9.95 5.957l-.2.97s.052.712.138.735c0 0 1.158 1.406-.265.856 0 0-1.216-.753-2.235-.35 0 0-8.957-3.461-13.216-7.526l-2.097-3.084-2.04-2.563c-2.058-1.353-1.845-1.716-6.431-6.176-1.67-2.105-8.534-13.853-8.534-13.853M19.88 93.11s1.185-2.029 3.568-.564c0 0 3.834 8.84 7.073 12.244 0 0 4.645 4.54 9.421 8.265 0 0 7.246 5.913 10.273 9.525 0 0 .787.637 3.699 3.711 0 0 6.24 7.106 8.115 9.791 0 0-1.661.14-1.815 1.097 0 0-.279 1.921.326 2.965l-2.816-.124s-11.394-7.372-11.141-7.106c0 0-3.58-3.034-7.152-8.49 0 0-.449-1.655-.78-1.713 0 0-8.935-9.578-12.927-16.327 0 0-3.872-7.284-4.533-8.457 0 0-2.157-4.02-1.311-4.817m42.668 43.689 5.267 7.632c.377.616.877 1.749.877 1.749-.129-.042 1.462 1.245 2.65 3.915l-1.767-.325-1.04-.084-1.782-.032c-1.06-1.122-3.174-3.995-3.116-3.834-1.448-1.652-4.282-3.497-4.573-4.708-.256-1.039 1.978.242 2.181-.458-1.005-4.09 1.303-3.855 1.303-3.855m11.819 20.094s-6.086-1.13-8.472-4.826c0 0-1.33-1.29.523-1.418 0 0 3.54-.414 5.339.117 0 0 2.163 4.185 2.61 6.127m.213 2.131s-4.015 1.449-10.344-2.006c0 0-3.37-2.605-.8-2.983 0 0 1.937-.57 4.776 1.111 0 0 5.255 2.399 6.252 2.562 0 0 .822.57.116 1.316m.196 2.207s-7.073 2.389-10.066-2.354c0 0-.824-1.345.524-.63 0 0 2.728 1.624 6.5 1.511l3.196.095s.197.866-.154 1.378m-.28 2c-.121.264-.458.984-.365.998 0 0-.176.889-.41 1.165 0 0-1.858.124-3.137-1.524 0 0-1.158-1.372-1.861-1.717 0 0 4.052.584 5.594-.161 0 0 .393 1.198.179 1.239m-3.399 5.03s-9.018.593-8.771-1.524c0 0 3.985-1.714 3.913-1.743l3.166-1.18s1.989 1.693 3.121 2.107c0 0 .358.139.618.405 0 0-.916 1.295-2.047 1.936m-16.062-6.836 2.395-.257s.026-.019.065-.029h.006c.799-.369 4.722-1.261 6.77-1.31 0 0 1.8 1.306 2.386 1.859 0 0-2.047 1.001-4.386 1.045a67 67 0 0 1-1.947.55c-.14.13-1.74 1.48-5.107-.423 0 0-2.785-.977-.182-1.435m-1.524-3.218 1.568.237s1.825 1.515 4.11 1.492c0 0-2.59.623-3.033.886-.874.116-2.316.027-3.508-1.255 0 0-.955-1.596.863-1.36m-.166-8.581s.446.935 1.46 1.592c0 0 1.154.734 1.683 1.139l5.173 2.42s.11 1.273 1.423 2.048c-1.105-.286-6.426-1.64-6.257-1.494-1.863-.957-6.434-3.33-5.592-5.799 0 0 .714-1.316 2.11.094m5.682-.836c.395.3.755.347 1.487 1.157.944.837 3.415 2.518 4.557 3.279-1.97-.407-3.39.977-3.39.977-.884-.516-2.802-1.466-2.802-1.466-4.494-2.44-5.236-4.089-5.236-4.089-.623-.911-.298-1.635-.298-1.635.625-1.373 3.688.447 5.682 1.777m-.405-5.755c-2.577-4.382 5.76 4.471 5.76 4.471l1.555 2.357c-1.842.103-1.492 1.33-.866 2.365-1.73-1.328-4.305-3.062-4.274-3.009l-4.675-3.061c-3.68-4.286 1.757-2.007 1.757-2.007 2.042 1.028.743-1.116.743-1.116m-7.534 9.43s1.753 1.738 4.121 2.711c-.06-.02 1.599.797 1.54.778.31.172.954.296 1.25.488 1.97.383 4.03.687 5.766 1.049-.138.227-.423.9.051 1.747 0 0-6.495 1.082-8.307-1.544-.32-.037-.85.077-.85.077s-3.02.075-3.648-3.02c0 0 .516-.512.406-.688a2.16 2.16 0 0 1-.329-1.598m7.412 13.728s-1.19-.826.36-1.578l1.964-.637s1.186-.07 1.252-.113c0 0 1.572-.548 3.22-.76 0 0 1.572-.538 2.356-.956l1.068 1.06s-1.665 1.116-4.268 1.564c0 0-2.059.792-1.918.802 0 0-1.87 1.894-4.034.618m18.178 1.318c-2.642 3.985-9.513 6.05-9.581 6.068-4.27.587-12.567-.907-12.65-.923-3.672-.118-4.48-.605-4.648-.758.216-.17.515-.402.539-.426 0 0 .405-.885 3.186-1.453 0 0 6.074-.992 8.053-2.7 0 0 3.215 2.563 10.265 1.806 0 0 1.57-1.474 3.331-5.094 1.771-3.62-1.232-10.432-1.232-10.432-1.752-4.568-9.654-15.62-9.654-15.62-6.382-9.393-13.02-15.602-13.02-15.602-9.196-9.021-16.033-13.99-16.033-13.99-6.955-5.77-11.123-16.871-11.123-16.871-1.909-5.02 1.064-11.014 1.064-11.014 1.086-3.189 3.147-2.442 3.147-2.442 2.33.68 1.532 3.99 1.532 3.99-.632 1.935-1.28 5.71-1.28 5.71-.552 6.22 7.23 14.898 7.23 14.898 4.445 5.506 20.942 19.792 20.942 19.792 12.987 11.726 18.802 21.053 18.802 21.053 3.205 4.187 5.127 7.842 6.284 10.623.198-.148.498-.258.795-.368-1.77-3.989-5.294-10.199-12.352-18.664 0 0-3.805-5.605-18.182-17.952 0 0-14.527-12.03-18.929-19.466 0 0-4.877-5.605-3.282-12.514 0 0 2.706-5.937-1.462-7.833 0 0-2.445-1.214-4.514 3.854 0 0-1.954 4.402-1.454 9.49.658 1.327-1.777.057-2.43.62 0 0-1.055.621-1.099 1.784 0 0-.484 1.266 1.095 3.734 0 0-3.31-.624-1.767 6.254 0 0 .653 2.244 2.622 5.547l7.414 12.383s1.626 2.48-.6.015c0 0-5.386-6.325-8.278-12.866 0 0-.447-1.651-2.326-1.739 0 0-3.017.846-1.266 5.136 0 0 2.82 5.926 7.653 12.678 0 0 1.884 2.692-.485.26l-5.262-6.847s-1.665-2.415-3.437-1.66c0 0-2.526 2.913 3.648 10.657 0 0 6.615 7.564 10.088 10.202 0 0-6.336-1.34-13.059-8.947 0 0-2.426-2.556-1.903.77 0 0 1.197 5 10.976 11.399 0 0-2.322-.675-5.682-3.567 0 0-5.413-4.684-4.218.312 0 0 2.114 5.88 12.052 9.84 0 0-18.82-1.032-4.352 4.296 0 0-13.436 2.39 13.61 5.628 0 0-19.368 1.227-2.791 3.758l8.771.223s-15.944 5.018-.747 3.72l6.662-.93s-15.67 6.497-1.492 4.836c0 0-6.394 2.206 4.382 2.487 0 0-1.432 1.04-1.879 1.494.016.006.028.014.049.014-.144.094-.165.184.048.239-.15-.023-.152 0 .453.127l.058.005c.415.51 1.547 1.044 5.377 1.165.25.05 7.261 1.311 11.873 1.011.124 0 .261.005.377.003l.02-.034c.237-.022.472-.041.693-.072.09-.018 7.362-2.158 10.252-6.518 2.75-4.133 7.172-2.283 7.359-2.202l.418-.961c-.052-.026-5.405-2.294-8.65 2.584"></path><path fill="#ffdb00" d="M121.77 167.802c2.761 4.163 9.807 6.27 9.886 6.286 4.463.62 12.875-.911 12.875-.911 9.264-.292 3.124-3 3.124-3 11.375.52 4.183-2.302 4.183-2.302 14.493 1.6-2.168-4.914-2.168-4.914 26.898 3.723 6.355-2.632 6.355-2.632 31.946-1.363 6.676-3.839 6.676-3.839 26.894-4.305 13.319-5.271 13.319-5.271 15.615-5.718-4.823-4.171-4.823-4.171 9.565-3.762 12.875-9.451 12.875-9.451 2.183-5.199-2.403-1.49-2.403-1.49-2.376 2.487-7.696 4.37-7.696 4.37 9.015-5.83 11.452-11.255 11.452-11.255.867-4.25-2.234-.108-2.234-.108-4.772 5.678-13.902 8.79-13.902 8.79 14.977-13.376 15.493-19.402 15.493-19.402-.237-5.142-3.583-.288-3.583-.288-5.584 8.5-8.634 8.98-8.634 8.98 11.744-15.7 10.612-18.767 10.612-18.767-1.926-4.093-3.845 1.025-3.845 1.025-6.291 11.952-11.075 14.397-11.075 14.397l5.679-9.218c6.767-10.181 6.546-15.19 6.546-15.19-.033-3.134-2.225-1.967-2.225-1.967L179.315 95c1.181-5.094-4.126-3.089-4.126-3.089l.59-1.468c.204-12.36-4.403-12.896-4.403-12.896-4.106.33-2.51 5.434-2.51 5.434.79 1.742.831 7.652.831 7.652-4.11 12.81-26.792 30.709-26.792 30.709-15.498 11.833-26.345 32.563-26.345 32.563l-2.794 11.5s4.962-2.172 8.004 2.396"></path><path fill="#00509e" d="M169.351 142.454c-.132-.229-.803.074-.803.074-2.008 1.107-2.978 1.355-2.978 1.355-7.786 5.784-17.212 7.46-17.212 7.46.306-.911.011-2.614.011-2.614 11.407-3.355 15.269-6.962 15.269-6.962.505-.066 3.213-2.124 3.213-2.124 1.903-1.065 6.82-3.215 6.82-3.215 6.837-3.408 10.244-7.765 10.244-7.765 2.653-2.858.684 1.234.684 1.234-5.023 8.18-15.248 12.557-15.248 12.557m13.406-6.878c2.298-1.532 1.126 1.705 1.126 1.705-3.475 6.038-13.129 9.567-13.129 9.567.205-.19-9.397.406-9.397.406.592-.267 4.508-2.72 4.508-2.72.378-.006 1.65-.856 1.65-.856 7.12-1.208 15.242-8.102 15.242-8.102m-3.62 11.794c4.852.12-.916 2.455-.916 2.455-8.77 3.893-24.62 4.225-24.62 4.225-1.824-.157-5.245-.086-5.245-.086.339-.838.066-1.972.066-1.972 5.709-.85 11.604-4.059 11.604-4.059l.816.033c2.14.49 6.046-.33 6.046-.33-.32.297 2.276-.069 2.276-.069zm-3.045 5.941c-6.244 2.844-28.542 3.626-28.542 3.626l1.026-2.216c5.132.476 13.662-.803 13.662-.803 7.84-.676 13.094-2.29 13.094-2.29 6.247 1.112.76 1.683.76 1.683m-8.041 4.434c8.392.526-.242 1.573-.242 1.573-11.147 1.3-19.664-.82-19.664-.82-.387-.591-1.102-.85-1.102-.85 1.294-.298 13.485-.908 13.485-.908 2.555.084 7.523 1.005 7.523 1.005m-9.978 3.873s9.18 2.78 2.197 2.186c0 0-10.694-.734-14.006-2.225 0 0-.38-.32-.737-.545.439-.264 1.792-1.111 1.915-1.727 0 0 5.708.2 10.63 2.311m-6.212 2.932s9.195 3.344 4.485 3.273c0 0-6.084-.23-8.58-1.214 0 0-4.898-1.825-5.929-2.234 0 0 3.635-.907 3.973-2.236a77 77 0 0 1 6.05 2.411m-.614 5.206c-7.507.62-12.335-2.596-12.335-2.596 2.699.13 2.512-2.12 2.512-2.12 3.105 1.298 9.96 3.206 9.96 3.206 5.04 1.573-.137 1.51-.137 1.51m-14.891-4.181c.137-.01-1.92-.802-1.92-.802-2.603-.448-4.268-1.565-4.268-1.565l1.067-1.06c.785.418 2.355.957 2.355.957 1.651.212 3.222.76 3.222.76.068.042 1.254.113 1.254.113l1.963.637c1.547.752.36 1.58.36 1.58-2.167 1.273-4.033-.62-4.033-.62m-8.565 2.685c-1.132-.64-2.047-1.934-2.047-1.934.258-.267.618-.406.618-.406 1.13-.415 3.12-2.108 3.12-2.108l3.167 1.18c-.074.031 3.913 1.746 3.913 1.746.249 2.116-8.771 1.522-8.771 1.522m-2.626-2.868c-.234-.275-.41-1.164-.41-1.164.095-.015-.24-.732-.364-.997-.213-.042.179-1.24.179-1.24 1.545.745 5.592.161 5.592.161-.702.345-1.86 1.716-1.86 1.716-1.28 1.65-3.137 1.524-3.137 1.524m-1.203-5.54 3.192-.094c3.77.112 6.5-1.513 6.5-1.513 1.349-.714.523.631.523.631-2.992 4.742-10.069 2.355-10.069 2.355-.348-.513-.146-1.38-.146-1.38m.462-2.143c.999-.164 6.25-2.563 6.25-2.563 2.84-1.68 4.777-1.111 4.777-1.111 2.573.377-.798 2.982-.798 2.982-6.328 3.457-10.346 2.007-10.346 2.007-.707-.747.117-1.315.117-1.315m2.704-6.944c1.798-.53 5.342-.116 5.342-.116 1.85.127.523 1.418.523 1.418-2.386 3.695-8.472 4.826-8.472 4.826.445-1.942 2.607-6.128 2.607-6.128m3.068-4.586s.498-1.132.877-1.748l5.265-7.633s2.308-.234 1.305 3.855c.206.7 2.436-.58 2.18.458-.291 1.212-3.127 3.057-4.575 4.71.06-.163-2.054 2.71-3.113 3.833l-1.784.032-1.04.084-1.767.324c1.19-2.668 2.78-3.955 2.652-3.915m14.775-19.888c2.913-3.074 3.702-3.711 3.702-3.711 3.027-3.612 10.273-9.525 10.273-9.525 4.778-3.726 9.42-8.265 9.42-8.265 3.239-3.405 7.078-12.244 7.078-12.244 2.377-1.465 3.564.564 3.564.564.846.797-1.31 4.817-1.31 4.817-.662 1.172-4.533 8.456-4.533 8.456-3.991 6.75-12.927 16.327-12.927 16.327-.332.058-.78 1.713-.78 1.713-3.574 5.457-7.154 8.491-7.154 8.491.253-.266-11.14 7.105-11.14 7.105l-2.814.125c.601-1.044.322-2.964.322-2.964-.151-.96-1.814-1.098-1.814-1.098 1.877-2.684 8.113-9.79 8.113-9.79m34.88-27.598s1.095 3.462-3.29 10.68c0 0-6.866 11.747-8.535 13.852-4.585 4.462-4.372 4.825-6.43 6.177l-2.044 2.563-2.095 3.084c-4.253 4.064-13.214 7.528-13.214 7.528-1.019-.405-2.235.348-2.235.348-1.424.55-.266-.857-.266-.857.084-.022.138-.733.138-.733l-.2-.971c6.338-3.181 9.946-5.957 9.946-5.957 2.812-1.52 4.536-3.28 4.463-3.44 0 0 4.593-6.227 5.007-7.963 0 0 7.552-7.602 12.952-16.255 0 0 2.976-6.093 3.828-7.648 0 0 1.495-3.29 1.974-.408m-.887 12.007s1.283-3.77 2.702-3.551c0 0 2.85 1.02-1.298 7.934 0 0-6.723 11.293-10.991 14.788 0 0-3.583 3.187-5.428 4.403-1.974 1.883-1.868 1.204-3.605 3.697 0 0-4.446 4.133-15.746 7.73l-.052-.637s.782-1.421.097-1.89c0 0 8.18-3.344 10.573-4.922l1.057-.58 3.13-3.277c.381-.316 1.526-3.056 5.178-6.108 0 0 9.288-7.233 14.383-17.587m-41.74 44.076 5.175-2.42a34 34 0 0 1 1.683-1.139c1.012-.654 1.46-1.592 1.46-1.592 1.398-1.41 2.112-.093 2.112-.093.842 2.468-3.729 4.842-5.594 5.799.173-.147-5.148 1.208-6.255 1.493 1.312-.774 1.42-2.048 1.42-2.048m1.148-4.83c.734-.81 1.092-.856 1.489-1.156 1.99-1.33 5.055-3.15 5.68-1.778 0 0 .325.725-.296 1.636 0 0-.743 1.648-5.239 4.089 0 0-1.916.95-2.798 1.466 0 0-1.423-1.384-3.391-.977 1.142-.762 3.61-2.442 4.555-3.28m2.637-5.795s5.435-2.278 1.755 2.006l-4.674 3.062c.03-.052-2.544 1.68-4.273 3.008.624-1.034.974-2.261-.87-2.363l1.559-2.358s8.337-8.854 5.76-4.471c0 0-1.299 2.143.743 1.116m3.218 13.62s-.53-.113-.848-.077c-1.812 2.626-8.31 1.543-8.31 1.543.477-.847.188-1.52.053-1.747 1.736-.36 3.795-.666 5.763-1.046.295-.192.94-.318 1.253-.49-.056.019 1.6-.796 1.542-.778 2.367-.973 4.118-2.712 4.118-2.712.12.608-.043 1.144-.329 1.6-.11.175.405.686.405.686-.626 3.095-3.647 3.021-3.647 3.021m-.56 5.09c-3.36 1.9-4.964.55-5.103.422-.36-.095-1.63-.444-1.947-.55-2.34-.044-4.387-1.046-4.387-1.046.587-.553 2.385-1.858 2.385-1.858 2.047.05 5.973.94 6.77 1.31h.007c.04.01.063.029.063.029l2.398.256c2.602.459-.185 1.436-.185 1.436m-.938-2.039c-.442-.263-3.032-.885-3.032-.885 2.284.022 4.108-1.49 4.108-1.49l1.57-.238c1.816-.237.864 1.358.864 1.358-1.192 1.283-2.635 1.373-3.51 1.255m39.114-43.025c2.484-2.96 2.378-.302 2.378-.302-.39 4.99-4.481 9.107-4.481 9.107-8.072 10.156-13.437 12.31-13.437 12.31.04-.077-3.342 2.396-3.342 2.396-8.902 6.768-16.593 6.981-16.593 6.981 1.052-1.643-.317-2.276-.317-2.276 6.161-1.456 13.726-6.153 13.726-6.153.107-.07.205-.136.308-.192.74-.837 3.334-3.726 3.334-3.726l1.702-1.721c11.5-7.36 16.722-16.424 16.722-16.424m3.984 10.859c.521-3.328-1.906-.771-1.906-.771-6.72 7.607-13.054 8.947-13.054 8.947 3.472-2.639 10.084-10.202 10.084-10.202 6.175-7.744 3.65-10.657 3.65-10.657-1.772-.755-3.435 1.66-3.435 1.66l-5.264 6.847c-2.37 2.432-.485-.26-.485-.26 4.83-6.752 7.652-12.678 7.652-12.678 1.75-4.29-1.265-5.136-1.265-5.136-1.88.087-2.327 1.739-2.327 1.739-2.89 6.54-8.278 12.865-8.278 12.865-2.228 2.466-.602-.014-.602-.014l7.417-12.383c1.97-3.304 2.62-5.547 2.62-5.547 1.546-6.878-1.764-6.252-1.764-6.252 1.575-2.47 1.09-3.736 1.09-3.736-.041-1.163-1.096-1.784-1.096-1.784-.652-.563-3.089.708-2.433-.62.504-5.089-1.451-9.49-1.451-9.49-2.07-5.068-4.515-3.854-4.515-3.854-4.166 1.895-1.463 7.833-1.463 7.833 1.595 6.908-3.28 12.514-3.28 12.514-4.404 7.435-18.93 19.465-18.93 19.465-14.378 12.35-18.181 17.953-18.181 17.953-7.055 8.467-10.583 14.675-12.353 18.664.297.11.597.22.799.368 1.155-2.781 3.078-6.436 6.28-10.624 0 0 5.814-9.326 18.804-21.052 0 0 16.497-14.287 20.941-19.792 0 0 7.785-8.678 7.233-14.9 0 0-.653-3.774-1.284-5.71 0 0-.797-3.31 1.532-3.988 0 0 2.062-.745 3.149 2.442 0 0 2.971 5.994 1.061 11.013 0 0-4.166 11.101-11.12 16.87 0 0-6.84 4.97-16.035 13.992 0 0-6.635 6.208-13.018 15.604 0 0-7.9 11.05-9.656 15.617 0 0-3.003 6.812-1.232 10.433 1.762 3.62 3.333 5.094 3.333 5.094 7.05.758 10.263-1.807 10.263-1.807 1.978 1.709 8.057 2.7 8.057 2.7 2.78.568 3.18 1.454 3.18 1.454.028.024.327.256.541.427-.163.152-.961.637-4.573.749-.16.024-8.455 1.518-12.781.92-.011-.007-6.88-2.072-9.523-6.058-3.249-4.877-8.6-2.608-8.652-2.584l.417.962c.19-.081 4.607-1.931 7.36 2.205 2.891 4.356 10.16 6.497 10.227 6.51.227.032.471.055.716.076l.02.035c.127.002.275-.003.412-.003 4.633.29 11.598-.963 11.917-1.02 3.762-.113 4.886-.646 5.3-1.156l.057-.005c.608-.126.602-.15.452-.126.216-.056.195-.147.053-.24a.1.1 0 0 0 .047-.015c-.445-.453-1.878-1.493-1.878-1.493 10.772-.28 4.383-2.488 4.383-2.488 14.176 1.662-1.494-4.835-1.494-4.835l6.659.932c15.2 1.297-.742-3.721-.742-3.721l8.768-.224c16.578-2.53-2.79-3.759-2.79-3.759 27.046-3.237 13.608-5.627 13.608-5.627 14.467-5.328-4.353-4.296-4.353-4.296 9.944-3.96 12.054-9.84 12.054-9.84 1.193-4.996-4.218-.31-4.218-.31-3.36 2.89-5.685 3.564-5.685 3.564 9.783-6.399 10.98-11.397 10.98-11.397"></path><path fill="#00509e" d="M97.067 190.45c.053-.166.12-.324.139-.502l.066-.079v.107a2.3 2.3 0 0 0-.205.474m-12.256-.18.042-.117.186.04c.284-.062.451-.225.637-.374.306-.043.939-.229 3.121-.938l1.374-.446-.027-.085 1.468-.476c.145.036.25.113.427.1.394-.023.757-.187 1.073-.434-.302.228-.57.5-.708.853h.003c0 .017-.074.39-.108.565a40 40 0 0 0-.844 1.124l-.069-.051-2.832 3.901c-.165.138-.333.271-.438.46l-.056.223c-.148.126-.4.435-1.053 1.316a18.2 18.2 0 0 1-3.776-5.149c.579-.19 1.58-.513 1.58-.513m8.533-3.005.197-.051c-.005.003-.082.113-.1.135-.058.028-.14.021-.195.057.039-.037.058-.1.098-.14m.023-8.893c.026.043.045.077.08.13l-.201-.066c-.034-.033-.05-.093-.086-.125.06.035.142.032.207.06m-1.537 4.4c.075.032.13.06.248.106-.029.011-.171.055-.273.089-.098-.015-.195-.092-.288-.092.103-.005.206-.083.313-.103m-8.52-2.635.011-.001.139.155c.213.092.513.143.86.126.332.151 1.016.39 2.946 1.017l1.376.45.028-.082 1.42.46c.109.118.19.256.33.347.295.188.637.28 1 .282a1.9 1.9 0 0 0-.957.274c-.146.095-.232.242-.345.368a40 40 0 0 0-1.403.439l-.03-.092-4.42 1.445c-.317 0-.58.076-.78.166l-.122.14c-.2.004-.536.084-1.774.476-.225-1.14-.373-2.255-.373-3.305 0-.985.136-2.044.337-3.132l1.668.542zm13.715-13.542c-.026.038-.434.748-.434.748l.324-.368.154.325-.058 3.432v1.468h.09v1.568c-.074.12-.187.18-.23.343-.01.049-.064.505-.064.505 0 .368.134.723.339 1.06l-.002.12-.096-.135c-.083-.52-.29-1-.68-1.322-.122-.1-.283-.084-.42-.15a41 41 0 0 0-.9-1.271l.077-.054-2.802-3.848-.111-.015c-.107-.285-.223-.587-.223-.587l-.184-.085c-.067-.186-.26-.505-.943-1.46a18.1 18.1 0 0 1 6.066-1.989v1.642zm-9.034 4.747c.148.253.358.36.555.497.141.28.52.834 1.86 2.677l.848 1.166.07-.05.841 1.154.108.548c.139.355.41.639.724.868-.303-.226-.643-.394-1.016-.415-.19-.011-.305.07-.456.112a46 46 0 0 0-1.426-.483l.029-.084-4.558-1.475-.05.032c-.17-.121-.3-.266-.544-.32l-.203.046c-.158-.115-.483-.247-1.625-.63a18.2 18.2 0 0 1 3.723-5.187l.971 1.336.087.005.092.345zm9.276 26.906c-.071.147-.465.986-.465.986l.294-.39.063.103-.011.41-.021 1.395a18 18 0 0 1-6.1-1.938l.993-1.372-.005-.107.13-.061.227-.608c.203-.168.53-.582 2.042-2.666l.842-1.157s-.063-.047-.073-.052l.942-1.293c.121-.06.27-.045.377-.134.275-.22.438-.534.555-.876a1.8 1.8 0 0 0-.075.497l.066.511c.045.186.169.257.256.387l-.027 1.523h-.092v4.77s.06.05.082.072m11.31-7.16-.843-1.17-.078.057-.837-1.153-.097-.515a2.07 2.07 0 0 0-.75-.914c.308.226.647.393 1.02.418.192.012.308-.07.464-.112.257.095.708.25 1.446.492l-.026.082 4.526 1.467.05-.03c.17.117.297.264.535.315l.212-.042c.151.107.422.226 1.414.562a19.5 19.5 0 0 1-3.639 5.076l-.837-1.154-.092.005-.051-.197a1.75 1.75 0 0 0-.636-.64c-.185-.323-.602-.923-1.78-2.547m-6.75-15.74c-.022.1-.046.2-.06.304l-.057.072v-.101c.048-.09.079-.181.118-.275m12.345-.016-.033.113c-.047-.008-.194-.04-.194-.04-.297.061-.474.229-.663.38-.32.049-.98.246-3.1.933l-.158.05-1.22.387.028.095-1.468.476c-.142-.034-.247-.111-.418-.102a1.94 1.94 0 0 0-1.085.44c.296-.228.564-.493.706-.841.008-.02.08-.403.115-.58.167-.217.424-.562.824-1.11l.07.054 2.837-3.91c.16-.134.327-.263.435-.445.002-.003.028-.108.066-.24.147-.126.397-.43 1.057-1.32a18.2 18.2 0 0 1 3.774 5.149zm-8.556 11.901c-.028-.043-.052-.084-.09-.139l.204.068c.036.034.053.1.09.132-.058-.034-.142-.029-.204-.06m.022-8.898a3 3 0 0 0-.202.051c.004-.004.081-.108.094-.129.061-.03.144-.022.2-.056-.037.034-.056.093-.092.134m1.507 4.494c-.075-.031-.126-.058-.247-.104l.066-.02.21-.068c.095.013.19.09.284.092-.104.003-.209.082-.313.1m8.518 2.635-.128-.143a2 2 0 0 0-.872-.14c-.32-.141-.99-.378-2.954-1.017.007.005-.156-.05-.156-.05l-1.239-.41-.026.09-1.406-.459c-.11-.116-.189-.255-.33-.344a1.85 1.85 0 0 0-.996-.28c.34-.013.671-.09.955-.274.145-.092.237-.24.35-.368.268-.076.716-.216 1.389-.436l.027.084s4.326-1.408 4.436-1.442c.305 0 .558-.07.755-.155l.137-.153c.197 0 .506-.074 1.779-.476.224 1.144.374 2.26.374 3.309-.032.958-.205 2.011-.44 3.098l-1.557-.505zm-13.944-18.123.46-.97-.298.407-.058-.099c.004-.118.005-.435.005-.435l.023-1.397a18.1 18.1 0 0 1 6.099 1.942c-.36.49-.999 1.37-.999 1.37l.007.1-.117.054c-.003.003-.117.303-.238.618-.207.176-.555.62-2.04 2.666l-.094.124-.784 1.054.084.058-.921 1.264c-.12.062-.267.047-.373.134a1.9 1.9 0 0 0-.532.75c.027-.122.055-.242.055-.366l-.07-.51c-.045-.179-.166-.246-.25-.377l.028-1.53h.088v-4.785zm.241 31.672.433-.733-.328.346-.158-.338.008-.378.05-3.04v-1.465h-.087v-1.571c.073-.121.186-.177.23-.339.01-.06.062-.51.062-.51 0-.369-.134-.729-.339-1.066v-.111l.096.127c.082.523.292 1.007.685 1.33.118.1.282.085.416.15.147.22.433.62.892 1.26l-.07.05 2.803 3.856.108.016.22.584.19.089c.062.179.24.477.864 1.35a17.4 17.4 0 0 1-5.986 2.08v-1.617zm26.136-9.397-.161-.17c-.6-.678-2.49-1.422-4.149-1.336l-.08-.078c.394-1.74.664-3.48.715-5.186v-.005c0-1.829-.26-3.67-.683-5.514 1.67.079 3.561-.68 4.168-1.38-.047.052.132-.13.132-.13.348-.353 1.176-1.186.701-2.621-.46-1.434-1.658-1.628-2.11-1.7l-.23-.044c-.863-.195-2.82.323-4.118 1.368-.011 0-.018-.002-.03-.005a25 25 0 0 0-6.398-8.726c1.407-.907 2.517-2.605 2.602-3.531l.027-.226c-.01.057.054-.566.054-.566 0-.774-.354-1.44-1.023-1.93-1.23-.888-2.308-.34-2.713-.132a6 6 0 0 0-.213.1c-.813.354-2.065 1.915-2.502 3.514l-.042.02a24.8 24.8 0 0 0-10.313-3.283l-.01-.025c.323-.853.463-1.724.463-2.235 0-.534-.056-1.521-.426-2.134.032.053-.09-.175-.09-.175-.195-.387-.745-1.475-2.27-1.475-1.52 0-2.066 1.088-2.272 1.5l-.11.203c-.34.564-.397 1.55-.397 2.08 0 .504.14 1.357.452 2.196l-.042.087a24.8 24.8 0 0 0-10.277 3.363c-.435-1.616-1.708-3.19-2.563-3.553.068.032-.16-.083-.16-.083-.43-.219-1.469-.753-2.703.13-.677.496-1.03 1.163-1.03 1.937l.056.59.039.273c.07.855 1.164 2.532 2.563 3.445l.008.052A24.9 24.9 0 0 0 76.65 173c-1.293-1.05-3.258-1.571-4.165-1.368.028-.007-.208.035-.208.035-.469.076-1.624.26-2.098 1.689-.47 1.468.398 2.324.726 2.649l.161.164c.557.657 2.45 1.41 4.128 1.321l.008.008c-.399 1.789-.649 3.571-.649 5.302 0 1.792.265 3.63.686 5.475-1.657-.086-3.544.664-4.162 1.361l-.151.16c-.33.327-1.16 1.155-.699 2.592.475 1.455 1.633 1.635 2.126 1.713l.223.043c.87.192 2.82-.327 4.111-1.37l.04.007a24.9 24.9 0 0 0 6.393 8.725c-1.405.913-2.516 2.612-2.597 3.534l-.029.194c.005-.033-.056.595-.056.595 0 .782.354 1.448 1.025 1.932 1.221.896 2.305.34 2.714.13l.208-.099c.804-.34 2.066-1.9 2.505-3.512l.042-.019a24.8 24.8 0 0 0 10.318 3.284l.008.018c-.327.858-.466 1.732-.466 2.247 0 .53.056 1.513.422 2.127l-.179-.654.287.856c.183.366.73 1.448 2.254 1.448 1.51 0 2.047-1.04 2.276-1.483l.118-.221c.335-.562.39-1.542.39-2.073 0-.507-.14-1.36-.452-2.2l.037-.08c3.68-.357 7.186-1.496 10.286-3.343.444 1.598 1.697 3.153 2.54 3.52l.198.096c.387.194 1.468.742 2.69-.148.668-.48 1.023-1.145 1.023-1.924l-.066-.65.001.01-.026-.207c-.074-.875-1.169-2.557-2.57-3.471l-.002-.01a24.8 24.8 0 0 0 6.232-8.815l.063-.005c1.294 1.057 3.27 1.586 4.18 1.384-.021.002.224-.044.224-.044.468-.075 1.62-.263 2.084-1.695.46-1.434-.373-2.28-.705-2.613"></path><path fill="#00509e" d="m111 194.277-.045-.168.04.16zM115.356 185.114l.182.202.002.004c.003 0 .01 0 .011.004zM83.462 180.29l.187.203z"></path><path fill="#ffdb00" d="m98.425 199.376-.045 2.894a19.5 19.5 0 0 1-9.285-2.96c.205-.287 1.623-2.242 1.623-2.242.008-.021.008-.052.008-.087 0-.095-.011-.226-.026-.334a.72.72 0 0 0 .494-.22.8.8 0 0 0 .197-.538c0-.055-.021-.113-.03-.17l.2-.032c.106-.066 1.822-2.436 1.822-2.436l.098-.137-.132-.1c-.082-.06-.12-.155-.12-.263 0-.122.049-.26.13-.37.074-.105.227-.257.425-.118l.136.101 1.164-1.597c.017-.05.017-.183.021-.3.207.058.417.055.59-.087a.88.88 0 0 0 .294-.688c0-.11-.046-.238-.085-.362l.184-.026c.101-.066 1.598-2.127 1.793-2.396l.668.196v2.842a1.1 1.1 0 0 0 .189.252c-.308.236-.478.524-.478.786q-.001.1.02.185c.056.208.28.263.477.34l-.172.225-.036 1.913v.169h.17c.242 0 .275.215.275.345 0 .25-.145.518-.364.518h-.168v3.094a1.4 1.4 0 0 0 .23.292c-.164.169-.327.348-.327.563l.002.08c.02.187.18.294.313.412zm-14.412-10.188c.07-.061.176-.258.245-.39.158.097.323.192.51.148.232-.048.37-.277.492-.505l.234.121c.129.01 2.913-.892 2.913-.892l.16-.053-.052-.161c-.068-.208.145-.43.387-.511.118-.04.335-.07.406.158l.057.161 1.877-.61c.055-.043.163-.182.242-.292.136.165.26.354.476.34.302-.015.611-.285.774-.736l.18.093c.119.01 2.553-.777 2.874-.882l.411.551-1.67 2.299a1 1 0 0 0-.007.102c0 .074.008.108.017.18-.498.007-.834.263-.943.547a.7.7 0 0 0-.045.242c0 .124.112.223.182.33-.113.033-.226.072-.226.072-.087.06-1.153 1.517-1.153 1.517l-.1.138.14.096a.24.24 0 0 1 .11.2v.026c-.018.163-.176.355-.36.439-.092.042-.22.07-.332-.01l-.137-.098-1.815 2.498c-.011.026-.011.063-.011.105 0 .107.017.186.025.263-.264.045-.522.126-.643.34a.7.7 0 0 0-.097.357c0 .056.039.11.05.166l-.297.05c-.096.06-1.445 1.905-1.748 2.32a19.56 19.56 0 0 1-5.763-7.865c.337-.107 2.637-.854 2.637-.854m-.042-10.066c.223.096.474.035.708-.086l.102.194c.095.087 2.884.992 2.884.992l.161.053.05-.163c.044-.126.166-.18.258-.2.197-.042.439.018.547.14.063.066.074.149.043.249l-.051.163 1.88.606c.049 0 .163-.032.268-.061a.64.64 0 0 0 .286.522c.248.16.651.11 1.047-.151.051.092.096.19.096.19.102.087 2.965 1.018 2.965 1.018-.13-.05-.153.214-.153.214l.04.455c-.077.002-2.693.854-2.693.854a1.1 1.1 0 0 0-.192.275c-.4-.26-.809-.313-1.06-.15a.64.64 0 0 0-.28.518l-.162-.058c-.11-.002-1.826.557-1.826.557l-.163.051.055.163c.074.23-.121.33-.244.37-.24.077-.542.019-.608-.188l-.055-.16-2.942.96a1.2 1.2 0 0 0-.197.283c-.238-.123-.495-.183-.72-.081-.173.077-.222.258-.292.424-.125-.066-.326-.167-.326-.167-.115-.01-2.286.691-2.773.848a19.5 19.5 0 0 1-.682-4.954c0-1.566.232-3.176.637-4.789.335.107 2.637.854 2.637.854.098-.007.327-.116.45-.178.074.17.13.355.305.433m14.541-12.643c-.134.118-.292.229-.313.416a1 1 0 0 0-.006.08c0 .214.163.388.326.556l-.18.17-.051 3.052v.17h.172c.215 0 .359.27.359.52 0 .128-.034.344-.271.344h-.17v1.976c.023.07.13.224.207.332-.197.076-.425.131-.478.34a.7.7 0 0 0-.02.181c0 .259.169.544.473.784l-.135.137-.045 2.999-.65.227-1.673-2.298a1.1 1.1 0 0 0-.297-.092c.039-.124.086-.255.086-.366 0-.303-.123-.549-.292-.689-.17-.139-.376-.14-.582-.084.003-.098.003-.198.003-.198-.032-.102-1.094-1.56-1.094-1.56l-.1-.139-.135.1c-.194.14-.354-.013-.426-.117a.66.66 0 0 1-.13-.375c0-.108.035-.204.117-.263l.137-.101-1.818-2.5a1.3 1.3 0 0 0-.303-.094c.011-.056.029-.111.029-.168a.8.8 0 0 0-.202-.545.7.7 0 0 0-.487-.22c.026-.14.049-.29.049-.29-.026-.114-1.368-1.967-1.67-2.38a19.5 19.5 0 0 1 9.265-3.042v2.763c.036.088.212.274.305.374m-9.42 4.213c.123.21.376.289.632.336a6 6 0 0 1-.04.238c.03.126 1.757 2.5 1.757 2.5l.098.138.14-.104c.109-.08.238-.05.328-.011.189.082.34.268.356.43a.1.1 0 0 1 .004.03c0 .079-.04.143-.117.2l-.137.098 1.168 1.599a1.6 1.6 0 0 0 .311.132c-.069.11-.185.205-.185.33 0 .078.014.16.048.238.11.282.44.535.928.546l-.026.16c.029.118 1.532 2.194 1.73 2.463-.096.139-.288.418-.39.56l-2.706-.88a1 1 0 0 0-.307.106c-.166-.454-.472-.723-.774-.74-.216-.015-.339.175-.473.341l-.164-.232c-.086-.061-1.8-.618-1.8-.618l-.165-.05-.048.158c-.076.23-.292.199-.416.158-.239-.077-.45-.298-.384-.508l.055-.161-2.947-.955a1.3 1.3 0 0 0-.36.132c-.123-.23-.263-.46-.495-.511-.184-.037-.345.056-.5.153l-.155-.301c-.089-.078-2.258-.786-2.744-.946a19.55 19.55 0 0 1 5.686-7.92l1.636 2.252c.072.042.261.08.41.113-.015.053-.047.107-.047.165 0 .126.03.25.093.361m25.93 15.793c-.225-.103-.48-.042-.72.08l-.1-.198c-.1-.082-2.883-.989-2.883-.989l-.164-.053-.049.163c-.043.13-.164.18-.258.203-.2.04-.437-.017-.546-.14q-.09-.099-.042-.247l.051-.16-1.88-.614a1.7 1.7 0 0 0-.275.064.63.63 0 0 0-.284-.527c-.245-.156-.65-.105-1.046.156-.05-.091-.097-.191-.097-.191-.102-.083-2.962-1.015-2.962-1.015.13.045.155-.215.155-.215s-.043-.469-.047-.482c.123.005 2.702-.827 2.702-.827.061-.052.13-.175.194-.278.393.263.801.313 1.053.15.18-.114.266-.306.279-.516l.165.057c.11.001 1.825-.56 1.825-.56l.163-.052-.054-.163c-.028-.1-.017-.179.045-.248.111-.121.35-.182.545-.14.095.024.216.072.258.201l.053.165 2.947-.958a1.2 1.2 0 0 0 .197-.286c.237.123.49.184.716.087.173-.076.228-.261.297-.426l.326.165c.114.01 2.28-.692 2.77-.849.436 1.66.682 3.328.682 4.959-.052 1.54-.328 3.135-.781 4.74l-2.487-.808a2 2 0 0 0-.455.178c-.07-.168-.124-.354-.292-.426m-14.464-20.261.045-2.894a19.5 19.5 0 0 1 9.286 2.965l-1.63 2.24a.4.4 0 0 0-.007.09c0 .093.013.222.024.328a.74.74 0 0 0-.49.22.8.8 0 0 0-.199.543c0 .053.021.108.031.163-.097.013-.19.03-.19.03-.11.067-1.831 2.438-1.831 2.438l-.102.139.142.098c.087.065.11.166.11.255l-.002.058c-.02.198-.151.406-.296.473-.086.035-.165.024-.25-.04l-.142-.1-1.163 1.603c-.015.048-.016.182-.02.296-.206-.054-.414-.053-.588.09a.88.88 0 0 0-.292.686c0 .11.05.239.087.362l-.187.033c-.102.062-1.6 2.12-1.796 2.39-.16-.05-.495-.148-.661-.196v-2.839a1.1 1.1 0 0 0-.192-.251c.31-.24.48-.53.48-.788a.7.7 0 0 0-.023-.18c-.054-.21-.276-.262-.473-.339l.176-.232.032-1.907v-.17h-.17c-.243 0-.28-.217-.28-.346 0-.248.148-.52.366-.52h.168v-3.098a1.4 1.4 0 0 0-.226-.29c.163-.168.324-.345.324-.558l-.005-.08c-.017-.185-.174-.296-.314-.416zm14.412 10.19a1.7 1.7 0 0 0-.245.386c-.163-.096-.324-.188-.511-.148-.236.05-.368.276-.492.507-.094-.05-.233-.118-.233-.118-.13-.013-2.913.89-2.913.89l-.164.05.053.163c.045.13-.026.248-.09.321-.14.155-.363.242-.523.205q-.134-.025-.177-.173l-.054-.163-1.88.61a1.8 1.8 0 0 0-.244.295c-.134-.163-.258-.355-.476-.342-.301.018-.606.287-.776.734l-.179-.088c-.119-.01-2.548.777-2.87.88l-.412-.548 1.668-2.297a1 1 0 0 0 .006-.11c0-.072-.006-.101-.014-.177.5-.003.829-.26.943-.545a.7.7 0 0 0 .044-.24c0-.123-.11-.22-.182-.33l.232-.074c.084-.061 1.143-1.521 1.143-1.521l.099-.134-.137-.102c-.078-.056-.112-.122-.112-.2l.002-.032c.018-.161.173-.347.358-.43.089-.04.223-.068.33.012l.138.1 1.818-2.503a.6.6 0 0 0 .011-.114c0-.104-.016-.175-.02-.252.26-.042.515-.124.636-.336a.73.73 0 0 0 .1-.363c0-.056-.038-.11-.051-.164l.296-.045c.1-.063 1.45-1.91 1.752-2.323a19.56 19.56 0 0 1 5.76 7.862zm-14.497 22.707c.133-.118.291-.224.316-.413a1 1 0 0 0 .004-.08c0-.213-.164-.39-.322-.563l.174-.175.048-3.04v-.171h-.167c-.216 0-.363-.268-.363-.518 0-.13.034-.345.274-.345h.17v-1.98a2 2 0 0 0-.209-.327c.199-.074.425-.13.48-.338a1 1 0 0 0 .02-.184c0-.26-.169-.549-.475-.787.064-.068.135-.133.135-.133s.044-2.782.045-3.003l.65-.23c.136.185 1.67 2.301 1.67 2.301a1.3 1.3 0 0 0 .296.09c-.032.128-.085.257-.085.371 0 .302.124.546.295.686.166.139.373.143.58.087l-.006.197c.037.101 1.097 1.561 1.097 1.561l.1.139.137-.102q.126-.093.254-.034c.148.065.277.27.3.473l.001.055c0 .09-.024.19-.114.256l-.14.095 1.824 2.51a1.3 1.3 0 0 0 .3.095c-.012.054-.033.113-.033.167a.8.8 0 0 0 .202.543.7.7 0 0 0 .487.218c-.02.142-.047.294-.047.294.026.112 1.28 1.843 1.573 2.248a18.83 18.83 0 0 1-9.165 3.17v-2.759c-.037-.092-.21-.27-.306-.374m9.416-4.215c-.12-.21-.372-.288-.627-.332l.034-.242c-.028-.126-1.747-2.494-1.747-2.494l-.1-.138-.14.101c-.112.083-.243.052-.333.012-.187-.081-.339-.268-.358-.431v-.027q-.002-.118.115-.199l.137-.1-1.165-1.602a2 2 0 0 0-.313-.129c.073-.11.187-.208.187-.332a.7.7 0 0 0-.05-.239c-.11-.28-.438-.532-.927-.543l.022-.161c-.027-.117-1.535-2.193-1.73-2.462.095-.139.293-.423.388-.564.221.069 2.712.88 2.712.88a1.1 1.1 0 0 0 .303-.108c.166.455.476.723.778.74.212.015.337-.174.474-.337l.16.226c.085.065 1.801.626 1.801.626l.163.05.053-.16c.074-.232.294-.201.416-.16.236.078.447.3.38.509l-.05.161 2.942.952a1.3 1.3 0 0 0 .36-.128c.12.228.259.454.49.505.184.04.348-.053.51-.147l.15.3c.086.076 2.062.723 2.545.881a20.9 20.9 0 0 1-5.61 7.814c-.207-.288-1.513-2.083-1.513-2.083-.07-.043-.257-.08-.408-.11.012-.056.046-.108.046-.166a.7.7 0 0 0-.095-.363m17.296-4.397-.18-.196c-.389-.436-2.357-1.212-3.694-.876l-.352-.352a10 10 0 0 0-.716-.25 26.6 26.6 0 0 0 .908-6.028v-.001c0-2.071-.298-4.17-.866-6.241l.547-.177c.06-.036.335-.307.42-.39 1.35.333 3.316-.446 3.693-.885l.18-.182c.298-.298.638-.637.409-1.334-.226-.698-.69-.776-1.102-.84l-.264-.05c-.57-.13-2.612.4-3.505 1.456l-.499-.07a8 8 0 0 0-.632.19 23.7 23.7 0 0 0-7.265-9.924l.34-.467c.026-.063.09-.46.11-.571 1.285-.521 2.418-2.3 2.47-2.878l.033-.268c.023-.129.044-.27.044-.41 0-.295-.097-.606-.499-.9-.592-.427-1.014-.214-1.384-.025l-.245.117c-.53.233-1.87 1.863-1.968 3.238l-.451.234a9 9 0 0 0-.395.519 23.6 23.6 0 0 0-11.716-3.74v-.588c-.014-.067-.196-.435-.242-.53.39-.633.547-1.52.547-2.296 0-.669-.105-1.25-.243-1.479l-.12-.227c-.19-.376-.406-.8-1.148-.8-.73 0-.945.422-1.134.795l-.124.232c-.137.23-.244.81-.244 1.481 0 .774.157 1.658.547 2.294l-.223.455s-.01.47-.01.672a23.6 23.6 0 0 0-11.702 3.821l-.329-.453a7 7 0 0 0-.51-.289c-.1-1.38-1.44-3.006-1.977-3.234l-.229-.114c-.373-.19-.792-.407-1.394.024-.401.294-.498.602-.498.9 0 .144.024.284.045.42l.037.257c.05.578 1.18 2.352 2.465 2.873l.085.502a7 7 0 0 0 .373.542 23.65 23.65 0 0 0-7.186 9.981l-.553-.182c-.071-.005-.465.053-.578.07-.885-1.054-2.927-1.585-3.495-1.459l-.263.047c-.411.068-.88.143-1.11.835-.227.708.112 1.044.412 1.34l.179.183c.372.437 2.34 1.221 3.687.884l.352.35c.054.032.448.164.634.223a23.5 23.5 0 0 0-.826 6.064c0 2.06.3 4.157.866 6.233-.182.057-.55.177-.55.177-.06.034-.339.309-.423.39-1.335-.336-3.303.444-3.69.88l-.184.193c-.297.297-.63.628-.407 1.326.231.705.697.778 1.112.842l.258.05c.57.126 2.616-.408 3.502-1.461.114.014.5.074.5.074.06-.006.453-.13.635-.189a23.7 23.7 0 0 0 7.267 9.924l-.344.467a8 8 0 0 0-.111.57c-1.286.529-2.416 2.302-2.466 2.877l-.038.258a2.5 2.5 0 0 0-.041.418c0 .299.093.608.495.897.593.437 1.014.22 1.385.03l.242-.117c.533-.224 1.873-1.852 1.978-3.234.098-.055.445-.232.445-.232.047-.042.289-.368.398-.521a23.6 23.6 0 0 0 11.717 3.74v.587c.015.065.195.434.242.528-.39.634-.55 1.522-.55 2.301 0 .67.105 1.246.244 1.475l.129.24c.187.373.405.792 1.137.792s.95-.426 1.144-.798l.122-.233c.136-.23.24-.806.24-1.476 0-.777-.156-1.666-.551-2.298l.227-.457.015-.667c4.235-.224 8.273-1.536 11.71-3.802l.318.432c.053.044.406.23.506.28.097 1.375 1.438 3.007 1.971 3.241.005 0 .242.116.242.116.373.188.796.404 1.386-.029.405-.29.5-.596.5-.893 0-.144-.02-.282-.044-.416l-.035-.268c-.052-.578-1.184-2.357-2.47-2.88l-.087-.494a7 7 0 0 0-.35-.512c3.165-2.602 5.614-6.063 7.091-10.036l.63.207c.072.004.462-.057.575-.073.889 1.055 2.932 1.589 3.499 1.463l.27-.052c.41-.066.878-.142 1.102-.835.226-.702-.108-1.034-.405-1.328"></path><path fill="#00509e" d="M99.489 107.37a3.43 3.43 0 0 1-3.43-3.428 3.432 3.432 0 0 1 6.862 0 3.436 3.436 0 0 1-3.432 3.428m23.437 26.192-11.219 6.633s2.746.474 3.365.579l-.12 1.084-.193 1.143c-.01 0-.338.947-.34.952-.003 0-.432.945-.437.955-.003-.002-.53.87-.534.879-.007 0-.599.76-.603.768-.002-.004-.671.688-.675.692l-.788.719-.742.621c-.002-.002-.78.545-.79.55a84 84 0 0 0-.925.495l-.916.465-.873.392c.03-.015-.939.356-.939.356l-.898.332c-.002-.001-.113.01-.189.017V121.01h20.735v-8.598h-18.702c2.397-2.164 3.848-5.187 3.848-8.47 0-6.345-5.16-11.505-11.504-11.505-6.337 0-11.494 5.16-11.494 11.505 0 3.283 1.452 6.306 3.849 8.47H73.14v8.598h20.341v30.163c-.689-.105-1.642-.244-1.65-.247-.002-.008-.984-.33-.987-.33l-1.036-.446c0-.005-.867-.502-.879-.508 0-.007-.798-.618-.798-.618-.015-.013-.853-.611-.884-.637 0-.018-.586-.686-.586-.686l-.66-.804c0-.005-.525-.78-.53-.788 0-.006-.458-.879-.46-.882l-.387-.892-.379-.955c0-.008-.261-.943-.266-.958 0-.035-.123-.914-.123-.918l-.053-.71 3.476-.6-11.226-6.632-7.415 10.088 3.614-.638.333 2.972c.03.138.822 2.329.822 2.329.05.103 1.2 2.035 1.2 2.035.049.07 1.425 1.786 1.425 1.786.055.06 1.711 1.647 1.711 1.647.049.043 1.9 1.464 1.9 1.464.037.028 2.044 1.336 2.044 1.336l2.18 1.248 2.167 1.22 2.239 1.132 2.216 1.174 2.058 1.217 2.117 1.222c0 .007 1.79 1.371 1.793 1.371 0 .005 1.592 1.454 1.592 1.454l1.218 1.118s2.978-2.593 2.98-2.593c.002.002 1.882-1.316 1.882-1.316-.034.023 2.024-1.208 2.026-1.208l2.148-1.102 2.2-1.103c.01-.003 2.255-1.176 2.255-1.176.002-.003 2.149-1.137 2.149-1.137.024-.011 2.098-1.223 2.098-1.223.026-.014 2.04-1.317 2.04-1.317.057-.04 1.833-1.492 1.833-1.492a320 320 0 0 0 1.655-1.718c.052-.06 1.403-1.894 1.403-1.894l1.212-2.17c.051-.117.758-2.458.758-2.458.017-.074.455-2.732.458-2.739l.034-.137 3.945.696z"></path><path fill="#ffdb00" d="M99.489 108.61a4.673 4.673 0 0 1-4.666-4.668 4.67 4.67 0 0 1 9.339 0 4.68 4.68 0 0 1-4.673 4.668m6.078 52.943 2.184-1.12 2.198-1.102 2.242-1.17 2.126-1.126 2.052-1.193c.003 0 1.963-1.268 1.965-1.265a314 314 0 0 1 1.722-1.401c.004-.004 1.549-1.612 1.552-1.61a313 313 0 0 1 1.307-1.766c.003-.005 1.11-1.99 1.12-1.988.005-.016.685-2.258.691-2.258l.445-2.71.323-1.314.829.176 1.24.217c-1.232-1.677-4.47-6.077-4.963-6.753l-7.423 4.387 1.234.216s-.247 2.223-.253 2.254c0 0-.197 1.18-.223 1.282 0 0-.366 1.047-.387 1.097 0 0-.456 1.006-.49 1.07 0 0-.57.944-.61 1.004l-.686.876s-.714.737-.742.763c0 0-.817.747-.835.766l-.807.668s-.827.584-.892.62c0 0-.982.528-.993.536l-.958.487-.93.418-.98.371s-.915.34-1.052.373l-1.68.21V119.79h20.736v-6.16h-21.146l1.684-1.117a10.27 10.27 0 0 0 4.61-8.571 10.3 10.3 0 0 0-10.288-10.288c-5.666 0-10.28 4.613-10.28 10.288a10.27 10.27 0 0 0 4.61 8.571l1.684 1.117H74.357v6.16h20.346v32.794l-.698-.104s-2.358-.35-2.458-.374l-1.134-.372s-1.086-.468-1.149-.497c0 0-.942-.542-1.011-.587l-.847-.649c0-.001-.877-.63-.98-.724l-.693-.787s-.676-.821-.708-.866c0 0-.564-.834-.598-.894l-.513-.98s-.407-.928-.413-.948l-.408-1.035s-.286-1.02-.302-1.1l-.143-1.034s-.081-1.07-.083-1.118v-.226l.099-.535 1.143-.197c-1.924-1.137-6.708-3.963-7.423-4.387l-4.963 6.753 1.239-.217.658-.121.071.643s.374 3.347.374 3.481v.003a148 148 0 0 1 .744 2.084c.008.01 1.102 1.85 1.102 1.862.004.006 1.324 1.65 1.324 1.658.005.003 1.603 1.539 1.603 1.543l1.812 1.394 1.974 1.287 2.147 1.231 2.14 1.205 2.225 1.124 2.253 1.194 2.076 1.227s2.114 1.223 2.177 1.265l1.899 1.447 2.05 1.87c.726-.632 2.174-1.89 2.213-1.919 0 0 1.93-1.353 1.968-1.377 0 0 2.06-1.234 2.097-1.254M71.122 50.631c0-1.302.152-2.566 1.31-3.38h-8.354c1.157.814 1.311 2.075 1.311 3.375v14.277c0 1.287-.154 2.54-1.311 3.35h8.354c-1.158-.81-1.31-2.066-1.31-3.355zM104.326 58.616h.913c2.31-.005 5.384.12 5.881 1.161h.011v-4.313l-.016-.001c-.268.119-.637.169-1.23.169h-5.557v-5.431h1.624c1.947-.018 5.916-.045 6.886 1.273v-4.415c-.37.185-.863.193-1.345.193H97.276c1.153.79 1.308 2.047 1.308 3.344v14.287c0 1.296-.154 2.56-1.313 3.37h8.44c-1.366-1.328-1.385-2.846-1.385-4.601zM127.55 65.496c-4.423 0-7.067-3.052-7.067-8.162 0-4.939 1.999-7.55 5.778-7.55 1.849 0 3.663.561 5.27 1.598l-.211-4.234-4.77-.408c-3.61-.002-6.78 1.008-8.923 2.84-2.147 1.899-3.48 4.969-3.48 8.012 0 3.323 1.338 6.283 3.77 8.333 2.258 1.95 4.74 2.747 8.568 2.747 2.407 0 4.476-.25 6.333-.758l1.511-4.413c-1.8.955-4.148 1.995-6.779 1.995M93.565 50.636c0-1.302.152-2.566 1.311-3.38h-8.27c1.163.814 1.313 2.08 1.313 3.382v10.497c0 1.094-.056 2.128-.74 3.068-.487.65-1.3 1.039-2.176 1.039h-.32c-.877 0-1.691-.389-2.178-1.04-.684-.944-.736-1.985-.736-3.086V50.64c0-1.303.149-2.571 1.31-3.384h-8.272c1.163.813 1.317 2.08 1.317 3.384l-.012 11.305c0 1.996.107 3.52 1.488 4.96 1.458 1.496 3.326 1.809 4.634 1.809h5.221c1.308 0 3.174-.313 4.63-1.809 1.383-1.445 1.49-2.968 1.49-4.96z"></path></g><!-- source: https://football-logos.cc --></svg>