<?xml version="1.0" encoding="utf-8"?>
<!-- Generator: Adobe Illustrator 27.3.1, SVG Export Plug-In . SVG Version: 6.00 Build 0)  -->
<svg version="1.1" xmlns="http://www.w3.org/2000/svg" xmlns:xlink="http://www.w3.org/1999/xlink" x="0px" y="0px"
	 viewBox="0 0 595.3 841.9" style="enable-background:new 0 0 595.3 841.9;" xml:space="preserve">
<style type="text/css">
	.st0{fill:#FFFFFF;}
	.st1{fill-rule:evenodd;clip-rule:evenodd;fill:#FF0000;}
</style>
<g id="Background">
	<polygon class="st0" points="513.5,409 376.2,636.5 298,636.5 219.8,636.5 82.5,409 82.5,205.5 204.6,205.5 204.6,269.5 204.6,277 
		212.1,277 383.9,277 391.4,277 391.4,269.5 391.4,205.5 513.5,205.5 	"/>
	<path class="st1" d="M513.5,409L376.2,636.5H219.8L82.5,409V205.5h122.2V277h186.7v-71.5h122.2V409z M383.9,198v71.5H212.1V198H75
		v213.1L215.6,644h164.9L521,411.1V198H383.9z"/>
	<path class="st1" d="M498.5,404.8L367.7,621.5H228.3L97.5,404.8V220.4h92.1V292h216.8v-71.5h92.1V404.8z M398.9,213v71.5H197.1V213
		H90v193.9L224,629H372l134-222.2V213H398.9z"/>
	<path class="st1" d="M133.3,464.1l3.9,6.4l361.3-221v-8.8L133.3,464.1z M183.8,547.9l314.6-192.4v-8.8L180,541.5L183.8,547.9z"/>
	<path class="st1" d="M115,433.8l22.1,36.7l34.6-21.1V220.4H115V433.8z M215.9,601l12.4,20.5h44.3V484.9l-56.7,34.7V601z
		 M272.6,387.7V292h-56.7v130.4L272.6,387.7z M323.4,621.5h44.3l12.4-20.6V419.1l-56.7,34.7V621.5z M380.1,321.9v-30h-56.7v64.6
		L380.1,321.9z M424.3,527.8l56.7-94v-76.4l-56.7,34.7V527.8z M481,260.2v-39.8h-56.7v74.5L481,260.2z"/>
	<polygon class="st1" points="205.7,506.2 179.5,463.5 189,457.7 215.2,500.4 	"/>
	<polygon class="st1" points="223.5,495.2 218.5,487.1 227.5,481.6 232.6,489.7 	"/>
	<path class="st1" d="M271.1,442.9l-16.2-11.9l3.4,19.7L271.1,442.9z M299,449.1l-10.3,6.3l-10.1-7.2l-18.8,11.5l2.1,12l-10.1,6.2
		l-7.9-53.8l10-6.1L299,449.1z"/>
	<polygon class="st1" points="303.3,446.5 298.3,438.3 307.3,432.8 312.3,441 	"/>
	<path class="st1" d="M359.1,390.8l10.8-3c1.4,5.5,1.2,10.4-0.7,14.7c-1.9,4.3-5.4,7.9-10.4,11c-6.2,3.8-12.5,5-18.9,3.6
		c-6.4-1.4-11.7-5.5-15.8-12.2c-4.4-7.1-5.7-13.8-4.1-20.2c1.6-6.4,5.7-11.6,12.3-15.6c5.7-3.5,11.4-4.8,16.9-3.9
		c3.3,0.5,6.5,2.1,9.6,4.9l-8.1,7.8c-1.9-1.9-4.1-2.9-6.7-3.1c-2.6-0.2-5.1,0.5-7.6,2c-3.5,2.1-5.6,5-6.4,8.6
		c-0.8,3.6,0.4,7.9,3.5,13c3.3,5.4,6.7,8.6,10.3,9.6c3.5,1,7,0.4,10.5-1.7c2.5-1.5,4.2-3.6,5.2-6.2
		C360.4,397.5,360.2,394.4,359.1,390.8z"/>
	<polygon class="st1" points="385.4,396.2 380.4,388.1 389.4,382.5 394.5,390.7 	"/>
	<path class="st1" d="M441.3,340.5l10.8-3c1.4,5.5,1.2,10.4-0.7,14.7c-1.9,4.3-5.4,7.9-10.4,11c-6.2,3.8-12.5,5-18.9,3.6
		c-6.4-1.4-11.7-5.5-15.8-12.2c-4.4-7.1-5.7-13.8-4.1-20.2c1.6-6.4,5.7-11.6,12.3-15.6c5.8-3.5,11.4-4.8,16.9-3.9
		c3.2,0.5,6.5,2.1,9.6,4.9l-8.1,7.8c-1.9-1.9-4.1-2.9-6.7-3.1c-2.5-0.2-5.1,0.5-7.6,2c-3.5,2.1-5.6,5-6.4,8.6
		c-0.8,3.6,0.4,7.9,3.5,13c3.3,5.4,6.7,8.6,10.3,9.5c3.6,1,7,0.4,10.5-1.7c2.5-1.5,4.2-3.6,5.2-6.2
		C442.5,347.2,442.4,344.1,441.3,340.5z"/>
	<polygon class="st1" points="467.6,346 462.6,337.8 471.6,332.3 476.6,340.5 	"/>
</g>
<g id="Layer_1">
</g>
</svg>
