<svg xmlns="http://www.w3.org/2000/svg" xml:space="preserve" version="1.0" viewBox="6.75 9.85 521.24 760.17"><!-- Source: https://football-logos.cc --><path d="m269.761 779.867 264.985-400.955L269.761 0 0 378.912z" style="fill:#004292;fill-rule:evenodd" transform="matrix(.97475 0 0 .97475 6.752 9.847)" data-source="https://football-logos.cc"></path><path d="m269.55 733.734 234.123-354.258L269.554 42.73 31.212 379.48zm.077 18.143 246.207-372.543L269.629 25.2 18.982 379.336z" style="fill:#fff;fill-rule:evenodd"></path><path d="m269.7 695.27 209.651-315.507L269.407 77.787 60.022 379.539zm-.224 20.318 222.035-335.969-222.03-319.36L43.442 379.624z" style="fill:#fff;fill-rule:evenodd"></path><path d="M269.333 95.316 75.876 379.628 269.702 673.5l195.315-293.872zm.368 18.977 183.924 265.34c-52.548 34.576-115.381 54.668-183.062 54.677-67.662-.01-130.483-20.09-183.024-54.65zm-122.547 355.59c38.785 12.964 80.279 19.99 123.371 19.99h1.215l.006-.004c42.424-.119 83.282-7.054 121.52-19.752L269.701 655.356z" style="fill:#fff"></path><path d="m270.582 424.762-103.136-147.21 24.925-35.369 77.722 112.631 77.25-110.313 24.836 35.942z" style="fill:#fff;fill-rule:evenodd" transform="matrix(.97475 0 0 .97475 6.752 9.847)" data-source="https://football-logos.cc"></path><path d="m270.238 338.864-24.602-35.601 22.669-34.534-45.249-66.364 46.649-68.634 22.9 32.954-21.939 32.532 47.917 70.829z" style="fill:#fff;fill-rule:evenodd" transform="matrix(.97475 0 0 .97475 6.752 9.847)"></path><path d="M243.232 565.125c0 2.82.417 6.55 1.269 7.657.861 1.12 2.325 1.662 4.392 1.662 2.254 0 3.829-.547 4.72-1.662.892-1.115 1.34-4.838 1.34-7.657V521.42c0-2.82-.421-5.962-1.268-7.032-.867-1.097-2.373-1.642-4.534-1.642-2.114 0-3.613.573-4.533 1.704-.912 1.12-1.387 4.215-1.387 6.97zm31.051-12.552c0 25.93-9.245 35.3-25.132 35.3-23.881 0-25.18-16.778-25.18-35.3v-18.725c0-23.744 8.785-35.112 25.18-35.112s25.132 9.02 25.132 35.112zm7.558-50.738h56.777l-13.562 29.648h7.168v14.533h-13.818l-18.349 40.111h-18.216l18.418-40.11h-18.418v-14.534h25.09l6.496-14.146h-14.105c-4.003.63-4.612 3.488-5.467 5.232h-12.013v-20.734" style="fill:#fff;fill-rule:evenodd"></path><path d="m444.413 393.442-44.895 67.302c-40.273 14.429-83.665 22.299-128.86 22.304a3 3 0 0 0-.19.002c-45.438-.008-89.054-7.972-129.515-22.551l-44.349-67.12c50.9 30.333 110.348 47.75 173.96 47.756 63.565-.006 122.972-17.4 173.85-47.693"></path><path d="m172.771 470.024-7.755-2.321 1.215-25.961-.099-.029-13.146 22.39-7.904-2.365 1.227-38.307 7.805 2.335-1.613 25.842.099.03 13.395-22.316 7.308 2.188-1.254 26.273.099.03 13.136-22.719 7.656 2.291zM204.971 439.026l8.228 1.454 7.194 38.898-8.33-1.473-1.323-8.612-13.644-2.412-4.298 7.619-8.125-1.437zm-4.723 22.247 9.454 1.671-2.232-14.202-.103-.018zM230.026 442.993l8.121.658-2.442 30.105 18.001 1.461-.554 6.827-26.122-2.119zM260.569 445.328l15.979-.258c9.598-.155 16.906 5.746 17.104 18.041.174 10.739-5.196 18.818-16.506 19.001l-15.979.259zm8.634 30.063 7.263-.117c4.722-.076 9.188-3.055 9.056-11.252-.121-7.471-2.792-12.201-10.886-12.07l-5.811.094zM298.514 444.38l8.085-.994 1.735 14.11 14.883-1.83-1.735-14.11 8.086-.994 4.521 36.771-8.086.994-1.95-15.862-14.883 1.83 1.95 15.862-8.085.994zM351.962 434.771c11.159-2.647 19.699 4.126 22.238 14.831 2.468 10.4-2.12 20.289-13.278 22.937-11.158 2.646-19.699-4.127-22.166-14.528-2.54-10.705 2.048-20.594 13.206-23.24m7.379 31.102c7.119-1.689 8.357-8.383 6.933-14.392-1.497-6.312-5.61-11.735-12.73-10.046-7.119 1.688-8.357 8.382-6.86 14.693 1.425 6.01 5.538 11.434 12.657 9.745M374.843 429.651l24.611-8.533 2.244 6.472-16.915 5.864 2.806 8.089 14.658-5.082 2.074 5.981-14.659 5.082 5.015 14.463-7.697 2.669z" style="fill:#fff" transform="matrix(.97475 0 0 .97475 6.752 9.847)" data-source="https://football-logos.cc"></path><!-- source: https://football-logos.cc --></svg>