<svg xmlns="http://www.w3.org/2000/svg" viewBox="323.7 197.43 419.27 405.15"><!-- Source: https://football-logos.cc --><defs data-source="https://football-logos.cc"><clipPath id="a" clipPathUnits="userSpaceOnUse"><path d="M-335.259 382.352h800v-600h-800Z"></path></clipPath><clipPath id="b" clipPathUnits="userSpaceOnUse"><path d="M-302.429 374.684h800v-600h-800Z"></path></clipPath><clipPath id="c" clipPathUnits="userSpaceOnUse"><path d="M-312.414 377.639h800v-600h-800Z"></path></clipPath><clipPath id="d" clipPathUnits="userSpaceOnUse"><path d="M-294.241 359.587h800v-600h-800Z"></path></clipPath><clipPath id="e" clipPathUnits="userSpaceOnUse"><path d="M-487.587 377.639h800v-600h-800Z"></path></clipPath><clipPath id="f" clipPathUnits="userSpaceOnUse"><path d="M-529.802 317.97h800v-600h-800Z"></path></clipPath><clipPath id="g" clipPathUnits="userSpaceOnUse"><path d="M-307.94 311.94h800v-600h-800Z"></path></clipPath><clipPath id="h" clipPathUnits="userSpaceOnUse"><path d="M-471.89 259.938h800v-600h-800Z"></path></clipPath><clipPath id="i" clipPathUnits="userSpaceOnUse"><path d="M-328.11 259.938h800v-600h-800Z"></path></clipPath><clipPath id="j" clipPathUnits="userSpaceOnUse"><path d="M-514.066 227.707h800v-600h-800Z"></path></clipPath><clipPath id="k" clipPathUnits="userSpaceOnUse"><path d="M-303.108 268.965h800v-600h-800Z"></path></clipPath><clipPath id="l" clipPathUnits="userSpaceOnUse"><path d="M-313.013 246.2h800v-600h-800Z"></path></clipPath><clipPath id="m" clipPathUnits="userSpaceOnUse"><path d="M-270.198 317.97h800v-600h-800Z"></path></clipPath><clipPath id="n" clipPathUnits="userSpaceOnUse"><path d="M-326.512 280.867h800v-600h-800Z"></path></clipPath><clipPath id="o" clipPathUnits="userSpaceOnUse"><path d="M-347.52 322.443h800v-600h-800Z"></path></clipPath><clipPath id="p" clipPathUnits="userSpaceOnUse"><path d="M-324.395 335.743h800v-600h-800Z"></path></clipPath><clipPath id="q" clipPathUnits="userSpaceOnUse"><path d="M-452.48 322.443h800v-600h-800Z"></path></clipPath><clipPath id="r" clipPathUnits="userSpaceOnUse"><path d="M-473.488 280.867h800v-600h-800Z"></path></clipPath><clipPath id="s" clipPathUnits="userSpaceOnUse"><path d="M-487.906 306.947h800v-600h-800Z"></path></clipPath><clipPath id="t" clipPathUnits="userSpaceOnUse"><path d="M-492.06 311.94h800v-600h-800Z"></path></clipPath><clipPath id="u" clipPathUnits="userSpaceOnUse"><path d="M-496.893 268.965h800v-600h-800Z"></path></clipPath><clipPath id="v" clipPathUnits="userSpaceOnUse"><path d="M-486.987 246.2h800v-600h-800Z"></path></clipPath><clipPath id="w" clipPathUnits="userSpaceOnUse"><path d="M-505.759 359.587h800v-600h-800Z"></path></clipPath><clipPath id="x" clipPathUnits="userSpaceOnUse"><path d="M-497.571 374.684h800v-600h-800Z"></path></clipPath><clipPath id="y" clipPathUnits="userSpaceOnUse"><path d="M-306.502 379.596h800v-600h-800Z"></path></clipPath><clipPath id="z" clipPathUnits="userSpaceOnUse"><path d="M-306.543 253.948h800v-600h-800Z"></path></clipPath><clipPath id="A" clipPathUnits="userSpaceOnUse"><path d="M-493.458 253.948h800v-600h-800Z"></path></clipPath><clipPath id="B" clipPathUnits="userSpaceOnUse"><path d="M-305.185 410.988h800v-600h-800Z"></path></clipPath><clipPath id="C" clipPathUnits="userSpaceOnUse"><path d="M-319.363 409.51h800v-600h-800Z"></path></clipPath><clipPath id="D" clipPathUnits="userSpaceOnUse"><path d="M-334.1 424.367h800v-600h-800Z"></path></clipPath><clipPath id="E" clipPathUnits="userSpaceOnUse"><path d="M-345.643 428.002h800v-600h-800Z"></path></clipPath><clipPath id="F" clipPathUnits="userSpaceOnUse"><path d="M-361.618 417.458h800v-600h-800Z"></path></clipPath><clipPath id="G" clipPathUnits="userSpaceOnUse"><path d="M-366.531 432.915h800v-600h-800Z"></path></clipPath><clipPath id="H" clipPathUnits="userSpaceOnUse"><path d="M-379.391 434.592h800v-600h-800Z"></path></clipPath><clipPath id="I" clipPathUnits="userSpaceOnUse"><path d="M-397.084 435.63h800v-600h-800Z"></path></clipPath><clipPath id="J" clipPathUnits="userSpaceOnUse"><path d="M-414.978 434.791h800v-600h-800Z"></path></clipPath><clipPath id="K" clipPathUnits="userSpaceOnUse"><path d="M-434.028 431.677h800v-600h-800Z"></path></clipPath><clipPath id="L" clipPathUnits="userSpaceOnUse"><path d="M-438.502 431.876h800v-600h-800Z"></path></clipPath><clipPath id="M" clipPathUnits="userSpaceOnUse"><path d="M-459.629 426.644h800v-600h-800Z"></path></clipPath><clipPath id="N" clipPathUnits="userSpaceOnUse"><path d="M-466.618 424.248h800v-600h-800Z"></path></clipPath><clipPath id="O" clipPathUnits="userSpaceOnUse"><path d="M-478.28 415.302h800v-600h-800Z"></path></clipPath><clipPath id="P" clipPathUnits="userSpaceOnUse"><path d="M-492.18 412.426h800v-600h-800Z"></path></clipPath><clipPath id="Q" clipPathUnits="userSpaceOnUse"><path d="M-332.144 192.361h800v-600h-800Z"></path></clipPath><clipPath id="R" clipPathUnits="userSpaceOnUse"><path d="M-341.649 182.856h800v-600h-800Z"></path></clipPath><clipPath id="S" clipPathUnits="userSpaceOnUse"><path d="M-365.612 174.988h800v-600h-800Z"></path></clipPath><clipPath id="T" clipPathUnits="userSpaceOnUse"><path d="M-373.48 187.529h800v-600h-800Z"></path></clipPath><clipPath id="U" clipPathUnits="userSpaceOnUse"><path d="M-386.82 186.97h800v-600h-800Z"></path></clipPath><clipPath id="V" clipPathUnits="userSpaceOnUse"><path d="M-400.479 186.97h800v-600h-800Z"></path></clipPath><clipPath id="W" clipPathUnits="userSpaceOnUse"><path d="M-429.675 186.65h800v-600h-800Z"></path></clipPath><clipPath id="X" clipPathUnits="userSpaceOnUse"><path d="M-432.19 187.968h800v-600h-800Z"></path></clipPath><clipPath id="Y" clipPathUnits="userSpaceOnUse"><path d="M-446.889 173.71h800v-600h-800Z"></path></clipPath><clipPath id="Z" clipPathUnits="userSpaceOnUse"><path d="M-458.59 190.764h800v-600h-800Z"></path></clipPath><clipPath id="aa" clipPathUnits="userSpaceOnUse"><path d="M-400 314.815h800v-600h-800Z"></path></clipPath><clipPath id="ab" clipPathUnits="userSpaceOnUse"><path d="M-385.941 374.363h800v-600h-800Z"></path></clipPath><clipPath id="ac" clipPathUnits="userSpaceOnUse"><path d="M-418.611 371.049h800v-600h-800Z"></path></clipPath><clipPath id="ad" clipPathUnits="userSpaceOnUse"><path d="M-425.522 338.978h800v-600h-800Z"></path></clipPath><clipPath id="ae" clipPathUnits="userSpaceOnUse"><path d="M-397.204 322.443h800v-600h-800Z"></path></clipPath><clipPath id="af" clipPathUnits="userSpaceOnUse"><path d="M-372.722 344.29h800v-600h-800Z"></path></clipPath><clipPath id="ag" clipPathUnits="userSpaceOnUse"><path d="M-433.429 356.352h800v-600h-800Z"></path></clipPath><clipPath id="ah" clipPathUnits="userSpaceOnUse"><path d="M-404.474 383.95h800v-600h-800Z"></path></clipPath><clipPath id="ai" clipPathUnits="userSpaceOnUse"><path d="M-369.367 364.939h800v-600h-800Z"></path></clipPath><clipPath id="aj" clipPathUnits="userSpaceOnUse"><path d="M-376.556 325.638h800v-600h-800Z"></path></clipPath><clipPath id="ak" clipPathUnits="userSpaceOnUse"><path d="M-400 316.212h800v-600h-800Z"></path></clipPath></defs><path d="M0 0a148 148 0 0 1 10.823-11.023A181 181 0 0 0-1.238-6.11Zm184.358 154.804c.241 3.035.48 6.071.679 9.186 1.278 18.611 1.519 37.263 1.599 55.914-17.774-3.235-31.951.28-49.285 4.633-24.003 6.071-47.768 9.745-72.61 9.745s-48.606-3.674-72.609-9.745c-17.334-4.353-31.512-7.868-49.285-4.633.08-18.651.36-37.303 1.598-55.914.2-3.115.439-6.151.679-9.186-.719-.719-1.398-1.478-1.917-2.197-2.396.439-4.833.28-7.189.918-.36-1.517-1.598-3.114-1.598-4.672-.04-4.034-1.797-4.353-4.473-6.231-.2-2.077-.4-4.113-.28-6.19-3.754-.68-6.35-2.716-9.066-5.113l.359-1.318c-3.793-2.955-3.874-6.39-4.153-11.183l3.435.879-3.315-4.433c3.674-1.797 4.313-2.277 2.556-3.874-.48-.479-1.398-.679-2.237-1.398 5.552-6.19 6.47-4.992 7.669-14.338l3.355.998c.199-1.757 1.277-3.315 1.677-5.192.359-1.877 1.118-3.514 1.797-5.551 1.039 1.038 2.277 1.877 3.994 2.237a6.9 6.9 0 0 0 1.038-2.636c.2-.12 1.997.599 2.317.319l-1.478-7.908a18.5 18.5 0 0 1-2.915-3.635c-5.752 4.274-13.579 5.432-19.77 1.318-5.711-3.794-9.106-12.261-6.55-18.771 1.278-3.275 3.714-6.19 6.31-9.745.879-1.198 1.318-1.638.919-2.357-1.358-2.276-4.793-1.957-6.271-2.037-1.877-4.912-3.355-9.905 1.438-14.058-.4-2.277-1.358-4.274-2.236-6.31 3.075-.519 7.069-1.638 10.184-.959l-1.797-7.189c11.582-.039 10.304 3.554 20.049 7.708-1.079 1.278-1.717 2.356-2.117 3.875 1.997-.24 3.994-.16 6.031.319-.679 1.357-.998 2.716-1.118 4.113 1.917-3.474 4.792-7.668 5.671-11.622.559-2.675 1.278-4.353 2.237-5.391l-12.262-4.553-3.314-1.238 1.997-2.915c3.434-4.873 7.388-9.227 11.742-13.141 3.714-3.354 7.708-6.391 11.862-9.266a133 133 0 0 0-7.829-13.739l-1.438-2.197 2.118-1.518c63.383-45.609 165.028-45.569 228.371 0l2.117 1.518-1.438 2.197a133 133 0 0 0-7.828 13.739c4.154 2.875 8.148 5.912 11.862 9.266 4.353 3.914 8.307 8.268 11.742 13.141l1.996 2.915-3.315 1.238-12.261 4.553c.959 1.038 1.677 2.716 2.237 5.391.879 3.954 3.755 8.148 5.672 11.622-.08-1.397-.44-2.756-1.119-4.113 2.037-.479 4.034-.559 6.071-.319-.439-1.519-1.079-2.597-2.157-3.875 9.746-4.154 8.467-7.747 20.05-7.708l-1.797 7.189c3.114-.679 7.108.44 10.223.959-.919 2.036-1.877 4.033-2.276 6.31 4.792 4.153 3.315 9.146 1.439 14.058-1.479.08-4.914-.239-6.272 2.037-.399.719.04 1.159.919 2.357 2.596 3.555 5.032 6.47 6.311 9.745 2.555 6.51-.839 14.977-6.55 18.771-6.191 4.114-14.019 2.956-19.771-1.318a18.5 18.5 0 0 1-2.915 3.635l-1.477 7.908c.319.28 2.116-.439 2.315-.319.16.958.52 1.837 1.039 2.636 1.718-.36 2.955-1.199 3.994-2.237.679 2.037 1.438 3.674 1.797 5.551.4 1.877 1.478 3.435 1.678 5.192l3.354-.998c1.199 9.346 2.118 8.148 7.669 14.338-.839.719-1.757.919-2.237 1.398-1.757 1.597-1.118 2.077 2.557 3.874l-3.316 4.433 3.435-.879c-.279 4.793-.36 8.228-4.154 11.183l.36 1.318c-2.716 2.397-5.312 4.433-9.067 5.113.121 2.077-.08 4.113-.279 6.19-2.676 1.878-4.433 2.197-4.473 6.231 0 1.558-1.239 3.155-1.597 4.672-2.357-.638-4.793-.479-7.19-.918-.518.719-1.198 1.478-1.917 2.197M-25.96 39.14c-2.037.32-4.074.599-6.071.919-.679 3.634-1.198 5.591-2.317 7.189-.839-.919-1.757-1.798-2.636-2.637 2.876-4.193 6.51-8.587 10.904-13.259a207 207 0 0 1 9.386-9.186c-3.236 5.671-6.431 11.023-9.266 16.974m181.402 0c2.037.32 4.075.599 6.072.919.678 3.634 1.197 5.63 2.316 7.189a41 41 0 0 1 2.636-2.637c-2.876-4.193-6.51-8.587-10.903-13.259a208 208 0 0 0-9.386-9.186c3.235 5.671 6.43 11.023 9.265 16.974m-36.784-50.163A148 148 0 0 1 129.482 0l1.239-6.11a181 181 0 0 0-12.063-4.913" clip-path="url(#a)" style="fill:#fff;fill-opacity:1;fill-rule:nonzero;stroke:none" transform="matrix(1.33333 0 0 -1.33333 447.012 509.802)"></path><path d="M0 0c-4.873-1.039-8.906-.639-13.699.28l.479 1.717-13.219-4.912c2.635-3.396 5.631-6.471 8.786-9.346 3.315-2.995 7.429-6.191 11.143-8.747C-3.555-14.338-2.077-7.029 0 0" clip-path="url(#b)" style="fill:#0b66ab;fill-opacity:1;fill-rule:nonzero;stroke:none" transform="matrix(1.33333 0 0 -1.33333 403.238 499.578)"></path><path d="M0 0c4.673-2.836 11.742-6.071 16.495-8.428l1.517 7.549z" clip-path="url(#c)" style="fill:#0b66ab;fill-opacity:1;fill-rule:nonzero;stroke:none" transform="matrix(1.33333 0 0 -1.33333 416.551 503.518)"></path><path d="m0 0 .56-.119c2.356-1.078 4.552-2.676 5.551-5.152l3.235-7.789 23.284-.999C25.042-7.708 16.455-.958 10.983 4.833 6.79 9.267 3.195 13.539.32 17.613Z" clip-path="url(#d)" style="fill:#0b66ab;fill-opacity:1;fill-rule:nonzero;stroke:none" transform="matrix(1.33333 0 0 -1.33333 392.322 479.45)"></path><path d="M0 0c-4.674-2.836-11.742-6.071-16.495-8.428l-1.518 7.549z" clip-path="url(#e)" style="fill:#0b66ab;fill-opacity:1;fill-rule:nonzero;stroke:none" transform="matrix(1.33333 0 0 -1.33333 650.116 503.518)"></path><path d="M0 0c6.79.839 8.547-2.916 7.029-7.109-1.758-4.993-5.711-5.592-7.669-9.027-.797-1.358-2.076-6.27-1.797-7.788.28-1.318 1.239-2.316 2.517-3.555 2.755-2.715 2.276-2.156.879-5.71 1.078-.081 2.116.04 3.114.239 4.155.839 2.238-5.791 1.198-7.628.959-.48 1.239-.68 1.718-1.119 1.598-1.557 2.716-2.197 4.274-3.116-.6 1.599-1.159 3.555-.16 5.273.918 1.558 1.917 3.315 2.596 5.392 1.358-2.716 3.115-3.874 5.312-3.555l-1.598 4.514c4.354 1.277 5.112 3.713 4.193 6.629-.677-1.637-2.236-2.876-7.428-2.555-.838 1.198-1.837 2.316-4.033 2.395-.201 1.758-.281 3.476.399 4.913 1.158-.679 2.756-.839 3.954-.719-1.478 4.034-1.797 5.112.998 7.988 4.274 4.474 8.148 9.306 5.512 16.016-1.997 5.112-6.152 7.029-10.265 6.789C6.75 8.067 2.556 5.631-.12 1.758-.04 1.158 0 .56 0 0" clip-path="url(#f)" style="fill:#0b66ab;fill-opacity:1;fill-rule:nonzero;stroke:none" transform="matrix(1.33333 0 0 -1.33333 706.402 423.96)"></path><path d="M0 0c5.472-6.83 5.871-14.538 4.433-22.565 6.311-1.757 12.461-3.834 19.411-6.111 1.677-.558 2.036-.879 2.635-2.316.879-2.117 1.598-5.712 2.038-8.029-3.156-.159-6.191-.04-9.067.44a510 510 0 0 1 1.758 6.111c-6.151 4.353-13.3 5.751-21.248 6.949-.679 3.555-2.356 6.75-6.111 9.266 1.518 3.914 1.757 8.627 1.797 12.78C-2.956-2.636-1.558-1.558-.12-.12z" clip-path="url(#g)" style="fill:#0b66ab;fill-opacity:1;fill-rule:nonzero;stroke:none" transform="matrix(1.33333 0 0 -1.33333 410.587 415.92)"></path><path d="M0 0c-3.994 1.398-9.106 4.553-13.46 6.51-1.598.719-2.915 1.558-4.273 1.678-1.119.119-2.078-1.159-4.593-2.637a74 74 0 0 1-3.954-2.555c1.997-3.156 4.193-5.831 7.029-6.75.52 1.797 1.158 3.514 1.957 4.992.68 1.199 1.038.919.799 2.317 5.271-.08 11.062-8.388 18.053-8.747.159-5.352 1.237-9.426 2.715-12.94 2.836 2.596 6.111 4.753 9.665 6.19-1.597 2.197-3.753 4.913-5.63 7.19-.959 1.198-1.998 2.476-2.876 3.114C3.834-.439 1.877-.639 0 0" clip-path="url(#h)" style="fill:#0b66ab;fill-opacity:1;fill-rule:nonzero;stroke:none" transform="matrix(1.33333 0 0 -1.33333 629.187 346.585)"></path><path d="M0 0c3.994 1.398 9.106 4.553 13.459 6.51 1.598.719 2.916 1.558 4.273 1.678 1.119.119 2.078-1.159 4.594-2.637a74 74 0 0 0 3.954-2.555c-1.997-3.156-4.194-5.831-7.03-6.75-.519 1.797-1.158 3.514-1.957 4.992-.678 1.199-1.038.919-.798 2.317-5.272-.08-11.024-8.388-18.053-8.747-.16-5.352-1.238-9.426-2.716-12.94-2.795 2.596-6.11 4.753-9.665 6.19 1.598 2.197 3.754 4.913 5.631 7.19.959 1.198 1.997 2.476 2.876 3.114C-3.834-.439-1.877-.639 0 0" clip-path="url(#i)" style="fill:#0b66ab;fill-opacity:1;fill-rule:nonzero;stroke:none" transform="matrix(1.33333 0 0 -1.33333 437.48 346.585)"></path><path d="M0 0c1.597 18.571 2.236 38.341 2.315 58.67-14.817-2.676-34.746 3.475-53.557 8.028-41.138 9.945-84.511 9.945-125.649 0-18.811-4.553-38.74-10.704-53.558-8.028.08-20.329.719-40.099 2.317-58.67 1.597 0 3.154-.12 4.753-.4a26 26 0 0 0 4.113-1.078c.28.12.519.2.719.32.319.159.719.439 1.158.799 1.638 1.158 3.555.958 5.672.718.559-.04 1.877-.159 2.556-.199.199-.16.439-.32.639-.479v20.488h20.968v-50.443c.279.08.559.16.799.24 2.196.759 4.872 2.196 7.588 3.594 1.877.999 3.794 1.958 5.711 2.836 1.638.759 3.155 1.677 4.993 1.877.758.08 1.358 0 1.917-.279v42.175h21.007V-85.949a48 48 0 0 0 21.008 10.543v95.575h20.928v-95.575a48 48 0 0 0 21.009-10.543V20.169h21.007v-42.175c.56.279 1.158.359 1.918.279 1.837-.2 3.355-1.118 4.992-1.877a108 108 0 0 0 5.711-2.836c2.716-1.398 5.392-2.835 7.589-3.594.239-.08.519-.16.799-.24v50.443h20.967V-.319c.24.159.44.319.639.479.68.04 1.997.159 2.557.199 2.156.24 4.034.44 5.671-.718.439-.36.839-.64 1.158-.799.2-.12.44-.2.72-.32A26 26 0 0 0-4.753-.4C-3.156-.12-1.598 0 0 0" clip-path="url(#j)" style="fill:#0b66ab;fill-opacity:1;fill-rule:nonzero;stroke:none" transform="matrix(1.33333 0 0 -1.33333 685.422 303.61)"></path><path d="M0 0c1.118-1.717 2.756-2.956 4.833-3.395 4.033-.878 8.786-2.636 13.419-6.629 3.994-3.435 7.109-8.148 10.384-12.382 1.438-1.877 1.637-2.755 4.074-3.315 2.356-.519 5.352-.559 7.588-1.118 1.319-.359 2.516-.839 2.916-1.717.958-2.037 1.877-3.674 2.716-6.031 1.278-3.515 3.474-7.469 4.513-11.263.279-1.118 1.198-4.313.799-5.471-.12-.44-.44-.6-1.398-.56-2.556.16-5.152.679-7.709 1.359.679 1.636 1.279 3.234 2.996 4.073-.12 1.318.2 2.555.559 3.874-1.357 2.995-3.594 6.35-5.511 9.945-.72 1.358-1.079 1.957-2.796 2.276-4.473.839-8.827.28-13.06 2.597-3.755 2.076-8.028 2.436-12.342 1.997-.039-3.236-1.917-6.311-3.634-8.987-3.674-5.711-6.95-8.667-10.224-10.345.08-4.113-.28-11.861-2.477-14.976-3.474-4.953-9.425-8.747-13.738-13.38-1.398-1.478-1.239-.918-.48-2.716 2.037-4.912 3.395-10.144 4.873-15.257 3.155-.719 7.509-2.196 8.786-5.351a353 353 0 0 0 2.836-6.87c-2.996-.638-6.111-.638-9.385 0 .598 2.157 1.078 4.394 1.158 7.269-4.473.08-6.031-.639-6.75 2.717-.519 2.395-1.717 4.712-2.796 7.028-1.837 4.034-3.994 7.988-6.829 11.303 1.517 4.353 2.875 9.665.519 13.899-3.036 5.471-6.031 10.264-3.475 17.014 1.598 4.193 3.994 5.911 6.71 7.588 3.754 2.316 6.35 4.433 9.106 7.948 4.234 5.432 4.393 10.185.12 15.936-1.798 2.436-3.874 4.873-5.312 6.949-4.753 6.83-7.229 14.898-5.751 22.646.878 4.593 2.796 8.706 7.588 11.462 4.114 2.357 9.586 2.676 14.897 2.916 1.438-.679 3.195-1.598 5.312-2.796 1.158-.639 1.398-.879 2.117-1.997a41.4 41.4 0 0 0 3.355-5.951c3.395-1.518 5.871-2.956 6.43-4.193l-6.51-.919c-.239-2.317-.839-4.313-1.677-5.991C5.432 6.55 5.511 2.796 5.072-.199 2.596-.519 2.037.719.519 2.517c-1.478 0-2.596-.2-2.796 1.517-.319 2.636-.079 4.593-2.276 6.55-2.237 1.997-4.114 4.313-3.275 8.946.279 1.598-1.797 1.758-1.957.32-.36-3.235-.24-5.552.639-7.229 1.357-2.556 3.954-2.955 4.713-6.35C-3.714 3.116-4.114-.199 0 0" clip-path="url(#k)" style="fill:#0b66ab;fill-opacity:1;fill-rule:nonzero;stroke:none" transform="matrix(1.33333 0 0 -1.33333 404.144 358.62)"></path><path d="M0 0c1.917-.559 4.154-.839 6.63-.839-1.238 1.877-2.676 3.475-4.433 4.553C1.118 7.708.16 12.021-1.478 14.618l-1.957-3.954c-.919 1.198-1.837 2.316-2.876 3.395a20.7 20.7 0 0 1-2.595 2.316c-2.397.08-4.753.798-6.031-.16-1.079-.759-1.718-1.238-3.355-1.597q-4.433 1.557-8.867 1.557c-2.716-2.676-2.955-2.196-2.675-5.911-2.956-.16-5.872 1.717-8.827 1.318-.999-1.917.28-2.157 1.198-2.476.719-.24 1.238-.599.28-1.837a6.9 6.9 0 0 1-1.278-2.756c-2.197-.08-3.235-.439-4.154-1.078-.239-2.716.28-5.791.599-8.787-2.836.24-4.313.519-5.712.08-.998-.32-1.996-.999-3.474-2.277l.399-2.076q-4.193-.06-4.433-4.434c1.718 1.758 3.475 1.558 5.233-.599l-3.276-4.833c1.478-1.078 3.075-2.196 3.755-3.155.599-.838.08-1.397-1.119-1.957-1.038-.479-2.316-1.118-2.836-1.917.48-.798 2.038-1.198 3.196-2.077 1.198-.878 1.637-2.715 1.956-4.832 1.798.519 4.794 2.596 4.594.12-.16-1.718-.6-3.275-.399-4.793.159-1.318 1.157-2.476 1.437-3.754 1.039.718 7.509 5.352 7.07 2.196-.24-1.837-.48-3.714-.759-5.551 1.437-.958 2.676-2.077 3.594-3.555l-.799-4.233c1.358.439 3.275.559 4.873-.679 2.636 2.436 5.871 6.19 5.911 9.905.079 4.872-5.352 9.825-8.028 13.699-4.913 7.069-7.748 15.816-6.11 24.403 1.078 5.591 3.674 10.144 8.706 13.02 4.713 2.715 10.624 2.995 15.936 3.234 1.318-.319 3.275-1.477 5.072-2.356 1.078-.519 2.276-1.038 3.155-1.877C-2.356 4.752-1.079 2.157 0 0" clip-path="url(#l)" style="fill:#0b66ab;fill-opacity:1;fill-rule:nonzero;stroke:none" transform="matrix(1.33333 0 0 -1.33333 417.35 328.266)"></path><path d="M0 0c-6.79.839-8.547-2.916-7.029-7.109 1.757-4.993 5.711-5.592 7.668-9.027.798-1.358 2.076-6.27 1.797-7.788-.28-1.318-1.238-2.316-2.516-3.555-2.756-2.715-2.276-2.156-.879-5.71-1.078-.081-2.116.04-3.115.239-4.154.839-2.277-5.791-1.238-7.628-.919-.48-1.198-.68-1.677-1.119-1.598-1.557-2.717-2.197-4.274-3.116.599 1.599 1.159 3.555.16 5.273-.918 1.558-1.918 3.315-2.596 5.392-1.359-2.716-3.116-3.874-5.312-3.555l1.597 4.514c-4.353 1.277-5.112 3.713-4.193 6.629.679-1.637 2.236-2.876 7.428-2.555.799 1.198 1.838 2.316 4.034 2.395.2 1.758.28 3.476-.399 4.913-1.158-.679-2.756-.839-3.954-.719 1.477 4.034 1.797 5.112-.999 7.988-4.273 4.474-8.147 9.306-5.511 16.016 1.997 5.112 6.151 7.029 10.264 6.789C-6.75 8.067-2.557 5.631.12 1.758.04 1.158 0 .56 0 0" clip-path="url(#m)" style="fill:#0b66ab;fill-opacity:1;fill-rule:nonzero;stroke:none" transform="matrix(1.33333 0 0 -1.33333 360.264 423.96)"></path><path d="M0 0c2.796-3.155 5.352-6.629 7.788-10.064.599-.799.919-1.239 2.037-1.478 3.435-.799 8.507-.28 11.183-2.875v29.234a42 42 0 0 0-1.717-.598c-.68 2.276-1.279 4.712-2.437 6.829-.878 1.598-4.273-1.637-5.272-2.356-2.835-2.037-5.871-4.234-9.346-4.993C1.997 10.025 1.198 6.75 0 3.515Z" clip-path="url(#n)" style="fill:#0b66ab;fill-opacity:1;fill-rule:nonzero;stroke:none" transform="matrix(1.33333 0 0 -1.33333 435.35 374.489)"></path><path d="M0 0c-1.837.399-3.634.919-5.472 1.397.999 2.317 1.877 5.273 3.834 6.871.08.838.24 1.637.44 2.436-1.518 3.115-3.475 5.99-5.073 9.066-1.078 1.958-3.115 1.398-5.271 1.597-3.116.24-6.231.52-9.466 2.197V-13.3L0-8.667Z" clip-path="url(#o)" style="fill:#0b66ab;fill-opacity:1;fill-rule:nonzero;stroke:none" transform="matrix(1.33333 0 0 -1.33333 463.36 429.925)"></path><path d="M0 0c-4.752 9.146-8.826 18.771-12.301 28.796-.519-.719-1.038-1.398-1.517-2.036-.36-.44-.68-.839-1.039-1.239 5.432-6.589 6.59-14.378 5.432-22.605C-6.27 1.997-3.155 1.038 0 0" clip-path="url(#p)" style="fill:#0b66ab;fill-opacity:1;fill-rule:nonzero;stroke:none" transform="matrix(1.33333 0 0 -1.33333 432.527 447.658)"></path><path d="M0 0c1.838.399 3.635.919 5.472 1.397-.998 2.317-1.877 5.273-3.834 6.871-.079.838-.24 1.637-.44 2.436 1.519 3.115 3.475 5.99 5.073 9.066 1.078 1.958 3.115 1.398 5.272 1.597 3.115.24 6.23.52 9.466 2.197V-13.3L0-8.667Z" clip-path="url(#q)" style="fill:#0b66ab;fill-opacity:1;fill-rule:nonzero;stroke:none" transform="matrix(1.33333 0 0 -1.33333 603.306 429.925)"></path><path d="M0 0c-2.796-3.155-5.353-6.629-7.789-10.064-.599-.799-.918-1.239-2.036-1.478-3.435-.799-8.508-.28-11.184-2.875v29.234c.52-.199 1.119-.399 1.718-.598.679 2.276 1.278 4.712 2.437 6.829.877 1.598 4.273-1.637 5.271-2.356 2.836-2.037 5.871-4.234 9.346-4.993C-1.997 10.025-1.198 6.75 0 3.515Z" clip-path="url(#r)" style="fill:#0b66ab;fill-opacity:1;fill-rule:nonzero;stroke:none" transform="matrix(1.33333 0 0 -1.33333 631.318 374.489)"></path><path d="M0 0c-3.475-10.024-7.549-19.649-12.302-28.796a320 320 0 0 0 9.426 2.916c-1.158 8.227 0 16.016 5.432 22.605-.36.4-.679.799-1.038 1.239C1.038-1.397.519-.719 0 0" clip-path="url(#s)" style="fill:#0b66ab;fill-opacity:1;fill-rule:nonzero;stroke:none" transform="matrix(1.33333 0 0 -1.33333 650.542 409.263)"></path><path d="M0 0c-5.472-6.83-5.871-14.538-4.434-22.565-6.31-1.757-12.461-3.834-19.41-6.111-1.677-.558-2.037-.879-2.635-2.316-.879-2.117-1.598-5.712-2.038-8.029 3.156-.159 6.191-.04 9.067.44a492 492 0 0 0-1.757 6.111c6.15 4.353 13.299 5.751 21.247 6.949.679 3.555 2.356 6.75 6.11 9.266-1.517 3.914-1.756 8.627-1.796 12.78C2.955-2.636 1.558-1.558.12-.12z" clip-path="url(#t)" style="fill:#0b66ab;fill-opacity:1;fill-rule:nonzero;stroke:none" transform="matrix(1.33333 0 0 -1.33333 656.08 415.92)"></path><path d="M0 0c-1.118-1.717-2.757-2.956-4.833-3.395-4.034-.878-8.787-2.636-13.42-6.629-3.993-3.435-7.109-8.148-10.384-12.382-1.437-1.877-1.637-2.755-4.074-3.315-2.355-.519-5.352-.559-7.588-1.118-1.317-.359-2.515-.839-2.916-1.717-.958-2.037-1.877-3.674-2.716-6.031-1.277-3.515-3.474-7.469-4.512-11.263-.28-1.118-1.199-4.313-.799-5.471.12-.44.439-.6 1.398-.56 2.556.16 5.152.679 7.708 1.359-.678 1.636-1.278 3.234-2.995 4.073.119 1.318-.201 2.555-.559 3.874 1.357 2.995 3.593 6.35 5.511 9.945.718 1.358 1.078 1.957 2.795 2.276 4.474.839 8.827.28 13.061 2.597 3.754 2.076 8.027 2.436 12.342 1.997.04-3.236 1.916-6.311 3.633-8.987 3.675-5.711 6.95-8.667 10.225-10.345-.08-4.113.279-11.861 2.476-14.976 3.474-4.953 9.425-8.747 13.739-13.38 1.397-1.478 1.238-.918.479-2.716-2.036-4.912-3.395-10.144-4.873-15.257-3.155-.719-7.508-2.196-8.786-5.351a353 353 0 0 1-2.836-6.87c2.996-.638 6.111-.638 9.386 0-.599 2.157-1.078 4.394-1.158 7.269 4.473.08 6.03-.639 6.75 2.717.518 2.395 1.717 4.712 2.796 7.028 1.837 4.034 3.994 7.988 6.829 11.303-1.518 4.353-2.875 9.665-.519 13.899 3.035 5.471 6.029 10.264 3.474 17.014-1.597 4.193-3.993 5.911-6.709 7.588-3.754 2.316-6.351 4.433-9.107 7.948-4.233 5.432-4.392 10.185-.12 15.936 1.798 2.436 3.874 4.873 5.313 6.949 4.753 6.83 7.228 14.898 5.751 22.646-.878 4.593-2.796 8.706-7.588 11.462-4.114 2.357-9.586 2.676-14.899 2.916-1.437-.679-3.194-1.598-5.311-2.796-1.158-.639-1.398-.879-2.116-1.997a41.3 41.3 0 0 1-3.356-5.951c-3.394-1.518-5.87-2.956-6.43-4.193l6.511-.919c.239-2.317.838-4.313 1.677-5.991 1.318-2.636 1.238-6.39 1.677-9.385 2.476-.32 3.036.918 4.553 2.716 1.478 0 2.596-.2 2.795 1.517.321 2.636.081 4.593 2.278 6.55 2.236 1.997 4.113 4.313 3.274 8.946-.279 1.598 1.798 1.758 1.958.32.36-3.235.239-5.552-.639-7.229-1.358-2.556-3.955-2.955-4.713-6.35C3.714 3.116 4.113-.199 0 0" clip-path="url(#u)" style="fill:#0b66ab;fill-opacity:1;fill-rule:nonzero;stroke:none" transform="matrix(1.33333 0 0 -1.33333 662.523 358.62)"></path><path d="M0 0c-1.917-.559-4.153-.839-6.63-.839 1.238 1.877 2.676 3.475 4.433 4.553 1.079 3.994 2.037 8.307 3.676 10.904l1.956-3.954c.919 1.198 1.837 2.316 2.876 3.395a20.7 20.7 0 0 0 2.595 2.316c2.397.08 4.753.798 6.032-.16 1.078-.759 1.716-1.238 3.354-1.597q4.433 1.557 8.866 1.557c2.716-2.676 2.956-2.196 2.676-5.911 2.956-.16 5.871 1.717 8.827 1.318.999-1.917-.279-2.157-1.198-2.476-.719-.24-1.238-.599-.28-1.837a6.95 6.95 0 0 0 1.279-2.756c2.195-.08 3.234-.439 4.152-1.078.24-2.716-.279-5.791-.598-8.787 2.836.24 4.313.519 5.711.08.999-.32 1.997-.999 3.474-2.277l-.398-2.076q4.192-.06 4.432-4.434c-1.717 1.758-3.474 1.558-5.231-.599l3.274-4.833c-1.477-1.078-3.075-2.196-3.754-3.155-.599-.838-.08-1.397 1.119-1.957 1.039-.479 2.316-1.118 2.835-1.917-.479-.798-2.037-1.198-3.195-2.077-1.198-.878-1.637-2.715-1.957-4.832-1.798.519-4.793 2.596-4.593.12.16-1.718.599-3.275.4-4.793-.16-1.318-1.158-2.476-1.439-3.754-1.038.718-7.507 5.352-7.068 2.196.239-1.837.479-3.714.759-5.551-1.438-.958-2.676-2.077-3.595-3.555l.798-4.233c-1.358.439-3.275.559-4.872-.679-2.636 2.436-5.871 6.19-5.911 9.905-.08 4.872 5.352 9.825 8.028 13.699 4.912 7.069 7.748 15.816 6.11 24.403C35.865-.08 33.27 4.473 28.236 7.349c-4.712 2.715-10.623 2.995-15.934 3.234-1.32-.319-3.276-1.477-5.073-2.356C6.15 7.708 4.952 7.189 4.074 6.35 2.356 4.752 1.078 2.157 0 0" clip-path="url(#v)" style="fill:#0b66ab;fill-opacity:1;fill-rule:nonzero;stroke:none" transform="matrix(1.33333 0 0 -1.33333 649.316 328.266)"></path><path d="m0 0-.559-.119c-2.356-1.078-4.553-2.676-5.552-5.152l-3.235-7.789-23.284-.999C-25.042-7.708-16.455-.958-10.983 4.833c4.193 4.434 7.788 8.706 10.664 12.78z" clip-path="url(#w)" style="fill:#0b66ab;fill-opacity:1;fill-rule:nonzero;stroke:none" transform="matrix(1.33333 0 0 -1.33333 674.345 479.45)"></path><path d="M0 0c4.872-1.039 8.906-.639 13.699.28l-.479 1.717 13.219-4.912c-2.635-3.396-5.63-6.471-8.787-9.346-3.314-2.995-7.427-6.191-11.142-8.747C3.555-14.338 2.076-7.029 0 0" clip-path="url(#x)" style="fill:#0b66ab;fill-opacity:1;fill-rule:nonzero;stroke:none" transform="matrix(1.33333 0 0 -1.33333 663.428 499.578)"></path><path d="M0 0c-1.558-5.712-3.435-11.663-5.831-17.214-2.836-6.35-6.071-12.461-9.545-17.973 60.867-42.215 156.919-42.215 217.748 0-3.475 5.512-6.71 11.623-9.545 17.973-2.397 5.551-4.275 11.502-5.832 17.214-20.888-13.38-42.576-22.086-64.542-26.16C140.186-15.137 156.123.039 170.3 22.365c3.196 5.032 6.151 10.544 8.907 16.296-4.234-.879-8.387-2.157-12.142-4.473.639-2.317 1.318-4.633 1.997-6.95-3.594-.638-6.909-.879-10.384-.919-15.377-22.725-36.345-41.337-65.18-53.757-28.837 12.42-49.805 31.032-65.181 53.757-3.475.04-6.79.281-10.384.919.679 2.317 1.358 4.633 1.997 6.95-3.755 2.316-7.909 3.594-12.181 4.473 2.755-5.752 5.751-11.264 8.946-16.296C30.873.039 46.809-15.137 64.542-26.16 42.575-22.086 20.888-13.38 0 0" clip-path="url(#y)" style="fill:#0b66ab;fill-opacity:1;fill-rule:nonzero;stroke:none" transform="matrix(1.33333 0 0 -1.33333 408.67 506.128)"></path><path d="M0 0c1.039 0 1.917-1.797 1.438-2.676-1.198-2.036-2.476-.799-3.075.919C-1.917-1.038-.839.04 0 0" clip-path="url(#z)" style="fill:#fff;fill-opacity:1;fill-rule:nonzero;stroke:none" transform="matrix(1.33333 0 0 -1.33333 408.723 338.597)"></path><path d="M0 0c-1.039 0-1.918-1.797-1.398-2.676 1.158-2.036 2.436-.799 3.035.919C1.916-1.038.838.04 0 0" clip-path="url(#A)" style="fill:#fff;fill-opacity:1;fill-rule:nonzero;stroke:none" transform="matrix(1.33333 0 0 -1.33333 657.944 338.597)"></path><path d="m0 0 7.988 14.458 3.355-1.837c1.158-.64 1.996-1.238 2.595-1.758.6-.559 1.039-1.118 1.359-1.797.319-.678.479-1.358.439-2.116 0-.72-.2-1.398-.559-2.037-.759-1.438-1.917-2.237-3.435-2.476-1.478-.24-3.155.2-5.032 1.198l-.56.319-.519.319-3.115-5.63Zm6.79 6.391 1.158-.639c1.118-.6 2.037-.879 2.836-.799s1.398.479 1.837 1.237c.399.799.439 1.518.04 2.198-.36.678-1.199 1.357-2.436 2.037l-.919.518z" clip-path="url(#B)" style="fill:#fff;fill-opacity:1;fill-rule:nonzero;stroke:none" transform="matrix(1.33333 0 0 -1.33333 406.913 547.984)"></path><path d="M0 0a8.9 8.9 0 0 0 1.558 2.517 8 8 0 0 0 2.156 1.837c1.119.678 2.317 1.079 3.595 1.158a8.45 8.45 0 0 0 3.714-.599 8.05 8.05 0 0 0 2.636-1.837A8.2 8.2 0 0 0 15.377.319a8.6 8.6 0 0 0 .519-3.314 9.3 9.3 0 0 0-.759-3.395c-.479-1.158-1.118-2.117-1.917-2.916a8.2 8.2 0 0 0-2.756-1.917c-1.038-.439-2.077-.678-3.195-.678a8.3 8.3 0 0 0-3.115.599c-1.038.439-1.917 1.037-2.636 1.837A8.2 8.2 0 0 0-.199-6.71a8.7 8.7 0 0 0-.56 3.315C-.719-2.236-.479-1.118 0 0m2.756-1.158c-.679-1.558-.759-3.074-.28-4.513.48-1.437 1.398-2.476 2.756-3.035 1.358-.6 2.716-.56 4.114.119 1.358.64 2.396 1.758 3.075 3.356.639 1.557.759 3.075.28 4.513s-1.398 2.476-2.796 3.035q-2.037.899-4.073-.12C4.434 1.558 3.435.439 2.756-1.158" clip-path="url(#C)" style="fill:#fff;fill-opacity:1;fill-rule:nonzero;stroke:none" transform="matrix(1.33333 0 0 -1.33333 425.817 546.014)"></path><path d="m0 0 5.112 15.695 2.756-.878L3.555 1.558 10.304-.64l-.799-2.476Z" clip-path="url(#D)" style="fill:#fff;fill-opacity:1;fill-rule:nonzero;stroke:none" transform="matrix(1.33333 0 0 -1.33333 445.467 565.823)"></path><path d="m0 0 4.273 15.936 2.836-.759L2.835-.759Z" clip-path="url(#E)" style="fill:#fff;fill-opacity:1;fill-rule:nonzero;stroke:none" transform="matrix(1.33333 0 0 -1.33333 460.857 570.67)"></path><path d="m0 0-2.676-13.739-2.875.558L-2.875.559l-5.472 1.039.479 2.475L5.911 1.398l-.479-2.476Z" clip-path="url(#F)" style="fill:#fff;fill-opacity:1;fill-rule:nonzero;stroke:none" transform="matrix(1.33333 0 0 -1.33333 482.158 556.61)" data-source="https://football-logos.cc"></path><path d="m0 0 2.316 16.375 9.505-1.317-.359-2.517-6.71.919-.559-4.034 5.751-.798-.319-2.477-5.791.799-.679-4.793 6.829-.959-.359-2.554Z" clip-path="url(#G)" style="fill:#fff;fill-opacity:1;fill-rule:nonzero;stroke:none" transform="matrix(1.33333 0 0 -1.33333 488.708 577.22)"></path><path d="m0 0 .879 16.494 2.835-.119-.319-6.59 7.868-.439.36 6.59 2.835-.161L13.58-.719l-2.836.16.399 7.388-7.908.4L2.876-.16z" clip-path="url(#H)" style="fill:#fff;fill-opacity:1;fill-rule:nonzero;stroke:none" transform="matrix(1.33333 0 0 -1.33333 505.855 579.456)"></path><path d="m0 0-.279 17.095h.32L10.824 6.23l-.199 10.504 2.835.04.319-17.053h-.319L2.636 10.584 2.836.08Z" clip-path="url(#I)" style="fill:#fff;fill-opacity:1;fill-rule:nonzero;stroke:none" transform="matrix(1.33333 0 0 -1.33333 529.445 580.841)"></path><path d="m0 0-1.158 16.454 2.915.239L2.915.199Z" clip-path="url(#J)" style="fill:#fff;fill-opacity:1;fill-rule:nonzero;stroke:none" transform="matrix(1.33333 0 0 -1.33333 553.303 579.721)"></path><path d="M0 0a8.1 8.1 0 0 0-2.236-1.478 7 7 0 0 0-2.517-.718 8 8 0 0 0-2.756.12c-.918.199-1.758.518-2.556 1.038a8 8 0 0 0-2.715 2.716c-.72 1.118-1.119 2.396-1.319 3.834-.319 2.516.24 4.673 1.638 6.551 1.357 1.875 3.235 2.915 5.631 3.234.879.08 1.718.08 2.557-.08a8.6 8.6 0 0 0 2.435-.878l.12-3.235c-.759.598-1.517 1.038-2.236 1.317-.799.24-1.558.32-2.357.24-1.637-.2-2.876-.919-3.793-2.197-.919-1.277-1.239-2.795-1.04-4.553.241-1.757.919-3.115 2.078-4.113Q-7.389.299-4.992.6c.878.12 1.717.399 2.475.919.759.478 1.518 1.197 2.238 2.116z" clip-path="url(#K)" style="fill:#fff;fill-opacity:1;fill-rule:nonzero;stroke:none" transform="matrix(1.33333 0 0 -1.33333 578.704 575.57)"></path><path d="m0 0-2.876-.6 4.394 18.372.199.04L12.939 2.756l-2.995-.64-1.917 2.636L.679 3.155Zm1.237 5.711L6.55 6.829l-3.914 5.472Z" clip-path="url(#L)" style="fill:#fff;fill-opacity:1;fill-rule:nonzero;stroke:none" transform="matrix(1.33333 0 0 -1.33333 584.67 575.835)"></path><path d="m0 0-4.833 15.815 2.797.839L2.796.878Z" clip-path="url(#M)" style="fill:#fff;fill-opacity:1;fill-rule:nonzero;stroke:none" transform="matrix(1.33333 0 0 -1.33333 612.839 568.858)"></path><path d="m0 0-2.756-1.038 1.479 18.811.239.081 13.42-13.101-2.836-1.118-2.317 2.276L.2 3.235Zm.359 5.832 5.073 1.916-4.713 4.793z" clip-path="url(#N)" style="fill:#fff;fill-opacity:1;fill-rule:nonzero;stroke:none" transform="matrix(1.33333 0 0 -1.33333 622.158 565.664)"></path><path d="M0 0c1.079-.119 1.997-.119 2.796-.04.759.08 1.478.24 2.077.56.759.359 1.317.877 1.597 1.477.32.639.32 1.238 0 1.878-.24.479-.639.878-1.158 1.117-.519.24-1.318.44-2.317.52l-1.477.12c-1.438.12-2.556.399-3.355.799-.799.399-1.398 1.039-1.797 1.877-.559 1.158-.599 2.316-.12 3.434.48 1.118 1.358 2.037 2.716 2.676.64.32 1.318.56 1.997.719.679.12 1.397.2 2.157.2l1.077-2.397c-.918.04-1.716 0-2.356-.08a6 6 0 0 1-1.677-.438c-.68-.32-1.118-.76-1.398-1.238-.24-.52-.199-.999.04-1.559.2-.398.519-.679.959-.878.479-.2 1.198-.359 2.197-.439l1.397-.08c1.598-.12 2.835-.44 3.714-.919.879-.439 1.558-1.159 1.997-2.117.639-1.317.719-2.596.161-3.874C8.707.04 7.668-.959 6.111-1.717c-.719-.36-1.438-.599-2.197-.799-.719-.16-1.477-.28-2.236-.28Z" clip-path="url(#O)" style="fill:#fff;fill-opacity:1;fill-rule:nonzero;stroke:none" transform="matrix(1.33333 0 0 -1.33333 637.707 553.736)"></path><path d="m0 0-8.228 14.298 2.516 1.477L2.556 1.437Z" clip-path="url(#P)" style="fill:#fff;fill-opacity:1;fill-rule:nonzero;stroke:none" transform="matrix(1.33333 0 0 -1.33333 656.24 549.901)"></path><path d="m0 0-2.396 15.376 9.026 1.438.359-2.397-6.35-.998.599-3.874 5.671.879.36-2.317-5.671-.918L2.676.439Z" clip-path="url(#Q)" style="fill:#fff;fill-opacity:1;fill-rule:nonzero;stroke:none" transform="matrix(1.33333 0 0 -1.33333 442.858 256.482)"></path><path d="M0 0q-.12 1.437.12 2.756c.199.878.519 1.717.959 2.476a7.7 7.7 0 0 0 2.436 2.636A7.5 7.5 0 0 0 6.83 9.026c1.038.12 2.037 0 3.035-.279a7.7 7.7 0 0 0 2.676-1.478 9.3 9.3 0 0 0 1.957-2.516 9.1 9.1 0 0 0 .919-3.156 9 9 0 0 0-.24-3.275 8.4 8.4 0 0 0-1.398-2.795c-.679-.839-1.438-1.518-2.356-2.037-.879-.519-1.838-.799-2.836-.919-1.038-.12-2.037 0-2.996.28-.998.319-1.877.838-2.675 1.518-.839.678-1.478 1.517-1.998 2.476A9 9 0 0 0 0 0m2.795.279c.201-1.597.799-2.875 1.838-3.834 1.078-.998 2.276-1.398 3.674-1.237 1.359.119 2.477.798 3.315 1.956s1.158 2.556.999 4.154c-.16 1.597-.759 2.915-1.837 3.874C9.745 6.15 8.507 6.55 7.109 6.43c-1.398-.159-2.476-.799-3.315-1.997-.838-1.158-1.158-2.556-.999-4.154" clip-path="url(#R)" style="fill:#fff;fill-opacity:1;fill-rule:nonzero;stroke:none" transform="matrix(1.33333 0 0 -1.33333 455.532 243.808)"></path><path d="m0 0 .919-13.14-2.716-.199L-2.716-.2l-5.272-.359-.159 2.356 13.219.919.16-2.357Z" clip-path="url(#S)" style="fill:#fff;fill-opacity:1;fill-rule:nonzero;stroke:none" transform="matrix(1.33333 0 0 -1.33333 487.483 233.318)"></path><path d="m0 0-.56 15.536 4.634.16c1.717.04 3.035-.24 3.914-.879.918-.639 1.358-1.597 1.437-2.915 0-.759-.159-1.478-.559-2.037q-.599-.839-1.797-1.318c.879-.2 1.598-.599 2.117-1.238.519-.64.799-1.438.799-2.436.079-1.519-.4-2.677-1.359-3.436Q7.189.24 4.193.12Zm2.316 9.186 1.598.04c.919.04 1.598.239 2.117.679.479.439.719.998.719 1.717-.041.719-.28 1.238-.799 1.558-.479.319-1.278.479-2.277.439l-1.518-.08zm.24-6.95 1.917.08q1.378.06 2.157.719c.479.48.719 1.079.679 1.877-.04.759-.32 1.318-.839 1.718-.479.399-1.238.559-2.157.519l-1.917-.04Z" clip-path="url(#T)" style="fill:#fff;fill-opacity:1;fill-rule:nonzero;stroke:none" transform="matrix(1.33333 0 0 -1.33333 497.974 250.038)"></path><path d="M0 0h-2.795l7.668 16.095h.199L12.461 0H9.585L8.347 2.795H1.278Zm2.277 4.992h5.072l-2.516 5.831z" clip-path="url(#U)" style="fill:#fff;fill-opacity:1;fill-rule:nonzero;stroke:none" transform="matrix(1.33333 0 0 -1.33333 515.76 249.293)"></path><path d="M0 0v15.576h2.716V2.436h6.669V0Z" clip-path="url(#V)" style="fill:#fff;fill-opacity:1;fill-rule:nonzero;stroke:none" transform="matrix(1.33333 0 0 -1.33333 533.972 249.293)"></path><path d="M0 0a8.8 8.8 0 0 0-2.236-1.039c-.799-.199-1.638-.319-2.477-.279-.879.04-1.717.2-2.557.519A8.5 8.5 0 0 0-9.506.52c-.919.838-1.637 1.796-2.116 2.955-.48 1.158-.679 2.396-.64 3.754.08 2.356.919 4.313 2.477 5.831 1.557 1.558 3.474 2.276 5.712 2.197.838-.04 1.596-.2 2.356-.48.758-.239 1.478-.639 2.155-1.158L.08 10.584q-.9 1.018-1.917 1.558c-.68.359-1.398.559-2.117.559-1.558.08-2.836-.44-3.874-1.478-.998-1.038-1.558-2.396-1.598-4.074-.08-1.637.361-2.995 1.279-4.114.918-1.078 2.117-1.637 3.633-1.717.84 0 1.639.16 2.437.479.759.36 1.557.919 2.356 1.678z" clip-path="url(#W)" style="fill:#fff;fill-opacity:1;fill-rule:nonzero;stroke:none" transform="matrix(1.33333 0 0 -1.33333 572.9 248.867)"></path><path d="m0 0 1.079 15.536 2.716-.2-.919-13.1 6.67-.479-.199-2.396Z" clip-path="url(#X)" style="fill:#fff;fill-opacity:1;fill-rule:nonzero;stroke:none" transform="matrix(1.33333 0 0 -1.33333 576.254 250.624)"></path><path d="m0 0-.919-9.026c-.159-1.478.04-2.637.56-3.475.558-.839 1.477-1.318 2.715-1.437 1.199-.121 2.157.159 2.875.878.72.679 1.159 1.797 1.319 3.315l.919 8.946 2.435-.24-.958-9.025c-.2-2.158-.959-3.795-2.197-4.913s-2.795-1.598-4.713-1.398c-2.076.239-3.594.999-4.593 2.316-.998 1.318-1.357 3.076-1.118 5.312l.919 9.026z" clip-path="url(#Y)" style="fill:#fff;fill-opacity:1;fill-rule:nonzero;stroke:none" transform="matrix(1.33333 0 0 -1.33333 595.852 231.613)"></path><path d="m0 0 2.396 15.376 4.593-.758c1.678-.24 2.916-.799 3.674-1.598q1.139-1.197.839-3.115c-.119-.759-.439-1.398-.919-1.877-.519-.48-1.197-.799-2.036-.999.839-.359 1.477-.878 1.837-1.597q.599-1.139.359-2.516C10.504 1.398 9.825.359 8.746-.24 7.628-.839 6.11-.958 4.153-.679Zm3.994 8.547 1.597-.239c.879-.12 1.638-.04 2.197.279.559.32.919.839 1.038 1.558q.18 1.078-.479 1.677c-.439.4-1.159.679-2.197.839l-1.438.239Zm-1.079-6.83 1.917-.279c.919-.16 1.638-.04 2.236.319.56.32.919.879 1.039 1.678.121.759-.04 1.358-.479 1.837-.44.479-1.118.799-2.076.958l-1.878.28Z" clip-path="url(#Z)" style="fill:#fff;fill-opacity:1;fill-rule:nonzero;stroke:none" transform="matrix(1.33333 0 0 -1.33333 611.454 254.352)"></path><path d="M0 0c19.49 0 35.386-15.937 35.386-35.427C35.386-54.916 19.49-70.813 0-70.813s-35.386 15.897-35.386 35.386S-19.49 0 0 0" clip-path="url(#aa)" style="fill:#0b66ab;fill-opacity:1;fill-rule:nonzero;stroke:none" transform="matrix(1.33333 0 0 -1.33333 533.333 419.753)"></path><path d="m0 0 10.903 4.712.799 6.19L1.038 20.967l-6.15-1.158-4.074-11.143c.359-.52.759-1.078 1.158-1.598A28.4 28.4 0 0 1 0 0" clip-path="url(#ab)" style="fill:#fff;fill-opacity:1;fill-rule:nonzero;stroke:none" transform="matrix(1.33333 0 0 -1.33333 514.589 499.151)"></path><path d="m0 0-1.158 11.781-5.631 2.677-12.821-7.029-.799-6.192 9.305-7.308a27.5 27.5 0 0 1 9.547 4.793C-1.038-.879-.52-.439 0 0" clip-path="url(#ac)" style="fill:#fff;fill-opacity:1;fill-rule:nonzero;stroke:none" transform="matrix(1.33333 0 0 -1.33333 558.148 494.732)"></path><path d="m0 0-11.543 2.597-4.313-4.553 2.716-14.418 5.671-2.677 9.865 6.63C2.556-8.027 1.717-3.794 0 0" clip-path="url(#ad)" style="fill:#fff;fill-opacity:1;fill-rule:nonzero;stroke:none" transform="matrix(1.33333 0 0 -1.33333 567.362 451.971)"></path><path d="m0 0-6.031-10.224 2.996-5.472 14.498-1.876 4.313 4.551-3.275 11.423A28.6 28.6 0 0 1 6.311-.08C4.193.199 2.077.239 0 0" clip-path="url(#ae)" style="fill:#fff;fill-opacity:1;fill-rule:nonzero;stroke:none" transform="matrix(1.33333 0 0 -1.33333 529.605 429.925)"></path><path d="m0 0 7.868-8.906 6.111 1.158 6.27 13.26-2.996 5.471-11.861.44A27.7 27.7 0 0 1 0 0" clip-path="url(#af)" style="fill:#fff;fill-opacity:1;fill-rule:nonzero;stroke:none" transform="matrix(1.33333 0 0 -1.33333 496.962 459.053)"></path><path d="M0 0c.4 1.957.56 4.034.56 6.11 0 6.55-1.837 12.702-5.113 17.893l-2.236-5.751c1.917-4.193 2.875-8.866 2.596-13.698z" clip-path="url(#ag)" style="fill:#fff;fill-opacity:1;fill-rule:nonzero;stroke:none" transform="matrix(1.33333 0 0 -1.33333 577.905 475.135)"></path><path d="M0 0c8.547 1.118 16.136 5.472 21.447 11.741l-6.19.361c-.6-.56-1.198-1.079-1.838-1.558A30.3 30.3 0 0 0 3.074 5.392Z" clip-path="url(#ah)" style="fill:#fff;fill-opacity:1;fill-rule:nonzero;stroke:none" transform="matrix(1.33333 0 0 -1.33333 539.298 511.932)"></path><path d="M0 0c3.634-7.549 9.985-13.579 17.773-16.774l-1.558 5.99a28.6 28.6 0 0 0-8.747 7.589c-.479.638-.958 1.278-1.397 1.958z" clip-path="url(#ai)" style="fill:#fff;fill-opacity:1;fill-rule:nonzero;stroke:none" transform="matrix(1.33333 0 0 -1.33333 492.489 486.585)"></path><path d="M0 0a33.78 33.78 0 0 1-10.464-22.087l5.192 3.355c.999 4.753 3.075 9.026 5.991 12.581z" clip-path="url(#aj)" style="fill:#fff;fill-opacity:1;fill-rule:nonzero;stroke:none" transform="matrix(1.33333 0 0 -1.33333 502.074 434.184)"></path><path d="M0 0c-2.756 0-5.472-.32-8.068-.959l4.793-3.915c2.276.24 4.593.24 6.989-.079a27.3 27.3 0 0 0 6.79-1.718l5.632 2.597A33.84 33.84 0 0 1 0 0" clip-path="url(#ak)" style="fill:#fff;fill-opacity:1;fill-rule:nonzero;stroke:none" transform="matrix(1.33333 0 0 -1.33333 533.333 421.616)" data-source="https://football-logos.cc"></path><!-- source: https://football-logos.cc --></svg>