<svg xmlns="http://www.w3.org/2000/svg" xmlns:xlink="http://www.w3.org/1999/xlink" id="Warstwa_1" version="1.1" viewBox="-0.25 61.29 928.8 901.46"><!-- Source: https://football-logos.cc --><defs data-source="https://football-logos.cc"><linearGradient id="Gradient_bez_nazwy_2" x1="-36.7" x2="316.6" y1="373.9" y2="736.4" data-name="Gradient bez nazwy 2" gradientTransform="translate(138.6 -231.8)" gradientUnits="userSpaceOnUse"><stop offset="0" stop-color="#fff"></stop><stop offset="1"></stop></linearGradient><linearGradient xlink:href="#Gradient_bez_nazwy_2" id="Gradient_bez_nazwy_21" x1="560.6" x2="338" y1="1063.2" y2="762.3" data-name="Gradient bez nazwy 2"></linearGradient><mask id="mask" width="705.2" height="835.4" x="111.6" y="96" maskUnits="userSpaceOnUse"><path d="M111.6 96h705.2v835.4H111.6z" style="fill:url(#Gradient_bez_nazwy_2)"></path></mask><mask id="mask-1" width="705.2" height="835.4" x="111.6" y="96" maskUnits="userSpaceOnUse"><path d="M111.6 96h705.2v835.4H111.6z" style="fill:url(#Gradient_bez_nazwy_21)"></path></mask><style>.st1,.st2{fill:#fff}.st1,.st3,.st4,.st5,.st6{fill-rule:evenodd}.st3,.st7{fill:#017141}.st4{fill:#ec1c24}.st11{fill:#d0d2d3}.st5{fill:#fff100}.st12{fill:#c5262f}.st6{fill:#942c30}</style></defs><path d="m906.9 347.4 21.4 11.5-.2 15.2c-.8 72.1-9.4 143.8-26.1 214l-7.6 31.8-24.8-13.3C801 780.5 650.7 908.9 471.1 961.5l-3.5 1h-7.2l-3.5-1C277.3 908.9 127 780.5 58.4 606.6l-24.8 13.3-7.6-31.8C9.6 517.9.9 446.2.2 374.1L0 358.9l21.4-11.5c5.3-61 19.8-120.8 41.9-177.9l3.4-8.8 8.3-4.4c239.4-126.7 538.6-126 778.2 0l8.4 4.4 3.4 8.8c22.1 57.2 36.6 116.9 41.9 177.9" class="st1"></path><path d="m906.9 347.4 21.4 11.5-.2 15.2c-.8 72.1-9.4 143.8-26.1 214l-7.6 31.8-24.8-13.3C801 780.5 650.7 908.9 471.1 961.5l-3.5 1h-7.2l-3.5-1C277.3 908.9 127 780.5 58.4 606.6l-24.8 13.3-7.6-31.8C9.6 517.9.9 446.2.2 374.1L0 358.9l21.4-11.5c5.3-61 19.8-120.8 41.9-177.9l3.4-8.8 8.3-4.4c239.4-126.7 538.6-126 778.2 0l8.4 4.4 3.4 8.8c22.1 57.2 36.6 116.9 41.9 177.9Z" style="fill:none;stroke:#231f20;stroke-miterlimit:22.9;stroke-width:.5px"></path><path d="M86.8 178c-134.6 348.7 66.5 667.8 377.4 758.9C775 845.8 976.1 526.7 841.6 178 609.5 55.9 319 55.1 86.9 178" class="st3"></path><path d="M50.7 581.8c-15.9-67-24.6-136.7-25.4-208.4L143.2 310c-3.1 73.9 1.1 146.1 11.7 215.8L50.6 581.9Z" class="st4"></path><path d="M50.7 581.8c-8-33.9-14.3-68.5-18.5-103.7L143.9 418q3 54.75 11.1 107.7z" class="st5"></path><path d="M877.6 581.8c15.9-67 24.6-136.7 25.4-208.4L785.1 310c3.1 73.9-1.1 146.1-11.7 215.8l104.3 56.1Z" class="st4"></path><path d="M877.6 581.8c8-33.9 14.3-68.5 18.5-103.7L784.4 418q-3 54.75-11.1 107.7z" class="st5"></path><path d="M144 173c196.4-112.7 442.9-109.8 640.1 0l2.2 1.2.8 2.4c25.2 76.1 37.9 155.9 35.8 236.1-2 73.1-16.3 145.5-43.2 213.5C730 751.7 637.8 859.7 514.8 917.8c-15.8 7.5-32 14-48.5 19.7l-1 .3h-2.1l-1-.3c-16.5-5.6-32.8-12.2-48.6-19.7-123-58.1-215.2-166.1-264.9-291.6-26.9-68-41.3-140.4-43.2-213.5-2.2-80.2 10.6-160 35.8-236.1l.8-2.3 2.1-1.2Z" class="st1"></path><path d="M147.3 178.6c-113 340.8 55.9 663.7 316.9 752.7 261-89.1 429.9-411.9 316.9-752.7-197.4-109.9-441.4-110.4-633.8 0" class="st4"></path><path d="M147.3 178.6c-113 340.8 55.9 663.7 316.9 752.7 261-89.1 429.9-411.9 316.9-752.7-197.4-109.9-441.4-110.4-633.8 0" class="st6" style="mask:url(#mask)"></path><path d="M147.3 178.6c-113 340.8 55.9 663.7 316.9 752.7 261-89.1 429.9-411.9 316.9-752.7-197.4-109.9-441.4-110.4-633.8 0" class="st6" style="mask:url(#mask-1)" data-source="https://football-logos.cc"></path><path d="M255.8 790.1c57.2 64.9 128.4 114 208.3 141.3C544 904.1 615.2 855 672.4 790.1z" class="st5"></path><path d="M612.7 831.4h-12.6c-2.3 0-4.3-.6-6-1.7s-2.5-2.5-2.5-4.1v-25.9c0-1 .7-1.5 2.2-1.5h18.7c1.5 0 2.2.5 2.2 1.5v3.1c0 1-.7 1.5-2.2 1.5h-11.9v7.4h10c1.5 0 2.2.5 2.2 1.5v3.1c0 1-.7 1.5-2.2 1.5h-10v7.4h12.1c1.5 0 2.2.5 2.2 1.5v3.1c0 1-.7 1.5-2.2 1.5m-28.8-1.4c-1.6 1-3.4 1.4-5.6 1.4h-9.5c-2.4 0-4.4-.6-6.2-1.8s-2.7-2.6-2.7-4.3v-21c0-1.6.9-3 2.7-4.3 1.8-1.2 3.9-1.8 6.2-1.8h9.4c2.4 0 4.4.6 6.3 1.9 1.8 1.2 2.7 2.7 2.7 4.3v1c0 1-.7 1.5-2.2 1.5h-4.5c-1.5 0-2.2-.5-2.2-1.5v-1h-9.6v21h9.6v-1.2c0-1 .7-1.5 2.2-1.5h4.5c1.5 0 2.2.5 2.2 1.5v1.2c0 1.8-1.1 3.3-3.4 4.7Zm-30.5 1.5h-4.5c-1.5 0-2.2-.5-2.2-1.5v-30.2c0-1 .7-1.5 2.2-1.5h4.5c1.5 0 2.2.5 2.2 1.5v30.2c0 1-.7 1.5-2.2 1.5m-13.3 0h-4.5c-1.5 0-2.2-.5-2.2-1.5v-17.2l-5.8 8.5c-.4.6-1 .9-2 .9s-1.6-.3-2-.9l-5.8-8.5v17.2c0 1-.7 1.5-2.2 1.5h-4.5c-1.5 0-2.2-.5-2.2-1.5v-30.2c0-1 .7-1.5 2.2-1.5h5.3c.9 0 1.6.3 2 .9l7.2 10.5 7.2-10.5c.4-.6 1-.9 2-.9h5.3c1.5 0 2.2.5 2.2 1.5v30.2c0 1-.7 1.5-2.2 1.5m-44.4-6.2v-21h-10.2v21zm0 6.2h-10.2c-2.4 0-4.5-.6-6.2-1.8-1.8-1.2-2.7-2.6-2.7-4.3v-21c0-1.6.9-3 2.7-4.3 1.8-1.2 3.9-1.8 6.2-1.8h10.1c2.4 0 4.4.6 6.3 1.8 1.8 1.2 2.7 2.7 2.7 4.3v21c0 1.6-.9 3.1-2.7 4.3s-3.9 1.8-6.2 1.8m-58.7-6.2v-21h-10.2v21zm0 6.2h-10.2c-2.4 0-4.5-.6-6.2-1.8-1.8-1.2-2.7-2.6-2.7-4.3v-21c0-1.6.9-3 2.7-4.3 1.8-1.2 3.9-1.8 6.2-1.8h10.1c2.4 0 4.4.6 6.3 1.8 1.8 1.2 2.7 2.7 2.7 4.3v21c0 1.6-.9 3.1-2.7 4.3s-3.9 1.8-6.2 1.8M404.7 814v-9.7h-9.1v9.7zm-.1 6.1h-9v9.8c0 1-.7 1.5-2.2 1.5h-4.5c-1.5 0-2.2-.5-2.2-1.5v-30.2c0-1 .7-1.5 2.2-1.5h15.7c2.3 0 4.4.6 6.2 1.9 1.8 1.2 2.7 2.7 2.7 4.3v9.6c0 1.6-.9 3.1-2.7 4.3q-2.7 1.8-6.3 1.8Zm-24.4 11.3h-12.6c-2.3 0-4.3-.6-6-1.7s-2.5-2.5-2.5-4.1v-25.9c0-1 .7-1.5 2.2-1.5h18.6c1.5 0 2.2.5 2.2 1.5v3.1c0 1-.7 1.5-2.2 1.5H368v7.4h10c1.5 0 2.2.5 2.2 1.5v3.1c0 1-.7 1.5-2.2 1.5h-10v7.4h12.1c1.5 0 2.2.5 2.2 1.5v3.1c0 1-.7 1.5-2.2 1.5Zm-27.6 0h-4.5c-1.5 0-2.2-.5-2.2-1.5v-30.2c0-1 .7-1.5 2.2-1.5h4.5c1.5 0 2.2.5 2.2 1.5v30.2c0 1-.7 1.5-2.2 1.5m113.6-16.9-7.1 4.5v6.3h11c1.4 0 2.2.5 2.2 1.5v3.1c0 1-.7 1.5-2.2 1.5h-11.4c-2.3 0-4.3-.6-6-1.7s-2.5-2.5-2.5-4.1v-25.9c0-1 .7-1.5 2.2-1.5h4.5c1.5 0 2.2.5 2.2 1.5v12l3.8-2.4c1.2-.8 2.1-.7 2.7.1l1.7 2.6c.5.9.2 1.7-1 2.5Zm-134.7 15.9-9.2-16.4v15.9c0 1-.7 1.5-2.2 1.5h-4.5c-1.5 0-2.2-.5-2.2-1.5v-30.2c0-1 .7-1.5 2.2-1.5h5.8c1 0 1.7.3 2.1 1l9.2 16.5v-15.9c0-1 .7-1.5 2.2-1.5h4.4c1.5 0 2.2.5 2.2 1.5V830c0 1-.7 1.5-2.2 1.5h-5.8q-1.5 0-2.1-.9Z" class="st7"></path><path d="M443.4 321.1h41.5c107.1 0 194.7 87.6 194.7 194.7l.3 265.6c-2.5 2.9-4.9 5.8-7.5 8.6H255.9c-2.3-2.6-4.6-5.3-6.9-7.9l-.3-266.3c0-107.1 87.6-194.7 194.7-194.7" class="st1"></path><path d="m464.2 332-.4 1.1c-16.8 43.1-47.7 86.2-90.1 129.3 17.3 0 35.9-6.6 54.9-15-7.9 23.9-36.6 42.9-79.4 58.5 2.3 5.1 7.9 9 16.5 11.8-3.7 8-14 16.1-30 24.1 6.9 3.5 18.5 4.9 32.9 5.2-22.4 18.1-50.2 34.6-83.3 49.6 29.1 2.3 67.2-3.2 109.3-12.4-21.3 19.3-50.1 36.2-99.6 46.4 4.9 4.2 12.5 6.9 23 7.9-7.2 8.5-21.4 17-39 25.6 31.8 5.7 73 1.1 124.7-14.7-18.6 33.4-65.9 49.8-137.1 52.1 16.9 25.1 67 30.3 157.2 11.5-13.6 21.9-56.7 34.2-134.2 35.3 15.6 18.4 62.1 23.2 142.3 12.9l-.3 28.9h65.2l-.3-28.9c80.2 10.3 126.6 5.5 142.3-12.9-77.4-1.1-120.5-13.5-134.2-35.3 90.2 18.8 140.3 13.6 157.2-11.5-71.2-2.3-118.6-18.7-137.1-52.1 51.7 15.8 93 20.4 124.7 14.7-17.6-8.5-31.8-17-39-25.6 10.5-1.1 18.1-3.7 23-7.9-49.5-10.2-78.3-27.1-99.6-46.4 42.2 9.1 80.2 14.7 109.3 12.4-33.1-15-60.9-31.5-83.3-49.6 14.4-.3 26-1.7 32.9-5.2-15.9-8-26.3-16.1-30-24.1 8.7-2.7 14.2-6.7 16.5-11.8-42.8-15.6-71.5-34.6-79.4-58.5 19 8.4 37.6 14.9 54.9 15-42.5-43.1-73.3-86.2-90.1-129.3z" class="st3"></path><path d="M502.1 889.2h-7.7c-2 0-3.8-.7-5.3-2.2s-2.3-3.2-2.3-5.3v-1.5c0-1.2.6-1.9 1.9-1.9h3.8c1.2 0 1.8.6 1.8 1.9v1.4h7.7v-9.1h-6.4c-1.3 0-1.9-.6-1.9-1.9v-3.8c0-1.2.6-1.9 1.9-1.9h6.4v-9.1h-7.7v1.2q0 1.8-1.8 1.8h-3.8c-1.3 0-1.9-.6-1.9-1.8v-1.2c0-2 .8-3.7 2.3-5.3 1.5-1.5 3.3-2.3 5.3-2.3h7.7c2 0 3.8.8 5.3 2.3s2.3 3.3 2.3 5.3v6.8c0 1.7-.5 3.2-1.6 4.5l-1.3 1.6 1.3 1.6c1.1 1.3 1.6 2.8 1.6 4.6v6.8c0 2-.8 3.8-2.3 5.3s-3.3 2.2-5.3 2.2m-26.6-16.6h-7.7v9.1h13.4c1.2 0 1.8.6 1.8 1.9v3.8c0 1.3-.6 1.9-1.8 1.9h-19.1c-1.2 0-1.8-.6-1.8-1.9v-14.8c0-2 .8-3.7 2.3-5.3 1.5-1.5 3.3-2.3 5.3-2.3h7.7v-9.1h-7.7v1.2c0 1.2-.6 1.9-1.9 1.9h-3.9c-1.2 0-1.8-.6-1.8-1.9v-1.2c0-2 .8-3.8 2.3-5.3s3.3-2.3 5.3-2.3h7.7c2 0 3.8.8 5.3 2.3s2.3 3.3 2.3 5.3v9.1c0 2-.8 3.8-2.3 5.3s-3.3 2.3-5.3 2.3Zm-26.3-7.6v-9.1h-7.8v9.1zm-.1 24.2h-7.5c-2 0-3.8-.7-5.3-2.2s-2.3-3.3-2.3-5.3v-1.5c0-1.2.6-1.9 1.9-1.9h3.6c1.2 0 1.9.6 1.9 1.9v1.4h7.8v-9.1h-7.8q-2.7 0-4.8-1.8l-.3-.3q-2.4-2.1-2.4-5.4v-9.2c0-2 .8-3.7 2.3-5.3 1.5-1.5 3.3-2.3 5.3-2.3h7.7c2 0 3.8.8 5.3 2.3s2.3 3.3 2.3 5.3v25.8c0 2-.8 3.8-2.3 5.3s-3.3 2.2-5.3 2.2Zm-20.8 0h-3.8c-1.2 0-1.9-.6-1.9-1.9v-29.7h-.3q-1.8 0-1.8-1.8v-4.4q0-1.2 1.2-1.8l3.1-1.1c.2 0 .4-.1.7-.1h2.9c1.2 0 1.8.6 1.8 1.9v37.1c0 1.3-.6 1.9-1.8 1.9Z" class="st7"></path><path d="M746.6 302c-2.3-5.8-4.4-11.6-6.6-17.4s-4.4-11.6-6.6-17.5c-.9 4.9-1.5 9.9-2.2 14.9s-1.5 10-2.3 15.1c5.9 1.6 11.8 3.3 17.7 4.9m16.7 42.7c-2.9-7.1-5.6-14.2-8.3-21.3-9.6-2.7-19.2-5.1-28.7-7.5-1.1 6.4-2 12.8-3 19.2-.4 2.6-2.4 3.4-6.2 2.6-4.7-1-9.4-1.9-14-2.8-2.3-.4-4.1-1.4-5.5-2.9-1.5-1.5-2.1-3-2-4.6 2.5-16.3 5-32.3 7.4-48.3 2.3-15.8 4.7-31.4 7-46.7.3-2.5 2.1-3.1 5.8-1.8 8.8 3.1 17.8 6.2 26.7 9.7 3.7 1.4 6 3.7 7.2 6.6 6.8 17.7 13.5 35.3 20.5 52.7 6.9 17.2 13.9 34.2 21 51.1.7 1.6.3 2.8-.9 3.5-1.2.8-2.9.8-5 .3-4.9-1.3-9.7-2.6-14.4-3.8q-5.85-1.5-7.5-5.7Zm-87.4-15.1c-21.4-3.5-42.8-6.7-64-9.2-4.5-.5-6.8-2.6-7-6.3 0-1.1-.1-2.3-.3-3.5 0-.6 0-1.3.3-2 5.9-13.6 11.9-27.1 17.7-40.5 5.7-13.2 11.4-26.3 17-39-10.5-2.3-20.9-4.3-31.3-6.2-4.2-.8-6.5-3-6.8-6.7s-.6-7.4-.8-11.1 1.7-5.1 5.8-4.3c18.9 3.8 38 8.4 57.2 13.3 4.1 1.1 6.5 3.6 6.9 7.1.2 1.8.3 3.6.5 5.3 0 .7 0 1.3-.3 1.8-5.3 11.8-10.7 24-16.1 36.2-5.5 12.4-11.1 25-16.7 37.7 11.8 2 23.6 4 35.4 6.2 4.5.8 6.9 3.2 7.3 6.7s.8 7.1 1.1 10.7c.4 3.5-1.7 4.7-6.2 4Zm-94-17.6q-6.75 4.65-16.2 3.9c-9.5-.8-18.9-1.4-28.2-1.9-7-.4-13.3-2.9-18.6-7.7-5.4-4.8-8.2-10.3-8.4-16.4-.4-13.1-.6-26.2-.9-39.3s-.7-26.2-1-39.3c-.1-6.1 2.3-11.3 7.3-15.7 4.9-4.2 10.5-5.9 17.1-5.3 8.7.8 17.5 1.6 26.4 2.8 6.6.9 12.7 4.1 18 9.5 5.5 5.3 8.4 10.9 8.8 16.8 0 1.2.1 2.4.2 3.6.2 3.6-1.8 5.2-6 4.7-4.4-.6-8.7-1.1-12.9-1.7-4.1-.5-6.3-2.7-6.4-6.4 0-1.2-.1-2.5-.3-3.7-9-1.1-18-1.9-27-2.7.5 13 1 26 1.4 39s.9 26 1.4 39c9.3.6 18.7 1.2 28.1 2.1 0-1.4-.1-2.9-.2-4.3-.1-3.7 1.8-5.4 6-5 4.4.4 8.8.9 13.2 1.4 4.3.4 6.8 2.5 7 6.2 0 1.4.2 2.8.3 4.2.4 6.5-2.6 11.9-9.1 16.3Zm-90.2.3c-20.9-.3-41.9-.1-62.8.4-4.4.1-6.6-1.6-6.5-5.4v-3.6c0-.6.2-1.4.5-2.1 7.1-15.4 14.3-30.6 21.2-45.8s13.7-30.4 20.5-45.5c-10.2.1-20.4.2-30.7.6-4 .2-6.1-1.5-6-5.3 0-3.8 0-7.7.1-11.5 0-3.8 2.3-6 6.2-6.1 18.5-.6 37-.8 55.5-.2 4 .1 6.1 2.2 6.2 6 0 1.9 0 3.9.1 5.8 0 .8-.1 1.5-.4 2-6.2 14.4-12.7 28.9-19.1 43.4-6.5 14.7-13.1 29.5-19.8 44.3 11.6-.2 23-.1 34.6.1 4.3 0 6.5 2 6.6 5.8 0 3.9.2 7.7.3 11.6 0 3.8-2.1 5.7-6.5 5.6Zm-108.6 2.8c-8.9.7-17.9 1.5-26.7 2.2-7 .6-13.1-1-18.2-4.9-5.1-3.8-7.3-8.7-7-14.8 0-1.4 0-2.8.2-4.2.3-3.7 2.6-5.8 6.8-6.4 4.4-.6 8.8-1.2 13.3-1.6 4.3-.5 6.4 1.3 6.2 5 0 1.4-.1 2.9-.2 4.3q13.35-1.2 26.4-2.4c.4-9.2.7-18.3 1.1-27.5-8.7.8-17.5 1.7-26.1 2.6-6.9.7-12.9-.7-17.8-4.5-4.9-3.7-7.2-8.6-6.8-14.6.6-9 1.1-18 1.7-27.1.4-5.9 3.4-11.6 8.7-16.9 5.3-5.4 11.3-8.8 18-9.7 8.3-1.1 16.7-2 25.1-3 6.6-.8 12.3.9 17.2 5.2 4.9 4.2 7.3 9.5 7.2 15.5 0 1.3 0 2.5-.1 3.8 0 3.7-2.2 5.8-6.4 6-4.3.3-8.5.6-12.8 1s-6.2-1.2-6.1-4.9c0-1.2 0-2.5.1-3.7-8.5 1-17 1.9-25.5 2.9-.5 9.1-1 18.2-1.4 27.3 8.6-.9 17.3-1.8 25.9-2.7 6.8-.7 12.5 1.1 17.5 5.4s7.5 9.5 7.3 15.5c-.3 9.3-.5 18.6-.7 27.9-.1 6.2-3 11.7-8.4 16.5s-11.7 7.3-18.7 7.9Zm-93.4 10.1c-9.9 1.5-19.8 2.8-29.7 4.5-7.2 1.2-13.4.4-18.4-2.8s-7.1-7.6-6.5-13.2c1.7-14.6 3.3-29.2 4.9-43.9 1.6-14.6 3.2-29.3 4.9-43.9.4-3.5 2.8-5.9 7.1-7.1s8.6-2.4 13-3.7c4.3-1.2 6.2 0 5.9 3.5-1.4 14.9-3 29.9-4.4 44.8s-3 29.9-4.5 44.8c10-1.8 20-3.4 29.9-5 1.2-15.2 2.5-30.5 3.8-45.7s2.6-30.5 3.9-45.7c.3-3.6 2.6-5.9 6.6-6.9 4.3-1 8.6-2.1 12.9-2.9 4.2-.8 6.1.8 5.8 4.5-1.1 15.5-2.3 30.9-3.3 46.4-1.1 15.4-2.1 30.9-3.2 46.4-.4 6-3.6 11.6-9.4 16.7s-12.3 8.2-19.4 9.3Zm-90-39.7c.7-5.3 1.4-10.6 2.1-16 .7-5.3 1.3-10.7 2-16-9.1 2.9-18.1 6-27.4 9.4-.7 5.2-1.5 10.3-2.2 15.5s-1.5 10.3-2.2 15.5c9.3-3 18.5-5.8 27.6-8.3Zm-2.9 20.3c-9.2 2.3-18.4 4.9-27.6 7.6-.7 5.2-1.5 10.4-2.2 15.6-.8 5.2-1.5 10.4-2.2 15.5-.5 3.3-3.1 5.4-7.5 6.5-4.7 1.2-9.5 2.3-14.2 3.5-4.6 1.1-6.5.1-6-3 2.5-15.5 4.9-31 7.3-46.4 2.4-15.5 4.8-31 7.3-46.5.5-3.1 2.9-5.6 7.4-7.3 15.9-6.2 31.7-12.5 47.3-17.9 7-2.4 13-2.4 17.8 0 4.9 2.4 7 6.3 6.4 11.9-.7 5.5-1.3 10.9-1.9 16.4-.6 5.4-1.3 10.9-2 16.3-.7 5.6-4 11.3-10 16.8-6.1 5.6-12.6 9.2-19.8 11Z" class="st12"></path><path d="M746.6 296c-2.3-5.8-4.4-11.6-6.6-17.4s-4.4-11.6-6.6-17.5c-.9 4.9-1.5 9.9-2.2 14.9s-1.5 10-2.3 15.1c5.9 1.6 11.8 3.3 17.7 4.9m16.7 42.8c-2.9-7.1-5.6-14.2-8.3-21.3-9.6-2.7-19.2-5.1-28.7-7.5-1.1 6.4-2 12.8-3 19.2-.4 2.6-2.4 3.4-6.2 2.6-4.7-1-9.4-1.9-14-2.8-2.3-.4-4.1-1.4-5.5-2.9-1.5-1.5-2.1-3-2-4.6 2.5-16.3 5-32.3 7.4-48.3 2.3-15.8 4.7-31.4 7-46.7.3-2.5 2.1-3.1 5.8-1.8 8.8 3.1 17.8 6.2 26.7 9.7 3.7 1.4 6 3.7 7.2 6.6 6.8 17.7 13.5 35.3 20.5 52.7 6.9 17.2 13.9 34.2 21 51.1.7 1.6.3 2.8-.9 3.5-1.2.8-2.9.8-5 .3-4.9-1.3-9.7-2.6-14.4-3.8q-5.85-1.5-7.5-5.7Zm-87.4-15.1c-21.4-3.5-42.8-6.7-64-9.2-4.5-.5-6.8-2.6-7-6.3 0-1.1-.1-2.3-.3-3.5 0-.6 0-1.3.3-2 5.9-13.6 11.9-27.1 17.7-40.5 5.7-13.2 11.4-26.3 17-39-10.5-2.3-20.9-4.3-31.3-6.2-4.2-.8-6.5-3-6.8-6.7s-.6-7.4-.8-11.1 1.7-5.1 5.8-4.3c18.9 3.8 38 8.4 57.2 13.3 4.1 1.1 6.5 3.6 6.9 7.1.2 1.8.3 3.6.5 5.3 0 .7 0 1.3-.3 1.8-5.3 11.8-10.7 24-16.1 36.2-5.5 12.4-11.1 25-16.7 37.7 11.8 2 23.6 4 35.4 6.2 4.5.8 6.9 3.2 7.3 6.7s.8 7.1 1.1 10.7c.4 3.5-1.7 4.7-6.2 4Zm-94-17.7q-6.75 4.65-16.2 3.9c-9.5-.8-18.9-1.4-28.2-1.9-7-.4-13.3-2.9-18.6-7.7-5.4-4.8-8.2-10.3-8.4-16.4-.4-13.1-.6-26.2-.9-39.3s-.7-26.2-1-39.3c-.1-6.1 2.3-11.3 7.3-15.7 4.9-4.2 10.5-5.9 17.1-5.3 8.7.8 17.5 1.6 26.4 2.8 6.6.9 12.7 4.1 18 9.5 5.5 5.3 8.4 10.9 8.8 16.8 0 1.2.1 2.4.2 3.6.2 3.6-1.8 5.2-6 4.7-4.4-.6-8.7-1.1-12.9-1.7-4.1-.5-6.3-2.7-6.4-6.4 0-1.2-.1-2.5-.3-3.7-9-1.1-18-1.9-27-2.7.5 13 1 26 1.4 39s.9 26 1.4 39c9.3.6 18.7 1.2 28.1 2.1 0-1.4-.1-2.9-.2-4.3-.1-3.7 1.8-5.4 6-5 4.4.4 8.8.9 13.2 1.4 4.3.4 6.8 2.5 7 6.2 0 1.4.2 2.8.3 4.2.4 6.5-2.6 11.9-9.1 16.3Zm-90.2.3c-20.9-.3-41.9-.1-62.8.4-4.4.1-6.6-1.6-6.5-5.4v-3.6c0-.6.2-1.4.5-2.1 7.1-15.4 14.3-30.6 21.2-45.8s13.7-30.4 20.5-45.5c-10.2.1-20.4.2-30.7.6-4 .2-6.1-1.5-6-5.3 0-3.8 0-7.7.1-11.5 0-3.8 2.3-6 6.2-6.1 18.5-.6 37-.8 55.5-.2 4 .1 6.1 2.2 6.2 6 0 1.9 0 3.9.1 5.8 0 .8-.1 1.5-.4 2-6.2 14.4-12.7 28.9-19.1 43.4-6.5 14.7-13.1 29.5-19.8 44.3 11.6-.2 23-.1 34.6.1 4.3 0 6.5 2 6.6 5.8 0 3.9.2 7.7.3 11.6 0 3.8-2.1 5.7-6.5 5.6Zm-108.6 2.8c-8.9.7-17.9 1.5-26.7 2.2-7 .6-13.1-1-18.2-4.9-5.1-3.8-7.3-8.7-7-14.8 0-1.4 0-2.8.2-4.2.3-3.7 2.6-5.8 6.8-6.4 4.4-.6 8.8-1.2 13.3-1.6 4.3-.5 6.4 1.3 6.2 5 0 1.4-.1 2.9-.2 4.3q13.35-1.2 26.4-2.4c.4-9.2.7-18.3 1.1-27.5-8.7.8-17.5 1.7-26.1 2.6-6.9.7-12.9-.7-17.8-4.5-4.9-3.7-7.2-8.6-6.8-14.6.6-9 1.1-18 1.7-27.1.4-5.9 3.4-11.6 8.7-16.9 5.3-5.4 11.3-8.8 18-9.7 8.3-1.1 16.7-2 25.1-3 6.6-.8 12.3.9 17.2 5.2 4.9 4.2 7.3 9.5 7.2 15.5 0 1.3 0 2.5-.1 3.8 0 3.7-2.2 5.8-6.4 6-4.3.3-8.5.6-12.8 1s-6.2-1.2-6.1-4.9c0-1.2 0-2.5.1-3.7-8.5 1-17 1.9-25.5 2.9-.5 9.1-1 18.2-1.4 27.3 8.6-.9 17.3-1.8 25.9-2.7 6.8-.7 12.5 1.1 17.5 5.4s7.5 9.5 7.3 15.5c-.3 9.3-.5 18.6-.7 27.9-.1 6.2-3 11.7-8.4 16.5s-11.7 7.3-18.7 7.9Zm-93.4 10.1c-9.9 1.5-19.8 2.8-29.7 4.5-7.2 1.2-13.4.4-18.4-2.8s-7.1-7.6-6.5-13.2c1.7-14.6 3.3-29.2 4.9-43.9 1.6-14.6 3.2-29.3 4.9-43.9.4-3.5 2.8-5.9 7.1-7.1s8.6-2.4 13-3.7c4.3-1.2 6.2 0 5.9 3.5-1.4 14.9-3 29.9-4.4 44.8s-3 29.9-4.5 44.8c10-1.8 20-3.4 29.9-5 1.2-15.2 2.5-30.5 3.8-45.7s2.6-30.5 3.9-45.7c.3-3.6 2.6-5.9 6.6-6.9 4.3-1 8.6-2.1 12.9-2.9 4.2-.8 6.1.8 5.8 4.5-1.1 15.5-2.3 30.9-3.3 46.4-1.1 15.4-2.1 30.9-3.2 46.4-.4 6-3.6 11.6-9.4 16.7s-12.3 8.2-19.4 9.3Zm-90-39.7c.7-5.3 1.4-10.6 2.1-16 .7-5.3 1.3-10.7 2-16-9.1 2.9-18.1 6-27.4 9.4-.7 5.2-1.5 10.3-2.2 15.5s-1.5 10.3-2.2 15.5c9.3-3 18.5-5.8 27.6-8.3Zm-2.9 20.3c-9.2 2.3-18.4 4.9-27.6 7.6-.7 5.2-1.5 10.4-2.2 15.6-.8 5.2-1.5 10.4-2.2 15.5-.5 3.3-3.1 5.4-7.5 6.5-4.7 1.2-9.5 2.3-14.2 3.5-4.6 1.1-6.5.1-6-3 2.5-15.5 4.9-31 7.3-46.4 2.4-15.5 4.8-31 7.3-46.5.5-3.1 2.9-5.6 7.4-7.3 15.9-6.2 31.7-12.5 47.3-17.9 7-2.4 13-2.4 17.8 0 4.9 2.4 7 6.3 6.4 11.9-.7 5.5-1.3 10.9-1.9 16.4-.6 5.4-1.3 10.9-2 16.3-.7 5.6-4 11.3-10 16.8-6.1 5.6-12.6 9.2-19.8 11Z" class="st2"></path><path d="M526.5 168.9c-4.8-.4-9.5-.8-14.3-1.1-3.8-.3-7.1-1.3-10-3.3-2.8-2-4.3-4.2-4.3-6.6v-1.7c0-1.5 1.2-2.2 3.5-2.1 2.4.1 4.8.3 7.2.5 2.3.2 3.5 1 3.5 2.5v1.7c4.8.4 9.5.8 14.3 1.2v-10.9c-4.8-.5-9.5-.9-14.3-1.3-3.8-.3-7.1-1.4-10-3.4-2.8-2-4.3-4.2-4.3-6.7v-11.1c0-2.4 1.4-4.5 4.3-6.1s6.2-2.3 10-1.9c4.8.4 9.5.9 14.3 1.5 3.7.4 7 1.8 9.9 3.9 2.9 2.2 4.3 4.4 4.3 6.8v1.5c0 1.5-1.2 2-3.5 1.8l-7.2-.9c-2.4-.3-3.5-1.1-3.5-2.6v-1.5c-4.8-.5-9.5-1-14.3-1.4v11c4.8.4 9.5.9 14.3 1.4 3.7.4 7 1.7 9.9 3.8s4.3 4.4 4.3 6.8v10.9c0 2.4-1.4 4.3-4.3 5.8-2.8 1.5-6.1 2-9.9 1.7m-36.1-48.9c-2.8 3.5-5.5 7-8.3 10.5-2.7 3.5-5.5 7.1-8.2 10.6 2.7 3.7 5.5 7.3 8.2 11s5.5 7.4 8.3 11.1c.6.8.5 1.5-.2 2.2s-1.7 1-3 1c-2.7 0-5.3-.2-8-.2-1.5 0-2.6-.5-3.2-1.4-2.4-3.2-4.8-6.4-7.1-9.6-2.4-3.2-4.7-6.4-7.1-9.5V164c0 1.5-1.2 2.3-3.5 2.3H451c-2.3 0-3.5-.7-3.5-2.2v-45.3c0-1.5 1.1-2.3 3.5-2.4 2.4 0 4.8 0 7.2-.1 2.3 0 3.5.8 3.5 2.3v18.1c2.4-3.2 4.7-6.3 7.1-9.5 2.4-3.1 4.8-6.3 7.1-9.4.7-.9 1.7-1.3 3.2-1.2 2.6 0 5.3.2 8 .3 1.3 0 2.3.5 3 1.2.6.8.7 1.5.2 2.2Zm-53.1 46.5c-2.4 0-4.8.2-7.2.3-2.3.1-3.5-.6-3.5-2.1v-25.7c-1.5 2.2-3.1 4.4-4.6 6.7-1.5 2.2-3.1 4.4-4.6 6.6-.6.9-1.7 1.4-3.2 1.5s-2.5-.2-3.1-1c-1.5-2-3.1-3.9-4.6-5.9-1.5-1.9-3.1-3.9-4.6-5.8v25.4c0 1.5-1.2 2.3-3.5 2.6-2.4.2-4.8.5-7.2.7-2.3.2-3.5-.4-3.5-1.9V124c0-1.5 1.1-2.4 3.5-2.7 2.8-.4 5.6-.8 8.5-1.1 1.5-.2 2.5.1 3.2.9 1.9 2.4 3.8 4.7 5.7 7.2 1.9 2.4 3.8 4.8 5.7 7.3 1.9-2.8 3.8-5.6 5.7-8.3 1.9-2.8 3.8-5.5 5.7-8.3.6-.9 1.7-1.4 3.2-1.5 2.8-.2 5.6-.4 8.5-.5 2.3-.1 3.5.6 3.5 2.1v45.3c0 1.5-1.2 2.3-3.5 2.4Z" class="st12"></path><path d="M526.5 165.3c-4.8-.4-9.5-.8-14.3-1.1-3.8-.3-7.1-1.3-10-3.3-2.8-2-4.3-4.2-4.3-6.6v-1.7c0-1.5 1.2-2.2 3.5-2.1 2.4.1 4.8.3 7.2.5 2.3.2 3.5 1 3.5 2.5v1.7c4.8.4 9.5.8 14.3 1.2v-10.9c-4.8-.5-9.5-.9-14.3-1.3-3.8-.3-7.1-1.4-10-3.4-2.8-2-4.3-4.2-4.3-6.7V123c0-2.4 1.4-4.5 4.3-6.1s6.2-2.3 10-1.9c4.8.4 9.5.9 14.3 1.5 3.7.4 7 1.8 9.9 3.9 2.9 2.2 4.3 4.4 4.3 6.8v1.5c0 1.5-1.2 2-3.5 1.8l-7.2-.9c-2.4-.3-3.5-1.1-3.5-2.6v-1.5c-4.8-.5-9.5-1-14.3-1.4v11c4.8.4 9.5.9 14.3 1.4 3.7.4 7 1.7 9.9 3.8s4.3 4.4 4.3 6.8V158c0 2.4-1.4 4.3-4.3 5.8-2.8 1.5-6.1 2-9.9 1.7m-36.1-49c-2.8 3.5-5.5 7-8.3 10.5-2.7 3.5-5.5 7.1-8.2 10.6 2.7 3.7 5.5 7.3 8.2 11s5.5 7.4 8.3 11.1c.6.8.5 1.5-.2 2.2s-1.7 1-3 1c-2.7 0-5.3-.2-8-.2-1.5 0-2.6-.5-3.2-1.4-2.4-3.2-4.8-6.4-7.1-9.6-2.4-3.2-4.7-6.4-7.1-9.5v18.1c0 1.5-1.2 2.3-3.5 2.3H451c-2.3 0-3.5-.7-3.5-2.2v-45.3c0-1.5 1.1-2.3 3.5-2.4 2.4 0 4.8 0 7.2-.1 2.3 0 3.5.8 3.5 2.3V133c2.4-3.2 4.7-6.3 7.1-9.5 2.4-3.1 4.8-6.3 7.1-9.4.7-.9 1.7-1.3 3.2-1.2 2.6 0 5.3.2 8 .3 1.3 0 2.3.5 3 1.2.6.8.7 1.5.2 2.2ZM437.2 163c-2.4 0-4.8.2-7.2.3-2.3.1-3.5-.6-3.5-2.1v-25.7c-1.5 2.2-3.1 4.4-4.6 6.7-1.5 2.2-3.1 4.4-4.6 6.6-.6.9-1.7 1.4-3.2 1.5s-2.5-.2-3.1-1c-1.5-2-3.1-3.9-4.6-5.9-1.5-1.9-3.1-3.9-4.6-5.8V163c0 1.5-1.2 2.3-3.5 2.6-2.4.2-4.8.5-7.2.7-2.3.2-3.5-.4-3.5-1.9v-44.1c0-1.5 1.1-2.4 3.5-2.7 2.8-.4 5.6-.8 8.5-1.1 1.5-.2 2.5.1 3.2.9 1.9 2.4 3.8 4.7 5.7 7.2 1.9 2.4 3.8 4.8 5.7 7.3 1.9-2.8 3.8-5.6 5.7-8.3 1.9-2.8 3.8-5.5 5.7-8.3.6-.9 1.7-1.4 3.2-1.5 2.8-.2 5.6-.4 8.5-.5 2.3-.1 3.5.6 3.5 2.1v45.3c0 1.5-1.2 2.3-3.5 2.4Z" class="st2"></path><path d="M746.6 296c-2.3-5.8-4.4-11.6-6.6-17.4l-3.6-9.6.9-5.7c2.2 5.9 4.3 11.7 6.6 17.5 2.2 5.8 4.3 11.6 6.6 17.4-5.9-1.7-11.8-3.3-17.7-4.9l.2-1.1c4.6 1.3 9.1 2.5 13.7 3.8m-44.9 32.5c-1.7-.5-3.1-1.3-4.2-2.5-1.5-1.5-2.1-3-2-4.6 2.5-16.3 5-32.3 7.4-48.3 2.3-15.8 4.7-31.4 7-46.7.3-2.5 2.1-3.1 5.8-1.8 8.8 3.1 17.8 6.2 26.7 9.7a14 14 0 0 1 4 2.3h-.1c-9-3.5-17.9-6.6-26.7-9.7-3.7-1.3-5.5-.7-5.8 1.8-2.4 15.3-4.7 30.9-7 46.7-2.3 16-4.9 32.1-7.4 48.3-.1 1.6.5 3.1 2 4.6l.3.3Zm61.5 10.3c-2.7-6.7-5.3-13.3-7.8-20 1.1.3 2.3.6 3.4.9 2.7 7.1 5.4 14.2 8.3 21.3q.6 1.8 2.1 3c-3.1-1.1-5-2.8-6-5.2m-120.6-41.9c10.3 1.8 20.6 3.5 30.9 5.4 2.4.4 4.2 1.3 5.5 2.6-.5-.1-1-.3-1.6-.4-11.9-2.2-23.6-4.1-35.4-6.2zm-35.6-80.2c-3.4-1-5.3-3.1-5.6-6.4-.3-3.7-.6-7.4-.8-11.1s1.7-5.1 5.8-4.3c18.9 3.8 38 8.4 57.2 13.3 2 .5 3.5 1.3 4.7 2.4-.3 0-.5-.2-.8-.2-19.2-4.9-38.3-9.5-57.2-13.3-4.1-.8-6.1.6-5.8 4.3.2 3.7.5 7.4.8 11.1.1 1.7.7 3.1 1.7 4.2m3.1 97.4c-3.3-.8-5.1-2.8-5.3-6 0-1.1-.1-2.3-.3-3.5 0-.6 0-1.3.3-2 5.9-13.6 11.9-27.1 17.7-40.5 5.5-12.8 11-25.4 16.4-37.7 1.5.3 2.9.6 4.4 1-5.6 12.7-11.3 25.7-17 39-5.7 13.4-11.7 26.9-17.7 40.5-.3.7-.4 1.4-.3 2 .1 1.2.2 2.3.3 3.5.1 1.5.6 2.8 1.4 3.8Zm-69.8-28.7q12.15.75 24.3 1.8c0-1.4-.1-2.9-.2-4.3-.1-3.7 1.8-5.4 6-5 4.4.4 8.8.9 13.2 1.4 2.6.3 4.5 1.1 5.6 2.5q-.75-.15-1.8-.3c-4.4-.4-8.8-.9-13.2-1.4-4.3-.4-6.2 1.3-6 5 0 1.4.1 2.9.2 4.3-9.4-.9-18.8-1.5-28.1-2.1v-2Zm25.9-65.8c-3.3-.8-5.1-2.9-5.2-6.2 0-.6 0-1.3-.1-1.9 1.2.1 2.5.3 3.7.4.1 1.2.2 2.5.3 3.7 0 1.6.5 2.9 1.3 3.9Zm-40.1 85.6c-2.6-1.2-5.1-2.9-7.4-5-5.4-4.8-8.2-10.3-8.4-16.4-.4-13.1-.6-26.2-.9-39.3s-.7-26.2-1-39.3c-.1-6.1 2.3-11.3 7.3-15.7 4.9-4.2 10.5-5.9 17.1-5.3 8.7.8 17.5 1.6 26.4 2.8 4.3.6 8.5 2.2 12.3 4.8-2.7-1.3-5.5-2.2-8.5-2.6-8.8-1.2-17.7-1.9-26.4-2.8-6.6-.6-12.3 1.1-17.1 5.3-5 4.4-7.4 9.6-7.3 15.7.3 13.1.7 26.2 1 39.3s.5 26.2.9 39.3c.2 6.1 3 11.6 8.4 16.4 1.1 1 2.3 1.9 3.5 2.8Zm-64.5-22.1c9.9-.1 19.8 0 29.7.2 2.7 0 4.6.9 5.6 2.4-.5 0-1.1-.1-1.8-.2-11.6-.2-23-.3-34.6-.1l1-2.3Zm-29.3-78.3c-3-.3-4.6-2-4.5-5.3 0-3.8 0-7.7.1-11.5 0-3.8 2.3-6 6.2-6.1 18.5-.6 37-.8 55.5-.2 2.4 0 4.2.9 5.2 2.3-.4 0-.8-.1-1.3-.1-18.5-.5-37-.4-55.5.2-3.9.1-6.2 2.3-6.2 6.1s0 7.7-.1 11.5c0 1.3.2 2.3.6 3.1m-5.5 101.8c-3.1-.4-4.6-2.1-4.5-5.3v-3.6c0-.6.2-1.4.5-2.1 7.1-15.4 14.3-30.6 21.2-45.8 6.5-14.4 13-28.9 19.5-43.3h4.9c-6.8 15.1-13.6 30.3-20.5 45.5s-14.1 30.5-21.2 45.8c-.3.8-.5 1.5-.5 2.1v3.6c0 1.3.2 2.3.6 3.1m-62.7-68.4c7.3-.8 14.6-1.6 21.9-2.3q8.85-.9 15.6 3.9c-3.6-1.6-7.5-2.2-11.8-1.7-8.6.9-17.3 1.8-25.9 2.7v-2.6Zm27-21.1c-3-.2-4.4-1.8-4.3-5v-1l4-.5c0 1.2 0 2.5-.1 3.7 0 1.1.1 2 .5 2.8Zm-45.5 42.4q-2.4-1.05-4.5-2.7c-4.9-3.7-7.2-8.6-6.8-14.6.6-9 1.1-18 1.7-27.1.4-5.9 3.4-11.6 8.7-16.9 5.3-5.4 11.3-8.8 18-9.7 8.3-1.1 16.7-2 25.1-3 5.8-.7 10.9.5 15.4 3.7-3.5-1.5-7.3-2-11.5-1.5-8.4 1-16.9 2-25.1 3-6.6.9-12.7 4.3-18 9.7s-8.3 11-8.7 16.9c-.6 9-1.1 18.1-1.7 27.1-.4 6 1.9 10.8 6.8 14.6.2.2.4.3.6.5m15.8 28.8c7.5-.7 15-1.4 22.5-2 .4-8.3.7-16.6 1-24.9l4-.4c-.4 9.2-.7 18.4-1.1 27.5-8.7.8-17.6 1.6-26.4 2.4zm-18.8 20.9c-1.6-.7-3.1-1.6-4.6-2.7-5.1-3.8-7.3-8.7-7-14.8 0-1.4 0-2.8.2-4.2.3-3.7 2.6-5.8 6.8-6.4 4.4-.6 8.8-1.2 13.3-1.6 3-.3 4.9.4 5.8 2.2h-1.9c-4.5.5-8.9 1.1-13.3 1.6-4.3.6-6.5 2.7-6.8 6.4-.1 1.4-.1 2.8-.2 4.2-.4 6 1.9 11 7 14.8.2.2.5.3.7.5m-76.5-7.7c8.6-1.5 17.2-2.9 25.8-4.3 1.2-15.2 2.5-30.5 3.8-45.7s2.6-30.5 3.9-45.7c.3-3.6 2.6-5.9 6.6-6.9 4.3-1 8.6-2.1 12.9-2.9 3.1-.6 4.9.1 5.6 2-.5 0-1.1 0-1.7.2-4.3.8-8.6 1.9-12.9 2.9-4.1.9-6.3 3.3-6.6 6.9-1.3 15.2-2.6 30.5-3.9 45.7s-2.6 30.5-3.8 45.7c-10 1.6-19.9 3.2-29.9 5l.3-2.9Zm-21.7 20.9c-1-.4-2-.9-2.9-1.5-5-3.2-7.1-7.6-6.5-13.2 1.7-14.6 3.3-29.2 4.9-43.9 1.6-14.6 3.2-29.3 4.9-43.9.4-3.5 2.8-5.9 7.1-7.1s8.6-2.4 13-3.7c3.5-1 5.5-.4 5.9 1.8-.6 0-1.3.2-2 .4-4.4 1.2-8.7 2.5-13 3.7s-6.7 3.6-7.1 7.1c-1.6 14.6-3.2 29.3-4.9 43.9-1.6 14.6-3.3 29.3-4.9 43.9-.6 5.2 1.2 9.4 5.5 12.5m-44.8-42.9c.7-5.3 1.4-10.6 2.1-16 .5-4.1 1-8.2 1.6-12.4 1.4-.5 2.9-.9 4.3-1.4-.7 5.3-1.3 10.7-2 16s-1.4 10.7-2.1 16c-9.1 2.6-18.4 5.4-27.6 8.3.2-1.2.3-2.4.5-3.6 7.8-2.5 15.6-4.8 23.2-6.9m-59 69.4c-3 .3-4.2-.8-3.8-3.4 2.5-15.5 4.9-31 7.3-46.4 2.4-15.5 4.8-31 7.3-46.5.5-3.1 2.9-5.6 7.4-7.3 15.9-6.2 31.7-12.5 47.3-17.9 7-2.4 13-2.4 17.8 0 1 .5 1.9 1.1 2.7 1.7-4.6-1.8-10.2-1.7-16.7.5-15.6 5.4-31.4 11.7-47.3 17.9-4.5 1.8-6.9 4.2-7.4 7.3-2.5 15.5-4.9 31-7.3 46.5s-4.8 31-7.3 46.4zM514.6 135.1c4 .4 7.9.7 11.9 1.1 3.7.4 7 1.7 9.9 3.8.4.3.8.6 1.2 1-2.5-1.6-5.4-2.6-8.6-3-4.8-.5-9.5-.9-14.3-1.4V135Zm14.4-5.9c-1.6-.4-2.5-1.2-2.5-2.3.8 0 1.6.2 2.4.3v2.1Zm-25.9 12-.9-.6c-2.8-2-4.3-4.2-4.3-6.7v-11.1c0-2.4 1.4-4.5 4.3-6.1s6.2-2.3 10-1.9c4.8.4 9.5.9 14.3 1.5 3.7.4 7 1.8 9.9 3.9.4.3.7.6 1 .9-2.5-1.6-5.3-2.6-8.5-3-4.8-.6-9.5-1.1-14.3-1.5-3.8-.3-7.1.3-10 1.9-2.8 1.7-4.3 3.7-4.3 6.1v11.1q0 3 2.7 5.4Zm11.5 14c4 .3 7.9.6 11.9 1v-9.3c.8 0 1.6.2 2.4.2V158c-4.8-.4-9.5-.8-14.3-1.2zm-11.6 6.1c-.3-.2-.5-.3-.8-.5-2.8-2-4.3-4.2-4.3-6.6v-1.7c0-1.5 1.2-2.2 3.5-2.1 2.4.1 4.8.3 7.2.5 2 .1 3.2.8 3.5 2-.3 0-.7-.1-1-.1-2.4-.2-4.8-.3-7.2-.5-2.3-.1-3.5.6-3.5 2.1v1.7c0 1.9.9 3.7 2.6 5.3Zm-38.8-31.7c1.6-2.1 3.1-4.1 4.7-6.2 2.4-3.1 4.8-6.3 7.1-9.4.7-.9 1.7-1.3 3.2-1.2 2.6 0 5.3.2 8 .3 1.3 0 2.3.5 3 1.2.2.2.3.5.4.7-.3 0-.6-.1-1-.1-2.7-.1-5.3-.2-8-.3-1.5 0-2.5.4-3.2 1.2-2.4 3.1-4.8 6.2-7.1 9.4-2.4 3.1-4.7 6.3-7.1 9.5zm-14.2 33c-1.6-.2-2.5-.9-2.5-2.2v-45.3c0-1.5 1.1-2.3 3.5-2.4 2.4 0 4.8 0 7.2-.1 2.1 0 3.3.6 3.5 1.9h-1c-2.4 0-4.8 0-7.2.1-2.3 0-3.5.9-3.5 2.4v45.699999999999996Zm28-.1c-.9-.2-1.6-.6-2-1.2-2.4-3.2-4.8-6.4-7.1-9.6-1.6-2.1-3.1-4.2-4.7-6.3V144c2.4 3.2 4.7 6.4 7.1 9.5 2.2 3 4.5 6 6.7 9m-63.4-31.4c1.7-2.6 3.5-5.1 5.2-7.6 1.9-2.8 3.8-5.5 5.7-8.3.6-.9 1.7-1.4 3.2-1.5 2.8-.2 5.6-.4 8.5-.5 2.2-.1 3.4.5 3.5 1.8h-1.1c-2.8.1-5.6.3-8.5.5-1.5 0-2.6.6-3.2 1.5-1.9 2.8-3.8 5.6-5.7 8.3-1.9 2.8-3.8 5.5-5.7 8.3l-2-2.5Zm-24.5 35.2c-1.6 0-2.4-.7-2.4-1.9v-44.1c0-1.5 1.1-2.4 3.5-2.7 2.8-.4 5.6-.8 8.5-1.1 1.5-.2 2.5.1 3.2.9l.7.9h-1.4c-2.8.3-5.6.7-8.5 1.1-2.3.3-3.5 1.2-3.5 2.7v44.1Zm22.7-16c-.8-.1-1.4-.5-1.8-1-1.5-2-3.1-3.9-4.6-5.9l-2.2-2.7v-1.3c1.5 1.9 3.1 3.9 4.6 5.8l3.9 5.1Zm16.2 13c-1.6-.1-2.5-.8-2.5-2.1v-20.4c.8-1.2 1.6-2.3 2.4-3.5v26Z" class="st11" data-source="https://football-logos.cc"></path><!-- source: https://football-logos.cc --></svg>