<svg xmlns="http://www.w3.org/2000/svg" xmlns:xlink="http://www.w3.org/1999/xlink" viewBox="0 0.01 800 991.29"><!-- Source: https://football-logos.cc --><defs data-source="https://football-logos.cc"><linearGradient id="n"><stop offset="0" style="stop-color:#78262d;stop-opacity:1"></stop><stop offset="1" style="stop-color:#b42326;stop-opacity:1"></stop></linearGradient><linearGradient id="m"><stop offset="0" style="stop-color:#921920;stop-opacity:1"></stop><stop offset=".329" style="stop-color:#861718;stop-opacity:1"></stop><stop offset=".697" style="stop-color:#a31c21;stop-opacity:1"></stop><stop offset="1" style="stop-color:#ee5a1e;stop-opacity:1"></stop></linearGradient><linearGradient id="l"><stop offset="0" style="stop-color:#4c1113;stop-opacity:1"></stop><stop offset=".314" style="stop-color:#c91d25;stop-opacity:1"></stop><stop offset=".631" style="stop-color:#ea1d24;stop-opacity:1"></stop><stop offset="1" style="stop-color:#ea1d24;stop-opacity:1"></stop></linearGradient><linearGradient id="k"><stop offset="0" style="stop-color:#de271e;stop-opacity:1"></stop><stop offset="1" style="stop-color:#f8cc0a;stop-opacity:1"></stop></linearGradient><linearGradient id="j"><stop offset="0" style="stop-color:#f69019;stop-opacity:1"></stop><stop offset=".646" style="stop-color:#f69019;stop-opacity:1"></stop><stop offset="1" style="stop-color:#ed1e22;stop-opacity:1"></stop></linearGradient><linearGradient id="i"><stop offset="0" style="stop-color:#f0911a;stop-opacity:1"></stop><stop offset=".495" style="stop-color:#fccd05;stop-opacity:1"></stop><stop offset="1" style="stop-color:#fdcd02;stop-opacity:1"></stop></linearGradient><linearGradient id="h"><stop offset="0" style="stop-color:#ee9215;stop-opacity:1"></stop><stop offset="1" style="stop-color:#d64820;stop-opacity:1"></stop></linearGradient><linearGradient id="g"><stop offset="0" style="stop-color:#d5471f;stop-opacity:1"></stop><stop offset="1" style="stop-color:#fec30e;stop-opacity:1"></stop></linearGradient><linearGradient id="f"><stop offset="0" style="stop-color:#d2441e;stop-opacity:1"></stop><stop offset="1" style="stop-color:#fdce04;stop-opacity:1"></stop></linearGradient><linearGradient id="e"><stop offset="0" style="stop-color:#e9651c;stop-opacity:1"></stop><stop offset="1" style="stop-color:#fcbe14;stop-opacity:1"></stop></linearGradient><linearGradient id="d"><stop offset="0" style="stop-color:#f18b19;stop-opacity:1"></stop><stop offset=".717" style="stop-color:#f9b317;stop-opacity:1"></stop><stop offset="1" style="stop-color:#fdce04;stop-opacity:1"></stop></linearGradient><linearGradient id="c"><stop offset="0" style="stop-color:#ea6824;stop-opacity:1"></stop><stop offset="1" style="stop-color:#ffcf01;stop-opacity:1"></stop></linearGradient><linearGradient id="b"><stop offset="0" style="stop-color:#ffcf01;stop-opacity:1"></stop><stop offset=".163" style="stop-color:#fece03;stop-opacity:1"></stop><stop offset="1" style="stop-color:#eb761a;stop-opacity:1"></stop></linearGradient><linearGradient id="a"><stop offset="0" style="stop-color:#e76819;stop-opacity:1"></stop><stop offset=".335" style="stop-color:#f2901b;stop-opacity:1"></stop><stop offset=".722" style="stop-color:#fccd05;stop-opacity:1"></stop><stop offset="1" style="stop-color:#ffcf01;stop-opacity:1"></stop></linearGradient><linearGradient xlink:href="#a" id="C" x1="402.021" x2="395.321" y1="97.563" y2="-264.256" gradientUnits="userSpaceOnUse"></linearGradient><linearGradient xlink:href="#b" id="z" x1="636.533" x2="92.13" y1="-485.368" y2="-148.675" gradientUnits="userSpaceOnUse"></linearGradient><linearGradient xlink:href="#c" id="A" x1="604.077" x2="614.145" y1="-492.773" y2="-465.53" gradientUnits="userSpaceOnUse"></linearGradient><linearGradient xlink:href="#d" id="D" x1="124.369" x2="367.184" y1="100.052" y2="-34.977" gradientUnits="userSpaceOnUse"></linearGradient><linearGradient xlink:href="#e" id="w" x1="-45.01" x2="358.893" y1="200.732" y2="-48.006" gradientUnits="userSpaceOnUse"></linearGradient><linearGradient xlink:href="#f" id="x" x1="-331.65" x2="59.223" y1="450.654" y2="95.314" gradientUnits="userSpaceOnUse"></linearGradient><linearGradient xlink:href="#g" id="t" x1="-265.32" x2="101.864" y1="291.935" y2="-39.715" gradientUnits="userSpaceOnUse"></linearGradient><linearGradient xlink:href="#h" id="u" x1="-135.029" x2="-300.854" y1="33.722" y2="325.101" gradientUnits="userSpaceOnUse"></linearGradient><linearGradient xlink:href="#i" id="s" x1="-161.087" x2="42.641" y1="-6.55" y2="-120.258" gradientUnits="userSpaceOnUse"></linearGradient><linearGradient xlink:href="#j" id="r" x1="-73.437" x2="-329.281" y1="-79.987" y2="152.169" gradientUnits="userSpaceOnUse"></linearGradient><linearGradient xlink:href="#k" id="B" x1="-187.146" x2="37.903" y1="31.353" y2="-165.268" gradientUnits="userSpaceOnUse"></linearGradient><linearGradient xlink:href="#j" id="v" x1="-284.272" x2="82.913" y1="59.78" y2="-217.385" gradientUnits="userSpaceOnUse"></linearGradient><linearGradient xlink:href="#j" id="q" x1="-272.427" x2="-149.243" y1="-56.297" y2="-193.695" gradientUnits="userSpaceOnUse"></linearGradient><linearGradient xlink:href="#l" id="o" x1="312.699" x2="341.126" y1="1118.692" y2="-511.132" gradientUnits="userSpaceOnUse"></linearGradient><linearGradient xlink:href="#m" id="y" x1="326.912" x2="331.65" y1="1147.119" y2="-463.753" gradientUnits="userSpaceOnUse"></linearGradient><linearGradient xlink:href="#n" id="p" x1="-311.566" x2="783.941" y1="502.934" y2="-378.162" gradientUnits="userSpaceOnUse"></linearGradient></defs><path d="M317.775-469.25c-182.16 7.983-375.074 52.536-523.629 124.37C-348.978-3.279-348.205 250.895-302.09 449.325c37.174 159.955 116.076 286.146 216.117 399.194 108.139 122.196 259.993 223.37 403.748 292.24 143.756-68.87 295.61-170.044 403.748-292.24C821.565 735.472 900.465 609.28 937.64 449.326c46.115-198.43 46.89-452.604-96.235-794.207C692.85-416.714 499.935-461.267 317.775-469.25" style="fill:url(#o);fill-opacity:1;fill-rule:evenodd;stroke:none;stroke-width:3;stroke-linecap:butt;stroke-linejoin:miter;stroke-miterlimit:4;stroke-dasharray:none;stroke-opacity:1" transform="matrix(.5955 0 0 .5955 210.766 305.67)"></path><path d="M-283.812 525.075c112.106-85.01 182.137-166.621 257.162-280.032 34.066-26.744 65.306-55.029 116.008-72.699C272.795 119.188 318.79 36.764 350.245 8.855c0 0 3.906 1.41 5.504 5.045 6.66 15.147 15.115 32.71 30.654 35.648 21.062-.599 67.625-11.838 104.18-32.85 6.258-1.181 11.234-1.98 16.672-4.366C565.928-13.423 647.938-12.704 658.67 61.62c9.348.41 18.079-.416 25.755-3.35l-1.676 15.703c18.703-12.71 23.583-47.22 22.647-68.196-1.388-31.144-19.51-57.915-45.604-78.064-30.914-23.87-68.418-38.596-88.171-40.75-39.417-4.3-80.177-1.523-113.333 11.336 3.172-35.304 16.75-60.034 33.425-79.124 27.927-32.04 59.004-44.303 88.882-44.603 21.782-.22 50.569 7.133 69.684 23.28 11.835 9.998 28.746 24.03 36.601 26.345 11.776 3.47 20.759-4.25 25.82-28.062 6.097-5.29 15.317-16.883 20.251-31.945l-30.938 20.55c-27.874-49.062-6.74-106.67 74.541-127.755l1.675 40.303c12.413-10.698 13.76-7.915 18.815-36.505 11.57-8.722 14.179-33.524 2.841-23.255l-85.501-30.901-411.443-9.293c-53.02 22.256-91.602 59.345-121.07 103.328-35.304 52.696-86 130.782-135.012 180.1 4.734-72.875-77.431-95.33-167.467-58.651-36.823 15.001-92.851 43.984-177.5 150.954l-23.14 103.527c52.483-57.935 128.269-155.681 171.96-181.777 47.377-26.42 85.809-26.364 106.643-19.592 24.664 8.017 45.203 23.695 52.793 44.004L-34.32-42.145c-84.998 4.162-183.317 57.733-207.7 76.935-42.611 28.225-74.215 68.334-104.58 111.783l-4.687 102.31c33.582-50.113 82.754-112.437 125.85-131.18l-79.36 262.359z" style="fill:url(#p);fill-opacity:1;fill-rule:evenodd;stroke:none;stroke-width:1px;stroke-linecap:butt;stroke-linejoin:miter;stroke-opacity:1" transform="matrix(.5955 0 0 .5955 210.766 305.67)"></path><g style="fill:#b51d21;fill-opacity:1"><path d="M16.047 823.24v48.143c4.172 4.549 8.497 9.1 12.928 13.646V823.24zM46.649 823.24v79.217c4.524 4.32 9.16 8.625 13.885 12.914v-92.13zM77.73 823.24v107.655a850 850 0 0 0 13.884 11.613V823.24zM108.81 956.566a907 907 0 0 0 13.884 10.598V823.24H108.81zM139.89 823.24v156.754a929 929 0 0 0 13.886 9.695V823.24zM170.97 1001.445c4.601 2.996 9.233 5.944 13.885 8.856V823.24h-13.884zM202.05 823.24v197.823c4.61 2.74 9.244 5.417 13.887 8.064V823.24zM233.132 823.24v215.668a817 817 0 0 0 13.884 7.297V823.24zM264.211 823.24v231.766a739 739 0 0 0 13.887 6.516V823.24zM295.292 823.24v246.067a650 650 0 0 0 13.885 5.693V823.24zM619.503 823.24v48.143a621 621 0 0 1-12.928 13.646V823.24zM588.901 823.24v79.217a753 753 0 0 1-13.885 12.914v-92.13zM557.82 823.24v107.655a850 850 0 0 1-13.884 11.613V823.24zM526.74 956.566a907 907 0 0 1-13.884 10.598V823.24h13.884zM495.66 823.24v156.754a929 929 0 0 1-13.886 9.695V823.24zM464.58 1001.445a919 919 0 0 1-13.885 8.856V823.24h13.884zM433.5 823.24v197.823a879 879 0 0 1-13.887 8.064V823.24zM402.419 823.24v215.668a817 817 0 0 1-13.885 7.297V823.24zM371.339 823.24v231.766a739 739 0 0 1-13.887 6.516V823.24zM340.258 823.24v246.067a650 650 0 0 1-13.885 5.693V823.24z" style="fill:#b51d21;fill-opacity:1;fill-rule:evenodd;stroke:none;stroke-width:1px;stroke-linecap:butt;stroke-linejoin:miter;stroke-opacity:1" transform="matrix(.5955 0 0 .5955 210.766 305.67)"></path></g><path d="M671.338-136.928 688.453 8.613c.055.355.165.65.217 1.008 9.348.41 18.078-.417 25.754-3.351l-1.674 15.705c18.702-12.71 23.582-47.22 22.646-68.198-1.388-31.143-19.51-57.913-45.603-78.062-5.957-4.6-12.183-8.747-18.455-12.643" style="fill:#ffcf01;fill-opacity:1;fill-rule:evenodd;stroke:none;stroke-width:1px;stroke-linecap:butt;stroke-linejoin:miter;stroke-opacity:1" transform="matrix(.5955 0 0 .5955 210.766 305.67)"></path><path d="m-274.545-50.135 99.82-85.99c4.065-3.878 20.781-61.336 24.93-65-31.312 22.777-69.72 60.785-118.312 122.191z" style="fill:url(#q);fill-opacity:1;fill-rule:evenodd;stroke:none;stroke-width:1px;stroke-linecap:butt;stroke-linejoin:miter;stroke-opacity:1" transform="matrix(.5955 0 0 .5955 210.766 305.67)"></path><path d="M520.227-35.113 337.838-307.036 215.802-202.4 305.22-68.91l74.653 26.123c.12-.108.251-.251.371-.358 0 0 3.908 1.41 5.506 5.045 6.66 15.147 15.114 32.71 30.652 35.649 20.996-.597 67.321-11.78 103.825-32.662" style="fill:#fdce04;fill-opacity:1;fill-rule:evenodd;stroke:none;stroke-width:1px;stroke-linecap:butt;stroke-linejoin:miter;stroke-opacity:1" transform="matrix(.5955 0 0 .5955 210.766 305.67)"></path><path d="M-217.965 74.668c.703-1.477 1.762-2.863 2.625-4.441l92.936-75.06 48.21-71.927c3.576-2.701 6.625-5.2 9.98-7.56-66.535 17.312-129.05 52.34-147.806 67.111-42.61 28.225-74.214 68.332-104.58 111.781l-4.687 102.31c30.36-45.302 65.161-98.544 103.322-122.214" style="fill:url(#r);fill-opacity:1;fill-rule:evenodd;stroke:none;stroke-width:1px;stroke-linecap:butt;stroke-linejoin:miter;stroke-opacity:1" transform="matrix(.5955 0 0 .5955 210.766 305.67)"></path><path d="M-64.215-84.32a376 376 0 0 0-10.379 7.56c-7.74 5.848-15.943 12.444-24.361 19.565a793 793 0 0 0-25.652 22.707 863 863 0 0 0-25.46 24.49c-8.289 8.31-16.297 16.695-23.78 24.924-.87.956-1.542 1.837-2.397 2.789l73.104-2.226L5.73-30.188l52.61-62.144-17.94-40.1-.195-.043-44.523 38.33c-19.619.96-39.932 4.63-59.897 9.825" style="fill:url(#s);fill-opacity:1;fill-rule:evenodd;stroke:none;stroke-width:1px;stroke-linecap:butt;stroke-linejoin:miter;stroke-opacity:1" transform="matrix(.5955 0 0 .5955 210.766 305.67)"></path><path d="m79.725-56.143-.014.022L-1.58-8.61l-81.486 44.96-109.019 85.53-75.13 180.676c-.539 1.23-1.057 2.445-1.59 3.672l159.269-104.06L52.572 75.44c4.032-2.374 8.119-4.676 12.174-7.02l99.781-91.999Z" style="fill:url(#t);fill-opacity:1;fill-rule:evenodd;stroke:none;stroke-width:1px;stroke-linecap:butt;stroke-linejoin:miter;stroke-opacity:1" transform="matrix(.5955 0 0 .5955 210.766 305.67)"></path><path d="M-268.805 306.229c.534-1.227 1.052-2.442 1.59-3.672 3.957-9.05 8.061-18.215 12.574-27.7a633 633 0 0 1 15.03-29.617 616 616 0 0 1 8.922-15.91 655 655 0 0 1 10.125-16.85 726 726 0 0 1 11.52-17.94 831 831 0 0 1 13.11-19.186 974 974 0 0 1 14.9-20.583 1160 1160 0 0 1 16.884-22.134c5.98-7.654 12.323-15.59 19.062-23.836a1695 1695 0 0 1 21.438-25.696A2066 2066 0 0 1-99.64 55.4c5.39-6.114 11.3-12.634 17.076-19.048l-60.378 9.545-63.656 23.039c-52.486 87.352-67.759 166.675-95.441 260.31l9.318 19.744c10.553-8.87 16.894-15.232 27.6-24.08.442-.365-4.127-18.316-3.684-18.681" style="fill:url(#u);fill-opacity:1;fill-rule:evenodd;stroke:none;stroke-width:1px;stroke-linecap:butt;stroke-linejoin:miter;stroke-opacity:1" transform="matrix(.5955 0 0 .5955 210.766 305.67)"></path><path d="M-206.598 69.335c16.779-4.202 33.005-8.224 48.58-12.15 15.963-4.024 31.287-7.961 45.963-11.932s28.706-7.974 42.075-12.13a744 744 0 0 0 19.556-6.366 570 570 0 0 0 18.56-6.685 448 448 0 0 0 17.555-7.094 360 360 0 0 0 16.54-7.596A296 296 0 0 0 17.747-2.8a249 249 0 0 0 14.488-8.866c4.657-3.078 9.139-6.685 13.448-10.034 4.308-3.35 8.442-6.441 12.4-10.093A179 179 0 0 0 69.43-43.239c3.605-3.983 7.032-8.538 10.28-12.882a94.6 94.6 0 0 0 7.237-11.229 90 90 0 0 0 5.573-12.273 91 91 0 0 0 2.12-6.553 94 94 0 0 0 1.657-6.845 99 99 0 0 0 1.176-7.145q.465-3.649.677-7.457a81.4 81.4 0 0 0-.507-14.688 86 86 0 0 0-1.319-7.668 95 95 0 0 0-2.101-7.943 109 109 0 0 0-2.944-8.262 129 129 0 0 0-3.838-8.62 157 157 0 0 0-4.79-9.028c-1.53-2.674-3.242-5.432-5.03-8.223-.253.257-.508.562-.762.817-14.947-44.246-92.354-73.623-167.466-58.65-16.61 3.31-35.954 11.862-59.188 28.763-4.149 3.664-8.336 7.228-12.4 11.107a512 512 0 0 0-19.553 19.74 628 628 0 0 0-18.86 21.026 770 770 0 0 0-18.148 21.979c-5.93 7.448-11.737 15-17.422 22.601-5.684 7.6-11.245 15.25-16.68 22.893-7.586 10.669-14.6 21.151-21.687 31.644l-16.703 74.729c52.482-57.936 128.269-155.681 171.96-181.778 7.996-4.458 15.624-7.919 23.067-10.964 2.913-1.514 13.425-5.54 16.273-6.837l30.737-7.45 32.308.718c27.997 3.585 52.024 29.9 66.404 48.904 9.689 12.803 4.233 34.668 2.685 48.028L9.134-34.943-93.668 8.681l-87.94 15.274c-4.398 5.04-9.006 10.17-12.863 14.969a339 339 0 0 0-8.664 11.23 231 231 0 0 0-7.318 10.49c-2.195 3.355-4.134 6.559-5.787 9.583-.863 1.578-1.422 2.964-2.125 4.441 4.05-2.513 8.132-4.397 12.267-6.196-.174.29-.326.574-.5.863" style="fill:url(#v);fill-opacity:1;fill-rule:evenodd;stroke:none;stroke-width:1px;stroke-linecap:butt;stroke-linejoin:miter;stroke-opacity:1" transform="matrix(.5955 0 0 .5955 210.766 305.67)"></path><path d="M133.154 116.02c-.093.015-.184.02-.277.035-3.556.594-7.547-.347-11.13.516a179 179 0 0 0-10.775 2.963 207 207 0 0 0-10.809 3.67 241 241 0 0 0-10.812 4.303c-7.203 3.066-14.386 6.511-21.512 10.242-7.126 3.73-14.193 7.747-21.16 11.959s-13.834 8.619-20.56 13.129a693 693 0 0 0-19.721 13.746c-6.406 4.624-12.21 10.935-18.212 15.491-.241.183-.42.502-.543.936s-.193.985-.215 1.637c-.044 1.303.1 3.009.369 4.982.49 3.585 1.443 8.15 2.39 12.697 4.386-6.454 8.752-12.616 13.163-19.283 34.065-26.744 65.306-55.03 116.007-72.7 4.82-1.396 9.165-2.888 13.797-4.323" style="fill:#f6771b;fill-opacity:1;fill-rule:evenodd;stroke:none;stroke-width:1px;stroke-linecap:butt;stroke-linejoin:miter;stroke-opacity:1" transform="matrix(.5955 0 0 .5955 210.766 305.67)"></path><path d="m332.914-71.438-46.745 2.05L85.148 63.404l-123.824 93.45 7.426 27.68c.166 1.923.487 4.552.91 7.655.847 6.204 2.106 14.296 3.371 22.386a1998 1998 0 0 1 2.776 18.239c4.79-6.824 9.585-13.43 14.38-20.487-.947-4.547-1.9-9.112-2.39-12.697-.27-1.973-.413-3.679-.37-4.983.023-.651.092-1.202.216-1.636.123-.434.302-.753.543-.936a969 969 0 0 1 18.63-13.816 693 693 0 0 1 19.721-13.746c6.727-4.51 13.594-8.917 20.56-13.13 6.968-4.211 14.035-8.228 21.16-11.958 7.126-3.73 14.31-7.176 21.513-10.242a241 241 0 0 1 10.812-4.303c3.605-1.333 7.21-2.56 10.809-3.67q5.4-1.667 10.775-2.963a154 154 0 0 1 10.711-2.191c.093-.016.184-.02.277-.036 3.587-1.111 8.279-3.182 11.756-4.316L376.708-44.064c-1.747-.762-4.492-2.603-6.234-3.383-3.902-1.75-7.83-3.608-11.902-5.817a128 128 0 0 1-12.766-7.92c-2.238-1.575-4.54-3.299-6.924-5.2-1.92-1.534-3.936-3.274-5.968-5.054" style="fill:url(#w);fill-opacity:1;fill-rule:evenodd;stroke:none;stroke-width:1px;stroke-linecap:butt;stroke-linejoin:miter;stroke-opacity:1" transform="matrix(.5955 0 0 .5955 210.766 305.67)" data-source="https://football-logos.cc"></path><path d="M64.746 68.42c-4.055 2.343-8.142 4.645-12.174 7.02A1787 1787 0 0 0 25.92 91.45 1878 1878 0 0 0-.4 107.872a1978 1978 0 0 0-25.996 16.809 2151 2151 0 0 0-51.047 34.648 2434 2434 0 0 0-49.838 35.828 2803 2803 0 0 0-48.688 36.768 3304 3304 0 0 0-47.601 37.467 4032 4032 0 0 0-46.576 37.93c-10.706 8.847-21.235 17.721-31.788 26.591l3.768 168.182 17.191-8.95C-167.298 411.22-95.377 334.233-24.193 232.812c-.818-5.57-1.745-11.645-2.776-18.238-1.265-8.09-2.524-16.182-3.37-22.387-.424-3.102-.745-5.731-.911-7.654s-.179-3.139.014-3.41c3.426-4.828 7.283-9.718 11.54-14.664 4.258-4.946 8.916-9.947 13.942-15 5.027-5.053 10.421-10.157 16.156-15.305s11.81-10.339 18.192-15.57c.414-.34.882-.686 1.299-1.025l35.501-32.992-.812-17.854c.058-.098.107-.195.164-.293" style="fill:url(#x);fill-opacity:1;fill-rule:evenodd;stroke:none;stroke-width:1px;stroke-linecap:butt;stroke-linejoin:miter;stroke-opacity:1" transform="matrix(.5955 0 0 .5955 210.766 305.67)"></path><path d="M300.5-469.338c-179.312.825-382.441 54.869-526.354 124.457C-368.978-3.278-374.205 250.896-328.09 449.326c37.174 159.955 110.076 286.146 210.117 399.194 108.139 122.196 285.689 247.523 435.748 302.84 150.06-55.317 327.61-180.644 435.748-302.84C853.565 735.472 926.465 609.28 963.64 449.326c46.115-198.43 40.89-452.604-102.235-794.207C712.85-416.714 501.196-471.983 317.775-469.25c182.16 7.983 345.075 52.536 493.63 124.37C954.528-3.279 963.753 250.895 917.638 449.325 880.465 609.281 801.565 735.472 701.523 848.52c-108.138 122.196-239.992 209.37-383.748 278.24C174.02 1057.89 42.166 970.716-65.973 848.52-166.014 735.472-244.916 609.28-282.09 449.326c-46.115-198.43-36.888-452.604 106.236-794.207 148.555-71.833 311.47-116.386 493.63-124.369a886 886 0 0 0-17.276-.088" style="fill:url(#y);fill-opacity:1;fill-rule:evenodd;stroke:none;stroke-width:3;stroke-linecap:butt;stroke-linejoin:miter;stroke-miterlimit:4;stroke-dasharray:none;stroke-opacity:1" transform="matrix(.5955 0 0 .5955 210.766 305.67)"></path><path d="M645.842-491.15c-9.298-2.11-19.097-5.206-27.434-9.46-8.84-5.046-14.72-11.32-20.982-12.369a22.4 22.4 0 0 0-3.403-.31c-16.587-.228-26.66 18.945-25.673 33.78-108.046-15.723-179.204 1.25-235.409 24.843-53.02 22.256-91.603 59.345-121.07 103.328-35.122 52.424-85.476 129.927-134.25 179.283 1.788 2.791 3.5 5.55 5.03 8.223a157 157 0 0 1 4.79 9.027c1.435 2.94 2.711 5.81 3.838 8.621.597 1.49 1.044 2.92 1.559 4.377.563-.681 1.13-1.28 1.693-1.97l265.851-170.25 281.57-76.336 44.105-87.594z" style="fill:url(#z);fill-opacity:1;fill-rule:evenodd;stroke:none;stroke-width:1px;stroke-linecap:butt;stroke-linejoin:miter;stroke-opacity:1" transform="matrix(.5955 0 0 .5955 210.766 305.67)"></path><path d="M594.898-456.943c-8.9-6.27-21.962-43.522 10.068-37.014 9.127 7.809 19.51 10.594 30.204 12.14l16.286 13.622z" style="fill:url(#A);fill-opacity:1;fill-rule:evenodd;stroke:none;stroke-width:1px;stroke-linecap:butt;stroke-linejoin:miter;stroke-opacity:1" transform="matrix(.5955 0 0 .5955 210.766 305.67)"></path><g style="fill:#7e272a;fill-opacity:1"><path d="M176.908 216.932v328.972h76.672v-99.851h39.902l56.012 75.734c12.233 15.709 25.38 23.138 39.988 24.117h70.04L371.368 428.54c97.785-66.792 43.847-211.813-54.959-211.607zm76.672 75.341h54.852c18.73-.48 37.892 19.135 38 39.069-.108 19.934-19.27 39.55-38 39.07H253.58zM465.533 216.932v328.972h75.781V327.928l84.694 217.976h63.299l84.695-217.976v217.976h75.78V216.932h-90.39c-15.62.185-34.907 15.285-40.888 33.431L661.893 411.73c-2.045 8.34-3.378 16.324-4.235 24.07-.857-7.746-2.19-15.73-4.234-24.07L596.81 250.363c-5.982-18.146-25.268-33.246-40.89-33.431z" style="fill:#7e272a;fill-opacity:1;fill-rule:evenodd;stroke:none;stroke-width:1px;stroke-linecap:butt;stroke-linejoin:miter;stroke-opacity:1" transform="matrix(.5955 0 0 .5955 210.766 305.67)"></path><path d="M-23.436 206.908a172.51 172.51 0 0 0-172.51 172.51 172.51 172.51 0 0 0 172.51 172.51A172.5 172.5 0 0 0 51.62 534.59l37.524 50.82c10.507 10.85 20.486 22.423 38.732 22.684l73.344-.338-89.582-121.32a172.5 172.5 0 0 0 37.437-107.018 172.51 172.51 0 0 0-172.51-172.51" style="opacity:1;fill:#7e272a;fill-opacity:1;fill-rule:nonzero;stroke:none;stroke-width:1;stroke-linecap:butt;stroke-linejoin:miter;stroke-miterlimit:4;stroke-dasharray:none;stroke-dashoffset:0;stroke-opacity:1" transform="matrix(.5955 0 0 .5955 210.766 305.67)"></path></g><g style="fill:#ffcf01;fill-opacity:1"><path d="M156.908 192.931v328.973h76.672v-99.851h39.902l56.012 75.734c12.233 15.709 25.38 23.138 39.988 24.117h70.04L351.368 404.54c97.785-66.792 43.847-211.813-54.959-211.608zm76.672 75.342h54.852c18.73-.48 37.892 19.135 38 39.069-.108 19.934-19.27 39.55-38 39.07H233.58zM443.533 192.932v328.972h75.781V303.928l84.694 217.976h63.299l84.695-217.976v217.976h75.78V192.932h-90.39c-15.62.185-34.907 15.285-40.888 33.431L639.893 387.73c-2.045 8.34-3.378 16.324-4.235 24.07-.857-7.746-2.19-15.73-4.234-24.07L574.81 226.363c-5.982-18.146-25.268-33.246-40.89-33.431z" style="fill:#ffcf01;fill-opacity:1;fill-rule:evenodd;stroke:none;stroke-width:1px;stroke-linecap:butt;stroke-linejoin:miter;stroke-opacity:1" transform="matrix(.5955 0 0 .5955 210.766 305.67)"></path><path d="M-43.436 184.908a172.51 172.51 0 0 0-172.51 172.51 172.51 172.51 0 0 0 172.51 172.51A172.5 172.5 0 0 0 31.62 512.59l37.524 50.82c10.507 10.85 20.486 22.423 38.732 22.684l73.344-.338-89.582-121.32a172.5 172.5 0 0 0 37.437-107.018 172.51 172.51 0 0 0-172.51-172.51" style="opacity:1;fill:#ffcf01;fill-opacity:1;fill-rule:nonzero;stroke:none;stroke-width:1;stroke-linecap:butt;stroke-linejoin:miter;stroke-miterlimit:4;stroke-dasharray:none;stroke-dashoffset:0;stroke-opacity:1" transform="matrix(.5955 0 0 .5955 210.766 305.67)"></path></g><path d="M-46.873 248.805c-17.154.008-32.37 3.75-46.398 10.002 3.393 2.662 7.02 5.324 11.095 7.986 13.413-2.331 23.96-3.129 32.63-2.992 6.232.098 11.496.677 16.189 1.5a5 5 0 0 1 1.103-.889c5.661-3.481 11.124-7.836 17.805-11.51-11.58-2.818-22.336-4.102-32.424-4.097m47.459 8.652c-9.5 2.817-16.275 8.145-24.484 13.488 9.948 11.586 17.782 24.163 24.42 37.207q5.197-.136 10.261.016c10.242.31 20.066 1.504 29.5 3.502.711-8.022.096-17.278-1.002-27.828-11.505-11.904-23.996-22.249-38.695-26.385m-51.85 16.307c-8.047-.046-17.994.817-30.92 3.172-12.472 12.105-21.399 26.1-27.97 41.353 5.462 13.38 13.575 26.431 22.718 39.352 6.228-.21 12.493-.413 18.563-.553 13.804-.319 26.182-.318 35.207.672l25.855-43.842c-6.875-13.702-14.98-26.633-25.388-38.336-5.088-1.019-10.826-1.777-18.065-1.818M49.89 289.123c.833 9.44 1.142 18.135.06 26.326 9.58 12.43 15.618 26.529 17.838 42.389l3.858.447q.065-1.1.109-2.203a114.2 114.2 0 0 0-21.865-66.959M4.205 318.092c-.96.006-1.937.044-2.906.066l-26.94 45.68L-4.158 406.8c14.555 3.369 24.685 2.989 39.3.978 10.033-13.266 18.334-26.195 23.294-42.91-1.216-16.234-6.515-29.995-15.801-42.365-12.045-2.943-24.804-4.491-38.43-4.412m-63.027 48.832c-3.174.027-6.465.083-9.82.16-5.47.126-11.126.308-16.784.496-4.906 15.082-8.299 30.224-10.515 43.762 8.03 9.532 23.372 21.578 43.529 27.172 11.934-6.34 29.101-15.66 37.613-30.635l-20.137-40.272c-5.912-.591-14.366-.764-23.886-.683m124.933 6.795c-5.572 15.58-13.902 28.138-23.156 40.355.616 6.189 1.377 10.909 2.172 14.969a114.2 114.2 0 0 0 25.043-54.854z" style="opacity:1;fill:#ea1d24;fill-opacity:1;fill-rule:nonzero;stroke:none;stroke-width:1;stroke-linecap:butt;stroke-linejoin:miter;stroke-miterlimit:4;stroke-dasharray:none;stroke-dashoffset:0;stroke-opacity:1" transform="matrix(.5955 0 0 .5955 210.766 305.67)"></path><path d="m39.805-132.475.195.043a72.5 72.5 0 0 1 4.504 16.532c.438 2.954.698 5.987.744 9.066s-.12 6.204-.535 9.344a60 60 0 0 1-2.02 9.431 58 58 0 0 1-3.709 9.325 59.4 59.4 0 0 1-5.603 9.029 63 63 0 0 1-3.576 4.342 68 68 0 0 1-4.13 4.195 164 164 0 0 1-9.552 8.236 184 184 0 0 1-11.11 8.192A217 217 0 0 1-7.86-36.621a262 262 0 0 1-14.848 8.02 324 324 0 0 1-17.027 7.892 406 406 0 0 1-19.418 7.742 511 511 0 0 1-22.014 7.56 646 646 0 0 1-24.818 7.358c-5.71 1.573-11.885 3.106-18.352 4.61-6.466 1.503-13.222 2.978-20.088 4.437-13.732 2.919-27.905 5.776-41.09 8.674 2.442 3.031 4.608 5.365 6.604 7.238a43.7 43.7 0 0 0 5.582 4.473c3.522 2.373 6.785 3.842 10.637 6.295 1.481.012 3.235-.096 5.224-.315s4.214-.549 6.635-.978c4.842-.86 10.972-1.619 17.094-3.194s12.734-3.464 19.537-5.586a478 478 0 0 0 20.684-6.976 637 637 0 0 0 16.926-5.498 555 555 0 0 0 16.418-5.877A477 477 0 0 0-44.363 2.99a405 405 0 0 0 15.106-6.662 341 341 0 0 0 14.302-7.066 283 283 0 0 0 13.397-7.485c4.304-2.565 8.842-5.2 12.795-7.908a190 190 0 0 0 11.29-8.342c3.57-2.854 6.44-6.283 9.592-9.287a126 126 0 0 0 8.79-9.238 104 104 0 0 0 7.39-9.701 88 88 0 0 0 5.89-10.172 77 77 0 0 0 4.295-10.652 72 72 0 0 0 2.596-11.143c.572-3.797.843-7.678.799-11.643a79 79 0 0 0-1.096-12.15 60 60 0 0 0-2.236-7.898 73 73 0 0 0-3.475-8.118 83 83 0 0 0-4.674-8.14 90 90 0 0 0-5.843-7.975 95 95 0 0 0-6.979-7.619 96.3 96.3 0 0 0-17.22-13.4 96 96 0 0 0-10.176-5.4c-3.56-1.624-7.287-3.36-11.174-4.578a98 98 0 0 0-12.139-2.965c-4.203-.748-8.96-1.246-13.467-1.461a110 110 0 0 0-13.962.236c-4.8.383-9.745 1.08-14.827 2.123a139 139 0 0 0-15.652 4.201c-5.352 1.768-10.835 4.215-16.445 6.771-2.848 1.298-5.822 3.02-8.735 4.534 36.668-15.002 66.258-14.257 83.576-8.627 24.665 8.017 45.204 23.694 52.793 44.004z" style="fill:url(#B);fill-opacity:1;fill-rule:evenodd;stroke:none;stroke-width:1px;stroke-linecap:butt;stroke-linejoin:miter;stroke-opacity:1" transform="matrix(.5955 0 0 .5955 210.766 305.67)"></path><path d="m645.842-491.15-54.537 99.587a561 561 0 0 0-21.815-6.501 527 527 0 0 0-21.469-5.444 495 495 0 0 0-21.113-4.4 467 467 0 0 0-20.75-3.377 442 442 0 0 0-20.375-2.363 419 419 0 0 0-19.988-1.37q-9.897-.437-19.594-.388a381 381 0 0 0-19.187.574q-9.492.526-18.772 1.523a352 352 0 0 0-18.347 2.46 340 340 0 0 0-17.91 3.374 331 331 0 0 0-17.465 4.278 324 324 0 0 0-17.01 5.164 319 319 0 0 0-16.543 6.035 313.871 313.871 0 0 0-31.648 14.623 161 161 0 0 0-7.903 4.49 178 178 0 0 0-7.756 4.983c-5.123 3.478-10.15 7.265-15.092 11.322-4.941 4.057-9.797 8.385-14.572 12.945a329 329 0 0 0-14.092 14.342 422 422 0 0 0-13.654 15.514 548 548 0 0 0-13.258 16.46 732 732 0 0 0-12.906 17.182 1027 1027 0 0 0-12.594 17.676c-8.3 11.9-16.422 23.982-24.42 35.941s-15.87 23.799-23.677 35.217a1163 1163 0 0 1-11.666 16.774 718 718 0 0 1-11.608 15.918 480 480 0 0 1-11.59 14.834c-.563.69-1.13 1.289-1.693 1.97.457 1.294.99 2.616 1.385 3.885a95 95 0 0 1 2.101 7.943 86 86 0 0 1 1.319 7.668 81.374 81.374 0 0 1 .508 14.688 106 106 0 0 1-.678 7.457 99 99 0 0 1-1.176 7.145 94 94 0 0 1-1.656 6.845 89.697 89.697 0 0 1-4.691 12.824 90 90 0 0 1-3.003 6.002 94.6 94.6 0 0 1-7.222 11.207c1.02 1.478 1.515 2.961 2.407 4.47a72 72 0 0 1 2.955 5.527 70.7 70.7 0 0 1 4.315 11.425 73 73 0 0 1 1.396 5.885q.575 2.971.913 5.994c.451 4.03.592 8.125.449 12.28-.144 4.154-.573 8.369-1.262 12.632a126 126 0 0 1-2.824 12.932 159 159 0 0 1-4.242 13.182 201 201 0 0 1-5.51 13.378c-2.032 4.488-4.252 9-6.633 13.528a324 324 0 0 1-7.607 13.623c-2.682 4.551-5.501 9.11-8.434 13.668a517 517 0 0 1-9.113 13.662 660 660 0 0 1-9.647 13.605c-2.428 3.339-4.507 6.595-6.995 9.91a711 711 0 0 1 18.742-14.779 922 922 0 0 1 21.707-16.002 1183 1183 0 0 1 23.191-16.166 1501 1501 0 0 1 24.492-16.297c16.721-10.899 34.187-21.86 52.153-32.84 17.966-10.979 36.432-21.976 55.154-32.943s37.7-21.905 56.691-32.767c16.925-9.682 33.82-19.272 50.59-28.801-.489-.428-.94-.773-1.435-1.217a216 216 0 0 1-7.971-7.52 280 280 0 0 1-8.625-8.95 368 368 0 0 1-9.37-10.561 489 489 0 0 1-10.2-12.354 652 652 0 0 1-11.117-14.328 865 865 0 0 1-12.127-16.48c-8.44-11.746-17.607-25.049-27.623-40.149l79.346-85.847c-.442 9.738-.407 19.305-.475 28.675s.061 18.542.412 27.493c.35 8.95.921 17.678 1.736 26.158s1.573 16.713 2.897 24.672a298 298 0 0 0 2.19 11.73q1.196 5.762 2.605 11.303a231 231 0 0 0 3.04 10.851 205 205 0 0 0 3.487 10.387 182 182 0 0 0 3.958 9.9 162 162 0 0 0 4.439 9.397 146 146 0 0 0 4.941 8.871 133 133 0 0 0 5.461 8.326 124 124 0 0 0 5.996 7.766 116 116 0 0 0 6.55 7.184 112 112 0 0 0 7.116 6.584 110 110 0 0 0 7.705 5.964 111 111 0 0 0 8.307 5.327 115 115 0 0 0 8.93 4.667 122 122 0 0 0 9.564 3.993 132 132 0 0 0 10.221 3.295q5.276 1.471 10.893 2.582 5.616 1.108 11.582 1.845 5.964.74 12.285 1.096t13.01.322q6.687-.034 13.75-.468c4.708-.29 9.342-.715 14.305-1.278a329 329 0 0 0 15.28-2.107c2.13-.344 4.377-.815 6.55-1.205.116-.067.242-.121.358-.188 6.257-1.182 11.234-1.98 16.672-4.367 58.39-25.63 139.837-24.982 151.197 48.281 1.603-1.993 3.235-3.983 4.695-5.996a132 132 0 0 0 5.961-8.947 113 113 0 0 0 4.977-9.086 98 98 0 0 0 3.941-9.232 88 88 0 0 0 2.866-9.39 82 82 0 0 0 1.742-9.548 79 79 0 0 0 .574-9.719 81 81 0 0 0-.639-9.896 86 86 0 0 0-1.896-10.078 96 96 0 0 0-3.201-10.272 111 111 0 0 0-4.551-10.469 132 132 0 0 0-5.945-10.675 159 159 0 0 0-7.383-10.889 195 195 0 0 0-8.87-11.11c-2.896-3.376-6.068-6.794-9.386-10.234-26.278-16.323-53.77-26.37-69.717-28.11-39.416-4.299-80.177-1.522-113.334 11.337 3.173-35.304 16.75-60.033 33.426-79.123 27.927-32.04 59.005-44.304 88.883-44.604 21.782-.218 50.568 7.135 69.683 23.282 11.836 9.997 28.747 24.03 36.602 26.345 11.776 3.47 20.758-4.25 25.82-28.062 6.097-5.29 15.316-16.883 20.25-31.946l-30.937 20.55c-27.874-49.063-6.74-106.668 74.54-127.755l1.675 40.303c12.412-10.699 13.76-7.914 18.816-36.504 11.57-8.722 10.68-23.478 8.762-38.654-.127-1.002-1.829-2.53-1.416-3.451 2.733-6.101 3.23-9.988-1.381-12.14-31.966-15.137-81.08-35.874-106.383-41.485-18.037-1.885-40.82-2.582-50.76-1.297-5.469.965-17.258-.012-30.025-2.908" style="fill:url(#C);fill-opacity:1;fill-rule:evenodd;stroke:none;stroke-width:1px;stroke-linecap:butt;stroke-linejoin:miter;stroke-opacity:1" transform="matrix(.5955 0 0 .5955 210.766 305.67)"></path><path d="M707.515-453.54c15.433 2.188 28.258 3.254 41.04 4.606-3.429 5.502-6.157 11.938-12.773 13.19-7.19.833-19.784-11.01-28.267-17.797" style="fill:#ea1d24;fill-opacity:1;fill-rule:evenodd;stroke:none;stroke-width:1px;stroke-linecap:butt;stroke-linejoin:miter;stroke-opacity:1" transform="matrix(.5955 0 0 .5955 210.766 305.67)"></path><path d="M375.716-45.144 124.369 79.916l19.06 32.676C305.716 59.704 349.899-15.892 379.874-42.788c-1.495-.656-2.672-1.707-4.157-2.356" style="fill:url(#D);fill-opacity:1;fill-rule:evenodd;stroke:none;stroke-width:1px;stroke-linecap:butt;stroke-linejoin:miter;stroke-opacity:1" transform="matrix(.5955 0 0 .5955 210.766 305.67)"></path><g style="fill:#fff"><path d="M-1539.798 681.008h-4.593v14.98h-9.84v-41.442h16.783q15.8 0 15.8 13.286 0 9.458-8.255 12.137l9.896 16.019h-10.935zm-4.593-8.31h6.943q5.85 0 5.85-4.866 0-2.57-1.421-3.773-1.422-1.202-4.429-1.202h-6.943zM-1494.986 696.917q-6.889 0-11.7-2.788-4.81-2.843-7.217-7.709-2.405-4.92-2.405-11.098 0-6.069 2.405-10.935 2.406-4.865 7.217-7.708 4.811-2.898 11.7-2.898 6.78 0 11.59 2.898 4.812 2.843 7.217 7.763 2.46 4.866 2.46 10.88 0 6.178-2.46 11.098-2.405 4.866-7.217 7.709-4.756 2.788-11.59 2.788m0-8.31q5.303 0 8.256-3.718 2.952-3.717 2.952-9.731 0-3.773-1.312-6.725t-3.882-4.647q-2.515-1.695-6.014-1.695-5.412 0-8.365 3.663-2.897 3.663-2.897 9.568 0 6.014 2.897 9.677 2.898 3.608 8.365 3.608M-1451.442 696.917q-9.02 0-13.559-4.483-4.483-4.483-4.483-12.739v-25.149h9.841v25.15q0 4.428 2.023 6.67 2.078 2.241 6.178 2.241t6.123-2.242q2.078-2.241 2.078-6.67v-25.149h9.84v25.15q0 8.255-4.482 12.738-4.484 4.483-13.559 4.483M-1395.858 688.115v7.873h-30.264v-41.442h29.991v7.873h-20.15v8.802h17.416v7.873h-17.416v9.021zM-1353.434 654.546v41.442h-11.317l-14.87-25.477v25.477h-9.842v-41.442h11.317l14.871 25.478v-25.478zM-1282.43 654.546v41.442h-9.84v-27.336l-9.404 13.613h-4.92l-9.185-13.504v27.227h-9.841v-41.442h11.372l10.224 15.309 10.223-15.309zM-1245.64 688.115v7.873h-30.164v-41.442h29.891v7.873h-20.05v8.802h17.316v7.873h-17.316v9.021zm-14.285-44.25h10.825l-6.615 8.364h-9.568zM-1209.257 662.966h-11.317v33.022h-9.84v-33.022h-11.318v-8.42h32.475zM-1189.465 681.008h-4.592v14.98h-9.841v-41.442h16.784q15.8 0 15.8 13.286 0 9.458-8.255 12.137l9.896 16.019h-10.935zm-4.592-8.31h6.943q5.85 0 5.85-4.866 0-2.57-1.422-3.773-1.42-1.202-4.428-1.202h-6.943zM-1144.652 696.917q-6.889 0-11.7-2.788-4.81-2.843-7.216-7.709-2.406-4.92-2.406-11.098 0-6.069 2.406-10.935 2.405-4.865 7.216-7.708 4.811-2.898 11.7-2.898 6.78 0 11.59 2.898 4.812 2.843 7.217 7.763 2.46 4.866 2.46 10.88 0 6.178-2.46 11.098-2.405 4.866-7.216 7.709-4.757 2.788-11.59 2.788m0-8.31q5.303 0 8.256-3.718 2.952-3.717 2.952-9.731 0-3.773-1.312-6.725t-3.882-4.647q-2.515-1.695-6.014-1.695-5.412 0-8.365 3.663-2.897 3.663-2.897 9.568 0 6.014 2.897 9.677 2.898 3.608 8.365 3.608M-1100.366 654.546q7.873 0 11.81 3.5 3.99 3.444 3.99 10.332 0 6.725-3.99 10.224-3.937 3.5-11.81 3.5h-6.943v13.886h-9.841v-41.442zm0 19.245q2.952 0 4.374-1.312t1.476-4.1q0-2.898-1.421-4.21t-4.429-1.312h-6.943v10.934zM-1061.36 696.917q-6.889 0-11.7-2.788-4.811-2.843-7.217-7.709-2.405-4.92-2.405-11.098 0-6.069 2.406-10.935 2.405-4.865 7.216-7.708 4.811-2.898 11.7-2.898 6.78 0 11.59 2.898 4.812 2.843 7.217 7.763 2.46 4.866 2.46 10.88 0 6.178-2.46 11.098-2.405 4.866-7.217 7.709-4.756 2.788-11.59 2.788m0-8.31q5.303 0 8.255-3.718t2.953-9.731q0-3.773-1.312-6.725t-3.882-4.647q-2.515-1.695-6.014-1.695-5.413 0-8.365 3.663-2.898 3.663-2.898 9.568 0 6.014 2.898 9.677 2.898 3.608 8.365 3.608M-1005.927 687.568v8.42h-28.93v-41.442h9.84v33.022zM-970.78 688.115v7.873h-29.663v-41.442h29.39v7.873h-17.55v8.802h14.817v7.873h-14.816v9.021z" style="font-style:normal;font-variant:normal;font-weight:900;font-stretch:normal;font-size:93.75px;line-height:0%;font-family:Biryani;-inkscape-font-specification:&quot;Biryani Heavy&quot;;text-align:end;letter-spacing:1.5675px;word-spacing:0;text-anchor:end;fill:#fff;fill-opacity:1;stroke:none;stroke-width:1px;stroke-linecap:butt;stroke-linejoin:miter;stroke-opacity:1" transform="matrix(.5955 0 0 .5955 1151.818 359.207)"></path></g><g style="fill:#fff" data-source="https://football-logos.cc"><path d="M-1356.423 626.442q-9.869 0-14.833-4.904-4.904-4.905-4.904-13.936V579.39h10.766v28.212q0 4.845 2.212 7.297 2.273 2.452 6.759 2.452 4.485 0 6.698-2.452 2.273-2.452 2.273-7.297V579.39h10.766v28.212q0 9.031-4.905 13.936-4.904 4.904-14.832 4.904M-1293.335 617.113v8.612h-34.763V579.39h34.464v8.613h-23.699v10.129h20.708v8.612h-20.708v10.369zM-1244.029 579.39l-15.849 46.335h-13.636l-15.91-46.335h11.065l11.663 34.75 11.603-34.75zM-1236.488 579.39h10.766v46.335h-10.766zM-1183.773 616.515v9.21h-33.273V579.39h10.766v37.125zM-1144.313 616.515v9.21h-33.273V579.39h10.766v37.125zM-1123.757 607.201v18.524h-10.526v-18.524l-15.431-27.81h10.766l9.928 18.24 9.988-18.24h10.765z" style="font-style:normal;font-variant:normal;font-weight:900;font-stretch:normal;font-size:93.75px;line-height:0%;font-family:Biryani;-inkscape-font-specification:&quot;Biryani Heavy&quot;;text-align:end;letter-spacing:1.5675px;word-spacing:0;text-anchor:end;fill:#fff;fill-opacity:1;stroke:none;stroke-width:1px;stroke-linecap:butt;stroke-linejoin:miter;stroke-opacity:1" transform="matrix(.5955 0 0 .5955 1151.818 359.207)"></path><path d="M-1408.041 579.39a24.447 24.447 0 0 0-24.447 24.448 24.447 24.447 0 0 0 24.447 24.447 24.45 24.45 0 0 0 13.193-3.895l5.106 5.106 7.08-7.082-5.041-5.041a24.45 24.45 0 0 0 4.11-13.535 24.447 24.447 0 0 0-24.448-24.448m0 9.983a13.492 14.466 0 0 1 13.492 14.465 13.492 14.466 0 0 1-1.062 5.627l-6.524-6.526-7.082 7.082 6.9 6.9a13.492 14.466 0 0 1-5.724 1.383 13.492 14.466 0 0 1-13.49-14.466 13.492 14.466 0 0 1 13.49-14.465" style="opacity:1;fill:#fff;fill-opacity:1;fill-rule:nonzero;stroke:none;stroke-width:6;stroke-linecap:round;stroke-linejoin:round;stroke-miterlimit:4;stroke-dasharray:none;stroke-dashoffset:0;stroke-opacity:0" transform="matrix(.5955 0 0 .5955 1151.818 359.207)"></path></g><!-- source: https://football-logos.cc --></svg>