<svg xmlns="http://www.w3.org/2000/svg" xml:space="preserve" id="svg801" style="clip-rule:evenodd;fill-rule:evenodd;image-rendering:optimizeQuality;shape-rendering:geometricPrecision;text-rendering:geometricPrecision" version="1.1" viewBox="0 0 10.6 10.64"><!-- Source: https://football-logos.cc --><defs id="defs740" data-source="https://football-logos.cc"><style id="style738" type="text/css">.fil1{fill:#0066b2}.fil2,.fil3{fill:#fff}.fil3{fill-rule:nonzero}</style></defs><g id="Warstwa_x0020_1" transform="translate(-.943 -.935)" data-source="https://football-logos.cc"><g id="_2521581680272"><path id="polygon743" d="M12.493 12.507h-12.5V.007h12.5z" style="fill:none"></path><g id="g797"><path id="path745" d="M11.393 10.2a10.26 10.26 0 0 1-5.15 1.379c-1.812 0-3.58-.47-5.15-1.378l-.15-.087v-.173a10.26 10.26 0 0 1 1.382-5.149 10.26 10.26 0 0 1 3.768-3.77l.15-.087.15.086a10.26 10.26 0 0 1 3.768 3.771 10.26 10.26 0 0 1 1.382 5.15v.172z" class="fil1"></path><path id="path747" d="M11.318 10.07a10.1 10.1 0 0 1-5.075 1.359c-1.786 0-3.528-.464-5.075-1.358l-.075-.043V9.94a10.1 10.1 0 0 1 1.362-5.074 10.1 10.1 0 0 1 3.713-3.716l.075-.043.075.043c1.548.892 2.82 2.17 3.714 3.716a10.1 10.1 0 0 1 1.36 5.074v.087z" class="fil2"></path><path id="path749" d="M11.243 9.941a9.95 9.95 0 0 1-5 1.338 9.95 9.95 0 0 1-5-1.338 9.95 9.95 0 0 1 1.342-4.999 9.95 9.95 0 0 1 3.658-3.66 9.95 9.95 0 0 1 3.659 3.66 9.95 9.95 0 0 1 1.34 4.999" class="fil1"></path><path id="path751" d="M9.643 9.017a8.4 8.4 0 0 0-1.084-3.3 8.4 8.4 0 0 0-2.316-2.589 8.4 8.4 0 0 0-2.316 2.59 8.4 8.4 0 0 0-1.084 3.3 8.4 8.4 0 0 0 3.4.71 8.4 8.4 0 0 0 3.4-.71" class="fil2"></path><path id="path753" d="M6.243 3.441a8.2 8.2 0 0 0-2.606 3.44l.706 1.053v1.324q.544.128 1.1.182V8.257l.8-.323 1.79 1.349a8 8 0 0 0 1.13-.339L7.27 7.52l1.579-.638a8.3 8.3 0 0 0-2.607-3.44m-.8 3.792V5.936a7 7 0 0 1 .8-.965A7 7 0 0 1 7.37 6.455Z" class="fil1"></path><g id="g763"><path id="path755" d="m9.361 8.781-.171-.129a8 8 0 0 0-.39-1.481l.14-.057q.298.81.421 1.667" class="fil1"></path><path id="path757" d="M5.693 9.46v-.15a8 8 0 0 0 1.64-.054l-1.29-.971.163-.066 1.499 1.13a8.3 8.3 0 0 1-2.012.112" class="fil1"></path><path id="path759" d="M6.78 6.261a6.638 6.638 0 0 0-.638-.817l.101-.111q.427.465.761 1l-1.31.53V6.7Z" class="fil1"></path><path id="path761" d="M4.093 9.194a8 8 0 0 1-.98-.333l.023-.153q.395.165.807.288v-.94l-.477-.712.061-.177.566.843z" class="fil1"></path></g><g id="g795"><path id="path765" d="M3.19 9.474c.124.046.21.11.25.153l-.103.18a.7.7 0 0 0-.176-.101c-.173-.065-.307-.018-.37.153l-.001.001c-.064.171.009.296.188.363a.7.7 0 0 0 .203.041l-.042.207a.9.9 0 0 1-.315-.063c-.272-.102-.388-.337-.275-.638s.352-.405.64-.296" class="fil3"></path><path id="polygon767" d="m3.731 10.05.357.091.089-.35.247.064-.24.939-.247-.064.094-.369-.356-.09-.095.368-.247-.063.24-.938.247.063z" class="fil3"></path><path id="path769" d="M5.008 10.128c-.154-.02-.229.055-.257.268-.029.213.023.307.178.328.153.02.228-.057.256-.27.029-.213-.024-.306-.177-.326m-.107.8c-.333-.044-.451-.208-.403-.565.048-.358.205-.485.538-.44.332.044.45.208.402.566-.048.357-.205.484-.537.44" class="fil3"></path><path id="path771" d="M6.027 10.524c.173-.025.224-.075.226-.144 0-.069-.025-.126-.154-.13l-.204-.003-.006.298Zm-.382-.507.437.009c.287.006.427.145.423.33a.33.33 0 0 1-.182.302l.188.346-.27-.006-.145-.267-.213.055-.004.205-.255-.006z" class="fil3"></path><path id="polygon773" d="m6.7 10.998-.018-.196.428-.604-.448.042-.02-.21.78-.073.02.195-.428.605.49-.046.02.21z" class="fil3"></path><path id="path775" d="m8.158 10.04-.031.107-.136-.016.004-.085c-.121.039-.156.135-.119.327.042.21.121.284.274.254.152-.03.198-.128.156-.338-.028-.143-.074-.223-.148-.25m.09-.307-.026.088c.181.026.283.158.335.419.07.354-.039.524-.367.589-.33.064-.494-.052-.564-.406s.038-.525.368-.59l.013-.002.007-.127Z" class="fil3"></path><path id="polygon777" d="m9.452 9.449.237-.08.177.963-.303.101-.307-.443.02.54-.302.1-.438-.875.237-.08.293.597-.023-.587.198-.066.335.482z" class="fil3"></path><path id="path779" d="M8.337 4.118c.132.114.204.12.257.076s.08-.101-.003-.2l-.13-.158-.23.191Zm.133-.621.28.336c.183.22.17.418.028.536a.33.33 0 0 1-.348.06l-.138.369-.173-.208.107-.284-.18-.125-.158.13-.163-.195Z" class="fil3"></path><path id="path781" d="M10.006 5.757a.9.9 0 0 1 .093.308l-.202.061a.7.7 0 0 0-.06-.198c-.084-.171-.215-.232-.38-.152s-.198.219-.117.384c.029.06.066.11.117.166l-.169.12a.7.7 0 0 1-.176-.234c-.136-.278-.056-.525.232-.667.289-.141.534-.049.662.212" class="fil3"></path><path id="path783" d="m8.757 4.638.388-.255.14.213-.378.248c-.179.117-.214.204-.133.327s.174.126.352.009l.378-.248.14.213-.388.255c-.297.194-.494.164-.67-.106-.177-.269-.126-.462.17-.656" class="fil3"></path><path id="polygon785" d="m2.893 6.304.123.253.15.065-.102.234-.889-.386.102-.234.408.177-.257-.527.123-.283.229.469.65-.061-.11.253z" class="fil3"></path><path id="path787" d="M3.311 5.789c-.005-.02.013-.068.037-.112.023-.043.052-.083.071-.089.04-.011.177.063.188.102.006.018-.012.064-.035.107-.024.045-.054.086-.073.093-.037.013-.178-.062-.188-.101" class="fil3"></path><path id="path789" d="M3.6 5.077a.65.65 0 0 0 .304-.228c.041-.059.067-.122.021-.153-.037-.026-.077 0-.146.053-.233.178-.38.24-.516.146-.15-.103-.149-.297-.019-.485a.6.6 0 0 1 .32-.24l.078.17a.5.5 0 0 0-.22.172c-.042.062-.082.152-.04.18.05.035.153-.057.26-.133.088-.063.254-.17.418-.056.15.103.152.291.022.48a.73.73 0 0 1-.392.288Z" class="fil3"></path><path id="path791" d="M4.207 4.412c-.001-.02.025-.064.057-.103.03-.038.067-.072.086-.074.041-.004.162.095.166.135.002.02-.023.06-.054.098-.032.04-.07.075-.09.078-.039.006-.163-.095-.165-.134" class="fil3"></path><path id="polygon793" d="m9.967 6.638.123.347.34-.12.085.24-.913.324-.085-.24.359-.128-.123-.347-.36.128-.084-.24.912-.324.086.24z" class="fil3"></path></g></g></g></g><!-- source: https://football-logos.cc --></svg>