<svg xmlns="http://www.w3.org/2000/svg" viewBox="0 0 584 873"><!-- Source: https://football-logos.cc --><rect width="100%" height="100%" fill="#fff" data-source="https://football-logos.cc"></rect><path fill="#fff" fill-rule="evenodd" d="M584 0v873H0V0zM391.476 23.926l.168 95.96a.33.33-.043 0 0 .33.329l118.9-.208a47.63 46.38-.1 0 0 47.549-46.463l-.006-3.86a47.63 46.38-.1 0 0-47.711-46.296l-118.9.207a.33.33-49.672 0 0-.33.331m-41.088-.066a.33.33-84.222 0 0-.317.238L333.13 82.8a.33.33 78.023 0 1-.622.036l-24.223-57.824a.33.33 68.979 0 0-.305-.202h-29.736a.33.33 38.553 0 0-.295.182l-25.448 50.916a.33.33 86.305 0 1-.613-.058l-14.34-50.74a.33.33 71.999 0 0-.318-.24h-28.87a.33.33 10.268 0 0-.318.416l25.522 94.93a.33.33 85.331 0 0 .319.244h27.885a.33.33-68.338 0 0 .3-.192l27.663-60.244a.33.33 79.833 0 1 .602.007l25.831 59.94a.33.33 74.715 0 0 .303.199h31.605a.33.33-85.188 0 0 .317-.238l27.609-95.65a.33.33 78.888 0 0-.317-.422zM162.61 93.05c45.1-.54 42.71-67.02-1.12-67.28q-5.2-.04-133.48-.1a.31.3 90 0 0-.3.31v94.37a.32.32-82.356 0 0 .32.32h32.9a.31.3 90 0 0 .3-.31V96.5a.44.44 29.731 0 1 .44-.44h57.19a1.924 1.894 62.98 0 1 1.14.38l31.23 23.85a1.556 1.526-26.014 0 0 .93.31h45.07a.275.273-26.097 0 0 .17-.49l-34.92-26.66a.222.222-27.001 0 1 .13-.4m350.14 633.7q7.59.18 19.49.05 6-.07 9.38-1.35c6.37-2.42 11.41-7.15 13.75-13.46q1.02-2.77 1.03-10.11.14-262.19.45-524.35a.46.45-90 0 0-.45-.46h-43.38a.33.32 90 0 0-.32.33v61.48a.81.808-75.685 0 0 .42.71c35.14 19.34 35.1 67.37-.18 86.59a.731.721-14.998 0 0-.37.63v399.75a.19.18-90 0 0 .18.19M27.55 452.44q.07 115.85.24 231.86.02 12.65 1.45 17.22c4.03 12.83 14.99 22.79 28.38 25.09q3.44.6 17.86.59 95.74-.03 216.02.1a.55.55 5.868 0 0 .55-.55l.05-274.3.02-274.96a.3.29 90 0 0-.29-.3H27.92a.34.33 90 0 0-.33.34zm352.78-274.82a.42.42 0 0 0-.42-.42h-43.3a.42.42 0 0 0-.42.42v549.24a.42.42 0 0 0 .42.42h43.3a.42.42 0 0 0 .42-.42zm44.46 549.49h43.41a.4.39-90 0 0 .39-.4V327.18a1.244 1.24-74.767 0 0-.61-1.07c-34.32-20.48-34.67-66.56.17-86.71a.757.728 75.758 0 0 .37-.65v-61.17a.31.3 90 0 0-.3-.31h-43.61a.26.26 0 0 0-.26.26v549.14a.44.44-45 0 0 .44.44m106.02-444.28a40.31 40.31 0 0 0-40.31-40.31 40.31 40.31 0 0 0-40.31 40.31 40.31 40.31 0 0 0 40.31 40.31 40.31 40.31 0 0 0 40.31-40.31M157.55 770.54a18.49 18.49 0 0 0-18.49-18.49h-10.12a18.49 18.49 0 0 0-18.49 18.49v58.64a18.49 18.49 0 0 0 18.49 18.49h10.12a18.49 18.49 0 0 0 18.49-18.49zm-95.053 75.803q6.093-.008 6.158-.022a.454.449.868 0 0 .335-.321l10.43-41.38a.168.167-38.035 0 1 .33.04v41.16a.54.54-4.189 0 0 .54.54h16.7a.38.38-16.26 0 0 .38-.38v-92.3a.38.37-90 0 0-.37-.38H79.71a.501.496-82.372 0 0-.48.37l-16.56 60.52a.306.158-83.576 0 1-.114.171q-.045.024-.097.024t-.097-.024a.306.158 83.437 0 1-.115-.171l-16.706-60.479a.501.496 82.233 0 0-.481-.369l-17.29.042a.38.37 89.861 0 0-.369.381l.223 92.299a.38.38 9.332 0 0 .381.379l16.7-.04a.54.54 16.13 0 0 .539-.541l-.1-41.16a.168.167 37.896 0 1 .33-.041l10.53 41.355a.454.449-1.007 0 0 .336.32q.065.014 6.157.007m150.653.067a.43.43 89.912 0 0 .43-.43v-14.09a.43.43-89.912 0 0-.43-.43h-23.8a.43.43 33.125 0 1-.43-.43v-77.27a.43.43-70.127 0 0-.43-.43h-17.38a.43.43 89.912 0 0-.43.43v92.22a.43.43-78.049 0 0 .43.43zm9.701-46.548q.002 44.212.005 45.812a.72.72.107 0 0 .718.721l41.476.01a.66.65-89.986 0 0 .65-.66l.004-13.645a.6.59-89.986 0 0-.59-.601l-23.449-.005a.6.6 33.137 0 1-.6-.601l.005-22.969a.56.56 29.104 0 1 .561-.56l19.947-.015a.679.671-89.936 0 0 .672-.677q.036-.44.035-6.812t-.036-6.811a.679.671 89.932 0 0-.671-.677l-19.948-.014a.56.56 17.162 0 1-.56-.56l-.008-22.969a.6.6 5.719 0 1 .6-.6l23.449-.008a.6.59 89.981 0 0 .59-.6l-.004-13.645a.66.65 89.981 0 0-.651-.66l-41.475.013a.72.72-.111 0 0-.718.72q-.004 1.6-.002 45.813m72.029 3.058 11.64 43.26a.308.297 82.444 0 0 .29.23h17.1a.45.45 45 0 0 .45-.45v-92.3a.33.33 0 0 0-.33-.33h-16.4a.39.39 74.827 0 0-.39.39v44.51a.051.051 38.538 0 1-.1.01l-11.92-44.33a.79.774 82.134 0 0-.75-.58h-16.86a.44.44-19.194 0 0-.44.44v92.28a.35.35-72.358 0 0 .35.35h16.69a.59.58 0 0 0 .59-.58v-42.89a.041.04-51.967 0 1 .08-.01m43.682-3.109q.001 43.948.054 45.903a.625.621-.181 0 0 .614.606q14.47.12 26.5-.14c11.61-.26 19.66-6.46 19.93-18.46q.24-10.47-.09-17.43-.33-6.67-6.51-10.24a.232.009 31.329 0 1-.184-.122q-.024-.058-.024-.118t.024-.117a.232.009-31.331 0 1 .184-.122q6.18-3.57 6.51-10.24.329-6.96.089-17.43c-.271-12-8.321-18.2-19.931-18.46q-12.03-.259-26.5-.138a.625.621.179 0 0-.614.606q-.053 1.955-.052 45.902m59.744.044q.012 44.196.016 45.795a.718.717.092 0 0 .718.72h41.46a.66.65 90 0 0 .65-.66v-13.64a.6.59 90 0 0-.59-.6h-23.44a.6.6 36.833 0 1-.6-.6v-22.96a.56.56-44.994 0 1 .56-.56l19.94-.02a.679.671-89.95 0 0 .671-.677q.036-.44.034-6.809-.002-6.37-.038-6.809a.679.671 89.918 0 0-.671-.677l-19.94-.009a.56.56 24.648 0 1-.561-.559l-.013-22.96a.6.6-45.04 0 1 .6-.601l23.44-.013a.6.59 89.967 0 0 .59-.6l-.008-13.64a.66.65 89.967 0 0-.651-.66l-41.46.024a.718.717-.125 0 0-.717.72q-.003 1.599.01 45.795m54.317 0q-.002 44.207.002 45.807a.72.72.112 0 0 .717.72l41.471.014a.66.65-89.98 0 0 .65-.66l.005-13.643a.6.59-89.98 0 0-.59-.6l-23.446-.008a.6.6-57.171 0 1-.6-.601l.008-22.965a.56.56 25.19 0 1 .56-.56l19.945-.014a.679.671-89.931 0 0 .672-.677q.035-.439.036-6.81t-.036-6.811a.679.671 89.937 0 0-.671-.677l-19.945-.016a.56.56-20.188 0 1-.56-.56l-.006-22.965a.6.6-45.052 0 1 .6-.601l23.446-.005a.6.59 89.987 0 0 .59-.6l-.003-13.644a.66.65 89.987 0 0-.65-.66l-41.471.01a.72.72-.106 0 0-.717.72q-.004 1.6-.007 45.806m54.314.005q.018 45.996.012 46.155a.366.361-89.298 0 0 .361.375l17.26.01a.59.59-45.02 0 0 .59-.59v-35.37a.181.18 34.971 0 1 .35-.06l13.5 35.55a.653.652-10.414 0 0 .61.42h18.65a.316.311-12.043 0 0 .29-.44q-10.43-22.78-20.456-45.694-.016-.036-.016-.367 0-.332.015-.368 10.009-22.921 20.422-45.709a.316.311 12 0 0-.29-.44l-18.65.014a.653.652 10.371 0 0-.61.42l-13.473 35.56a.181.18-35.014 0 1-.35-.059l-.027-35.37a.59.59-82.303 0 0-.59-.59l-17.26.023a.366.361 89.255 0 0-.361.375q.006.16.023 46.155"></path><path fill="#231f20" fill-rule="evenodd" d="M391.476 23.926a.33.33-45.583 0 1 .33-.331l118.9-.207a47.63 46.38-.1 0 1 47.711 46.296l.006 3.86a47.63 46.38-.1 0 1-47.549 46.463l-118.9.208a.33.33-.024 0 1-.33-.329zm25.511 24.133-.154 44.119a.42.42-15.801 0 0 .419.422l92.249.322a22.71 21.73.2 0 0 22.786-21.651l.005-1.5a22.71 21.73.2 0 0-22.634-21.809l-92.249-.322a.42.42-61.946 0 0-.422.419M350.388 23.86h25.293a.33.33-51.264 0 1 .317.422l-27.609 95.65a.33.33 69.672 0 1-.317.238h-31.605a.33.33-61.975 0 1-.303-.199l-25.831-59.94a.33.33 32.099 0 0-.602-.007l-27.663 60.244a.33.33-37.884 0 1-.3.192h-27.885a.33.33-61.109 0 1-.319-.244l-25.522-94.93a.33.33 32.772 0 1 .318-.416h28.87a.33.33-62.234 0 1 .318.24l14.34 50.74a.33.33 41.575 0 0 .613.058l25.448-50.916a.33.33 56.742 0 1 .295-.182h29.736a.33.33-63.859 0 1 .305.202l24.223 57.824a.33.33 18.912 0 0 .622-.036l16.941-58.702a.33.33 67.842 0 1 .317-.238M162.61 93.05a.222.222-27.001 0 0-.13.4l34.92 26.66a.275.273-26.097 0 1-.17.49h-45.07a1.556 1.526-26.014 0 1-.93-.31L120 96.44a1.924 1.894 62.98 0 0-1.14-.38H61.67a.44.44 5.81 0 0-.44.44v23.86a.31.3-90 0 1-.3.31h-32.9a.32.32-56.902 0 1-.32-.32V25.98a.31.3-90 0 1 .3-.31q128.28.06 133.48.1c43.83.26 46.22 66.74 1.12 67.28M61.34 47.91v20.78a.32.32 45 0 0 .32.32h91.28a17.5 10.64 0 0 0 17.5-10.64v-.14a17.5 10.64 0 0 0-17.5-10.64H61.66a.32.32 87.55 0 0-.32.32"></path><path fill="#fff" fill-rule="evenodd" d="M61.34 47.91a.32.32-54.524 0 1 .32-.32h91.28a17.5 10.64 0 0 1 17.5 10.64v.14a17.5 10.64 0 0 1-17.5 10.64H61.66a.32.32-45 0 1-.32-.32zM416.987 48.059a.42.42-46.302 0 1 .422-.419l92.249.322a22.71 21.73.2 0 1 22.634 21.809l-.005 1.5a22.71 21.73.2 0 1-22.786 21.651l-92.249-.322a.42.42 23.828 0 1-.419-.422z"></path><path fill="#231f20" fill-rule="evenodd" d="M512.75 726.75a.19.18 90 0 1-.18-.19V326.81a.731.721-14.998 0 1 .37-.63c35.28-19.22 35.32-67.25.18-86.59a.81.808-75.685 0 1-.42-.71V177.4a.33.32-90 0 1 .32-.33h43.38a.46.45-90 0 1 .45.46q-.31 262.16-.45 524.35-.01 7.34-1.03 10.11c-2.34 6.31-7.38 11.04-13.75 13.46q-3.38 1.28-9.38 1.35-11.9.13-19.49-.05"></path><path fill="#ee2e24" fill-rule="evenodd" d="m292.1 452.45-264.55-.01.04-274.91a.34.33-90 0 1 .33-.34h263.91a.3.29-90 0 1 .29.3z"></path><path fill="#231f20" fill-rule="evenodd" d="M380.33 726.86a.42.42 0 0 1-.42.42h-43.3a.42.42 0 0 1-.42-.42V177.62a.42.42 0 0 1 .42-.42h43.3a.42.42 0 0 1 .42.42zM424.79 727.11a.44.44 45 0 1-.44-.44V177.53a.26.26 0 0 1 .26-.26h43.61a.31.3 90 0 1 .3.31v61.17a.757.728 75.758 0 1-.37.65c-34.84 20.15-34.49 66.23-.17 86.71a1.244 1.24-74.767 0 1 .61 1.07v399.53a.4.39 90 0 1-.39.4z" data-source="https://football-logos.cc"></path><path fill="#ee2e24" fill-rule="evenodd" d="M530.81 282.83a40.31 40.31 0 0 1-40.31 40.31 40.31 40.31 0 0 1-40.31-40.31 40.31 40.31 0 0 1 40.31-40.31 40.31 40.31 0 0 1 40.31 40.31m-31.777-11.185a.32.32 26.226 0 1-.304-.221l-8.165-25.147a.32.32 25.007 0 0-.608 0l-8.165 25.147a.32.32 40.04 0 1-.304.221l-26.439-.006a.32.32 42.907 0 0-.188.579l21.393 15.535a.32.32 65.714 0 1 .116.358l-8.175 25.143a.32.32-47.226 0 0 .492.358l21.386-15.545a.32.32 82.412 0 1 .376 0l21.386 15.545a.32.32 29.613 0 0 .492-.358l-8.175-25.143a.32.32 11.407 0 1 .116-.358l21.393-15.535a.32.32-5.348 0 0-.188-.579z"></path><path fill="#fff" fill-rule="evenodd" d="m499.033 271.645 26.439-.006a.32.32 50.656 0 1 .188.579l-21.393 15.535a.32.32 6.108 0 0-.116.358l8.175 25.143a.32.32 47.85 0 1-.492.358l-21.386-15.545a.32.32 50.991 0 0-.376 0l-21.386 15.545a.32.32-49.671 0 1-.492-.358l8.175-25.143a.32.32 39.583 0 0-.116-.358l-21.393-15.535a.32.32-81.93 0 1 .188-.579l26.439.006a.32.32 1.537 0 0 .304-.221l8.165-25.147a.32.32 80.846 0 1 .608 0l8.165 25.147a.32.32-17.28 0 0 .304.221"></path><path fill="#231f20" fill-rule="evenodd" d="m292.1 452.45-.05 274.3a.55.55 29.837 0 1-.55.55q-120.28-.13-216.02-.1-14.42.01-17.86-.59c-13.39-2.3-24.35-12.26-28.38-25.09q-1.43-4.57-1.45-17.22-.17-116.01-.24-231.86z"></path><path fill="#ee2e24" fill-rule="evenodd" d="M157.55 829.18a18.49 18.49 0 0 1-18.49 18.49h-10.12a18.49 18.49 0 0 1-18.49-18.49v-58.64a18.49 18.49 0 0 1 18.49-18.49h10.12a18.49 18.49 0 0 1 18.49 18.49zm-18.21-57.73a4.71 4.71 0 0 0-4.71-4.71h-1.28a4.71 4.71 0 0 0-4.71 4.71v56.78a4.71 4.71 0 0 0 4.71 4.71h1.28a4.71 4.71 0 0 0 4.71-4.71zM62.459 814.385q.052 0 .097-.024a.306.158-83.576 0 0 .114-.171l16.56-60.52a.501.496-82.372 0 1 .48-.37H97a.38.37-90 0 1 .37.38v92.3a.38.38 31.631 0 1-.38.38h-16.7a.54.54 15.619 0 1-.54-.54v-41.16a.168.167-38.035 0 0-.33-.04L68.99 846a.454.449.868 0 1-.335.321q-.065.014-6.158.022-6.092.007-6.157-.007a.454.449-1.007 0 1-.336-.32l-10.53-41.355a.168.167 37.896 0 0-.33.041l.1 41.16a.54.54-38.595 0 1-.539.541l-16.7.04a.38.38 35.074 0 1-.381-.379l-.223-92.299a.38.37 89.861 0 1 .369-.381l17.29-.042a.501.496 82.233 0 1 .481.369l16.706 60.479a.306.158 83.437 0 0 .115.171q.045.024.097.024M213.15 846.41h-42.04a.43.43-56.136 0 1-.43-.43v-92.22a.43.43-89.912 0 1 .43-.43h17.38a.43.43-49.158 0 1 .43.43v77.27a.43.43 7.695 0 0 .43.43h23.8a.43.43 89.912 0 1 .43.43v14.09a.43.43-89.912 0 1-.43.43M222.851 799.862q-.002-44.213.002-45.813a.72.72-.111 0 1 .718-.72l41.475-.013a.66.65 89.981 0 1 .651.66l.004 13.645a.6.59 89.981 0 1-.59.6l-23.449.008a.6.6-6.382 0 0-.6.6l.008 22.969a.56.56 2.362 0 0 .56.56l19.948.014a.679.671 89.932 0 1 .671.677q.036.44.036 6.811.001 6.372-.035 6.812a.679.671-89.936 0 1-.672.677l-19.947.015a.56.56-10.635 0 0-.561.56l-.005 22.969a.6.6 7.747 0 0 .6.601l23.449.005a.6.59-89.986 0 1 .59.601l-.004 13.645a.66.65-89.986 0 1-.65.66l-41.476-.01a.72.72.107 0 1-.718-.721q-.003-1.6-.005-45.812M294.8 802.93v42.89a.59.58 0 0 1-.59.58h-16.69a.35.35-57.183 0 1-.35-.35v-92.28a.44.44 17.612 0 1 .44-.44h16.86a.79.774 82.134 0 1 .75.58l11.92 44.33a.051.051 38.538 0 0 .1-.01v-44.51a.39.39-56.246 0 1 .39-.39h16.4a.33.33.049 0 1 .33.33v92.3a.45.45-45.014 0 1-.45.45h-17.1a.308.297 82.444 0 1-.29-.23l-11.64-43.26a.041.04-51.967 0 0-.08.01M378.852 799.81q0 .06.024.118a.232.009 31.329 0 0 .184.122q6.18 3.57 6.51 10.24.33 6.96.09 17.43c-.27 12-8.32 18.2-19.93 18.46q-12.03.26-26.5.14a.625.621-.181 0 1-.614-.606q-.053-1.955-.054-45.903t.052-45.902a.625.621.179 0 1 .614-.606q14.47-.121 26.5.138c11.61.26 19.66 6.46 19.931 18.46q.24 10.47-.089 17.43-.33 6.67-6.51 10.24a.232.009-31.331 0 0-.184.122q-.024.058-.024.117m-22.102-31.249-.04 23.36a.4.4-70.155 0 0 .399.4l5.41.01a5.02 4.95-89.9 0 0 4.959-5.012l.024-14.12a5.02 4.95-89.9 0 0-4.941-5.028l-5.41-.01a.4.4 84.713 0 0-.401.4m-.061 39.278.082 23.26a.46.46 81.692 0 0 .461.458l5.28-.018a5.02 4.95-.2 0 0 5.003-4.968l-.05-14.28a5.02 4.95-.2 0 0-5.037-4.932l-5.28.018a.46.46-84.292 0 0-.459.462M437.725 799.844q.002 6.369-.034 6.809a.679.671-89.95 0 1-.671.677l-19.94.02a.56.56-44.953 0 0-.56.56v22.96a.6.6 11.262 0 0 .6.6h23.44a.6.59 90 0 1 .59.6v13.64a.66.65-90 0 1-.65.66h-41.46a.718.717.092 0 1-.718-.72q-.004-1.599-.016-45.795t-.01-45.795a.718.717-.125 0 1 .717-.72l41.46-.024a.66.65 89.967 0 1 .651.66l.008 13.64a.6.59 89.967 0 1-.59.6l-23.44.013a.6.6 44.979 0 0-.6.601l.013 22.96a.56.56-1.001 0 0 .561.559l19.94.009a.679.671 89.918 0 1 .671.677q.036.439.038 6.809M452.623 799.855q.003-44.206.007-45.806a.72.72-.106 0 1 .717-.72l41.471-.01a.66.65 89.987 0 1 .65.66l.003 13.644a.6.59 89.987 0 1-.59.6l-23.446.005a.6.6 45.015 0 0-.6.601l.006 22.965a.56.56-2.966 0 0 .56.56l19.945.016a.679.671 89.937 0 1 .671.677q.036.44.036 6.811-.001 6.371-.036 6.81a.679.671-89.931 0 1-.672.677l-19.945.014a.56.56-8.117 0 0-.56.56l-.008 22.965a.6.6-72.359 0 0 .6.601l23.446.008a.6.59-89.98 0 1 .59.6l-.005 13.643a.66.65-89.98 0 1-.65.66l-41.471-.014a.72.72.112 0 1-.717-.72q-.004-1.6-.002-45.807M538.088 799.849q0 .331.016.367 10.026 22.914 20.456 45.694a.316.311-12.043 0 1-.29.44h-18.65a.653.652-10.414 0 1-.61-.42l-13.5-35.55a.181.18 34.971 0 0-.35.06v35.37a.59.59 45.005 0 1-.59.59l-17.26-.01a.366.361-89.298 0 1-.361-.375q.006-.159-.012-46.155-.017-45.995-.023-46.155a.366.361 89.255 0 1 .361-.375l17.26-.023a.59.59-56.897 0 1 .59.59l.027 35.37a.181.18-35.014 0 0 .35.059l13.473-35.56a.653.652 10.371 0 1 .61-.42l18.65-.014a.316.311 12 0 1 .29.44q-10.413 22.788-20.422 45.709-.015.036-.015.368"></path><path fill="#fff" fill-rule="evenodd" d="M139.34 828.23a4.71 4.71 0 0 1-4.71 4.71h-1.28a4.71 4.71 0 0 1-4.71-4.71v-56.78a4.71 4.71 0 0 1 4.71-4.71h1.28a4.71 4.71 0 0 1 4.71 4.71zM356.75 768.561a.4.4-57.827 0 1 .401-.4l5.41.01a5.02 4.95-89.9 0 1 4.941 5.028l-.024 14.12a5.02 4.95-89.9 0 1-4.959 5.012l-5.41-.01a.4.4-49.073 0 1-.399-.4zM356.689 807.839a.46.46-60.367 0 1 .459-.462l5.28-.018a5.02 4.95-.2 0 1 5.037 4.932l.05 14.28a5.02 4.95-.2 0 1-5.003 4.968l-5.28.018a.46.46-64.976 0 1-.461-.458z" data-source="https://football-logos.cc"></path><!-- source: https://football-logos.cc --></svg>