<svg xmlns="http://www.w3.org/2000/svg" xmlns:xlink="http://www.w3.org/1999/xlink" xml:space="preserve" viewBox="-0.42 5.2 283.44 272.7"><!-- Source: https://football-logos.cc --><defs data-source="https://football-logos.cc"><path id="a" d="M-.4 5.3h283.5v272.6H-.4z"></path></defs><clipPath id="b"><use xlink:href="#a" style="overflow:visible"></use></clipPath><path d="m141.3 277.9-9.3-7c-1.5-1.1-3-2.2-4.5-3.1-8.9-5.9-17.2-9.2-24.5-9.7-45.8-3.5-78.3-20.4-94-48.9-6.5-11.7-9.7-24.7-9.4-37.6.2-9.4 2.4-19 5.9-25.6 3.4-6.4 6.6-12.3 9.3-17.5l.1-.3C26.7 106.4 33.2 94.4 33.6 87c.3-5.2-2.8-12.4-8.7-20.4l-9.1-12.4 64.6-49 9 5.2c4.5 2.6 9.1 5.1 13.6 7.3 15.1 7.3 27.9 11.1 37.9 11.2h.8c10-.1 22.8-3.9 37.9-11.2 4.5-2.2 9.1-4.6 13.6-7.3l9-5.2 64.6 49-9.1 12.4c-5.9 7.9-9 15.2-8.7 20.4.4 7.3 6.9 19.4 18.7 41.3 2.8 5.2 6 11.1 9.4 17.6 3.5 6.6 5.7 16.1 5.9 25.6.3 12.9-3 25.9-9.4 37.6-15.7 28.5-48.2 45.4-94 48.9-7.3.6-15.5 3.8-24.5 9.7-1.5 1-3 2-4.5 3.1z" style="clip-path:url(#b)"></path><path d="M263.4 153.2c-3.4-6.5-6.6-12.3-9.4-17.6-13.2-24.6-19.9-37-20.5-47.7-.6-11.2 5.8-22.5 11.7-30.5l-44.1-33.5c-3.8 2.2-8.9 5-14.7 7.8-17.3 8.4-32.4 12.7-44.7 12.8h-.8c-12.4-.1-27.4-4.4-44.7-12.8-5.8-2.8-10.9-5.6-14.7-7.8L37.4 57.4c5.9 8 12.3 19.3 11.7 30.5-.6 10.8-7.2 23.1-20.5 47.7-2.8 5.3-6 11.1-9.4 17.6-4.6 8.7-7.5 28.7 3.4 48.4 13.1 23.7 41.3 37.9 81.6 40.9 10 .8 20.7 4.9 31.9 12.2 1.9 1.2 3.6 2.5 5.2 3.6 1.6-1.2 3.3-2.4 5.2-3.6 11.2-7.4 21.9-11.5 31.9-12.2 40.3-3.1 68.5-17.2 81.6-40.9 10.8-19.7 8-39.7 3.4-48.4" style="clip-path:url(#b)" data-source="https://football-logos.cc"></path><path d="M260 201.6c10.9-19.7 8-39.8 3.4-48.4-3.4-6.5-6.6-12.3-9.4-17.6-13.2-24.6-19.9-37-20.5-47.7-.6-11.2 5.8-22.5 11.7-30.5l-44.1-33.5c-3.8 2.2-8.9 5-14.7 7.8-17.3 8.4-32.4 12.7-44.7 12.8h-.4v126.1h-13.8v79.1c2.9 1.5 5.7 3.2 8.7 5.1 1.9 1.2 3.6 2.5 5.2 3.6 1.6-1.2 3.3-2.4 5.2-3.6q4.35-2.85 8.7-5.1v-79.1H183v71.6c10-1 19.3-2.7 27.7-5.1v-66.4h27.7v54.1c9.2-6.3 16.5-14 21.6-23.2m-215.6-31H15.2c-.4 9.1 1.4 20.1 7.5 31 5 9.1 12.3 16.8 21.7 23.1zm55.4 0H72.1V237c8.4 2.4 17.7 4.1 27.7 5.1z" style="clip-path:url(#b);fill:#004f9f"></path><path d="M263.4 153.2c1.6 3 3.3 8.2 3.9 14.8H143.9V44.5c11.9-.5 26.2-4.8 42.5-12.7q7.35-3.6 14.7-7.8l44.1 33.5c-5.7 7.7-12.3 19.2-11.7 30.5.6 10.8 7.2 23.1 20.5 47.7 2.8 5.1 5.9 11 9.4 17.5M138.7 44.5V168H15.4c.6-6.6 2.3-11.8 3.9-14.8 3.4-6.5 6.6-12.4 9.4-17.6 13.2-24.6 19.9-37 20.5-47.7.6-11.3-6-22.8-11.7-30.5l44.1-33.5c4.8 2.8 9.8 5.4 14.7 7.8 16.3 7.9 30.6 12.2 42.4 12.8M15.2 173.2h26.6v49.7c-8.1-5.9-14.5-13-19.1-21.3-5-9-7.5-18.6-7.5-28.4m59.5 0h22.5v68.7c-8-.9-15.5-2.3-22.5-4.1zm-27.7 0h22.5v63.1q-12.6-3.9-22.5-9.9zm55.4 69.2v-69.2h22.5v75.2c-7.1-3.4-14-5.4-20.6-5.9-.7 0-1.3 0-1.9-.1m27.7 8.7v-77.9h22.5v77.9c-2 1.1-4 2.4-6.1 3.7-1.7 1.1-3.5 2.4-5.2 3.6-1.7-1.3-3.5-2.5-5.2-3.6-2-1.3-4-2.6-6-3.7m48.3-8.5c-6.6.5-13.5 2.5-20.6 5.9v-75.2h22.5v69.2c-.6 0-1.3 0-1.9.1m34.8-69.4h22.5v53.1q-9.9 6-22.5 9.9zm-27.7 0H208v64.6c-7 1.8-14.5 3.2-22.5 4.1zm55.4 49.7v-49.7h26.6c0 9.8-2.5 19.4-7.5 28.4-4.6 8.3-11 15.4-19.1 21.3m37-51.1c-.2-8.7-2.2-17.4-5.3-23.4-3.5-6.5-6.6-12.4-9.4-17.7-12.5-23.2-18.8-34.9-19.2-43.4-.3-6.4 3.1-14.8 9.7-23.8l6.1-8.2L202 11.4l-6 3.5c-4.6 2.7-9.3 5.2-14 7.4-16 7.8-29.5 11.7-40.2 11.9h-.8c-10.7-.1-24.2-4.1-40.1-11.8-4.7-2.3-9.4-4.8-14-7.4l-6-3.5L23 55.3l6.1 8.2c6.6 8.9 10 17.3 9.7 23.8-.5 8.5-6.7 20.1-19.2 43.4-2.8 5.2-6 11.1-9.4 17.7-3.2 6-5.1 14.7-5.3 23.4-.2 11.9 2.8 24 8.8 34.9 14.8 26.9 45.9 42.9 89.9 46.2 8.2.6 17.3 4.2 26.9 10.6 1.6 1 3.2 2.2 4.7 3.3l6.2 4.6 6.2-4.6c1.6-1.2 3.1-2.3 4.7-3.3 9.7-6.4 18.8-9.9 26.9-10.6 43.9-3.3 75-19.3 89.9-46.2 5.9-10.9 9-23 8.8-34.9" style="clip-path:url(#b);fill:#fc0"></path><path d="m70 53.8-8.9 8.4 1.1 2.1 3.2-1.5s-.2 7 .1 9.5c.7 4.5 4.2 2.2 6.7 1.2 0 0-3.4-8.3-.3-19.4.3-.8-1.9-.3-1.9-.3m6.2 20c1.5 0 2.8-1.2 2.8-2.8s-1.2-2.8-2.8-2.8c-1.5 0-2.8 1.2-2.8 2.8s1.3 2.8 2.8 2.8m3.9 51.3s-15.8-2-15.4-19.5C65.2 83.4 80.1 84 80.1 84zm51.3-57.6-7.7-15.4H77.9l3 6.8v16.4s-7.1.9-11.1 2.9C59 83.5 54 92.8 53.8 104.7c-.7 31.9 26.7 31.8 26.7 31.8s.9 4 0 6.3c-.7 1.8-3 3.8-3 3.8l14.5 9.8-.4-20.4s9-1.6 12.8-12c-8.7 3.5-13.3 2.7-13.3 2.7V103h11.1s10.5 14.7 9.8 25.2c-1.3 19.7-12 9.4-12 9.4v13.3s29.5-10.7 19.2-34.6c-2.1-5-5.1-12.8-5.1-12.8l9.8 6.8-6.4-15.8s-12 8.6-9.4-7.2c1.4-8.5 14.1 2.1 14.1 2.1v-15l-6 3.4h-5.6c-19.4.4-10 19.2-10 19.2h-9V84.7l4.2 2.5 6.4-18-8.1 8.1-2.1-1.2V59h24.4zM228.4 67.3h-5v-5h-5.2v5h-5v5.2h5v5h5.2v-5h5zm-55.3-10h-5v5h-5.2v-5h-5v-5.2h5v-5h5.2v5h5zm-5.1 70.6h-5v-5h-5.2v5h-5v5.2h5v5h5.2v-5h5zm83.1 28.6h-5v5h-5.2v-5h-5v-5.2h5v-5h5.2v5h5zm-88.7-11.7-1.2 2.3h2.2l1.8 3 .1 1.7 2.5-.3 2.5-3.6 3.4-.6 3.2 1 3.3-1.5 2.2-2.5 3.7-.1 1.1-1.9 3.6.5-.6-9.9 6.6-7.2.4-3.2-1.9-3.2-1.9-3-3.2 3.9-6.3 2.3-7.8 8.9 2.8 1.2.1 4.4-3.6 5.6s-5.8 3-4.3 1.9c7-4.8 5.5-9.6 5.5-9.6s-3.4 6.3-7.3 6.6c-1 .1-2.6-.3-2.6-.3l-1.8 2.9zm18.8-76.3c-6.7-4.1-5.5.4-5.5.4s2.3 3.9 4.1 3c10.8-5 11.2 2.6 10.2-1.2-.9-3.5-5.3-.1-8.8-2.2m20.5-7 4.8-1.7-4.8-.8-1.1-4.5-4.4 1.9-3.7-3.9.7 4.8zm-9.2 23.2 1.4-1.4 1.8.6 1.6-1.4 1-1.4v3.3l-1.8 1-1.8 1.9zM228 95.2c-.4-9.6-10.1-16.5-13.5-8-1.7 4.3 1.1 11.8 1.1 11.8l3.7 11.3s1.7 17.2-12.1 3.4c-4.6-4.6-8.5-16.4-8.5-16.4l-5.1.6 1.7-5.1 2.3 3.1 2.5-6.8 3.7-3.7-.3-5.1 2.8.3-.8-2-1.1-4.5 1.7-4.5-.3-3.9-2.5-.3-.8-2.8-1.7 2-1.7-2.8-6.8-3.1-1.7 1.4 2.3 2.3-4.5-.8-3.1 2.5 1.4 2.5 3.9.3s6.4 9.7-2.8 8.5c-1-.1-.6 2.5-.6 2.5l7 .6-7.3 4.2-5.6-.6-6.5.8 1.1 2.8-4.2 1.5 1.4-6s-10.3-4.1-9.6-7.3c.4-1.9 4.1-1.3 3.9-3.3-.3-5-3.7-3.7-3.7-3.7l-5 4.7s1.3-4.8-.7-5.3c-2.2-.6-2.7 5.1-2.7 5.1s-1.6 1.6-1.4 2.8c.2 2 5.1 1.1 5.1 1.1l.8 4.5 4.8 4.5 1.1 2.9 4.2 1.4-2 3.7 3.1 2-1.4 3.4 3.7 1.1-2 1.1 2 1.1 4.8-4.5-3.1-1.4 3.4-4.8-.3-2h2.5v2l-2.8 3.4h5.4s-11.4 14.6-18 15.8c-2 .4-3.7-3.7-3.7-3.7l-2.5 2.8-3.4-1.1-2 2.3 1.7 2.5-.3 3.4 2.8.6 3.1-2.5 4.2 2.8 2.8-3.4h3.1l2.5-3.4 3.1-1.1 2-2.8h5.6l-1.1-4.2 5.6 1.1-1.1 2.8-4.2 3.1s5.9 1.7 9.9 2c8.2.5 5.9 19.7 5.9 19.7l2.3 3.1 1.6 4.4 5.4-.4 5.9 2.3 2.3 8.2-1.7 2.3-3.9-2.3-1.4 2.5-2.5 2 .6 2.3 5.9-1.1-2 2.8 2.5 1.7 2.5-2.5 3.4-3.9 2 2.3 2.8-.3-2.5-3.9v-2.8l-.6-7 3.1-3.4-3.9-1.1-2-3.7-7-4.2s-.2-3.6 2.8-4.2c14.8-3.2 3.3-23.4 3.3-23.4s-3.6-12.4 0-12.4c1 0 3.4 1.2 4.1 7.9.4 4.8 3 7.9 3.7 6.2.8-2.8 2.2-4.5 2.1-6.6" style="clip-path:url(#b);fill:#fc0" data-source="https://football-logos.cc"></path><!-- source: https://football-logos.cc --></svg>