<svg xmlns="http://www.w3.org/2000/svg" viewBox="0 0 81.62 81"><!-- Source: https://football-logos.cc --><g data-name="Group 785" data-source="https://football-logos.cc"><path fill="#671912" d="M1.961 6.146c21.666-6.447 57.528-6.983 78.507.333 2.74 32.284-6.313 59.284-39.311 72.184C8.493 68.653-1.317 35.991 1.961 6.146" data-name="Path 387"></path><path fill="#fff" d="m37.152 52.094 4.033-2.17 3.13.019-2.458 9.621-3.169-.039 1.748-6.721-2.188 1.154zm-9.788 7.048.595-2.036c1.713.511 4.5 1.221 5.416-.923a1.7 1.7 0 0 0 .153-.518c-6.26 2.662-6.932-6.03-.347-5.875a5.1 5.1 0 0 1 2.67.749c2.181 1.709.84 6.683-1.209 8.026a7.7 7.7 0 0 1-2.824 1.113 9.6 9.6 0 0 1-4.454-.536m4.409-7.03a1.235 1.235 0 1 0 1.91-.28 1.383 1.383 0 0 0-1.911.283m-10.3-.018 4.033-2.17 3.13.019-2.457 9.621-3.175-.042 1.747-6.721-2.187 1.154zm35.456-9.209c2.243 6.415 4.079 12.1 6.293 18.529l-1.236.091a24.6 24.6 0 0 0-3.282-7.776c-4.514-6.551-11.594-9.358-19.363-9.637-2.335-.084-4.674-.063-7.009-.063l-.076-1.172c8.223.025 16.447.012 24.671.025m-2.694-4.881s1.7 1.918 2.565 2.768a11 11 0 0 0 1.2 1.083l-36.123-.039-.039-1.224h3.93l.772-.941h5.877a2.6 2.6 0 0 0 .012-.927 4.5 4.5 0 0 0-.206-.734zm-5.8-4.7s2.808 1.971 3.865 2.589 1.842 1.094 1.842 1.094L21.907 37l-.204-1.268 2.462-.012.747-.941h6.027a3.7 3.7 0 0 0 .117-.812 5 5 0 0 0-.014-.669zm-6.66-4.907a8.4 8.4 0 0 0 2.009 2.589c1.3 1.068 1.687 1.314 1.687 1.314H21.106l-.503-1.268 4.1-.014.76-.886h6.106a3 3 0 0 0 .309-1.005 4 4 0 0 0-.012-.721zm-.553-1.006-21.811.012-.645-1.186 7.291-.012.748-.928 7.2-.012s.116-.336.168-.567.141-1.289.141-1.289zm.694-.708-6.751-3.929H16.973l-.784-1.186 11.8-.012.761-.927 7.691-.027a2.7 2.7 0 0 0 .257-.555c.142-.385.322-1.108.322-1.108l7.2 7.808a8 8 0 0 0-1.186-.349 1.05 1.05 0 0 0-1.122.284m24.439-4.47a15.7 15.7 0 0 0-2.073 2.15 23 23 0 0 0-1.8 2.475 23 23 0 0 1-.387.76 21.5 21.5 0 0 0-3.194-2.4 10.1 10.1 0 0 0-3.274-1.265 4.7 4.7 0 0 0-2.565.348 3.1 3.1 0 0 0-1.443 1.623 10.7 10.7 0 0 0-.541 1.843 15 15 0 0 0-1.378-1.482 7.4 7.4 0 0 0-1.648-1.032 1.36 1.36 0 0 0-1.432.257 6.4 6.4 0 0 0-.888 1.431l-2.886-3.105-5.758-6.274-23.681-.06-.991-1.237 17.971-.039.812-.926 5.952-.014a5.1 5.1 0 0 0 1.714-1.094c.592-.669.85-.941.914-1.044s.155-.284.155-.284l-30.816-.09-1.339-1.2H34.61l.748-.928 5.423-.025L41 9.093a7.9 7.9 0 0 0 2.228 1.791 3.87 3.87 0 0 0 2.539-.039 9 9 0 0 0 1.326-.761 8.1 8.1 0 0 0 .375 2.551 3.28 3.28 0 0 0 2.01 1.868 2.94 2.94 0 0 0 2.1-.372c.478-.26.8-.451.8-.451a2.8 2.8 0 0 0 .386 1.92 2.83 2.83 0 0 0 1.728 1.364 7.4 7.4 0 0 0 1.712.052 3.04 3.04 0 0 0-.09 2.255 4.09 4.09 0 0 0 2.564 2.125 20 20 0 0 0 4.407.812c1.03.026 3.271 0 3.271 0m-17.411-4.157a1.339 1.339 0 1 0 1.337-1.338 1.34 1.34 0 0 0-1.337 1.338m-1.489 34.061a1.235 1.235 0 1 0 1.909-.283 1.38 1.38 0 0 0-1.909.283m-4.409 7.029.6-2.036c1.711.511 4.5 1.221 5.415-.923a1.6 1.6 0 0 0 .153-.518c-6.259 2.662-6.931-6.03-.345-5.875a5.13 5.13 0 0 1 2.67.749c2.179 1.709.84 6.683-1.21 8.026a7.7 7.7 0 0 1-2.827 1.113 9.6 9.6 0 0 1-4.455-.536m20.006-47.609 1.784.691.778-1.744.794 1.719 1.77-.68-.677 1.733 1.695.854-1.669.715.651 1.773-1.745-.667-.768 1.695-.781-1.671-1.784.643.654-1.736-1.7-.778 1.709-.742z" data-name="Path 388"></path><path fill="#c59a00" d="M40.809 78.592C9.046 65.786.084 39.381 2.591 7.372c10.358-3.531 24.255-5.155 38.218-5.1 13.962-.053 27.86 1.571 38.218 5.1 2.507 32.009-6.454 58.414-38.218 71.22m40.32-72.879-.684-.241C69.545 1.606 55.183-.084 40.809 0 26.434-.084 12.072 1.606 1.172 5.472l-.684.241C-2.347 39.684 6.646 67.449 40.743 81l.066-.022.066.022c34.1-13.551 43.091-41.316 40.255-75.288" data-name="Path 389"></path><path fill="#fff" d="m37.152 52.094 4.033-2.17 3.13.019-2.458 9.621-3.169-.039 1.748-6.721-2.188 1.154zm-9.788 7.048.595-2.036c1.713.511 4.5 1.221 5.416-.923a1.7 1.7 0 0 0 .153-.518c-6.26 2.662-6.932-6.03-.347-5.875a5.1 5.1 0 0 1 2.67.749c2.181 1.709.84 6.683-1.209 8.026a7.7 7.7 0 0 1-2.824 1.113 9.6 9.6 0 0 1-4.454-.536m4.409-7.03a1.235 1.235 0 1 0 1.91-.28 1.383 1.383 0 0 0-1.911.283m-10.3-.018 4.033-2.17 3.13.019-2.457 9.621-3.175-.042 1.747-6.721-2.187 1.154zm35.456-9.209c2.243 6.415 4.079 12.1 6.293 18.529l-1.236.091a24.6 24.6 0 0 0-3.282-7.776c-4.514-6.551-11.594-9.358-19.363-9.637-2.335-.084-4.674-.063-7.009-.063l-.076-1.172c8.223.025 16.447.012 24.671.025m-2.694-4.881s1.7 1.918 2.565 2.768a11 11 0 0 0 1.2 1.083l-36.123-.039-.039-1.224h3.93l.772-.941h5.877a2.6 2.6 0 0 0 .012-.927 4.5 4.5 0 0 0-.206-.734zm-5.8-4.7s2.808 1.971 3.865 2.589 1.842 1.094 1.842 1.094L21.907 37l-.204-1.268 2.462-.012.747-.941h6.027a3.7 3.7 0 0 0 .117-.812 5 5 0 0 0-.014-.669zm-6.66-4.907a8.4 8.4 0 0 0 2.009 2.589c1.3 1.068 1.687 1.314 1.687 1.314H21.106l-.503-1.268 4.1-.014.76-.886h6.106a3 3 0 0 0 .309-1.005 4 4 0 0 0-.012-.721zm-.553-1.006-21.811.012-.645-1.186 7.291-.012.748-.928 7.2-.012s.116-.336.168-.567.141-1.289.141-1.289zm.694-.708-6.751-3.929H16.973l-.784-1.186 11.8-.012.761-.927 7.691-.027a2.7 2.7 0 0 0 .257-.555c.142-.385.322-1.108.322-1.108l7.2 7.808a8 8 0 0 0-1.186-.349 1.05 1.05 0 0 0-1.122.284m24.439-4.47a15.7 15.7 0 0 0-2.073 2.15 23 23 0 0 0-1.8 2.475 23 23 0 0 1-.387.76 21.5 21.5 0 0 0-3.194-2.4 10.1 10.1 0 0 0-3.274-1.265 4.7 4.7 0 0 0-2.565.348 3.1 3.1 0 0 0-1.443 1.623 10.7 10.7 0 0 0-.541 1.843 15 15 0 0 0-1.378-1.482 7.4 7.4 0 0 0-1.648-1.032 1.36 1.36 0 0 0-1.432.257 6.4 6.4 0 0 0-.888 1.431l-2.886-3.105-5.758-6.274-23.681-.06-.991-1.237 17.971-.039.812-.926 5.952-.014a5.1 5.1 0 0 0 1.714-1.094c.592-.669.85-.941.914-1.044s.155-.284.155-.284l-30.816-.09-1.339-1.2H34.61l.748-.928 5.423-.025L41 9.093a7.9 7.9 0 0 0 2.228 1.791 3.87 3.87 0 0 0 2.539-.039 9 9 0 0 0 1.326-.761 8.1 8.1 0 0 0 .375 2.551 3.28 3.28 0 0 0 2.01 1.868 2.94 2.94 0 0 0 2.1-.372c.478-.26.8-.451.8-.451a2.8 2.8 0 0 0 .386 1.92 2.83 2.83 0 0 0 1.728 1.364 7.4 7.4 0 0 0 1.712.052 3.04 3.04 0 0 0-.09 2.255 4.09 4.09 0 0 0 2.564 2.125 20 20 0 0 0 4.407.812c1.03.026 3.271 0 3.271 0m-17.411-4.157a1.339 1.339 0 1 0 1.337-1.338 1.34 1.34 0 0 0-1.337 1.338m-1.489 34.061a1.235 1.235 0 1 0 1.909-.283 1.38 1.38 0 0 0-1.909.283m-4.409 7.029.6-2.036c1.711.511 4.5 1.221 5.415-.923a1.6 1.6 0 0 0 .153-.518c-6.259 2.662-6.931-6.03-.345-5.875a5.13 5.13 0 0 1 2.67.749c2.179 1.709.84 6.683-1.21 8.026a7.7 7.7 0 0 1-2.827 1.113 9.6 9.6 0 0 1-4.455-.536m20.006-47.609 1.784.691.778-1.744.794 1.719 1.77-.68-.677 1.733 1.695.854-1.669.715.651 1.773-1.745-.667-.768 1.695-.781-1.671-1.784.643.654-1.736-1.7-.778 1.709-.742z" data-name="Path 410"></path></g><!-- source: https://football-logos.cc --></svg>