<svg xmlns="http://www.w3.org/2000/svg" fill-rule="evenodd" viewBox="16.48 138.67 566 566"><!-- Source: https://football-logos.cc --><path d="M582.477 421.669c0-156.297-126.704-283.001-283-283.001-156.297 0-283 126.704-283 283.001s126.703 282.999 283 282.999c156.296 0 283-126.703 283-282.999" style="stroke:none;fill:#c5222b" data-source="https://football-logos.cc"></path><path d="M26.963 421.669c0-150.506 122.009-272.514 272.515-272.514 150.504 0 272.512 122.008 272.512 272.514 0 150.505-122.008 272.513-272.512 272.513-150.506 0-272.515-122.008-272.515-272.513" style="stroke:none;fill:#fff"></path><path d="M493.969 421.669c0-107.416-87.075-194.493-194.492-194.493s-194.492 87.077-194.492 194.493S192.061 616.16 299.477 616.16c107.417 0 194.492-87.075 194.492-194.491" style="stroke:none;fill:#c5222b"></path><path d="M488.935 421.669c0-104.636-84.823-189.46-189.458-189.46s-189.459 84.824-189.459 189.46c0 104.635 84.823 189.458 189.459 189.458 104.635 0 189.458-84.823 189.458-189.458" style="stroke:none;fill:#fff"></path><path d="m105.806 546.413-10.392-18.48 13.368-7.515 11.43 20.328 4.772-2.682-14.217-25.281-42.531 23.91.41.733 2.372 4.219 19.624-11.03 10.391 18.481zM144.885 567.53c.004-4.254-1.501-8.51-4.771-12.394-3.904-4.659-8.977-6.802-14.302-6.794-6.208.004-12.74 2.846-18.498 7.724-6.694 5.627-10.986 12.777-10.997 20.031-.003 4.184 1.46 8.372 4.658 12.168 4.018 4.796 9.137 6.977 14.464 6.977h.032c6.206-.005 12.667-2.868 18.352-7.642 6.776-5.701 11.053-12.824 11.062-20.07m-5.554-.106c.005 5.08-3.028 10.668-9.165 15.825-4.663 3.923-9.997 6.449-14.848 6.441-3.723-.011-7.176-1.42-10.117-4.902-2.351-2.807-3.338-5.695-3.344-8.602-.013-5.488 3.652-11.187 9.116-15.772 4.653-3.921 10.067-6.469 14.979-6.469h.025c3.713.009 7.146 1.394 10.022 4.801 2.252 2.686 3.327 5.61 3.332 8.678M172.311 586.105c-3.571-2.766-7.478-4.046-11.386-4.044-7.487.01-14.872 4.616-20.469 11.919-4.345 5.622-6.92 11.878-6.924 17.838-.011 5.616 2.346 10.957 7.561 14.972 3.695 2.859 7.676 4.176 11.627 4.176h.016c7.51-.011 14.787-4.651 20.315-11.801 4.399-5.696 6.977-11.945 6.981-17.894.013-5.685-2.41-11.076-7.721-15.166m2.147 15.088c.004 4.345-1.922 9.35-5.903 14.498-4.458 5.775-10.262 9.772-15.942 9.752-2.715-.003-5.44-.875-8.128-2.948-3.831-2.978-5.377-6.596-5.392-10.558-.007-4.665 2.254-9.826 5.862-14.486 4.443-5.766 10.349-9.818 16.076-9.818h.042c2.687.003 5.367.856 7.985 2.875 3.627 2.815 5.39 6.457 5.4 10.685M219.251 615.528l-28.998-14.759-.379.749-2.102 4.127 11.965 6.09-19.651 38.601 5.063 2.579 19.654-38.601 11.965 6.091zM238.673 621.806l-15.447-4.722-14.27 46.655.802.246 16.561 5.064c2.089.634 4.116.998 6.044.998l.133.001c5.365 0 9.879-3.117 11.992-10.214.514-1.688.785-3.329.785-4.893.019-3.369-1.298-6.389-3.963-8.496 3.115-.612 6.218-3.096 7.749-8.205.468-1.538.726-3.044.726-4.501.034-5.271-3.485-9.653-11.112-11.933m-2.321 41.258c-1.058.923-2.297 1.32-3.997 1.326-1.924.005-4.388-.56-7.421-1.49l-8.942-2.733 4.984-16.291 9.391 2.871c2.907.885 5.284 1.875 6.858 3.141 1.569 1.277 2.384 2.721 2.402 4.896 0 .97-.179 2.094-.573 3.388-.739 2.411-1.645 3.964-2.702 4.892m.389-20.775c-1.442 0-3.192-.292-5.281-.931l-8.885-2.714 4.486-14.665 8.041 2.459c3.306 1.005 5.617 2.082 7.027 3.266 1.405 1.197 1.964 2.401 1.98 4.048q.004 1.23-.485 2.829c-1.236 3.805-2.996 5.651-6.883 5.708M273.837 629.233l-22.454 46.634 1.179.13 4.698.514 6.58-14.16 18 1.964 3.253 15.232 5.87.641-11.435-50.334zm6.695 29.433-14.19-1.549 9.403-20.362zM308.674 674.017l-2.695-43.235-5.672.353 3.034 48.699.84-.051 27.524-1.715-.342-5.462zM348.533 669.416l-9.516-42.26-5.543 1.246 10.717 47.603.819-.184 26.903-6.053-1.205-5.341zM430.019 624.854l-5.191 2.782.19.65c.582 2.017.886 3.996.886 5.86-.018 4.7-1.871 8.6-6.186 10.934-2.247 1.199-4.338 1.713-6.299 1.715-6.492.041-12.019-5.849-15.789-12.903-2.367-4.407-3.771-8.973-3.768-12.992.025-4.761 1.869-8.704 6.481-11.2 2.429-1.303 4.653-1.972 6.728-1.97 3.184.006 6.159 1.538 9.27 5.254l.436.526.605-.321 4.482-2.405-.569-.778c-3.853-5.298-8.805-7.947-14.004-7.94-2.859 0-5.769.792-8.601 2.31-6.415 3.41-10.684 8.94-10.668 16.601.003 4.52 1.456 9.735 4.663 15.716 4.831 9 11.865 15.836 20.405 15.865 2.75 0 5.618-.726 8.538-2.292 7.251-3.862 10.016-9.869 9.987-16.175 0-2.722-.49-5.506-1.304-8.25zM451.249 623.497l-26.973-33.895-4.448 3.536 30.381 38.182.658-.521 21.579-17.178-3.409-4.278zM490.908 566.352l-22.726-19.915-3.744 4.272 21.74 19.055c5.001 4.375 7.469 8.164 7.452 11.7-.002 2.323-1.021 4.702-3.319 7.329-2.586 2.933-5.091 4.29-7.86 4.294-3.171.013-6.944-1.854-11.546-5.895l-21.741-19.052-3.745 4.271.632.554 22.095 19.364c4.708 4.127 9.428 6.379 14.028 6.383h.016c4.403 0 8.571-2.114 12.237-6.311 3.168-3.613 4.783-7.385 4.783-11.189-.005-5.141-2.92-10.144-8.302-14.86M519.025 529.101c-2.455-1.424-4.945-2.205-7.344-2.207-2.308-.006-4.515.742-6.423 2.265a8 8 0 0 0 .007-.315c.011-3.111-1.765-6.531-6.231-9.104-2.225-1.292-4.497-2.033-6.765-2.033-4.272-.008-8.288 2.664-11.602 8.41l-8.111 13.968 42.198 24.505.423-.727 8.691-14.975c1.685-2.906 2.711-5.82 2.711-8.665.02-4.209-2.331-8.116-7.554-11.122m-25.618 16.52-13.264-7.7 4.221-7.272c3.006-5.188 5.427-7.26 7.88-7.26h.057c1.126-.001 2.394.403 3.881 1.266 2.816 1.663 4.217 3.458 4.234 6.067.003 1.774-.699 4.03-2.344 6.865zm19.467 11.304-14.734-8.556 4.93-8.492c2.665-4.606 5.168-7.378 8.341-7.378l.061.001c1.315 0 2.855.443 4.701 1.516 3.548 2.089 4.736 3.921 4.752 6.189.016 2.161-1.223 4.979-3.355 8.633zM78.106 327.074c6.271-.026 10.539-4.646 14.41-8.976 3.885-4.402 7.444-8.469 11.726-8.414 1.256.002 2.624.324 4.172 1.112 3.425 1.762 5.732 4.682 5.741 8.679 0 1.864-.511 3.996-1.725 6.381-2.394 4.65-5.792 7.552-10.685 7.565-1.895 0-4.042-.443-6.468-1.452l-.717-.298-.352.691-2.414 4.745.746.38c3.31 1.685 6.485 2.483 9.445 2.483h.021c6.719 0 12.168-4.151 15.454-10.64 1.852-3.645 2.784-7.134 2.784-10.361.021-5.921-3.212-10.88-9.173-13.89-2.755-1.402-5.246-2.021-7.521-2.021-6.357.024-10.6 4.719-14.408 9.116-3.817 4.474-7.287 8.594-11.49 8.535-.782 0-1.607-.132-2.501-.43-3.531-1.21-6.446-4.272-6.45-8.732 0-1.814.485-3.887 1.66-6.196 1.935-3.781 5.178-6.448 9.316-6.448 1.682 0 3.543.44 5.574 1.473l.748.381 2.763-5.426-.74-.383c-2.736-1.422-5.639-2.194-8.502-2.194-5.675-.017-11.144 3.101-14.557 9.849-1.64 3.216-2.379 6.311-2.379 9.153-.007 6.059 3.379 10.915 8.21 13.363 2.663 1.355 5.087 1.955 7.312 1.955M129.098 305.983l19.486-24.988-4.777-3.726-16.128 20.684-39.413-30.736-3.873 4.966 44.19 34.461zM155.36 275.177l3.936-3.786-38.861-40.381-4.539 4.368 38.859 40.38zM173.29 256.577c3.994 0 7.866-1.269 11.4-3.643 7.082-4.727 9.721-10.505 9.731-16.792l3.948 5.875 4.665-3.132-16.599-24.708-18.767 12.606 3.376 5.029.697-.468 12.996-8.73c1.959 3.127 3.414 6.203 3.941 9.471.16.966.235 1.893.235 2.781 0 5.796-3.175 10.06-6.811 12.509-2.681 1.797-5.492 2.597-8.318 2.598-6.526.014-13.232-4.365-17.788-11.156-4.314-6.417-6.733-12.533-6.726-17.791.017-5.085 2.17-9.405 7.245-12.837 2.522-1.694 5.384-2.583 8.274-2.583 3.682.003 7.41 1.437 10.575 4.575l.488.484 5.354-3.597-.7-.721c-4.679-4.826-9.964-7.086-15.25-7.081-4.26 0-8.486 1.455-12.401 4.085-6.916 4.626-10.037 11.024-10.022 17.937.003 6.277 2.503 12.956 6.797 19.348 7.276 10.841 15.626 15.938 23.66 15.941M223.072 230.835c2.513 0 5.134-.456 7.828-1.416 10.259-3.631 14.939-12.327 14.907-22.233-.002-4.304-.858-8.854-2.473-13.388-4.4-12.381-13.11-21.251-24.354-21.263-2.577 0-5.271.471-8.047 1.46-9.964 3.529-14.674 12.204-14.643 22.18 0 4.325.861 8.91 2.518 13.496 4.335 12.196 13.063 21.148 24.264 21.164m-20.5-34.871c.035-7.427 3.006-13.606 10.522-16.308 1.948-.696 3.848-1.03 5.684-1.03 7.71-.007 14.568 5.954 18.624 17.287 1.392 3.905 2.175 7.876 2.175 11.558-.037 7.384-3.027 13.475-10.647 16.219-2.021.72-3.932 1.049-5.735 1.049-8.446.029-14.947-7.352-18.456-17.187-1.388-3.888-2.167-7.876-2.167-11.588M314.009 192.832c1.456.857 2.513 2.241 2.961 5.034.298 1.953.268 5.556.376 9.105.125 3.572.333 7.066 1.344 9.231l.219.46 6.445.189.05-1.75-.282-.26c-.788-.634-1.458-2.62-1.431-10.241q0-.363.002-.741l.002-.883c-.002-2.792-.092-5.808-.914-8.495-.658-2.181-1.866-4.18-3.896-5.505 4.896-2.66 7.197-6.625 7.325-13.051.003-.251.009-.494.009-.742.01-4.922-1.52-8.666-4.494-11.122-2.968-2.453-7.219-3.591-12.555-3.75l-19.992-.584-1.635 56.019 6.296.186.721-24.682 13.695.401c2.267.061 4.287.326 5.754 1.181m-19.273-7.636.561-19.23 13.832.404c2.944.081 5.688.637 7.612 1.994 1.909 1.36 3.154 3.455 3.171 7.137q0 .23-.005.471c-.113 3.506-1.323 5.826-3.229 7.359-1.91 1.529-4.622 2.27-7.776 2.268a15 15 0 0 1-.606-.007zM367.267 167.543a23 23 0 0 0-5.959-.81c-11.859.015-20.768 9.905-24.271 23.297-.986 3.684-1.498 7.344-1.498 10.84-.041 11.043 5.238 20.593 16.713 23.634 2.141.573 4.213.848 6.207.848 12.052-.015 20.75-9.972 24.248-23.116 1-3.756 1.521-7.457 1.521-10.979.044-11.147-5.344-20.64-16.961-23.714m10.725 23.442c0 2.932-.445 6.161-1.371 9.625-2.81 10.461-9.155 18.708-18.251 18.677-1.416 0-2.912-.196-4.488-.616-8.648-2.344-12.051-9.112-12.099-17.511 0-3.038.472-6.265 1.34-9.506 2.786-10.414 9.254-18.822 18.308-18.822h.056c1.376 0 2.825.19 4.347.597 7.887 2.141 12.116 8.344 12.158 17.556M439.878 200.024l-5.821-3.081-34.066 34.339 9.156-47.516-5.821-3.077-.208 1.121-10.518 56.606 5.595 2.96zM417.709 252.897l26.365 21.577 3.836-4.689-22.138-18.119 12.614-15.411 19.511 15.969 3.836-4.689-19.51-15.967 11.372-13.892 21.613 17.689 3.837-4.687-26.488-21.676-35.496 43.361zM452.186 283.679l19.227-15.492 8.6 10.669c1.712 2.114 2.947 4.124 2.932 6.126-.001 1.351-.515 2.809-1.99 4.535-1.293 1.494-4.052 3.816-6.679 6.204-2.634 2.415-5.152 4.844-6.142 7.02l-.208.467 4.047 5.02 1.364-1.1.013-.382c.022-.553.24-1.227 1.326-2.515 1.076-1.274 2.969-3.064 6.096-5.71 3.701-3.168 8.201-6.989 8.255-12.203q0-.56-.075-1.134c1.806.686 3.52 1.055 5.214 1.055 3.192.003 6.206-1.327 9.468-3.959 4.068-3.266 6.112-6.953 6.104-10.935-.006-3.905-1.911-7.937-5.311-12.162l-12.552-15.573-43.641 35.165zm38.924-31.363 8.684 10.774c2.039 2.522 3.476 5.228 3.465 7.786-.009 2.185-.97 4.38-3.752 6.642-2.181 1.751-4.249 2.472-6.203 2.474-3.104.007-6.105-1.872-8.659-5.043l-8.515-10.563zM533.922 302.466c-3.564-7.033-9.225-10.229-14.747-10.216-2.388 0-4.741.588-6.888 1.68-6.42 3.218-8.377 8.063-8.334 13.004.022 6.129 2.667 12.615 2.643 17.72-.043 3.474-1.042 6.129-4.873 8.122-1.644.835-3.372 1.297-5.065 1.297-3.461-.018-6.88-1.86-9.473-6.91-1.202-2.357-1.873-4.697-1.87-6.916.015-3.822 1.913-7.41 7.024-10.551l.664-.403-.352-.692-2.416-4.746-.746.381c-7.162 3.617-10.573 9.268-10.555 15.403 0 3.135.869 6.373 2.484 9.545 3.655 7.225 9.077 11.2 15.271 11.2h.016c2.613 0 5.334-.701 8.076-2.096 6.522-3.275 8.541-8.113 8.5-13.04-.025-6.306-2.936-12.955-2.908-18.093.022-2.828.776-5.058 3.262-6.853 1.613-1.144 3.581-1.834 5.592-1.833 3.281.016 6.745 1.772 9.297 6.744.953 1.876 1.494 3.878 1.494 5.809-.023 3.51-1.697 6.821-6.238 9.159l-.747.38 2.758 5.426.746-.372c5.738-2.852 9.661-8.016 9.656-14.409 0-2.742-.717-5.688-2.271-8.74M233.154 580.288h11.826v-2.785h-11.826v-7.885l13.1.002v-2.786h-16.106v24.997h16.426000000000002v-2.787h-13.42zM259.011 577.872c-1.702-.415-3.406-.733-4.695-1.306-1.293-.588-2.127-1.339-2.358-2.736a4 4 0 0 1-.05-.648c.028-2.07 1.438-4.171 5.246-4.201 2.801.04 5.199 1.408 5.223 4.849v.419h2.924l-.015-.431v-.061c.002-2.038-.679-3.938-2.054-5.326-1.373-1.389-3.425-2.236-6.078-2.234-2.65-.002-4.707.81-6.097 2.09a6.47 6.47 0 0 0-2.099 4.806c-.017 5.03 3.84 6.326 7.312 7.167 1.759.439 3.482.821 4.708 1.512 1.222.705 1.956 1.599 1.972 3.332-.039 2.458-1.473 4.541-5.413 4.579-3.394-.047-5.807-1.393-6.181-5.52l-.032-.386h-2.909v.421c-.004 2.708.928 4.81 2.508 6.202 1.58 1.394 3.767 2.069 6.231 2.069 2.711-.002 4.911-.672 6.446-1.962 1.536-1.288 2.361-3.194 2.356-5.504.023-4.942-3.576-6.344-6.945-7.131M267.033 567.255v2.364h7.266v22.211h3.008v-22.211h7.267v-2.785h-17.541zM287.148 591.83h3.166v-3.79h-3.166zM313.21 570.636c-.306 1.714-.877 2.52-1.711 3.004-.841.488-2.064.633-3.63.732l-.391.025v2.046h5.343v15.387h2.721v-21.541h-2.272zM328.569 570.287c-2.349-.004-4.154.775-5.341 2.097-1.187 1.32-1.746 3.139-1.744 5.167-.002 2.098.662 3.879 1.864 5.131 1.199 1.255 2.924 1.956 4.958 1.953 2.119.008 3.856-.824 5.137-2.317-.128 1.541-.394 3.204-.989 4.552-.785 1.741-1.987 2.931-4.266 2.947-2.136-.038-3.16-.972-3.612-3.04l-.067-.338h-2.714l.043.46c.317 3.565 3.029 5.343 6.34 5.343l.097-.001c2.305.006 4.341-.976 5.75-2.866 1.411-1.886 2.216-4.642 2.218-8.212-.003-2.932-.417-5.611-1.595-7.61-1.168-2.005-3.173-3.277-6.079-3.266m4.221 7.205c-.023 2.632-1.544 4.708-4.221 4.719-2.833-.041-4.323-1.62-4.366-4.601h-.002c.05-3.098 1.41-4.8 4.376-4.897 2.666.079 4.179 1.878 4.213 4.779M343.387 585.988c2.903-2.267 9.132-3.679 9.181-9.552 0-1.683-.59-3.235-1.752-4.356-1.159-1.122-2.871-1.793-5.04-1.792-2.133-.001-3.935.712-5.191 1.988-1.258 1.272-1.954 3.086-1.954 5.216v.419h2.866l-.03-.449q-.006-.1-.005-.216c.008-2.497 1.72-4.527 4.079-4.532 2.391.029 4.114 1.373 4.132 3.838-.011 2.24-1.244 3.273-3.203 4.504-1.943 1.203-4.517 2.463-6.739 5.03-1.405 1.615-1.691 3.327-1.715 5.319l-.008.426h14.383v-2.427h-11.498c.229-1.513 1.269-2.478 2.494-3.416M365.652 580.35c1.577-1.043 2.319-2.628 2.3-4.589.008-1.903-.849-3.325-2.115-4.203-1.264-.884-2.907-1.268-4.557-1.27-.072-.007-.161-.005-.238-.005-3.346.005-6.077 2.427-6.086 5.478-.034 2.286.83 3.387 2.423 4.459-2.051 1.092-3.166 3.15-3.157 5.494.006 4.332 3.719 6.522 6.881 6.529 2.272-.002 4.193-.576 5.563-1.721 1.371-1.144 2.144-2.861 2.14-4.984.006-2.283-1.205-4.181-3.154-5.188m-4.109 1.349c2.64.038 4.523 1.249 4.543 3.899-.011 2.525-1.886 4.201-4.424 4.218-2.968-.021-4.705-1.786-4.721-4.102.032-2.813 1.839-3.968 4.602-4.015m.119-2.424c-2.186-.035-3.98-.989-3.986-3.25.015-2.183 1.6-3.28 3.779-3.311 2.745.056 3.736 1.037 3.78 2.898-.049 2.744-1.45 3.608-3.573 3.663M299.194 562.279c-49.367-17.725-85.424-54.581-104.016-124.665-9.627-36.274-14.054-108.43-14.059-108.458l-.075-1.22 1.164.368c.025.005 10.721 3.386 23.457 6.771 12.723 3.386 27.521 6.762 35.41 6.753 16.452.019 40.94-9.849 52.077-14.793 3.719-1.645 5.951-2.737 5.957-2.74l.367-.18.37.18c.005.003 2.237 1.095 5.957 2.74a272 272 0 0 0 14.796 6.037c11.759 4.393 26.326 8.763 37.282 8.756 7.89.009 22.688-3.367 35.408-6.753 12.737-3.385 23.435-6.764 23.458-6.771l1.163-.37-.074 1.222c-.006.028-4.431 72.184-14.061 108.458-18.587 70.084-54.647 106.94-104.014 124.665l-.285.102z" style="stroke:none;fill:#c5222b"></path><path d="M234.236 350.677v17.291h-1.364q-.663-4.977-2.378-7.926-1.714-2.95-4.885-4.683t-6.562-1.732q-3.835 0-6.341 2.341t-2.507 5.327q0 2.286 1.585 4.166 2.286 2.764 10.876 7.374 7.004 3.76 9.567 5.769 2.562 2.01 3.945 4.738 1.382 2.728 1.382 5.714 0 5.678-4.406 9.788t-11.336 4.111q-2.177 0-4.092-.332-1.143-.184-4.738-1.346-3.594-1.16-4.553-1.161-.922 0-1.456.553-.535.553-.793 2.286h-1.364v-17.143h1.364q.958 5.383 2.581 8.055 1.621 2.674 4.959 4.443 3.336 1.769 7.318 1.769 4.608 0 7.281-2.433t2.673-5.751q0-1.843-1.014-3.724-1.014-1.88-3.152-3.502-1.439-1.106-7.853-4.701-6.415-3.594-9.124-5.733t-4.111-4.719-1.401-5.677q0-5.382 4.129-9.272t10.507-3.89q3.982 0 8.442 1.954 2.066.922 2.913.922.959 0 1.567-.571.609-.571.977-2.305zM296.938 401.812h-13.346l-16.923-23.374q-1.88.075-3.06.074-.478 0-1.032-.018t-1.142-.056v14.526q0 4.72 1.032 5.862 1.401 1.623 4.202 1.622h1.955v1.364h-21.42v-1.364h1.88q3.17 0 4.535-2.065.774-1.141.774-5.419v-32.296q0-4.719-1.033-5.862-1.437-1.622-4.276-1.622h-1.88v-1.364h18.212q7.963 0 11.743 1.162 3.777 1.16 6.415 4.276 2.635 3.115 2.636 7.429-.001 4.608-3.005 8t-9.309 4.793l10.322 14.341q3.54 4.94 6.084 6.562 2.544 1.623 6.636 2.065zm-35.503-25.696q.7 0 1.216.018.516.019.848.018 7.151 0 10.784-3.096 3.63-3.097 3.631-7.89 0-4.682-2.931-7.613t-7.76-2.931q-2.139 0-5.788.7zM316.025 354.548v19.65h9.106q3.134 0 4.591-1.382 1.454-1.383 1.935-5.475h1.364v16.922h-1.364q-.037-2.912-.756-4.276t-1.991-2.046-3.779-.683h-9.106v15.706q0 3.798.479 5.014.37.921 1.549 1.585 1.622.885 3.391.885h1.807v1.364h-21.457v-1.364h1.771q3.096 0 4.496-1.806.885-1.18.885-5.678v-32.296q0-3.797-.478-5.014-.369-.921-1.512-1.585a6.85 6.85 0 0 0-3.391-.885h-1.771v-1.364h37.199l.48 10.987h-1.29q-.96-3.503-2.232-5.143-1.271-1.641-3.133-2.378t-5.769-.738zM392.331 350.677l1.143 16.996h-1.143q-2.286-7.631-6.526-10.986t-10.175-3.355q-4.977 0-8.996 2.525t-6.323 8.056-2.304 13.751q0 6.784 2.176 11.761 2.175 4.977 6.544 7.631t9.972 2.655q4.867 0 8.59-2.083 3.724-2.084 8.185-8.277l1.142.737q-3.76 6.674-8.774 9.77-5.014 3.097-11.908 3.097-12.425 0-19.244-9.217-5.089-6.857-5.088-16.148 0-7.483 3.354-13.751 3.356-6.267 9.235-9.715 5.88-3.447 12.849-3.447 5.42 0 10.691 2.655 1.55.81 2.212.811.996 0 1.733-.701.959-.995 1.364-2.765zM248.932 421.108l-10.486 8.808 125.348 86.518c8.486-10.156 16.031-21.939 22.576-35.58z" style="stroke:none;fill:#fff"></path><path d="M298.572 489.2c-.347-1.459-.87-2.731-1.741-3.608-.578-.582-1.361-.964-2.235-.957l-.018.001c-.023-1.651-.255-3.271-.806-4.702-.576-1.503-1.527-2.815-2.951-3.611-.946-.53-2.084-.819-3.391-.818q-.186.001-.374.01a10 10 0 0 0-.471-1.314c-.475-1.051-1.173-1.923-2.13-2.503s-2.134-.856-3.527-.856c-.614 0-1.276.056-1.988.16a5.2 5.2 0 0 0-.816-.989c-.768-.723-1.815-1.157-3.04-1.151-1.713.001-3.018.819-3.861 1.591a8 8 0 0 0-.649.675 8 8 0 0 0-.649-.675c-.843-.772-2.148-1.59-3.86-1.591-1.225-.006-2.272.428-3.041 1.151a5.3 5.3 0 0 0-.817.989 14 14 0 0 0-1.987-.16c-1.392 0-2.57.276-3.526.856-.957.58-1.655 1.452-2.13 2.503a10 10 0 0 0-.471 1.314q-.19-.009-.374-.01c-1.307-.001-2.445.288-3.391.818-1.424.796-2.375 2.108-2.952 3.611-.55 1.431-.783 3.051-.806 4.702l-.017-.001c-.874-.007-1.658.375-2.236.957-.871.877-1.392 2.149-1.741 3.608-.344 1.46-.494 3.117-.495 4.773.041 3.623 1.575 6.734 3.172 9.208 1.638 2.491 3.453 4.449 5.045 5.996q.746.709 1.422 1.302a1 1 0 0 0-.015.144v10.757a3.78 3.78 0 0 0 3.778 3.779h10.43l2.219 2.381.066.064c.064.037.985.867 2.376.887 1.392-.02 2.312-.85 2.376-.887l.067-.064 2.218-2.381h10.43a3.777 3.777 0 0 0 3.778-3.778v-10.758a.7.7 0 0 0-.015-.143q.677-.595 1.423-1.303c1.592-1.547 3.406-3.505 5.046-5.996 1.596-2.474 3.129-5.585 3.17-9.208 0-1.656-.151-3.313-.495-4.773" style="stroke:none;fill:#1f211d"></path><path d="M294.72 502.434c-1.496 2.41-3.175 4.391-4.635 5.995-2.954 3.195-5.06 4.919-4.924 5.093.075.105 1.132-.487 2.771-1.789v9.648a2.27 2.27 0 0 1-2.267 2.269h-9.019l4.734-5.079a.756.756 0 0 0-1.106-1.03l-8.331 8.936c-.158.117-.79.52-1.369.504-.348.003-.715-.127-.987-.271a3 3 0 0 1-.388-.242l-8.325-8.927a.754.754 0 0 0-1.068-.037.753.753 0 0 0-.037 1.067l4.734 5.079-9.02-.001a2.27 2.27 0 0 1-2.267-2.269v-9.647c1.639 1.302 2.697 1.894 2.772 1.789.136-.174-1.97-1.898-4.924-5.093-1.461-1.604-3.14-3.585-4.635-5.995-1.467-2.396-2.809-5.306-2.836-8.461-.002-2.081.263-4.161.813-5.637.271-.737.614-1.314.976-1.672.37-.357.715-.512 1.171-.518l.037.003c.306 7.247 3.545 13.27 6.45 16.898 3.11 3.917 5.767 5.598 5.87 5.436.147-.169-2.215-2.114-5.011-6.073-2.77-3.898-5.861-10.135-5.822-17.508-.003-2.144.397-4.179 1.287-5.595.444-.711 1-1.271 1.702-1.665.703-.392 1.564-.625 2.653-.625h.045c-.268 1.628-.342 3.52-.346 5.669.021 6.886 2.283 12.794 4.289 16.693 2.039 3.933 3.868 6.004 4.024 5.88.177-.125-1.312-2.38-3.06-6.34-1.72-3.934-3.726-9.686-3.742-16.233h.001c-.002-2.603.124-4.775.524-6.409.404-1.644 1.039-2.686 2.025-3.286.665-.403 1.54-.636 2.741-.637q.591 0 1.286.078a12.4 12.4 0 0 0-.537 1.988c-.326 1.73-.395 3.621-.396 5.343-.132 13.583 4.224 23.959 4.686 23.68.299-.079-3.306-10.376-3.175-23.68-.003-2.236.134-4.719.742-6.533.301-.912.714-1.636 1.228-2.112.517-.472 1.119-.738 2.011-.745 1.209 0 2.16.577 2.84 1.197a6.2 6.2 0 0 1 .913 1.055V484.5c0 11.904.339 21.538.756 21.538.418 0 .756-9.634.756-21.538v-11.875a6 6 0 0 1 .914-1.055c.68-.62 1.631-1.197 2.84-1.197.892.007 1.494.273 2.011.745.514.476.927 1.2 1.227 2.112.609 1.814.746 4.297.743 6.533.13 13.304-3.474 23.601-3.175 23.68.462.279 4.817-10.097 4.686-23.68-.001-1.722-.07-3.613-.396-5.343a12.6 12.6 0 0 0-.537-1.988q.693-.079 1.285-.078c1.202.001 2.077.234 2.741.637.986.6 1.622 1.642 2.026 3.286.4 1.634.526 3.806.524 6.409-.016 6.547-2.021 12.299-3.741 16.233-1.749 3.96-3.238 6.215-3.061 6.34.157.124 1.986-1.947 4.025-5.88 2.005-3.899 4.268-9.807 4.289-16.693-.004-2.149-.078-4.041-.347-5.669h.046c1.089 0 1.95.233 2.653.625.702.394 1.258.954 1.702 1.665.89 1.416 1.29 3.451 1.287 5.595.039 7.373-3.052 13.61-5.822 17.508-2.797 3.959-5.158 5.904-5.011 6.073.103.162 2.76-1.519 5.87-5.436 2.905-3.628 6.144-9.651 6.45-16.898q.018-.002.037-.003c.456.006.801.161 1.17.518.363.358.706.935.977 1.672.55 1.476.816 3.556.812 5.637-.026 3.155-1.369 6.065-2.835 8.461" style="stroke:none;fill:#b1b1b1"></path><path d="M230.585 437.032a18 18 0 0 1-3.153-4.445 7.6 7.6 0 0 1-3.528-1.588 19.58 19.58 0 0 0 10.266 10.816c-.192-.464-.462-1.247-.65-2.34a17.5 17.5 0 0 1-2.935-2.443M254.557 437.695a17.25 17.25 0 0 1-7.158 4.009c-.155.159-.833.843-1.587 1.445a19.47 19.47 0 0 0 10.174-5.443 4 4 0 0 1-.704.069c-.337 0-.591-.047-.725-.08M242.062 406.323q.423-.021.847-.021c2.828-.001 5.5.698 7.862 1.932a5.8 5.8 0 0 1 1.928-.624 19.4 19.4 0 0 0-10.586-3.12q-.96 0-1.898.093c.418.346 1.12.961 1.847 1.74M230.188 412.001c.008-1.623.259-3.025.418-3.755a19.49 19.49 0 0 0-7.876 13.558c.636-.592 1.964-1.77 3.514-2.779a18.1 18.1 0 0 1 3.944-7.024M260.337 424.306q0 .603-.039 1.195c.551.25.947.522 1.194.716q.125-1.095.126-2.222c0-2.39-.432-4.681-1.218-6.799a10 10 0 0 1-1.416.144 18.5 18.5 0 0 1 1.353 6.966" style="stroke:none;fill:#fff"></path><path d="M255.149 430.146c-.605-.245-3.516-1.481-5.698-3.606-.563.438-3.05 2.276-6.883 3.775-.019 3.757-.912 6.846-1.101 7.458l.022.021c.066.059.164.148.296.258.261.221.65.534 1.16.894a22.7 22.7 0 0 0 4.37 2.41 16.9 16.9 0 0 0 7.036-3.956c.019-.073.06-.229.115-.458.078-.332.182-.805.286-1.391.208-1.168.416-2.776.416-4.521q0-.438-.019-.884M241.132 437.688c.029-.096.081-.264.145-.501a27.309 27.309 0 0 0 .945-6.905c-2.391-1.825-4.799-5.139-5.182-5.675a34.8 34.8 0 0 0-6.938.746q-.35.075-.499.112c-.514 1.52-.979 3.254-1.319 4.613-.296 1.188-.493 2.087-.545 2.324a17.6 17.6 0 0 0 3.102 4.381c.873.903 1.84 1.708 2.884 2.398 3.812-.527 6.119-1.118 7.032-1.38q.267-.079.375-.113" style="stroke:none;fill:#fff" data-source="https://football-logos.cc"></path><path d="M254.844 415.772a57 57 0 0 0-1.595-.575c-.403.486-2.279 2.713-4.559 4.664.117.538.671 3.176.94 6.371 1.779 1.759 4.124 2.926 5.188 3.397.222.1.388.166.481.203 1.865-1.187 3.559-3.023 4.289-3.871.176-.202.295-.347.349-.413q.043-.616.043-1.242c0-2.49-.5-4.859-1.399-7.005a64 64 0 0 0-3.737-1.529M227.455 421.521c.533 1.289 1.275 2.776 2.071 3.608.602-.146 3.712-.854 7.49-.869 1.613-3.746 3.528-5.841 3.996-6.319-1.601-2.279-3.077-5.694-3.348-6.335a28 28 0 0 0-1.72-.049c-1.55 0-3.794.117-5.477.669a17.8 17.8 0 0 0-3.884 6.911c.031.097.106.335.221.669.154.444.375 1.053.651 1.715M237.979 411.466c.047.108.13.305.247.568.184.416.449.997.768 1.655.629 1.295 1.475 2.891 2.343 4.112.532.091 3.917.689 7.124 1.8 1.903-1.627 3.534-3.462 4.233-4.283.147-.172.253-.299.312-.371-.368-2.118-1.524-4.67-2.082-5.814-.138-.282-.238-.477-.282-.563a16.54 16.54 0 0 0-8.572-1.889c-2.121 2.318-3.393 3.892-3.897 4.535z" style="stroke:none;fill:#fff"></path><path d="M260.298 425.501q.038-.592.039-1.195c0-2.469-.482-4.823-1.353-6.966a10 10 0 0 0 1.416-.144l-.129-.339a19.57 19.57 0 0 0-7.572-9.247 5.8 5.8 0 0 0-1.928.624 16.9 16.9 0 0 0-8.709-1.911 20 20 0 0 0-1.847-1.74q-.25.023-.499.054a19.4 19.4 0 0 0-9.11 3.609c-.159.73-.41 2.132-.418 3.755a18.1 18.1 0 0 0-3.944 7.024c-1.55 1.009-2.878 2.187-3.514 2.779q-.029.27-.053.544a19.481 19.481 0 0 0 1.227 8.651 7.6 7.6 0 0 0 3.528 1.588 18 18 0 0 0 3.153 4.445 17.5 17.5 0 0 0 2.935 2.443c.188 1.093.458 1.876.65 2.34q.242.107.487.208a19.45 19.45 0 0 0 7.456 1.478 19.5 19.5 0 0 0 3.699-.352 19 19 0 0 0 1.587-1.445 17.25 17.25 0 0 0 7.158-4.009c.134.033.388.08.725.08.207 0 .445-.02.704-.069a19.442 19.442 0 0 0 5.506-11.489 5.8 5.8 0 0 0-1.194-.716m-.318-1.195q0 .626-.043 1.242c-.054.066-.173.211-.349.413-.73.848-2.424 2.684-4.289 3.871-.093-.037-.259-.103-.481-.203-1.064-.471-3.409-1.638-5.188-3.397a53 53 0 0 0-.94-6.371c2.28-1.951 4.156-4.178 4.559-4.664.23.078.809.28 1.595.575 1.013.379 2.364.912 3.737 1.529a18.1 18.1 0 0 1 1.399 7.005m-17.91-17.625q.418-.02.839-.022c2.784 0 5.412.689 7.733 1.911.044.086.144.281.282.563.558 1.144 1.714 3.696 2.082 5.814a25 25 0 0 1-.312.371c-.699.821-2.33 2.656-4.233 4.283-3.207-1.111-6.592-1.709-7.124-1.8-.868-1.221-1.714-2.817-2.343-4.112a53 53 0 0 1-.768-1.655c-.117-.263-.2-.46-.247-.568l.194-.25c.504-.643 1.776-2.217 3.897-4.535m-11.603 5.545c1.683-.552 3.927-.669 5.477-.669.846 0 1.483.034 1.72.049.271.641 1.747 4.056 3.348 6.335-.468.478-2.383 2.573-3.996 6.319-3.778.015-6.888.723-7.49.869-.796-.832-1.538-2.319-2.071-3.608a30 30 0 0 1-.651-1.715c-.115-.334-.19-.572-.221-.669a17.8 17.8 0 0 1 3.884-6.911m.374 24.557a17.6 17.6 0 0 1-3.102-4.381c.052-.237.249-1.136.545-2.324.34-1.359.805-3.093 1.319-4.613q.148-.037.499-.112a34.8 34.8 0 0 1 6.938-.746c.383.536 2.791 3.85 5.182 5.675a27.3 27.3 0 0 1-.945 6.905c-.064.237-.116.405-.145.501q-.108.034-.375.113c-.913.262-3.22.853-7.032 1.38a17.2 17.2 0 0 1-2.884-2.398m23.625.159c-.055.229-.096.385-.115.458a16.9 16.9 0 0 1-7.036 3.956 22.7 22.7 0 0 1-4.37-2.41c-.51-.36-.899-.673-1.16-.894-.132-.11-.23-.199-.296-.258l-.022-.021c.189-.612 1.082-3.701 1.101-7.458 3.833-1.499 6.32-3.337 6.883-3.775 2.182 2.125 5.093 3.361 5.698 3.606q.018.446.019.884c0 1.745-.208 3.353-.416 4.521a26 26 0 0 1-.286 1.391M283.536 321.377c.855-2.258 1.469-5.286 1.972-7.68.532-2.536-.223-5.622 2.43-6.433 2.543-.776 5.748-1.841 8.391-1.73 1.143.048 2.22-.366 3.357-.267 2.036.176 1.556 1.075 1.907 2.497.451 1.835 11.721-5.306 13.335-5.899 2.492-.915 4.561-2.111 6.486.41.673.881 1.01 1.718 1.356 2.752.474 1.418 1.652 2.133 2.608 3.206 3.281 3.681-1.356 10.806-3.497 14.185-1.488 2.346-6.594 9.149-.111 7.392.969-.264 2.137-.171 3.012-.74 1.059-.687 1.751-1.884 3.086-2.107 1.768-.294-.651-3.876-.07-5.147 2.089-4.566 7.696-7.597 7.621-13.187 3.189.285 2.996 6.161 3.628 8.315.744 2.536 1.269 3.127.039 5.759-.627 1.339-2.24 4.025-2.348 5.415 2.362.12 5.203.986 7.362-.41.832-.538 2.531-3.906 2.165-4.809-.848-2.086-2.108-3.753-.994-6.155.999-2.158-.21-4.867-.302-7.262-.108-2.748-2.325-4.114-2.669-6.531-.236-1.663-1.593-3.648-2.221-5.221-.941-2.357-.063-5.048-.991-7.525-.501-1.338-.264-2.245.373-3.473.772-1.49.37-3.422.5-5.057.216-2.71-1.292-4.642-2.554-6.795-1.267-2.163 1.698-2.059 2.578-3.056 1.825-2.066 3.701-2.487 3.006-5.776-.493-2.329-1.836-4.251-3.942-5.388-8.534-4.604-18.974 2.058-27.822-1.276-4.321-1.629 3.398-3.506 4.931-3.272 4.355.667 10.93 1.393 14.259-2.523 1.663-1.958-.1-1.724-1.476-1.328-1.717.494-3.229-1.101-5.115-.596-1.793.481-2.646 2.595-4.235 2.892-2.809.524-5.575-1.488-8.341-.309-4.539 1.935-4.802 7.628.976 7.932 5.994.315 12.15.359 18.113-.325 2.414-.277 10.46-.645 9.914 3.935-.803 6.71-8.669 4.099-12.895 4.949-4.942.994-8.903-3.538-14.215-1.31-4.585 1.922-10.697 2.344-15.73 2.502-1.963.061-4.672-.092-6.549-.523-.839-.192-1.38-.88-2.202-1.067-1.138-.257-2.059.049-3.214-.421-2.295-.935-3.658-.138-5.829.634-2.751.978-3.657-1.193-6.13-1.782-1.244-.297-2.488-.554-3.691-1.002-1.167-.436-.713-1.59-.976-2.505-.583-2.029-2.367-3.157-3.652-4.695-.408-.488-3.006-4.795-3.583-1.985-.493 2.407 3.252 3.729 2.066 6.408-1.102 2.49-3.571.389-5.358.421-2.681.049-5.565.213-8.201.816-1.911.437-4.514.875-6.003-.81-1.66-1.879-.068-4.946-1.834-6.811-1.355-1.432-2.634 3.844-2.836 4.594-.563 2.095-.486 4.807 1.522 6.134 1.133.748 2.442 1.186 3.754 1.485-.286.885-.169 1.745.426 2.469 1.501 1.827 4.693 3.518 3.68 6.426-.405 1.163.299 2.281-.605 3.322-.847.976-1.169 2.095-.938 3.364.398 2.19 2.642 3.331 4.826 3.109.995-.101 2.113-.576 3.053.052 1.276.849.819 1.386 2.389 1.815 2.725.744 2.966 4.452 4.12 6.72 1.014 1.994 3.584 3.208 5.462 4.305 2.479 1.449 3.276 3.367 4.976 5.542 1.261 1.615 3.335-.323 3.161 2.945-.156 2.937.279 4.562 1.351 7.279.665 1.687 1.613 4.12.432 5.807-.928 1.326-2.756 3.753-2.727 5.481.042 2.423 3.932 1.18 5.115.898 2.761-.661 3.355.426 5.41-2.281 1.216-1.606.01-5.165-1.292-6.698" style="stroke:none;fill:#1f211d"></path><path d="M279.579 329.144c-.165-3.224 2.126-5.689 1.57-9.091-.52-3.182-2.008-5.333-1.799-8.455.207-3.078-1.165-6.568-3.282-8.739-.699-.716-5.169-3.253-6.162-2.876.923.892.838 2.309 2.491 2.051.556 1.205 2.231 1.059 2.768 2.348.562 1.351-1.441 1.335-2.163.819-1.4-1.002-1.83-3.367-3.637-3.907-4.222-1.268-5.56-5.862-6.95-9.356-.359-.905-2.661-2.213-1.609-3.059.28-.227 1.873-1.887 1.933-2.073.407-1.261 2.057-1.424 2.387-2.906.462-2.079-.286-4.175-.263-6.259.023-2.145 1.809-1.59 3.322-2.273 2.289-1.033 1.965-2.978 3.351-4.442 1.111-1.174 3.154.769 3.975 1.348 1.9 1.335 4.389-.409 6.172-1.231 3.344-1.543 8.252 2.612 11.92 2.326 4.388-.342 8.841.605 13.167-.509 2.15-.554 4.091-.43 6.174-1.361 2.133-.953 5.727-1.752 7.923-.522 1.379.773 3.119 1.794 4.735 1.997 2.151.27 4.27-1.138 6.656-.759 3.783.597 4.502 5.736 5.792 8.942 1.427 3.543-2.019 6.894-.466 10.767.699 1.744 1.041 3.374 1.291 5.232.331 2.46 1.263 3.844 2.297 5.983 1.856 3.84 3.274 9.876 2.039 14.015-.655 2.189 1.362 8.494-2.223 9.205-1.441-3.026 1.11-4.65.595-7.537-.308-1.725-.861-3.28-1.032-5.038-.143-1.455-1.262-2.313-1.477-3.646-.237-1.449-3.067-5.068-4.151-5.977-2.321-1.948-.337-5.74.554-7.947.626-1.554 1.917-6.376-1.644-5.54-2.569.604-1.967 5.185-1.982 7.018-.015 1.763-.409 3.498-.308 5.266.096 1.689 1.409 2.841 1.659 4.461.514 3.33-1.938 6.008-3.455 8.656-1.019 1.779-2.877 4.488-3.494 6.363-.63 1.914-.421 5.57-3.749 5.507-2.891-.056.88-4.881 1.631-5.542.001-1.412 1.145-2.922 1.547-4.266.498-1.664.98-3.348 1.744-4.915 1.486-3.051-1.965-6.106-3.033-8.731-.638-1.564-3.843-6.463-5.681-7.074-1.227-.408-1.441-1.9-2.932-1.854-1.612.049-2.889 1.089-4.036 2.103-1.069.946-2.172 2.033-3.328 2.867-1.086.783-2.819.314-2.749 2.234q.415-.263.883-.413c1.502.371-1.4 2.185-1.516 2.267-1.889 1.321-2.75-.728-4.562-1.14-2.728-.619-6.884.241-9.203 1.468-6.803 3.596-1.439-11.056-5.681-11.853-1.322.762-.403 2.39-.022 3.387.875 2.288-.192 4.192-.588 6.414-.256 1.443-.221 2.94-.63 4.357-.446 1.541-2.002 2-.924 3.675.831 1.291.2 2.638-.395 3.877-.929 1.936-1.262 3.731-.856 5.861.649 3.401 1.513 7.754-2.594 8.477" style="stroke:none;fill:#c5222b"></path><path d="M278.553 321.23c-.308-3.081-3.381-6.677-1.172-9.671 1.502.794.963 2.935 1.272 4.272.37 1.603 1.142 3.019 1.357 4.667.302 2.326.155 6.391-2.923 6.74.197-2.084 1.682-3.854 1.466-6.008M267.854 271.262c2.841-.362-.95 3.622 0 0" style="stroke:none;fill:#c5222b"></path><path d="M267.121 266.719c-.157 1.236-2.131 1.826-3.058 2.256-1.032.479-1.926 1.253-3.097 1.407-.263-.561-.952-1.601-.276-2.181 1.45-1.243 3.988-.003 4.748-2.514.578-1.91 1.819-.033 1.683 1.032M241.18 263.496c.797 1.119 1.132 2.505 2.026 3.564.374.444 4.319 1.157 3.01 2.109-3.116 2.267-6.455-3.013-5.036-5.673M265.069 263.056c.363.239.422 1.004.147 1.319-.9 0-.795-.9-.147-1.319M322.815 254.85c0-1.514 2.691-1.884 3.81-1.758-.191 1.708-2.485 1.948-3.81 1.758" style="stroke:none;fill:#fff"></path><path d="M262.602 275.299c2.436-3.527 1.005-2.582-2.105-4.12-1.216-.602-1.726-2.1-1.753-3.364-.029-1.336-3.845-1.102-4.688-1.133-3.301-.12-6.386 2.04-6.576 5.592-.088 1.635 1.012 1.462 2.003 2.234.741.578.551 2.47.546 3.258-.014 2.361-1.035 4.624 1.813 5.363 2.22.577 4.849-.292 5.34 2.555.382 2.235 4.66-1.02 5.056-2.119.499-1.385.624-3.062 1.805-4.097-.886-1.154-2.535-2.587-1.441-4.169" style="stroke:none;fill:#c5222b"></path><path d="M255.498 283.457a6.1 6.1 0 0 0-1.957.274c.552.337 1.241 1.383.316 1.816-.876.41-.959-.925-1.41-1.268-1.667-1.268-4.178.888-3.689 2.736.455 1.717 4.118 1.303 5.3 1.099 1.006-.174 2.357-.359 2.19-1.605-.028-.215-.353-2.715.555-2.123q-.362-.873-1.305-.929" style="stroke:none;fill:#fff"></path><path d="M269.759 298.078c.361-.889-.254-1.788-1.104-1.763-1.257.036-.275 2.736 1.104 1.763M258.327 275.658c.667.427 2.335-.094 2.199-1.026-.275-1.888-3.919-.079-2.199 1.026" style="stroke:none;fill:#292a27" data-source="https://football-logos.cc"></path><!-- source: https://football-logos.cc --></svg>