<svg xmlns="http://www.w3.org/2000/svg" viewBox="5 5 400 400"><!-- Source: https://football-logos.cc --><path d="M0 340c0 187.773 152.227 340 339.996 340 187.797 0 340-152.227 340-340S527.793 0 339.996 0C152.227 0 0 152.227 0 340" style="fill:#fff;fill-rule:nonzero;stroke:none" transform="matrix(.59 0 0 -.59 5 405)" data-source="https://football-logos.cc"></path><path d="M9.063 340c0 182.777 148.167 330.938 330.921 330.938 182.774 0 330.95-148.161 330.95-330.938 0-182.773-148.176-330.937-330.95-330.937C157.23 9.063 9.063 157.227 9.063 340" style="fill:#dab006;fill-rule:nonzero;stroke:none" transform="matrix(.59 0 0 -.59 5 405)"></path><path d="M18.988 340c0 177.297 143.707 321.008 320.996 321.008 177.317 0 321.024-143.711 321.024-321.008 0-177.285-143.707-321.008-321.024-321.008C162.695 18.992 18.988 162.715 18.988 340" style="fill:#fff;fill-rule:nonzero;stroke:none" transform="matrix(.59 0 0 -.59 5 405)"></path><path d="M573.926 339.996c0-129.183-104.738-233.926-233.914-233.926-129.211 0-233.942 104.743-233.942 233.926 0 129.192 104.731 233.934 233.942 233.934 129.176 0 233.914-104.742 233.914-233.934" style="fill:#dab006;fill-rule:nonzero;stroke:none" transform="matrix(.59 0 0 -.59 5 405)"></path><path d="M562.781 339.996c0-123.039-99.773-222.777-222.785-222.777-123.039 0-222.785 99.738-222.785 222.777 0 123.047 99.746 222.785 222.785 222.785 123.012 0 222.785-99.738 222.785-222.785" style="fill:#fff;fill-rule:nonzero;stroke:none" transform="matrix(.59 0 0 -.59 5 405)" data-source="https://football-logos.cc"></path><path d="m104.68 177.953-7.649-5.765c-8.129-6.125-6.324-13.907-1.133-20.786 5.918-7.867 13.219-10.574 22.024-3.941 15.695 11.84 4.133 27.598 15.121 35.894 2.887 2.153 4.492 1.735 5.742.059 1.434-1.898 1.199-3.316-1.656-5.469l-8.402-6.34 7.675-10.195 9.032 6.789c8.406 6.336 6.066 14.512 1.175 21.031-6.445 8.536-13.996 9.762-23.148 2.879-15.023-11.328-5.668-28.726-13.844-34.914-2.406-1.781-4.137-2.324-5.789-.121-1.531 2.031-.68 3.739 1.703 5.531l6.824 5.145zM83.156 188.441l45.172 25.036-6.195 11.164-45.145-25.032-4.336 7.809-8.078-4.473 14.848-26.789 8.078 4.485zM54.516 251.602l-.575 1.906c-1.3 4.273 1.309 5.387 8.176 7.488 6.844 2.106 9.551 2.602 10.86-1.66l.601-1.91zm49.886 15.246-22.492-6.871-1.387 4.48c-2.203 7.215-8.175 13.023-16.925 10.348l-10.606-3.246c-10.062-3.075-10.613-10.071-7.633-19.786l4.57-14.937 58.18 17.805zM72.074 301.453l-27.133-1.547-.03.145 26.534 5.988zm-35.613-9.973 61.57-.75-1.508 10.676-15.12-.027-.95 6.851 14.621 3.524-1.785 12.582-59.285-15.488zM41.953 338.895l51.613-.891.223 12.773-51.613.899.152 8.926-9.226.156-.555-30.617 9.23-.153zM96.328 377.387l-27.437 4.347.347 2.055c.352 2.274 2.813 4.223 7.051 3.559l12.738-2.02c2.36-.379 5.97-.64 8.649.496l2.012 12.688c-2.68-1.125-6.293-.949-8.653-.574l-12.594 1.996c-8.601 1.367-11.707-1.809-12.835-7.871l-.18.031c-.172 7.051-4.61 10.633-12.14 11.816-12.661 2.008-15.141-4.918-17.052-16.93l-2.007-12.683 60.12-9.524zm-51.488 8.156c.926 5.773 3.156 6.273 8.726 5.398 5.668-.902 7.625-2.14 6.723-7.836zM105.078 414.336l-58.207 17.789-3.734-12.215 58.207-17.797zM91.434 446.016l9.558-3.942c2.305-.926 4.188-2.441 3.133-5-.977-2.429-3.359-2.203-5.668-1.273l-31.7 12.804c-2.304.926-4.187 2.442-3.206 4.868 1.047 2.562 3.43 2.34 5.734 1.41l7.781-3.137 4.79 11.828-6.196 2.5c-12.21 4.942-17.656-.328-21.144-8.961-3.16-7.843-2.45-16.347 10.46-21.57l25.684-10.375c12.91-5.207 19.336.406 22.52 8.25 4.008 9.988 1.004 17.105-9.559 21.363l-7.426 3.008zM127.898 465.445l-26.179 16.34.074.141 30.242-9.832 6.695 10.695-33.421 10.727-18.239 21.461-6.445-10.297 19.137-21.492-.074-.122-23.422 14.622-6.774-10.836 51.637-32.247zM93.867 523.777l15.598-14.933 4.672 6.191-13.473 17.778zM146.438 550.414l-6.903 6.652c-7.316 7.067-14.715 4.063-20.711-2.14-6.847-7.082-8.379-14.696-.429-22.348 14.125-13.656 27.89.215 37.796-9.34 2.582-2.496 2.407-4.152.954-5.64-1.657-1.715-3.082-1.723-5.665.765l-7.554 7.305-8.875-9.191 8.125-7.84c7.547-7.293 15.269-3.735 20.941 2.133 7.426 7.683 7.449 15.359-.781 23.316-13.539 13.055-29.27 1.086-36.641 8.203-2.156 2.074-2.961 3.719-1.027 5.707 1.781 1.828 3.59 1.242 5.742-.84l6.149-5.933zM192.855 566.977l-12.46 24.16.125.086 16.25-21.797zm-23.625 28.492 24.379-56.543 9.125 5.703-6.168 13.785 5.872 3.664 9.179-11.906 10.762 6.723-38.246 47.867zM213.344 609.785l21.015-47.168 11.664 5.203-21.011 47.157 8.148 3.632-3.734 8.442-27.996-12.449 3.765-8.438zM271.813 576.484l-7.532 28.075 6.524 1.754 7.523-28.083 12.34 3.317-15.75 58.785-12.34-3.316 5.844-21.789-6.547-1.758-5.844 21.804-12.308-3.304 15.746-58.789zM322.617 586.035l-1.129 9.164-13.746-1.683-6.293 51.25-12.687-1.563 7.422-60.41zM352.738 586.371l-.156 9.238-13.687-.242-.348 19.824 13.23.235-.16 9.238-13.226-.226-.227 13.328 13.676.23-.156 9.234-26.457-.468 1.046-60.848zM373.008 635.977l-7.18-51.122 12.649-1.765 7.191 51.125 8.828-1.246 1.274 9.133-30.317 4.265-1.289-9.144zM403.906 577.66l14.711 59.063-12.387 3.093-14.71-59.054zM434.742 592.844l-3.426-9.754c-.836-2.348-2.234-4.305-4.839-3.406-2.489.855-2.391 3.261-1.59 5.609l11.144 32.32c.793 2.352 2.199 4.301 4.688 3.446 2.605-.899 2.508-3.293 1.699-5.653l-2.707-7.91 12.066-4.16 2.184 6.305c4.258 12.449-1.273 17.609-10.055 20.644-8.027 2.754-16.488 1.59-21-11.582l-9.019-26.183c-4.539-13.18 1.394-19.29 9.429-22.047 10.153-3.508 17.098-.121 20.821 10.636l2.597 7.602zM472.043 547.719l15.398 24.644 11.235-7.011 4.887 7.828-11.235 7.011 7.074 11.309 11.614-7.258 4.886 7.84-22.441 14.008-32.254-51.613zM527.566 565.945c1.606 1.899 3.618 3.215 5.696 1.481 2.058-1.727 1.101-3.942-.508-5.84l-21.961-26.191c-1.613-1.899-3.613-3.227-5.676-1.493-2.051 1.739-1.125 3.95.481 5.84zm12.887-15.05c8.949 10.664 5.543 18.558-.945 24-6.473 5.449-14.852 7.449-23.801-3.235l-17.816-21.215c-8.95-10.675-5.528-18.558.961-24 6.468-5.437 14.847-7.441 23.793 3.235zM561.121 533.098c1.875 1.59 4.113 2.543 5.848.472 1.722-2.054.398-4.074-1.5-5.656l-26.188-21.992c-1.91-1.59-4.121-2.539-5.843-.469-1.727 2.051-.403 4.074 1.48 5.656zm10.063-17.063c10.671 8.961 8.671 17.328 3.226 23.809-5.41 6.48-13.312 9.906-23.996.949l-21.215-17.809c-10.691-8.961-8.672-17.316-3.242-23.804 5.445-6.469 13.344-9.91 24-.942zM589.117 503.32l-43.773-27.359 6.758-10.824 43.777 27.359 4.746-7.574 7.828 4.887-16.226 25.972-7.829-4.886zM589.531 452.563c2.215-4.907 2.696-6.215-5.179-9.719-5.801-2.586-9.739-4.422-11.926 2.117zm-30.238.511 5.238-11.797c5.52-12.375 8.43-17.476 23.754-10.664 7.164 3.203 12.891 6.754 9.57 14.207l.551.243c3.68-6.368 9.946-5.52 16.106-2.762 13.371 5.945 10.043 13.812 5.625 23.722l-5.235 11.809zm52.812 9.543c2.958-5.597.879-7.019-4.593-9.449-8.348-3.727-8.141-.605-10 2.945zM600.852 410.891l26.765 4.867.02-.153-25.617-9.164zm34.152 14.246-61.211-6.758 2.777-10.41 15 1.879 1.782-6.696-14.067-5.269 3.289-12.27 56.942 22.578zM586.449 354.336l9.188 1.125-1.688 13.742 51.242 6.285-1.554 12.676-60.414-7.406zM585.879 323.457l9.242-.16.234 13.855 51.637-.906.231 12.762-60.875 1.074zM602.535 276.266l-10.113 2.218c-2.434.524-4.539 1.676-3.961 4.383.555 2.559 2.93 2.762 5.367 2.246l33.434-7.117c2.426-.508 4.558-1.664 4.008-4.23-.571-2.696-2.985-2.903-5.418-2.387l-8.176 1.742-2.653-12.492 6.508-1.387c12.879-2.734 17.313 3.399 19.27 12.512 1.754 8.273-.43 16.523-14.043 19.406l-27.086 5.77c-13.652 2.894-18.988-3.754-20.742-12.032-2.254-10.535 1.976-17.023 13.09-19.378l7.847-1.676zM564.859 238.469l8.633-3.317 4.938 12.93 48.226-18.504 4.567 11.922-56.813 21.801zM600.852 176.539l6.191 11.172-38.371 21.254c-4.262 2.367-7.399 4.101-5.711 7.133 1.602 2.894 4.734 1.152 8.996-1.203l38.371-21.258 6.16 11.164-36.836 20.437c-6.746 3.715-17.574 9.379-25.222-4.414-5.77-10.429-2.789-16.652 8.343-23.195zM558.344 174.594c-3.246-4.289-4.141-5.348-11.039-.153-5.043 3.813-8.575 6.372-3.922 11.422zm-14.223 26.719-7.777-10.317c-8.145-10.816-11.203-15.851 2.179-25.93 6.274-4.722 12.165-8.011 17.086-1.503l.469-.356c-3.781-6.293 0-11.367 5.391-15.426 11.672-8.797 16.961-2.082 23.48 6.578l7.778 10.329zm33.961-41.571c-3.469-5.301-5.723-4.176-10.488-.57-7.328 5.496-4.492 6.836-2.285 10.191zM155.543 92.91l10.176-7.129c12.441-8.707 18.734-4.765 25.359 4.684l12.461 17.773c10.43 14.914 8.149 19.645-2.91 27.407l-10.18 7.113zm39.793 35.797c4.992-3.512 4.219-5.144-.449-11.797L180.52 96.402c-3.336-4.765-5.27-6.644-10.086-3.265zM244.496 109.492l-10.656 5.664-20.594-38.715c-2.285-4.296-3.965-7.472-6.844-5.937-2.765 1.469-1.086 4.64 1.2 8.937l20.589 38.723-10.656 5.668-19.785-37.215c-3.613-6.797-9.078-17.726 4.059-24.726 9.961-5.274 15.925-2.07 22.25 9.195zM245.297 73.563c4.816-1.653 6.019-2.16 3.211-10.325-2.059-5.98-3.41-10.125-9.305-7.379zm-20.34-22.02 11.535-3.969c12.117-4.168 17.535-5.402 22.977 10.45 2.558 7.425 3.91 14.023-3.36 16.527l.176.562c6.766-1.52 10.332 3.676 12.539 10.063 4.766 13.816-2.812 16.609-12.492 19.941l-11.535 3.981zm28.395 45.383c5.769-1.535 5.363-4.028 3.429-9.692-2.98-8.648-4.988-6.414-8.621-5.425zM288.129 34.758l1.758 9.058-12.836 2.5 9.851 50.688-11.836 2.305-11.609-59.743zM308.598 33.277l5.289 60.633-12.012 1.063-5.289-60.633zM317.852 32.488h9.429v50.864h.157l8.949-50.864h15.472v60.864h-9.453V49.07h-.156l-7.695 44.282h-16.703zM373.535 78.547l8.391 1.18 6.304-44.7 11.942 1.676-8.492 60.277-10.082-1.414c-.09-5.464-5.289-7.656-9.328-8.218zM408.965 60.277l2.207-7.273c3.062-9.973 9.43-12.942 18.531-10.168 7.426 2.277 13.715 8.84 10.711 18.652l-9.16 30.004c-3.527 11.531-10.652 14.715-20.309 11.754-6.316-1.93-12.632-8.152-9.226-19.265l2.965-9.723c2.285-7.45 7.687-9.989 12.976-8.38 3.391 1.04 5.176 3.192 6.875 6.317l4.219-13.816c.848-2.781 1.172-5.274-1.395-6.059-2.636-.816-3.8 1.426-4.66 4.211l-2.203 7.278zm10.156 17.672c-1.93-.59-3.082.403-3.601 2.113l-3.196 10.47c-.476 1.554.133 2.991 2.086 3.593 2.149.656 3.485-.184 3.906-1.582l3.137-10.297c.578-1.887-.18-3.64-2.332-4.297M463.109 66.047c-1.078 2.21-.875 3.941-.89 6.125.121 12.219 7.488 22.77 1.344 35.363-5.61 11.531-14.286 10.918-20.493 7.887-6.14-3-13.468-8.18-6.996-21.48l2.934-5.993 10.84 5.29-3.856 7.906c-1.308 2.695-.879 4.429 1.02 5.359 1.91.93 3.531.207 4.867-2.488 5.316-10.91-7.582-26.903.996-44.496l3.285-6.75 27.57 13.437-3.89 7.977zM480.297 89.707l4.223-6.293c5.863-8.656 12.8-9.625 20.699-4.309 6.453 4.356 10.535 12.457 4.797 20.969l-17.532 26c-6.757 10-14.5 10.961-22.879 5.317-5.468-3.703-9.671-11.489-3.183-21.133l5.691-8.426c4.348-6.45 10.27-7.312 14.852-4.215 2.93 1.988 4.008 4.571 4.746 8.051l8.07-11.98c1.621-2.41 2.664-4.711.414-6.215-2.269-1.551-4.027.265-5.66 2.672l-4.238 6.32zm4.531 19.887c-1.668-1.141-3.058-.516-4.062.972l-6.121 9.075c-.899 1.332-.723 2.894.96 4.027 1.879 1.266 3.383.844 4.184-.355l6.024-8.942c1.101-1.621.898-3.519-.985-4.777" style="fill:#ed1c24;fill-rule:nonzero;stroke:none" transform="matrix(.59 0 0 -.59 5 405)"></path><path d="M136.863 135.219c0 7.051 5.719 12.765 12.766 12.765 7.051 0 12.769-5.714 12.769-12.765s-5.718-12.77-12.769-12.77c-7.047 0-12.766 5.719-12.766 12.77M517.598 135.219c0 7.051 5.715 12.765 12.769 12.765 7.051 0 12.762-5.714 12.762-12.765s-5.711-12.77-12.762-12.77c-7.054 0-12.769 5.719-12.769 12.77" style="fill:#dab006;fill-rule:nonzero;stroke:none" transform="matrix(.59 0 0 -.59 5 405)"></path><path d="M412.551 251.277c-3.137-2.648-15.778-12.078-35.789-12.129-20.664.051-34.16 10.106-36.766 12.372-2.601-2.266-16.101-12.321-36.766-12.372-20.007.051-32.648 9.481-35.785 12.129-3.132-2.648-15.769-12.078-35.789-12.129-12.664.032-22.34 3.821-28.558 7.258 3.285-12.836 8.324-28.801 18.582-44.847 2.508-.309 7.199-.512 9.976-.524 20.02.055 32.657 9.492 35.789 12.145 3.137-2.653 15.778-12.09 35.785-12.145 20.665.055 34.165 10.125 36.766 12.379 2.606-2.254 16.102-12.324 36.766-12.379 20.011.055 32.652 9.492 35.789 12.145 3.133-2.653 15.769-12.09 35.785-12.145 2.781.012 7.469.215 9.98.524 10.258 16.046 15.297 32.011 18.582 44.847-6.218-3.437-15.898-7.226-28.562-7.258-20.016.051-32.652 9.481-35.785 12.129M376.09 159.656c-20.664.063-33.488 10.125-36.094 12.379-2.601-2.254-15.426-12.316-36.09-12.379-20.011.063-32.644 9.516-35.785 12.157-1.68-1.422-6.094-4.778-12.863-7.594 22.746-21.442 59.211-33.735 84.738-33.735 25.531 0 61.996 12.293 84.738 33.735-6.765 2.816-11.179 6.172-12.859 7.594-3.141-2.641-15.777-12.094-35.785-12.157M200.645 497.195V286.672c6.019-3.711 17.378-9.387 31.574-9.43 18.933.043 31.277 8.5 35.207 11.664 9.179-7.836 22.094-12.722 36.418-12.722 14.047 0 27 4.679 36.152 12.254 9.152-7.575 22.109-12.254 36.156-12.254 14.321 0 27.239 4.886 36.411 12.722 3.937-3.164 16.281-11.621 35.214-11.664 14.196.043 25.551 5.719 31.575 9.43v210.523z" style="fill:#ed1c24;fill-rule:nonzero;stroke:none" transform="matrix(.59 0 0 -.59 5 405)"></path><path d="M433.324 434.27c-5.293-1.848-2.14-9.067-1.281-12.485.629-2.508.699-5.222 1.785-7.453l-1.207-1.219c-2.508 2.379-4.641 4.196-8.031 4.657-3.164.414-7.117-1.594-8.297 1.937 5.074 6.609 2.535 16.316 0 21.246-15.703 27.57-45.488 44.606-77.895 44.606-48.851 0-88.574-38.2-88.574-85.149 0-40.246 29.77-75.328 70.797-83.398l1.981 10.121c-36.188 7.109-62.469 37.941-62.469 73.277 0 41.254 35.105 74.82 78.265 74.82 28.665 0 54.965-14.98 68.766-39.117.43-.91 3.895-8.64-.144-11.058-1.329-.809-5.2 1.468-7.758 3.976-11.407 21.809-35.16 35.879-60.864 35.879-37.464 0-67.933-28.937-67.933-64.5 0-30.523 22.848-57.105 54.316-63.191a71.5 71.5 0 0 1 13.617-1.289v10.304c-3.929 0-7.871.387-11.683 1.125-26.61 5.141-45.945 27.469-45.945 53.051 0 29.867 25.863 54.184 57.628 54.184 22.168 0 42.641-12.192 52.11-31.039l.355-.657.5-.55c.782-.844 5.867-6.039 12.043-7.45 5.614-5.652 8.672-13.863 16.594-17.355 7.98-3.539 17.781 1.855 24.652 6.473 7.551 5.039 5.95 16.433.735 23.078-1.957 2.48-8.672 8.371-12.063 7.176M368.188 328.305l-7.243 10.804-38.547-25.879 7.25-10.792 7.875 5.277 20.332-28.766a61.5 61.5 0 0 1 18.297-2.765c5.75 0 11.274.796 16.422 2.25l-32.179 44.656z" style="fill:#dab006;fill-rule:nonzero;stroke:none" transform="matrix(.59 0 0 -.59 5 405)" data-source="https://football-logos.cc"></path><!-- source: https://football-logos.cc --></svg>