<?xml version="1.0" encoding="UTF-8"?>
<svg version="1.1" xmlns="http://www.w3.org/2000/svg" width="500" height="650">
<path d="M0 0 C4.21669014 1.23539832 7.93876034 3.09326659 11.8515625 5.0703125 C44.06780643 20.76203403 79.07339971 26.18697787 114.6640625 26.1328125 C115.77448914 26.13190613 115.77448914 26.13190613 116.90734863 26.13098145 C154.77989032 26.04760206 193.42291912 20.01158519 226.71875 0.87890625 C230.03479005 -0.35556972 231.79087531 0.11203687 235.2265625 0.9453125 C237.55967566 2.11814517 239.71966616 3.30955692 241.93359375 4.671875 C242.88441582 5.24122772 242.88441582 5.24122772 243.85444641 5.82208252 C245.92145707 7.06265029 247.98014696 8.31636414 250.0390625 9.5703125 C251.48041634 10.43856098 252.92231712 11.3059021 254.36474609 12.17236328 C257.27799748 13.92429383 260.18805523 15.68133882 263.09521484 17.44335938 C267.81664112 20.30476374 272.55071067 23.14472518 277.28613281 25.98291016 C279.33434923 27.21060025 281.38187282 28.43944693 283.42871094 29.66943359 C290.73709187 34.06084193 298.06865695 38.41147232 305.4128418 42.74267578 C313.13737123 47.29871704 320.85239898 51.87061884 328.56393433 56.4486084 C329.93520513 57.26263916 331.30655963 58.07652896 332.67800903 58.89025879 C336.54421376 61.18429673 340.408742 63.48111821 344.2711792 65.78149414 C345.61334119 66.58033126 346.95602036 67.37829989 348.2991333 68.17553711 C350.35047683 69.39347566 352.40001915 70.61439604 354.44921875 71.8359375 C355.07106552 72.20434753 355.69291229 72.57275757 356.33360291 72.95233154 C357.97488744 73.93295801 359.60142324 74.93815533 361.2265625 75.9453125 C362.01901367 76.35322021 362.81146484 76.76112793 363.62792969 77.18139648 C366.275282 80.10245947 365.70909509 83.54794818 365.58203125 87.27734375 C365.56665817 88.11795853 365.5512851 88.9585733 365.53544617 89.82466125 C365.29019234 99.78965397 364.44994602 109.7104409 363.5390625 119.6328125 C363.40609772 121.1170723 363.40609772 121.1170723 363.27044678 122.63131714 C355.88181226 204.83746496 339.55805896 285.52083056 209.2265625 542.9453125 C208.33590565 544.09502741 207.44528166 545.24476778 206.5546875 546.39453125 C201.14049435 553.3593401 195.56831727 560.15911233 189.83984375 566.8671875 C187.44773981 569.6723857 185.11200399 572.51994407 182.7890625 575.3828125 C174.95053326 584.99900819 166.83762545 594.36080814 158.453125 603.50390625 C156.53523043 605.60686083 154.65280205 607.73200406 152.7890625 609.8828125 C149.39980592 613.78245125 145.9081209 617.58543778 142.40991211 621.38696289 C139.5352515 624.5123178 136.6830798 627.65567552 133.8515625 630.8203125 C128.06212404 637.27411275 122.13847363 643.6039426 116.2265625 649.9453125 C113.34334258 648.64953126 111.39208713 647.32786698 109.265625 644.99609375 C108.71849854 644.40256104 108.17137207 643.80902832 107.60766602 643.19750977 C107.02815186 642.55740967 106.4486377 641.91730957 105.8515625 641.2578125 C104.60307438 639.89824481 103.3543701 638.5388756 102.10546875 637.1796875 C101.46625488 636.48037109 100.82704102 635.78105469 100.16845703 635.06054688 C97.66479745 632.33340247 95.13220899 629.63416529 92.59814453 626.93530273 C87.95585136 621.98916177 83.34451252 617.03164632 78.921875 611.88671875 C76.77501199 609.42821434 74.56119118 607.0350235 72.3515625 604.6328125 C68.20730285 600.0935629 64.30077852 595.41072954 60.44140625 590.62890625 C58.27023423 587.99822693 56.02414893 585.46588826 53.7265625 582.9453125 C49.9361475 578.7765084 46.33876829 574.49046252 42.796875 570.109375 C40.87475789 567.7324644 38.92690981 565.37855307 36.96875 563.03125 C30.07771208 554.75720907 23.42777939 546.36310851 17.0234375 537.70703125 C14.47644626 534.26474988 11.86045384 530.88405857 9.2265625 527.5078125 C-8.00289079 505.22174047 -23.71488198 481.34266802 -37.7734375 456.9453125 C-38.31387695 456.01638184 -38.85431641 455.08745117 -39.41113281 454.13037109 C-59.03363638 420.30251666 -74.14172929 384.94247217 -86.7734375 347.9453125 C-87.17916992 346.7608252 -87.58490234 345.57633789 -88.00292969 344.35595703 C-114.62407242 265.98086395 -129.0610652 183.47025584 -134.53540039 101.00146484 C-134.7504931 98.23989501 -135.07098084 95.51866403 -135.43359375 92.7734375 C-136.6434571 81.41322953 -136.6434571 81.41322953 -133.55322266 77.33496094 C-129.90809762 74.16853441 -125.58687811 72.19267343 -121.24511719 70.15283203 C-116.92962536 68.04453269 -112.88024397 65.49147618 -108.7734375 63.0078125 C-106.89603911 61.8997849 -105.01705375 60.79444303 -103.13671875 59.69140625 C-95.7331678 55.33728082 -88.34626882 50.95524411 -80.9609375 46.5703125 C-80.27338379 46.16217316 -79.58583008 45.75403381 -78.87744141 45.33352661 C-69.01112674 39.4757634 -59.16321766 33.58820925 -49.32983398 27.67529297 C-39.01563934 21.47857637 -28.66757978 15.33913712 -18.31835938 9.20117188 C-17.65447205 8.80742371 -16.99058472 8.41367554 -16.30657959 8.00799561 C-15.0646913 7.27154667 -13.8227137 6.5352483 -12.58062744 5.7991333 C-10.04317573 4.29478628 -7.52060702 2.78395339 -5.03369141 1.19677734 C-2.7734375 -0.0546875 -2.7734375 -0.0546875 0 0 Z " fill="#FDFDFD" transform="translate(134.7734375,0.0546875)"/>
<path d="M0 0 C0 139.26 0 278.52 0 422 C-2.34405811 419.65594189 -3.67470645 418.11435648 -5.27734375 415.359375 C-5.70208984 414.63081299 -6.12683594 413.90225098 -6.56445312 413.15161133 C-7.24411133 411.96281372 -7.24411133 411.96281372 -7.9375 410.75 C-8.41767578 409.91299561 -8.89785156 409.07599121 -9.39257812 408.21362305 C-33.58485812 365.66979301 -53.77729079 318.82474525 -66.35107422 271.40527344 C-67.24937904 268.07566505 -68.21932378 264.76828114 -69.18603516 261.45800781 C-80.53269665 222.45616291 -87.82096293 183.09482739 -94 143 C-94.13904755 142.09897552 -94.27809509 141.19795105 -94.4213562 140.2696228 C-96.33390757 127.74837682 -97.80470622 115.22131328 -98.93530273 102.60571289 C-99.18845899 99.80187868 -99.45614612 96.99967085 -99.72460938 94.19726562 C-100.78464116 82.76414597 -101.23071415 71.48001788 -101 60 C-100.273573 59.58826538 -100.273573 59.58826538 -99.5324707 59.16821289 C-71.27930059 43.1343997 -43.2411378 26.72596437 -15.8125 9.3125 C-14.8851001 8.72380127 -13.9577002 8.13510254 -13.00219727 7.52856445 C-12.14166748 6.979021 -11.2811377 6.42947754 -10.39453125 5.86328125 C-9.64018799 5.38157471 -8.88584473 4.89986816 -8.10864258 4.40356445 C-5.95428478 3.00796963 -5.95428478 3.00796963 -3.8503418 1.32104492 C-2 0 -2 0 0 0 Z " fill="#0259A7" transform="translate(132,35)"/>
<path d="M0 0 C3.70549541 1.48219817 6.46364341 2.78522296 9.75390625 4.87890625 C11.13715088 5.75289062 11.13715088 5.75289062 12.54833984 6.64453125 C14.04034912 7.59392578 14.04034912 7.59392578 15.5625 8.5625 C17.73217518 9.92981101 19.90278597 11.29563822 22.07421875 12.66015625 C22.63832458 13.01481964 23.20243042 13.36948303 23.78363037 13.7348938 C39.23675247 23.43719898 54.87663036 32.83082868 70.6875 41.9375 C71.75645508 42.55995605 72.82541016 43.18241211 73.92675781 43.82373047 C78.69363353 46.58822184 83.4568734 49.26649249 88.40234375 51.69921875 C89.20905518 52.11502197 90.0157666 52.5308252 90.84692383 52.95922852 C92.30340112 53.70455904 93.78067393 54.41135131 95.2800293 55.06616211 C97.45132242 56.20453415 98.54527019 57.01754809 100 59 C100.30987549 61.66664124 100.30987549 61.66664124 100.23925781 64.85961914 C100.21352692 66.02551575 100.18779602 67.19141235 100.1612854 68.39263916 C99.91045082 74.00288557 99.48697785 79.58362444 98.9765625 85.17578125 C98.87032562 86.38461472 98.76408875 87.59344818 98.65463257 88.83891296 C98.430328 91.37779287 98.20329381 93.916433 97.97363281 96.45483398 C97.62688869 100.29160135 97.28929602 104.12909016 96.953125 107.96679688 C94.17695879 139.35469553 94.17695879 139.35469553 91.57617188 152.93798828 C90.83113506 156.89741696 90.15940917 160.86797463 89.484375 164.83984375 C83.11686241 202.07877207 75.64132234 239.00073011 64 275 C63.68805695 275.967099 63.68805695 275.967099 63.36981201 276.95373535 C49.58323786 319.65387144 33.72043815 361.54880334 12.125 401 C11.48304688 402.17332886 11.48304688 402.17332886 10.828125 403.37036133 C7.83141043 408.74199546 4.67651711 414.06100281 1 419 C0.67 419 0.34 419 0 419 C0 280.73 0 142.46 0 0 Z " fill="#E83534" transform="translate(369,36)"/>
<path d="M0 0 C4.21669014 1.23539832 7.93876034 3.09326659 11.8515625 5.0703125 C44.06780643 20.76203403 79.07339971 26.18697787 114.6640625 26.1328125 C115.77448914 26.13190613 115.77448914 26.13190613 116.90734863 26.13098145 C154.77989032 26.04760206 193.42291912 20.01158519 226.71875 0.87890625 C230.03479005 -0.35556972 231.79087531 0.11203687 235.2265625 0.9453125 C237.55967566 2.11814517 239.71966616 3.30955692 241.93359375 4.671875 C242.88441582 5.24122772 242.88441582 5.24122772 243.85444641 5.82208252 C245.92145707 7.06265029 247.98014696 8.31636414 250.0390625 9.5703125 C251.48041634 10.43856098 252.92231712 11.3059021 254.36474609 12.17236328 C257.27799748 13.92429383 260.18805523 15.68133882 263.09521484 17.44335938 C267.81664112 20.30476374 272.55071067 23.14472518 277.28613281 25.98291016 C279.33434923 27.21060025 281.38187282 28.43944693 283.42871094 29.66943359 C290.73709187 34.06084193 298.06865695 38.41147232 305.4128418 42.74267578 C313.13737123 47.29871704 320.85239898 51.87061884 328.56393433 56.4486084 C329.93520513 57.26263916 331.30655963 58.07652896 332.67800903 58.89025879 C336.54421376 61.18429673 340.408742 63.48111821 344.2711792 65.78149414 C345.61334119 66.58033126 346.95602036 67.37829989 348.2991333 68.17553711 C350.35047683 69.39347566 352.40001915 70.61439604 354.44921875 71.8359375 C355.07106552 72.20434753 355.69291229 72.57275757 356.33360291 72.95233154 C357.97488744 73.93295801 359.60142324 74.93815533 361.2265625 75.9453125 C362.01901367 76.35322021 362.81146484 76.76112793 363.62792969 77.18139648 C366.275282 80.10245947 365.70909509 83.54794818 365.58203125 87.27734375 C365.56665817 88.11795853 365.5512851 88.9585733 365.53544617 89.82466125 C365.29019234 99.78965397 364.44994602 109.7104409 363.5390625 119.6328125 C363.40609772 121.1170723 363.40609772 121.1170723 363.27044678 122.63131714 C355.88181226 204.83746496 339.55805896 285.52083056 209.2265625 542.9453125 C208.33590565 544.09502741 207.44528166 545.24476778 206.5546875 546.39453125 C201.14049435 553.3593401 195.56831727 560.15911233 189.83984375 566.8671875 C187.44773981 569.6723857 185.11200399 572.51994407 182.7890625 575.3828125 C174.95053326 584.99900819 166.83762545 594.36080814 158.453125 603.50390625 C156.53523043 605.60686083 154.65280205 607.73200406 152.7890625 609.8828125 C149.39980592 613.78245125 145.9081209 617.58543778 142.40991211 621.38696289 C139.5352515 624.5123178 136.6830798 627.65567552 133.8515625 630.8203125 C128.06212404 637.27411275 122.13847363 643.6039426 116.2265625 649.9453125 C113.34334258 648.64953126 111.39208713 647.32786698 109.265625 644.99609375 C108.71849854 644.40256104 108.17137207 643.80902832 107.60766602 643.19750977 C107.02815186 642.55740967 106.4486377 641.91730957 105.8515625 641.2578125 C104.60307438 639.89824481 103.3543701 638.5388756 102.10546875 637.1796875 C101.46625488 636.48037109 100.82704102 635.78105469 100.16845703 635.06054688 C97.66479745 632.33340247 95.13220899 629.63416529 92.59814453 626.93530273 C87.95585136 621.98916177 83.34451252 617.03164632 78.921875 611.88671875 C76.77501199 609.42821434 74.56119118 607.0350235 72.3515625 604.6328125 C68.20730285 600.0935629 64.30077852 595.41072954 60.44140625 590.62890625 C58.27023423 587.99822693 56.02414893 585.46588826 53.7265625 582.9453125 C49.9361475 578.7765084 46.33876829 574.49046252 42.796875 570.109375 C40.87475789 567.7324644 38.92690981 565.37855307 36.96875 563.03125 C30.07771208 554.75720907 23.42777939 546.36310851 17.0234375 537.70703125 C14.47644626 534.26474988 11.86045384 530.88405857 9.2265625 527.5078125 C-8.00289079 505.22174047 -23.71488198 481.34266802 -37.7734375 456.9453125 C-38.31387695 456.01638184 -38.85431641 455.08745117 -39.41113281 454.13037109 C-59.03363638 420.30251666 -74.14172929 384.94247217 -86.7734375 347.9453125 C-87.17916992 346.7608252 -87.58490234 345.57633789 -88.00292969 344.35595703 C-114.62407242 265.98086395 -129.0610652 183.47025584 -134.53540039 101.00146484 C-134.7504931 98.23989501 -135.07098084 95.51866403 -135.43359375 92.7734375 C-136.6434571 81.41322953 -136.6434571 81.41322953 -133.55322266 77.33496094 C-129.90809762 74.16853441 -125.58687811 72.19267343 -121.24511719 70.15283203 C-116.92962536 68.04453269 -112.88024397 65.49147618 -108.7734375 63.0078125 C-106.89603911 61.8997849 -105.01705375 60.79444303 -103.13671875 59.69140625 C-95.7331678 55.33728082 -88.34626882 50.95524411 -80.9609375 46.5703125 C-80.27338379 46.16217316 -79.58583008 45.75403381 -78.87744141 45.33352661 C-69.01112674 39.4757634 -59.16321766 33.58820925 -49.32983398 27.67529297 C-39.01563934 21.47857637 -28.66757978 15.33913712 -18.31835938 9.20117188 C-17.65447205 8.80742371 -16.99058472 8.41367554 -16.30657959 8.00799561 C-15.0646913 7.27154667 -13.8227137 6.5352483 -12.58062744 5.7991333 C-10.04317573 4.29478628 -7.52060702 2.78395339 -5.03369141 1.19677734 C-2.7734375 -0.0546875 -2.7734375 -0.0546875 0 0 Z M-6.75390625 16.12109375 C-7.57238037 16.6099707 -8.39085449 17.09884766 -9.23413086 17.60253906 C-10.13397705 18.1487793 -11.03382324 18.69501953 -11.9609375 19.2578125 C-13.94520758 20.4467897 -15.92958962 21.63558006 -17.9140625 22.82421875 C-19.00267578 23.47922363 -20.09128906 24.13422852 -21.21289062 24.80908203 C-25.07304973 27.12877728 -28.94595888 29.42676935 -32.8203125 31.72265625 C-33.51300735 32.13320755 -34.20570221 32.54375885 -34.91938782 32.9667511 C-36.32388855 33.7991145 -37.72841429 34.63143569 -39.13296509 35.4637146 C-47.52010698 40.43470762 -55.90100683 45.41564753 -64.2578125 50.4375 C-71.34047175 54.69349293 -78.44718235 58.90822017 -85.55709839 63.11846924 C-95.30199756 68.89115045 -105.04369653 74.66812223 -114.7109375 80.5703125 C-115.43708252 81.01294434 -116.16322754 81.45557617 -116.91137695 81.91162109 C-120.01137694 83.7038869 -120.01137694 83.7038869 -122.7734375 85.9453125 C-122.72846218 89.03215061 -122.61558613 92.08687481 -122.44921875 95.16796875 C-122.40082352 96.110923 -122.35242828 97.05387726 -122.30256653 98.02540588 C-121.75317617 108.1652924 -120.90060538 118.27262844 -119.9609375 128.3828125 C-119.87318054 129.33641663 -119.78542358 130.29002075 -119.69500732 131.27252197 C-118.1559678 147.8997504 -116.25092886 164.42870342 -113.7734375 180.9453125 C-113.55735395 182.404282 -113.34137515 183.86326701 -113.12548828 185.32226562 C-106.75833363 228.14526655 -98.56394164 270.5339349 -85.7734375 311.9453125 C-85.39622559 313.16976074 -85.01901367 314.39420898 -84.63037109 315.65576172 C-73.99319629 350.0338774 -61.34659548 383.48223244 -45.7734375 415.9453125 C-45.33322266 416.86425293 -44.89300781 417.78319336 -44.43945312 418.72998047 C-22.0354989 465.18139067 7.63263811 507.37791136 40.1953125 547.2265625 C42.60506049 550.17642641 44.98626831 553.14711328 47.3515625 556.1328125 C50.84604114 560.5174636 54.45833253 564.79465563 58.09472656 569.06152344 C60.98642564 572.45941932 63.81089349 575.90087685 66.6015625 579.3828125 C71.22583536 585.07166617 76.21305654 590.38759225 81.2265625 595.73046875 C84.03227944 598.72363661 86.74230975 601.787653 89.42578125 604.890625 C95.57301997 611.90461105 101.91702097 618.71375112 108.56640625 625.25390625 C110.62877937 627.35510051 112.46087628 629.59106421 114.2265625 631.9453125 C118.29420419 630.37350716 120.73299395 627.45388363 123.5390625 624.2578125 C124.5182755 623.16423886 125.49874066 622.0717851 126.48046875 620.98046875 C126.95242676 620.45469238 127.42438477 619.92891602 127.91064453 619.38720703 C129.5438069 617.59769739 131.24409244 615.88849753 132.9765625 614.1953125 C135.88493805 611.33495259 138.5578979 608.32478169 141.21875 605.234375 C143.17019037 603.00958111 145.16839898 600.83360749 147.18115234 598.66430664 C152.00960735 593.45823956 156.5916138 588.1271527 161.046875 582.59375 C163.20413649 579.97256131 165.4396725 577.45376969 167.7265625 574.9453125 C172.43114593 569.77027073 176.8327364 564.38463688 181.2265625 558.9453125 C182.26099694 557.67909747 183.29619872 556.41350907 184.33203125 555.1484375 C191.11354264 546.85679979 197.76519491 538.48985324 204.2265625 529.9453125 C204.78601563 529.20796875 205.34546875 528.470625 205.921875 527.7109375 C223.16558394 504.9639172 240.01644417 481.7377831 254.2265625 456.9453125 C254.73654785 456.05924316 255.2465332 455.17317383 255.77197266 454.26025391 C275.93047013 419.11225355 291.86053037 382.82232764 305.56640625 344.77148438 C306.48446851 342.23187429 307.41868363 339.698261 308.3515625 337.1640625 C312.63698286 325.3938405 316.05252761 313.42173341 319.30859375 301.33056641 C320.24204676 297.88821018 321.20133447 294.45380458 322.1640625 291.01953125 C337.82369663 234.58793221 346.42558487 176.27104297 351.4765625 118.0078125 C351.61066025 116.46602829 351.61066025 116.46602829 351.74746704 114.89309692 C352.0013107 111.94349344 352.24817033 108.99339992 352.4921875 106.04296875 C352.56694809 105.17140137 352.64170868 104.29983398 352.71873474 103.40185547 C352.91915541 100.9171606 353.08301817 98.43390958 353.2265625 95.9453125 C353.28643845 95.04253067 353.34631439 94.13974884 353.40800476 93.20960999 C353.7621151 88.17460607 353.7621151 88.17460607 351.6027832 83.8605957 C350.85601318 83.47218506 350.10924316 83.08377441 349.33984375 82.68359375 C348.09968506 81.99257568 348.09968506 81.99257568 346.83447266 81.28759766 C345.54355713 80.6231665 345.54355713 80.6231665 344.2265625 79.9453125 C342.65301389 79.00888625 341.08399155 78.06481334 339.51953125 77.11328125 C337.81890714 76.11774098 336.11702097 75.12435436 334.4140625 74.1328125 C324.30751129 68.20903668 314.28859376 62.14981322 304.29760742 56.03393555 C298.66241089 52.59519753 293.00122131 49.21970507 287.2578125 45.96484375 C279.56017013 41.6022444 272.0192527 36.99624452 264.4765625 32.37255859 C256.81635538 27.6811092 249.10319513 23.1136497 241.28515625 18.68945312 C239.3225851 17.57031134 237.38071361 16.41357831 235.46801758 15.21118164 C233.32112045 13.7398595 233.32112045 13.7398595 230.92578125 14.03515625 C227.98374796 15.02718773 225.18641932 16.20228417 222.35449219 17.47167969 C203.20740121 26.0398212 183.33352133 31.55640755 162.60595703 34.59130859 C160.567326 34.89461405 158.53476223 35.2382265 156.50390625 35.58984375 C150.80863301 36.57081399 145.14257541 37.14854062 139.375 37.4765625 C138.63326538 37.51883469 137.89153076 37.56110687 137.12731934 37.60466003 C91.56767945 40.06455039 44.45966582 35.84351843 3.09765625 15.23046875 C-1.1195891 13.3427494 -2.97024554 13.83839653 -6.75390625 16.12109375 Z " fill="#0259A8" transform="translate(134.7734375,0.0546875)"/>
<path d="M0 0 C-3.28589097 2.19059398 -5.87123286 2.89355829 -9.6875 3.875 C-10.6621521 4.12781738 -10.6621521 4.12781738 -11.65649414 4.38574219 C-13.76920779 4.93112121 -15.88418534 5.4667844 -18 6 C-18.74830078 6.18916992 -19.49660156 6.37833984 -20.26757812 6.57324219 C-24.84207426 7.72764588 -29.41979051 8.86848964 -34 10 C-33.030625 9.979375 -32.06125 9.95875 -31.0625 9.9375 C-28 10 -28 10 -27 11 C-24.66055264 10.71269945 -22.3260857 10.38063221 -20 10 C-26.08462308 16.08462308 -40.76058126 17.19335004 -49 19 C-42.01812817 17.44005901 -35.13393752 16.51537952 -28 16 C-29.375 17.5 -29.375 17.5 -31 19 C-31.66 19 -32.32 19 -33 19 C-33.495 20.485 -33.495 20.485 -34 22 C-35.98320018 23.03291676 -37.98347806 24.0337499 -40 25 C-40.33 25.66 -40.66 26.32 -41 27 C-42.99032585 27.94233505 -45.01787029 28.80714812 -47.0625 29.625 C-48.16722656 30.07101563 -49.27195312 30.51703125 -50.41015625 30.9765625 C-51.26480469 31.31429687 -52.11945313 31.65203125 -53 32 C-53 32.66 -53 33.32 -53 34 C-56.96 35.98 -56.96 35.98 -61 38 C-60.01 38.495 -60.01 38.495 -59 39 C-62.465 40.98 -62.465 40.98 -66 43 C-55.11 43.495 -55.11 43.495 -44 44 C-46.83380381 46.83380381 -50.30628068 47.88400765 -53.97265625 49.3359375 C-55.16827431 49.81687363 -55.16827431 49.81687363 -56.38804626 50.30752563 C-58.94428928 51.33485203 -61.50323143 52.35523694 -64.0625 53.375 C-66.59628199 54.38880273 -69.12945694 55.40408771 -71.66197205 56.42105103 C-73.23726955 57.05318325 -74.8133604 57.68334355 -76.39039612 58.31112671 C-81.02932916 60.16733672 -85.55704425 62.16292502 -90.05125427 64.34927368 C-92 65 -92 65 -95 64 C-94.01 62.02 -93.02 60.04 -92 58 C-94.04313484 58.7669334 -96.08444372 59.53873202 -98.125 60.3125 C-99.26195312 60.74175781 -100.39890625 61.17101562 -101.5703125 61.61328125 C-105.02391245 62.93927857 -105.02391245 62.93927857 -108.2421875 64.73046875 C-111 66 -111 66 -114 65 C-113.3503125 63.90300781 -112.700625 62.80601562 -112.03125 61.67578125 C-111.18693452 60.22168236 -110.34321566 58.76723693 -109.5 57.3125 C-108.85611328 56.2306543 -108.85611328 56.2306543 -108.19921875 55.12695312 C-105.18088349 49.93081993 -105.18088349 49.93081993 -105 44 C-105.71027344 43.86722656 -106.42054688 43.73445313 -107.15234375 43.59765625 C-108.07144531 43.42105469 -108.99054688 43.24445313 -109.9375 43.0625 C-110.85402344 42.88847656 -111.77054688 42.71445313 -112.71484375 42.53515625 C-115 42 -115 42 -116 41 C-116.06711718 37.57702361 -115.93906403 35.04169398 -113.5703125 32.4140625 C-111.46173612 30.76044866 -109.30319821 29.37016416 -107 28 C-106.22269531 27.52949219 -105.44539062 27.05898437 -104.64453125 26.57421875 C-80.64470407 13.42217165 -51.42664215 8.31005108 -24.8125 3.0625 C-24.03128784 2.90675507 -23.25007568 2.75101013 -22.44519043 2.59054565 C-20.20080309 2.14622186 -17.95450565 1.7135619 -15.70703125 1.28515625 C-14.4125708 1.03644775 -13.11811035 0.78773926 -11.78442383 0.53149414 C-7.7619426 -0.03343339 -4.05395024 -0.0925508 0 0 Z " fill="#065CA9" transform="translate(351,75)"/>
<path d="M0 0 C1.61648437 0.04060547 1.61648437 0.04060547 3.265625 0.08203125 C4.08546875 0.11683594 4.9053125 0.15164062 5.75 0.1875 C5.09741705 3.95564027 4.04013667 7.35291468 2.68359375 10.92578125 C2.28076172 11.99248047 1.87792969 13.05917969 1.46289062 14.15820312 C1.04201172 15.26099609 0.62113281 16.36378906 0.1875 17.5 C-0.23724609 18.62212891 -0.66199219 19.74425781 -1.09960938 20.90039062 C-2.14628756 23.66409146 -3.19652865 26.42638301 -4.25 29.1875 C-3.89284912 28.66430176 -3.53569824 28.14110352 -3.16772461 27.60205078 C-2.66764893 26.86970215 -2.16757324 26.13735352 -1.65234375 25.3828125 C-1.10191406 24.57561768 -0.55148438 23.76842285 0.015625 22.93676758 C1.21676122 21.18255382 2.42383761 19.43239311 3.63671875 17.6862793 C7.3778988 12.31934261 7.3778988 12.31934261 10.71484375 6.69921875 C12.23397297 4.02817984 13.34070035 2.0986542 15.75 0.1875 C20.2054841 -0.60680708 24.28043619 -0.41740337 28.75 0.1875 C28.13081787 3.70877895 27.20735761 6.87310651 25.90234375 10.19921875 C25.54462891 11.12154297 25.18691406 12.04386719 24.81835938 12.99414062 C24.44517578 13.94482422 24.07199219 14.89550781 23.6875 15.875 C22.94359095 17.77355761 22.2025552 19.67324439 21.46484375 21.57421875 C21.13605225 22.41170654 20.80726074 23.24919434 20.46850586 24.11206055 C19.64095169 26.13644269 19.64095169 26.13644269 19.75 28.1875 C20.12769531 27.5790625 20.50539062 26.970625 20.89453125 26.34375 C24.67507404 20.32321347 28.59753032 14.42016013 32.625 8.5625 C33.11331299 7.85158203 33.60162598 7.14066406 34.10473633 6.40820312 C37.61718137 1.32031863 37.61718137 1.32031863 38.75 0.1875 C40.76964199 0.11505947 42.79167124 0.10372812 44.8125 0.125 C45.91722656 0.13402344 47.02195312 0.14304688 48.16015625 0.15234375 C49.01480469 0.16394531 49.86945313 0.17554688 50.75 0.1875 C49.39913667 3.05429674 47.86382476 5.55230222 45.984375 8.1015625 C45.43040039 8.854375 44.87642578 9.6071875 44.30566406 10.3828125 C43.70979492 11.18460938 43.11392578 11.98640625 42.5 12.8125 C41.57912598 14.05773437 41.57912598 14.05773437 40.63964844 15.328125 C35.5904641 22.1254001 30.42387638 28.82756656 25.19433594 35.48681641 C24.64036133 36.19241699 24.08638672 36.89801758 23.515625 37.625 C23.02868164 38.24246094 22.54173828 38.85992187 22.04003906 39.49609375 C20.88171731 41.01480176 19.80948947 42.5982658 18.75 44.1875 C16.12302936 44.40887393 13.74106036 44.46912025 11.125 44.375 C10.41859375 44.36146484 9.7121875 44.34792969 8.984375 44.33398438 C7.23925872 44.2986104 5.49453392 44.24480221 3.75 44.1875 C4.38934071 40.47225286 5.42747965 37.16962876 6.81640625 33.66796875 C7.4206543 32.1355957 7.4206543 32.1355957 8.03710938 30.57226562 C8.66842773 28.98961914 8.66842773 28.98961914 9.3125 27.375 C9.73724609 26.30056641 10.16199219 25.22613281 10.59960938 24.11914062 C11.64600656 21.47375448 12.69625244 18.82996489 13.75 16.1875 C13.3365332 16.85813477 12.92306641 17.52876953 12.49707031 18.21972656 C11.36988683 20.03071998 10.21498378 21.82450479 9.046875 23.609375 C7.31520044 26.25727949 5.72134035 28.96275822 4.140625 31.703125 C-2.86340599 43.28875833 -2.86340599 43.28875833 -7.25976562 44.94433594 C-11.69805542 45.64001206 -15.85796892 45.1055065 -20.25 44.1875 C-18.05673246 35.89305658 -15.6064213 27.69299067 -13.0625 19.5 C-12.69447266 18.30955078 -12.32644531 17.11910156 -11.94726562 15.89257812 C-11.04979847 12.99037914 -10.15068232 10.08870245 -9.25 7.1875 C-10.24 7.1875 -11.23 7.1875 -12.25 7.1875 C-9.73903637 1.1193379 -6.39239195 -0.20844756 0 0 Z " fill="#085DA9" transform="translate(178.25,130.8125)"/>
<path d="M0 0 C0.61818604 0.08564209 1.23637207 0.17128418 1.87329102 0.25952148 C4.7689866 0.65752846 7.66571379 1.04751313 10.5625 1.4375 C11.53380859 1.57220703 12.50511719 1.70691406 13.50585938 1.84570312 C30.21276156 4.07691807 46.85984015 4.23605864 63.6875 4.25 C65.45039368 4.25300613 65.45039368 4.25300613 67.24890137 4.256073 C83.83459164 4.26300421 100.05836778 3.80353539 116.48632812 1.36376953 C120.31431875 0.80979653 124.15394907 0.40755478 128 0 C130.10818511 4.21637021 129.60851985 9.30223824 130 14 C144.85 14.495 144.85 14.495 160 15 C156.61527961 18.38472039 153.35253684 20.99688631 149.375 23.5625 C148.76124512 23.95945068 148.14749023 24.35640137 147.51513672 24.76538086 C142.58469779 27.84835003 137.72794161 29.85177207 132 31 C132 33.31 132 35.62 132 38 C130.02 38 128.04 38 126 38 C124.62979003 33.88937009 124.93723363 30.33087938 125 26 C129.29 24.68 133.58 23.36 138 22 C131.07 21.505 131.07 21.505 124 21 C123.06508817 16.32544083 122.92027988 12.7034873 123 8 C121.98164063 8.13277344 120.96328125 8.26554687 119.9140625 8.40234375 C118.48441503 8.58104968 117.05472506 8.75941587 115.625 8.9375 C114.965 9.02451172 114.305 9.11152344 113.625 9.20117188 C97.35340864 11.19813991 80.92940228 11.20053712 64.5625 11.1875 C62.98650024 11.18808914 62.98650024 11.18808914 61.37866211 11.18869019 C42.45504541 11.18023122 23.78101751 10.45836432 5 8 C4.67 12.29 4.34 16.58 4 21 C-0.62 21.33 -5.24 21.66 -10 22 C-5.71 23.32 -1.42 24.64 3 26 C3.125 34.625 3.125 34.625 2 38 C0.02 38 -1.96 38 -4 38 C-4 35.69 -4 33.38 -4 31 C-4.84820312 30.91105469 -5.69640625 30.82210938 -6.5703125 30.73046875 C-10.46634635 29.90067566 -13.49604458 28.32936343 -16.875 26.3125 C-17.4848877 25.95599365 -18.09477539 25.5994873 -18.72314453 25.23217773 C-23.35845856 22.4813828 -27.97684014 19.61084845 -32 16 C-32 15.67 -32 15.34 -32 15 C-21.77 15 -11.54 15 -1 15 C-1 11.7 -1 8.4 -1 5 C-0.5 1.875 -0.5 1.875 0 0 Z " fill="#075DA9" transform="translate(186,256)"/>
<path d="M0 0 C2.5625 1.5 2.5625 1.5 4 3 C4.33 2.34 4.66 1.68 5 1 C8.63 1 12.26 1 16 1 C13.65370699 6.86573253 10.7840268 12.3071561 7.8125 17.875 C7.26013672 18.93847656 6.70777344 20.00195312 6.13867188 21.09765625 C2.0729114 28.7002978 -1.79019479 34.61864705 -9.390625 38.91796875 C-13.65779916 40.19719737 -17.32779439 40.40897045 -21.75 40.3125 C-22.88115234 40.31733398 -22.88115234 40.31733398 -24.03515625 40.32226562 C-27.86655972 40.28483628 -29.74522036 40.1698531 -33 38 C-33 36.02 -33 34.04 -33 32 C-29.04 32 -25.08 32 -21 32 C-20.67 32.66 -20.34 33.32 -20 34 C-17.0957107 33.89207179 -17.0957107 33.89207179 -14 33 C-12.08255407 30.55690423 -12.08255407 30.55690423 -11 28 C-11.55429687 28.16113281 -12.10859375 28.32226562 -12.6796875 28.48828125 C-15.21742308 29.04795021 -17.52778553 29.1681178 -20.125 29.1875 C-21.42824219 29.20876953 -21.42824219 29.20876953 -22.7578125 29.23046875 C-25 29 -25 29 -27 27 C-26.6087384 18.52609735 -21.71612098 10.93937632 -15.984375 4.86328125 C-10.63405898 0.2210953 -6.925329 -0.73804572 0 0 Z " fill="#065CA9" transform="translate(291,145)"/>
<path d="M0 0 C3.07365786 1.80803404 4.43019732 2.86039464 6 6 C6.29737713 10.07714303 6.27810009 14.16329087 6.3125 18.25 C6.34150391 19.38308594 6.37050781 20.51617187 6.40039062 21.68359375 C6.48240909 32.44693998 6.48240909 32.44693998 2 37 C0.02734375 37.85546875 0.02734375 37.85546875 -2 38 C-2.72058594 38.07863281 -3.44117188 38.15726562 -4.18359375 38.23828125 C-8.29712544 38.3737355 -10.4210952 38.3618155 -14 36.125 C-18.55359063 31.28680995 -17.3033007 25.00029785 -17.375 18.6875 C-17.41238281 17.45064453 -17.44976562 16.21378906 -17.48828125 14.93945312 C-17.57627649 5.89060912 -17.57627649 5.89060912 -14.8515625 1.6796875 C-10.00449117 -1.17543671 -5.44772882 -0.8363733 0 0 Z " fill="#065CA9" transform="translate(295,444)"/>
<path d="M0 0 C1.98 0 3.96 0 6 0 C8.7609626 7.49404133 10.34722562 15.01381068 10 23 C10.66 23 11.32 23 12 23 C12.03738281 22.34515625 12.07476562 21.6903125 12.11328125 21.015625 C12.6361845 13.75649756 14.05598656 7.00578429 16 0 C18.31 0 20.62 0 23 0 C24.65 7.26 26.3 14.52 28 22 C29.27563659 15.13470044 29.27563659 15.13470044 30.54272461 8.26782227 C30.78261108 6.99249634 30.78261108 6.99249634 31.02734375 5.69140625 C31.18968506 4.81685791 31.35202637 3.94230957 31.51928711 3.04125977 C32 1 32 1 33 0 C34.99958364 -0.04080783 37.00045254 -0.04254356 39 0 C38.47411821 8.08817747 36.82777845 15.7568804 34.9375 23.625 C34.65583984 24.81996094 34.37417969 26.01492188 34.08398438 27.24609375 C33.39501325 30.16546291 32.7002464 33.08331873 32 36 C29.36 36 26.72 36 24 36 C23.88406494 35.42967041 23.76812988 34.85934082 23.64868164 34.27172852 C23.12386875 31.70116824 22.59326385 29.13183782 22.0625 26.5625 C21.88009766 25.66466797 21.69769531 24.76683594 21.50976562 23.84179688 C21.33251953 22.98779297 21.15527344 22.13378906 20.97265625 21.25390625 C20.81031494 20.46314697 20.64797363 19.6723877 20.48071289 18.85766602 C20.16709107 16.99795332 20.16709107 16.99795332 19 16 C17.68 22.6 16.36 29.2 15 36 C12.36 36 9.72 36 7 36 C5.99443348 31.8394303 4.99783767 27.67684164 4.00927734 23.51220703 C3.67218085 22.09756526 3.33269664 20.68349014 2.99072266 19.27001953 C2.49784196 17.23095915 2.01376018 15.18997348 1.53125 13.1484375 C1.23798828 11.92302246 0.94472656 10.69760742 0.64257812 9.43505859 C0.03615854 6.19329433 -0.1232195 3.28732024 0 0 Z " fill="#0D60AB" transform="translate(231,444)"/>
<path d="M0 0 C7.26 0 14.52 0 22 0 C22 4.29 22 8.58 22 13 C25.96 13 29.92 13 34 13 C34 8.71 34 4.42 34 0 C41.59 0 49.18 0 57 0 C57 4.29 57 8.58 57 13 C62.28 13 67.56 13 73 13 C73 14.98 73 16.96 73 19 C65.74 19 58.48 19 51 19 C51 14.71 51 10.42 51 6 C47.37 6 43.74 6 40 6 C40 10.29 40 14.58 40 19 C32.08 19 24.16 19 16 19 C16 14.71 16 10.42 16 6 C12.7 6 9.4 6 6 6 C6 10.29 6 14.58 6 19 C4.02 19 2.04 19 0 19 C0 12.73 0 6.46 0 0 Z " fill="#065CA9" transform="translate(154,295)"/>
<path d="M0 0 C7.59 0 15.18 0 23 0 C23 4.29 23 8.58 23 13 C26.96 13 30.92 13 35 13 C35 8.71 35 4.42 35 0 C42.26 0 49.52 0 57 0 C57 6.27 57 12.54 57 19 C55.02 19 53.04 19 51 19 C51 14.71 51 10.42 51 6 C47.7 6 44.4 6 41 6 C41 10.29 41 14.58 41 19 C33.08 19 25.16 19 17 19 C17 14.71 17 10.42 17 6 C13.37 6 9.74 6 6 6 C6 10.29 6 14.58 6 19 C-1.26 19 -8.52 19 -16 19 C-16 17.02 -16 15.04 -16 13 C-10.72 13 -5.44 13 0 13 C0 8.71 0 4.42 0 0 Z " fill="#065CA9" transform="translate(289,295)"/>
<path d="M0 0 C0.99 0.66 1.98 1.32 3 2 C2.45907979 6.36659942 1.41983727 9.56450172 -0.72265625 13.3984375 C-1.26083984 14.37167969 -1.79902344 15.34492188 -2.35351562 16.34765625 C-2.91748047 17.34667969 -3.48144531 18.34570312 -4.0625 19.375 C-4.91424805 20.90833984 -4.91424805 20.90833984 -5.78320312 22.47265625 C-7.18090836 24.98617659 -8.58940362 27.4936915 -10 30 C-13.96 30 -17.92 30 -22 30 C-20.62892979 25.24791374 -18.61368106 21.52283779 -15.9375 17.375 C-12.69133242 12.50986236 -12.69133242 12.50986236 -11 7 C-17.73009602 9.24336534 -19.85788817 14.07321234 -23 20 C-23.42539063 20.95003906 -23.85078125 21.90007812 -24.2890625 22.87890625 C-25.65852062 25.69390349 -26.75434751 27.80911952 -29 30 C-33.12273572 30.84568938 -36.8542602 30.60374851 -41 30 C-37.33623263 22.43860777 -33.4483719 15.13001454 -29 8 C-29.66 7.34 -30.32 6.68 -31 6 C-28.10652793 2.87192209 -26.46365449 1.1706593 -22.15234375 0.66796875 C-19.41971871 0.68559859 -16.72358801 0.78191911 -14 1 C-13.67 1.66 -13.34 2.32 -13 3 C-12.34 2.505 -11.68 2.01 -11 1.5 C-6.95220076 -0.52389962 -4.50429853 -0.36324988 0 0 Z " fill="#065CA9" transform="translate(266,145)"/>
<path d="M0 0 C3.63 0 7.26 0 11 0 C11.63088128 2.2693351 12.25470072 4.54026896 12.875 6.8125 C13.39707031 8.70935547 13.39707031 8.70935547 13.9296875 10.64453125 C15.17534176 15.71352577 16.06625297 20.86439133 17 26 C17.33 17.42 17.66 8.84 18 0 C19.98 0 21.96 0 24 0 C24 12.54 24 25.08 24 38 C20.37 38 16.74 38 13 38 C10.94137091 32.49177622 9.9293607 26.88699657 8.875 21.125 C8.25625 17.78375 7.6375 14.4425 7 11 C6.67 19.58 6.34 28.16 6 37 C4.02 37 2.04 37 0 37 C0 24.79 0 12.58 0 0 Z " fill="#065CA9" transform="translate(309,444)"/>
<path d="M0 0 C1.21429688 -0.02578125 2.42859375 -0.0515625 3.6796875 -0.078125 C7.37243328 0.27356507 9.25754805 0.92255783 12.125 3.25 C12.4375 6.4375 12.4375 6.4375 12.125 9.25 C8.495 9.25 4.865 9.25 1.125 9.25 C0.795 8.26 0.465 7.27 0.125 6.25 C-1.855 6.58 -3.835 6.91 -5.875 7.25 C-5.875 8.24 -5.875 9.23 -5.875 10.25 C-5.17632812 10.58773437 -4.47765625 10.92546875 -3.7578125 11.2734375 C-2.39269531 11.94246094 -2.39269531 11.94246094 -1 12.625 C-0.09507812 13.06585938 0.80984375 13.50671875 1.7421875 13.9609375 C4.125 15.25 4.125 15.25 6.125 17.25 C5.88595967 21.67224616 4.25588729 24.1973849 1.125 27.25 C-4.25338472 31.04940939 -9.78456984 31.64801026 -16.1875 31.75 C-16.88133789 31.76844971 -17.57517578 31.78689941 -18.29003906 31.8059082 C-21.71561324 31.76389958 -23.57718618 31.47548761 -26.3359375 29.38671875 C-28.20849253 26.78700403 -28.29903877 25.38788688 -27.875 22.25 C-26.875 21.25 -26.875 21.25 -24.37109375 21.15234375 C-23.36175781 21.16394531 -22.35242188 21.17554688 -21.3125 21.1875 C-20.30058594 21.19652344 -19.28867187 21.20554688 -18.24609375 21.21484375 C-17.07240234 21.23224609 -17.07240234 21.23224609 -15.875 21.25 C-15.875 22.57 -15.875 23.89 -15.875 25.25 C-13.235 24.59 -10.595 23.93 -7.875 23.25 C-7.875 22.59 -7.875 21.93 -7.875 21.25 C-8.57367188 20.91226563 -9.27234375 20.57453125 -9.9921875 20.2265625 C-10.90226562 19.78054687 -11.81234375 19.33453125 -12.75 18.875 C-13.65492188 18.43414062 -14.55984375 17.99328125 -15.4921875 17.5390625 C-17.875 16.25 -17.875 16.25 -19.875 14.25 C-20.0625 11 -20.0625 11 -18.875 7.25 C-13.06720204 2.07473449 -7.72039003 0.09793307 0 0 Z " fill="#085DAA" transform="translate(325.875,144.75)"/>
<path d="M0 0 C2.64 0 5.28 0 8 0 C8.33 10.23 8.66 20.46 9 31 C10.65 31 12.3 31 14 31 C15.88631543 29.11368457 15.24265292 25.85799307 15.31640625 23.33984375 C15.33718735 22.67537735 15.35796844 22.01091095 15.37937927 21.3263092 C15.44493658 19.19681457 15.50378785 17.06719332 15.5625 14.9375 C15.60567939 13.49673153 15.64929349 12.05597601 15.69335938 10.61523438 C15.80062393 7.0769596 15.90187371 3.53854131 16 0 C18.31 0 20.62 0 23 0 C23.09917794 4.46567763 23.17161225 8.93076507 23.21972656 13.3972168 C23.23979203 14.9152341 23.26705134 16.43317459 23.30175781 17.95092773 C23.35050393 20.13805122 23.37301805 22.32414952 23.390625 24.51171875 C23.41157227 25.82615967 23.43251953 27.14060059 23.45410156 28.49487305 C22.92906843 32.54750786 21.86169466 34.14662035 19 37 C15.31040237 38.84479881 11.03586349 38.34956298 7 38 C3.73602649 36.70801049 2.480581 35.93828221 0.88720703 32.82739258 C-0.18602106 29.40717946 -0.22581316 26.53304657 -0.1953125 22.94921875 C-0.1924826 22.29041214 -0.18965271 21.63160553 -0.18673706 20.95283508 C-0.17560924 18.86419938 -0.15051948 16.77600444 -0.125 14.6875 C-0.11496059 13.26498018 -0.10583642 11.8424536 -0.09765625 10.41992188 C-0.07569447 6.94647319 -0.04121646 3.47327967 0 0 Z " fill="#075CA9" transform="translate(198,444)"/>
<path d="M0 0 C3.25 2.0625 3.25 2.0625 5 5 C5.3125 8.8125 5.3125 8.8125 5 12 C2.36 12 -0.28 12 -3 12 C-3.33 10.02 -3.66 8.04 -4 6 C-5.65 6.33 -7.3 6.66 -9 7 C-9.44441642 9.34894971 -9.44441642 9.34894971 -9 12 C-6.68595598 14.0010681 -6.68595598 14.0010681 -3.6875 15.5625 C2.87881734 19.27912145 2.87881734 19.27912145 5 23 C5.66082073 26.07832322 5.60008572 28.91148541 5 32 C2.47031526 35.28175318 0.92268669 36.69243777 -3 38 C-8.38954957 38.52482505 -12.6237217 38.55572612 -17 35 C-18.4783226 32.04335481 -18.06032783 29.25770263 -18 26 C-15.69 26 -13.38 26 -11 26 C-10.34 27.65 -9.68 29.3 -9 31 C-7.35 31 -5.7 31 -4 31 C-3.2444568 28.2587435 -3.2444568 28.2587435 -4 25 C-6.11910575 23.18743156 -8.34529049 21.81776578 -10.734375 20.3828125 C-13.92266963 18.43685337 -16.32521738 16.34956524 -18 13 C-18.39447548 8.81855989 -18.45035186 6.69053952 -16.125 3.125 C-11.65768833 -1.34231167 -5.99192823 -0.69413816 0 0 Z " fill="#0B5FAA" transform="translate(185,444)"/>
<path d="M0 0 C3.29159316 -0.05790353 6.58305603 -0.09356261 9.875 -0.125 C10.81214844 -0.14175781 11.74929687 -0.15851563 12.71484375 -0.17578125 C13.61074219 -0.18222656 14.50664062 -0.18867187 15.4296875 -0.1953125 C16.25710449 -0.20578613 17.08452148 -0.21625977 17.93701172 -0.22705078 C20 0 20 0 22 2 C22 4.8125 22 4.8125 21 8 C19.4840625 9.2065625 19.4840625 9.2065625 17.9375 10.4375 C16.968125 11.283125 15.99875 12.12875 15 13 C14.95833998 15.3329614 14.95833998 17.6670386 15 20 C11.91962942 23.98636193 8.62444283 26.10376234 4 28 C1.19277463 28.33786198 -1.55298707 28.2870104 -4.375 28.1875 C-5.11105469 28.17396484 -5.84710938 28.16042969 -6.60546875 28.14648438 C-8.40396743 28.11144869 -10.20208422 28.05765288 -12 28 C-10.68990468 25.35295091 -9.37705236 22.7073344 -8.0625 20.0625 C-7.68931641 19.30775391 -7.31613281 18.55300781 -6.93164062 17.77539062 C-6.57392578 17.05673828 -6.21621094 16.33808594 -5.84765625 15.59765625 C-5.51773682 14.93258057 -5.18781738 14.26750488 -4.84790039 13.58227539 C-4 12 -4 12 -3 11 C0.299258 10.83640043 3.59596625 10.74510053 6.8984375 10.671875 C10.20118822 10.31040386 10.20118822 10.31040386 11.9140625 7.453125 C12.27242187 6.64359375 12.63078125 5.8340625 13 5 C11.35 5 9.7 5 8 5 C7.34 6.32 6.68 7.64 6 9 C2.88570788 6.19713709 1.43828546 3.90669429 0 0 Z " fill="#055BA9" transform="translate(159,98)"/>
<path d="M0 0 C3.5 1.6875 3.5 1.6875 6 4 C7.05960937 4.928125 7.05960937 4.928125 8.140625 5.875 C11.07093625 10.79989286 10.42049364 15.70260335 10.25 21.3125 C10.23195313 22.43462891 10.21390625 23.55675781 10.1953125 24.71289062 C10.14827856 27.47613447 10.08256317 30.23762698 10 33 C8.02 33 6.04 33 4 33 C3.97494385 32.34926514 3.9498877 31.69853027 3.92407227 31.02807617 C3.80806298 28.08101954 3.68535885 25.1342787 3.5625 22.1875 C3.52318359 21.16333984 3.48386719 20.13917969 3.44335938 19.08398438 C3.40146484 18.10107422 3.35957031 17.11816406 3.31640625 16.10546875 C3.27974854 15.19949951 3.24309082 14.29353027 3.20532227 13.36010742 C3.0791795 10.84951218 3.0791795 10.84951218 2 8 C-0.76838704 6.96185486 -3.55959925 6.78316372 -6.5 6.6875 C-7.62921875 6.63142578 -7.62921875 6.63142578 -8.78125 6.57421875 C-11.10005566 6.89032166 -11.10005566 6.89032166 -13.234375 8.31640625 C-16.07851725 12.63925077 -15.67929354 17.18484634 -15.75 22.25 C-15.77964844 23.28125 -15.80929688 24.3125 -15.83984375 25.375 C-15.91044778 27.91674495 -15.96319009 30.45757783 -16 33 C-17.98 33 -19.96 33 -22 33 C-22.1753878 29.14641528 -22.28121462 25.29386561 -22.375 21.4375 C-22.42527344 20.35146484 -22.47554687 19.26542969 -22.52734375 18.14648438 C-22.62357501 12.86980364 -22.68014009 9.03911275 -19.2265625 4.84765625 C-13.69336847 -0.76377964 -7.53190619 -0.81780751 0 0 Z " fill="#095EAA" transform="translate(256,281)"/>
<path d="M0 0 C1.6874269 0.00015917 3.37485866 0.00585622 5.06225586 0.01586914 C6.39189613 0.01799156 6.39189613 0.01799156 7.74839783 0.02015686 C10.59133215 0.02577324 13.43418892 0.03832848 16.27709961 0.05102539 C18.19962452 0.05603828 20.12215065 0.06060155 22.04467773 0.06469727 C26.7680151 0.07574798 31.49129419 0.09302356 36.21459961 0.11352539 C33.3807958 2.9473292 29.90831893 3.99753304 26.24194336 5.44946289 C25.44486465 5.77008698 24.64778595 6.09071106 23.82655334 6.42105103 C21.27031032 7.44837743 18.71136818 8.46876233 16.15209961 9.48852539 C13.61831762 10.50232812 11.08514267 11.5176131 8.55262756 12.53457642 C6.97733006 13.16670864 5.40123921 13.79686894 3.82420349 14.4246521 C-0.81472955 16.28086212 -5.34244464 18.27645041 -9.83665466 20.46279907 C-11.78540039 21.11352539 -11.78540039 21.11352539 -14.78540039 20.11352539 C-13.14256054 16.9661199 -11.49562991 13.82087342 -9.84790039 10.67602539 C-9.37932617 9.77819336 -8.91075195 8.88036133 -8.42797852 7.95532227 C-7.9800293 7.10131836 -7.53208008 6.24731445 -7.07055664 5.36743164 C-6.65684814 4.57667236 -6.24313965 3.78591309 -5.81689453 2.97119141 C-4.01607875 -0.27198191 -4.19075273 0.12568204 0 0 Z " fill="#E73C3B" transform="translate(270.785400390625,118.886474609375)"/>
<path d="M0 0 C2.76142665 1.01736771 3.68085371 1.36170741 5 4 C5.29079381 7.28496729 5.27782588 10.57864713 5.3125 13.875 C5.34150391 14.78636719 5.37050781 15.69773437 5.40039062 16.63671875 C5.46397402 23.31786601 5.46397402 23.31786601 3.23046875 26.6015625 C-0.22265753 28.76656987 -3.05597222 28.81628444 -7 28 C-9.5 26.1875 -9.5 26.1875 -11 24 C-11 23.01 -11 22.02 -11 21 C-8.69 21 -6.38 21 -4 21 C-4 22.32 -4 23.64 -4 25 C-3.34 24.67 -2.68 24.34 -2 24 C-1.59270772 21.67843403 -1.25561323 19.3431213 -1 17 C-1.66 17.33 -2.32 17.66 -3 18 C-6 18.1875 -6 18.1875 -9 18 C-11.67471043 15.32528957 -11.32943834 13.85194382 -11.375 10.125 C-11.40335938 9.07570313 -11.43171875 8.02640625 -11.4609375 6.9453125 C-10.40777714 0.21579633 -6.1348226 -0.65730242 0 0 Z " fill="#0B5FAA" transform="translate(234,331)"/>
<path d="M0 0 C2.76142665 1.01736771 3.68085371 1.36170741 5 4 C5.2655943 7.47324906 5.23151412 10.95522279 5.25 14.4375 C5.270625 15.40494141 5.29125 16.37238281 5.3125 17.36914062 C5.31765625 18.29791016 5.3228125 19.22667969 5.328125 20.18359375 C5.34214355 21.46061157 5.34214355 21.46061157 5.35644531 22.76342773 C4.9226443 25.4853805 4.16844049 26.35076357 2 28 C-1.04707278 28.62288228 -3.93747285 28.50857852 -7 28 C-9.5625 26.1875 -9.5625 26.1875 -11 24 C-11 23.01 -11 22.02 -11 21 C-8.69 21 -6.38 21 -4 21 C-4 22.32 -4 23.64 -4 25 C-3.34 24.67 -2.68 24.34 -2 24 C-2 22.02 -2 20.04 -2 18 C-4.31 18 -6.62 18 -9 18 C-11.630956 13.45370802 -11.67376739 9.13427807 -11 4 C-8.23047208 -0.6528069 -5.12712261 -0.54933457 0 0 Z " fill="#0F61AC" transform="translate(267,331)"/>
<path d="M0 0 C-4.82674136 9.76631564 -9.76470752 19.44559123 -15 29 C-18.96 29 -22.92 29 -27 29 C-25.46688715 23.48431813 -22.81247556 18.97965148 -19.875 14.125 C-19.17310547 12.949375 -19.17310547 12.949375 -18.45703125 11.75 C-17.30981892 9.83017528 -16.1573993 7.91369439 -15 6 C-15.99 5.67 -16.98 5.34 -18 5 C-12.62468012 -0.97257764 -7.73098025 -0.56293545 0 0 Z " fill="#075DA9" transform="translate(235,146)"/>
<path d="M0 0 C0.56847656 0.32355469 1.13695312 0.64710937 1.72265625 0.98046875 C1.17541942 4.3550959 0.66775625 6.06281875 -1.27734375 8.98046875 C-4.31640625 9.2734375 -4.31640625 9.2734375 -7.90234375 9.16796875 C-9.09085938 9.14089844 -10.279375 9.11382812 -11.50390625 9.0859375 C-12.41914063 9.05113281 -13.334375 9.01632813 -14.27734375 8.98046875 C-14.60734375 10.63046875 -14.93734375 12.28046875 -15.27734375 13.98046875 C-14.59671875 13.48546875 -13.91609375 12.99046875 -13.21484375 12.48046875 C-9.68269366 10.67681764 -7.19097384 10.75025522 -3.27734375 10.98046875 C-4.24292776 13.52609932 -5.2160318 14.92682079 -7.27734375 16.73046875 C-11.57081097 18.51941342 -15.68035843 18.40355413 -20.27734375 17.98046875 C-20.93734375 17.65046875 -21.59734375 17.32046875 -22.27734375 16.98046875 C-23.13134812 11.42944037 -21.04874286 8.30828519 -17.91015625 3.97265625 C-13.39354846 -1.53803747 -6.56346661 -2.93836155 0 0 Z " fill="#1968AF" transform="translate(228.27734375,109.01953125)"/>
<path d="M0 0 C4.62 0 9.24 0 14 0 C14 0.99 14 1.98 14 3 C11.03 3 8.06 3 5 3 C5.33 4.65 5.66 6.3 6 8 C6.33 7.67 6.66 7.34 7 7 C9.9375 6.8125 9.9375 6.8125 13 7 C15.47385671 9.47385671 15.28571102 10.97504228 15.32226562 14.36132812 C15.31904297 15.04646484 15.31582031 15.73160156 15.3125 16.4375 C15.32861328 17.11876953 15.34472656 17.80003906 15.36132812 18.50195312 C15.36414243 21.37536217 15.32520745 23.48808038 13.76171875 25.94921875 C11.54049963 27.27407007 10.0785969 27.40078597 7.5 27.375 C6.7265625 27.38273437 5.953125 27.39046875 5.15625 27.3984375 C2.47755532 26.90346131 1.58329488 26.1965075 0 24 C-0.1875 20.3125 -0.1875 20.3125 0 17 C1.98 17 3.96 17 6 17 C6.12375 17.969375 6.2475 18.93875 6.375 19.9375 C6.684375 21.4534375 6.684375 21.4534375 7 23 C7.66 23.33 8.32 23.66 9 24 C9 19.71 9 15.42 9 11 C8.01 11 7.02 11 6 11 C6 11.66 6 12.32 6 13 C4.02 13 2.04 13 0 13 C0 8.71 0 4.42 0 0 Z " fill="#085DA9" transform="translate(290,332)"/>
<path d="M0 0 C1.9453125 -0.29296875 1.9453125 -0.29296875 4.125 -0.1875 C5.40375 -0.125625 6.6825 -0.06375 8 0 C5.69 4.62 3.38 9.24 1 14 C4.13014546 13.31694673 4.13014546 13.31694673 5.31640625 10.8203125 C5.72761719 9.93085937 6.13882813 9.04140625 6.5625 8.125 C7.9196113 5.22475592 9.21733164 2.67400254 11 0 C12.9453125 -0.29296875 12.9453125 -0.29296875 15.125 -0.1875 C16.40375 -0.125625 17.6825 -0.06375 19 0 C18.06506561 1.89709988 17.12693704 3.79262578 16.1875 5.6875 C15.66542969 6.74324219 15.14335937 7.79898438 14.60546875 8.88671875 C14.07566406 9.91410156 13.54585937 10.94148438 13 12 C12.52304688 12.95003906 12.04609375 13.90007812 11.5546875 14.87890625 C10 17 10 17 8.02734375 17.453125 C7.33769531 17.38609375 6.64804688 17.3190625 5.9375 17.25 C2.21622068 16.68231058 2.21622068 16.68231058 0 18 C-1.99960012 18.039992 -4.00047242 18.04346799 -6 18 C-7.25604684 13.75227794 -6.78232288 11.73419482 -4.6875 7.875 C-4.23761719 7.02679688 -3.78773438 6.17859375 -3.32421875 5.3046875 C-2.28461819 3.49535319 -1.15751192 1.73626788 0 0 Z " fill="#095EAA" transform="translate(191,109)"/>
<path d="M0 0 C2.64 0 5.28 0 8 0 C6.60786668 3.64207493 4.99205189 7.06832672 3.1796875 10.51953125 C2.64472656 11.54111328 2.10976562 12.56269531 1.55859375 13.61523438 C1.00300781 14.67033203 0.44742188 15.72542969 -0.125 16.8125 C-0.68832031 17.88693359 -1.25164062 18.96136719 -1.83203125 20.06835938 C-3.21919818 22.71338105 -4.6085894 25.35720895 -6 28 C-8.64 28 -11.28 28 -14 28 C-12.734376 24.71782953 -11.33850162 21.60146915 -9.6875 18.49609375 C-9.25179687 17.67302734 -8.81609375 16.84996094 -8.3671875 16.00195312 C-7.91601562 15.15568359 -7.46484375 14.30941406 -7 13.4375 C-6.10383699 11.74887284 -5.20799217 10.06007676 -4.3125 8.37109375 C-3.91675781 7.62786865 -3.52101562 6.88464355 -3.11328125 6.11889648 C-2.04832588 4.09197813 -1.01638939 2.05163303 0 0 Z " fill="#085DAA" transform="translate(186,98)"/>
<path d="M0 0 C4.55555556 0.55555556 4.55555556 0.55555556 6 2 C6.09946453 3.76859193 6.13080217 5.54111451 6.1328125 7.3125 C6.13474609 8.92511719 6.13474609 8.92511719 6.13671875 10.5703125 C6.13285156 11.70210938 6.12898438 12.83390625 6.125 14 C6.12886719 15.13179688 6.13273437 16.26359375 6.13671875 17.4296875 C6.13542969 18.50476563 6.13414062 19.57984375 6.1328125 20.6875 C6.13168457 21.68136719 6.13055664 22.67523438 6.12939453 23.69921875 C6 26 6 26 5 27 C2.5625 27.1875 2.5625 27.1875 0 27 C-2.56988681 24.43011319 -2.25706775 23.41089947 -2.265625 19.84375 C-2.26820313 18.82152344 -2.27078125 17.79929687 -2.2734375 16.74609375 C-2.26183594 15.13927734 -2.26183594 15.13927734 -2.25 13.5 C-2.25773437 12.42878906 -2.26546875 11.35757812 -2.2734375 10.25390625 C-2.27085937 9.23167969 -2.26828125 8.20945312 -2.265625 7.15625 C-2.26336914 6.21587891 -2.26111328 5.27550781 -2.25878906 4.30664062 C-2 2 -2 2 0 0 Z " fill="#F0F5FA" transform="translate(287,449)"/>
<path d="M0 0 C1.32 0 2.64 0 4 0 C4 9.24 4 18.48 4 28 C1.69 28 -0.62 28 -3 28 C-3 21.4 -3 14.8 -3 8 C-4.32 8 -5.64 8 -7 8 C-6.8125 6.1875 -6.8125 6.1875 -6 4 C-3.5 2.3125 -3.5 2.3125 -1 1 C-0.67 0.67 -0.34 0.34 0 0 Z " fill="#1D6BB1" transform="translate(202,331)"/>
<path d="M0 0 C0.99 0 1.98 0 3 0 C2.87625 1.2375 2.7525 2.475 2.625 3.75 C2.55810785 5.9467173 2.55810785 5.9467173 3 8 C5.57539678 10.46746843 5.57539678 10.46746843 9 12 C10.11375 12.5775 11.2275 13.155 12.375 13.75 C13.24125 14.1625 14.1075 14.575 15 15 C14 18 14 18 12 19 C10.00039988 19.039992 7.99952758 19.04346799 6 19 C6 17.68 6 16.36 6 15 C4.22880197 15.14133499 2.45804713 15.28823208 0.6875 15.4375 C-0.29863281 15.51871094 -1.28476562 15.59992188 -2.30078125 15.68359375 C-5.09375599 15.91812559 -5.09375599 15.91812559 -8 17 C-6.3341708 10.83643195 -3.12194714 5.51740344 0 0 Z " fill="#F1F6FA" transform="translate(304,151)"/>
<path d="M0 0 C2.625 0.375 2.625 0.375 5 1 C3.33363871 5.84759649 0.67375699 11.32624301 -3 15 C-4.66617115 15.04063832 -6.33388095 15.042721 -8 15 C-7.45480292 9.18456451 -4.06320879 4.06320879 0 0 Z " fill="#F4F8FB" transform="translate(286,152)"/>
<path d="M0 0 C-1.3899131 2.77982621 -3.18658353 2.87463341 -6 4 C-6.33 4.66 -6.66 5.32 -7 6 C-9.90625 6.44921875 -9.90625 6.44921875 -13.5 6.6875 C-14.6859375 6.77386719 -15.871875 6.86023438 -17.09375 6.94921875 C-18.0528125 6.96597656 -19.011875 6.98273438 -20 7 C-20.33 6.67 -20.66 6.34 -21 6 C-22.66617115 5.95936168 -24.33388095 5.957279 -26 6 C-21.91516882 3.27677921 -17.72907412 2.48144719 -13 1.3125 C-12.08476562 1.07466797 -11.16953125 0.83683594 -10.2265625 0.59179688 C-9.34742188 0.37201172 -8.46828125 0.15222656 -7.5625 -0.07421875 C-6.35787109 -0.37718872 -6.35787109 -0.37718872 -5.12890625 -0.6862793 C-3 -1 -3 -1 0 0 Z " fill="#8EB1D3" transform="translate(340,80)"/>
<path d="M0 0 C1.32 0.33 2.64 0.66 4 1 C1.03 6.61 -1.94 12.22 -5 18 C-5.66 17.67 -6.32 17.34 -7 17 C-8 13.75 -8 13.75 -8 10 C-5.1875 7.375 -5.1875 7.375 -2 5 C-0.60180488 2.3485518 -0.60180488 2.3485518 0 0 Z " fill="#E3ECF5" transform="translate(181,101)"/>
<path d="M0 0 C-1.625 2.9375 -1.625 2.9375 -4 6 C-7.25 6.875 -7.25 6.875 -10 7 C-10.33 6.01 -10.66 5.02 -11 4 C-14.63 4 -18.26 4 -22 4 C-22 3.67 -22 3.34 -22 3 C-17.545 2.505 -17.545 2.505 -13 2 C-13 1.67 -13 1.34 -13 1 C-11.20994059 0.63779734 -9.41787943 0.28547531 -7.625 -0.0625 C-6.12839844 -0.35833984 -6.12839844 -0.35833984 -4.6015625 -0.66015625 C-2 -1 -2 -1 0 0 Z " fill="#D7E5F1" transform="translate(281,173)"/>
<path d="M0 0 C0.99 0.33 1.98 0.66 3 1 C1.68535639 5.60125265 -0.03331448 9.22421843 -3 13 C-3.99 13 -4.98 13 -6 13 C-5.34215037 9.70319035 -4.10579427 7.15882078 -2.4375 4.25 C-1.98246094 3.45078125 -1.52742187 2.6515625 -1.05859375 1.828125 C-0.53458984 0.92320313 -0.53458984 0.92320313 0 0 Z " fill="#DFEAF4" transform="translate(198,110)"/>
<path d="M0 0 C0.99 0 1.98 0 3 0 C3 3.3 3 6.6 3 10 C1.68 10 0.36 10 -1 10 C-1.02689216 8.52093108 -1.04634621 7.04172517 -1.0625 5.5625 C-1.07410156 4.73878906 -1.08570313 3.91507812 -1.09765625 3.06640625 C-1 1 -1 1 0 0 Z " fill="#DDE8F3" transform="translate(230,335)"/>
<path d="M0 0 C2.6875 -0.25 2.6875 -0.25 5 0 C4.42655063 2.86724686 4.1385485 3.8614515 2 6 C-1.0390625 6.1953125 -1.0390625 6.1953125 -4.625 6.125 C-5.81351563 6.10695313 -7.00203125 6.08890625 -8.2265625 6.0703125 C-9.14179688 6.04710938 -10.05703125 6.02390625 -11 6 C-11 5.67 -11 5.34 -11 5 C-9.1128125 4.87625 -9.1128125 4.87625 -7.1875 4.75 C-3.71988281 4.40659875 -3.71988281 4.40659875 -1.3125 1.9375 C-0.6628125 0.9784375 -0.6628125 0.9784375 0 0 Z " fill="#DAE6F2" transform="translate(167,103)"/>
<path d="M0 0 C0.33 0 0.66 0 1 0 C1 10.23 1 20.46 1 31 C0.67 31 0.34 31 0 31 C-0.66 27.37 -1.32 23.74 -2 20 C-1.34 20 -0.68 20 0 20 C0 13.4 0 6.8 0 0 Z " fill="#B1CCE4" transform="translate(326,444)"/>
<path d="M0 0 C4.29 0 8.58 0 13 0 C12.01 1.485 12.01 1.485 11 3 C8.6670386 3.04166002 6.3329614 3.04166002 4 3 C3.34 3.66 2.68 4.32 2 5 C1.01 5 0.02 5 -1 5 C-0.67 3.35 -0.34 1.7 0 0 Z " fill="#E6EEF6" transform="translate(214,118)"/>
<path d="M0 0 C0.33 0.99 0.66 1.98 1 3 C-1 6 -1 6 -3.1640625 6.51171875 C-3.97617187 6.56972656 -4.78828125 6.62773438 -5.625 6.6875 C-6.85089844 6.78611328 -6.85089844 6.78611328 -8.1015625 6.88671875 C-8.72804688 6.92410156 -9.35453125 6.96148437 -10 7 C-8 5 -8 5 -5 4 C-5.99 3.34 -6.98 2.68 -8 2 C-2.25 0 -2.25 0 0 0 Z " fill="#81ACD3" transform="translate(311,96)"/>
<path d="M0 0 C2.0625 0.4375 2.0625 0.4375 4 1 C3.67 2.65 3.34 4.3 3 6 C1.02 6.33 -0.96 6.66 -3 7 C-1.125 1.125 -1.125 1.125 0 0 Z " fill="#E5EDF6" transform="translate(161,114)"/>
<path d="M0 0 C0.99 0 1.98 0 3 0 C3 3.63 3 7.26 3 11 C2.01 11 1.02 11 0 11 C0 7.37 0 3.74 0 0 Z " fill="#F4F7FB" transform="translate(263,335)"/>
<path d="M0 0 C0.99 0.33 1.98 0.66 3 1 C1.35 4.3 -0.3 7.6 -2 11 C-2.99 11 -3.98 11 -5 11 C-3.77472971 6.94718288 -2.30119506 3.55639236 0 0 Z " fill="#E1EBF4" transform="translate(188,109)"/>
<path d="M0 0 C0.99 0.33 1.98 0.66 3 1 C2.360625 2.051875 1.72125 3.10375 1.0625 4.1875 C-0.61754452 7.10828412 -1.58996052 9.6171743 -2 13 C-3.125 11.375 -3.125 11.375 -4 9 C-3.1292439 5.44441261 -2.03663351 3.05495026 0 0 Z " fill="#DEE9F3" transform="translate(208,112)"/>
<path d="M0 0 C-3.68734758 2.45823172 -6.69699971 3.01242616 -11 4 C-11 3.34 -11 2.68 -11 2 C-11.66 1.67 -12.32 1.34 -13 1 C-8.59085217 -0.10228696 -4.51617599 -0.07654536 0 0 Z " fill="#3379B8" transform="translate(351,75)"/>
<path d="M0 0 C1 2 1 2 0.36328125 4.12890625 C0.01652344 4.93199219 -0.33023438 5.73507813 -0.6875 6.5625 C-1.02136719 7.36816406 -1.35523438 8.17382812 -1.69921875 9.00390625 C-3 11 -3 11 -5.14453125 11.77734375 C-6.06298828 11.88755859 -6.06298828 11.88755859 -7 12 C-5.61735163 9.13132769 -4.07851447 6.43975968 -2.375 3.75 C-1.92898437 3.04359375 -1.48296875 2.3371875 -1.0234375 1.609375 C-0.68570313 1.07828125 -0.34796875 0.5471875 0 0 Z " fill="#CEDEEE" transform="translate(192,146)"/>
<path d="M0 0 C0 0.99 0 1.98 0 3 C-1.98 3.33 -3.96 3.66 -6 4 C-6.33 3.01 -6.66 2.02 -7 1 C-4.53721199 -0.231394 -2.7204945 -0.07159196 0 0 Z " fill="#DEE9F3" transform="translate(330,82)"/>
<path d="M0 0 C0.33 0.99 0.66 1.98 1 3 C-1.91482778 3.80967438 -3.46113217 4.21845993 -6.3125 3.0625 C-6.869375 2.711875 -7.42625 2.36125 -8 2 C-2.25 0 -2.25 0 0 0 Z " fill="#5B93C6" transform="translate(311,96)"/>
<path d="M0 0 C0 0.66 0 1.32 0 2 C-2.97 2 -5.94 2 -9 2 C-4.13793103 -1.24137931 -4.13793103 -1.24137931 0 0 Z " fill="#E6EEF6" transform="translate(321,90)"/>
</svg>
