<svg xmlns="http://www.w3.org/2000/svg" viewBox="0 0 442.08 665.24"><!-- Source: https://football-logos.cc --><path d="M353.428 472.215c-3.62 0-12.995.353-17.939.55 9.184-10.855 19.183-12.83 38.387-14.496l32.456-.8-3.942-2.374c-.321-.195-8.128-4.768-27.05-4.768-9.61.011-19.818.232-29.886 1.58 4.493-3.615 17.16-12.549 32.982-13.012.139-.01 5.82-.493 19.29.697l.697-2.544c-.395-.19-9.794-4.647-18.119-4.647-22.452 0-46.103 11.278-60.236 18.015-5.907 2.817-11.01 5.25-12.77 5.25-.296 0-.926-.005-1.358-.082 2.214-1.875 3.092-4.157 3.13-4.269l.316-.948a3.6 3.6 0 0 0 1.013-.886l.852-.375c.966-.43 2.6-1.72 2.6-3.832 0-.46-.057-.88-.094-1.315.891-.778 2.803-3.015 2.803-8.01 0-1.731-.68-3.05-1.558-4.023 1.937-.587 3.965-1.668 3.965-3.698a2 2 0 0 0-.04-.32c2.531-.585 5.452-1.703 5.452-3.793 0-.83-.237-1.424-.565-1.882 1.61-1.223 2.877-3.112 2.877-5.94v-2.345l-2.02 1.19c-.077.045-7.58 4.426-12.461 4.426-2.088 0-4.016-.426-6.055-.876a90 90 0 0 0-2.149-.45c2.647-.83 4.902-3.193 5.402-3.747l.056-.064 4.896-7.031c.076-.118 4.344-6.59 10.588-8.466.907 1.7 2.664 2.857 4.664 2.857a5.33 5.33 0 0 0 5.325-5.326 5.3 5.3 0 0 0-1.558-3.767 5.3 5.3 0 0 0-3.767-1.56c-2.177 0-4.041 1.385-4.85 3.33l-2.07-.14c-3.861 0-7.256 2.465-9.503 4.096-.303.22-.896.655-1.284.902-.24-.177-.591-.5-.986-.952.716-1.164 3.277-5.327 3.965-6.443.272.043.531.158.813.158a5.33 5.33 0 0 0 5.327-5.324 5.3 5.3 0 0 0-1.56-3.769 5.3 5.3 0 0 0-3.767-1.56 5.334 5.334 0 0 0-5.328 5.329c0 1.101.439 2.089 1.053 2.97-3.946 4.067-6.861 6.02-7.912 6.02-1.429 0-3.098-6.05-3.308-8.588 2.048-.759 3.519-2.66 3.519-4.918a5.33 5.33 0 0 0-5.325-5.325 5.33 5.33 0 0 0-5.327 5.325c0 1.93 1.077 3.656 2.689 4.59l-4.078 8.927-.17.104h-.438c-.787-.443-3.719-3.309-7.592-7.875.578-.868.99-1.832.99-2.887a5.3 5.3 0 0 0-1.562-3.765 5.3 5.3 0 0 0-3.765-1.561 5.3 5.3 0 0 0-3.77 1.56 5.29 5.29 0 0 0-1.56 3.766 5.335 5.335 0 0 0 5.33 5.327c.207 0 .395-.106.6-.13.467 2.332 1.21 6.394 1.302 8.96-.343.191-.978.465-1.767.702-5.703-1.656-7.971-2.17-8.941-2.327-.36-2.59-2.497-4.622-5.184-4.622a5.334 5.334 0 0 0-5.328 5.327 5.333 5.333 0 0 0 5.328 5.326c.998 0 1.903-.36 2.73-.869 3.963 3.734 6.117 6.032 6.444 6.637.07.183.456 1.172.456 1.172.89 2.545 2.773 7.923 9.851 7.923h10.047c-.561.245-1.083.511-1.58.769-1.205.627-2.246 1.168-3.556 1.168h-4.311c-1.775 0-4.371 1.322-7.377 2.853-2.24 1.141-5.029 2.562-6.16 2.562-.778 0-1.25-.468-2.086-1.366-.961-1.032-2.277-2.445-4.633-2.445-3.055 0-6.46 2.9-6.46 7.06 0 1.989 1.11 3.536 3.056 4.395l-.626.184c-3.83 1.132-7.449 2.203-12.52 2.203-3.31 0-8.98-2.194-9.038-2.216l-1.48 2.151c.259.284 6.47 6.955 19.743 6.955 3.25 0 5.59-.56 7.287-1.327v2.594c-.001-.075-.36 1.905-5.024 3.552l.446 2.604c2.35 0 3.148-.125 4.293-.393l.178-.043.942-.515 1.31.392 1.638.283.111-.085.826-.204.518.432c.412.374.837.614 1.787.736l.17.022s.272-.034.347-.045l2.228.444.763.087c-.078.056-.4.28-.4.28l4.43-.098c1.362-.03 2.982-.166 4.891-.714-1.366 1.518-4.323 2.389-7.43 3.29-3.674 1.064-7.472 2.165-9.89 4.597-.025.024-.043.065-.066.091l-.256.01c-8.132.296-12.343 4.798-14.604 7.217l-.982.994-.495.014c-12.987.363-18.828 10.022-18.828 16.765 0 .029.01.055.01.084l-.92 1.566c-.454.775-.806 1.137-1.092 1.376-3.024-4.393-4.44-7.356-4.44-8.241s.431-3.865.887-7.022c.712-4.927 1.518-10.511 1.518-13.334 0-2.87-.977-5.891-2.679-8.292-1.794-2.53-4.12-3.98-6.382-3.98-2.46 0-3.922-1.227-5.47-2.525-1.345-1.127-2.736-2.292-4.658-2.292-1.597 0-3.228.847-4.315 1.557l-.453.297a17 17 0 0 0-1.299-.234l-.093-.012h-.16c-2.498 0-5.122 1.055-7.2 2.894-2.074 1.838-3.265 4.123-3.265 6.269a3.28 3.28 0 0 0 1.082 2.433l1.332 1.114.743-1.574c.084-.179 1.914-3.944 5.636-4.777l.032.324-.167.168c-1.51 1.528-4.044 4.512-4.044 7.325 0 .96.575 1.838.751 2.084l1.174 1.64 1.058-1.716c1.016-1.648 2.189-3.253 3.024-4.194.17.312.373.6.597.879-.764 1.168-1.792 3.315-1.792 6.424 0 2.1 1.15 3.655 1.282 3.825l1.865 2.423.418-2.43c.265 3.03 2.088 4.501 2.172 4.566l2.219 1.703-.062-2.796c-.068-3.091.646-6.777 1.78-7.125l.224-.068.188-.145.348-.26c.091-.062.26-.177.472-.334l.295.65c1.717-.322 2.897-1.22 3.758-1.877.386-.293.908-.69 1.112-.697.003.074.68.915.68 4.868 0 2.426-.942 7.709-1.938 13.303-1.349 7.577-2.878 16.164-2.878 21.701 0 9.036 4.418 10.761 9.096 12.588 2.402.937 4.885 1.907 7.124 3.983 2.226 2.063 3.332 4.357 4.4 6.574 1.98 4.103 3.848 7.979 11.909 7.979 5.312 0 12.564-2.949 15.796-4.392-3.983 6.463-8.16 11.361-9.755 11.361-2.567 0-8.655-4.657-14.544-9.163-4.475-3.423-9.103-6.964-13.56-9.676-1.14-.695-2.457-1.064-3.618-1.39l-1.945-.642-1.686-1.071c-.817-.62-1.661-1.26-3.118-1.26-1.227 0-2.352.387-3.254 1.118l-.294.238a7.4 7.4 0 0 0-1.228-.116c-5.78 0-10.14 4.424-10.14 10.29v4.74l2.484-4.038c1.24-2.017 3.79-5.002 5.324-5.002h.074c-2.494 1.66-4.197 4.408-4.197 7.384 0 1.218.94 2.114 1.128 2.282l1.444 1.283.698-1.803c.81-2.1 2.604-5.009 3.863-5.009h.654l.888 1.35c-1.898 1.876-3.11 4.692-3.11 7.84 0 2.364 1.648 3.807 1.835 3.964l2.2 1.838v-2.867c0-3.84 1.34-5.522 2.898-6.602l1.283.975c-1.045 1.557-1.746 3.341-1.746 4.95 0 2.007 1.562 4.968 1.74 5.298l2.51-.808-.215-2.835c0-1.99 1.13-3.074 2.487-4.053l.389.122c1.13.353 2.216.532 3.228.532h5.266c1.018.167 5.009 3.71 8.217 6.555 7.847 6.964 17.613 15.63 24.653 15.63 4.45 0 7.206-3.544 7.206-6.829v-1.348c1.36-.994 4.958-3.648 7.918-6.03-1.137 2.69-1.725 5.413-1.725 8.13 0 7.761 6.746 9.785 12.699 11.572 6.02 1.807 11.218 3.366 11.218 9.638 0 4.806-4.002 12.499-9.066 13.861l.164-2.578c0-6.273-2.698-13.751-15.554-13.751-8.144 0-14.229 2.754-17.935 5.095l-.02-.038-.72.506-.42.268.01.019-.126.09c-5.662 3.981-9.326 9.413-9.56 14.174l-.002.03h-.041l.017.481-.044.875.076.001.002.05c.222 6.162 2.641 12.28 6.995 17.693l.918 1.14.019-.017a41 41 0 0 0 3.193 3.29l.079.073.092.06c.249.165 1.568.984 4.03 1.742l-.562 1.127a44.6 44.6 0 0 0 7.077 4.294c3.99 1.932 7.853 2.986 11.26 3.915 5.41 1.476 8.234 2.357 8.234 4.763 0 1.625-2.984 6.633-6.631 6.633-1.138 0-3.288-.84-4.377-1.37l-4.414-2.149 2.709 4.094c.703 1.063 7.048 10.377 13.302 10.377 4.56 0 11.007-3.09 12.89-5.526a16.7 16.7 0 0 0 2.442-4.44c.374.412.743.911 1.154 1.475 2.563 3.5 6.436 8.792 22.323 8.792 20.241 0 27.492-9.765 27.792-10.181l-1.695-1.98c-.048.025-4.805 2.41-8.271 2.41-4.236 0-8.193-4.783-12.025-9.41-2.985-3.606-5.805-7.014-8.992-8.644-.286-.148-.695-.24-1.131-.304 1.482-2.02 2.431-5.162 2.431-8.507 0-5.38-1.461-9.134-1.524-9.291l-2.586.476c-.01.445-.386 10.863-17.313 10.863-2.911 0-4.941-.96-6.283-1.968 2.233-.6 5.836-1.753 9.982-3.804l.017-.009.007.013.515-.27.707-.35-.01-.017c3.384-1.78 6.496-3.868 9.254-6.208 1.769-1.503 3.519-3.412 5.198-5.673l.092-.125.019.01.376-.54.427-.574-.023-.013c3.175-4.593 5.882-10.248 7.63-15.95l.014.004.19-.666.19-.626-.013-.004.002-.009c1.23-4.372 1.854-8.552 1.854-12.425 0-3.392-.443-6.553-1.358-9.662l.028-.008-.217-.637-.191-.654-.028.008-.016-.048c-.993-2.917-2.24-5.315-3.342-7.43-1.422-2.728-2.545-4.884-2.545-6.99 0-.352.42-.845 1.067-1.258l1.36-.865.215.03.268.044.263-.066c.831-.204 1.69-.308 2.554-.308 8.74 0 17.617 12.174 17.617 20.925v1.34h1.34c1.988 0 4.877-2.925 4.877-7.508 0-9.878-10.401-25.711-27.409-29.77 2.03-1.485 6.025-3.765 11.424-3.765 18.096 0 41.493 10.313 41.728 10.417l3.9 1.494-.817-2.635c-.07-.228-.734-2.281-2.148-3.691-.76-.688-17.77-15.696-51.516-15.926 2.519-1.99 7.262-4.798 14.017-4.798 10.708 0 29.17 4.033 30.091 4.236l15.313 5.585-2.18-3.364c-.21-.322-5.228-7.903-13.114-10.358-.125-.048-19.05-6.963-39.026-7.125 8.537-8.827 13.234-9.003 28.549-9.559l8.112-.328c10.184.001 30.491 2.208 30.697 2.23l.596-2.595c-.871-.312-21.446-7.63-31.355-7.63-.485-.039-14.158-1.003-19.358-1.003zM275.08 404.93a104 104 0 0 0-3.413-3.405c1.498.373 3.626.953 5.91 1.612a28 28 0 0 0-2.497 1.793m29.801 4.177c-.201-.117-.423-.234-.638-.35.19-.124.361-.269.526-.42-.002.052-.011.104-.011.158 0 .217.091.404.123.612m-19.8-3.05a.57.57 0 1 1 .007-1.14.57.57 0 0 1-.006 1.14zm2.86-3.493a27 27 0 0 1 2.524-.466 4.05 4.05 0 0 0-.6 2.109c0 .746.215 1.437.565 2.04q-.709.09-1.385.217c.078-.315.13-.64.13-.978a4.08 4.08 0 0 0-1.235-2.922zm14.065 3.344a.57.57 0 1 1 .002-1.14.57.57 0 0 1-.002 1.14m-3.975-1.507c.005-.066.021-.128.021-.194 0-.814-.245-1.568-.657-2.205q1.001.102 1.937.26a4.08 4.08 0 0 0-1.3 2.14zm-4.072.377a.571.571 0 0 1 0-1.14.57.57 0 0 1 0 1.14m3.974.366c-.004.066-.02.128-.02.194 0 .419.081.815.199 1.194a25 25 0 0 0-.709-.132c.242-.381.422-.804.53-1.256m7.988-.94c.44.19.86.384 1.251.577a4.2 4.2 0 0 0-1.09.733c.001-.06.018-.117.018-.177 0-.39-.074-.767-.18-1.133zm2.996 4.843-.067.019a.573.573 0 0 1-.568-.57.57.57 0 0 1 .168-.404.56.56 0 0 1 .4-.167c.274 0 .471.208.526.464-.18.257-.284.408-.46.658zm3.018-6.085c.69 0 1.388-.385 2.185-.917a32 32 0 0 0-1.555 1.824 27 27 0 0 0-1.983-1.254c.438.211.891.347 1.353.347m-17.5-4.748s1.69-3.707 3.045-6.674c.913 3.684 2.664 7.736 6.03 7.736.47 0 1.513-.04 3.418-1.148l-.257.42.657.947c.654.938 1.78 2.308 3.07 3.01-3.301-1.885-8.792-4.196-16.063-4.196-.023 0-.043.005-.067.005l.166-.1zm-5.295.554a31 31 0 0 0-4.579 1.096c.001-.035.03-.058.03-.094 0-1.604-.275-3.773-.612-5.868 2.586 2.828 4.168 4.22 5.161 4.866m-8.123 6.437q-.003.03-.006.058l-.05-.03zm-2.175 4.012a.575.575 0 0 1-.572-.572c0-.203.105-.34.168-.401a.568.568 0 0 1 .973.401.57.57 0 0 1-.569.572m1.925 4.664c2.082-1.55 6.61-4.302 12.665-4.302 5.837 0 9.813 2.438 11.778 4.004-1.147.904-2.213 1.425-2.977 1.425h-17.599c-1.613 0-2.87-.366-3.867-1.127m-17.48 166.135c.008-.003.017-.002.025-.005a3 3 0 0 0-.178.067z" style="fill:#000;fill-rule:evenodd" transform="translate(-74.957 -87.377)" data-source="https://football-logos.cc"></path><path d="M284.832 435.248c0-1.506-.3-2.911-7.218-2.911-13.841 0-18.051 4.916-29.185 4.916-3.608 0-9.526-2.307-9.526-2.307s5.918 6.517 18.75 6.517c9.229 0 10.333-4.712 10.333-4.712l.401-1.004s2.103 1.905 4.513 1.905c2.406 0 2.906-2.706 2.906-2.706s1.205 2.706 2.707 2.706c1.505 0 3.413-2.608 3.413-2.608l2.004 2.007s.902-.801.902-1.804zm1.382-7.44a.944.944 0 0 0-.945.945c0 .361.209.673.51.833q.26.048.507.1a.94.94 0 0 0-.072-1.877zm-79.623 18.142c0-.912-2.471-1.63-4.229-1.88h-.065c-4.662 0-9.124 4.214-9.124 7.824 0 .901.6 1.405.6 1.405s2.658-5.72 8.325-5.72c2.35-.28 4.493-.961 4.493-1.628zm-3.49 6.644c3.82-.437 6.498-1.353 6.498-1.867 0-.462-1.637-1.234-3.377-1.234-1.82 0-4.747 1.018-4.779 1.031-1.207 1.222-3.657 4.002-3.657 6.383 0 .604.501 1.305.501 1.305s3.458-5.613 4.814-5.618m3.009 5.416.002.024c2.888-1.632 5.256-3.406 5.256-3.96 0-.213 0-.707-1.422-.707-1.917 0-5.309 2.465-5.557 2.646-.637.876-1.79 2.887-1.79 6.011 0 1.703 1.003 3.007 1.003 3.007s1.204-7.02 2.508-7.02z" style="fill:#e4e420;fill-rule:evenodd" transform="translate(-74.957 -87.377)"></path><path d="M210.54 460.91v-.006l.347-.261c1.131-.752 2.924-2.324 2.924-3.333 0-.186 0-.333-.933-.333-2.402 0-4.962 2.222-5.706 2.917-.19.4-1.062 2.378-1.062 5.236 0 2.908 1.701 4.214 1.701 4.214s-.175-7.545 2.728-8.435zm69.152 71.244c-.044-.051-.63-.733-.7-.809-.03-.033-.454-.444-.925-.908h-3.163c-3.763 0-8.914-1.87-11.477-4.939-.762 1.283-7.962 13.267-11.664 13.267-5.039 0-17.824-12.356-28.8-19.034-1.681-1.024-3.962-1.273-5.436-1.964-2.086-.982-2.542-2.204-4.236-2.204-1.007 0-1.804.327-2.41.818 1.306.475 2.313 1.324 2.313 2.378 0 .65-.438 1.2-1.178 1.588 1.762.148 3.887 1.06 3.887 2.472 0 1.61-3.769 2.135-4.795 2.249a17 17 0 0 0 .934 1.42c1.234-.899 2.675-1.428 4.219-1.428 1.471 0 2.348.812 2.348 1.594 0 1.633-1.37 2.37-2.695 3.083-.18.097-.368.2-.554.303q.822.689 1.685 1.279c1.367-1.626 3.078-2.796 4.559-2.796 1.332 0 2.194.683 2.194 1.743 0 1.456-1.169 2.368-2.392 3.215.976.305 1.935.471 2.828.471h5.266c3.61 0 22.49 22.186 32.87 22.186 3.685 0 5.866-2.854 5.866-5.489v-2.03s8.987-6.508 11.809-9.326c.112-.114.267-.29.455-.51v-1.647c0-.812.352-1.71.487-2.027.016-.053.13-.451.261-.922z" style="fill:#e4e420;fill-rule:evenodd" transform="translate(-74.957 -87.377)"></path><path d="M221.604 529.364c.675 0 1.35.226 1.35.902 0 2.708-6.164 3.162-6.164 8.426 0 1.276.227 3.008.227 3.008s-1.58-2.935-1.58-4.664c0-3.384 3.759-7.672 6.167-7.672m-5.344-3.458c.981 0 1.509.448 1.509.748 0 3.085-7.449 1.732-7.449 11.06 0 0-1.353-1.13-1.353-2.935 0-4.964 3.384-8.873 7.294-8.873zm-4.735-4.74c1.58 0 3.535.825 3.535 1.653 0 .752-3.611 1.43-4.213 1.43h-1.654c-2.858 0-5.114 5.866-5.114 5.866s-.677-.601-.677-1.279c0-3.986 3.684-7.67 8.123-7.67m-3.01-4.363c1.956 0 3.836.979 3.836 1.956 0 .676-1.277 1.353-3.31 1.353h-2.857c-3.01 0-6.467 5.64-6.467 5.64 0-4.886 3.532-8.95 8.798-8.95zM345.026 639.25c-8.29 0-14.506-14.561-21.628-18.201-.804-.415-2.45-.167-2.45-.167h-.663c-8.606 0-17.56 4.57-17.65 4.618l-.587.303-.606-1.176.587-.303c.377-.194 9.322-4.762 18.256-4.762h.663s.2.05.302-.047c1.665-1.629 2.72-5.032 2.72-8.471 0-5.186-1.431-8.798-1.431-8.798s-.074 12.187-18.652 12.187c-4.168 0-6.752-1.81-8.017-3.013l.023.023c-.319.122-4.715 1.797-10.157 3.284 6.03 5.748 29.067 21.946 51.605 25.65l-.217 1.308c-22.561-3.71-47.189-20.544-52.886-26.56-4.086 1.047-8.584 1.91-12.318 1.91-4.306 0-7.576-.622-9.89-1.31a43.4 43.4 0 0 0 6.863 4.164c10.195 4.936 20.25 4.169 20.25 9.885 0 2.334-3.532 7.974-7.972 7.974-1.878 0-4.963-1.506-4.963-1.506s6.47 9.776 12.183 9.776c4.064 0 10.194-2.89 11.83-5.005 2.237-2.895 2.761-5.823 2.761-5.823 4.44 1.806 3.161 11.13 24.22 11.13 19.785 0 26.701-9.624 26.701-9.624s-5.039 2.554-8.877 2.554m-93.471-47.552-3.748-.052c.23 6.384 2.859 12.125 6.7 16.9q.067-.068.195-.188c1.355-1.862 3.47-5.168 3.47-7.692 0-6.014-5.749-8.61-6.617-8.968" style="fill:#e4e420;fill-rule:evenodd" transform="translate(-74.957 -87.377)"></path><path d="m306.991 606.118-.252-.464c-.93-.294-4.357-1.318-6.764-1.318-9.614 0-13.986 6.004-15.562 8.985.048.047.083.09.1.106.05.067.121.144.182.217a112 112 0 0 0 10.24-3.274s5.37-.944 12.056-4.252m-24.169 7.472c-2.093-2.052-8.765-8.002-15.59-8.002-6.929 0-10.572 2.794-11.54 3.66q-.15.206-.284.38a40 40 0 0 0 3.093 3.186c.019.011 4.262 2.897 13.419 2.897 3.237 0 7.053-.666 10.638-1.526.063-.156.15-.35.264-.594zm-31.382-23.214c1.93-1.72 6.357-6.296 6.357-9.342 0-1.51-.482-2.845-1.006-3.855-5.489 3.86-8.788 8.986-8.993 13.144zm67.02-3.021c0 1.926 2.802 4.411 3.917 5.237l.6.336c3.114-4.47 5.788-10.002 7.536-15.707l-.564-.17c-1.332.265-11.488 2.526-11.488 10.303zm11.813-11.588.614.181c1.145-4.07 1.806-8.195 1.806-12.06 0-3.618-.531-6.664-1.31-9.306l-1.237.354c-.698.563-5.441 4.64-5.441 10.755 0 5.99 4.91 9.619 5.568 10.076" style="fill:#e4e420;fill-rule:evenodd" transform="translate(-74.957 -87.377)"></path><path d="M327.178 522.094c-.101.095-.17.161-.175.168l-.45.462-.642-.066c-24.794-2.58-41.334 13.556-43.136 15.403l-2.275 2.325v-.03c-2.183 3.532-3.39 7.298-3.39 11.045 0 13.691 23.918 6.844 23.918 21.21 0 5.377-4.576 14.572-10.998 15.425-2.314 2.585-6.203 5.547-11.867 5.547-4.001 0-6.459-.888-7.05-1.132h-1.148v-1.323h1.048c1.133-.917 3.558-3.226 3.558-4.903 0-2.393-1.627-5.956-6.11-5.956-1.747 0-4.722 1.005-4.749 1.018a.663.663 0 0 1-.428-1.253c.13-.046 3.21-1.089 5.177-1.089 5.452 0 7.433 4.353 7.433 7.28 0 2.012-2.07 4.182-3.331 5.317 1.09.31 2.995.717 5.6.717 5.356 0 8.988-2.907 11.089-5.335a25 25 0 0 0 .193-3.03c0-10.606-7.973-12.41-14.214-12.41-6.814 0-12.74 2.029-17.328 4.952.627 1.172 1.216 2.758 1.216 4.598 0 3.576-4.446 8.128-6.256 9.83 2.025 1.052 6.633 4.078 6.633 9.802 0 1.836-.904 3.933-1.932 5.73 2.081-1.072 5.25-2.129 9.668-2.129 7.082 0 13.72 5.67 16.232 8.095 1.909-3.328 6.71-9.348 16.511-9.348 2.247 0 5.187.784 6.602 1.204.44-7.594 6.406-12.109 12.205-12.109.342 0 .711.019 1.078.053-1.26-1.228-2.72-3.027-2.72-4.808 0-7.51 8.034-10.427 11.336-11.31-1.806-1.541-5.094-5.075-5.094-10.353 0-5.084 2.863-8.79 4.65-10.616-5.05.182-8.666-.71-10.915-2.783-1.524-1.403-2.397-3.336-2.663-5.857-1.219-.56-5.632-2.495-7.935-2.495-6.978 0-12.39 8.84-12.444 8.933l-1.132-.687c.231-.388 5.843-9.568 13.576-9.568 2.263 0 6.056 1.539 7.848 2.325-.002-.08-.01-.157-.01-.236 0-5.695 4.94-9.99 11.494-9.99 1.027 0 2.311.165 3.364.332a12 12 0 0 1 2.875-.347c9.78 0 18.957 13.012 18.957 22.265 1.129 0 3.535-2.256 3.535-6.168 0-9.716-10.666-25.255-27.403-28.705z" style="fill:#e4e420;fill-rule:evenodd" transform="translate(-74.957 -87.377)"></path><path d="M326.71 536.077a13 13 0 0 0-.86-.034c-5.798 0-10.17 3.724-10.17 8.664 0 3.045.744 5.144 2.335 6.613 2.194 2.02 6.136 2.813 11.708 2.359l1.256-.361c-2.258-6.643-5.955-10.622-5.955-14.853 0-.877.637-1.72 1.686-2.388m-4.513 57.929-.413-.23c-.395-.078-1.903-.345-3.002-.345-5.33 0-10.837 4.306-10.916 11.52l.301.566c2.92-1.535 6.04-3.514 9.04-6.06 1.72-1.46 3.406-3.317 4.99-5.45zm-30.993-189.799a2.76 2.76 0 0 0 2.755 2.754 2.757 2.757 0 0 0 2.752-2.754 2.756 2.756 0 0 0-2.752-2.752 2.756 2.756 0 0 0-2.755 2.752m.843 0c0-1.053.86-1.911 1.912-1.911a1.912 1.912 0 0 1 0 3.822 1.914 1.914 0 0 1-1.912-1.911m-9.717 1.279a2.754 2.754 0 0 0 5.506 0 2.756 2.756 0 0 0-2.754-2.752 2.757 2.757 0 0 0-2.753 2.752zm.844 0c0-1.052.857-1.91 1.908-1.91 1.054 0 1.912.858 1.912 1.91a1.914 1.914 0 0 1-1.912 1.911 1.91 1.91 0 0 1-1.908-1.91zm16.08-.149a2.753 2.753 0 1 0 2.753-2.754 2.757 2.757 0 0 0-2.753 2.755zm.843 0a1.91 1.91 0 0 1 3.82 0 1.915 1.915 0 0 1-1.91 1.911 1.91 1.91 0 0 1-1.91-1.91z" style="fill:#e4e420;fill-rule:evenodd" transform="translate(-74.957 -87.377)"></path><path d="M329.612 392.475c-2 0-3.65 1.473-3.937 3.391-1.005-.11-2.115-.202-2.984-.202-3.429 0-6.613 2.315-8.72 3.845-.815.597-1.743 1.27-2.036 1.27-.681 0-1.898-1.285-2.653-2.307.21-.34 3.33-5.407 4.932-8.015a3.987 3.987 0 1 0-2.506-3.696c0 1.25.58 2.367 1.486 3.098-2.656 2.838-7.28 7.234-9.684 7.234-3.226 0-4.67-9.011-4.69-10.373l.118-.528a3.983 3.983 0 0 0-.542-7.931 3.985 3.985 0 0 0-.847 7.88c-1.68 3.67-4.745 10.386-4.821 10.553-.16.097-.697.425-.844.513h-1.046c-.899 0-5.22-4.553-9.045-9.131a3.98 3.98 0 0 0-2.65-6.958 3.99 3.99 0 0 0-3.99 3.986 3.99 3.99 0 0 0 3.99 3.987c.586 0 1.142-.13 1.646-.36.455 2.146 1.618 7.95 1.618 11.039 0 .41-1.477 1.156-3.117 1.591-1.247-.364-8.438-2.463-9.7-2.463h-.497c.027-.184.046-.367.046-.557a3.986 3.986 0 1 0-1.104 2.753c2.731 2.546 6.869 6.532 7.499 7.746l.498 1.281c.865 2.47 2.473 7.068 8.602 7.068h17.599c2.936 0 6.051-3.454 6.18-3.598l4.845-6.96c.06-.1 5.092-7.83 12.454-9.341a3.986 3.986 0 1 0 3.9-4.815m-27.38 23.874h-17.598c-2.97 0-4.736-1.133-5.878-2.58 1.23-1.093 6.714-5.531 14.676-5.531 7.837 0 12.663 4.206 13.82 5.34-.954.92-3.099 2.77-5.02 2.77zm8.502-7.563-.963 1.38c-.28.155-.596.24-.921.24a1.913 1.913 0 0 1-1.908-1.91c0-1.054.857-1.911 1.908-1.911 1.055 0 1.912.857 1.912 1.91zm.744-1.071a2.75 2.75 0 0 0-2.628-1.975 2.755 2.755 0 0 0 0 5.509c.06 0 .118-.007.178-.01l-1.199 1.72c-1.276-1.268-6.201-5.562-14.397-5.562s-13.73 4.397-15.17 5.68c-.463-.735-.792-1.51-1.072-2.242a2.73 2.73 0 0 0 1.652.563 2.752 2.752 0 0 0 0-5.504 2.75 2.75 0 0 0-2.708 2.31 9 9 0 0 0-.594-.78c1.346-1.28 7.906-6.932 18.795-6.932 10.755 0 17.452 5.462 18.03 5.95zm-34.55.93c0-1.051.86-1.91 1.914-1.91a1.912 1.912 0 1 1-1.913 1.911zm35.912-2.905c-.984-.808-7.801-6.09-18.505-6.09-11.08 0-17.83 5.71-19.346 7.138-1.724-1.926-4.651-4.705-6.442-6.367q.2-.324.335-.679h.708c.895 0 6.22 1.472 9.583 2.463l.109.035.116-.031c.902-.229 3.852-1.09 3.852-2.439 0-2.868-.934-7.817-1.465-10.39 2.606 3.073 7.549 8.667 9.053 8.667h1.284l1.264-.766s3.023-6.616 4.636-10.155c.25 2.051 1.56 10.81 5.488 10.81 2.377 0 6.146-3.3 8.741-5.892l-3.978 6.46.156.23c.338.482 2.079 2.888 3.506 2.888.543 0 1.24-.49 2.533-1.43 2.018-1.468 5.064-3.686 8.223-3.686.615 0 1.372.053 2.118.122-6.385 1.642-10.826 7.474-11.969 9.112m67.464 28.002c-32.19 0-66.388 23.264-73.006 23.264-1.255 0-3.11 0-3.11-1.702 2.708-1.704 3.611-4.412 3.611-4.412s-1.105-.05-1.105-.404c0-4.99-3.034-6.315-1.805-6.315 3.36 1.251 2.757 5.463 2.757 5.463s2.16-.3 2.16-2.154c0-3.853-3.263-6.871-3.263-6.871s.353-.651.656-.651c3.97 3.974 3.507 7.921 3.507 7.921s1.806-.802 1.806-2.607c0-5.942-3.611-9.627-3.611-9.627l.3-.7c3.94 3.936 3.41 8.221 3.41 8.221s2.608-1.656 2.608-7.22c0-3.611-3.612-4.714-3.612-4.714s6.018-.552 6.018-3.007c0-.326-.6-1.304-.6-1.304s6.015-.98 6.015-2.809c0-.776-.275-1.504-1-1.504 0 0-1.205.602-2.007.602-.803 0-1.404-.402-1.404-.402s6.72-.5 6.72-6.517c0 0-7.826 4.612-13.14 4.612-4.61 0-8.322-1.905-13.538-1.905-4.012 0-5.713 2.808-9.126 2.808h-4.312c-2.906 0-10.63 5.415-13.536 5.415-2.91 0-3.31-3.812-6.719-3.812-2.21 0-5.119 2.208-5.119 5.72 0 2.063 1.671 3.344 4.2 3.702 3.652-.992 7.754-1.82 13.555-1.82 6.306 0 8.54 1.109 8.54 4.235 0 1.55-1.206 2.67-1.345 2.794l-.933.829s-1.374-1.379-1.868-1.87c-.878.925-2.159 1.976-3.496 1.976-1.054 0-1.918-.646-2.573-1.391-.675.777-1.663 1.391-3.039 1.391-1.53 0-2.916-.604-3.908-1.19-.352.74-1.127 1.915-2.712 2.942v3.342s-.097 2.76-5.918 4.815c2.282 0 2.971-.121 3.988-.36l1.107-.606.545-.38c.023-.017 2.548-1.82 2.548-4.07v-.663h1.323v.663c0 2.317-1.846 4.12-2.697 4.828.487.106.425.22 1.337.266l.662-.164.55-.366c.03-.023 3.114-2.102 3.114-4.64v-.661h1.32v.66c0 2.697-2.434 4.797-3.355 5.493.426.263.328.484 1.332.613l.568-.073.579-.318c.026-.016 2.64-1.492 2.64-4.209v-.663h1.324v.663c0 2.587-1.732 4.235-2.699 4.952.733.12.377.14 1.353.19l1.286-.287.633-.197c.116-.038 2.842-.939 2.842-4.508v-.662h1.323v.662c0 2.653-1.299 4.28-2.513 5.129 1.763-.04 3.698-.241 6.036-1.15.182-.184.35-.39.459-.574.502-.877.373-2.164.304-2.635l-.3-.301a.66.66 0 0 1 0-.937.66.66 0 0 1 .932 0l.34.34c.298.086 1.06.292 1.9.292 2.76 0 5.678-4.203 6.567-5.825a.66.66 0 0 1 .898-.257.66.66 0 0 1 .263.898c-.147.264-3.622 6.508-7.728 6.508a7.5 7.5 0 0 1-1.494-.162c.006.11.012.219.012.337 0 .734-.111 1.641-.549 2.404a.66.66 0 0 1-.618.323c-.841 6.094-13.505 5.207-18.47 10.199-.216.212.022.35.12.832.009.045-2.407 3.845-2.407 7.141 0 3.975 1.454 8.242 1.47 8.285a.663.663 0 0 1-1.253.432c-.063-.182-1.538-4.516-1.538-8.717 0-3.09 1.759-6.393 2.385-7.48-9.17.336-13.057 6.48-14.783 7.909a.66.66 0 0 1 .025.57c-.795 1.789-2.852 6.862-2.852 8.78 0 3.792 2.338 7.106 2.36 7.138a.662.662 0 0 1-1.079.771c-.103-.149-2.606-3.682-2.606-7.909 0-2.317 2.277-7.722 2.842-9.032-12.547.35-17.525 9.67-17.525 15.425 0 6.92 6.699 12.788 10.608 12.788v1.324c-4.126 0-10.438-5.192-11.702-11.783-.774 1.32-1.486 1.91-1.988 2.174l.21.212-.467.466c-1.897 1.898-4.495 4.496-4.495 10.615 0 10.772 9.514 19.871 20.774 19.871h3.67v1.324h-3.67c-11.978 0-22.096-9.705-22.096-21.195 0-6.667 2.935-9.606 4.881-11.552l.079-.08c-1.22-1.75-4.926-7.243-4.926-9.38 0-2.356 2.404-15.69 2.404-20.355 0-5.466-3.91-10.932-7.72-10.932-5.265 0-6.87-4.816-10.128-4.816-1.335 0-2.814.836-3.582 1.338 1.221.425 2.4 1.105 2.4 2.149 0 1.674-4.022 2.346-5.531 2.54-.01.377.043.738.098 1 1.04-.33 2.858-.84 4.22-.84 1.724 0 4.218.74 4.218 2.076 0 1.597-4.781 2.373-7.14 2.656.262.762.673 1.31 1 1.66 1.062-.737 3.816-2.518 5.645-2.518 1.872 0 2.264.842 2.264 1.548 0 1.373-4 3.761-5.909 4.823.074.163.167.3.264.414.775-.738 3.548-3.175 6.314-3.175.575 0 1.774 0 1.774 1.175 0 1.256-1.454 2.624-2.44 3.406 2.598-.487 3.71-2.604 5.128-2.604 1.304 0 2.008 2.105 2.008 6.215 0 5.819-4.815 25.373-4.815 35.004 0 12.53 8.9 9.2 15.791 15.588 6.648 6.164 4.067 14.195 15.398 14.195 6.345 0 16.001-4.605 16.791-4.989-.422-.817-.664-1.696-.664-2.631 0-.477.059-1.112.139-1.746-.975-.003-1.62.006-1.78.016l-.116.018h-.053c-6.45 0-10.954-5.556-10.954-13.508 0-6.666 4.332-14.295 11.888-20.93 16.1-14.149 54.978-28.459 81.19-32.952h.016c.252-.041.506-.074.757-.115 1.973-1.776 16.38-14.165 35.461-14.723 0 0 5.642-.517 19.446.702 0 0-9.422-4.514-17.539-4.514m-88.57-6.364c-.107.014-1.959.237-3.508.359.158.306.254.646.254 1.016 0 .528-.191 1.008-.496 1.392 2.265.762 3.727 1.975 3.727 3.948 0 4.035-4.088 7.302-4.26 7.44l-.521.41-.823-1.039.524-.411c.036-.03 3.758-3.011 3.758-6.4 0-1.587-1.688-2.516-4.163-3.076h-.012a2.3 2.3 0 0 1-.893-.18c-3.032-.546-6.964-.649-10.467-.742-3.772-.101-7.335-.197-9.545-.779l-.64-.167.337-1.28.64.17c2.06.542 5.552.634 9.244.733 3.082.08 6.322.167 9.131.532a2.3 2.3 0 0 1-.076-.551c0-.5.168-.957.442-1.333-1.64-.513-2.869-1.359-2.941-1.408l-.543-.381.756-1.082.542.376c.026.018 2.275 1.561 4.536 1.561 1.35 0 4.801-.417 4.835-.421l.659-.08.158 1.313zm2.962 11.816-.392.538-1.069-.777.389-.538c.015-.02 1.479-2.062 1.479-3.923 0-2.04-1.302-3.738-1.313-3.754l-.408-.522 1.04-.815.409.522c.067.08 1.593 2.063 1.593 4.569 0 2.295-1.658 4.603-1.728 4.7m2.179 24.794a4.82 4.82 0 0 1-4.817-4.819 4.78 4.78 0 0 1 1.429-3.426l.932.942a3.46 3.46 0 0 0-1.039 2.484 3.497 3.497 0 0 0 5.801 2.624l.874.997a4.82 4.82 0 0 1-3.18 1.198m3.89-3.723a5.07 5.07 0 0 1-5.06-5.062c0-1.226.443-2.411 1.25-3.332l.996.871a3.72 3.72 0 0 0-.926 2.46 3.743 3.743 0 0 0 6.1 2.9l.834 1.029a5.08 5.08 0 0 1-3.194 1.134" style="fill:#e4e420;fill-rule:evenodd" transform="translate(-74.957 -87.377)"></path><path d="M375.34 451.667c-11.03.013-22.146.303-32.95 2.031-27.224 4.664-65.127 19.093-80.54 32.64-7.622 6.696-11.44 13.958-11.44 19.936 0 7.696 4.4 12.182 9.629 12.182 2.554 0 3.08-.862 3.08-3.233 0-3.235-3.42-3.122-3.42-7.872 0-10.48 37.269-33.043 72.844-33.043 10.306-13.691 21.286-15.646 41.217-17.374l27.94-.69s-7.593-4.577-26.36-4.577" style="fill:#e4e420;fill-rule:evenodd" transform="translate(-74.957 -87.377)"></path><path d="M372.786 474.558s-14.145-1.003-19.358-1.003c-3.69 0-13.609.376-19.089.597-.247.312-.492.625-.736.952l-.4.525h-.66c-15.579 0-33.498 4.54-49.165 12.453-14.675 7.41-22.356 15.303-22.356 19.269 0 2.096.75 2.93 1.617 3.895.805.894 1.805 2.008 1.805 3.977 0 1.306-.167 2.559-.964 3.42-.12.753-.307 2.087-.307 2.85 0 4.309 7.018 7.621 11.73 7.621h1.807s-2.207-2.109-2.207-5.315c0-15.847 24.07-32.494 50.544-32.494 5.009 0 7.609.402 8.724.402 11.331-12.336 15.846-10.73 39.015-11.834 10.44 0 30.904 2.237 30.904 2.237s-21.116-7.552-30.904-7.552" style="fill:#e4e420;fill-rule:evenodd" transform="translate(-74.957 -87.377)"></path><path d="M374.813 499.505s-19.104-7.073-39.335-7.073h-.575c-.053.06-.104.113-.157.17l-.347.465-2.293-.14c-1.478-.117-3.708-.297-7.06-.297-12.173 0-24.738 3.676-34.471 10.084-9.236 6.084-14.747 13.964-14.747 21.085 0 2.573 1.785 4.344 1.802 4.364l2.33 2.274.763.882.975 1.279c3.159-15.267 18.575-24.597 46.256-24.597 0 0 5.946-7.216 17.148-7.216 11.207 0 30.464 4.286 30.464 4.286 4.625 1.564 11.638 4.244 11.638 4.244s-4.874-7.47-12.39-9.81z" style="fill:#e4e420;fill-rule:evenodd" transform="translate(-74.957 -87.377)"></path><path d="M381.655 523.799s-17.196-15.545-51.341-15.545c-.263 0-.52.003-.78.007-.36.351-.55.575-.56.587l-.399.479h-.62c-25.851 0-41.819 8.36-44.961 23.541l-.752 2.672s-.418.938-.418 1.596c2.774-2.845 19.657-18.35 44.227-15.795 0 0 5.217-5.417 13.888-5.417 18.6 0 42.273 10.533 42.273 10.533l1.258.481s-.595-1.923-1.815-3.139" style="fill:#e4e420;fill-rule:evenodd" transform="translate(-74.957 -87.377)"></path><path d="M141.251 287.008s7.235 1.968 10.128 2.694l1.754-8.521c-10.021-2.52-19.519-5.29-28.42-8.294l-1.754 8.522c2.885.974 9.768 3.123 9.768 3.123l.035 98.486a390 390 0 0 1 8.509-2.517zm53.533 44.649v-8.32H170.58v-29.484a525 525 0 0 0 24.892 4.627l-.319-8.722c-11.644-1.882-22.83-4.065-33.478-6.522v92.041c10.648-2.455 21.834-4.638 33.478-6.52l.319-8.44a528 528 0 0 0-24.895 4.627l.003-33.287zm38.953 5.12 15.508 25.711q-6.018.443-11.93.984l-15.12-26.377c-1.934-.097-4.626-.268-9.07-.522l.008 29.569q-4.405.571-8.728 1.196l-.004-76.158c.023 1.604 31.855 3.861 35.918 5.217 12.06 4.024 8.607 22.409 5.14 31.288-3.635 5.449-5.3 6.247-11.722 9.092m4.856-21.935c.012-3.64-.797-7.142-2.397-9.139-1.972-2.46-5.532-2.812-8.436-3.217-4.864-.677-9.756-1.186-14.628-1.803l-.004 26.624c6.05.937 14.75 3.191 20.475-.077 3.342-1.91 4.975-7.286 4.99-12.388m59.057 45.77a652 652 0 0 1 9.262.012v-62.732a699 699 0 0 1-9.261.01v44.725l-30.256-45.507a745 745 0 0 1-9.085-.487l.002 65.249q4.518-.27 9.083-.487v-45.998l30.256 45.215zm33.13-21.013-5.712 21.39a697 697 0 0 0-8.888-.237l17.957-63.577q6-.271 11.914-.64l21.002 67.087a711 711 0 0 0-8.708-.76l-7.072-23.305zm18.507-6.592-8.904-29.336-7.833 29.308zm65.977 37.053c3.19.561 6.339 1.145 9.455 1.751v-85.107a531 531 0 0 1-9.455 1.755v62.3l-29.119-57.942q-4.876.606-9.835 1.142v70.599q4.959.536 9.835 1.143v-53.33zm30.358-22.521-4.963 27.654a472 472 0 0 0-9.892-2.164l18.546-91.783a419 419 0 0 0 11.88-3.165L484.11 387.74a321 321 0 0 0-10.39-3.532l-7.58-36.665zm18.84-8.127-9.298-45.007-8.081 45.005z" style="fill:#000;fill-rule:evenodd" transform="translate(-74.957 -87.377)"></path><path d="M255.67 710.653h7.151v-45.647h-4.645c-.74 2.169-1.8 3.556-3.198 4.433-1.282.805-2.793 1.138-4.568 1.23l-.034 4.998 4.24.037 1.055.01v1.049zm8.214 2.126h-10.339v-34.967l-4.243-.037-1.057-.009.007-1.054.047-7.078.007-1.05 1.048-.005c1.862-.008 3.362-.223 4.495-.934 1.104-.693 1.937-1.923 2.525-3.993l.22-.773h8.353v49.901h-1.062zm16.846-50.111h1.516c3.333 0 6.363 1.363 8.559 3.559s2.992 5.226 2.992 8.56v25.983c0 3.333-.796 6.363-2.992 8.56a12.08 12.08 0 0 1-8.56 3.558h-1.514a12.08 12.08 0 0 1-8.56-3.559 12.08 12.08 0 0 1-3.558-8.56v-4.96h6.043c-1.552-.637-2.791-1.779-3.74-3.28-1.589-2.518-2.322-6.063-2.314-9.873l.015-7.87a12.12 12.12 0 0 1 3.562-8.562 12.07 12.07 0 0 1 8.552-3.556zm1.516 2.126h-1.515a9.95 9.95 0 0 0-7.049 2.933 10 10 0 0 0-2.948 7.06l-.015 7.869c-.007 3.432.624 6.577 1.99 8.743 1.112 1.76 2.804 2.886 5.01 2.892 1.251.003 2.32-.061 3.483-.325.916-.208 2.008-.986 2.68-1.637.56-.541.822-.703 1.334-1.35l.015 1.462.053 5.77c.01 1.11-.111 2.448-.609 3.551-.582 1.29-1.614 2.25-3.391 2.291-2.134.049-3.381-1.244-3.954-2.918-.35-1.02-.343-2.181-.37-3.2h-6.221v2.835a9.96 9.96 0 0 0 2.936 7.056 9.96 9.96 0 0 0 7.056 2.936h1.515c2.746 0 4.678-1.124 6.489-2.936a9.96 9.96 0 0 0 2.936-7.056v-25.984c0-2.747-.558-5.245-2.369-7.056a9.96 9.96 0 0 0-7.056-2.936m-3.152 31.52-.016.583c-.027 1.025-.12 2.443.262 3.557.29.848.944 1.504 1.902 1.482.773-.018 1.232-.457 1.498-1.046.35-.775.435-1.797.427-2.663l-.03-3.181q-.462.296-.97.519c-.955.42-2.014.649-3.074.749zm1.5-25.304h.518c1.073 0 2.048.439 2.754 1.145a3.9 3.9 0 0 1 1.144 2.753v9.33c0 1.07-.439 2.044-1.144 2.75l-.004.004a3.89 3.89 0 0 1-2.75 1.145h-.518a3.9 3.9 0 0 1-2.753-1.145 3.89 3.89 0 0 1-1.144-2.753v-9.331a3.9 3.9 0 0 1 1.144-2.75l.002-.001.002-.002a3.9 3.9 0 0 1 2.75-1.145zm.518 2.126h-.518c-.488 0-.931.199-1.25.518l-.004.004a1.76 1.76 0 0 0-.518 1.25v9.33c0 .487.2.93.522 1.251.32.322.764.521 1.25.521h.518c.487 0 .93-.198 1.25-.517l.005-.004a1.77 1.77 0 0 0 .517-1.25v-9.331c0-.486-.2-.93-.521-1.25a1.77 1.77 0 0 0-1.25-.522zm15.356 37.089 20.849-.022-.011-7.026-13.35-.032-1.053-.003-.007-1.052c-.01-1.642.98-2.736 1.958-3.819.183-.202.368-.406.6-.686l8.684-10.51c1.276-1.543 2.131-2.95 2.662-4.433.533-1.489.752-3.077.753-4.975.002-5.209-1.036-8.504-2.8-10.466-1.7-1.89-4.163-2.573-7.055-2.573h-1.234a9.84 9.84 0 0 0-6.994 2.874 9.84 9.84 0 0 0-2.873 6.993v5.984l6.654.024-.029-5.91v-.084c.005-1.016.317-1.885.946-2.523.623-.63 1.517-.998 2.687-1.014h.108c1.373.007 2.336.53 2.96 1.496.547.844.771 1.996.745 3.409-.043 2.258-.284 4-.935 5.669-.65 1.663-1.686 3.208-3.317 5.07l-6.22 7.282c-1.012 1.246-1.958 2.477-2.644 3.715-.648 1.171-1.067 2.356-1.084 3.58zm21.91 2.095-22.97.023-1.058.001v-1.06l.001-10.103v-.013c.022-1.62.543-3.129 1.35-4.585.765-1.383 1.785-2.71 2.867-4.043l.017-.02 6.22-7.282.009-.008c1.471-1.68 2.392-3.038 2.943-4.452v-.004c.551-1.413.756-2.932.793-4.93.02-.999-.103-1.756-.404-2.222-.222-.343-.607-.53-1.19-.533h-.076c-.57.009-.967.148-1.2.384-.226.229-.338.59-.34 1.044v.069l.034 6.976.005 1.066-1.064-.004-8.781-.03-1.063-.005v-8.094c0-3.332 1.33-6.33 3.496-8.496a11.95 11.95 0 0 1 8.496-3.496h1.234c3.468 0 6.466.869 8.634 3.279 2.103 2.339 3.342 6.096 3.34 11.885-.002 2.157-.254 3.97-.87 5.69-.617 1.725-1.59 3.333-3.027 5.073l-8.685 10.51a25 25 0 0 1-.665.752c-.4.442-.802.886-1.074 1.339l13.012.03 1.057.003.002 1.056.015 9.14.002 1.058z" style="fill:#1b1918;fill-rule:evenodd" transform="translate(-74.957 -87.377)"></path><path d="m321.822 663.056 21.419.047 1.117.002-.059 1.11-.44 8.297-.053 1.005h-12.88l-.219 3.862q.377-.21.773-.377c1.169-.492 2.442-.694 3.677-.687 4.205.024 6.68 2.127 8.105 5.68 1.317 3.282 1.674 7.823 1.697 13.084v.199h.005c0 6.234-1.297 10.489-3.435 13.216-2.221 2.833-5.295 4.007-8.758 4.023l-.004.004h-1.155c-3.637 0-6.716-1.3-8.917-3.412-2.29-2.196-3.615-5.266-3.62-8.66l-.006-5.375-.001-1.059h11.263l.004 1.058.016 4.312c.015.877.2 1.371.476 1.625.252.233.65.31 1.082.319.497.01.823-.133 1.02-.664.355-.955.498-2.719.512-5.728v-.02c.09-3.541-.03-5.48-.4-6.488-.203-.553-.581-.66-1.14-.667v.004h-.04v-.004c-.365.008-.684.298-.938.818-.375.766-.58 1.916-.593 3.368v.32l.011 1.082-1.082-.015-8.964-.133-1.106-.016.06-1.096 1.515-28.03.054-1.007 1.005.002zm20.301 2.161-19.296-.042-1.402 25.927 6.809.1c.076-1.454.343-2.66.779-3.552.625-1.28 1.586-1.992 2.84-2.005l.008-.004h.039l.008.004c1.481.013 2.496.34 3.126 2.054.464 1.264.621 3.436.523 7.268-.016 3.255-.194 5.23-.644 6.438-.608 1.632-1.574 2.073-3.046 2.042-.896-.02-1.775-.227-2.478-.875-.679-.626-1.129-1.611-1.156-3.153v-.017l-.012-3.27-7.034.001.005 4.317c.003 2.8 1.092 5.329 2.972 7.132 1.815 1.741 4.384 2.813 7.447 2.813h1.155v.004c2.83-.013 5.322-.95 7.093-3.209 1.855-2.364 2.978-6.187 2.978-11.912h.004v-.191c-.022-5.018-.349-9.312-1.549-12.303-1.092-2.722-2.97-4.334-6.144-4.351-.972-.005-1.882-.01-2.769.364-.744.313-1.316.727-2.058 1.317-.802.638-1.448 1.409-1.993 2.291l.124-2.716.411-7.29.057-1h12.875z" style="fill:#1b1918;fill-rule:evenodd" transform="translate(-74.957 -87.377)"></path><path d="M255.67 676.763v33.89h7.151v-45.647h-4.645c-.74 2.169-1.8 3.556-3.198 4.433-1.282.805-2.793 1.138-4.568 1.23l-.034 4.998 4.24.037 1.055.01zm15.065-1.977-.016 7.87c-.01 4.96 1.451 11.622 7 11.635 2.586.006 4.29-.148 6.164-1.962.558-.541.821-.703 1.333-1.35l.068 7.232c.023 2.557-.705 5.767-4 5.842-2.133.049-3.381-1.244-3.954-2.918-.35-1.02-.343-2.181-.37-3.2h-6.221v2.835c0 5.493 4.498 9.992 9.992 9.992h1.515c5.176 0 9.425-4.87 9.425-9.992v-25.984c0-2.747-.558-5.245-2.369-7.056a9.96 9.96 0 0 0-7.056-2.936h-1.515c-5.498 0-9.986 4.51-9.996 9.992m5.962 9.453v-9.331a3.914 3.914 0 0 1 3.897-3.898c1.306 0 2.278.15 3.272 1.145a3.9 3.9 0 0 1 1.144 2.753v9.33a3.913 3.913 0 0 1-3.898 3.899c-1.305 0-2.277-.15-3.271-1.145a3.89 3.89 0 0 1-1.144-2.753m33.035-2.693c-.648 1.663-1.685 3.208-3.315 5.07l-6.221 7.282c-1.012 1.246-1.958 2.477-2.644 3.715-.648 1.171-1.067 2.356-1.084 3.58v9.032l20.849-.022-.011-7.026-13.35-.032-1.053-.003-.007-1.052c-.01-1.642.98-2.736 1.958-3.819.183-.201.368-.406.6-.686l8.684-10.51c1.276-1.543 2.131-2.95 2.662-4.433.533-1.489.752-3.077.753-4.975.002-5.209-1.036-8.504-2.8-10.466-1.7-1.89-4.163-2.573-7.055-2.573h-1.234a9.84 9.84 0 0 0-6.994 2.874 9.84 9.84 0 0 0-2.873 6.993v5.984l6.654.024-.029-5.91v-.083c.005-1.016.317-1.886.946-2.524.623-.63 1.517-.998 2.687-1.014h.108c1.373.007 2.336.53 2.96 1.496.547.844.771 1.996.745 3.409-.043 2.258-.284 4-.936 5.668zm13.095-16.37-1.402 25.926 6.809.1c.076-1.454.343-2.66.779-3.552.625-1.28 1.586-1.992 2.84-2.005l.008-.004h.039l.008.004c1.481.013 2.496.34 3.126 2.054.464 1.264.621 3.437.523 7.268-.016 3.255-.194 5.23-.644 6.438-.608 1.632-1.574 2.073-3.046 2.042-.896-.02-1.775-.227-2.478-.875-.679-.626-1.129-1.611-1.156-3.153v-.017l-.012-3.27-7.034.001.005 4.317c.003 2.8 1.092 5.329 2.972 7.132 1.815 1.741 4.384 2.813 7.447 2.813h1.155v.004c2.83-.013 5.322-.95 7.093-3.209 1.855-2.364 2.978-6.187 2.978-11.912h.004v-.191c-.022-5.018-.349-9.312-1.549-12.303-1.092-2.722-2.97-4.334-6.144-4.351-.972-.005-1.882-.01-2.769.364-.744.313-1.316.728-2.058 1.317-.802.638-1.448 1.409-1.993 2.291l.124-2.716.411-7.29.057-1h12.875l.327-6.182z" style="fill:#fff;fill-rule:evenodd" transform="translate(-74.957 -87.377)"></path><path d="M495.235 419.624c0-170.38-88.746-307.75-199.454-307.75s-198.954 138.12-198.954 308.5 88.246 308.5 198.954 308.5 199.454-138.87 199.454-309.25" style="fill:none" transform="translate(-74.957 -87.377)"></path><path d="M511.799 420c0-90.607-24.346-172.593-63.708-231.901-39.15-58.99-93.14-95.477-152.685-95.477-59.463 0-113.092 36.374-151.936 95.21-39.156 59.31-63.27 141.377-63.27 232.106 0 90.738 24.118 172.845 63.28 232.185 38.843 58.858 92.469 95.256 151.925 95.256 59.546 0 113.535-36.486 152.685-95.477C487.453 592.593 511.8 510.607 511.8 420Zm-59.345-234.79c39.906 60.128 64.589 143.142 64.589 234.79s-24.683 174.662-64.589 234.79c-40.116 60.445-95.636 97.832-157.048 97.832-61.331 0-116.484-37.298-156.288-97.611-39.707-60.167-64.16-143.301-64.16-235.074 0-91.764 24.448-174.86 64.149-234.993 39.805-60.292 94.962-97.566 156.3-97.566 61.411 0 116.93 37.387 157.047 97.832" style="fill:#1b1918;fill-rule:evenodd" transform="translate(-74.957 -87.377)"></path><path d="M124.606 262.558c-16.343 42.71-26.22 92.093-27.61 144.902 103.1-54.106 278.697-56.482 397.93-5.194-1.765-49.497-11.035-95.819-26.102-136.296-107.33 37.015-256.297 34.125-344.218-3.412m8.156 120.46-.034-98.486s-6.884-2.15-9.769-3.123l1.755-8.522c8.9 3.004 18.398 5.774 28.419 8.294l-1.754 8.521c-2.893-.726-10.128-2.695-10.128-2.695l.02 93.494a391 391 0 0 0-8.51 2.517zm28.913-7.74v-92.042c10.648 2.457 21.835 4.64 33.478 6.522l.319 8.722a525 525 0 0 1-24.892-4.627v29.483h24.204v8.321H170.58l-.003 33.288a527 527 0 0 1 24.895-4.628l-.319 8.44c-11.643 1.882-22.83 4.065-33.477 6.52zm42.73-7.94-.004-76.158c.023 1.604 31.855 3.861 35.917 5.217 12.062 4.023 8.608 22.409 5.142 31.288-3.636 5.449-5.3 6.246-11.724 9.092l15.509 25.711q-6.02.443-11.93.983l-15.12-26.376c-1.934-.097-4.627-.268-9.07-.522l.007 29.568q-4.403.57-8.727 1.197m53.907-5.456-.002-65.25q4.516.272 9.085.488l30.256 45.507v-44.725l3.7.012q2.787 0 5.56-.022v62.732a672 672 0 0 0-5.56-.022l-3.7.01-30.256-45.214v45.997q-4.564.216-9.083.487m57.868-1.13 17.957-63.578q6-.27 11.914-.638l21.002 67.086q-4.327-.406-8.708-.76l-7.072-23.305-20.493.042-5.712 21.39a716 716 0 0 0-8.888-.237m60.13 3.806v-70.599a619 619 0 0 0 9.835-1.142l29.119 57.942v-62.3c3.19-.562 6.338-1.148 9.455-1.755v85.107a542 542 0 0 0-9.455-1.752l-29.119-57.687v53.33a605 605 0 0 0-9.835-1.144m54.457 8.47 18.546-91.782a420 420 0 0 0 11.88-3.165L484.11 387.74a321 321 0 0 0-10.39-3.532l-7.58-36.665-20.518-.004-4.963 27.654q-4.874-1.123-9.892-2.164z" style="fill:#fff;fill-rule:evenodd" transform="translate(-74.957 -87.377)"></path><path d="m213.132 300.683-.003 26.624c6.05.937 14.75 3.192 20.475-.077 3.342-1.909 4.975-7.286 4.99-12.388.011-3.64-.798-7.142-2.398-9.139-1.971-2.46-5.532-2.812-8.436-3.217-4.863-.677-9.755-1.185-14.627-1.802zm127.25 2.987-7.832 29.31 16.737.027zm114.782-9.265-8.081 45.005 17.38.002z" style="fill:#fff;fill-rule:evenodd" transform="translate(-74.957 -87.377)"></path><path d="M295.39 92.637c-59.462 0-113.092 36.375-151.936 95.211-39.156 59.308-63.269 141.375-63.269 232.105 0 90.738 24.118 172.844 63.28 232.185 38.844 58.857 92.469 95.256 151.925 95.256 59.546 0 113.535-36.487 152.685-95.477 39.362-59.308 63.708-141.295 63.708-231.901s-24.346-172.594-63.708-231.902c-39.15-58.99-93.14-95.477-152.685-95.477m-170.8 169.937c34.533-90.241 97.94-150.685 171.175-150.685 74.305 0 138.717 61.884 173.043 154.096 15.067 40.478 24.337 86.8 26.102 136.296q.309 8.618.31 17.358c0 170.38-88.747 309.25-199.455 309.25-110.707 0-198.954-138.12-198.954-308.5q0-6.489.17-12.913c1.39-52.81 11.266-102.193 27.609-144.902" style="fill:#fbeb21;fill-rule:evenodd" transform="translate(-74.957 -87.377)"></path><path d="M197.581 151.686v131.94c20.916 3.845 43.109 6.425 65.9 7.705V115.868c-23.672 5.924-45.885 18.261-65.9 35.818M330.73 116.53v174.83c22.386-1.22 44.715-3.67 66.389-7.381V154.182c-20.104-18.242-42.494-31.2-66.388-37.651zM130.331 248.48a364 364 0 0 0-5.725 14.078q2.821 1.204 5.725 2.362zM96.827 420.374c0 63.636 12.31 122.773 33.504 171.894v-199.62c-11.763 4.408-22.918 9.346-33.334 14.812q-.17 6.425-.17 12.914m233.903-18.705v43.78c13.878-6.209 32.09-13.048 49.574-13.048 6.609 0 13.894 2.809 16.815 4.061v-62.6c-21.705-3.835-43.996-6.38-66.388-7.641v25.03a5.3 5.3 0 0 1 2.648 1.443 5.3 5.3 0 0 1 1.558 3.767 5.335 5.335 0 0 1-4.206 5.208z" style="fill:#246334;fill-rule:evenodd" transform="translate(-74.957 -87.377)"></path><path d="M378.436 438.895c-15.822.463-28.489 9.397-32.982 13.011 10.068-1.347 20.277-1.568 29.886-1.579 10.44 0 17.496 1.392 21.779 2.673v-13.46c-13.034-1.124-18.546-.655-18.683-.645m-4.56 19.375c-19.204 1.664-29.203 3.64-38.387 14.495 4.944-.197 14.32-.55 17.939-.55 5.2 0 18.873.964 19.358 1.002 6.39 0 17.216 3.044 24.333 5.29v-20.81zm-9.14 23.271c-15.315.555-20.013.732-28.55 9.559 19.978.161 38.902 7.077 39.027 7.125 7.886 2.455 12.904 10.036 13.114 10.358l2.18 3.363-15.313-5.585c-.921-.203-19.384-4.236-30.092-4.236-6.754 0-11.497 2.81-14.017 4.799 33.747.23 50.757 15.237 51.517 15.925 1.413 1.41 2.078 3.463 2.148 3.692l.817 2.635-3.9-1.494c-.236-.104-23.632-10.417-41.728-10.417-3.852 0-6.99 1.16-9.208 2.364v2.005c15.69 4.842 25.193 19.724 25.193 29.165 0 4.584-2.89 7.509-4.877 7.509h-1.34v-1.34c0-8.751-8.877-20.926-17.617-20.926q-.685 0-1.36.087v12.982a39 39 0 0 1 1.52 3.775l.016.048.027-.008.192.654.217.637-.028.008c.915 3.108 1.358 6.27 1.358 9.662 0 3.872-.624 8.052-1.854 12.425l-.002.01.014.004-.192.626-.19.666-.014-.005a60 60 0 0 1-1.063 3.148v45.032c.752.871 1.507 1.783 2.272 2.707 3.83 4.626 7.788 9.41 12.024 9.41 3.466 0 8.223-2.386 8.271-2.41l1.695 1.979c-.282.39-6.7 9.035-24.262 10.078v15.519l12.51.027 1.117.002-.058 1.11-.44 8.297-.053 1.005h-12.881l-.195 3.446v.403a8 8 0 0 1 .75-.364c1.168-.491 2.442-.693 3.676-.687 4.205.024 6.68 2.127 8.105 5.68 1.317 3.282 1.675 7.823 1.697 13.084v.004l.001.195h.004c0 6.234-1.296 10.489-3.435 13.216-2.221 2.834-5.295 4.008-8.758 4.023l-.004.004h-1.155q-.447-.001-.88-.026v11.673c23.894-6.517 46.284-19.6 66.387-37.995v-203.38c-6.88-.658-17.69-1.58-24.27-1.58zM218.744 445.94c2.263 0 4.589 1.45 6.383 3.98 1.702 2.4 2.678 5.423 2.678 8.292 0 2.823-.806 8.407-1.517 13.334-.456 3.157-.887 6.138-.887 7.022s1.415 3.848 4.44 8.241c.285-.238.638-.601 1.092-1.376l.92-1.565-.01-.085c0-6.743 5.84-16.402 18.827-16.765l.496-.014.982-.994c1.936-2.071 5.3-5.67 11.332-6.847v-9.098c-.733.11-1.603.161-3.118.161l-.447-2.605c1.692-.597 2.818-1.238 3.565-1.809v-3.786c-1.516.47-3.422.777-5.827.777-13.274 0-19.484-6.671-19.742-6.955l1.479-2.151c.057.022 5.727 2.216 9.038 2.216 5.07 0 8.69-1.07 12.52-2.204l.625-.183c-1.944-.86-3.055-2.406-3.055-4.396 0-3.485 2.39-6.086 4.962-6.837v-18.895a5.335 5.335 0 0 1-3.655-5.057 5.34 5.34 0 0 1 3.655-5.058v-26.99c-22.543 1.333-44.681 3.993-65.899 7.973v69.66c1.51-.774 3.138-1.195 4.716-1.195h.16l.093.012c.392.056.836.132 1.298.234l.453-.297c1.087-.71 2.718-1.557 4.315-1.557 1.923 0 3.313 1.165 4.658 2.292 1.548 1.298 3.011 2.524 5.47 2.524z" style="fill:#246334;fill-rule:evenodd" transform="translate(-74.957 -87.377)"></path><path d="M197.581 459.529v229.533c20.015 17.557 42.228 29.893 65.9 35.818v-12.101h-9.936v-34.967l-4.243-.037-1.057-.009.007-1.054.047-7.078.007-1.05 1.048-.005c1.862-.008 3.362-.223 4.495-.934 1.104-.693 1.937-1.923 2.525-3.993l.22-.773h6.886v-44.513a45 45 0 0 1-2.25-1.564l.564-1.127c-2.463-.757-3.782-1.577-4.03-1.741l-.093-.061-.08-.074a41 41 0 0 1-3.192-3.289l-.018.017-.919-1.14c-4.354-5.413-6.773-11.531-6.996-17.692v-.051l-.076-.001.044-.875-.017-.482.04.002.001-.03c.235-4.762 3.899-10.193 9.561-14.176l.126-.089-.01-.02.42-.267.72-.506.02.038a32.6 32.6 0 0 1 6.185-3.038v-14.797a8 8 0 0 1-1.11.076c-7.04 0-16.806-8.667-24.653-15.63-3.208-2.846-7.2-6.389-8.217-6.556h-5.266c-1.012 0-2.098-.179-3.228-.532l-.39-.121c-1.357.979-2.486 2.062-2.486 4.052l.215 2.835-2.51.808c-.178-.33-1.74-3.29-1.74-5.298 0-1.609.701-3.393 1.746-4.95l-1.283-.975c-1.557 1.08-2.898 2.763-2.898 6.602v2.867l-2.2-1.838c-.187-.157-1.834-1.6-1.834-3.964 0-3.147 1.211-5.964 3.109-7.84l-.888-1.35h-.654c-1.259 0-3.052 2.909-3.863 5.01l-.698 1.802-1.444-1.283c-.188-.167-1.127-1.064-1.127-2.282 0-2.976 1.702-5.724 4.196-7.384h-.074c-1.534 0-4.084 2.985-5.324 5.002l-2.483 4.038v-4.74c0-5.866 4.359-10.29 10.139-10.29.41 0 .82.048 1.228.116l.294-.238c.902-.73 2.027-1.118 3.254-1.118 1.456 0 2.301.641 3.118 1.26l1.686 1.072 1.945.641c1.161.326 2.478.695 3.619 1.39 4.456 2.712 9.084 6.253 13.56 9.677 5.888 4.505 11.976 9.162 14.543 9.162 1.596 0 5.772-4.898 9.755-11.36-3.232 1.442-10.484 4.391-15.796 4.391-8.061 0-9.93-3.876-11.908-7.98-1.07-2.216-2.175-4.51-4.4-6.572-2.24-2.076-4.723-3.046-7.125-3.984-4.678-1.827-9.096-3.552-9.096-12.588 0-5.537 1.529-14.124 2.878-21.7.996-5.595 1.937-10.877 1.937-13.304 0-3.953-.676-4.794-.68-4.868-.203.008-.725.404-1.11.697-.862.657-2.042 1.556-3.758 1.878l-.296-.65-.472.332-.348.261-.188.146-.223.068c-1.135.347-1.849 4.033-1.78 7.124l.06 2.796-2.218-1.703c-.084-.064-1.907-1.537-2.172-4.565l-.418 2.43-1.865-2.424c-.131-.17-1.282-1.726-1.282-3.825 0-3.109 1.028-5.256 1.792-6.424a6 6 0 0 1-.597-.879c-.835.942-2.008 2.547-3.024 4.194l-1.058 1.717zm266.788-68.852v194.425c19.566-47.895 30.866-104.68 30.866-165.478q0-8.74-.309-17.358c-9.827-4.227-20.037-8.09-30.557-11.589m0-136.095v12.893q2.238-.741 4.454-1.505a368 368 0 0 0-4.454-11.388" style="fill:#246334;fill-rule:evenodd" transform="translate(-74.957 -87.377)" data-source="https://football-logos.cc"></path><path d="M263.48 366.293v26.99a5.3 5.3 0 0 1 1.673-.269c2.687 0 4.824 2.033 5.184 4.622.97.157 3.238.671 8.94 2.327.79-.237 1.425-.51 1.768-.702-.092-2.566-.835-6.628-1.303-8.96-.204.024-.392.13-.6.13a5.335 5.335 0 0 1-5.33-5.327c0-1.422.555-2.76 1.562-3.765a5.3 5.3 0 0 1 3.769-1.561 5.3 5.3 0 0 1 3.765 1.56 5.3 5.3 0 0 1 1.561 3.766c0 1.055-.411 2.02-.989 2.887 3.873 4.566 6.804 7.432 7.591 7.875h.438l.17-.104 4.079-8.927c-1.612-.934-2.689-2.66-2.689-4.59a5.33 5.33 0 0 1 5.327-5.325 5.33 5.33 0 0 1 5.325 5.325c0 2.257-1.471 4.159-3.52 4.918.21 2.538 1.88 8.59 3.309 8.59 1.05 0 3.966-1.955 7.912-6.023-.614-.88-1.053-1.868-1.053-2.97a5.334 5.334 0 0 1 5.328-5.328c1.422 0 2.759.554 3.766 1.56a5.3 5.3 0 0 1 1.56 3.769 5.33 5.33 0 0 1-5.326 5.324c-.282 0-.54-.115-.813-.158l-3.965 6.443c.395.452.746.775.986.952.388-.247.982-.681 1.284-.902 2.247-1.631 5.641-4.097 9.502-4.097l2.072.14c.808-1.944 2.672-3.329 4.849-3.329q.572 0 1.119.117v-25.03a585 585 0 0 0-67.25.072zm8.187 35.232a105 105 0 0 1 3.413 3.405c.626-.518 1.489-1.142 2.496-1.793a177 177 0 0 0-5.909-1.612" style="fill:#d5252a;fill-rule:evenodd" transform="translate(-74.957 -87.377)"></path><path d="M283.98 393.902c.336 2.095.611 4.264.611 5.868 0 .036-.029.059-.03.094 1.4-.454 2.924-.827 4.58-1.096-.994-.646-2.576-2.038-5.162-4.866zm13.5-2.362-3.046 6.673-.166.101.067-.005c7.162 0 12.597 2.242 15.912 4.11-1.226-.723-2.29-2.023-2.92-2.924l-.656-.948.257-.42c-1.904 1.108-2.948 1.149-3.418 1.149-3.366 0-5.116-4.052-6.03-7.737zm-4.048 18.038c-6.054 0-10.583 2.753-12.665 4.303.998.761 2.254 1.127 3.867 1.127h17.599c.764 0 1.83-.52 2.977-1.426-1.965-1.565-5.941-4.004-11.778-4.004" style="fill:#d5252a;fill-rule:evenodd" transform="translate(-74.957 -87.377)"></path><path d="M263.48 403.398v18.895a5.4 5.4 0 0 1 1.498-.222c2.356 0 3.672 1.413 4.633 2.445.835.898 1.308 1.366 2.086 1.366 1.131 0 3.92-1.42 6.16-2.562 3.006-1.53 5.602-2.853 7.376-2.853h4.312c1.31 0 2.351-.541 3.557-1.168a26 26 0 0 1 1.579-.77h-10.047c-7.078 0-8.961-5.377-9.85-7.922l-.458-1.172c-.326-.605-2.48-2.903-6.443-6.636-.827.509-1.732.868-2.73.868a5.3 5.3 0 0 1-1.672-.269zm50.88 3.998-4.896 7.031-.057.064c-.5.554-2.755 2.916-5.4 3.747a89 89 0 0 1 2.148.45c2.04.45 3.967.876 6.055.876 4.881 0 12.384-4.382 12.46-4.427l2.021-1.189v2.345c0 2.828-1.268 4.717-2.877 5.94.327.458.566 1.053.566 1.882 0 2.09-2.922 3.208-5.453 3.793.028.144.04.257.04.32 0 2.03-2.028 3.111-3.965 3.698.877.972 1.558 2.291 1.558 4.022 0 4.996-1.912 7.233-2.803 8.011.037.435.094.855.094 1.315 0 2.112-1.634 3.403-2.6 3.832l-.851.375a3.6 3.6 0 0 1-1.014.886l-.316.948c-.038.112-.917 2.394-3.13 4.27.432.076 1.062.08 1.358.08 1.76 0 6.863-2.432 12.77-5.249 3.127-1.49 6.72-3.204 10.663-4.968v-43.78a5.3 5.3 0 0 1-1.119.119c-2 0-3.757-1.157-4.664-2.857-6.245 1.875-10.512 8.348-10.588 8.466" style="fill:#d5252a;fill-rule:evenodd" transform="translate(-74.957 -87.377)"></path><path d="M278.438 408.243a.57.57 0 0 0 .404.974.571.571 0 1 0-.404-.974m6.077-2.757a.57.57 0 1 0 1.14.002.57.57 0 0 0-1.14-.002m3.425-2.922a4.08 4.08 0 0 1 1.236 2.922c0 .339-.053.663-.132.978q.677-.127 1.386-.218a4.04 4.04 0 0 1-.566-2.039c0-.757.217-1.477.6-2.11-.882.12-1.72.28-2.524.467m9.455-.562a4.05 4.05 0 0 1 .657 2.205c0 .066-.016.128-.02.194.2-.848.664-1.584 1.3-2.138a29 29 0 0 0-1.937-.261m8.525 2.202c.106.366.18.743.18 1.133 0 .06-.017.117-.019.177a4.2 4.2 0 0 1 1.091-.733 28 28 0 0 0-1.251-.577zm2.53 3.888a.569.569 0 0 0 .4.974l.067-.019.46-.658c-.056-.256-.253-.464-.527-.464a.56.56 0 0 0-.4.168zm-7.013-2.755a.57.57 0 1 0 1.14.002.57.57 0 0 0-1.14-.002m-7.478-1.7a.571.571 0 0 0 0 1.14.57.57 0 0 0 0-1.14m-30.479 38.389v3.786c1.313-1.003 1.46-1.79 1.46-1.742v-2.594q-.662.301-1.46.55m0 8.039v9.098a21 21 0 0 1 3.272-.37l.255-.01c.024-.026.042-.067.066-.09 2.42-2.433 6.217-3.534 9.89-4.599 3.108-.9 6.065-1.771 7.431-3.29-1.909.55-3.529.684-4.892.715l-4.429.097.4-.279-.763-.087-2.229-.444-.345.045-.17-.022c-.95-.122-1.375-.362-1.788-.737l-.518-.432-.826.205-.112.085-1.637-.284-1.31-.39-.942.514-.177.042c-.408.096-.77.173-1.175.233zm62.883 88.4c0 2.107 1.123 4.263 2.545 6.99.586 1.127 1.214 2.333 1.823 3.656v-12.982q-.605.076-1.195.222l-.263.065-.268-.042-.215-.032-1.36.865c-.647.414-1.067.907-1.067 1.258m-62.883 18.938V572.2c3.225-1.183 7.161-2.057 11.751-2.057 12.855 0 15.554 7.478 15.554 13.751l-.164 2.578c5.064-1.362 9.066-9.055 9.066-13.86 0-6.273-5.198-7.833-11.219-9.64-5.953-1.786-12.699-3.81-12.699-11.571 0-2.717.589-5.44 1.726-8.131-2.96 2.383-6.558 5.037-7.918 6.03v1.35c0 3.002-2.302 6.221-6.096 6.753zm44.645 49.651-.515.27-.007-.013-.018.01c-4.146 2.05-7.748 3.203-9.981 3.803 1.341 1.007 3.371 1.968 6.283 1.968 16.927 0 17.303-10.418 17.312-10.863l2.587-.476c.062.157 1.524 3.912 1.524 9.29 0 3.346-.95 6.488-2.432 8.508.436.064.845.156 1.132.304 2.37 1.212 4.537 3.408 6.72 5.938V580.76c-1.7 4.607-3.977 9.058-6.566 12.803l.024.013-.428.574-.376.54-.019-.01-.092.124c-1.679 2.262-3.43 4.17-5.198 5.674-2.757 2.34-5.87 4.427-9.253 6.207l.009.018zm-44.645 11.312v44.513h1.467v49.901h-1.466v12.1a132.7 132.7 0 0 0 32.3 3.995c11.933 0 23.61-1.613 34.95-4.705v-11.674c-3.254-.192-6.015-1.447-8.036-3.385a11.7 11.7 0 0 1-3.272-5.72l.013 7.87.002 1.059h-1.06l-22.969.024h-1.059v-1.059l.001-10.104v-.012c.022-1.62.543-3.129 1.35-4.585.765-1.383 1.785-2.71 2.867-4.043l.017-.02 6.221-7.282.008-.008c1.471-1.68 2.392-3.038 2.944-4.452v-.004c.55-1.413.755-2.932.793-4.93.019-.999-.103-1.756-.404-2.222-.222-.343-.608-.53-1.191-.533h-.076c-.57.008-.967.147-1.2.384-.226.228-.338.59-.34 1.044v.069l.034 6.976.005 1.066-1.064-.004-8.781-.031-1.063-.004v-8.094c0-3.333 1.331-6.33 3.496-8.496a11.95 11.95 0 0 1 8.497-3.496h1.234c3.467 0 6.465.869 8.633 3.278 2.104 2.34 3.342 6.097 3.34 11.886-.001 2.156-.254 3.97-.87 5.69-.617 1.724-1.59 3.333-3.027 5.073l-8.684 10.509a25 25 0 0 1-.666.753c-.4.442-.801.886-1.073 1.338l13.012.032.728.002q-.015-.306-.015-.614l-.007-5.375-.001-1.06h11.263l.004 1.059.016 4.312c.013.77.158 1.246.38 1.522v-11.86c-.253.738-.391 1.719-.4 2.9a9 9 0 0 0 0 .32l.01 1.083-1.082-.016-8.964-.132-1.106-.016.06-1.096 1.515-28.03.054-1.007 1.005.002 8.908.02v-15.52a60 60 0 0 1-3.53.104c-15.887 0-19.76-5.291-22.323-8.792-.41-.564-.78-1.063-1.154-1.475a16.7 16.7 0 0 1-2.442 4.44c-1.883 2.436-8.33 5.525-12.89 5.525-6.254 0-12.599-9.314-13.302-10.376l-2.709-4.094 4.414 2.148c1.089.53 3.24 1.37 4.377 1.37 3.647 0 6.631-5.007 6.631-6.632 0-2.406-2.823-3.287-8.233-4.763-3.408-.93-7.27-1.983-11.261-3.916a44 44 0 0 1-4.828-2.73zm5.137 56.42c.013-6.673 5.448-12.118 12.114-12.118h1.515c3.333 0 6.363 1.363 8.559 3.559s2.992 5.226 2.992 8.56v25.983c0 3.333-.796 6.363-2.992 8.56a12.08 12.08 0 0 1-8.56 3.558h-1.514c-6.668 0-12.118-5.452-12.118-12.118v-4.961h6.043c-4.667-1.913-6.064-8.05-6.054-13.153z" style="fill:#d5252a;fill-rule:evenodd" transform="translate(-74.957 -87.377)"></path><path d="M278.823 674.908v9.33a1.78 1.78 0 0 0 1.771 1.772c.678 0 1.217.038 1.773-.52.319-.322.517-.765.517-1.251v-9.331c0-.973-.8-1.772-1.772-1.772-.684 0-1.213-.038-1.772.522a1.76 1.76 0 0 0-.517 1.25m.271 21.406c-.042 1.578-.462 5.681 2.148 5.622 1.771-.041 1.937-2.38 1.925-3.709l-.03-3.181c-1.195.77-2.623 1.134-4.043 1.268" style="fill:#d5252a;fill-rule:evenodd" transform="translate(-74.957 -87.377)"></path><path d="M330.73 689.048v11.86q.047.057.096.103c.253.233.65.31 1.082.318.498.01.823-.133 1.02-.664.356-.954.498-2.718.512-5.727v-.02c.09-3.542-.029-5.48-.4-6.488-.202-.553-.58-.661-1.14-.667v.004h-.039v-.004c-.365.008-.684.298-.938.818q-.105.213-.192.467z" style="fill:none" transform="translate(-74.957 -87.377)"></path><path d="M330.73 689.048v11.86q.047.057.096.103c.253.233.65.31 1.082.318.498.01.823-.133 1.02-.664.356-.954.498-2.718.512-5.727v-.02c.09-3.542-.029-5.48-.4-6.488-.202-.553-.58-.661-1.14-.667v.004h-.039v-.004c-.365.008-.684.298-.938.818q-.105.213-.192.467z" style="fill:#246334;fill-rule:evenodd" transform="translate(-74.957 -87.377)"></path><path d="M130.331 392.648v199.62c17.185 39.83 40.211 73.076 67.25 96.794V459.529l-.384-.538c-.176-.246-.751-1.125-.751-2.084 0-1.217.475-2.467 1.135-3.617v-2.675c-1.686 1.383-2.536 3.131-2.593 3.252l-.743 1.574-1.33-1.115a3.28 3.28 0 0 1-1.083-2.432c0-2.146 1.19-4.43 3.265-6.269a12 12 0 0 1 2.484-1.7v-69.66c-23.821 4.469-46.482 10.6-67.25 18.383" style="fill:#d52529;fill-rule:evenodd" transform="translate(-74.957 -87.377)"></path><path d="M200.625 449.09c-1.215.272-2.227.855-3.044 1.525v2.675c.866-1.507 2.052-2.842 2.908-3.708l.167-.169z" style="fill:#246334;fill-rule:evenodd" transform="translate(-74.957 -87.377)"></path><path d="M197.581 151.686c-27.039 23.718-50.065 56.963-67.25 96.794v16.44c19.928 7.94 42.71 14.193 67.25 18.705zm65.899-35.818v175.463c22.063 1.239 44.685 1.259 67.25.029V116.53c-11.338-3.06-23.016-4.657-34.949-4.657a132.7 132.7 0 0 0-32.3 3.995zm133.639 366.925v203.38c27.28-24.96 50.349-59.699 67.25-101.07V390.676c-21.34-7.097-43.957-12.7-67.25-16.815v62.6c.758.326 1.222.546 1.304.586l-.698 2.544-.606-.053V453c3.479 1.04 5.127 2.008 5.271 2.095l3.942 2.374-9.213.228v20.81a210 210 0 0 1 7.021 2.341l-.595 2.594c-.073-.008-2.66-.288-6.426-.649m0-328.611v129.797c23.438-4.014 46.108-9.502 67.25-16.504v-12.893c-16.902-41.16-39.97-75.645-67.25-100.4" style="fill:#d52529;fill-rule:evenodd" transform="translate(-74.957 -87.377)"></path><path d="M294.83 429.925c.068.08 1.593 2.063 1.593 4.569 0 2.295-1.657 4.603-1.727 4.7l-.392.538-1.069-.777.389-.538c.015-.02 1.479-2.062 1.479-3.923 0-2.04-1.302-3.738-1.314-3.754l-.407-.522 1.04-.815zm-6.846.22c2.265.762 3.727 1.975 3.727 3.948 0 4.035-4.089 7.302-4.26 7.44l-.521.41-.823-1.039.524-.411c.036-.03 3.757-3.011 3.757-6.4 0-1.587-1.687-2.516-4.162-3.076h-.012a2.3 2.3 0 0 1-.893-.18c-3.032-.546-6.965-.649-10.467-.742-3.772-.1-7.335-.197-9.545-.778l-.64-.168.337-1.28.64.17c2.06.542 5.552.634 9.245.733 3.081.08 6.32.167 9.13.531a2.3 2.3 0 0 1-.076-.55c0-.5.168-.957.442-1.332-1.64-.514-2.868-1.36-2.941-1.409l-.543-.381.757-1.082.541.376c.026.018 2.275 1.562 4.536 1.562 1.35 0 4.8-.417 4.835-.422l.659-.08.158 1.313-.655.08c-.107.014-1.959.237-3.508.359.158.306.253.646.253 1.015a2.23 2.23 0 0 1-.495 1.393m-10.37.868c6.306 0 8.54 1.109 8.54 4.235 0 1.55-1.205 2.67-1.345 2.794l-.932.829-1.87-1.87c-.877.925-2.158 1.976-3.495 1.976-1.053 0-1.918-.646-2.573-1.391-.675.777-1.663 1.391-3.039 1.391-1.53 0-2.916-.604-3.908-1.19-.352.741-1.127 1.915-2.712 2.942v3.342s-.097 2.76-5.918 4.815c2.282 0 2.971-.121 3.988-.36l1.107-.606.545-.38c.023-.017 2.549-1.82 2.549-4.07v-.663h1.322v.663c0 2.317-1.846 4.12-2.697 4.828.487.107.425.22 1.337.266l.662-.164.55-.366c.03-.023 3.114-2.102 3.114-4.64v-.661h1.32v.66c0 2.697-2.434 4.796-3.355 5.493.426.263.328.483 1.332.613l.568-.073.579-.318c.026-.015 2.64-1.492 2.64-4.209v-.663h1.324v.663c0 2.587-1.732 4.235-2.7 4.952.734.12.378.14 1.354.19l1.286-.287.633-.197c.116-.038 2.842-.939 2.842-4.508v-.662h1.323v.662c0 2.653-1.299 4.28-2.513 5.129 1.763-.04 3.698-.241 6.036-1.15.182-.183.35-.39.459-.574.502-.877.373-2.164.304-2.635l-.3-.301a.66.66 0 0 1 0-.937.66.66 0 0 1 .932 0l.34.34c.298.087 1.06.292 1.9.292 2.76 0 5.678-4.203 6.567-5.825a.66.66 0 0 1 .898-.258.66.66 0 0 1 .263.899c-.147.264-3.622 6.508-7.728 6.508a7.5 7.5 0 0 1-1.494-.162l.012.337c0 .734-.111 1.642-.55 2.403a.66.66 0 0 1-.617.324c-.841 6.094-13.505 5.207-18.47 10.199-.216.212.022.35.12.832.009.045-2.407 3.845-2.407 7.142 0 3.974 1.454 8.241 1.47 8.284a.663.663 0 0 1-1.253.432c-.063-.182-1.538-4.516-1.538-8.716 0-3.092 1.759-6.393 2.385-7.48-9.17.335-13.057 6.478-14.783 7.908.087.173.11.38.025.57-.795 1.789-2.852 6.862-2.852 8.78 0 3.792 2.338 7.106 2.36 7.138a.662.662 0 0 1-1.079.771c-.103-.149-2.606-3.682-2.606-7.91 0-2.316 2.277-7.721 2.842-9.03-12.547.35-17.525 9.668-17.525 15.424 0 6.921 6.7 12.788 10.608 12.788v1.324c-4.126 0-10.438-5.193-11.702-11.783-.774 1.32-1.486 1.91-1.988 2.174l.21.213-.467.465c-1.897 1.898-4.495 4.496-4.495 10.616 0 10.77 9.514 19.87 20.774 19.87h3.67v1.324h-3.67c-11.978 0-22.096-9.705-22.096-21.194 0-6.668 2.935-9.607 4.881-11.552l.079-.08c-1.22-1.75-4.926-7.244-4.926-9.38 0-2.357 2.404-15.691 2.404-20.356 0-5.466-3.91-10.932-7.72-10.932-5.265 0-6.87-4.816-10.128-4.816-1.335 0-2.814.836-3.582 1.338 1.221.425 2.4 1.105 2.4 2.149 0 1.674-4.022 2.346-5.531 2.54-.01.377.043.738.098 1.001 1.04-.331 2.858-.842 4.22-.842 1.724 0 4.218.74 4.218 2.077 0 1.597-4.781 2.373-7.14 2.656.262.762.673 1.31 1 1.66 1.062-.737 3.816-2.518 5.645-2.518 1.872 0 2.264.842 2.264 1.549 0 1.372-4 3.76-5.909 4.823.074.162.167.298.264.413.775-.738 3.548-3.175 6.314-3.175.575 0 1.774 0 1.774 1.175 0 1.256-1.454 2.624-2.44 3.406 2.599-.487 3.71-2.604 5.128-2.604 1.304 0 2.008 2.105 2.008 6.215 0 5.819-4.815 25.373-4.815 35.004 0 12.53 8.9 9.2 15.792 15.588 6.647 6.164 4.065 14.195 15.396 14.195 6.346 0 16.002-4.605 16.792-4.988-.423-.818-.664-1.697-.664-2.632 0-.477.059-1.112.139-1.745-.975-.003-1.62.006-1.78.015l-.116.017h-.053c-6.45 0-10.954-5.555-10.954-13.507 0-6.666 4.332-14.295 11.888-20.93 16.1-14.149 54.978-28.459 81.19-32.952h.016l.757-.115c1.973-1.776 16.38-14.165 35.461-14.723 0 0 5.642-.517 19.446.703 0 0-9.422-4.515-17.539-4.515-32.19 0-66.388 23.264-73.006 23.264-1.255 0-3.11 0-3.11-1.702 2.708-1.704 3.61-4.412 3.61-4.412s-1.104-.05-1.104-.404c0-4.99-3.034-6.315-1.805-6.315 3.36 1.251 2.756 5.463 2.756 5.463s2.16-.3 2.16-2.154c0-3.853-3.262-6.871-3.262-6.871s.353-.651.656-.651c3.97 3.973 3.508 7.921 3.508 7.921s1.805-.802 1.805-2.607c0-5.943-3.611-9.627-3.611-9.627l.3-.7c3.94 3.937 3.41 8.221 3.41 8.221s2.608-1.656 2.608-7.22c0-3.611-3.612-4.714-3.612-4.714s6.018-.552 6.018-3.007c0-.326-.6-1.304-.6-1.304s6.015-.98 6.015-2.808c0-.777-.274-1.505-1-1.505 0 0-1.205.602-2.006.602-.804 0-1.404-.402-1.404-.402s6.72-.5 6.72-6.517c0 0-7.827 4.612-13.14 4.612-4.611 0-8.323-1.905-13.54-1.905-4.01 0-5.712 2.808-9.125 2.808h-4.312c-2.905 0-10.63 5.415-13.536 5.415-2.91 0-3.31-3.812-6.719-3.812-2.21 0-5.119 2.208-5.119 5.72 0 2.063 1.672 3.344 4.2 3.703 3.652-.993 7.754-1.82 13.555-1.82zm18.09 24.19a5.06 5.06 0 0 1 1.25-3.332l.997.871a3.72 3.72 0 0 0-.926 2.46 3.742 3.742 0 0 0 6.1 2.9l.834 1.029a5.1 5.1 0 0 1-3.194 1.134 5.07 5.07 0 0 1-5.06-5.062zm-2.324 3.966a3.497 3.497 0 0 0 5.801 2.624l.874.997a4.82 4.82 0 0 1-3.18 1.198 4.82 4.82 0 0 1-4.818-4.819 4.78 4.78 0 0 1 1.43-3.426l.932.942a3.46 3.46 0 0 0-1.04 2.484z" style="fill:#fbeb21;fill-rule:evenodd" transform="translate(-74.957 -87.377)"></path><path d="M238.903 434.946s5.918 6.517 18.75 6.517c9.229 0 10.332-4.712 10.332-4.712l.402-1.004s2.103 1.906 4.513 1.906c2.406 0 2.906-2.707 2.906-2.707s1.205 2.707 2.706 2.707c1.506 0 3.414-2.609 3.414-2.609l2.004 2.007s.902-.801.902-1.804c0-1.505-.301-2.91-7.218-2.91-13.841 0-18.051 4.916-29.185 4.916-3.608 0-9.526-2.307-9.526-2.307m-31.731 24.948c-.19.4-1.062 2.378-1.062 5.236 0 2.909 1.701 4.215 1.701 4.215s-.175-7.546 2.728-8.436v-.005l.348-.26c1.13-.752 2.924-2.325 2.924-3.334 0-.186 0-.333-.932-.333-2.403 0-4.962 2.222-5.707 2.917m-5.729-9.37c-1.207 1.222-3.657 4.002-3.657 6.383 0 .604.501 1.305.501 1.305s3.459-5.613 4.814-5.618c3.82-.437 6.498-1.353 6.498-1.867 0-.462-1.637-1.234-3.377-1.234-1.82 0-4.747 1.017-4.779 1.031" style="fill:#fbeb21;fill-rule:evenodd" transform="translate(-74.957 -87.377)"></path><path d="M204.389 456.013c-.637.876-1.79 2.887-1.79 6.011 0 1.704 1.003 3.007 1.003 3.007s1.204-7.02 2.508-7.02l.002.023c2.887-1.632 5.256-3.406 5.256-3.96 0-.213 0-.707-1.423-.707-1.917 0-5.308 2.465-5.556 2.646m-2.092-11.943c-4.662 0-9.124 4.214-9.124 7.824 0 .902.6 1.405.6 1.405s2.658-5.72 8.325-5.72c2.35-.28 4.493-.96 4.493-1.628 0-.914-2.471-1.63-4.229-1.88zm58.869-45.73a3.984 3.984 0 0 0 3.987 3.986 3.98 3.98 0 0 0 2.882-1.233c2.731 2.547 6.869 6.533 7.499 7.747l.498 1.281c.865 2.47 2.473 7.068 8.602 7.068h17.599c2.936 0 6.051-3.454 6.18-3.598l4.845-6.96c.06-.1 5.092-7.83 12.454-9.341a3.987 3.987 0 1 0 3.9-4.815c-2 0-3.65 1.473-3.937 3.391-1.005-.11-2.115-.202-2.984-.202-3.429 0-6.614 2.315-8.72 3.845-.815.597-1.743 1.27-2.036 1.27-.681 0-1.898-1.285-2.653-2.307l4.932-8.015a3.987 3.987 0 1 0-2.505-3.696c0 1.25.58 2.367 1.485 3.098-2.656 2.838-7.28 7.234-9.684 7.234-3.226 0-4.67-9.011-4.689-10.373l.118-.528a3.984 3.984 0 0 0-.543-7.932 3.985 3.985 0 0 0-.847 7.881l-4.821 10.553-.844.513h-1.046c-.898 0-5.22-4.553-9.045-9.131a3.98 3.98 0 0 0-2.65-6.957 3.99 3.99 0 0 0-3.99 3.985 3.99 3.99 0 0 0 3.99 3.987 4 4 0 0 0 1.647-.36c.454 2.146 1.617 7.95 1.617 11.039 0 .41-1.477 1.156-3.117 1.591-1.247-.364-8.438-2.463-9.7-2.463h-.497c.027-.184.046-.367.046-.557a3.988 3.988 0 0 0-7.973 0zm13.824 8.448c-1.725-1.926-4.652-4.706-6.444-6.367a4 4 0 0 0 .336-.679h.708c.895 0 6.22 1.472 9.583 2.463l.109.035.116-.031c.902-.23 3.852-1.09 3.852-2.44 0-2.867-.934-7.816-1.465-10.39 2.606 3.074 7.549 8.668 9.052 8.668h1.285l1.264-.766 4.636-10.155c.25 2.051 1.56 10.81 5.488 10.81 2.377 0 6.146-3.3 8.741-5.892l-3.978 6.46.156.229c.338.483 2.079 2.89 3.506 2.89.543 0 1.24-.492 2.533-1.432 2.018-1.467 5.064-3.685 8.223-3.685.614 0 1.372.053 2.118.122-6.385 1.642-10.826 7.474-11.969 9.113-.984-.809-7.802-6.091-18.505-6.091-11.08 0-17.83 5.71-19.346 7.138zm.55.636c1.346-1.28 7.906-6.932 18.795-6.932 10.755 0 17.452 5.462 18.03 5.949l-.887 1.274a2.75 2.75 0 0 0-2.628-1.974 2.755 2.755 0 0 0 0 5.509l.178-.011-1.199 1.72c-1.276-1.268-6.201-5.562-14.397-5.562s-13.73 4.397-15.17 5.68c-.463-.735-.792-1.509-1.072-2.243a2.73 2.73 0 0 0 1.652.564 2.752 2.752 0 0 0 0-5.504 2.75 2.75 0 0 0-2.708 2.31 9 9 0 0 0-.594-.78m1.389 1.222c0-1.052.859-1.912 1.913-1.912a1.912 1.912 0 1 1-1.913 1.911zm1.827 5.123c1.23-1.093 6.714-5.531 14.676-5.531 7.837 0 12.663 4.206 13.82 5.34-.954.92-3.1 2.77-5.019 2.77h-17.599c-2.97 0-4.736-1.132-5.878-2.579m30.094-3.363a1.913 1.913 0 0 1-1.907-1.91c0-1.053.856-1.912 1.907-1.912 1.055 0 1.912.859 1.912 1.911l-.028.291-.963 1.38c-.279.155-.595.24-.921.24" style="fill:#fbeb21;fill-rule:evenodd" transform="translate(-74.957 -87.377)"></path><path d="M286.994 405.486a1.914 1.914 0 0 1-1.912 1.911 1.912 1.912 0 0 1 0-3.821c1.054 0 1.912.858 1.912 1.91m-4.665 0a2.754 2.754 0 0 0 5.506 0 2.756 2.756 0 0 0-2.753-2.752 2.757 2.757 0 0 0-2.753 2.752m8.876-1.279a2.757 2.757 0 0 0 2.754 2.754 2.757 2.757 0 0 0 2.752-2.754 2.755 2.755 0 0 0-2.752-2.752 2.756 2.756 0 0 0-2.754 2.752m2.754 1.911a1.914 1.914 0 0 1-1.912-1.911c0-1.053.86-1.911 1.912-1.911a1.912 1.912 0 0 1 0 3.822m5.295-.781a2.753 2.753 0 1 0 2.752-2.754 2.757 2.757 0 0 0-2.752 2.755zm2.752 1.912a1.912 1.912 0 0 1 0-3.822c1.052 0 1.911.856 1.911 1.91a1.915 1.915 0 0 1-1.91 1.912zm-93.491 109.554c-5.266 0-8.798 4.063-8.798 8.95 0 0 3.458-5.64 6.467-5.64h2.858c2.032 0 3.31-.678 3.31-1.354 0-.977-1.881-1.956-3.837-1.956m3.01 4.363c-4.44 0-8.123 3.684-8.123 7.67 0 .678.677 1.28.677 1.28s2.256-5.867 5.114-5.867h1.655c.601 0 4.212-.678 4.212-1.43 0-.827-1.955-1.653-3.535-1.653m4.735 4.74c-3.909 0-7.293 3.91-7.293 8.873 0 1.804 1.353 2.935 1.353 2.935 0-9.328 7.449-7.975 7.449-11.06 0-.3-.528-.748-1.508-.748zm5.344 3.458c-2.408 0-6.168 4.288-6.168 7.672 0 1.729 1.58 4.664 1.58 4.664s-.226-1.732-.226-3.008c0-5.264 6.165-5.718 6.165-8.426 0-.676-.676-.902-1.35-.902z" style="fill:#fbeb21;fill-rule:evenodd" transform="translate(-74.957 -87.377)"></path><path d="M221.604 528.523c1.332 0 2.194.682 2.194 1.743 0 1.456-1.168 2.368-2.392 3.215.976.305 1.935.471 2.828.471h5.267c3.609 0 22.488 22.186 32.87 22.186 3.684 0 5.866-2.854 5.866-5.489v-2.03s8.986-6.508 11.808-9.327c.112-.113.267-.29.455-.51v-1.646c0-.812.352-1.71.487-2.027l.261-.922-1.556-2.033-.7-.809-.925-.908h-3.163c-3.763 0-8.914-1.871-11.477-4.939-.762 1.283-7.962 13.267-11.664 13.267-5.039 0-17.824-12.356-28.8-19.034-1.682-1.024-3.962-1.273-5.436-1.964-2.086-.982-2.542-2.204-4.236-2.204-1.007 0-1.804.328-2.41.818 1.306.475 2.313 1.324 2.313 2.378 0 .65-.438 1.2-1.178 1.588 1.762.148 3.887 1.06 3.887 2.472 0 1.61-3.769 2.135-4.795 2.248.278.485.6.955.935 1.421 1.233-.899 2.674-1.428 4.218-1.428 1.471 0 2.348.812 2.348 1.594 0 1.633-1.37 2.37-2.695 3.083l-.554.302q.822.69 1.685 1.28c1.367-1.626 3.078-2.796 4.56-2.796zm120.785-74.824c-27.224 4.663-65.126 19.092-80.54 32.639-7.621 6.696-11.44 13.958-11.44 19.936 0 7.696 4.401 12.182 9.63 12.182 2.554 0 3.08-.862 3.08-3.233 0-3.235-3.42-3.121-3.42-7.872 0-10.48 37.269-33.043 72.844-33.043 10.305-13.691 21.286-15.646 41.217-17.374l27.94-.69s-7.593-4.577-26.36-4.577c-11.03.013-22.146.303-32.951 2.031z" style="fill:#fbeb21;fill-rule:evenodd" transform="translate(-74.957 -87.377)"></path><path d="M283.377 488.082c-14.674 7.41-22.355 15.303-22.355 19.269 0 2.096.75 2.93 1.617 3.895.805.894 1.805 2.008 1.805 3.977 0 1.306-.167 2.559-.964 3.42-.12.753-.306 2.087-.306 2.85 0 4.309 7.017 7.621 11.73 7.621h1.807s-2.208-2.109-2.208-5.315c0-15.846 24.07-32.494 50.544-32.494 5.009 0 7.609.402 8.724.402 11.331-12.336 15.846-10.731 39.015-11.834 10.44 0 30.904 2.237 30.904 2.237s-21.116-7.552-30.904-7.552c0 0-14.145-1.003-19.358-1.003-3.69 0-13.609.376-19.089.598l-.737.95-.399.526h-.66c-15.579 0-33.498 4.54-49.165 12.453z" style="fill:#fbeb21;fill-rule:evenodd" transform="translate(-74.957 -87.377)"></path><path d="M290.575 502.714c-9.236 6.084-14.747 13.964-14.747 21.085 0 2.573 1.784 4.345 1.802 4.364l2.33 2.274.763.882.975 1.279c3.158-15.267 18.575-24.597 46.256-24.597 0 0 5.946-7.216 17.148-7.216 11.208 0 30.464 4.285 30.464 4.285 4.625 1.565 11.638 4.245 11.638 4.245s-4.874-7.47-12.39-9.81c0 0-19.105-7.073-39.336-7.073h-.576l-.156.17-.347.465-2.293-.14c-1.478-.117-3.708-.297-7.06-.297-12.174 0-24.738 3.676-34.471 10.084" style="fill:#fbeb21;fill-rule:evenodd" transform="translate(-74.957 -87.377)"></path><path d="M327.954 509.327c-25.85 0-41.818 8.36-44.96 23.541l-.752 2.672s-.418.937-.418 1.596c2.774-2.846 19.657-18.35 44.227-15.796 0 0 5.217-5.416 13.888-5.416 18.6 0 42.273 10.533 42.273 10.533l1.259.48s-.597-1.922-1.815-3.138c0 0-17.197-15.545-51.342-15.545l-.78.007c-.36.351-.55.575-.56.587l-.399.479z" style="fill:#fbeb21;fill-rule:evenodd" transform="translate(-74.957 -87.377)"></path><path d="m282.775 538.06-2.275 2.326v-.03c-2.183 3.532-3.39 7.298-3.39 11.045 0 13.691 23.918 6.845 23.918 21.21 0 5.377-4.576 14.572-10.997 15.425-2.315 2.585-6.204 5.547-11.868 5.547-4.001 0-6.459-.888-7.05-1.132h-1.148v-1.323h1.048c1.133-.917 3.558-3.226 3.558-4.903 0-2.393-1.627-5.956-6.11-5.956-1.747 0-4.722 1.005-4.75 1.018a.663.663 0 0 1-.427-1.253c.13-.046 3.209-1.089 5.177-1.089 5.451 0 7.433 4.354 7.433 7.28 0 2.012-2.07 4.182-3.331 5.317 1.09.31 2.996.717 5.6.717 5.356 0 8.988-2.907 11.089-5.335a25 25 0 0 0 .193-3.03c0-10.606-7.973-12.41-14.214-12.41-6.814 0-12.741 2.029-17.328 4.952.627 1.172 1.216 2.758 1.216 4.599 0 3.575-4.446 8.127-6.256 9.83 2.025 1.051 6.633 4.077 6.633 9.801 0 1.836-.904 3.933-1.932 5.73 2.08-1.072 5.25-2.128 9.668-2.128 7.082 0 13.72 5.67 16.232 8.094 1.909-3.328 6.71-9.348 16.511-9.348 2.247 0 5.187.784 6.602 1.204.44-7.594 6.406-12.109 12.205-12.109.342 0 .71.019 1.079.053-1.262-1.228-2.721-3.027-2.721-4.807 0-7.511 8.034-10.428 11.336-11.311-1.806-1.541-5.094-5.074-5.094-10.352 0-5.085 2.863-8.792 4.65-10.617-5.05.182-8.666-.71-10.915-2.783-1.524-1.403-2.397-3.337-2.663-5.857-1.219-.56-5.632-2.495-7.935-2.495-6.978 0-12.39 8.84-12.444 8.933l-1.132-.687c.231-.388 5.843-9.568 13.576-9.568 2.263 0 6.056 1.539 7.848 2.325l-.01-.236c0-5.695 4.94-9.99 11.494-9.99 1.027 0 2.312.165 3.365.332a12 12 0 0 1 2.874-.347c9.78 0 18.957 13.012 18.957 22.265 1.13 0 3.535-2.256 3.535-6.168 0-9.716-10.666-25.254-27.403-28.704l-.176.167-.45.462-.642-.066c-24.793-2.58-41.333 13.556-43.136 15.403zm-19.642 42.018.179-.067-.025.005z" style="fill:#fbeb21;fill-rule:evenodd" transform="translate(-74.957 -87.377)"></path><path d="M315.68 544.707c0 3.045.744 5.145 2.335 6.613 2.194 2.02 6.136 2.813 11.708 2.359l1.257-.361c-2.26-6.643-5.956-10.622-5.956-14.853 0-.877.637-1.72 1.685-2.388a13 13 0 0 0-.858-.034c-5.8 0-10.17 3.724-10.17 8.664zm14.466 10.23c-.698.562-5.441 4.638-5.441 10.755 0 5.989 4.91 9.618 5.568 10.075l.614.181c1.145-4.07 1.806-8.195 1.806-12.06 0-3.618-.531-6.664-1.31-9.306zm-.196 22.113c-1.333.266-11.49 2.527-11.49 10.305 0 1.925 2.802 4.411 3.917 5.237l.6.336c3.114-4.471 5.788-10.001 7.536-15.707zm-11.168 16.381c-5.33 0-10.837 4.306-10.916 11.52l.301.566c2.92-1.535 6.04-3.514 9.04-6.06 1.72-1.46 3.406-3.317 4.99-5.45l-.413-.23c-.395-.079-1.903-.346-3.002-.346m-18.807 10.905c-9.614 0-13.986 6.004-15.562 8.985l.1.106.182.217c5.65-1.505 10.24-3.275 10.24-3.275s5.37-.943 12.056-4.25l-.252-.465c-.93-.294-4.357-1.318-6.764-1.318m-32.743 1.252c-6.929 0-10.572 2.794-11.54 3.66l-.284.38a40 40 0 0 0 3.093 3.186c.019.011 4.262 2.897 13.419 2.897 3.237 0 7.053-.666 10.638-1.527l.263-.593c-2.093-2.053-8.764-8.003-15.589-8.003m-19.425-13.942c.23 6.384 2.859 12.125 6.7 16.9l.194-.188c1.356-1.862 3.472-5.168 3.472-7.692 0-6.014-5.75-8.61-6.618-8.968zm8.985-14.467c-5.49 3.86-8.79 8.987-8.994 13.144l3.641.053c1.932-1.72 6.358-6.296 6.358-9.341 0-1.511-.482-2.846-1.005-3.856" style="fill:#fbeb21;fill-rule:evenodd" transform="translate(-74.957 -87.377)"></path><path d="M268.893 619.89c10.195 4.935 20.25 4.168 20.25 9.884 0 2.333-3.532 7.973-7.971 7.973-1.879 0-4.964-1.505-4.964-1.505s6.47 9.776 12.183 9.776c4.064 0 10.194-2.89 11.83-5.005 2.237-2.894 2.761-5.823 2.761-5.823 4.44 1.806 3.161 11.13 24.22 11.13 19.785 0 26.701-9.624 26.701-9.624s-5.039 2.554-8.877 2.554c-8.29 0-14.506-14.56-21.628-18.201-.804-.415-2.45-.167-2.45-.167h-.663c-8.606 0-17.56 4.57-17.65 4.618l-.587.303-.606-1.176.587-.303c.377-.194 9.322-4.762 18.256-4.762h.663s.2.05.302-.047c1.666-1.629 2.72-5.032 2.72-8.471 0-5.185-1.431-8.798-1.431-8.798s-.074 12.187-18.652 12.187c-4.142 0-6.72-1.787-7.994-2.99-.319.122-4.715 1.797-10.157 3.284 6.03 5.748 29.067 21.946 51.605 25.65l-.217 1.308c-22.561-3.71-47.189-20.544-52.886-26.56-4.086 1.047-8.584 1.91-12.318 1.91-4.306 0-7.576-.622-9.891-1.31a43.4 43.4 0 0 0 6.864 4.164z" style="fill:#fbeb21;fill-rule:evenodd" transform="translate(-74.957 -87.377)"></path><path d="M328.515 521.029q1.127.27 2.216.605v-2.005c-.891.484-1.634.974-2.216 1.4" style="fill:#d5252a;fill-rule:evenodd" transform="translate(-74.957 -87.377)" data-source="https://football-logos.cc"></path><!-- source: https://football-logos.cc --></svg>