<svg xmlns="http://www.w3.org/2000/svg" fill="none" viewBox="0.13 0 46 67.05"><!-- Source: https://football-logos.cc --><g clip-path="url(#a)" data-source="https://football-logos.cc"><path fill="#0081C6" d="M.125 18.3h46V.159C45.949.144 44.404.023 41.874 0h-1.71C31.452.077 14.706 1.39.125 9.304z"></path><path fill="#004178" d="M.125 18.3v22.073c.03.63.08 1.574.127 2.115l.01.11.006.046h45.715l.004-.047.01-.109c.048-.54.098-1.485.128-2.115V18.301z"></path><path fill="url(#b)" d="M.267 42.644c1.102 10.331 7.744 20.35 21.328 24.17 0 0 .92.235 1.53.235s1.53-.234 1.53-.234c13.584-3.822 20.226-13.84 21.328-24.171z"></path><path fill="#fff" d="M10.479 31.053c2.038 0 3.322-.632 3.927-1.932.272-.561.424-1.383.424-2.312v-5.325c-.001-.603-.001-1.008.546-1.034l.103-.005v-.437h-3.04v.431l.097.01c.562.057.562.458.561 1.046v5.008c0 1.34-.193 2.144-.667 2.776-.457.589-1.095.875-1.951.875h-.024c-.856 0-1.494-.286-1.95-.875-.476-.632-.669-1.437-.669-2.776v-5.007c0-.59 0-.99.562-1.047l.096-.01v-.431H5.456v.437l.103.005c.546.026.546.43.546 1.034v5.325c0 .929.151 1.75.424 2.312.603 1.3 1.887 1.932 3.927 1.932zM19.37 21.392c-.942 1.059-1.42 2.439-1.42 4.1 0 1.767.527 3.268 1.486 4.228.886.884 2.314 1.333 4.242 1.333 1.183 0 2.623-.316 3.423-.749l.051-.028.146-2.059h-.44l-.022.076c-.347 1.115-1.191 1.806-3.248 1.806-3.44 0-3.707-3.562-3.707-4.653 0-1.443.365-4.797 3.737-4.797 1.69 0 2.87.483 3.087 1.474l.018.085h.403v-1.793l-.062-.029c-.815-.38-2.047-.608-3.293-.608-1.906 0-3.469.573-4.4 1.614M34.514 29.925c-1.304 0-1.485-.155-1.485-1.27v-7.02c0-.678 0-.766 1.669-.766 2.842.053 4.164 1.459 4.164 4.424 0 4.082-2.197 4.632-4.349 4.632m4.87-8.554c-.975-.914-2.331-1.347-4.272-1.363h-4.864v.422l.099.008c.4.035.95.263.95 1.102v7.75c-.023.74-.408.982-.954 1.041l-.095.01v.482h4.557c1.706 0 2.963-.318 3.952-1 .93-.64 2.038-1.957 2.038-4.591 0-1.633-.489-2.968-1.411-3.86M10.808 36.373c-.318.24-.778.36-1.366.36H8.305V33.64h.976c.755 0 1.283.13 1.57.389.282.256.426.646.426 1.158 0 .552-.158.952-.469 1.186m.678-2.892c-.464-.357-1.18-.539-2.133-.539H7.435v4.489H9.46c.87 0 1.548-.187 2.017-.554.478-.377.72-.928.72-1.64 0-.801-.24-1.391-.71-1.756M18.368 32.942h-.764v2.683c0 .384-.115.677-.351.898-.233.217-.578.327-1.026.327-.455 0-.806-.109-1.043-.323s-.353-.509-.353-.902v-2.683h-.87v2.68c0 .585.201 1.058.597 1.407.394.343.97.518 1.71.518.656 0 1.192-.17 1.59-.508.408-.341.615-.818.615-1.416v-2.68zM23.373 36.57q-.253.162-.763.163h-1.502v-1.29h1.462q.547 0 .802.173c.157.11.233.267.233.483q.002.319-.232.47m-2.265-2.93h1.42c.347 0 .6.047.75.141.137.086.204.224.204.422q0 .269-.188.401-.204.142-.617.142h-1.569zm3.066 1.696a1.4 1.4 0 0 0-.482-.26c.148-.059.278-.132.38-.228.185-.177.28-.417.28-.712q-.002-.6-.442-.902c-.283-.196-.736-.292-1.387-.292h-2.285v4.489h2.414c.594 0 1.056-.114 1.375-.34.33-.235.498-.56.498-.966a.99.99 0 0 0-.351-.789M27.358 32.942h-.766v4.489h3.514v-.698h-2.644v-3.79zM32.335 32.942h-.766v4.489h.87v-4.489zM38.712 32.942h-.766v3.475l-2.676-3.475h-1.066v4.489h.87v-3.475l2.676 3.475h1.066v-4.489z"></path><path fill="#000" d="M31.325 11.018h-.107l-.81 6.049h10.184l-.034-.396h-9.72z"></path><path fill="#fff" d="M34.815 14.888v-2.173c0-.481.395-.871.884-.871.488 0 .884.39.884.87v2.174zm3.535-6.695v1.086h-1.767V8.193a.22.22 0 0 0-.221-.22h-1.327a.22.22 0 0 0-.22.22v1.086h-1.767V8.197c0-.14-.057-.223-.186-.223h-1.36a.22.22 0 0 0-.222.219v1.086h-.662a.22.22 0 0 0-.221.217v.434c0 .12.099.218.22.218h.221v.652c0 .12.1.218.222.218h.265l-.487 5.652h9.72l-.486-5.652h.266a.22.22 0 0 0 .22-.218v-.652h.221c.123 0 .221-.097.221-.218v-.434a.22.22 0 0 0-.22-.217h-.663V8.193a.22.22 0 0 0-.221-.22H38.59c-.216 0-.24.106-.24.22M38.17 6.872c-.354-.042-.45-.878.046-1.248a.83.83 0 0 0 .035.543c.208.404.104.682-.08.705m-2.094-.383c-1.038-.11-.574-2.3.143-2.672-.052.115-.138.815.087 1.244.397.758.31 1.355-.23 1.428m-2.453.65c-.35 0-.597-.43-.384-.857.124-.203.384-.327.293-1.003.304.44.425.711.45.778.17.427.17 1.036-.36 1.081m5.071-1.272c-.285-.328-.079-.89.022-1.007-.437.12-.88.296-1.094.613-.045-.35-.1-.786-.595-1.338-.803-.898-.15-1.542.052-1.775-1.852.504-2.802 2.342-2.442 3.617-.07-.17-.217-.313-.327-.508-.453-.796-.11-1.123-.018-1.38-1.766.945-2.348 2.525-1.406 3.36 0 0 .309.332.795.332.63-.039 1.225-.841 1.02-1.618.223.558.698 1.066 1.548 1.076.37-.023.829-.38 1.078-.768-.048.439.316 1.278 1.148.972.46-.233.737-.979.22-1.576"></path><path fill="#000" d="M17.527 11.714h-.094l-.717 5.353h9.013l-.03-.35h-8.602z"></path><path fill="#fff" d="M20.616 15.139v-1.924c0-.425.35-.77.782-.77s.782.345.782.77v1.923zm3.128-5.926v.961H22.18v-.961a.195.195 0 0 0-.195-.193H20.81a.195.195 0 0 0-.194.193v.961h-1.564v-.957c0-.123-.05-.197-.164-.197h-1.204a.195.195 0 0 0-.196.193v.962h-.586a.195.195 0 0 0-.197.192v.384c0 .107.088.193.197.193h.195v.578c0 .106.087.192.196.192h.234l-.43 5.003H25.7l-.431-5.003h.235a.194.194 0 0 0 .196-.192v-.578h.196a.193.193 0 0 0 .194-.193v-.383a.194.194 0 0 0-.194-.194h-.587v-.961a.195.195 0 0 0-.197-.193h-1.155c-.19 0-.213.092-.213.193M23.676 7.947c-.327-.038-.414-.806.042-1.145a.76.76 0 0 0 .032.498c.191.371.095.626-.075.647M21.76 7.74c-.885-.076-.68-1.745.019-2.433-.046.102.011.765.216 1.095.331.535.328 1.318-.235 1.338m-2.142.359c-.282 0-.484-.347-.31-.694.1-.164.31-.265.237-.812.247.356.345.576.365.63.137.346.137.839-.292.876m4.533-1.082c-.268-.427-.131-.852-.042-.956-.387.105-.823.506-1.012.787-.057-.31 0-.562-.524-1.226-.66-.837-.133-1.363.047-1.57-1.64.446-1.956 1.49-2.194 2.712a4 4 0 0 0-.282-.534c-.154-.254-.14-.59 0-.872-1.562.836-1.982 2.277-1.237 3.135 0 0 .21.31.745.295.557-.034 1.068-.605.886-1.293.198.494.595.866 1.348.875.327-.02.733-.336.953-.68-.043.389.335 1.036.947.887.506-.14.885-.73.365-1.56"></path><path fill="#000" d="M5.876 12.989h-.072l-.546 4.078h6.866l-.023-.268H5.548z"></path><path fill="#fff" d="M8.229 15.598v-1.466c0-.323.266-.586.596-.586.328 0 .596.263.596.586v1.466zm2.383-4.514v.732H9.42v-.732a.15.15 0 0 0-.15-.147h-.893a.15.15 0 0 0-.15.147v.732h-1.19v-.729c0-.094-.038-.15-.125-.15h-.918a.15.15 0 0 0-.149.147v.732h-.447a.15.15 0 0 0-.149.147v.293c0 .081.067.146.149.146h.149v.44c0 .081.067.147.15.147h.178l-.328 3.81h6.554l-.328-3.81h.179a.15.15 0 0 0 .149-.147v-.44h.149a.147.147 0 0 0 .148-.146v-.293a.15.15 0 0 0-.148-.147h-.447v-.732a.15.15 0 0 0-.15-.147h-.88c-.144 0-.162.07-.162.147M10.551 10.116c-.257-.03-.326-.637.034-.906a.6.6 0 0 0 .025.394c.15.294.075.495-.059.512m-1.46-.387c-.62-.067-.343-1.376.086-1.598-.03.069-.083.487.053.743.237.454.185.811-.139.854m-1.682.495c-.217 0-.372-.267-.238-.534.076-.126.238-.204.181-.625.19.274.266.444.282.485.105.267.105.646-.225.674m3.503-.84c-.22-.305-.051-.684.016-.763-.425.094-.69.433-.835.647.02-.342-.183-.647-.372-.92-.465-.666-.102-1.039.035-1.196-1.249.34-1.73 1.265-1.68 2.216-.047-.115-.115-.164-.169-.306-.203-.543.006-.795.068-.968-1.493.68-1.739 1.866-1.103 2.428 0 0 .237.271.645.22.425-.026.774-.502.635-1.027.15.377.47.72 1.044.726.25-.016.562-.072.727-.518-.033.296.53.99 1.005.463.238-.288.224-.669-.016-1.002"></path><path fill="#000" d="M24.16 64.235c-7.577-4.395-11.441-10.624-10.563-19.828-.02-.015-.167-.131-.335-.26-1.242 9.4 3.195 16.024 10.772 20.42z"></path><path fill="url(#c)" d="m24.16 64.236.537-1.39c-6.112-4.386-7.565-9.996-7.322-17.04-1.312-.06-2.556-.473-3.778-1.4-.878 9.205 2.986 15.434 10.563 19.83"></path><path fill="#000" d="M32.752 44.001c-3.545-1.825-6.252-1.738-9.505-.706-3.89 1.234-7.188 1.594-10.088-1.038l.001-.003a6 6 0 0 0-.156.394c2.9 2.631 6.055 2.125 9.992 1.046 3.92-1.075 6.11-1.285 9.668.554z"></path><path fill="url(#d)" d="M23.614 40.549c-2.944.967-6.136.765-7.893-.981-1.065.477-2.123 1.422-2.562 2.69 2.9 2.631 6.198 2.271 10.088 1.037 3.253-1.032 5.96-1.119 9.505.706l.494-1.354c-2.298-2.457-6.875-3.005-9.633-2.099"></path><path fill="#000" d="m32.539 44.72-6.065 17.528c-.895-.418-1.842-1.077-2.472-1.524l-.182.389c.717.545 2.25 1.476 2.842 1.671l6.072-17.973q-.088-.044-.195-.09"></path><path fill="url(#e)" d="M24.002 60.724c.63.447 1.577 1.106 2.472 1.524l6.065-17.53a9 9 0 0 0-1.043-.419z"></path><path fill="#000" d="m18.279 45.795-.349.024 5.08 8.667.197-.301z"></path><path fill="#fff" d="m23.941 53.074-4.38-7.453q-.653.128-1.283.173l4.93 8.39z"></path><path fill="#000" d="M21.158 45.213a11 11 0 0 0-.301.093l3.855 6.599.197-.3z"></path><path fill="#fff" d="m25.641 50.495-3.328-5.663a20 20 0 0 1-1.155.381l3.751 6.392z"></path><path fill="#000" d="M24.666 43.977q-.007.001-.015.004zM23.816 44.274q-.122.042-.28.102l2.878 4.947.195-.296z"></path><path fill="#fff" d="m27.342 47.917-2.375-4.04q-.152.048-.3.1-.008.001-.016.004-.34.114-.688.24l-.147.053 2.793 4.753z"></path><path fill="#000" d="M26.55 43.458a10 10 0 0 0-.344.074l1.901 3.225.202-.307z"></path><path fill="#fff" d="m29.042 45.34-1.22-2.078q-.183.02-.365.046c-.067.01-.136.016-.203.026l-.166.025q-.248.04-.49.089l-.047.008v.001l1.759 2.993z"></path><path fill="#000" d="m31.048 44.163-8.12 15.563c-.216-.198-1.216-1.195-1.828-2.34l-.212.313c.507 1 1.62 2.231 2.118 2.657l8.233-16.13a2 2 0 0 0-.191-.063"></path><path fill="url(#f)" d="M21.1 57.382c.61 1.147 1.612 2.146 1.828 2.344l8.12-15.565a9 9 0 0 0-1.077-.23z"></path></g><defs data-source="https://football-logos.cc"><linearGradient id="b" x1=".267" x2="45.983" y1="54.846" y2="54.846" gradientUnits="userSpaceOnUse"><stop offset="0" stop-color="#008734"></stop><stop offset=".135" stop-color="#00962F"></stop><stop offset=".291" stop-color="#4EA628"></stop><stop offset=".418" stop-color="#6FB121"></stop><stop offset=".5" stop-color="#7AB51D"></stop><stop offset=".596" stop-color="#67AE23"></stop><stop offset=".777" stop-color="#209D2C"></stop><stop offset="1" stop-color="#008734"></stop></linearGradient><linearGradient id="c" x1="15.901" x2="22.387" y1="57.292" y2="50.806" gradientUnits="userSpaceOnUse"><stop offset="0" stop-color="#E7AC00"></stop><stop offset=".084" stop-color="#E7AC00"></stop><stop offset=".098" stop-color="#E8AE00"></stop><stop offset=".276" stop-color="#F1C300"></stop><stop offset=".434" stop-color="#F7D000"></stop><stop offset=".556" stop-color="#F8D400"></stop><stop offset=".904" stop-color="#C1A13D"></stop><stop offset="1" stop-color="#C1A13D"></stop></linearGradient><linearGradient id="d" x1="13.142" x2="33.237" y1="41.907" y2="41.907" gradientUnits="userSpaceOnUse"><stop offset="0" stop-color="#E7AC00"></stop><stop offset=".141" stop-color="#E7AC00"></stop><stop offset=".155" stop-color="#E8AE00"></stop><stop offset=".348" stop-color="#F1C300"></stop><stop offset=".52" stop-color="#F7D000"></stop><stop offset=".652" stop-color="#F8D400"></stop><stop offset="1" stop-color="#C1A13D"></stop></linearGradient><linearGradient id="e" x1="23.988" x2="32.524" y1="53.279" y2="53.279" gradientUnits="userSpaceOnUse"><stop offset="0" stop-color="#E7AC00"></stop><stop offset=".141" stop-color="#E7AC00"></stop><stop offset=".155" stop-color="#E8AE00"></stop><stop offset=".348" stop-color="#F1C300"></stop><stop offset=".52" stop-color="#F7D000"></stop><stop offset=".652" stop-color="#F8D400"></stop><stop offset="1" stop-color="#C1A13D"></stop></linearGradient><linearGradient id="f" x1="21.101" x2="31.054" y1="51.825" y2="51.825" gradientUnits="userSpaceOnUse"><stop offset="0" stop-color="#E7AC00"></stop><stop offset=".141" stop-color="#E7AC00"></stop><stop offset=".155" stop-color="#E8AE00"></stop><stop offset=".348" stop-color="#F1C300"></stop><stop offset=".52" stop-color="#F7D000"></stop><stop offset=".652" stop-color="#F8D400"></stop><stop offset="1" stop-color="#C1A13D"></stop></linearGradient><clipPath id="a"><path fill="#fff" d="M.125 0h46v67.049h-46z"></path></clipPath></defs><!-- source: https://football-logos.cc --></svg>