<svg xmlns="http://www.w3.org/2000/svg" xml:space="preserve" viewBox="336.48 192.28 393.71 415.43"><!-- Source: https://football-logos.cc --><defs data-source="https://football-logos.cc"><clipPath id="a" clipPathUnits="userSpaceOnUse"><path d="M0 600h800V0H0Z"></path></clipPath></defs><g clip-path="url(#a)" transform="matrix(1.33333 0 0 -1.33333 0 800)" data-source="https://football-logos.cc"><path d="m0 0 4.91 4.665-2.553 6.272-12.711 31.228-2.724 6.694-7.218-.539c-.034-.003-3.523-.258-9.546-.258-17.375 0-62.762 2.23-108.829 22.892l-4.061 1.822-4.062-1.822c-46.067-20.662-91.454-22.892-108.829-22.892-6.024 0-9.512.255-9.546.258l-7.207.538-2.735-6.693-12.711-31.228-2.553-6.272 4.91-4.665c13.222-12.562 19.383-27.015 19.389-45.483.007-16.65-4.81-34.866-9.907-54.152-1.272-4.809-2.586-9.781-3.831-14.761-5.93-23.706-6.14-41.41-.663-55.716 4.391-11.467 14.476-28.519 51.206-44.148 33.073-14.073 82.557-23.764 84.648-24.169l1.891-.367 1.89.367c2.09.405 51.575 10.096 84.649 24.169 36.729 15.629 46.814 32.681 51.205 44.148 5.477 14.306 5.267 32.01-.662 55.716-1.246 4.98-2.56 9.952-3.831 14.761-5.099 19.286-9.914 37.502-9.908 54.152C-19.383-27.015-13.221-12.562 0 0" style="fill:#666;fill-opacity:1;fill-rule:nonzero;stroke:none" transform="translate(542.732 383.01)"></path><path d="m0 0-12.71 31.228-1.894 4.654-5.017-.378c-.035-.002-3.609-.266-9.773-.266-17.57 0-63.467 2.257-110.068 23.158l-2.822 1.265-2.822-1.265c-46.602-20.901-92.499-23.158-110.07-23.158-6.165 0-9.736.264-9.771.266l-5.011.378-1.9-4.654L-284.568 0l-1.775-4.358 3.412-3.242c13.865-13.172 20.326-28.322 20.331-47.678.007-17.043-4.857-35.445-10.007-54.926-1.269-4.799-2.58-9.762-3.822-14.722-5.771-23.075-6.016-40.201-.771-53.898 4.193-10.951 13.893-27.267 49.562-42.445 32.783-13.95 81.962-23.58 84.04-23.983l1.314-.255 1.313.255c2.078.403 51.258 10.033 84.04 23.983 35.669 15.178 45.369 31.494 49.563 42.445 5.244 13.697 4.999 30.823-.773 53.898-1.24 4.96-2.551 9.923-3.82 14.722-5.149 19.482-10.016 37.883-10.009 54.926.007 19.356 6.469 34.506 20.333 47.678l3.411 3.242z" style="fill:#fff;fill-opacity:1;fill-rule:nonzero;stroke:none" transform="translate(542.284 392.806)"></path><path d="m0 0-12.711 31.228s-60.492-4.644-123.185 23.475c-62.695-28.119-123.186-23.475-123.186-23.475L-271.793 0c16.904-16.06 22.472-33.767 22.479-52.675.007-22.34-7.791-46.359-14.037-71.324-3.056-12.222-4.441-22.484-4.297-31.24L-17.427-24.911C-13.911-16.242-8.336-7.92 0 0" style="fill:#e20613;fill-opacity:1;fill-rule:nonzero;stroke:none" transform="translate(535.896 390.206)"></path><path d="M0 0c.471-4.837 1.47-9.178 2.976-13.109 3.959-10.338 13.253-24.705 45.822-38.565 32.488-13.824 82.653-23.558 82.653-23.558s50.165 9.734 82.653 23.558c32.568 13.86 41.864 28.227 45.823 38.565 4.577 11.955 4.507 27.654-1.022 49.759-6.245 24.965-14.044 48.984-14.036 71.324.003 7.177.81 14.181 2.731 20.988z" style="fill:#004d99;fill-opacity:1;fill-rule:nonzero;stroke:none" transform="translate(268.549 229.557)"></path><path d="M0 0c0-20.472-16.603-37.084-37.083-37.079C-57.56-37.079-74.17-20.472-74.17 0c0 20.49 16.607 37.087 37.083 37.087C-16.603 37.087 0 20.485 0 0" style="fill:#fff;fill-opacity:1;fill-rule:nonzero;stroke:none" transform="translate(381.33 332.85)"></path><path d="M0 0c-6.947 0-15.019 2.273-23.059 9.549l1.655.836S-14.563 7.05-5.572 7.05c7.253 0 15.908 2.167 23.484 10.013 16.974 17.558 11.702 26.535 10.335 35.119 0 0 17.173-23.802-8.19-45.853C20.057 6.329 11.592 0 0 0" style="fill:#c5c5c5;fill-opacity:1;fill-rule:nonzero;stroke:none" transform="translate(344.008 299.207)"></path><path d="m0 0 5.267-4.976 7.319-12.48-1.269-.977S2.339-11.216 0 0" style="fill:#000;fill-opacity:1;fill-rule:nonzero;stroke:none" transform="translate(311.587 325.438)"></path><path d="m0 0 5.17 8 14.635.288L22.728.389S18.34-2.437 10.733-4.489c0 0-7.314 1.658-10.733 4.489" style="fill:#000;fill-opacity:1;fill-rule:nonzero;stroke:none" transform="translate(336.167 304.855)"></path><path d="m0 0 13.563-3.609 7.709 12.971-8.385 11.804L-.19 15.315Z" style="fill:#000;fill-opacity:1;fill-rule:nonzero;stroke:none" transform="translate(321.038 328.268)"></path><path d="m0 0 7.121-13.073 9.747 3.9s.593 9.85-.389 13.856l-9.748 6.148z" style="fill:#000;fill-opacity:1;fill-rule:nonzero;stroke:none" transform="translate(356.754 338.219)"></path><path d="M0 0s11.521 4.392 22.639-.88l-1.662-4.582s-10.438.973-14.922.098z" style="fill:#000;fill-opacity:1;fill-rule:nonzero;stroke:none" transform="translate(334.115 364.948)"></path><path d="M0 0s1.95 8.783 9.172 15.315L4.294 5.466Z" style="fill:#000;fill-opacity:1;fill-rule:nonzero;stroke:none" transform="translate(311.874 341.925)"></path><path d="M0 0c-1.632 0-2.968 1.295-2.968 3.012C-2.99 4.705-1.632 6.02.021 6.02c1.646 0 2.986-1.297 2.986-3.008C3.007 1.312 1.693 0 .021 0Z" style="fill:#fff;fill-opacity:1;fill-rule:nonzero;stroke:none" transform="translate(367.683 194.822)"></path><path d="M0 0h-.044l-2.711-1.23-.614 2.857 3.94 1.742h3.117v-13.766H0Z" style="fill:#fff;fill-opacity:1;fill-rule:nonzero;stroke:none" transform="translate(380.728 202.703)"></path><path d="M0 0c-.85 0-1.525-.777-1.504-1.985 0-.978.487-1.907 1.646-1.907.725 0 1.194.315 1.402.656.105.212.15.441.15.866C1.716-1.291 1.287 0 .022 0Zm-4.007-8.49c.425-.045.721-.045 1.362-.028.952.028 1.924.235 2.645.642.885.504 1.46 1.292 1.694 2.079l-.045.017c-.552-.509-1.375-.779-2.56-.779-2.269 0-4.387 1.497-4.387 4.313 0 2.76 2.269 5.002 5.404 5.002 3.857 0 5.48-2.897 5.48-5.971 0-2.822-.84-4.9-2.406-6.293-1.424-1.273-3.397-1.906-5.825-1.945-.491-.027-1.021.016-1.362.039z" style="fill:#fff;fill-opacity:1;fill-rule:nonzero;stroke:none" transform="translate(393.718 203.547)"></path><path d="M0 0v2.304l1.909 1.675c2.796 2.42 4.215 3.852 4.233 5.254 0 .996-.659 1.717-2.052 1.717-1.146 0-2.181-.575-2.945-1.123L.105 12.56c1.057.783 2.795 1.441 4.746 1.441 3.197 0 5.107-1.737 5.107-4.453 0-2.198-1.569-3.981-3.201-5.312L5.399 3.171v-.04h4.789V0Z" style="fill:#fff;fill-opacity:1;fill-rule:nonzero;stroke:none" transform="translate(400.879 192.306)"></path><path d="M0 0h-5.378l-.19-1.485c.3.039.531.039.783.039 1.42 0 2.901-.336 3.923-1.101C.15-3.308.682-4.431.682-5.974c0-2.521-2.226-4.896-6.25-4.896-1.734 0-3.198.363-4.002.766l.632 2.861c.615-.302 1.928-.664 3.158-.664 1.163 0 2.543.429 2.543 1.72 0 1.252-1.107 1.956-3.834 1.956-.74 0-1.256-.049-1.845-.133l.911 7.5H0Z" style="fill:#fff;fill-opacity:1;fill-rule:nonzero;stroke:none" transform="translate(422.61 202.936)"></path><path d="M0 0c-1.627 0-2.963 1.291-2.963 3.012C-2.985 4.705-1.627 6.02.022 6.02a2.97 2.97 0 0 0 2.991-3.008C3.013 1.312 1.698 0 .022 0Z" style="fill:#fff;fill-opacity:1;fill-rule:nonzero;stroke:none" transform="translate(432.273 194.822)"></path><path d="M0 0c-5.63 0-7.111 2.985-7.111 6.687v11.18h4.825V6.921c0-1.862.57-2.88 2.569-2.88 1.942 0 2.57.837 2.57 3.012v10.814H7.62V7.314C7.62 2.229 4.688 0 0 0" style="fill:#fff;fill-opacity:1;fill-rule:nonzero;stroke:none" transform="translate(307.96 215.285)"></path><path d="m0 0-2.928 5.992a49 49 0 0 0-1.743 3.945c.107-1.04.133-1.635.133-2.778V0h-4.644v17.509h6.174l2.543-5.215c.747-1.553 1.53-3.131 2.123-4.537a36 36 0 0 0-.181 3.635v6.117H6.12V0Z" style="fill:#fff;fill-opacity:1;fill-rule:nonzero;stroke:none" transform="translate(328.817 215.644)"></path><path d="M0 0v-13.36h-4.821V0H-8.61v4.148H3.785V0Z" style="fill:#fff;fill-opacity:1;fill-rule:nonzero;stroke:none" transform="translate(346.67 229.004)"></path><path d="M0 0v17.509h10.247v-4.1H4.824v-2.464h5.131v-3.94H4.824v-2.83h5.423V0Z" style="fill:#fff;fill-opacity:1;fill-rule:nonzero;stroke:none" transform="translate(353.58 215.644)"></path><path d="M0 0c-.313 0-.752-.026-.91-.054v-3.759c.181-.026.543-.047.805-.047 1.317 0 2.228.693 2.228 1.99C2.123-.827 1.579 0 0 0m2.562-13.67L-.729-7.284H-.91v-6.386h-4.821V3.839c1.627.101 3.786.128 5.988.128 4.462 0 6.948-1.579 6.948-5.475 0-2.07-1.164-4.065-3.189-4.79a41 41 0 0 0 1.273-2.025L8.43-13.67Z" style="fill:#fff;fill-opacity:1;fill-rule:nonzero;stroke:none" transform="translate(373.325 229.314)"></path><path d="M0 0v6.903h-5.24V0h-4.825v17.509h4.825v-6.383H0v6.383h4.821V0Z" style="fill:#fff;fill-opacity:1;fill-rule:nonzero;stroke:none" transform="translate(394.42 215.644)"></path><path d="M0 0c-.309 1.008-.628 1.945-.805 3.033h-.052c-.16-1.008-.492-2.176-.855-3.316l-.597-1.92H.699Zm2.826-8.845-.907 2.852H-3.48l-.875-2.852h-4.777l5.709 17.509h5.524L8.094-8.845Z" style="fill:#fff;fill-opacity:1;fill-rule:nonzero;stroke:none" transform="translate(410.9 224.488)"></path><path d="M0 0c-6.873 0-8.301 4.75-8.301 8.275 0 5.838 3.29 9.602 9.027 9.602 1.141 0 2.357-.16 3.374-.42l-.548-4.353c-.832.23-1.84.39-2.826.39-2.278 0-3.711-1.588-3.711-4.414 0-3.033 1.168-4.666 3.891-4.666.753 0 1.92.182 2.646.486l.57-4.302C2.901.208 1.397 0 0 0" style="fill:#fff;fill-opacity:1;fill-rule:nonzero;stroke:none" transform="translate(429.244 215.408)"></path><path d="M0 0v6.898h-5.24V0h-4.821v17.509h4.821v-6.383H0v6.383h4.825V0Z" style="fill:#fff;fill-opacity:1;fill-rule:nonzero;stroke:none" transform="translate(447.147 215.644)"></path><path d="M456.027 233.152h4.824v-17.509h-4.824z" style="fill:#fff;fill-opacity:1;fill-rule:nonzero;stroke:none"></path><path d="m0 0-2.932 5.992c-.672 1.375-1.296 2.773-1.738 3.941.107-1.036.133-1.631.133-2.774V0h-4.644v17.509h6.174l2.539-5.215c.752-1.553 1.53-3.135 2.127-4.537a36 36 0 0 0-.181 3.631v6.121h4.639V0Z" style="fill:#fff;fill-opacity:1;fill-rule:nonzero;stroke:none" transform="translate(474.084 215.644)"></path><path d="M0 0a12.8 12.8 0 0 1-4.644.858c-3.188 0-4.851-1.999-4.851-4.825 0-2.724 1.296-4.512 4.281-4.512.362 0 .725.049.982.129v5.317h4.83v-8.633c-1.686-.756-3.914-1.221-6.299-1.221-5.895 0-9.03 3.343-9.03 8.58 0 5.682 3.944 9.526 10.317 9.526 1.822 0 3.711-.34 5.143-.783z" style="fill:#fff;fill-opacity:1;fill-rule:nonzero;stroke:none" transform="translate(498.422 228.22)"></path><path d="M0 0c-1.075 0-2.193.097-3.242.328l.239 3.957c.862-.305 2.167-.557 3.353-.557 1.051 0 1.724.439 1.724 1.164 0 2.281-5.869.933-5.874 6.315 0 3.113 2.403 5.121 6.551 5.121.791 0 1.884-.097 2.861-.261l-.23-3.746c-.911.253-1.84.416-2.799.416-1.212 0-1.721-.487-1.721-1.092 0-1.977 5.868-1.208 5.868-6.121C6.73 2.379 4.188 0 0 0" style="fill:#fff;fill-opacity:1;fill-rule:nonzero;stroke:none" transform="translate(296.749 385.66)"></path><path d="M0 0c-.075 0-.229 0-.415-.022v-3.843c.159-.022.252-.022.318-.022 1.119 0 2.123.694 2.123 2.003C2.026-.858 1.491 0 0 0m.23-7.501c-.088 0-.349 0-.645.027v-4.842h-4.334V3.401A96 96 0 0 0 0 3.52c4.188 0 6.493-1.795 6.493-5.263 0-3.056-2.048-5.758-6.263-5.758" style="fill:#fff;fill-opacity:1;fill-rule:nonzero;stroke:none" transform="translate(311.334 398.281)"></path><path d="M320.608 401.682h4.33v-15.717h-4.33z" style="fill:#fff;fill-opacity:1;fill-rule:nonzero;stroke:none"></path><path d="M0 0v15.717h9.203v-3.679H4.334V9.827h4.608V6.284H4.334V3.75h4.869V0Z" style="fill:#fff;fill-opacity:1;fill-rule:nonzero;stroke:none" transform="translate(328.578 385.965)"></path><path d="M0 0v15.717h4.33V3.861h4.334V0Z" style="fill:#fff;fill-opacity:1;fill-rule:nonzero;stroke:none" transform="translate(341.16 385.965)"></path><path d="M0 0h-5.1l-5.17 15.717h4.653l2.397-7.872c.261-.836.535-1.724.774-2.795h.045c.185.982.3 1.588.747 3.025l2.326 7.642h4.427z" style="fill:#fff;fill-opacity:1;fill-rule:nonzero;stroke:none" transform="translate(361.593 385.965)"></path><path d="M0 0v15.717h9.199v-3.684H4.335V9.827h4.612V6.284H4.335V3.746h4.864V0Z" style="fill:#fff;fill-opacity:1;fill-rule:nonzero;stroke:none" transform="translate(369.026 385.965)"></path><path d="M0 0c-.278 0-.673-.022-.813-.044v-3.379c.163-.022.486-.045.72-.045 1.19 0 1.999.628 1.999 1.792C1.906-.743 1.424 0 0 0m2.304-12.273L-.65-6.546h-.163v-5.727l-4.331.005V3.449c1.464.093 3.397.115 5.373.115 4.012 0 6.241-1.424 6.241-4.913 0-1.862-1.043-3.658-2.862-4.308.416-.628.792-1.207 1.137-1.818l2.822-4.798z" style="fill:#fff;fill-opacity:1;fill-rule:nonzero;stroke:none" transform="translate(386.757 398.233)"></path><path d="M0 0v15.717h9.199v-3.684h-4.87V9.827h4.613V6.284H4.329V3.746h4.87V0Z" style="fill:#fff;fill-opacity:1;fill-rule:nonzero;stroke:none" transform="translate(396.663 385.965)"></path><path d="M409.241 401.682h4.334v-15.717h-4.334z" style="fill:#fff;fill-opacity:1;fill-rule:nonzero;stroke:none"></path><path d="m0 0-2.627 5.382c-.606 1.23-1.167 2.491-1.561 3.538a22 22 0 0 0 .115-2.494V0h-4.166v15.722h5.542l2.281-4.683C.261 9.641.955 8.222 1.49 6.961a34 34 0 0 0-.154 3.264v5.497h4.165V0Z" style="fill:#fff;fill-opacity:1;fill-rule:nonzero;stroke:none" transform="translate(425.454 385.96)"></path><path d="M434.596 401.682h4.334V385.96h-4.334z" style="fill:#fff;fill-opacity:1;fill-rule:nonzero;stroke:none"></path><path d="M0 0a11.5 11.5 0 0 1-4.167.766c-2.865 0-4.355-1.787-4.355-4.33 0-2.441 1.163-4.051 3.847-4.051.32 0 .646.048.88.115v4.776h4.33v-7.753c-1.513-.676-3.512-1.097-5.656-1.097-5.285 0-8.107 3.008-8.107 7.713 0 5.1 3.542 8.545 9.269 8.545 1.633 0 3.336-.306 4.613-.703z" style="fill:#fff;fill-opacity:1;fill-rule:nonzero;stroke:none" transform="translate(455.275 397.255)"></path><path d="M0 0c-5.056 0-6.382 2.68-6.382 6.01l-.005 10.035h4.335V6.218c0-1.672.513-2.583 2.304-2.583 1.747 0 2.304.747 2.304 2.702v9.708h4.286V6.567C6.842 2.003 4.21 0 0 0" style="fill:#fff;fill-opacity:1;fill-rule:nonzero;stroke:none" transform="translate(465.815 385.633)"></path><path d="m0 0-2.632 5.382a42 42 0 0 0-1.556 3.534c.092-.934.115-1.459.115-2.49V0h-4.166v15.718h5.541l2.278-4.679C.261 9.641.955 8.222 1.49 6.961a34 34 0 0 0-.164 3.26v5.497h4.171V0Z" style="fill:#fff;fill-opacity:1;fill-rule:nonzero;stroke:none" transform="translate(484.544 385.96)"></path><path d="M0 0a11.6 11.6 0 0 1-4.171.766c-2.861 0-4.351-1.792-4.351-4.326 0-2.445 1.163-4.06 3.847-4.06.32 0 .647.053.876.12v4.772H.539v-7.753c-1.517-.672-3.516-1.093-5.66-1.093-5.29 0-8.107 3.003-8.107 7.709 0 5.099 3.543 8.549 9.275 8.549 1.627 0 3.325-.306 4.607-.703z" style="fill:#fff;fill-opacity:1;fill-rule:nonzero;stroke:none" transform="translate(506.396 397.255)"></path><path d="M0 0c-3.064-.65-6.028 1.039-6.611 3.759-.2.924-.102 1.867.252 2.733-.983 1.022-1.375 2.321-1.447 3.198-.243 1.804.827 3.674 3.269 5.718.99.827 1.875 1.402 1.914 1.433l.089.053L34.982 36.45l1.155-1.211c.15-.164.309-.318.465-.468.057 3.577 2.985 5.642 5.205 6.186l.075.022c2.6.548 4.378-.136 5.448-.853 1.062 1.574 2.76 2.534 4.171 2.884l.071.016c2.605.553 4.391-.131 5.449-.843 1.065 1.569 2.763 2.533 4.169 2.882l.08.018c2.605.553 4.383-.133 5.454-.844 1.056 1.57 2.75 2.53 4.165 2.883l.076.018c2.706.57 4.523-.195 5.572-.938a6 6 0 0 0 1.371-1.335l3.799-1.208-.336-1.901c-.456-2.605-.279-3.764-.164-4.189l6.086-2.511.04-.018c3.546-1.627 4.555-4.148 4.66-4.427.346-.907.469-1.796.367-2.614.903-.689 1.549-1.654 1.783-2.777.3-1.407-.08-2.897-1.062-4.082-.844-1.026-2.073-1.751-3.448-2.043L.005 0Z" style="fill:#fff;fill-opacity:1;fill-rule:nonzero;stroke:none" transform="translate(395.491 252.169)"></path><path d="m0 0-1.119-.243-.217.991 1.128.247c.491.111.77-.043.836-.326L.632.65C.689.358.486.106 0 0m-1.836 3.065.969.213c.473.101.753-.013.814-.306l.004-.018c.063-.3-.128-.508-.605-.613l-.978-.213Zm3.012-.916c.664.403 1.04.992.863 1.788l-.005.017c-.097.46-.348.77-.637.951-.477.315-1.1.389-2.025.19l-3.75-.809 1.445-6.691 3.702.804c1.694.368 2.406 1.34 2.176 2.407L2.94.831c-.194.912-.852 1.252-1.764 1.318" style="fill:#000;fill-opacity:1;fill-rule:nonzero;stroke:none" transform="translate(440.836 268.802)"></path><path d="M0 0c-.738-.155-1.38.34-1.569 1.207l-.005.022c-.173.804.181 1.575.937 1.734.611.129 1.035-.128 1.385-.549l1.609 1.478c-.783.897-1.932 1.401-3.396 1.079-2.008-.43-3.242-2.256-2.804-4.254V.703c.451-2.074 2.366-3.122 4.219-2.724 1.663.358 2.429 1.38 2.777 2.499l-2.073.637C.911.557.628.137 0 0" style="fill:#000;fill-opacity:1;fill-rule:nonzero;stroke:none" transform="translate(447.832 270.496)"></path><path d="m0 0-2.277-.496.804-3.715c.173-.805-.185-1.221-.792-1.357-.591-.124-1.105.131-1.291.963l-.782 3.662-2.278-.491.796-3.689c.482-2.215 1.977-2.856 3.967-2.422 1.999.432 3.136 1.613 2.641 3.9z" style="fill:#000;fill-opacity:1;fill-rule:nonzero;stroke:none" transform="translate(457.075 277.55)"></path><path d="M0 0c-.402-.482-1.008-.836-1.706-.982l-20.521-4.373L-18.521-.5l15.992 3.405c1.402.302 2.733-.331 2.954-1.401C.536.995.39.469 0 0m-23.368-5.599-65.118-13.874h-.009c-1.393-.3-2.725.332-2.954 1.403-.226 1.07.734 2.189 2.132 2.485l40.311 8.599-.04.175.031.008-1.008 4.733a1.434 1.434 0 0 0 1.106 1.699l21.471 4.559a1.436 1.436 0 0 0 1.698-1.106l.885-4.16-.035-.014.159-.734 5.081 1.083zM-54.64 9.346c2.278-2.256 4.785-3.575 7.191-4.349.261-.088.53-.172.791-.247a20.3 20.3 0 0 1 4.49-.682 22 22 0 0 1 2.887.054q.776.066 1.327.159c.367.053.663.107.862.155.173.031.261.053.266.053l6.934 1.636 1.217.283 8.119 1.916 1.172.27 4.352 1.025c.279.067.54.203.778.371.691.461 1.23 1.261 1.654 2.203.133.305.257.628.372.959.031.084.057.169.088.257q.207-.856.633-1.388c.389-.469.81-.615 1.048-.667l2.539-1.058-78.779-17.663Zm7.633-1.801-.044-.022a.7.7 0 0 0-.332-.101c-.172 0-.239.185-.239.193l-.093.435-.149.149-.032.133.027.16-.142.636-.367.089-.014.473 2.066.438c0 .005.035.013.089.013.194 0 .252-.079.283-.216l.318-1.495.022-.137.027-.07zm-1.672 2.928a4 4 0 0 0-.04.804c.053 2.487 2.645 3.185 2.765 3.215.402.084.796.133 1.149.133 2.933 0 3.353-2.918 3.375-3.077.226-1.079.128-1.938-.314-2.558a2 2 0 0 0-.646-.569c-.429-.261-.809-.354-.92-.367l-.052-.013-.589-.124a.6.6 0 0 0-.332.018.5.5 0 0 0-.203.101 1 1 0 0 0-.327.439l-.023.109-.035.182-.282 1.332c-.102.49-.461.791-.943.843l-.141.018c-.142 0-.252-.026-.266-.026zm2.615-3.393.888.434a1.39 1.39 0 0 1 1.026-.438c.115 0 .239.014.363.039l.548.112c.031.003.513.07 1.071.353.194-.013.357-.053.446-.133.54-.486 1.181-1.343 1.384-2.295l.067-.332a20.4 20.4 0 0 0-6.143.655c.119.296.225.576.402.929l.062.129zm5.483 4.269.766.163.003-.309-.07-.633.562-.132-.023-.128.107-.54.149-.142.049-.212c.084-.288.407-.822 1.049-.822.173 0 .353.07.54.144l.021-.109c-.902-1.876-.964-3.004-.844-3.627a15 15 0 0 0-1.167-.133l-.098.451c-.306 1.447-1.327 2.459-1.632 2.734-.058.053-.133.075-.203.115q.15.158.287.336c.53.743.686 1.712.504 2.844m4.012 5.133c.406.089.799.133 1.159.133 2.923 0 3.347-2.918 3.369-3.073.226-1.083.119-1.94-.318-2.556a2.2 2.2 0 0 0-.651-.58 2.9 2.9 0 0 0-.91-.362l-.067-.009-.584-.129a.6.6 0 0 0-.314.024.6.6 0 0 0-.212.096 1 1 0 0 0-.328.443l-.021.105-.039.178-.285 1.331c-.101.499-.459.8-.946.853l-.129.018c-.149 0-.256-.022-.268-.026l-2.172-.465c-.053.301-.049.549-.049.808.053 2.483 2.649 3.181 2.765 3.211m-2.048-5.363-.376.084-.005.486 2.061.434s.041.008.092.008c.187 0 .24-.074.271-.216l.318-1.49.027-.142.031-.066-1.424-.682-.044-.017a.7.7 0 0 0-.323-.102c-.177 0-.248.189-.252.194l-.093.429-.151.147-.027.141.027.155zm1.936-2.044.904.425a1.36 1.36 0 0 1 1.011-.434c.12 0 .24.009.372.036l.544.124c.032 0 .517.061 1.071.354.198-.022.362-.062.45-.142.531-.482 1.173-1.34 1.376-2.292l.101-.468-6.147-1.446-.252-.062c-.049-.009-.137-.026-.198-.035-.089.425-.098 1.388.822 3.26l.062.127zm5.489 4.269.765.158.004-.305-.07-.633.557-.126-.022-.133.111-.541.155-.146.044-.212c.079-.287.393-.827 1.044-.827.176 0 .358.079.543.155l.023-.121c-.841-1.746-.947-2.829-.867-3.479l-1.151-.271-.092.452c-.305 1.433-1.327 2.455-1.631 2.729-.054.058-.138.079-.204.12.097.102.194.211.283.34.535.734.689 1.703.508 2.84m4.006 5.129c.413.084.801.132 1.156.132 2.931 0 3.351-2.917 3.374-3.073.234-1.079.124-1.941-.31-2.552-.19-.265-.42-.433-.645-.579a2.8 2.8 0 0 0-.925-.367l-.058-.009-.588-.129a.66.66 0 0 0-.323.023.7.7 0 0 0-.203.098 1.16 1.16 0 0 0-.331.437l-.023.114-.035.178-.283 1.332c-.106.494-.46.799-.947.844l-.128.021c-.154 0-.256-.026-.274-.026l-2.171-.46a3.6 3.6 0 0 0-.04.805c.053 2.482 2.644 3.184 2.754 3.211m-2.046-5.356-.368.084-.013.479 2.061.437s.044.004.097.004c.19 0 .243-.084.274-.217l.319-1.486.026-.141.026-.066-1.419-.686-.044-.021a.74.74 0 0 0-.331-.098c-.173 0-.24.19-.244.196l-.092.432-.156.146-.026.133.026.154zm1.936-2.052.902.433c.24-.252.566-.441 1.018-.441.123 0 .238.013.367.039l.544.12c.03.005.522.066 1.079.354.195-.018.354-.058.443-.142.26-.239 1.127-1.101 1.379-2.295l.048-.257-6.567-1.548c-.048.5.045 1.424.841 3.061l.061.128zm5.497 4.269.761.158.005-.301-.075-.632.561-.133-.026-.136.115-.536.154-.15.04-.204c.079-.287.403-.827 1.048-.827.173 0 .359.072.54.146l.027-.106c-.752-1.565-.92-2.604-.889-3.273l-1.168-.274-.058.239c-.296 1.429-1.317 2.451-1.627 2.738-.062.04-.137.066-.203.106.097.106.198.221.282.34.536.743.69 1.708.513 2.845m4.003 5.129q.618.127 1.15.129c2.936 0 3.357-2.914 3.375-3.07.229-1.079.127-1.936-.315-2.555a2 2 0 0 0-.645-.576c-.42-.256-.81-.34-.92-.363l-.049-.012-.588-.124a.65.65 0 0 0-.328.022.54.54 0 0 0-.202.097 1 1 0 0 0-.332.437l-.027.107-.036.177-.278 1.335c-.107.495-.46.796-.946.849l-.133.018c-.146 0-.256-.022-.27-.027l-2.167-.464c-.057.301-.049.553-.049.815.054 2.476 2.645 3.174 2.76 3.205m-2.053-5.359-.37.087-.01.474 2.066.439.093.007c.194 0 .243-.074.278-.212l.318-1.495.023-.136.026-.071-1.415-.677-.044-.018a.7.7 0 0 0-.332-.106c-.177 0-.243.186-.247.2l-.094.428-.15.142-.03.142.026.154zm6.733-2.141c-.496-1.301-1.164-2.375-2.102-2.609l-3.498-.819c.009.535.173 1.429.862 2.844l.062.123-.105.554.892.432a1.36 1.36 0 0 1 1.018-.441q.172 0 .371.04l.544.124c.031 0 .513.06 1.066.353.194-.017.362-.062.451-.141.137-.128.287-.283.439-.46M1.177 1.658C.934 2.76-.079 3.534-1.335 3.701c.558.487 1.088 1.381.504 2.88 0 0-.663 1.831-3.393 3.083l-1.14.473-.111-.022-4.772 1.968s-2.109.062-1.004 6.351l-.686.22s-.194-2.529-.879-4.816c-.062.071-.141.15-.181.19-.063.054-.143.076-.213.12.102.102.195.204.288.331.583.81.738 1.898.464 3.185-.009.035-.526 3.75-4.188 3.75-.412 0-.854-.053-1.332-.15-.043-.014-4.103-1.049-3.33-5.002a1 1 0 0 1-.052-.119l-.452-.712c-.013.084-.013.155-.031.239-.005.035-.526 3.75-4.187 3.75-.412 0-.859-.045-1.337-.15-.039-.01-4.095-1.041-3.329-4.999l-.049-.119-.46-.698c-.014.079-.014.146-.027.226-.008.035-.53 3.754-4.178 3.754-.416 0-.867-.049-1.341-.146-.044-.014-4.1-1.052-3.339-5.007a1 1 0 0 0-.049-.128l-.451-.703c-.017.079-.017.155-.035.239 0 .036-.522 3.754-4.18 3.754-.411 0-.862-.048-1.34-.15-.035-.013-4.094-1.043-3.33-5.001l-.053-.12-.548-.836.876.19.005-.313-.076-.629.561-.133-.021-.132.114-.54.15-.141.045-.216c.079-.279.402-.823 1.039-.823.177 0 .362.075.544.154l.026-.114a11 11 0 0 1-.393-.92c-2.445.787-5.007 2.162-7.288 4.554L-89.3-7.872s-.734-.469-1.574-1.163l-.022-.004c-1.216-1.014-2.619-2.473-2.407-3.662 0 0 .084-2.295 2.527-2.676-1.044-.664-1.646-1.764-1.412-2.844.319-1.486 2.048-2.375 3.857-1.995l65.312 13.913.044-.03.036.049 21.396 4.555c.862.19 1.618.628 2.136 1.251.526.642.729 1.407.584 2.136" style="fill:#000;fill-opacity:1;fill-rule:nonzero;stroke:none" transform="translate(484.455 275.1)"></path></g><!-- source: https://football-logos.cc --></svg>