<svg xmlns="http://www.w3.org/2000/svg" width="289.034" height="336.331" viewBox="0 0 672.653 781.824"><!-- Source: https://football-logos.cc --><defs data-source="https://football-logos.cc"><clipPath id="b" clipPathUnits="userSpaceOnUse"><path d="M34.02 354.33h34.011v45.351H34.02Z"></path></clipPath><clipPath id="a" clipPathUnits="userSpaceOnUse"><path d="M34.02 357.21h34.011v39.595H34.02Z"></path></clipPath></defs><g clip-path="url(#a)" transform="matrix(19.77752 0 0 -19.77752 -672.831 7847.002)"><path d="M0 0c10.547 3.808 18.322 4.249 29.188-.003l.01-.016c3.441-10.553 2.158-26.908-14.596-34.84h-.023C-2.175-26.927-3.458-10.572-.017-.019z" style="fill:none;stroke:#231f20;stroke-width:1.713;stroke-linecap:butt;stroke-linejoin:miter;stroke-miterlimit:4;stroke-dasharray:none;stroke-opacity:1" transform="translate(36.433 392.926)"></path><path d="M583.719 353.094c-5.727.089-11.431 1.39-17.969 3.75v.031c-4.282 13.132-2.706 33.441 17.969 43.406v.125c.009.004.022.027.03.031h.032q.063-.031.125-.062l.063.031v-.062c20.76-9.95 22.35-30.318 18.062-43.47H602c-6.651-2.602-12.371-3.797-18.031-3.78z" style="fill:#d91920;fill-opacity:1;fill-rule:nonzero;stroke:none" transform="matrix(.8 0 0 -.8 -416.174 678.537)"></path><path d="m36.43 393.053-.016-.019c-3.44-10.549-2.16-26.895 14.576-34.83v37.87c-4.65-.043-9.253-1.106-14.56-3.02" style="fill:#ed1c24;fill-opacity:1;fill-rule:nonzero;stroke:none"></path><path d="M0 0c10.547 3.808 18.322 4.249 29.188-.003l.01-.016c3.441-10.553 2.158-26.908-14.596-34.84h-.023C-2.175-26.927-3.458-10.572-.017-.019z" style="fill:none;stroke:#fff;stroke-width:.952;stroke-linecap:butt;stroke-linejoin:miter;stroke-miterlimit:4;stroke-dasharray:none;stroke-opacity:1" transform="translate(36.433 392.926)"></path></g><path d="M0 0h-2.29l-.906 6.949h1.862l.468-5.257h.02l2.688 5.257h2.001z" style="fill:#fff;fill-opacity:1;fill-rule:nonzero;stroke:none" transform="matrix(19.77752 0 0 -19.77752 138.11 439.65)"></path><path d="M0 0h-2.29l-.906 6.949h1.862l.468-5.257h.02l2.688 5.257h2.001z" style="fill:none;stroke:#231f20;stroke-width:.762;stroke-linecap:butt;stroke-linejoin:miter;stroke-miterlimit:4;stroke-dasharray:none;stroke-opacity:1" transform="matrix(19.77752 0 0 -19.77752 138.11 439.65)"></path><path d="M0 0h-.02l-1.473-2.718H.299zm-.926 1.433h2.33l1.134-6.948H.667L.478-4.032H-2.22l-.826-1.483h-2.011z" style="fill:#fff;fill-opacity:1;fill-rule:nonzero;stroke:none" transform="matrix(19.77752 0 0 -19.77752 268.118 330.575)" data-source="https://football-logos.cc"></path><path d="M0 0h-.02l-1.473-2.718H.299zm-.926 1.433h2.33l1.134-6.948H.667L.478-4.032H-2.22l-.826-1.483h-2.011z" style="fill:none;stroke:#231f20;stroke-width:.762;stroke-linecap:butt;stroke-linejoin:miter;stroke-miterlimit:4;stroke-dasharray:none;stroke-opacity:1" transform="matrix(19.77752 0 0 -19.77752 268.118 330.575)"></path><path d="M0 0h4.649L4.39-1.314H1.563l-.348-1.523h2.727l-.269-1.314H.986L.398-6.949h-1.871z" style="fill:#fff;fill-opacity:1;fill-rule:nonzero;stroke:none" transform="matrix(19.77752 0 0 -19.77752 379.443 302.226)"></path><path d="M0 0h4.649L4.39-1.314H1.563l-.348-1.523h2.727l-.269-1.314H.986L.398-6.949h-1.871z" style="fill:none;stroke:#231f20;stroke-width:.762;stroke-linecap:butt;stroke-linejoin:miter;stroke-miterlimit:4;stroke-dasharray:none;stroke-opacity:1" transform="matrix(19.77752 0 0 -19.77752 379.443 302.226)"></path><g clip-path="url(#b)" transform="matrix(19.77752 0 0 -19.77752 -672.831 7847.002)" data-source="https://football-logos.cc"><path d="M0 0c-.587.338-1.145.418-1.732.418C-3.594.418-4.34-.896-4.34-2.21c0-1.234.786-1.812 1.901-1.812.667 0 1.274.14 1.762.388l-.199-1.493c-.448-.149-1.225-.269-1.852-.269-2.24 0-3.524 1.324-3.524 3.236 0 2.309 1.623 3.952 4.231 3.952 1.334 0 2.081-.229 2.459-.368z" style="fill:#fff;fill-opacity:1;fill-rule:nonzero;stroke:none" transform="translate(64.237 379.81)"></path><path d="M0 0c-.587.338-1.145.418-1.732.418C-3.594.418-4.34-.896-4.34-2.21c0-1.234.786-1.812 1.901-1.812.667 0 1.274.14 1.762.388l-.199-1.493c-.448-.149-1.225-.269-1.852-.269-2.24 0-3.524 1.324-3.524 3.236 0 2.309 1.623 3.952 4.231 3.952 1.334 0 2.081-.229 2.459-.368z" style="fill:none;stroke:#231f20;stroke-width:.762;stroke-linecap:butt;stroke-linejoin:miter;stroke-miterlimit:4;stroke-dasharray:none;stroke-opacity:1" transform="translate(64.237 379.81)"></path><path d="M0 0h-2.29l-.906 6.949h1.862l.468-5.257h.02l2.688 5.257h2.001z" style="fill:#fff;fill-opacity:1;fill-rule:nonzero;stroke:none" transform="translate(41.003 374.534)"></path><path d="M0 0h-2.29l-.906 6.949h1.862l.468-5.257h.02l2.688 5.257h2.001z" style="fill:none;stroke:#fff;stroke-width:.317;stroke-linecap:butt;stroke-linejoin:miter;stroke-miterlimit:4;stroke-dasharray:none;stroke-opacity:1" transform="translate(41.003 374.534)"></path><path d="M0 0h-.02l-1.473-2.718H.299zm-.926 1.433h2.33l1.134-6.948H.667L.478-4.032H-2.22l-.826-1.483h-2.011z" style="fill:#fff;fill-opacity:1;fill-rule:nonzero;stroke:none" transform="translate(47.577 380.05)"></path><path d="M0 0h-.02l-1.473-2.718H.299zm-.926 1.433h2.33l1.134-6.948H.667L.478-4.032H-2.22l-.826-1.483h-2.011z" style="fill:none;stroke:#fff;stroke-width:.317;stroke-linecap:butt;stroke-linejoin:miter;stroke-miterlimit:4;stroke-dasharray:none;stroke-opacity:1" transform="translate(47.577 380.05)"></path><path d="M0 0h4.649L4.39-1.314H1.563l-.348-1.523h2.727l-.269-1.314H.986L.398-6.949h-1.871z" style="fill:#fff;fill-opacity:1;fill-rule:nonzero;stroke:none" transform="translate(53.206 381.483)"></path><path d="M0 0h4.649L4.39-1.314H1.563l-.348-1.523h2.727l-.269-1.314H.986L.398-6.949h-1.871z" style="fill:none;stroke:#fff;stroke-width:.317;stroke-linecap:butt;stroke-linejoin:miter;stroke-miterlimit:4;stroke-dasharray:none;stroke-opacity:1" transform="translate(53.206 381.483)"></path><path d="M0 0c-.587.338-1.145.418-1.732.418C-3.594.418-4.34-.896-4.34-2.21c0-1.234.786-1.812 1.901-1.812.667 0 1.274.14 1.762.388l-.199-1.493c-.448-.149-1.225-.269-1.852-.269-2.24 0-3.524 1.324-3.524 3.236 0 2.309 1.623 3.952 4.231 3.952 1.334 0 2.081-.229 2.459-.368z" style="fill:#fff;fill-opacity:1;fill-rule:nonzero;stroke:none" transform="translate(64.237 379.81)"></path><path d="M0 0c-.587.338-1.145.418-1.732.418C-3.594.418-4.34-.896-4.34-2.21c0-1.234.786-1.812 1.901-1.812.667 0 1.274.14 1.762.388l-.199-1.493c-.448-.149-1.225-.269-1.852-.269-2.24 0-3.524 1.324-3.524 3.236 0 2.309 1.623 3.952 4.231 3.952 1.334 0 2.081-.229 2.459-.368z" style="fill:none;stroke:#fff;stroke-width:.317;stroke-linecap:butt;stroke-linejoin:miter;stroke-miterlimit:4;stroke-dasharray:none;stroke-opacity:1" transform="translate(64.237 379.81)"></path><path d="M0 0c2.933.851 8.896 5.464 9.283 5.852C6.878 2.801-.029-1.335-.029-1.335Z" style="fill:#fff;fill-opacity:1;fill-rule:nonzero;stroke:none" transform="translate(51.011 360.881)"></path><path d="M0 0c-1.586-.444-5.267-1.523-5.267-1.777-.191-.444-1.333-6.282-1.206-7.171 1.269 5.394 3.237 6.473 4.315 7.298z" style="fill:#fff;fill-opacity:1;fill-rule:nonzero;stroke:none" transform="translate(42.36 393.805)"></path><path d="M0 0c2.295.347.083.394.083.394.72.074 1.813.537 3.124.592C4.517 1.04 5.26.397 5.602.14c.342-.258.296-.567.296-.567s.14-.187.32-.308c.181-.121.363-.416.665-.531s.851-.408 1.041-.617c0 0 .078-.286.001-.366s-.474.148-1.04.234-1.452.116-2.096.122c-.644.007-2.225-.288-2.954.253" style="fill:#fff;fill-opacity:1;fill-rule:nonzero;stroke:none" transform="translate(57.2 390.265)"></path><path d="M0 0s-.401.093-.548.022a3 3 0 0 0-.409-.146s-.07.006-.136.055c-.066.048-.313-.028-.359-.066S-1.7-.191-1.7-.191l.153-.063s.035-.073.127-.152c.091-.079.275-.082.328-.115s.407-.334.473-.537.185-.751.206-.838.239-.473.239-.473l.759-.027.574-.031.421-.046.425-.084.362-.101.335-.097.099.021.034.245-.089.178-.381.246-.197.159-.473.186-.218.131-.231.247-.337.242-.164.201s.012.154-.015.24c-.039.123-.305.366-.305.366l-.238.177-.146.098" style="fill:#050301;fill-opacity:1;fill-rule:nonzero;stroke:none" transform="translate(62.353 390.737)"></path><path d="M0 0s-.288.097-.374.232-.177.228-.201.117-.091-.683-.189-.829c-.098-.147-.115-.187-.161-.226.18-.185 1.409-.636 1.731-.666.322-.029.599-.083.777-.142s.392-.191.431-.223c.04-.031.134-.119.134-.119s.099.323-.001.403c-.1.079-.492.398-.739.477s-.581.323-.712.434-.433.334-.433.334l-.101.123-.07.064z" style="fill:#fff;fill-opacity:1;fill-rule:nonzero;stroke:none" transform="translate(63.007 389.859)"></path><path d="m0 0 .574-.518.006-.085-.072-.008Z" style="fill:#050301;fill-opacity:1;fill-rule:nonzero;stroke:none" transform="translate(62.797 389.723)"></path><path d="m0 0-.135-.086s-.13.124-.254.15c-.125.025-.59-.116-.59-.116l.447.256.344-.102.365-.019z" style="fill:#050301;fill-opacity:1;fill-rule:nonzero;stroke:none" transform="translate(61.445 390.71)"></path><path d="M0 0s-.169.168-.593.3c-5.156 1.383-12.828-3.073-15.58-6.641l2.804-.003C-9.448.474-2.157.412-.509.178" style="fill:#fff;fill-opacity:1;fill-rule:nonzero;stroke:none" transform="translate(58.901 388.897)"></path><path d="M0 0c.837.462 1.356.894 2.827 1.327 1.472.433 4.732.981 5.136 1.01.155.011.669-.077 1.142-.183.27-.06.505-.136.744-.188.348-.074.317-.02.317-.02l-.934 1.458C7.097 3.549-2.822 1.652-6.222-4.443c0 0 2.241 1.154 3.741 2.222" style="fill:#fff;fill-opacity:1;fill-rule:nonzero;stroke:none" transform="translate(48.95 387)"></path></g><!-- source: https://football-logos.cc --></svg>