<?xml version="1.0" encoding="UTF-8"?>
<svg version="1.1" xmlns="http://www.w3.org/2000/svg" width="960" height="960">
<path d="M0 0 C1.69178879 0.00031723 1.69178879 0.00031723 3.41775513 0.00064087 C23.48915456 0.03793746 43.04178693 1.36664724 62.875 4.375 C64.08349609 4.55160156 65.29199219 4.72820313 66.53710938 4.91015625 C75.02816983 6.17468263 83.45662317 7.69672936 91.875 9.375 C92.92485077 9.58355621 92.92485077 9.58355621 93.99591064 9.79632568 C134.94371519 17.97725237 175.1530341 29.32582441 215.4055481 40.34564209 C243.64325608 48.07560333 271.73446779 55.72398136 300.56518555 60.94335938 C316.07050683 63.78041001 329.39022565 66.94600778 340.3671875 78.95703125 C345.001006 86.38794745 345.30684625 94.04505279 345.25531673 102.5952692 C345.25997665 103.80706747 345.26463657 105.01886573 345.2694377 106.26738515 C345.27931358 109.62424749 345.27581179 112.98060778 345.26660402 116.33743953 C345.25988501 119.99192417 345.27056494 123.64636543 345.27899987 127.3008408 C345.2913684 133.70353299 345.29257841 140.1061519 345.28644943 146.50885201 C345.27735983 156.02982028 345.28538916 165.55072076 345.29674067 175.07168382 C345.31641343 192.0757101 345.3187539 209.07970591 345.31354547 226.08374085 C345.30898988 240.96355068 345.30958551 255.84334844 345.31538582 270.72315788 C345.31614268 272.71841381 345.31689866 274.71366974 345.31765376 276.70892568 C345.31879894 279.71550354 345.31994882 282.7220814 345.32111301 285.72865926 C345.33181885 313.68265824 345.33654227 341.6366532 345.32864285 369.59065342 C345.32819709 371.17147863 345.32819709 371.17147863 345.32774232 372.78423971 C345.32529333 381.34277583 345.32268177 389.90131191 345.32005819 398.45984798 C345.30995309 431.85305251 345.3183158 465.24620677 345.34155273 498.6394043 C345.36761173 536.14888583 345.38047711 573.6583371 345.37336498 611.16782802 C345.37264891 615.16543797 345.37197452 619.16304792 345.37132454 623.16065788 C345.37115473 624.14498629 345.37098492 625.12931469 345.37080997 626.14347123 C345.368505 641.01551024 345.37649326 655.88752119 345.38961601 670.75955391 C345.40450803 687.66694801 345.40539609 704.57427624 345.3875451 721.4816689 C345.37796335 730.94711314 345.37945515 740.41240385 345.39677979 749.87783793 C345.40724065 756.19713577 345.4032094 762.51631622 345.38729975 768.83560243 C345.37863773 772.43825833 345.37631653 776.04061259 345.39156907 779.64325339 C345.4078381 783.52251458 345.39324465 787.40130887 345.37557125 791.28057194 C345.38522176 792.4008815 345.39487227 793.52119106 345.40481523 794.6754494 C345.31238786 804.50464077 342.08194103 810.84298877 335.421875 818.06640625 C327.45656985 825.28649113 316.99082105 832.0133676 306.328125 833.62670898 C305.03014984 833.82849258 303.73217468 834.03027618 302.39486694 834.23817444 C300.97158986 834.44922779 299.54830048 834.66019825 298.125 834.87109375 C296.62253543 835.10160467 295.12022958 835.3331522 293.61807251 835.56565857 C290.39581804 836.06294468 287.17278275 836.55466042 283.94903564 837.04217529 C276.16961553 838.22020278 268.39613658 839.43652183 260.62230301 840.65077209 C258.84089154 840.92898095 257.05943515 841.20690225 255.27793503 841.48454285 C134.52296454 859.68416933 134.52296454 859.68416933 -5.29296875 901.296875 C-7.19693012 902.41732988 -9.14000714 903.4067108 -11.125 904.375 C-11.56585938 904.02308594 -12.00671875 903.67117188 -12.4609375 903.30859375 C-69.28406126 861.61653168 -176.00801898 858.55311544 -298.91577148 838.29467773 C-300.43137146 838.0517514 -301.94696605 837.80879143 -303.46255493 837.5657959 C-306.23842808 837.12073983 -309.01472212 836.67847067 -311.79135132 836.23815918 C-315.57204957 835.63288011 -319.34900481 835.00893018 -323.125 834.375 C-324.17377634 834.20305555 -324.17377634 834.20305555 -325.24374008 834.02763748 C-327.40055404 833.67064766 -329.55420836 833.29821882 -331.70776367 832.92211914 C-332.98487717 832.70391006 -334.26199066 832.48570099 -335.57780457 832.26087952 C-341.28011879 830.83677885 -345.55235079 827.9704599 -350.125 824.375 C-351.23294922 823.53582031 -351.23294922 823.53582031 -352.36328125 822.6796875 C-359.27332617 817.08398257 -364.44007656 810.23245116 -366.125 801.375 C-366.41197909 797.4055222 -366.39514543 793.44733324 -366.37947559 789.46888256 C-366.38268207 788.26674467 -366.38588855 787.06460679 -366.38919219 785.82604048 C-366.39606655 782.48703279 -366.393987 779.14824768 -366.38813647 775.8092524 C-366.38396647 772.17747111 -366.39136795 768.54571036 -366.39728898 764.91393405 C-366.40605639 758.54793919 -366.40736117 752.1819765 -366.40378571 745.8159771 C-366.39848283 736.34943219 -366.40456983 726.88291847 -366.41286864 717.41637695 C-366.42812054 699.52609035 -366.42981247 681.63581789 -366.42734561 663.74552616 C-366.4255139 649.93141625 -366.42727 636.117311 -366.43157005 622.30320168 C-366.43217245 620.31946889 -366.43277365 618.3357361 -366.43337366 616.35200331 C-366.4342809 613.36280565 -366.43518956 610.37360799 -366.43610601 607.38441034 C-366.44453742 579.58688648 -366.44886994 551.78936437 -366.44469929 523.99183941 C-366.44454291 522.94360578 -366.44438654 521.89537215 -366.44422542 520.81537387 C-366.44341962 515.50235584 -366.44257385 510.18933781 -366.44171212 504.87631979 C-366.44154103 503.82111392 -366.44136994 502.76590805 -366.44119367 501.67872624 C-366.44084702 499.54484279 -366.44049849 497.41095935 -366.44014808 495.2770759 C-366.4347906 462.07215794 -366.44272129 428.86726653 -366.46118164 395.66235352 C-366.48189187 358.36675149 -366.49262621 321.07116592 -366.48860615 283.77555782 C-366.4882108 279.79978709 -366.48784926 275.82401636 -366.48750877 271.84824562 C-366.48741804 270.86929166 -366.48732731 269.8903377 -366.48723383 268.88171847 C-366.48606724 254.09522308 -366.49272088 239.30874428 -366.50332069 224.52225304 C-366.51536185 207.70783648 -366.51694418 190.89345651 -366.50453053 174.07903942 C-366.49789333 164.66737189 -366.49955278 155.25579181 -366.51311904 145.84413125 C-366.52135008 139.55805974 -366.51868352 133.27205388 -366.50714377 126.98598773 C-366.50087397 123.40394869 -366.49932089 119.82208054 -366.51100711 116.24005123 C-366.52348612 112.37949495 -366.51272364 108.51919987 -366.49973011 104.65864086 C-366.50703946 103.54943101 -366.5143488 102.44022116 -366.52187964 101.2973989 C-366.44966756 90.97502344 -364.56878479 81.91261401 -357.125 74.375 C-348.77028223 67.29906556 -340.11603614 64.40901101 -329.421875 62.90234375 C-327.72774609 62.64678033 -326.03374114 62.39039426 -324.33984375 62.13330078 C-323.45280762 62.00086975 -322.56577148 61.86843872 -321.65185547 61.73199463 C-273.55687309 54.46637097 -226.62042424 41.5607543 -179.57141113 29.46112061 C-141.85725999 19.76227591 -104.03914948 10.67119688 -65.5 4.875 C-64.32691284 4.69750214 -64.32691284 4.69750214 -63.13012695 4.51641846 C-42.11182794 1.37956773 -21.24976226 -0.03715371 0 0 Z " fill="#C3B88D" transform="translate(490.125,27.625)"/>
<path d="M0 0 C5.02831106 1.47153621 10.09285116 2.80562642 15.1550293 4.1550293 C24.70982055 6.71291123 34.24874863 9.32346131 43.7800293 11.9675293 C53.54182635 14.67323774 63.31999262 17.29779535 73.12890625 19.82714844 C78.03918783 21.09645818 82.93268089 22.40665962 87.8112793 23.79272461 C102.43975049 27.94673341 117.19511701 31.69704826 132.1628418 34.40893555 C132.84802383 34.53461411 133.53320587 34.66029266 134.239151 34.78977966 C137.58438975 35.40154335 140.92966692 35.99215526 144.28466797 36.54931641 C154.38989978 38.35785753 163.95127848 41.15603471 171.0925293 48.9050293 C169.81772899 52.5913566 168.44597971 54.90994544 165.64331055 57.61206055 C164.61753906 58.6165625 164.61753906 58.6165625 163.57104492 59.64135742 C162.85625977 60.32649414 162.14147461 61.01163086 161.4050293 61.7175293 C156.62546456 66.3464868 152.04005206 71.02001171 147.70263672 76.06787109 C145.44559148 78.64319565 143.04289136 81.01232281 140.5925293 83.4050293 C137.47449304 86.4765277 134.43358846 89.57224836 131.5925293 92.9050293 C128.3095215 96.75624999 124.73848418 100.2879179 121.1394043 103.83862305 C118.51229371 106.44408162 115.99259846 109.08956355 113.5925293 111.9050293 C110.3095215 115.75624999 106.73848418 119.2879179 103.1394043 122.83862305 C100.51229371 125.44408162 97.99259846 128.08956355 95.5925293 130.9050293 C92.3095215 134.75624999 88.73848418 138.2879179 85.1394043 141.83862305 C82.51229371 144.44408162 79.99259846 147.08956355 77.5925293 149.9050293 C74.3101954 153.75545945 70.73998081 157.28648509 67.14160156 160.83642578 C63.89252322 164.05869378 60.86809066 167.39843575 57.90112305 170.87768555 C54.91602813 174.22382866 51.68370162 177.32096882 48.49487305 180.47143555 C46.45538557 182.53745295 44.5374513 184.63508479 42.6550293 186.8425293 C39.79080575 190.19428026 36.72918837 193.31059347 33.5925293 196.4050293 C30.47673807 199.47893457 27.43375691 202.57205075 24.5925293 205.9050293 C21.3095215 209.75624999 17.73848418 213.2879179 14.1394043 216.83862305 C11.51229371 219.44408162 8.99259846 222.08956355 6.5925293 224.9050293 C3.3095215 228.75624999 -0.26151582 232.2879179 -3.8605957 235.83862305 C-6.48770629 238.44408162 -9.00740154 241.08956355 -11.4074707 243.9050293 C-14.6904785 247.75624999 -18.26151582 251.2879179 -21.8605957 254.83862305 C-25.07736184 258.02887738 -28.06915065 261.33438474 -31.00512695 264.7800293 C-35.09728875 269.35115049 -39.53519145 273.6039083 -43.9074707 277.9050293 C-47.62494337 276.27642222 -50.50150535 273.93620963 -53.6574707 271.4050293 C-76.93666224 253.23719608 -103.99467374 241.5644953 -132.9074707 235.9050293 C-134.63803711 235.5647168 -134.63803711 235.5647168 -136.40356445 235.2175293 C-157.26227625 231.9276558 -180.27703538 232.57951623 -200.9074707 236.9050293 C-201.6391748 237.04956543 -202.37087891 237.19410156 -203.12475586 237.34301758 C-231.16441372 242.94103019 -261.46738793 256.46494652 -281.9074707 276.9050293 C-284.90660654 276.80249474 -285.95967232 275.855383 -288.1418457 273.7800293 C-288.97200195 272.8312793 -289.8021582 271.8825293 -290.6574707 270.9050293 C-291.63653497 269.80351892 -292.6170931 268.70333513 -293.59887695 267.60424805 C-294.12884277 267.00789551 -294.65880859 266.41154297 -295.20483398 265.79711914 C-298.27697929 262.3831349 -301.43994502 259.05474499 -304.5949707 255.7175293 C-305.97263978 254.25665301 -307.35024313 252.79571474 -308.7277832 251.3347168 C-309.41904297 250.60220703 -310.11030273 249.86969727 -310.82250977 249.11499023 C-314.20776623 245.52677695 -317.58898936 241.9347704 -320.9699707 238.3425293 C-321.6314209 237.6398291 -322.29287109 236.93712891 -322.97436523 236.21313477 C-329.34164718 229.44702136 -335.6962617 222.66907163 -342.04858398 215.88891602 C-345.16749224 212.56027818 -348.2875281 209.2326976 -351.4074707 205.9050293 C-355.1463038 201.91726479 -358.88491883 197.92929737 -362.62231445 193.94018555 C-369.0429983 187.08785908 -375.46992151 180.24151642 -381.9074707 173.4050293 C-390.20644336 164.59176543 -398.48546576 155.7599024 -406.76196289 146.92553711 C-413.80238101 139.41106664 -420.84818506 131.90178217 -427.9074707 124.4050293 C-434.96533757 116.90978313 -442.00964318 109.40193439 -449.04858398 101.88891602 C-452.16749224 98.56027818 -455.2875281 95.2326976 -458.4074707 91.9050293 C-462.1463038 87.91726479 -465.88491883 83.92929737 -469.62231445 79.94018555 C-476.27473444 72.84031683 -482.93149787 65.7445262 -489.5949707 58.6550293 C-490.6022522 57.58200562 -490.6022522 57.58200562 -491.62988281 56.48730469 C-494.67810567 53.24625967 -497.73274244 50.02349656 -500.9074707 46.9050293 C-499.7096457 43.3115543 -499.03728161 43.05587035 -495.7824707 41.3425293 C-491.58926318 39.40122952 -487.94620447 38.48513308 -483.3605957 37.9831543 C-473.43167732 36.79567334 -463.61754107 35.00885283 -453.7824707 33.2175293 C-452.80994354 33.04073639 -451.83741638 32.86394348 -450.8354187 32.68179321 C-435.78333699 29.93126139 -420.93710138 26.76038419 -406.11010742 22.96655273 C-400.97006014 21.65971038 -395.81537235 20.41330842 -390.66137695 19.1628418 C-389.66535965 18.9209462 -388.66934235 18.6790506 -387.6431427 18.42982483 C-385.61219753 17.93660446 -383.58123738 17.44344572 -381.55026245 16.9503479 C-368.29818091 13.73230878 -355.0680416 10.48195565 -341.9074707 6.9050293 C-319.337882 0.79779197 -296.74431601 -4.90291868 -273.88085938 -9.80703735 C-269.72218959 -10.69909921 -265.57031621 -11.61601395 -261.4230957 -12.55981445 C-172.83303003 -32.62758667 -86.62809825 -25.43499182 0 0 Z " fill="#FEFEFE" transform="translate(646.907470703125,63.094970703125)"/>
<path d="M0 0 C3.98871446 1.69691031 7.11250661 4.41097242 10.4375 7.125 C16.97317213 12.34619713 23.72838079 16.84601259 31 21 C32.12535156 21.65613281 33.25070312 22.31226563 34.41015625 22.98828125 C47.69556243 30.53493415 62.08887 35.87653598 76.8125 39.875 C77.50311523 40.06602295 78.19373047 40.2570459 78.90527344 40.45385742 C92.91612622 44.02128587 107.25427987 44.41170856 121.625 44.375 C122.94443604 44.37318726 122.94443604 44.37318726 124.29052734 44.37133789 C137.8730391 44.32079487 150.85978039 43.73572357 164 40 C165.42723389 39.5973291 165.42723389 39.5973291 166.88330078 39.18652344 C191.9187741 31.89275593 215.39109294 20.66591805 235.0546875 3.328125 C237 2 237 2 241 2 C242.67578125 3.25 242.67578125 3.25 244.3125 5 C244.91964844 5.64195312 245.52679687 6.28390625 246.15234375 6.9453125 C248.50936959 9.56644483 250.81724252 12.22720096 253.1171875 14.8984375 C255.16722274 17.18665111 257.31295092 19.34260582 259.5 21.5 C262.9071879 24.86114482 266.07458174 28.33701203 269.1875 31.96875 C271.92777083 35.03974317 274.87946902 37.88786876 277.80859375 40.77734375 C280.42101068 43.4270144 282.83302621 46.21172803 285.25390625 49.03515625 C287.09615675 51.10820324 289.02401662 53.05435802 291 55 C293.59982183 57.55990134 296.06268398 60.1677954 298.4375 62.9375 C301.00665271 65.92801716 303.69317256 68.73116684 306.5 71.5 C309.9071879 74.86114482 313.07458174 78.33701203 316.1875 81.96875 C318.2109288 84.23638572 320.33653347 86.3657695 322.5 88.5 C325.9071879 91.86114482 329.07458174 95.33701203 332.1875 98.96875 C334.92777083 102.03974317 337.87946902 104.88786876 340.80859375 107.77734375 C343.42101068 110.4270144 345.83302621 113.21172803 348.25390625 116.03515625 C350.09615675 118.10820324 352.02401662 120.05435802 354 122 C356.59982183 124.55990134 359.06268398 127.1677954 361.4375 129.9375 C364.00665271 132.92801716 366.69317256 135.73116684 369.5 138.5 C372.9071879 141.86114482 376.07458174 145.33701203 379.1875 148.96875 C381.2109288 151.23638572 383.33653347 153.3657695 385.5 155.5 C388.9071879 158.86114482 392.07458174 162.33701203 395.1875 165.96875 C397.92777083 169.03974317 400.87946902 171.88786876 403.80859375 174.77734375 C406.42101068 177.4270144 408.83302621 180.21172803 411.25390625 183.03515625 C413.09615675 185.10820324 415.02401662 187.05435802 417 189 C419.59982183 191.55990134 422.06268398 194.1677954 424.4375 196.9375 C427.00665271 199.92801716 429.69317256 202.73116684 432.5 205.5 C435.91888261 208.87260332 439.10280693 212.35952475 442.2265625 216.00390625 C445.32528789 219.49167866 448.66344637 222.74144373 452 226 C450.50417444 229.95698039 448.30447436 231.39193984 444.75 233.5625 C443.81671875 234.14128906 442.8834375 234.72007812 441.921875 235.31640625 C435.93614078 238.76540551 431.10241123 240.57952668 424.3125 241.5 C422.80850321 241.71812666 421.30460251 241.93691647 419.80078125 242.15625 C418.93018066 242.28080566 418.05958008 242.40536133 417.16259766 242.53369141 C410.65637957 243.49299946 404.16438228 244.54584821 397.66928101 245.57727051 C394.98212586 246.0028307 392.29449823 246.42526867 389.60668945 246.84667969 C331.3306496 255.98632258 272.97481642 265.64259088 215.53173828 279.17333984 C211.80489717 280.04566696 208.07308203 280.89377429 204.33984375 281.73828125 C162.47962748 291.01660889 162.47962748 291.01660889 123.0546875 307.3984375 C120 309 120 309 117 310 C114.58535527 308.91340987 112.31826792 307.76575801 110 306.5 C104.20668432 303.46576733 98.37959357 300.81073144 92.23828125 298.5625 C91.01689201 298.11505432 91.01689201 298.11505432 89.77082825 297.65856934 C80.40415361 294.31457593 70.8350412 291.88070273 61.1875 289.5 C59.28632585 289.02364041 57.38528604 288.54674438 55.484375 288.06933594 C49.9938429 286.69534504 44.49779983 285.34456843 39 284 C38.25848694 283.81783936 37.51697388 283.63567871 36.75299072 283.44799805 C15.95931151 278.34097068 -4.97273769 274.01444347 -26 270 C-26.85859619 269.83584595 -27.71719238 269.67169189 -28.60180664 269.50256348 C-54.08491938 264.64014786 -79.62968591 260.13896632 -105.21529388 255.85153198 C-106.61153158 255.61749576 -108.00771609 255.38314196 -109.40384674 255.14846802 C-124.92727699 252.53927484 -140.45625354 250.02801466 -156.04580879 247.84414673 C-158.14586743 247.54942846 -160.24546847 247.25164213 -162.34495544 246.95288086 C-163.71522918 246.75822127 -165.08551412 246.56364047 -166.45581055 246.36914062 C-167.12460959 246.27418304 -167.79340864 246.17922546 -168.48247433 246.08139038 C-173.00265504 245.44315693 -177.5272859 244.84598545 -182.05395508 244.25585938 C-184.40982357 243.92689363 -186.76554517 243.59687369 -189.12109375 243.265625 C-190.69009933 243.07694855 -190.69009933 243.07694855 -192.290802 242.88446045 C-201.93131779 241.47638007 -209.3091776 237.03764545 -216 230 C-214.64768813 226.97022571 -213.14519457 224.91527387 -210.76953125 222.609375 C-209.81784058 221.67508667 -209.81784058 221.67508667 -208.84692383 220.72192383 C-208.17556396 220.07118896 -207.5042041 219.4204541 -206.8125 218.75 C-202.29114062 214.30508488 -197.88991544 209.86943459 -193.80078125 205.01953125 C-190.81790023 201.6743046 -187.59148071 198.5720071 -184.40380859 195.42333984 C-181.04890096 192.09369665 -177.90251818 188.66041869 -174.83984375 185.05859375 C-172.04233133 181.92846838 -169.03375494 179.01314342 -166.04663086 176.06616211 C-163.41959998 173.4607863 -160.89999432 170.81537795 -158.5 168 C-155.2169922 164.14877931 -151.64595488 160.6171114 -148.046875 157.06640625 C-145.41976442 154.46094768 -142.90006916 151.81546575 -140.5 149 C-137.2169922 145.14877931 -133.64595488 141.6171114 -130.046875 138.06640625 C-127.41976442 135.46094768 -124.90006916 132.81546575 -122.5 130 C-119.2169922 126.14877931 -115.64595488 122.6171114 -112.046875 119.06640625 C-109.41976442 116.46094768 -106.90006916 113.81546575 -104.5 111 C-101.2169922 107.14877931 -97.64595488 103.6171114 -94.046875 100.06640625 C-91.41976442 97.46094768 -88.90006916 94.81546575 -86.5 92 C-83.65877199 88.66702099 -80.61578377 85.57391199 -77.5 82.5 C-74.40508498 79.44662049 -71.38065723 76.37676315 -68.5625 73.0625 C-65.06289503 68.95573465 -61.24017991 65.21275194 -57.40478516 61.42431641 C-54.04955443 58.09433671 -50.90282125 54.66077511 -47.83984375 51.05859375 C-45.04233133 47.92846838 -42.03375494 45.01314342 -39.04663086 42.06616211 C-36.41959998 39.4607863 -33.89999432 36.81537795 -31.5 34 C-28.21834001 30.1503604 -24.64894824 26.61997691 -21.05126953 23.07080078 C-17.78763236 19.83412653 -14.74302994 16.48210313 -11.765625 12.984375 C-8.93344484 9.80130526 -5.87307151 6.85278482 -2.8203125 3.8828125 C-0.93616102 2.12246661 -0.93616102 2.12246661 0 0 Z " fill="#FEFEFE" transform="translate(362,611)"/>
<path d="M0 0 C0.66 0 1.32 0 2 0 C3.41015625 1.43359375 3.41015625 1.43359375 5.0625 3.4375 C7.75174994 6.60757217 10.53513377 9.58581525 13.5 12.5 C16.9071879 15.86114482 20.07458174 19.33701203 23.1875 22.96875 C25.2109288 25.23638572 27.33653347 27.3657695 29.5 29.5 C32.9071879 32.86114482 36.07458174 36.33701203 39.1875 39.96875 C41.92777083 43.03974317 44.87946902 45.88786876 47.80859375 48.77734375 C50.42101068 51.4270144 52.83302621 54.21172803 55.25390625 57.03515625 C57.09615675 59.10820324 59.02401662 61.05435802 61 63 C63.59982183 65.55990134 66.06268398 68.1677954 68.4375 70.9375 C71.00665271 73.92801716 73.69317256 76.73116684 76.5 79.5 C79.9071879 82.86114482 83.07458174 86.33701203 86.1875 89.96875 C88.2109288 92.23638572 90.33653347 94.3657695 92.5 96.5 C95.9071879 99.86114482 99.07458174 103.33701203 102.1875 106.96875 C104.92777083 110.03974317 107.87946902 112.88786876 110.80859375 115.77734375 C113.42101068 118.4270144 115.83302621 121.21172803 118.25390625 124.03515625 C120.09615675 126.10820324 122.02401662 128.05435802 124 130 C126.59982183 132.55990134 129.06268398 135.1677954 131.4375 137.9375 C134.00665271 140.92801716 136.69317256 143.73116684 139.5 146.5 C142.9071879 149.86114482 146.07458174 153.33701203 149.1875 156.96875 C151.2109288 159.23638572 153.33653347 161.3657695 155.5 163.5 C158.9071879 166.86114482 162.07458174 170.33701203 165.1875 173.96875 C167.92777083 177.03974317 170.87946902 179.88786876 173.80859375 182.77734375 C176.42101068 185.4270144 178.83302621 188.21172803 181.25390625 191.03515625 C183.09615675 193.10820324 185.02401662 195.05435802 187 197 C189.59982183 199.55990134 192.06268398 202.1677954 194.4375 204.9375 C197.70770173 208.74404461 201.22573333 212.24307029 204.796875 215.765625 C207.46849093 218.4751362 209.94901604 221.31645226 212.42578125 224.203125 C214.51337511 226.58598647 216.72636599 228.79526399 219 231 C217.47321792 234.58711703 215.32696443 236.90246546 212.625 239.6875 C180.17917342 274.42439435 166.78075266 320.93085542 167.64453125 367.58984375 C168.19714912 382.95740866 170.97301579 398.45652366 176 413 C176.26264648 413.763125 176.52529297 414.52625 176.79589844 415.3125 C186.12909796 442.04360845 199.98868895 464.06733304 219 485 C217.69762644 488.80976237 216.21969459 491.13511678 213.33203125 493.92578125 C212.60306641 494.64056641 211.87410156 495.35535156 211.12304688 496.09179688 C210.36056641 496.82462891 209.59808594 497.55746094 208.8125 498.3125 C203.86350542 503.11555719 199.08540042 507.94572513 194.5925293 513.18041992 C192.34273568 515.7509721 189.94436546 518.11314902 187.5 520.5 C183.7569411 524.18710694 180.21743886 527.97523357 176.80859375 531.97265625 C173.82349884 535.31879936 170.59117232 538.41593952 167.40234375 541.56640625 C165.36285627 543.63242365 163.444922 545.73005549 161.5625 547.9375 C158.69827645 551.28925096 155.63665907 554.40556417 152.5 557.5 C149.38420877 560.57390527 146.34122762 563.66702145 143.5 567 C140.2169922 570.85122069 136.64595488 574.3828886 133.046875 577.93359375 C130.41976442 580.53905232 127.90006916 583.18453425 125.5 586 C122.2169922 589.85122069 118.64595488 593.3828886 115.046875 596.93359375 C112.41976442 599.53905232 109.90006916 602.18453425 107.5 605 C104.2169922 608.85122069 100.64595488 612.3828886 97.046875 615.93359375 C94.41976442 618.53905232 91.90006916 621.18453425 89.5 624 C86.2169922 627.85122069 82.64595488 631.3828886 79.046875 634.93359375 C76.41976442 637.53905232 73.90006916 640.18453425 71.5 643 C68.2176661 646.85043015 64.64745151 650.38145579 61.04907227 653.93139648 C57.79999393 657.15366448 54.77556137 660.49340645 51.80859375 663.97265625 C48.82349884 667.31879936 45.59117232 670.41593952 42.40234375 673.56640625 C40.36285627 675.63242365 38.444922 677.73005549 36.5625 679.9375 C33.69827645 683.28925096 30.63665907 686.40556417 27.5 689.5 C23.78813416 693.16196679 20.27343351 696.91589201 16.89453125 700.88671875 C13.55105766 704.6162429 9.93519054 708.08131021 6.35546875 711.58203125 C3.89275734 713.9623308 3.89275734 713.9623308 2 717 C1.34 717 0.68 717 0 717 C0 480.39 0 243.78 0 0 Z " fill="#009045" transform="translate(135,117)"/>
<path d="M0 0 C0.33 0 0.66 0 1 0 C1 234.3 1 468.6 1 710 C-3.33046867 706.28816971 -6.87085324 703.24008125 -10.5 699.0625 C-13.13381128 696.07602586 -15.78075121 693.16185364 -18.625 690.375 C-20.99671776 688.0468 -23.21043614 685.64701477 -25.375 683.125 C-27.96634205 680.1153247 -30.67254783 677.28911384 -33.5 674.5 C-36.9288279 671.11758601 -40.12048518 667.61929558 -43.25390625 663.96484375 C-45.72481389 661.18438168 -48.3816694 658.60881782 -51.03125 656 C-53.55425459 653.43694772 -55.87562817 650.72654176 -58.21875 648 C-60.0742521 645.91662922 -62.01223101 643.95718793 -64 642 C-66.59982183 639.44009866 -69.06268398 636.8322046 -71.4375 634.0625 C-74.00665271 631.07198284 -76.69317256 628.26883316 -79.5 625.5 C-82.9288279 622.11758601 -86.12048518 618.61929558 -89.25390625 614.96484375 C-91.72481389 612.18438168 -94.3816694 609.60881782 -97.03125 607 C-99.55425459 604.43694772 -101.87562817 601.72654176 -104.21875 599 C-106.0742521 596.91662922 -108.01223101 594.95718793 -110 593 C-113.25029983 589.79970478 -116.24724245 586.45775424 -119.21875 583 C-121.0742521 580.91662922 -123.01223101 578.95718793 -125 577 C-127.59982183 574.44009866 -130.06268398 571.8322046 -132.4375 569.0625 C-135.00665271 566.07198284 -137.69317256 563.26883316 -140.5 560.5 C-143.9288279 557.11758601 -147.12048518 553.61929558 -150.25390625 549.96484375 C-152.72481389 547.18438168 -155.3816694 544.60881782 -158.03125 542 C-160.55425459 539.43694772 -162.87562817 536.72654176 -165.21875 534 C-167.0742521 531.91662922 -169.01223101 529.95718793 -171 528 C-173.59982183 525.44009866 -176.06268398 522.8322046 -178.4375 520.0625 C-181.00665271 517.07198284 -183.69317256 514.26883316 -186.5 511.5 C-189.9288279 508.11758601 -193.12048518 504.61929558 -196.25390625 500.96484375 C-198.09615675 498.89179676 -200.02401662 496.94564198 -202 495 C-206.73099815 490.33343178 -211.30717211 485.53924183 -215 480 C-214.071875 479.13375 -213.14375 478.2675 -212.1875 477.375 C-206.55441884 471.7192048 -201.76121333 465.3879333 -197 459 C-196.5781543 458.43845215 -196.15630859 457.8769043 -195.72167969 457.29833984 C-168.59156945 420.63282549 -157.84681112 372.5517828 -164.25 327.6875 C-164.77300127 324.44526435 -165.36864915 321.22270603 -166 318 C-166.13390137 317.27635254 -166.26780273 316.55270508 -166.40576172 315.80712891 C-172.84602325 281.73229061 -191.08007258 252.39675829 -214 227 C-213.60312988 226.53746826 -213.20625977 226.07493652 -212.79736328 225.59838867 C-209.54000986 221.80271119 -209.54000986 221.80271119 -206.3046875 217.98828125 C-202.23741351 213.22090272 -197.86009931 208.8254925 -193.40600586 204.42529297 C-190.0501395 201.09518839 -186.90316461 197.66117892 -183.83984375 194.05859375 C-181.04233133 190.92846838 -178.03375494 188.01314342 -175.04663086 185.06616211 C-172.41959998 182.4607863 -169.89999432 179.81537795 -167.5 177 C-164.2169922 173.14877931 -160.64595488 169.6171114 -157.046875 166.06640625 C-154.41976442 163.46094768 -151.90006916 160.81546575 -149.5 158 C-146.2169922 154.14877931 -142.64595488 150.6171114 -139.046875 147.06640625 C-136.41976442 144.46094768 -133.90006916 141.81546575 -131.5 139 C-128.2169922 135.14877931 -124.64595488 131.6171114 -121.046875 128.06640625 C-118.41976442 125.46094768 -115.90006916 122.81546575 -113.5 120 C-110.65877199 116.66702099 -107.61578377 113.57391199 -104.5 110.5 C-101.40508498 107.44662049 -98.38065723 104.37676315 -95.5625 101.0625 C-92.06289503 96.95573465 -88.24017991 93.21275194 -84.40478516 89.42431641 C-81.04955443 86.09433671 -77.90282125 82.66077511 -74.83984375 79.05859375 C-72.04233133 75.92846838 -69.03375494 73.01314342 -66.04663086 70.06616211 C-63.41959998 67.4607863 -60.89999432 64.81537795 -58.5 62 C-55.2169922 58.14877931 -51.64595488 54.6171114 -48.046875 51.06640625 C-45.41976442 48.46094768 -42.90006916 45.81546575 -40.5 43 C-37.2176661 39.14956985 -33.64745151 35.61854421 -30.04907227 32.06860352 C-26.79999393 28.84633552 -23.77556137 25.50659355 -20.80859375 22.02734375 C-17.83448936 18.69352047 -14.61484746 15.60734932 -11.4375 12.46875 C-8.61887461 9.61398838 -5.97667818 6.64571863 -3.375 3.59375 C-2.30150314 2.34946955 -1.16203041 1.16203041 0 0 Z " fill="#009045" transform="translate(825,123)"/>
<path d="M0 0 C7.3750512 1.07273472 12.58263829 9.08128178 16.8984375 14.671875 C37.16637896 41.94779424 49.44000281 73.33664129 54.63525391 106.77954102 C54.90300879 108.40954817 55.2014224 110.03459596 55.51708984 111.65600586 C57.02656585 119.70721544 57.31048362 127.50761166 57.25 135.6875 C57.24689819 136.3477417 57.24379639 137.0079834 57.24060059 137.68823242 C57.18823795 147.21362797 56.90366977 156.52803008 55.33300781 165.93115234 C54.97357192 168.16418738 54.68691476 170.40127716 54.3984375 172.64453125 C50.60714086 199.33587898 40.21811469 226.1179304 28 250 C27.56365234 250.85899902 27.12730469 251.71799805 26.67773438 252.60302734 C19.76633156 266.04954548 11.57614341 278.56468632 3 291 C0.33560905 290.64467602 -0.75930769 290.27722867 -2.54882812 288.21606445 C-3.03802734 287.439646 -3.52722656 286.66322754 -4.03125 285.86328125 C-4.8668042 284.55012939 -4.8668042 284.55012939 -5.71923828 283.21044922 C-6.30688965 282.25412598 -6.89454102 281.29780273 -7.5 280.3125 C-8.42594971 278.82387451 -8.42594971 278.82387451 -9.37060547 277.30517578 C-29.43087399 244.72589954 -45.07072432 209.41052637 -51.625 171.5 C-51.80675781 170.51580078 -51.80675781 170.51580078 -51.9921875 169.51171875 C-61.0962872 117.75689114 -46.87955076 63.68093503 -17 21 C-11.69264342 13.71549406 -5.95664653 6.76159876 0 0 Z " fill="#C4452E" transform="translate(482,330)"/>
<path d="M0 0 C10.93663442 -0.06992909 21.87321447 -0.12302705 32.81002808 -0.15543652 C37.89003473 -0.17100207 42.9698869 -0.19207103 48.04980469 -0.22631836 C52.96465545 -0.25924036 57.87935889 -0.27692125 62.79431152 -0.28463173 C64.65672113 -0.29011695 66.51912394 -0.30082552 68.38146973 -0.31719017 C88.03566575 -0.4828112 111.24127042 0.89333496 126.29296875 15.17578125 C134.78848101 24.3831215 136.59812645 32.81153768 136.33984375 45.04296875 C135.87346507 50.47333199 134.38893063 53.8075085 131 58 C130.56171875 58.598125 130.1234375 59.19625 129.671875 59.8125 C122.32660313 68.47218894 109.50444986 72.68280531 99 76 C98.67 76.66 98.34 77.32 98 78 C98.68964844 78.10957031 99.37929687 78.21914063 100.08984375 78.33203125 C106.29313493 79.37867709 112.1391337 80.6990673 118 83 C118.98226562 83.37898438 118.98226562 83.37898438 119.984375 83.765625 C130.83889501 88.54161381 139.34967494 98.15590308 143.875 109 C146.54158369 118.08554564 146.60370712 130.14015947 142.45703125 138.7265625 C134.68422971 150.85463354 123.93669356 157.71227157 110 161 C97.60357923 163.29459722 85.31875876 163.261476 72.75390625 163.1953125 C70.64542272 163.19157362 68.53693744 163.18873079 66.42845154 163.18673706 C60.92946415 163.17916944 55.43058558 163.15958149 49.93164062 163.1373291 C44.30014517 163.11672109 38.66863182 163.10770364 33.03710938 163.09765625 C22.02469226 163.07632787 11.01235525 163.04227686 0 163 C0 161.35 0 159.7 0 158 C1.08667969 157.94392578 1.08667969 157.94392578 2.1953125 157.88671875 C10.03965765 157.40674603 10.03965765 157.40674603 17 154 C18.83835422 150.35393348 19.25085789 147.36802045 19.25396729 143.3139801 C19.25960693 142.17986694 19.26524658 141.04575378 19.27105713 139.87727356 C19.26700867 138.64232651 19.26296021 137.40737946 19.25878906 136.13500977 C19.2622937 134.82718536 19.26579834 133.51936096 19.26940918 132.17190552 C19.27851463 128.59129659 19.27499633 125.01080313 19.26865101 121.43019223 C19.2635804 117.6787137 19.26828551 113.92724492 19.27142334 110.17576599 C19.27506034 103.87521596 19.27027134 97.57471283 19.26074219 91.27416992 C19.24986286 83.99702172 19.25338047 76.71998564 19.264395 69.44284016 C19.2734811 63.18875978 19.27474654 56.93471309 19.26951766 50.68062824 C19.26640462 46.94806802 19.26597018 43.21556043 19.27259064 39.48300362 C19.27945882 35.32006352 19.26992974 31.1573156 19.25878906 26.99438477 C19.26283752 25.76146194 19.26688599 24.52853912 19.27105713 23.258255 C19.26541748 22.12132202 19.25977783 20.98438904 19.25396729 19.81300354 C19.25321323 18.82949197 19.25245918 17.8459804 19.25168228 16.83266544 C19.0565941 13.39969177 19.0565941 13.39969177 17 8 C8.585 6.515 8.585 6.515 0 5 C0 3.35 0 1.7 0 0 Z " fill="#C2B88D" transform="translate(147,395)"/>
<path d="M0 0 C14.28908859 3.29748198 26.7716577 10.78655961 38 20 C38.67546875 20.53496094 39.3509375 21.06992187 40.046875 21.62109375 C44.56122366 25.30648016 48.31154357 29.50097552 52 34 C52.763125 34.91394531 53.52625 35.82789063 54.3125 36.76953125 C68.57935499 54.49164019 78.67147401 75.90611175 84 98 C84.41185547 99.70542969 84.41185547 99.70542969 84.83203125 101.4453125 C87.9581507 115.21255777 89.41630742 128.70559715 89.375 142.8125 C89.37445618 143.52111176 89.37391235 144.22972351 89.37335205 144.95980835 C89.22183216 188.36298415 74.56778603 232.35557328 43.52294922 263.53417969 C31.59007126 275.01943125 15.46084225 285.73000104 -1 289 C-1.99 288.67 -2.98 288.34 -4 288 C-3.40574219 287.13761719 -2.81148438 286.27523438 -2.19921875 285.38671875 C17.66896359 256.2583558 32.91236522 224.80449139 43 191 C43.37125 189.79988281 43.7425 188.59976563 44.125 187.36328125 C51.69270696 160.97766011 54.06536717 132.06805583 49 105 C48.78829983 103.66849969 48.58015 102.33643149 48.375 101.00390625 C42.79847576 65.72952855 28.50226179 31.22115315 3.8125 4.98828125 C2 3 2 3 0 0 Z " fill="#C4462E" transform="translate(505,332)"/>
<path d="M0 0 C-0.58265625 0.64582031 -1.1653125 1.29164063 -1.765625 1.95703125 C-26.89280734 30.83748769 -40.12520315 66.8534913 -47 104 C-47.13567383 104.71591309 -47.27134766 105.43182617 -47.41113281 106.16943359 C-51.71788188 129.83229007 -49.14126219 154.53160511 -45 178 C-44.85578613 178.82886719 -44.71157227 179.65773438 -44.56298828 180.51171875 C-38.33232915 214.64817848 -20.97681983 247.79470011 -1.55737305 276.1862793 C-0.98027588 277.03101807 -0.40317871 277.87575684 0.19140625 278.74609375 C0.70904541 279.49560303 1.22668457 280.2451123 1.76000977 281.01733398 C3 283 3 283 4 286 C-3.88027141 285.69096975 -10.05485095 282.55746866 -17 279 C-18.49080078 278.24203125 -18.49080078 278.24203125 -20.01171875 277.46875 C-50.43935881 260.89401416 -70.01925625 228.31111418 -80 196 C-84.74673548 178.53526702 -87.3997036 160.79411382 -87.375 142.6875 C-87.37445618 142.00223236 -87.37391235 141.31696472 -87.37335205 140.6109314 C-87.23100836 101.13105443 -75.29818406 62.61080272 -50 32 C-49.3709375 31.22914063 -48.741875 30.45828125 -48.09375 29.6640625 C-39.9256092 19.97367728 -14.30052373 -4.76684124 0 0 Z " fill="#C4462E" transform="translate(462,334)"/>
<path d="M0 0 C25.52019913 6.99351611 47.96888735 18.70040271 68 36 C68.80179688 36.67933594 69.60359375 37.35867188 70.4296875 38.05859375 C75.42180427 42.36996732 79.82891386 46.89546514 84 52 C84.40476562 52.48710449 84.80953125 52.97420898 85.2265625 53.47607422 C106.58510645 79.27650834 122.98728051 112.87767136 123.203125 146.92578125 C123.21018463 147.66648865 123.21724426 148.40719604 123.22451782 149.17034912 C123.51524094 188.62710508 114.33828034 224.20070407 90 256 C89.28070312 256.94488281 88.56140625 257.88976562 87.8203125 258.86328125 C68.52136819 283.28740308 43.33591004 300.50750845 14.21728516 311.17578125 C12.71840663 311.73295081 11.22838892 312.31446539 9.74755859 312.91796875 C4.31817537 315.10605846 4.31817537 315.10605846 1 314 C2.39798828 313.30777344 2.39798828 313.30777344 3.82421875 312.6015625 C13.04059136 307.92768399 21.03618495 302.56626534 29 296 C30.04800781 295.1646875 30.04800781 295.1646875 31.1171875 294.3125 C35.60479079 290.64263776 39.32372399 286.47017997 43 282 C43.40766602 281.50999512 43.81533203 281.01999023 44.23535156 280.51513672 C77.30970836 240.55734576 89.85551787 188.55320103 85.5 137.421875 C82.86952547 111.29236194 75.63766444 86.06501155 63 63 C62.4121875 61.92105469 61.824375 60.84210938 61.21875 59.73046875 C46.62023687 33.88446482 26.3515277 14.4770807 0 1 C0 0.67 0 0.34 0 0 Z " fill="#C4462F" transform="translate(525,319)"/>
<path d="M0 0 C-0.47719482 0.27561768 -0.95438965 0.55123535 -1.44604492 0.83520508 C-12.15770847 7.07092809 -21.89862582 13.57691251 -31 22 C-31.86882812 22.78761719 -32.73765625 23.57523437 -33.6328125 24.38671875 C-59.4358224 48.85509021 -73.20862315 83.84518857 -80 118 C-80.16661133 118.80211914 -80.33322266 119.60423828 -80.50488281 120.43066406 C-84.99067462 142.56242777 -84.42747809 166.73347803 -81 189 C-80.8870459 189.74475586 -80.7740918 190.48951172 -80.65771484 191.25683594 C-76.41195473 217.64079638 -66.00312176 245.46796861 -50 267 C-49.27683594 268.01707031 -48.55367188 269.03414062 -47.80859375 270.08203125 C-35.1425073 287.55240364 -19.2922963 301.31447982 0 311 C-4.08848611 312.7241848 -7.37256974 311.09446877 -11.25 309.5625 C-11.95092773 309.29171631 -12.65185547 309.02093262 -13.37402344 308.74194336 C-21.16515119 305.65556511 -28.61659863 301.95165176 -36 298 C-37.06089844 297.43410156 -38.12179687 296.86820313 -39.21484375 296.28515625 C-51.85490191 289.22599105 -62.56868593 279.93458483 -73 270 C-74.07701172 269.00226563 -74.07701172 269.00226563 -75.17578125 267.984375 C-95.85915092 248.25434702 -111.13093213 218.7868863 -117 191 C-117.27972656 189.83726562 -117.55945313 188.67453125 -117.84765625 187.4765625 C-120.16744244 176.86101919 -120.32321229 166.19378082 -120.375 155.375 C-120.38276459 154.63700165 -120.39052917 153.8990033 -120.39852905 153.13864136 C-120.48752721 142.3946112 -119.32608926 132.49798035 -117 122 C-116.70720002 120.63722322 -116.41447548 119.27443023 -116.12182617 117.91162109 C-106.54705898 74.59265931 -77.42968087 39.56570495 -40.8125 15.875 C-7.82954545 -3.91477273 -7.82954545 -3.91477273 0 0 Z " fill="#C4462F" transform="translate(441,321)"/>
<path d="M0 0 C1.09747559 0.00273926 2.19495117 0.00547852 3.32568359 0.00830078 C13.52575058 0.13855263 22.84443463 1.55057258 32.65234375 4.38671875 C37.07301445 5.63249634 40.80575341 6.46252119 45.015625 4.19140625 C46.38181313 3.29832401 47.726672 2.37135556 49.04296875 1.40625 C50.9375 0.3125 50.9375 0.3125 54.9375 0.3125 C54.9375 17.8025 54.9375 35.2925 54.9375 53.3125 C53.2875 52.9825 51.6375 52.6525 49.9375 52.3125 C48.56640625 49.9765625 48.56640625 49.9765625 47.5 46.9375 C41.52480097 31.32428645 31.55087614 16.51541015 15.9921875 9.13671875 C15.31414062 8.86472656 14.63609375 8.59273437 13.9375 8.3125 C13.05835938 7.95671875 12.17921875 7.6009375 11.2734375 7.234375 C2.71314523 4.8687673 -8.76246392 4.64484786 -16.9375 8.3125 C-22.37513166 11.6339155 -25.08882553 16.3914766 -27.0625 22.3125 C-27.95833862 29.28724351 -26.6845574 34.0944323 -23.25390625 40.18359375 C-22.0625 42.3125 -22.0625 42.3125 -21.0625 45.3125 C-19.30627764 46.36396619 -19.30627764 46.36396619 -17.0625 47.3125 C-16.175625 47.82683594 -15.28875 48.34117187 -14.375 48.87109375 C-6.0002475 53.62139558 2.56415472 57.20458698 11.5625 60.625 C55.701241 77.57679271 55.701241 77.57679271 64.9375 98.3125 C70.66069045 112.24252958 70.16895782 125.43022452 65.1640625 139.484375 C60.0505978 151.21250505 49.08138323 159.65915099 37.47851562 164.37182617 C28.17207366 167.81703379 19.34020925 168.77292249 9.44677734 168.64868164 C7.43936947 168.62502203 5.43329435 168.62815713 3.42578125 168.63476562 C-6.64372856 168.58009405 -16.28227099 167.66528091 -25.9375 164.6875 C-31.42257422 163.10518131 -31.42257422 163.10518131 -37.0625 163.3125 C-39.14967396 164.50992251 -41.09733238 165.7921312 -43.03515625 167.21875 C-45.0625 168.3125 -45.0625 168.3125 -50.0625 168.3125 C-50.0625 149.1725 -50.0625 130.0325 -50.0625 110.3125 C-48.4125 110.3125 -46.7625 110.3125 -45.0625 110.3125 C-44.81757813 110.95832031 -44.57265625 111.60414063 -44.3203125 112.26953125 C-36.99101791 130.74440831 -28.20810391 150.96962751 -9.16796875 159.62890625 C2.26953079 163.75791552 16.36716817 164.52912562 27.671875 159.5703125 C34.33684085 155.87010732 38.2707864 151.47412591 40.9375 144.3125 C41.50646609 141.33070242 41.60731127 138.4681058 41.5625 135.4375 C41.5526709 134.64883545 41.5428418 133.8601709 41.53271484 133.04760742 C41.2130516 125.08471412 38.83521444 120.03267879 33.05078125 114.51171875 C22.05646994 105.92549717 7.6065904 100.57209892 -5.375 95.75 C-21.67250134 89.64810044 -39.47760165 80.79804438 -47.0625 64.3125 C-47.40023438 63.60222656 -47.73796875 62.89195312 -48.0859375 62.16015625 C-52.28875644 51.19041324 -51.72259664 35.64191584 -47.38671875 24.85546875 C-41.70908123 13.95239493 -32.44381766 6.71817135 -21.0625 2.3125 C-14.08115035 0.20344766 -7.2534596 -0.03660562 0 0 Z " fill="#C5BA8F" transform="translate(479.0625,692.6875)"/>
<path d="M0 0 C25.74 0 51.48 0 78 0 C78 1.65 78 3.3 78 5 C75.65715206 7.34284794 70.37225063 6.97950971 67.19921875 7.40234375 C64.38291267 7.92846686 62.44261318 8.55855667 60 10 C59.42008561 17.19430022 61.30273791 22.0256554 64.3125 28.5 C64.79178955 29.55968994 65.2710791 30.61937988 65.76489258 31.71118164 C72.43247439 46.3359514 79.41009295 60.82132379 86.33876038 75.32356262 C90.23652345 83.48592397 94.10392478 91.66242238 97.95645142 99.84622192 C98.64434366 101.30716062 99.33278704 102.76783996 100.02182007 104.22824097 C100.97411742 106.24663258 101.92480356 108.26577491 102.875 110.28515625 C103.40867187 111.41832275 103.94234375 112.55148926 104.4921875 113.71899414 C106.05658788 117.12313545 107.53893992 120.55048745 109 124 C111.0207467 121.42048964 112.66225937 118.90904222 114.09375 115.96362305 C114.47885239 115.17642883 114.86395477 114.38923462 115.26072693 113.57818604 C115.66968704 112.73125183 116.07864716 111.88431763 116.5 111.01171875 C116.93220352 110.12506531 117.36440704 109.23841187 117.80970764 108.32489014 C119.21073056 105.44780883 120.60555052 102.56777228 122 99.6875 C122.96254893 97.70633509 123.92535872 95.7252969 124.88842773 93.74438477 C127.59855553 88.16594984 130.30026498 82.58347014 133 77 C133.6225107 75.71416952 134.24506287 74.42835911 134.86767578 73.14257812 C140.20666542 62.1029199 145.4139787 51.00472265 150.5625 39.875 C151.07627197 38.76439209 151.59004395 37.65378418 152.11938477 36.50952148 C152.59690186 35.47255127 153.07441895 34.43558105 153.56640625 33.3671875 C153.98865479 32.45050293 154.41090332 31.53381836 154.84594727 30.58935547 C157.53613245 24.55336984 159.10515283 19.66474822 158 13 C153.46504148 7.81719026 147.60110892 6.77660105 141 6 C141 4.02 141 2.04 141 0 C158.16 0 175.32 0 193 0 C193 1.98 193 3.96 193 6 C191.2984375 6.309375 191.2984375 6.309375 189.5625 6.625 C178.86615281 9.37926224 172.07519657 17.41787429 166.44189453 26.51660156 C165.00349771 29.10864414 163.64395233 31.72646014 162.3125 34.375 C161.55187256 35.86084595 161.55187256 35.86084595 160.77587891 37.37670898 C155.80152489 47.19499468 151.19509266 57.18136034 146.60546875 67.18359375 C142.54376335 76.03413564 138.36455393 84.82846999 134.1875 93.625 C132.6506961 96.86441946 131.1144178 100.10408812 129.578125 103.34375 C129.19753433 104.14619644 128.81694366 104.94864288 128.42481995 105.77540588 C113.94256382 136.2631399 113.94256382 136.2631399 100 167 C98.02 167 96.04 167 94 167 C83.18648463 145.68390101 72.85215635 124.12589039 62.8449707 102.42089844 C58.70476619 93.46151863 54.43620148 84.56888694 50.121521 75.69281006 C46.84828534 68.95634466 43.61080887 62.20687272 40.47265625 55.40625 C40.18441986 54.78190063 39.89618347 54.15755127 39.59921265 53.51428223 C38.23430831 50.55363456 36.87599636 47.59026075 35.52539062 44.62304688 C26.48581717 23.88792034 26.48581717 23.88792034 11 8 C7.37988382 6.7615392 3.73600524 5.81766663 0 5 C0 3.35 0 1.7 0 0 Z " fill="#C5BA8F" transform="translate(378,99)"/>
<path d="M0 0 C25.08 0 50.16 0 76 0 C76 1.65 76 3.3 76 5 C75.04738281 5.04898437 74.09476563 5.09796875 73.11328125 5.1484375 C71.85902344 5.22320312 70.60476563 5.29796875 69.3125 5.375 C67.45044922 5.47941406 67.45044922 5.47941406 65.55078125 5.5859375 C62.20616432 5.97595884 59.9125071 6.33716758 57 8 C54.35022581 11.64867353 53.62420739 14.20159284 53.61904907 18.67929077 C53.6105896 19.81195877 53.60213013 20.94462677 53.59341431 22.11161804 C53.60252335 23.96168205 53.60252335 23.96168205 53.61181641 25.84912109 C53.60655945 27.1553392 53.60130249 28.46155731 53.59588623 29.80735779 C53.58222711 33.38394913 53.58750605 36.9602804 53.59702349 40.5368762 C53.60463061 44.28522144 53.59757126 48.03354474 53.59286499 51.78189087 C53.58740914 58.07826727 53.59459311 64.37453807 53.60888672 70.67089844 C53.62519879 77.94012221 53.61993465 85.20909334 53.6034075 92.47831094 C53.58977078 98.72732364 53.58788406 104.97626049 53.59572351 111.22528327 C53.60038987 114.95398636 53.60105386 118.68257094 53.59111404 122.41126633 C53.58079801 126.57169163 53.5951174 130.73168528 53.61181641 134.89208984 C53.60574371 136.12141739 53.59967102 137.35074493 53.59341431 138.61732483 C53.63941833 144.80763106 53.80598293 149.61193857 57 155 C60.65728405 157.43818936 63.93287895 157.6716692 68.1875 158.125 C69.31188477 158.25455078 69.31188477 158.25455078 70.45898438 158.38671875 C72.30517412 158.59838382 74.15249344 158.80015464 76 159 C76 160.65 76 162.3 76 164 C50.26 164 24.52 164 -2 164 C-2 162.35 -2 160.7 -2 159 C-1.14277344 158.95101562 -0.28554688 158.90203125 0.59765625 158.8515625 C6.66756456 158.45465756 12.24397411 158.00791601 18 156 C18.99336849 152.68750894 19.12806244 149.68191115 19.13371277 146.23095703 C19.13797775 145.05325745 19.14224274 143.87555786 19.14663696 142.66217041 C19.14618378 141.3737323 19.14573059 140.08529419 19.14526367 138.7578125 C19.14825648 137.38441883 19.15165929 136.011026 19.15544128 134.63763428 C19.16427152 130.91044421 19.16661894 127.1832771 19.16725707 123.45607758 C19.168207 120.34462046 19.17188613 117.23316869 19.17542917 114.12171364 C19.18356945 106.78231154 19.18601373 99.44292172 19.18530273 92.10351562 C19.18470153 84.53040966 19.19526278 76.95737484 19.2110464 69.38428688 C19.22411518 62.88228329 19.22948693 56.38030299 19.22884732 49.87828636 C19.22859221 45.99486159 19.23145098 42.11150008 19.24202538 38.22808838 C19.25169564 34.57717215 19.25179297 30.92637984 19.24450874 27.27545929 C19.24296216 25.2962433 19.25131648 23.31702736 19.25994873 21.33782959 C19.25575424 20.16013 19.25155975 18.98243042 19.24723816 17.76904297 C19.24778293 16.74551727 19.24832769 15.72199158 19.24888897 14.66744995 C18.99354763 11.93084718 18.49165501 10.2927517 17 8 C15.19888881 7.18261726 15.19888881 7.18261726 13.0859375 6.953125 C12.32539062 6.83066406 11.56484375 6.70820313 10.78125 6.58203125 C9.9871875 6.47246094 9.193125 6.36289062 8.375 6.25 C7.57320312 6.12496094 6.77140625 5.99992187 5.9453125 5.87109375 C3.96594672 5.56476333 1.98322165 5.280284 0 5 C0 3.35 0 1.7 0 0 Z " fill="#C1B88C" transform="translate(704,394)"/>
<path d="M0 0 C4.33327584 -0.05848483 8.66644885 -0.09375916 13 -0.125 C14.22074219 -0.14175781 15.44148437 -0.15851563 16.69921875 -0.17578125 C28.60012357 -0.24011047 39.91641206 1.75275697 49.18359375 9.92578125 C56.60105241 18.14081611 60.40172784 26.87022468 60.3125 38.0625 C60.30512817 39.16742798 60.30512817 39.16742798 60.29760742 40.29467773 C60.08708496 50.32310422 58.95270375 61.25270154 52 69 C42.8886915 77.71256415 31.60030475 79.16350894 19.4375 79.25 C18.70853516 79.270625 17.97957031 79.29125 17.22851562 79.3125 C12.41937902 79.34712925 9.13976274 78.69905236 5 76 C-1.62119125 68.36342327 -0.27033555 56.94231353 -0.1953125 47.4609375 C-0.19157337 46.08517667 -0.18873066 44.70941315 -0.18673706 43.33364868 C-0.17917132 39.74652503 -0.15958531 36.15956833 -0.1373291 32.57250977 C-0.11671681 28.89862322 -0.10770275 25.22470919 -0.09765625 21.55078125 C-0.07633125 14.36711212 -0.04228286 7.18357963 0 0 Z " fill="#019045" transform="translate(198,474)"/>
<path d="M0 0 C3.60338369 2.90177968 5.15846622 5.60450592 5.72265625 10.1953125 C5.65906748 14.47695646 5.01535863 17.9200859 2.6875 21.5625 C0.47771018 23.44969276 -1.73816503 24.92113452 -4.25390625 26.37109375 C-6.44019241 27.51832094 -6.44019241 27.51832094 -8.3125 29.5625 C-7.88428955 29.9248877 -7.4560791 30.28727539 -7.01489258 30.66064453 C-5.04711393 32.33106406 -3.08605918 34.00919819 -1.125 35.6875 C-0.45146484 36.25726563 0.22207031 36.82703125 0.91601562 37.4140625 C4.9528955 40.87987157 8.33842215 44.43584832 11.6875 48.5625 C12.3475 48.8925 13.0075 49.2225 13.6875 49.5625 C13.89246094 48.93601562 14.09742188 48.30953125 14.30859375 47.6640625 C14.57800781 46.84679687 14.84742188 46.02953125 15.125 45.1875 C15.39183594 44.37539063 15.65867187 43.56328125 15.93359375 42.7265625 C16.6875 40.5625 16.6875 40.5625 17.6875 38.5625 C18.1042552 35.60461431 18.1042552 35.60461431 17.6875 32.5625 C15.13484711 29.91530441 12.11187702 28.79908059 8.6875 27.5625 C8.6875 26.2425 8.6875 24.9225 8.6875 23.5625 C18.5875 23.5625 28.4875 23.5625 38.6875 23.5625 C38.6875 24.8825 38.6875 26.2025 38.6875 27.5625 C36.734375 28.18098958 34.78125 28.79947917 32.828125 29.41796875 C26.38307863 32.86395157 25.07754376 39.80753039 23.03125 46.28515625 C21.65919682 49.63153014 20.30503743 51.15415101 17.6875 53.5625 C17.3575 54.5525 17.0275 55.5425 16.6875 56.5625 C23.68212051 64.21286618 30.38696748 67.29386824 40.6875 68.5625 C40.6875 69.5525 40.6875 70.5425 40.6875 71.5625 C16.73450825 72.26699976 16.73450825 72.26699976 10.93359375 66.95703125 C10.52238281 66.49683594 10.11117187 66.03664063 9.6875 65.5625 C6.40699124 66.60266132 3.27977882 67.74132508 0.125 69.125 C-6.20888087 71.77371382 -12.22521298 71.80693449 -19 71.875 C-20.41442383 71.91850586 -20.41442383 71.91850586 -21.85742188 71.96289062 C-31.73715633 72.05116317 -39.51210434 69.18201869 -46.68359375 62.34375 C-50.66947828 57.98508491 -51.99309203 53.74552419 -51.796875 47.9375 C-50.66356951 42.38064725 -46.91708213 38.16708213 -43 34.25 C-38.49778109 31.42302533 -33.71139448 28.5625 -28.3125 28.5625 C-28.65023438 28.04300781 -28.98796875 27.52351563 -29.3359375 26.98828125 C-36.33043028 16.05180554 -36.33043028 16.05180554 -35.3125 9.5625 C-32.26667862 4.20429917 -28.63509344 -0.0661945 -22.61328125 -1.9765625 C-15.23540037 -3.4546439 -6.63667878 -3.91283016 0 0 Z " fill="#C4B48A" transform="translate(486.3125,444.4375)"/>
<path d="M0 0 C6.24223088 3.98089441 9.54894396 9.83827874 11.6328125 16.8203125 C13.55586847 28.07806006 13.83532523 39.41528704 8.6328125 49.8203125 C8.0759375 50.9546875 7.5190625 52.0890625 6.9453125 53.2578125 C1.89711389 58.85176231 -4.97976025 61.7091601 -12.3671875 62.8203125 C-17.03761418 63.05031197 -21.69261924 63.00948292 -26.3671875 62.9453125 C-27.61886719 62.93628906 -28.87054688 62.92726563 -30.16015625 62.91796875 C-33.2293676 62.89453966 -36.29817506 62.86173397 -39.3671875 62.8203125 C-39.92740393 46.38779392 -40.46160996 29.94984176 -40.6171875 13.5078125 C-40.63845703 12.39559326 -40.65972656 11.28337402 -40.68164062 10.13745117 C-40.68615234 9.1085376 -40.69066406 8.07962402 -40.6953125 7.01953125 C-40.7046582 6.13096436 -40.71400391 5.24239746 -40.72363281 4.3269043 C-40.28254442 1.22508614 -39.18171595 -0.64729651 -37.3671875 -3.1796875 C-26.99028722 -9.29464659 -9.88172001 -4.92455354 0 0 Z " fill="#019045" transform="translate(237.3671875,405.1796875)"/>
<path d="M0 0 C9.9 0 19.8 0 30 0 C30 1.32 30 2.64 30 4 C27.0703125 4.92773438 27.0703125 4.92773438 24.140625 5.85546875 C17.69557863 9.30145157 16.39004376 16.24503039 14.34375 22.72265625 C12.97169682 26.06903014 11.61753743 27.59165101 9 30 C8.505 31.485 8.505 31.485 8 33 C14.99462051 40.65036618 21.69946748 43.73136824 32 45 C32 45.99 32 46.98 32 48 C8.04700825 48.70449976 8.04700825 48.70449976 2.24609375 43.39453125 C1.83488281 42.93433594 1.42367187 42.47414063 1 42 C-2.28050876 43.04016132 -5.40772118 44.17882508 -8.5625 45.5625 C-14.89638087 48.21121382 -20.91271298 48.24443449 -27.6875 48.3125 C-28.63044922 48.34150391 -29.57339844 48.37050781 -30.54492188 48.40039062 C-39.14147755 48.47719834 -47.05777194 46.50546683 -53.5 40.5 C-54.1290625 39.9328125 -54.758125 39.365625 -55.40625 38.78125 C-59.07746276 34.67812986 -59.20911001 31.4368602 -59 26 C-55.04 26 -51.08 26 -47 26 C-46.62875 27.546875 -46.2575 29.09375 -45.875 30.6875 C-44.28586432 35.98711759 -42.63365218 38.0344626 -38 41 C-30.38876299 44.62562304 -21.74834854 43.92391808 -13.9375 41.1875 C-10.53668306 39.85274328 -7.84476548 38.29289411 -5 36 C-5.28875 35.278125 -5.5775 34.55625 -5.875 33.8125 C-6.91666667 31.20833333 -7.95833333 28.60416667 -9 26 C-4.38 26 0.24 26 5 26 C5.474375 24.55625 5.94875 23.1125 6.4375 21.625 C7.19397017 19.32269949 7.91608814 17.16782371 9 15 C9.4167552 12.04211431 9.4167552 12.04211431 9 9 C6.44734711 6.35280441 3.42437702 5.23658059 0 4 C0 2.68 0 1.36 0 0 Z " fill="#C4B389" transform="translate(495,468)"/>
<path d="M0 0 C2.30319689 1.76942143 4.26447487 3.47280838 6.3125 5.5 C6.88282959 6.04736816 7.45315918 6.59473633 8.04077148 7.15869141 C9.18050882 8.25664644 10.31483389 9.3602507 11.44335938 10.46972656 C12.7779095 11.78167138 14.12951078 13.07623197 15.484375 14.3671875 C19.23423723 17.99017469 22.31517513 21.52529188 25 26 C23.5438453 29.83672222 21.78641047 30.96544196 18.125 32.6875 C16.82949219 33.31205078 16.82949219 33.31205078 15.5078125 33.94921875 C8.73031138 36.78901283 0.64836569 37.29532483 -6.453125 35.31640625 C-11.09321859 33.1823174 -14.27536441 30.37592989 -17 26 C-18.37257361 20.74006758 -18.45220016 15.22792056 -17 10 C-13.17575871 3.97619509 -7.56618817 -1.14474029 0 0 Z " fill="#C4462F" transform="translate(466,476)"/>
<path d="M0 0 C0 1.32 0 2.64 0 4 C-9.47506073 9.95575246 -22.12373582 9.36237075 -32.9375 9.3125 C-34.77248047 9.30730347 -34.77248047 9.30730347 -36.64453125 9.30200195 C-57.81855853 9.04663822 -57.81855853 9.04663822 -65 3 C-64.67 2.01 -64.34 1.02 -64 0 C-46.86287642 -8.40055078 -17.00502052 -8.50251026 0 0 Z " fill="#C44830" transform="translate(516,643)"/>
<path d="M0 0 C2.14907572 1.66613736 3.40998829 2.69497657 4.625 5.125 C4.66522391 7.4579866 4.66820247 9.79206666 4.625 12.125 C1.985 12.125 -0.655 12.125 -3.375 12.125 C-3.4678125 13.23875 -3.4678125 13.23875 -3.5625 14.375 C-4.82627964 18.652408 -7.81215544 20.13046255 -11.4375 22.4375 C-13.375 23.125 -13.375 23.125 -15.3125 23.125 C-18.59649985 21.53275765 -20.26128568 19.03849811 -22.375 16.125 C-22.705 14.805 -23.035 13.485 -23.375 12.125 C-27.005 12.125 -30.635 12.125 -34.375 12.125 C-34.705 13.115 -35.035 14.105 -35.375 15.125 C-36.03158115 10.74779231 -35.20478232 8.42049165 -32.6875 4.9375 C-25.21704722 -4.27312884 -10.02668004 -6.63601529 0 0 Z " fill="#C5B48A" transform="translate(486.375,444.875)"/>
<path d="M0 0 C2.32579982 -0.0097324 4.65072363 -0.04086188 6.97631836 -0.07226562 C15.40194139 -0.13023623 22.86662434 0.33392329 30.89624023 3.24023438 C31.39124023 5.22023438 31.39124023 5.22023438 31.89624023 7.24023438 C30.04327188 7.72401429 28.18879583 8.20202073 26.33374023 8.67773438 C25.30120117 8.94457031 24.26866211 9.21140625 23.20483398 9.48632812 C15.02195439 11.350904 7.05971604 11.42349745 -1.29125977 11.42773438 C-2.54229492 11.43998047 -3.79333008 11.45222656 -5.08227539 11.46484375 C-25.13307198 11.49615681 -25.13307198 11.49615681 -33.10375977 6.24023438 C-30.59772631 2.48118419 -29.43778307 2.3237402 -25.10375977 1.24023438 C-16.80175978 -0.0396 -8.37929063 0.0211576 0 0 Z " fill="#C54830" transform="translate(484.103759765625,299.759765625)"/>
<path d="M0 0 C3.34265205 1.20706879 3.94704566 1.92056849 6 5 C6.53918602 8.7175457 6.55247838 12.28332725 6 16 C3.75 18.5625 3.75 18.5625 1 20 C0.319375 20.433125 -0.36125 20.86625 -1.0625 21.3125 C-3 22 -3 22 -4.9375 22 C-8.67411576 20.18830751 -11.16723132 16.66553737 -13 13 C-13.40417552 10.03604618 -13.56382171 7.91095074 -11.953125 5.30859375 C-8.08848385 0.59145823 -6.01002987 -0.36060179 0 0 Z " fill="#C54830" transform="translate(476,446)"/>
</svg>
