<svg xmlns="http://www.w3.org/2000/svg" xmlns:xlink="http://www.w3.org/1999/xlink" version="1.2" viewBox="0 0 358.87 407.38"><!-- Source: https://football-logos.cc --><g transform="translate(-54.648 -252.75)" data-source="https://football-logos.cc"><use xlink:href="#s" width="100%" height="100%" x="339.597" y="569.474"></use><use xlink:href="#s" width="100%" height="100%" x="402.273" y="563.991"></use><use xlink:href="#t" width="100%" height="100%" x="344.199" y="523.41"></use></g><g stroke-width=".3" data-source="https://football-logos.cc"><path d="M272.502-.004H0c1.821 118.876 6.855 208.388 30.912 274.086C55.688 341.745 123.61 407.38 183.026 407.38c79.268 0 167.709-112.127 175.848-255.06 0 0-95.78-35.53-86.376-152.324"></path><path fill="#fff" d="M269.339 88.553c-9.012-19.493-14.981-43.137-15.215-70.85H17.968c1.395 75.843 4.71 138.682 13.773 189.546L269.755 89.402c-.13-.287-.283-.56-.416-.846M63.075 300.39a229.4 229.4 0 0 0 24.526 33.927c17.349 19.936 37.803 36.282 57.689 45.724 13.266 6.345 26.154 9.611 37.726 9.584 15.58.027 32.72-5.553 50.108-16.879 17.348-11.276 34.684-28.221 50.121-49.678 29.13-40.406 51.37-96.68 57.08-159.958z"></path><path d="M49.106 79.164c0 8.19 6.072 11.393 12.964 11.393 4.514 0 11.405-1.379 11.405-7.687 0-6.645-8.789-7.764-17.398-10.181-8.69-2.42-17.465-5.97-17.465-17.532 0-12.614 11.313-18.66 21.9-18.66 12.224 0 23.46 5.617 23.46 19.869H71.498c-.4-7.424-5.41-9.322-11.56-9.322-4.11 0-8.868 1.808-8.868 6.995 0 4.747 2.796 5.346 17.478 9.325 4.262 1.118 17.385 3.965 17.385 17.958 0 11.302-8.453 19.768-24.356 19.768-12.967 0-25.102-6.735-24.942-21.926zm92.528-20.474c-.819-6.14-6.399-10.794-12.797-10.794-11.563 0-15.904 10.364-15.904 21.157 0 10.274 4.345 20.642 15.904 20.642 7.88 0 12.301-5.697 13.29-13.827h12.471c-1.312 15.371-11.402 25.216-25.761 25.216-18.128 0-28.791-14.24-28.791-32.027 0-18.31 10.663-32.566 28.79-32.566 12.875 0 23.708 7.956 25.27 22.199zm57.991 40.916H185.1l-19.026-61.657h13.29l13.044 43.356h.156l13.214-43.356h13.273zM169.43 312.175h-6.569v-22.123h-8.14v-5.2c4.578.09 8.79-1.561 9.482-6.775h5.227zm13.05-8.79c.416 2.291 2.08 4.239 4.345 4.239 4.76 0 6.006-6.579 6.202-10.377l-.103-.103c-1.798 2.68-4.162 3.795-7.311 3.795-2.77 0-5.593-1.352-7.438-3.496-1.717-2.097-2.496-4.927-2.496-7.607 0-6.958 4.577-12.471 11.325-12.471 9.808 0 12.448 9.012 12.448 17.631 0 8.337-3.512 17.831-12.717 17.831-5.607 0-9.768-3.462-10.51-9.441zm9.934-13.982c0-3.17-1.937-6.332-5.226-6.332-3.146 0-4.94 3.163-4.94 6.232 0 3.21 1.57 6.436 4.94 6.436 3.525 0 5.226-2.977 5.226-6.332m10.64 1.76c-.232-7.79 3.979-13.782 11.756-13.782 5.92 0 11.093 4.005 11.093 10.673 0 5.114-2.587 7.934-5.773 10.327-3.2 2.38-6.985 4.328-9.352 7.844H226.1v5.943h-23.787c.053-7.894 4.628-11.253 10.22-15.241 2.877-2.058 6.766-4.149 6.806-8.337 0-3.212-2.031-5.267-4.851-5.267-3.888 0-5.137 4.239-5.137 7.84zm39.385 13.084h-13.693v-6.332l14.056-19.875h5.88v20.511h4.304v5.696h-4.305v7.894h-6.242zm0-17.531h-.143l-8.376 11.835h8.519zm-81.765 62.509c.196 4.381 2.224 6.372 5.88 6.372 2.64 0 4.76-1.705 5.173-3.263h5.79c-1.848 5.943-5.79 8.48-11.2 8.48-7.54 0-12.212-5.45-12.212-13.254 0-7.557 4.958-13.29 12.212-13.29 8.143 0 12.085 7.205 11.615 14.955zm10.687-4.395c-.596-3.499-2.025-5.36-5.227-5.36-4.162 0-5.37 3.423-5.46 5.36zm39.384 15.315h-8.19l-10.736-34.787h7.49l7.361 24.463h.093l7.451-24.463h7.49zm-25.036-7.524c2.005 0 3.63 1.678 3.63 3.745s-1.625 3.759-3.63 3.759-3.628-1.691-3.628-3.759 1.624-3.745 3.628-3.745m36.056 0c2.004 0 3.628 1.678 3.628 3.745s-1.624 3.759-3.628 3.759-3.642-1.691-3.642-3.759 1.637-3.745 3.642-3.745"></path><path fill="#fff" d="m212.51 177.942-9.635 19.509 10.91 1.651 21.926-44.385-59.496 29.467v-12.718l-10.52 5.2v12.735l-36.316 17.97 9.678-19.558-10.926-1.652-21.95 44.439 59.51-29.47v12.73l10.52-5.213v-12.718z"></path></g><g transform="translate(-54.648 -252.75)" data-source="https://football-logos.cc"><use xlink:href="#t" width="100%" height="100%" x="178.923" y="312.289"></use><use xlink:href="#t" width="100%" height="100%" x="347.087" y="297.576"></use><use xlink:href="#s" width="100%" height="100%" x="317.29" y="344.727"></use><use xlink:href="#s" width="100%" height="100%" x="379.966" y="339.244"></use></g><!-- source: https://football-logos.cc --></svg>