<svg xmlns="http://www.w3.org/2000/svg" xml:space="preserve" viewBox="0 0.02 772.6 772.6"><!-- Source: https://football-logos.cc --><g fill-rule="evenodd" data-source="https://football-logos.cc"><path fill="#161315" d="M386.3.025c213.312 0 386.3 172.989 386.3 386.3 0 213.313-172.988 386.302-386.3 386.302C172.989 772.627 0 599.637 0 386.324 0 173.014 172.989.024 386.3.024"></path><path fill="#fff" d="M476.099 110.574q-.001-14.062.106-20.825.107-6.761.215-11.914l-19.286 32.758zm23.506 11.7v-11.7h-8.479v-47.66h-17.069l-28.015 46.372v12.988H476.1v16.854h15.027v-16.854zm-84.035 6.87q6.332 0 8.642-6.01 2.308-6.012 2.307-21.148 0-15.027-2.307-21.04-2.31-6.01-8.642-6.01-6.334.001-8.64 5.957-2.31 5.96-2.31 21.093 0 15.03 2.31 21.093 2.306 6.065 8.64 6.065m0-66.23q-13.525 0-19.967 9.554-6.438 9.554-6.44 29.518 0 19.967 6.494 29.574 6.498 9.607 19.913 9.606 13.527.001 19.967-9.553t6.44-29.627q0-19.965-6.495-29.518-6.493-9.554-19.912-9.554m-57.736 39.179q4.401 0 7.728-3.219 3.329-3.221 3.327-9.554 0-6.762-2.843-10.412-2.845-3.65-8.642-3.65-4.184 0-7.514 2.791-3.326 2.792-3.327 10.09 0 7.945 3.112 10.95 3.114 3.005 8.159 3.004m-9.875 19.43h-14.92q.965 9.123 7.406 14.384 6.44 5.26 16.209 5.26 11.7 0 19.697-9.339 7.997-9.338 7.997-29.735 0-20.179-6.71-29.68-6.708-9.498-20.127-9.5-11.697 0-18.838 6.925c-4.759 4.614-7.137 11.433-7.137 20.448 0 6.655 2.074 12.29 6.244 16.907 4.167 4.616 9.731 6.923 16.708 6.923q4.482 0 8.266-1.449c2.522-.965 4.58-2.63 6.135-4.992l.431.216q0 11.055-3.65 16.155-3.648 5.097-8.91 5.098-3.54.001-5.85-1.879-2.306-1.878-2.95-5.742m-69.653-45.406v10.52h18.143v52.49h15.027V62.915h-12.345q0 5.152-4.401 9.177-4.4 4.026-14.276 4.026zm359.162 270.027-2.19-15.58 79.899-11.229 2.346 16.693-52.393 40.613 57.007-7.786 2.189 15.579-79.898 11.229-2.472-17.581 51.183-39.535zm63.353 100.455 6.967-39.509 14.387 2.538-9.894 56.108-79.458-14.012 2.926-16.598zm-87.126 32.284-5.76 12.936-11.805-5.256 5.758-12.934zm-8.913 20.02-5.76 12.936-11.805-5.258 5.759-12.933zm72.593 28.138q-3.519 7.906-12.118 11.334t-22.561-2.786q-13.963-6.22-17.146-14.953-3.182-8.736.29-16.54 3.52-7.904 12.12-11.333 8.6-3.428 22.56 2.787 13.964 6.217 17.146 14.954 3.183 8.734-.29 16.537m-64.572-28.749q3.108-6.98 9.525-13.657t17.879-9.076q11.464-2.4 27.17 4.592 15.81 7.04 21.668 17.09t5.191 19.285q-.668 9.239-3.823 16.32-3.107 6.982-9.525 13.657-6.417 6.678-17.88 9.077-11.46 2.4-27.17-4.593-15.807-7.039-21.665-17.09-5.859-10.049-5.19-19.285c.444-6.157 1.72-11.597 3.82-16.32m5.136 130.558-11.495 12.327-59.008-55.027 11.495-12.328 23.998 22.381-3-44.899 14.87-15.945 1.706 46.614 58.605 7.016-14.791 15.862-42.902-5.896.552 11.272zm-166.388 54.84 3.114-33.474 16.923 28.847zm-2.978 32.058-17.301 3.994 10.008-85.119 19.034-4.393 45.633 72.27-17.847 4.122-8.779-15.043-29.015 6.699zm-47.932 5.905-16.847.59-2.816-80.636 16.845-.588zm-77.05-52.193-19.272-4.45 4.853-21.023 20.477 4.728q6.459 1.49 8.257 5.194 1.799 3.7.863 7.752-1.34 5.805-4.975 7.559-3.634 1.758-10.203.24m-27.378-42.764 39.745 9.175q10.73 2.478 16.412 9.843 5.679 7.368 3.202 18.098-1.517 6.57-5.922 10.916t-10.554 5.001q5.001 3.806 6.371 7.872 1.367 4.062-1.008 14.357-2.15 9.305-2.289 12.158-.139 2.85 2.179 4.308l-.48 2.08-18.178-4.195a50 50 0 0 1 .178-6.765q.32-3.385 1.735-9.517 2.074-8.979.676-12.414-1.396-3.439-10.048-5.435l-16.97-3.918-7.104 30.768-16.096-3.716zm-75.479 37.47q-7.492-4.325-10.005-13.236-2.511-8.91 5.13-22.146 7.645-13.234 16.663-15.488 9.023-2.251 16.418 2.019 7.492 4.324 10.006 13.235 2.51 8.911-5.13 22.147-7.644 13.237-16.663 15.488-9.022 2.253-16.419-2.018m35.342-61.211q6.618 3.82 12.587 10.901 5.97 7.077 7.158 18.729 1.187 11.65-7.409 26.54-8.652 14.987-19.26 19.763-10.607 4.776-19.722 3.146t-15.831-5.507q-6.617-3.82-12.587-10.9-5.97-7.079-7.157-18.73-1.19-11.65 7.408-26.541c5.768-9.99 12.188-16.58 19.26-19.762q10.609-4.775 19.722-3.146 9.117 1.63 15.831 5.507m-119.169 7.374-10.834-12.911 50.876-42.691-15.674-18.681 10.931-9.172 42.185 50.272-10.933 9.172-15.675-18.678zm-67.53-114.69-6.042-15.737 75.326-28.915 6.04 15.737-30.633 11.76 41.668 16.986 7.813 20.351-42.643-18.897-31.999 49.598-7.772-20.25 24.108-35.974-10.374-4.445zm-14.14-58.307-2.054-16.73 80.082-9.833 2.054 16.732zm75.345-63.52-2.44 17.359-76.084-38.382 2.237-15.913 83.683-15.7-2.517 17.916-62.945 8.63zM638.964 134.3l-67.046 128.571c23.563 35.345 37.304 77.797 37.304 123.453 0 123.1-99.824 222.923-222.922 222.923-123.096 0-222.92-99.823-222.92-222.923 0-45.477 13.637-87.776 37.032-123.038l-67.092-128.66C69.102 199.159 29.408 288.116 29.408 386.325c0 197.075 159.82 356.894 356.892 356.894 197.075 0 356.893-159.819 356.893-356.894 0-98.372-39.823-187.466-104.229-252.024M386.3 29.433c69.038 0 133.487 19.63 188.111 53.587l-.297.57-61.95 118.748c-35.821-24.556-79.163-38.933-125.864-38.933-46.858 0-90.333 14.477-126.224 39.183L197.998 83.589l-.176-.338c54.702-34.1 119.286-53.818 188.478-53.818"></path><path fill="#eb2225" d="M136.94 131.059c17.304-16.907 36.306-32.086 56.75-45.22l192.366 368.749 192.368-368.75c20.442 13.135 39.445 28.314 56.748 45.22L386.056 608.777z"></path></g><!-- source: https://football-logos.cc --></svg>