<svg xmlns="http://www.w3.org/2000/svg" version="1.0" viewBox="5.05 5 289.9 290"><!-- Source: https://football-logos.cc --><path d="M322.928 192.973c0 79.218-64.225 143.449-143.445 143.449-79.235 0-143.452-64.231-143.452-143.45S100.248 49.525 179.483 49.525c79.22 0 143.445 64.23 143.445 143.449" style="font-size:10px;letter-spacing:0;word-spacing:0;fill:#fff;fill-rule:nonzero;stroke:none;font-family:fnt0" transform="translate(-29.48 -42.86)" data-source="https://football-logos.cc"></path><path d="M273.663 194.219c0 56.015-42.168 101.425-94.184 101.425s-94.183-45.41-94.183-101.425c0-56.02 42.167-101.43 94.183-101.43s94.184 45.41 94.184 101.43" style="font-size:10px;letter-spacing:0;word-spacing:0;fill:#c4161c;fill-rule:nonzero;stroke:none;font-family:fnt0" transform="translate(-29.48 -42.86)"></path><path d="M182.778 294.234c-.113.008-.81.02-1.427.034-1.566.032-2.586.051-3.253.127-2.982-.204-6.183-.608-9.858-1.248-24.254-4.216-45.486-18.383-59.787-39.888-16.263-24.464-21.973-56.022-15.28-84.412 5.13-21.77 17.76-41.543 35.554-55.676 8.287-6.579 17.982-11.704 28.815-15.225 5.087-1.666 10.66-2.821 17.042-3.578a76 76 0 0 1 4.644-.38c.078-.018.144-.018.218-.018.102 0 .195 0 .301.019 3.194.132 6.683.549 10.98 1.306 44.134 7.668 77.704 50.19 78.102 98.924-.231 28.281-11.015 54.502-30.362 73.824-8.926 8.916-20.199 16.148-32.597 20.915-5.48 2.107-11.467 3.646-18.313 4.71-1.58.248-3.204.409-4.779.566m98.13-99.339c.001-.002-.014-.657-.016-.7l.004-.663-.027-.017c-.395-28.642-11.399-55.212-31.046-74.839-17.82-17.796-41.698-27.243-69.057-27.319h-.013c-.377-.038-.801-.038-1.248-.038-.553 0-1.062.02-1.484.076-26.326.492-48.705 8.88-66.535 25.05-20.034 18.165-32.195 45.204-33.353 74.194-1.129 28.147 9.39 55.945 28.858 76.259 18.413 19.216 42.948 29.928 69.078 30.168 27.957.254 50.53-7.25 69.015-22.942 20.53-17.429 33.498-43.96 35.58-72.79.16-2.213.202-4.438.22-6.424" style="font-size:10px;letter-spacing:0;word-spacing:0;fill:#231f20;fill-rule:nonzero;stroke:none;font-family:fnt0" transform="translate(-29.48 -42.86)"></path><path d="M223.366 325.762c-13.058 5.35-27.33 8.51-42.423 9.388-13.684.797-29.803-3.703-40.918-7.62-25.047-8.834-48.061-26.285-64.807-49.142-16.804-22.938-26.173-50.729-27.094-80.363-.91-29.383 6.534-57.823 21.528-82.24 14.247-23.21 35.97-42.294 61.164-53.729 12.28-5.566 25.85-9.2 40.333-10.81 12.32-1.344 26.738.492 42.851 5.51 56.713 17.625 96.584 73.626 96.961 136.186-.176 28.708-8.565 56.472-24.265 80.287-15.71 23.826-37.607 41.992-63.33 52.533m101.056-133.11c-.231-29.097-8.75-57.215-24.661-81.353-15.971-24.214-38.234-42.692-64.388-53.408-21.437-8.784-46.876-11.813-75.61-9.03-27.226 2.65-54.253 14.577-76.101 33.585-21.628 18.8-36.967 44.093-44.356 73.143-7.325 28.8-6.208 58.68 3.23 86.415 18.59 54.637 69.286 93.073 126.146 95.651 42.304 1.916 78.107-9.593 106.41-34.208 30.572-26.589 49-67.785 49.334-110.236q.003-.115.003-.256v-.017q.001-.156-.007-.286" style="font-size:10px;letter-spacing:0;word-spacing:0;fill:#b88748;fill-rule:nonzero;stroke:none;font-family:fnt0" transform="translate(-29.48 -42.86)" data-source="https://football-logos.cc"></path><path d="M60.983 216.809q-1.24.46-1.76 1.096-.946 1.163-.448 3.347.298 1.312.79 2.058.933 1.415 2.518 1.054.92-.211 1.255-1.084.321-.873.324-2.605l.015-1.979q.025-2.916.562-4.127.891-2.047 3.637-2.673 2.505-.574 4.553.765 2.05 1.335 2.808 4.655.633 2.775-.483 5.089t-4.069 3.09l-.793-3.482q1.662-.481 2.073-1.944.269-.975-.024-2.264-.329-1.435-1.13-2.153-.804-.718-1.892-.47-1 .23-1.3 1.186-.206.616-.247 2.48l-.077 3.216q-.052 2.115-.67 3.308-.962 1.85-3.456 2.42c-1.703.387-3.258.1-4.664-.87q-2.108-1.45-2.872-4.801-.782-3.425.435-5.765 1.216-2.34 4.125-3.004M81.403 238.696l1.372 3.606-20.038 1.134-1.245-3.28 15.744-12.42 1.41 3.71-12.204 8.768M90.092 255.986l-7.56 8.271-2.184 2.185 2.728-1.316 10.138-4.76 2.276 3.192-7.694 8.079-2.17 2.211 2.706-1.255 10.392-4.497 2.196 3.08-18.482 7.03-2.065-2.895 7.864-8.243 2.649-2.658-3.376 1.638-10.356 4.744-2.003-2.81 12.653-15.21M110.47 284.796l-6.8-6.503-2.807 2.934 6.24 5.97-2.295 2.402-6.242-5.97-3.4 3.556 7.113 6.802-2.378 2.486-9.737-9.313 13.224-13.824 9.423 9.012M105.641 301.07l10.611-15.919 3.071 2.047-4.046 6.07 5.752 3.833 4.046-6.07 3.07 2.047-10.61 15.92-3.072-2.046 4.737-7.108-5.751-3.833-4.737 7.107M142.946 303.546l-8.633-3.737-1.615 3.728 7.927 3.43-1.322 3.05-7.925-3.43-1.953 4.513 9.032 3.91-1.365 3.156-12.364-5.35 7.597-17.558 11.967 5.18M148.386 301.812l3.792.884 3.847 14.59 3.027-12.99 3.372.785-4.34 18.631-3.617-.842-3.97-14.862-3.08 13.22-3.37-.783M178.502 306.412l3.025 10.788.7 3.01.328-3.012 1.316-11.12 3.911-.247 2.793 10.8.73 3.013.364-2.961 1.674-11.198 3.775-.237-3.796 19.405-3.55.222-2.842-11.032-.857-3.652-.394 3.732-1.445 11.298-3.443.216-6.225-18.779M208.15 321.832l-3.598.827-4.29-18.642 3.597-.827M222.543 300.453l-8.8 3.328 1.435 3.8 8.079-3.056 1.173 3.109-8.076 3.056 1.74 4.6 9.207-3.482 1.215 3.217-12.601 4.765-6.767-17.893 12.197-4.611M234.43 305.311q.815 1.042 1.579 1.344 1.398.547 3.326-.594 1.156-.682 1.719-1.377 1.065-1.32.24-2.718-.482-.817-1.418-.867-.925-.04-2.58.484l-1.888.587q-2.786.863-4.104.72-2.22-.227-3.652-2.65-1.306-2.213-.657-4.571.648-2.359 3.582-4.091 2.45-1.447 4.994-1.087c1.698.237 3.088 1.215 4.18 2.935l-3.074 1.815q-.963-1.436-2.484-1.384-1.01.04-2.147.714-1.268.747-1.708 1.732-.438.981.131 1.943.52.883 1.522.878.65.008 2.437-.519l3.088-.905q2.03-.596 3.354-.369 2.056.356 3.355 2.556 1.334 2.258.595 4.708-.742 2.448-3.702 4.198-3.022 1.784-5.624 1.338c-1.735-.297-3.105-1.302-4.118-3.016M250.102 291.8l3.298 3.89 3.292-2.79q.885-.75 1.157-1.422.489-1.233-.653-2.578-.968-1.139-2.19-.832-.683.171-1.566.902zm-4.775-5.632 2.729 3.216 3.294-2.794q.885-.749 1.128-1.577.243-.827-.534-1.748c-.58-.681-1.2-.923-1.872-.729q-.822.305-1.795 1.13zm6.532-7.223q1.41.404 2.51 1.698 1.136 1.338 1.195 2.681.035.753-.331 1.71 1.384-.476 2.658-.042 1.277.433 2.342 1.69 1.1 1.297 1.368 2.839.197 1.009.014 1.963-.197 1.084-.91 2.031-.717.945-1.75 1.822l-6.11 5.181-12.372-14.59 6.555-5.557q2.513-2.065 4.831-1.426M266.948 277.247l2.936-3.478-7.198-3.144zm-8.934-7.868 2.715-3.211 18.67 7.543-2.599 3.078-3.761-1.643-4.224 5 2.224 3.458-2.506 2.969M271.557 256.904l10.68 6.468 1.777-2.937q1.364-2.25-.485-4.587-1.013-1.278-2.826-2.374-2.497-1.512-4.275-1.594-1.781-.08-3.094 2.09zm1.041-7.33q1.534-1.26 3.643-1.337a8.8 8.8 0 0 1 3.3.517q1.596.57 2.885 1.35 3.263 1.977 4.791 4.566 2.051 3.5-.036 6.949l-3.97 6.558-16.365-9.91 3.97-6.556q.879-1.4 1.782-2.137M284.78 230.55l-3.65 8.67 3.742 1.578 3.351-7.961 3.064 1.291-3.353 7.959 4.532 1.91 3.823-9.072 3.169 1.335-5.23 12.417-17.63-7.425 5.06-12.018M283.301 224.45l.994-3.765 14.701-3.417-12.897-3.406.885-3.347 18.496 4.886-.948 3.591-14.974 3.531 13.124 3.467-.882 3.347M152.284 80.564l-.693.968c-.057.081-1.507 2.039-3.586 1.204-.242-.095-.613-.354-1.01-.79.259-.397.34-.867.185-1.293l-.437-1.204c-.161-.44-.542-.748-1.043-.884.075-.988.573-1.867 1.537-2.596.952-.719 1.846-1.012 2.652-.874 1.2.2 1.892 1.291 1.897 1.3l1.288 2.066-.069-2.433c-.001-.102-.081-2.53-.965-5.072-.807-2.317-1.687-3.765-3.584-3.826-.878-.025-1.836.487-2.702 1.44-1.643 1.814-3.097 5.491-2.368 10.396l-1.556.566c-.207-1.06-.277-1.927-.356-2.957l-.097-1.204c-.096-1.066-.057-2.018-.02-2.938.077-1.935.155-3.762-1.114-5.865-1.526-2.528-5.337-4.196-5.496-4.268l-.598-.25-.288.574c-.077.157-1.923 3.885-1.467 6.8.379 2.428 1.61 3.78 2.914 5.21.62.682 1.264 1.385 1.874 2.261l.697.983c.604.84 1.101 1.552 1.63 2.499l-1.555.566c-2.593-4.23-6.073-6.108-8.496-6.443-1.275-.174-2.337.051-2.994.635-1.42 1.266-1.164 2.942-.29 5.236.96 2.516 2.458 4.425 2.523 4.504l1.54 1.95-.37-2.453c-.002-.012-.17-1.29.615-2.214.532-.624 1.406-.973 2.595-1.033 1.212-.063 2.155.29 2.85 1.003-.301.434-.39.907-.231 1.34l.437 1.205c.153.42.506.723.971.87-.024.591-.14 1.028-.263 1.256-1.032 1.927-3.288 1.438-3.497 1.39l-1.23-.478.394 1.286c1.028 3.345 2.964 4.072 4.433 3.637 2.058-.61 3.586-3.634 2.723-7.541l1.64-.598c.037.157.087.299.12.47l.03.166c.32 1.64.385 1.98-.14 4.191-.567 2.355-.974 4.056 1.985 5.059.318.112.958.178 2.018.267.17.013.331.026.382.034l.349.045.237-.259c.035-.04.159-.16.278-.28.753-.744 1.193-1.202 1.37-1.498 1.621-2.665.216-3.707-1.734-5.147-1.825-1.354-1.997-1.655-2.804-3.115l-.083-.151c-.083-.148-.14-.292-.21-.436l1.64-.598c1.857 3.548 4.97 4.88 6.936 4.027 1.405-.61 2.422-2.412 1.059-5.636zm38.898-16.719c-.818-.323-1.893-.172-3.031.428-2.164 1.144-4.788 4.1-5.78 8.959h-1.657c.169-1.068.398-1.907.678-2.9l.32-1.167c.275-1.033.638-1.914.987-2.766.734-1.79 1.43-3.481.958-5.891-.568-2.897-3.579-5.769-3.704-5.89l-.479-.441-.465.44c-.127.122-3.137 2.994-3.705 5.89-.474 2.41.221 4.101.958 5.892.35.852.712 1.733.986 2.766l.318 1.16c.282.997.506 1.837.678 2.907h-1.655c-.992-4.862-3.618-7.815-5.78-8.959-1.138-.6-2.213-.751-3.03-.428-1.767.705-2.099 2.367-2.063 4.82.042 2.693.797 4.999.83 5.097l.782 2.359.49-2.433c.002-.011.28-1.27 1.335-1.87.713-.406 1.654-.432 2.792-.084 1.159.356 1.927 1.01 2.334 1.918-.431.305-.675.72-.675 1.182v1.281c0 .445.227.852.613 1.15-.225.547-.483.918-.676 1.088-1.628 1.46-3.582.227-3.76.112l-.996-.871-.068 1.344c-.178 3.495 1.394 4.841 2.923 4.934 2.142.13 4.61-2.189 5.137-6.157h1.747c-.019.16-.02.312-.05.483l-.026.166c-.261 1.651-.316 1.994-1.565 3.89-1.34 2.02-2.304 3.479.132 5.433.261.214.839.496 1.806.94.154.072.303.14.349.163l.312.163.309-.163c.047-.024.206-.096.357-.166.964-.443 1.534-.723 1.803-.94 2.433-1.951 1.469-3.41.13-5.431-1.253-1.895-1.312-2.238-1.571-3.885l-.026-.17c-.027-.167-.03-.322-.05-.483h1.748c.53 3.968 3 6.287 5.14 6.157 1.53-.093 3.1-1.44 2.921-4.934l-.059-1.162-.98.674c-.084.056-2.113 1.4-3.783-.095-.195-.172-.454-.542-.68-1.089.379-.284.618-.696.618-1.15v-1.282c0-.47-.25-.888-.678-1.188.41-.903 1.177-1.558 2.332-1.912 1.14-.352 2.08-.322 2.793.084 1.056.6 1.334 1.86 1.338 1.872l.502 2.382.769-2.31c.032-.098.787-2.406.827-5.097.036-2.453-.297-4.115-2.06-4.82m41.314 11.291c-.657-.583-1.72-.808-2.993-.634-2.427.335-5.903 2.215-8.497 6.443l-1.556-.566c.524-.947 1.024-1.657 1.628-2.495l.7-.985c.61-.878 1.254-1.58 1.873-2.264 1.304-1.432 2.535-2.783 2.915-5.208.456-2.918-1.39-6.646-1.465-6.8l-.3-.578-.588.253c-.16.07-3.97 1.74-5.496 4.268-1.27 2.101-1.195 3.928-1.115 5.863.038.922.077 1.872-.02 2.938l-.096 1.199c-.077 1.031-.153 1.9-.357 2.962l-1.557-.566c.733-4.907-.725-8.582-2.364-10.395-.867-.954-1.823-1.464-2.704-1.44-1.9.06-2.779 1.508-3.586 3.825-.884 2.545-.961 4.97-.963 5.072l-.072 2.484 1.293-2.117c.006-.01.695-1.098 1.893-1.3.809-.137 1.702.159 2.653.876.967.731 1.465 1.608 1.537 2.6-.51.138-.882.445-1.04.878l-.439 1.204c-.151.42-.077.88.184 1.291-.398.438-.767.697-1.005.794-2.03.812-3.444-1.013-3.573-1.184l-.638-1.156-.524 1.238c-1.362 3.224-.345 5.026 1.06 5.636 1.967.854 5.081-.479 6.933-4.027l1.641.596c-.074.144-.127.286-.21.438l-.083.146c-.81 1.461-.979 1.764-2.802 3.12-1.95 1.438-3.355 2.48-1.732 5.151.172.29.617.752 1.374 1.501.121.12.237.235.27.273l.24.26.346-.048c.053-.008.227-.02.394-.036 1.056-.085 1.686-.153 2.012-.265 2.955-1.002 2.548-2.704 1.982-5.059-.53-2.21-.466-2.55-.147-4.187l.032-.17c.032-.167.083-.313.12-.47l1.64.598c-.857 3.91.669 6.933 2.725 7.542 1.469.436 3.406-.291 4.434-3.636l.34-1.112-1.15.297c-.097.025-2.466.593-3.522-1.383-.125-.23-.244-.665-.267-1.254.452-.138.818-.445.973-.873l.44-1.204c.158-.44.066-.92-.232-1.346.695-.71 1.64-1.062 2.846-1 1.19.061 2.065.41 2.595 1.034.788.924.618 2.206.618 2.217l-.343 2.409 1.51-1.907c.065-.08 1.565-1.99 2.523-4.506.872-2.294 1.128-3.97-.288-5.235" style="font-size:10px;letter-spacing:0;word-spacing:0;fill:#b88748;fill-rule:nonzero;stroke:none;font-family:fnt0" transform="translate(-29.48 -42.86)"></path><path d="m166.413 266.225 6.073-5.475c3.247-2.866 5.038-6.017 5.032-10.114.012-5.988-4.824-9.653-11.45-9.676-.07-.002-.146-.002-.216-.002-5.767-.01-8.82 1.939-10.348 4.362-1.53 2.414-1.554 5.208-1.556 6.875v1.633h7.936l.011-.348q.01-.403.01-.808v-.635c-.004-1.243.045-2.45.562-3.5.468-1.16 1.706-1.572 3.266-1.577 2.088.062 3.279.767 3.34 3.917-.02 3.296-1.193 4.265-3.696 6.656l-3.752 3.456c-4.771 4.396-6.869 7.703-7.395 10.329-.39 2.094-.614 4.6-.669 6.157l-.015.37h23.364v-5.999h-14.384c.25-2.11 2.378-4.28 3.887-5.62m29.53 4.985c-.437.844-1.14 1.32-2.724 1.356l.007.357-.024-.358a7 7 0 0 1-.472.018c-1.477-.02-2.149-.578-2.607-1.606-.44-1.034-.537-2.577-.532-4.33 0-.53.008-.058.015-.623-.003-1.491.01-3.082.453-4.237.46-1.141 1.208-1.872 3-1.893 3.196.013 3.355 2.365 3.405 4.822 0 .45-.01.89-.01 1.305 0 .829.011.592.011 1.32.006 1.66-.081 3.006-.522 3.869m-.733-17.315c-3.099-.017-4.576.954-5.713 1.95v-1.496c.053-1.089-.004-3.684.43-4.973.452-1.28 1.268-2.263 3.32-2.416.144-.013.282-.015.42-.015 2.497.053 2.39 1.336 2.513 2.506l.013.343h7.866l.011-.345q.007-.217.008-.426c.008-2.803-1.134-4.875-3.042-6.179-1.907-1.31-4.527-1.882-7.535-1.884-4.12 0-7.246.775-9.322 3.09-2.068 2.32-3.014 7.071-3.016 12.845v8.645c-.008.172-.008.352-.008.524.002 4.107.642 6.456 2.492 8.834 1.851 2.384 4.895 3.67 9.47 3.665h.035c4.502 0 7.496-1.196 9.315-3.597 1.817-2.406 2.429-4.884 2.433-9.426-.002-3.74-.693-6.645-2.28-8.64-1.588-2.002-4.059-3.011-7.41-3.005m4.73-102.109 9.286-37.406h-9.19l-.053.291-4.441 23.531c-.455 2.062-.733 4.18-.96 6.29q-.017.15-.038.304l-.038-.306c-.225-2.108-.507-4.226-.962-6.3l-5.007-23.81h-9.18l9.511 37.406zm-35.309.88c3.906 0 7.232-.916 9.602-2.752 2.373-1.839 3.747-4.608 3.743-8.173.015-3.24-.9-5.616-3.667-7.952-2.245-1.9-7.02-4.633-9.617-6.06-2.507-1.393-4.311-2.357-4.311-4.92.032-2.278 1.38-3.014 3.97-3.066 3.832.03 4.199 2.501 4.258 5.591q-.001.272-.006.555l-.004.36h8.315l-.005-.364c-.033-1.797.054-4.88-1.496-7.548-1.553-2.681-4.777-4.849-11.119-4.837-4.205 0-7.382.861-9.527 2.572-2.148 1.712-3.203 4.268-3.2 7.471 0 2.047.764 4.124 2.1 5.846 3.306 3.773 8.454 5.777 12.509 8.539 1.98 1.215 2.98 2.533 2.99 4.547-.05 2.63-1.32 3.896-4.535 3.948-3.46-.04-4.551-2.019-4.604-5.19 0-.199.004-.395.015-.598v-2.53h-8.586v3.05c-.002 3.335.862 6.233 2.976 8.293 2.113 2.054 5.424 3.22 10.2 3.218m66.855-18.048-9.188 9.612c12.299 12.416 20.091 30.172 20.085 49.989.002 17.1-5.79 32.665-15.285 44.59l-47.626-49.562-47.612 49.563c-9.497-11.926-15.288-27.492-15.286-44.591-.006-19.819 7.787-37.577 20.085-49.99l-9.186-9.613c-14.94 14.934-24.184 36.153-24.192 59.603.002 23.156 9.027 44.144 23.637 59.041l4.792 4.889 47.762-49.722 47.773 49.722 4.794-4.89c14.606-14.898 23.633-35.884 23.635-59.04-.008-23.452-9.25-44.667-24.188-59.6m-99.422 94.014.12-.125.001.003 47.289-49.447 47.3 49.447.002-.003.12.123c6.11-9.756 9.653-21.473 9.654-34.029-.003-16.717-6.274-31.948-16.539-43.042a59 59 0 0 0-2.41-2.442l-9.191 9.602c.63.606 1.247 1.225 1.846 1.869 7.985 8.625 13.002 20.638 13 34.013 0 3.427-.339 6.755-.965 9.968l-42.819-44.733-42.807 44.735a52 52 0 0 1-.964-9.97c-.002-13.375 5.013-25.388 13-34.013.6-.646 1.22-1.267 1.848-1.873l-9.19-9.602a58 58 0 0 0-2.413 2.446c-10.265 11.094-16.535 26.325-16.537 43.042 0 12.556 3.542 24.275 9.655 34.03" style="font-size:10px;letter-spacing:0;word-spacing:0;fill:#fff;fill-rule:nonzero;stroke:none;font-family:fnt0" transform="translate(-29.48 -42.86)" data-source="https://football-logos.cc"></path><!-- source: https://football-logos.cc --></svg>