<?xml version="1.0" encoding="UTF-8"?>
<svg version="1.1" xmlns="http://www.w3.org/2000/svg" width="600" height="600">
<path d="M0 0 C198 0 396 0 600 0 C600 198 600 396 600 600 C402 600 204 600 0 600 C0 402 0 204 0 0 Z " fill="#FCFDFD" transform="translate(0,0)"/>
<path d="M0 0 C198 0 396 0 600 0 C600 198 600 396 600 600 C402 600 204 600 0 600 C0 402 0 204 0 0 Z M249 34.3125 C247.99146973 34.53123779 246.98293945 34.74997559 245.94384766 34.9753418 C242.95826359 35.63275487 239.97837448 36.31072196 237 37 C235.7310791 37.29197266 235.7310791 37.29197266 234.43652344 37.58984375 C196.44979073 46.50619542 161.22975766 64.45672161 131 89 C130.41766602 89.46664062 129.83533203 89.93328125 129.23535156 90.4140625 C114.13953426 102.58110005 99.71384579 116.53294239 88 132 C87.24460938 132.92683594 86.48921875 133.85367188 85.7109375 134.80859375 C67.35253637 157.68374436 53.82398572 184.48170511 44 212 C43.57146729 213.17296631 43.57146729 213.17296631 43.13427734 214.36962891 C39.39690315 224.72118672 36.93663959 235.28974908 34.75 246.0625 C34.38032104 247.8714978 34.38032104 247.8714978 34.00317383 249.71704102 C30.95540488 265.38360583 29.61027154 280.87043031 29.6875 296.8125 C29.68932281 297.60448792 29.69114563 298.39647583 29.69302368 299.21246338 C29.80179845 327.59098475 33.78996199 354.58213252 42 381.75 C42.4798938 383.33880981 42.4798938 383.33880981 42.96948242 384.9597168 C44.86579645 391.00735637 47.10897099 396.72915928 49.80810547 402.46289062 C50.86603637 404.71484022 51.85716122 406.97819813 52.81640625 409.2734375 C62.31736227 431.74107303 75.21857282 452.42083272 91 471 C91.75925781 471.94359375 92.51851562 472.8871875 93.30078125 473.859375 C105.33145963 488.60303684 118.91164858 502.5783061 134.33447266 513.77880859 C136.05274151 515.03867092 137.73596498 516.33672928 139.41796875 517.64453125 C166.98551473 538.83306204 200.71131442 555.25769662 234.77929688 562.52441406 C237.40457225 563.08664322 240.02183875 563.6817343 242.640625 564.2734375 C244.69750026 564.72585567 246.75479357 565.17637735 248.8125 565.625 C249.73619385 565.83157227 250.6598877 566.03814453 251.61157227 566.25097656 C267.01975217 569.50315353 282.56940124 570.35466276 298.27905273 570.31567383 C300.93319561 570.31250514 303.58622698 570.33614036 306.24023438 570.36132812 C318.41479101 570.40644844 330.0241828 569.12142665 342 567 C343.22082275 566.79592529 344.44164551 566.59185059 345.69946289 566.3815918 C374.61971416 561.45693053 402.15081798 551.96223256 428 538 C428.64694824 537.65646484 429.29389648 537.31292969 429.96044922 536.95898438 C444.25454832 529.34010768 457.5686338 520.39246379 470 510 C470.93328125 509.25105469 471.8665625 508.50210937 472.828125 507.73046875 C486.84276338 496.35548941 500.07898039 483.38697194 511 469 C511.77988281 468.02546875 512.55976562 467.0509375 513.36328125 466.046875 C541.20422495 431.10654523 558.78011058 388.71963042 567 345 C567.16661133 344.15179688 567.33322266 343.30359375 567.50488281 342.4296875 C572.7606536 314.66006629 572.29273814 282.71496303 567 255 C566.80664062 253.95634277 566.61328125 252.91268555 566.4140625 251.83740234 C561.72804931 227.21052285 554.11262332 203.48390674 543 181 C542.64470215 180.27699707 542.2894043 179.55399414 541.92333984 178.80908203 C530.01861032 154.85265101 514.6710148 133.14835194 496 114 C495.37303223 113.35256836 494.74606445 112.70513672 494.10009766 112.03808594 C486.11373356 103.81790862 478.0967821 95.99141332 469 89 C468.02160156 88.21625 467.04320312 87.4325 466.03515625 86.625 C440.38264697 66.20425248 410.32190938 50.58553522 378.8125 41.5 C377.73476318 41.18699951 377.73476318 41.18699951 376.63525391 40.86767578 C352.58925583 33.96358755 328.87391175 29.62087103 303.81689453 29.73925781 C301.13420887 29.74996325 298.45219665 29.73929745 295.76953125 29.7265625 C279.97624978 29.71238168 264.44548732 30.88032112 249 34.3125 Z " fill="#FEFEFE" transform="translate(0,0)"/>
<path d="M0 0 C2.28319917 0.01005743 4.56640266 0.01917836 6.84960938 0.02734375 C12.37900249 0.04912078 17.90823028 0.08237608 23.4375 0.125 C22.11531438 3.55809037 20.63202917 6.81948749 18.93359375 10.08203125 C18.44415283 11.02264404 17.95471191 11.96325684 17.45043945 12.93237305 C16.93054443 13.92406494 16.41064941 14.91575684 15.875 15.9375 C15.07678833 17.46661011 15.07678833 17.46661011 14.26245117 19.02661133 C10.68374757 25.84786166 7.0039241 32.60038812 3.11694336 39.2512207 C1.41378231 42.19991119 0.16687876 44.80625942 -0.5625 48.125 C-1.65715576 48.12910889 -2.75181152 48.13321777 -3.87963867 48.13745117 C-7.95221645 48.15927052 -12.02383191 48.21358831 -16.09594727 48.27758789 C-17.85626991 48.30074364 -19.61673061 48.31515794 -21.37719727 48.32055664 C-23.91249379 48.32986442 -26.44562628 48.37089048 -28.98046875 48.41796875 C-29.76399216 48.4140361 -30.54751556 48.41010345 -31.3547821 48.40605164 C-35.56818923 48.51783643 -37.12285462 48.76876632 -40.51831055 51.52001953 C-45.64842976 58.05750574 -45.30562288 65.10471039 -44.5625 73.125 C-43.09052721 78.07963007 -40.57278618 81.85153353 -36.5625 85.125 C-33.21565602 85.73528565 -33.21565602 85.73528565 -29.453125 85.6640625 C-28.76748474 85.67585541 -28.08184448 85.68764832 -27.37542725 85.69979858 C-25.18755424 85.73500266 -23.0006326 85.74421384 -20.8125 85.75 C-4.29715465 85.87494921 7.46322261 87.68131305 20.01171875 99.41015625 C35.6678086 116.93186711 37.3614832 139.4501468 36.63720703 161.83300781 C36.22454502 168.63537286 34.73611956 174.70989835 32.4375 181.125 C32.06367188 182.20523438 31.68984375 183.28546875 31.3046875 184.3984375 C26.79624553 196.25175844 19.04832183 207.86434156 7.625 213.9375 C-2.60793602 218.44366194 -11.84327889 219.55295355 -22.98046875 219.41796875 C-24.33237736 219.41235795 -25.68429216 219.40809489 -27.03620911 219.40510559 C-30.55601511 219.39377329 -34.07543643 219.36441002 -37.59509277 219.33099365 C-41.20201416 219.30003865 -44.80899906 219.28654652 -48.41601562 219.27148438 C-55.46499898 219.23952606 -62.51372408 219.18847482 -69.5625 219.125 C-68.89553305 215.50757119 -68.03094253 212.77814598 -66.2265625 209.5625 C-65.74421143 208.69262451 -65.26186035 207.82274902 -64.76489258 206.92651367 C-63.98408325 205.5397644 -63.98408325 205.5397644 -63.1875 204.125 C-62.09863728 202.16366064 -61.01144148 200.20139509 -59.92578125 198.23828125 C-59.36971191 197.23361816 -58.81364258 196.22895508 -58.24072266 195.19384766 C-55.05350556 189.36560807 -52.00530918 183.46446842 -48.95361328 177.56445312 C-48.52161621 176.73236328 -48.08961914 175.90027344 -47.64453125 175.04296875 C-47.07569214 173.94118286 -47.07569214 173.94118286 -46.49536133 172.81713867 C-45.5625 171.125 -45.5625 171.125 -44.5625 170.125 C-42.02919755 170.03909629 -39.517827 170.01235399 -36.984375 170.01953125 C-35.41535087 170.00607011 -33.84633953 169.99104604 -32.27734375 169.97460938 C-29.79724134 169.9518044 -27.31857199 169.93746944 -24.83837891 169.94995117 C-22.44849395 169.95878491 -20.06146444 169.92982538 -17.671875 169.89453125 C-16.56691681 169.91287773 -16.56691681 169.91287773 -15.43963623 169.93159485 C-12.57031717 169.86434065 -10.25949638 169.69948617 -7.99450684 167.83261108 C-3.00205212 161.9904509 -2.15020719 156.39049525 -2.3125 148.9453125 C-2.79093565 143.54796034 -3.76137006 138.95789703 -7.625 135.02612305 C-11.3630407 132.60689741 -14.40620526 132.61435059 -18.70703125 132.734375 C-19.8617115 132.74286469 -19.8617115 132.74286469 -21.03971863 132.75152588 C-23.48545943 132.77382128 -25.9297061 132.82400125 -28.375 132.875 C-30.03839022 132.895074 -31.70180353 132.9133232 -33.36523438 132.9296875 C-37.43156058 132.97366316 -41.49677744 133.04264021 -45.5625 133.125 C-46.01463867 134.00945801 -46.46677734 134.89391602 -46.93261719 135.80517578 C-62.12776933 165.50910849 -62.12776933 165.50910849 -70.00805664 179.74926758 C-75.34113197 189.43819148 -80.36269465 199.28868541 -85.39672852 209.13525391 C-85.73255951 209.79064651 -86.0683905 210.44603912 -86.41439819 211.12129211 C-87.3348582 212.9182851 -88.25283086 214.71655152 -89.1706543 216.51489258 C-90.5625 219.125 -90.5625 219.125 -91.5625 220.125 C-93.03604348 220.21804018 -94.51400591 220.24246265 -95.99047852 220.23852539 C-96.93137833 220.23844986 -97.87227814 220.23837433 -98.84169006 220.23829651 C-99.86459641 220.23313522 -100.88750275 220.22797394 -101.94140625 220.22265625 C-103.504105 220.22053383 -103.504105 220.22053383 -105.09837341 220.21836853 C-108.44061094 220.2127508 -111.78278257 220.2001953 -115.125 220.1875 C-117.38476466 220.18248728 -119.64453037 220.17792398 -121.90429688 220.17382812 C-127.45705391 220.16277561 -133.00977225 220.14602024 -138.5625 220.125 C-137.90047388 216.57610628 -137.04318846 213.71931426 -135.41015625 210.4921875 C-134.73823242 209.15607422 -134.73823242 209.15607422 -134.05273438 207.79296875 C-133.58158203 206.87128906 -133.11042969 205.94960938 -132.625 205 C-132.18865234 204.13246094 -131.75230469 203.26492188 -131.30273438 202.37109375 C-128.26145173 196.35677604 -125.12720327 190.39308958 -121.98046875 184.43359375 C-116.39069545 173.83317532 -110.86910692 163.19930545 -105.44433594 152.51342773 C-104.34258873 150.35229553 -103.23301082 148.19514011 -102.11621094 146.04174805 C-100.48031521 142.88481031 -98.87049062 139.71576933 -97.265625 136.54296875 C-96.50974091 135.10391426 -96.50974091 135.10391426 -95.73858643 133.63578796 C-93.05834353 128.46044779 -93.05834353 128.46044779 -93.11425781 122.796875 C-93.59217773 121.91515625 -94.07009766 121.0334375 -94.5625 120.125 C-94.94857422 119.27268799 -95.33464844 118.42037598 -95.73242188 117.54223633 C-96.16103516 116.68911865 -96.58964844 115.83600098 -97.03125 114.95703125 C-97.51432617 113.99216797 -97.99740234 113.02730469 -98.49511719 112.03320312 C-99.01235352 111.01162109 -99.52958984 109.99003906 -100.0625 108.9375 C-100.60293945 107.86306641 -101.14337891 106.78863281 -101.70019531 105.68164062 C-105.21664773 98.71496679 -108.82241562 91.80113483 -112.49023438 84.91333008 C-117.01995698 76.35432321 -121.30427289 67.67311036 -125.6178894 59.00396729 C-129.98765437 50.22582195 -134.4188187 41.49196673 -139.02709961 32.8359375 C-142.31496485 26.64305506 -145.48450527 20.39379535 -148.625 14.125 C-149.10300049 13.17351074 -149.58100098 12.22202148 -150.07348633 11.24169922 C-150.5145874 10.35756348 -150.95568848 9.47342773 -151.41015625 8.5625 C-151.80211182 7.77746094 -152.19406738 6.99242187 -152.59790039 6.18359375 C-153.5625 4.125 -153.5625 4.125 -154.5625 1.125 C-115.00008106 -2.24516568 -115.00008106 -2.24516568 -105.33349609 2.81542969 C-100.715173 7.32747973 -98.74737479 12.94689907 -96.75146484 18.97900391 C-94.58372395 24.7148374 -91.14823491 29.71745877 -87.875 34.875 C-86.20416025 37.65995605 -84.53562077 40.44626993 -82.8684082 43.23339844 C-81.69342428 45.26036317 -81.69342428 45.26036317 -79.5625 46.125 C-79.41554688 45.54234375 -79.26859375 44.9596875 -79.1171875 44.359375 C-74.91040489 28.98285925 -66.63501469 14.8271916 -52.76171875 6.4296875 C-36.67074194 -1.86628311 -17.59681308 -0.13614059 0 0 Z " fill="#047B3B" transform="translate(364.5625,202.875)"/>
<path d="M0 0 C2.25942835 1.08245218 4.51259487 2.08488818 6.8203125 3.0546875 C29.41467112 12.61569005 50.20475345 25.51133731 68.89453125 41.38671875 C69.838125 42.14597656 70.78171875 42.90523437 71.75390625 43.6875 C86.49756809 55.71817838 100.47283735 69.29836733 111.67333984 84.72119141 C112.93320217 86.43946026 114.23126053 88.12268373 115.5390625 89.8046875 C136.72664856 117.37100434 153.15083059 151.09548062 160.41894531 185.16162109 C160.98279258 187.79966217 161.57707749 190.43038744 162.16796875 193.0625 C162.62038754 195.12849154 163.07090921 197.19489944 163.51953125 199.26171875 C163.72610352 200.1937915 163.93267578 201.12586426 164.14550781 202.08618164 C167.52667824 218.16048575 168.27299072 234.19241592 168.20703125 250.57421875 C168.20429703 251.98979065 168.20429703 251.98979065 168.20150757 253.43395996 C168.1554463 267.61963061 167.62105466 281.4293878 164.89453125 295.38671875 C164.64509766 296.74240967 164.64509766 296.74240967 164.390625 298.12548828 C162.23920546 309.66147952 159.30038313 320.90966572 155.89453125 332.13671875 C155.57460205 333.19544189 155.25467285 334.25416504 154.92504883 335.3449707 C153.02939798 341.39336387 150.78576859 347.11543548 148.08642578 352.84960938 C147.02849488 355.10155897 146.03737003 357.36491688 145.078125 359.66015625 C135.57772477 382.12647746 122.67770746 402.81030001 106.89453125 421.38671875 C106.12367188 422.34191406 105.3528125 423.29710937 104.55859375 424.28125 C93.22730668 438.23378803 80.3151673 451.61792723 65.89453125 462.38671875 C65.34941895 462.8029248 64.80430664 463.21913086 64.24267578 463.64794922 C54.82319176 470.83711419 45.07599003 477.33027812 34.89453125 483.38671875 C34.22147949 483.79245117 33.54842773 484.19818359 32.85498047 484.61621094 C7.71436078 499.65883083 -20.29454702 509.8817715 -48.98046875 515.51171875 C-50.21410156 515.76308594 -51.44773437 516.01445313 -52.71875 516.2734375 C-68.01314957 519.31321931 -82.65541752 520.72062737 -98.21313477 520.64746094 C-100.90469088 520.63677148 -103.59557371 520.64740829 -106.28710938 520.66015625 C-146.18548226 520.6965846 -185.40145284 511.15952525 -221.10546875 493.38671875 C-221.82412109 493.03287109 -222.54277344 492.67902344 -223.28320312 492.31445312 C-247.24537123 480.40954309 -268.95324998 465.06150399 -288.10546875 446.38671875 C-289.07661621 445.44626709 -289.07661621 445.44626709 -290.06738281 444.48681641 C-298.28756013 436.50045231 -306.11405543 428.48350085 -313.10546875 419.38671875 C-313.88921875 418.40832031 -314.67296875 417.42992187 -315.48046875 416.421875 C-359.25665789 361.43670691 -378.371389 289.2180627 -371.33203125 219.63671875 C-370.74733441 214.85519796 -369.98005131 210.12324874 -369.10546875 205.38671875 C-368.91210938 204.33436035 -368.71875 203.28200195 -368.51953125 202.19775391 C-363.83145502 177.58173638 -356.21336787 153.86106712 -345.10546875 131.38671875 C-344.7501709 130.66371582 -344.39487305 129.94071289 -344.02880859 129.19580078 C-331.63952105 104.26427152 -315.53202718 82.26907831 -296.10546875 62.38671875 C-295.47962891 61.74041504 -294.85378906 61.09411133 -294.20898438 60.42822266 C-286.56573829 52.5511968 -278.85765743 45.04191393 -270.10546875 38.38671875 C-269.13262939 37.63189209 -269.13262939 37.63189209 -268.14013672 36.86181641 C-195.86010845 -19.07323594 -85.02666892 -41.40315522 0 0 Z M-147.10546875 -8.61328125 C-148.21083984 -8.39333496 -149.31621094 -8.17338867 -150.45507812 -7.94677734 C-172.62924436 -3.5122337 -172.62924436 -3.5122337 -193.7578125 4.3359375 C-196.51809536 5.5714052 -199.32891359 6.59515127 -202.16796875 7.63671875 C-210.11154513 10.66854779 -217.58785465 14.43786449 -225.10546875 18.38671875 C-225.82395996 18.75925781 -226.54245117 19.13179687 -227.28271484 19.515625 C-243.50935322 27.97857894 -258.23940944 38.45650539 -272.10546875 50.38671875 C-272.83765625 51.00804687 -273.56984375 51.629375 -274.32421875 52.26953125 C-288.15124851 64.34450587 -301.43519979 77.41247575 -312.10546875 92.38671875 C-312.6070752 93.08168457 -313.10868164 93.77665039 -313.62548828 94.49267578 C-328.99825371 115.91190676 -342.46132406 139.02383869 -350.10546875 164.38671875 C-350.62158151 165.92997216 -351.14218517 167.47173333 -351.66796875 169.01171875 C-354.65327119 178.01589722 -357.08227091 187.069268 -359.16796875 196.32421875 C-359.42384766 197.40767578 -359.67972656 198.49113281 -359.94335938 199.60742188 C-363.65333452 216.05911116 -364.46420572 232.51501101 -364.35546875 249.32421875 C-364.35203461 250.19924042 -364.34860046 251.07426208 -364.34506226 251.97579956 C-364.07196716 311.40413816 -343.69045119 369.16598469 -306.10546875 415.38671875 C-305.6789502 415.91620117 -305.25243164 416.44568359 -304.81298828 416.99121094 C-292.86365446 431.72037876 -279.35701182 446.05582807 -264.10546875 457.38671875 C-263.47914551 457.86238281 -262.85282227 458.33804687 -262.20751953 458.828125 C-216.27895865 493.62993888 -161.23267478 512.65207627 -103.60546875 512.57421875 C-102.71296417 512.57328217 -101.82045959 512.57234558 -100.90090942 512.57138062 C-79.85444725 512.52342803 -60.59313384 510.33066848 -40.10546875 505.38671875 C-39.04054199 505.13535156 -39.04054199 505.13535156 -37.95410156 504.87890625 C6.40944699 494.30869175 47.19180545 470.94465835 79.89453125 439.38671875 C80.48298828 438.82017578 81.07144531 438.25363281 81.67773438 437.66992188 C89.28899115 430.30287654 96.43109345 422.80033175 102.89453125 414.38671875 C103.34505859 413.81260254 103.79558594 413.23848633 104.25976562 412.64697266 C132.19823949 377.0151607 150.91346404 334.17397418 157.89453125 289.38671875 C158.01022461 288.67821777 158.12591797 287.9697168 158.24511719 287.23974609 C160.19158984 274.68586385 160.09956014 261.99614294 160.14453125 249.32421875 C160.14988892 248.48225952 160.15524658 247.64030029 160.1607666 246.77282715 C160.24385759 229.52767082 158.82155789 212.82210759 154.97265625 195.99560547 C154.51498359 193.99180802 154.07477615 191.98473029 153.63671875 189.9765625 C151.26944987 179.28174408 148.61853066 168.67624067 143.9453125 158.734375 C142.7098448 155.97409214 141.68609873 153.16327391 140.64453125 150.32421875 C137.61314563 142.38180414 133.84874447 134.90058162 129.89453125 127.38671875 C129.32774658 126.30100586 129.32774658 126.30100586 128.74951172 125.19335938 C112.71416589 94.68676565 89.32383236 66.38153234 61.89453125 45.38671875 C61.32186523 44.9376416 60.74919922 44.48856445 60.15917969 44.02587891 C13.3986482 7.35886874 -44.11509845 -12.18643789 -103.41796875 -11.92578125 C-104.31066467 -11.9236261 -105.2033606 -11.92147095 -106.12310791 -11.91925049 C-119.97653739 -11.86580052 -133.48206454 -11.3252167 -147.10546875 -8.61328125 Z " fill="#0D7F42" transform="translate(402.10546875,49.61328125)"/>
<path d="M0 0 C-0.12109375 1.859375 -0.12109375 1.859375 -1 4 C-3.59765625 5.203125 -3.59765625 5.203125 -7.0625 6.25 C-45.41404821 18.77913174 -75.86560304 49.19934366 -93.95605469 84.52807617 C-104.5263979 105.87752866 -110.40895192 129.445998 -110.375 153.3125 C-110.37338867 154.51801514 -110.37177734 155.72353027 -110.37011719 156.96557617 C-109.7996512 199.5967228 -92.08770054 236.75721358 -64 268 C-63.38640625 268.68707031 -62.7728125 269.37414062 -62.140625 270.08203125 C-43.4515888 289.83504723 -16.69903094 302.55107604 9 310 C9.74540039 310.2273584 10.49080078 310.4547168 11.25878906 310.68896484 C34.87832181 317.65068032 65.44990411 316.62823004 89 310 C89.69416016 309.81808105 90.38832031 309.63616211 91.10351562 309.44873047 C131.13348362 298.87424176 165.80640086 272.28621058 186.93701172 236.84912109 C192.60047904 226.99723743 197.24770408 216.72652792 201 206 C201.23356201 205.37432129 201.46712402 204.74864258 201.70776367 204.10400391 C208.14638168 186.1370166 210.18778449 165.97050699 209 147 C208.95456055 146.17773926 208.90912109 145.35547852 208.86230469 144.50830078 C208.27297535 134.75775177 206.83915589 125.32654329 204.625 115.8125 C204.3297644 114.53922852 204.3297644 114.53922852 204.02856445 113.24023438 C202.78645293 108.24612687 201.11020271 103.70551907 198.93701172 99.04321289 C197.70497217 96.35667329 196.7359607 93.59747109 195.75 90.8125 C188.91095955 72.93537299 177.19142841 57.64761613 164 44 C163.18789063 43.13632813 162.37578125 42.27265625 161.5390625 41.3828125 C144.25809125 23.43073557 122.16146145 11.64998069 99 3 C99 2.01 99 1.02 99 0 C107.1627576 0.82252277 113.78370404 4.38571124 121 8 C121.63566895 8.31388672 122.27133789 8.62777344 122.92626953 8.95117188 C143.59810263 19.22567637 163.16637972 34.26050079 177.375 52.5625 C177.84268799 53.16400879 178.31037598 53.76551758 178.79223633 54.38525391 C187.31964023 65.51097559 194.11956401 77.28943282 200 90 C200.80244141 91.69962891 200.80244141 91.69962891 201.62109375 93.43359375 C209.83859837 112.23780562 213.2182427 132.90788994 213.125 153.3125 C213.11774902 154.97659912 213.11774902 154.97659912 213.11035156 156.67431641 C212.78766566 200.57895994 196.01246901 239.11053639 165.52148438 270.42724609 C164.29100172 271.69919238 163.08657365 272.99631133 161.890625 274.30078125 C146.56025574 290.68256964 125.6507424 301.154524 105.03759766 309.20410156 C103.34470331 309.86535672 101.66125643 310.55073798 99.98046875 311.2421875 C83.53054709 317.45606713 65.82675592 318.3776935 48.4375 318.375 C47.68194824 318.37681274 46.92639648 318.37862549 46.14794922 318.38049316 C32.35046598 318.37674303 18.91614022 317.29561174 5.625 313.3125 C4.73635254 313.04977295 3.84770508 312.7870459 2.93212891 312.51635742 C-22.72543672 304.72360064 -44.52628426 291.38829551 -64 273 C-64.78632813 272.278125 -65.57265625 271.55625 -66.3828125 270.8125 C-78.24574602 259.52173369 -87.47663892 246.20434386 -95.06396484 231.75585938 C-95.91073046 230.16745606 -96.80621735 228.60526244 -97.70703125 227.046875 C-104.75765085 214.8377008 -108.02373446 201.64121705 -111 188 C-111.39577939 186.27082099 -111.79160001 184.54165141 -112.1875 182.8125 C-116.64591833 161.89222937 -115.51953273 137.60867437 -110 117 C-109.81808105 116.27296875 -109.63616211 115.5459375 -109.44873047 114.796875 C-98.71158849 72.11697551 -71.01662299 36.83674958 -33.6652832 14.04272461 C-25.69818809 9.28618288 -17.63976642 5.38276569 -9 2 C-8.12859375 1.6184375 -7.2571875 1.236875 -6.359375 0.84375 C-4 0 -4 0 0 0 Z " fill="#1C874D" transform="translate(250,144)"/>
<path d="M0 0 C12.54 0 25.08 0 38 0 C38.061875 5.48625 38.12375 10.9725 38.1875 16.625 C38.22846802 19.20562256 38.22846802 19.20562256 38.27026367 21.83837891 C38.27903398 23.21776632 38.28667663 24.59716156 38.29296875 25.9765625 C38.30831665 26.67998779 38.32366455 27.38341309 38.33947754 28.1081543 C38.34249505 33.84745972 36.9817096 37.87046126 33.0625 42.08203125 C32.381875 42.65308594 31.70125 43.22414062 31 43.8125 C30.319375 44.39644531 29.63875 44.98039062 28.9375 45.58203125 C24.51150509 48.82121704 19.25088 48.69336546 14 48 C8.84926199 45.85237394 4.58654525 42.23864438 1 38 C-0.42362785 34.19845045 -0.12633848 30.17293385 -0.09765625 26.171875 C-0.09664917 25.50752441 -0.09564209 24.84317383 -0.09460449 24.15869141 C-0.08939262 21.68910992 -0.07543139 19.21955313 -0.0625 16.75 C-0.041875 11.2225 -0.02125 5.695 0 0 Z " fill="#C09C67" transform="translate(281,122)"/>
<path d="M0 0 C2.31 0 4.62 0 7 0 C14.35905942 12.67336226 20.9439629 25.67879409 27.4375 38.8125 C29.39163813 42.75795175 31.3485527 46.7020086 33.30859375 50.64453125 C33.78708771 51.60710846 34.26558167 52.56968567 34.75857544 53.56143188 C38.23776066 60.53437568 41.83020124 67.44090153 45.4818573 74.32478333 C49.3649505 81.65446218 53.07363656 89.06501033 56.75 96.5 C57.99226057 99.01168145 59.23732473 101.52194355 60.484375 104.03125 C61.06896484 105.21074219 61.65355469 106.39023437 62.25585938 107.60546875 C64.36143112 111.70343481 66.65668722 115.67300859 69.04003906 119.61523438 C70.28947028 122.71911131 69.9227229 123.76410784 69 127 C67.67466923 130.06523756 66.1721863 133.03434547 64.66381836 136.01293945 C64.21500809 136.91099808 63.76619781 137.8090567 63.30378723 138.73432922 C61.82147809 141.69686041 60.33071765 144.65505225 58.83984375 147.61328125 C57.80941847 149.66853561 56.77952336 151.72405586 55.75013733 153.77983093 C53.04121307 159.18623269 50.32510035 164.58899178 47.60748291 169.99102783 C44.83488898 175.50551155 42.06909755 181.02340437 39.30273438 186.54101562 C33.87514783 197.36402747 28.43996223 208.18320386 23 219 C20.69 219 18.38 219 16 219 C17.55167595 213.78415195 19.81939874 209.15351749 22.29785156 204.3359375 C22.73051331 203.48638489 23.16317505 202.63683228 23.60894775 201.76153564 C24.54479115 199.92414264 25.48227106 198.08758244 26.42121124 196.25177002 C28.41503306 192.34833111 30.39393229 188.43739812 32.37371445 184.52682495 C36.05705889 177.25159186 39.74630087 169.97951782 43.46191406 162.72070312 C46.04909637 157.66498238 48.61672877 152.59975755 51.17162323 147.52764893 C52.14846406 145.597477 53.13255664 143.67095751 54.12397003 141.74822998 C55.50778427 139.0624522 56.86633747 136.36526907 58.21972656 133.6640625 C58.63520752 132.87219543 59.05068848 132.08032837 59.47875977 131.26446533 C61.71906391 126.72377828 61.71906391 126.72377828 61.37249756 121.74613953 C60.91957336 120.83991348 60.46664917 119.93368744 60 119 C59.65469238 118.22779617 59.30938477 117.45559235 58.95361328 116.6599884 C58.57962402 115.91343491 58.20563477 115.16688141 57.8203125 114.39770508 C57.39226318 113.53852982 56.96421387 112.67935455 56.52319336 111.79414368 C56.06178955 110.87852158 55.60038574 109.96289948 55.125 109.01953125 C54.6410376 108.05206467 54.1570752 107.08459808 53.65844727 106.08781433 C52.631452 104.03684109 51.60251557 101.98683887 50.57177734 99.93774414 C49.02903458 96.87023092 47.49248978 93.79968027 45.95703125 90.72851562 C40.93576541 80.70459381 35.83656001 70.73029202 30.58460999 60.82531738 C25.82187403 51.81903324 21.32203393 42.68287465 16.82006836 33.54418945 C12.37482176 24.53051355 7.80529365 15.64561685 2.74534607 6.95820618 C0 2.20366941 0 2.20366941 0 0 Z " fill="#BF9A63" transform="translate(199,204)"/>
<path d="M0 0 C5.61175562 4.46389651 5.61175562 4.46389651 6.18359375 7.45703125 C6.19269082 13.3792264 5.59319177 16.62370977 1.75 21.1875 C2.36875 21.455625 2.9875 21.72375 3.625 22 C5.75 23.1875 5.75 23.1875 7.75 26.1875 C8.35664913 30.39465108 8.23082567 34.10564223 6.5 38 C1.84090909 43.82386364 1.84090909 43.82386364 -2.25 45.1875 C-9.13055892 45.9212659 -13.6449262 45.3055134 -19.25 41.1875 C-22.83352656 37.28356401 -22.79740268 34.0851499 -22.6875 28.9609375 C-22.00570917 24.63887061 -20.12500447 22.42188003 -17.25 19.1875 C-17.7346875 18.62933594 -18.219375 18.07117188 -18.71875 17.49609375 C-21.28401461 13.6285647 -21.02611189 9.66283678 -20.25 5.1875 C-15.29899452 -1.60245037 -7.59683202 -4.23669478 0 0 Z " fill="#BE9861" transform="translate(103.25,277.8125)"/>
<path d="M0 0 C5.18010269 2.62169246 7.88168842 6.67958953 10 12 C10.44151365 15.13542835 10.46484762 18.21262039 10.4375 21.375 C10.4674707 22.59316406 10.4674707 22.59316406 10.49804688 23.8359375 C10.49215638 31.18726939 8.29372581 36.29457981 3.5625 41.875 C-1.13648514 45.77171939 -4.92344079 46.52384131 -11 46 C-13.46251246 45.16956207 -15.65677757 44.14770078 -18 43 C-17.54177532 39.53058454 -17.10868317 36.32604951 -16 33 C-15.29875 33.33 -14.5975 33.66 -13.875 34 C-10.617944 35.13288904 -8.42302438 35.43698184 -5 35 C-2.54047777 33.37419918 -2.54047777 33.37419918 -1 31 C-1 29.68 -1 28.36 -1 27 C-1.53625 27.495 -2.0725 27.99 -2.625 28.5 C-5.69857405 30.44120466 -7.41455901 30.43903359 -11 30 C-14.19094441 28.66425583 -15.7161663 27.37192002 -17.8125 24.625 C-19.72923242 18.77392209 -20.42823506 11.77362107 -18.203125 5.89453125 C-13.76195771 -1.02344088 -7.49642838 -1.10555347 0 0 Z " fill="#BE9861" transform="translate(503,277)"/>
<path d="M0 0 C5.88066874 2.76910026 9.58334362 7.05905307 12 13 C12.8551284 17.15562399 12.815638 20.44188754 10.82421875 24.24609375 C8.14046093 28.02554597 5.42318772 31.35416271 1 33 C-4.95676179 33.78822935 -9.72961908 33.04060438 -15 30 C-18.51850202 26.66380378 -20.76620322 23.4414516 -21.23828125 18.51171875 C-21.39682895 12.47856139 -21.29537816 8.63448696 -17 4 C-11.93112713 -0.69797973 -6.60924196 -1.22810028 0 0 Z " fill="#FAFCFB" transform="translate(157,439)"/>
<path d="M0 0 C1.61254899 2.43213811 3.10544889 4.85220693 4.5625 7.375 C4.97435547 8.07367188 5.38621094 8.77234375 5.81054688 9.4921875 C8.93781769 14.81520165 10.84611139 18.6005378 10 25 C7.59980377 29.89270769 5.13722479 32.18686184 0 34 C-5.04883872 34.53145671 -7.88718566 33.9911377 -12 31 C-12.29003906 31.90492188 -12.29003906 31.90492188 -12.5859375 32.828125 C-12.84632813 33.62734375 -13.10671875 34.4265625 -13.375 35.25 C-13.63023437 36.03890625 -13.88546875 36.8278125 -14.1484375 37.640625 C-14.95173667 39.86627958 -15.89711662 41.90931672 -17 44 C-17.99 43.67 -18.98 43.34 -20 43 C-19.61106632 39.11066319 -18.70814901 36.30116003 -16.8125 32.9375 C-15.12452729 29.81567595 -15.12452729 29.81567595 -15.5625 26.3125 C-16.036875 25.549375 -16.51125 24.78625 -17 24 C-17.53625 23.071875 -18.0725 22.14375 -18.625 21.1875 C-19.07875 20.465625 -19.5325 19.74375 -20 19 C-23.04216487 19.43459498 -24.98459562 19.99046396 -27.625 21.625 C-28.800625 22.305625 -28.800625 22.305625 -30 23 C-30.99 22.67 -31.98 22.34 -33 22 C-33 21.01 -33 20.02 -33 19 C-30.69262695 17.23828125 -30.69262695 17.23828125 -27.48828125 15.3125 C-26.92304245 14.96872314 -26.35780365 14.62494629 -25.7754364 14.27075195 C-23.96047573 13.17016063 -22.13680362 12.08501977 -20.3125 11 C-19.10161087 10.26922687 -17.89131652 9.53746721 -16.68164062 8.8046875 C-13.46165352 6.85761705 -10.23190588 4.92723187 -7 3 C-5.63331177 2.14341797 -5.63331177 2.14341797 -4.23901367 1.26953125 C-2 0 -2 0 0 0 Z " fill="#168449" transform="translate(495,165)"/>
<path d="M0 0 C3.3792573 2.03005291 6.22397384 4.44794768 8 8 C8.16796875 10.0234375 8.16796875 10.0234375 8.1875 12.375 C8.20167969 13.14585938 8.21585938 13.91671875 8.23046875 14.7109375 C7.97801607 17.21834888 7.25193467 18.83261902 6 21 C6.59167969 21.12117188 7.18335938 21.24234375 7.79296875 21.3671875 C12.03803585 22.26744643 16.02439661 23.20456621 20 25 C19.34 25.99 18.68 26.98 18 28 C16.62410383 27.71259058 15.24932678 27.41982258 13.875 27.125 C13.04742187 26.95226562 12.21984375 26.77953125 11.3671875 26.6015625 C9 26 9 26 6 24.5 C2.19105139 23.86517523 1.28052969 24.78114385 -1.875 26.875 C-3.26431354 27.89749808 -4.64421256 28.93344721 -6 30 C-4.7054936 32.63566168 -3.34230764 35.20666676 -1.875 37.75 C-0.946875 39.35875 -0.946875 39.35875 0 41 C-1.32 41.66 -2.64 42.32 -4 43 C-4.35191406 42.51233154 -4.70382813 42.02466309 -5.06640625 41.5222168 C-6.11674721 40.06685696 -7.16739237 38.61171663 -8.21826172 37.15673828 C-9.40900505 35.50653576 -10.59812588 33.8551613 -11.78564453 32.20263672 C-14.37699854 28.60168269 -16.96909787 25.00853994 -19.6796875 21.49609375 C-20.40414062 20.54863281 -21.12859375 19.60117188 -21.875 18.625 C-22.51179687 17.81289062 -23.14859375 17.00078125 -23.8046875 16.1640625 C-25 14 -25 14 -25.09765625 12.00390625 C-23.36791507 8.84605136 -20.5101541 7.22611073 -17.5625 5.3125 C-16.96373047 4.90966797 -16.36496094 4.50683594 -15.74804688 4.09179688 C-10.31036304 0.4565256 -6.58133316 -1.17025337 0 0 Z " fill="#148348" transform="translate(176,105)"/>
<path d="M0 0 C12.54 0 25.08 0 38 0 C38 7.92 38 15.84 38 24 C37.67 24 37.34 24 37 24 C37 22.35 37 20.7 37 19 C36.01 19.33 35.02 19.66 34 20 C31.75159113 20.09548531 29.50043453 20.13073536 27.25 20.1328125 C26.26821777 20.13424759 26.26821777 20.13424759 25.26660156 20.13571167 C23.88476465 20.13639122 22.50292451 20.13455261 21.12109375 20.13037109 C19.00773946 20.1250196 16.89459769 20.13032361 14.78125 20.13671875 C13.43749953 20.13605793 12.0937492 20.13477668 10.75 20.1328125 C9.52796875 20.13168457 8.3059375 20.13055664 7.046875 20.12939453 C4 20 4 20 1 19 C1 20.98 1 22.96 1 25 C0.67 25 0.34 25 0 25 C0 16.75 0 8.5 0 0 Z " fill="#BC965E" transform="translate(281,122)"/>
<path d="M0 0 C5.69772345 2.06542475 10.17811304 5.39544188 15 9 C16.546875 10.1446875 16.546875 10.1446875 18.125 11.3125 C20.97642151 15.3995375 20.84264854 19.1760304 20 24 C18.038218 27.85350036 15.91687112 31.04156444 12 33 C2.89692358 34.62554936 -3.72823599 28.84784267 -11 24 C-11.268125 24.721875 -11.53625 25.44375 -11.8125 26.1875 C-12.98982498 28.97590126 -14.39145884 31.44095724 -16 34 C-17.32 33.34 -18.64 32.68 -20 32 C-15.64564621 23.48599929 -10.54416117 15.61294805 -5.17089844 7.72412109 C-3.43006458 5.16078317 -1.71512626 2.5805932 0 0 Z " fill="#16844A" transform="translate(417,95)"/>
<path d="M0 0 C3.99445751 0.57063679 5.09136668 1.35024874 7.5 4.5 C7.83 5.16 8.16 5.82 8.5 6.5 C9.03625 5.984375 9.5725 5.46875 10.125 4.9375 C12.5 3.5 12.5 3.5 15.4375 3.5 C19.43987243 4.80689712 21.10459358 6.01577248 23.5 9.5 C24.25179754 15.95508925 21.62749923 23.94000136 18.5 29.5 C12.99571184 31.90575353 6.58919218 28.19708567 1.3125 26.375 C0.09884766 25.983125 -1.11480469 25.59125 -2.36523438 25.1875 C-3.51701172 24.79304688 -4.66878906 24.39859375 -5.85546875 23.9921875 C-6.91403076 23.63495605 -7.97259277 23.27772461 -9.06323242 22.90966797 C-11.5 21.5 -11.5 21.5 -12.40625 19.0300293 C-12.52976817 15.69664703 -11.6295558 13.49260598 -10.3125 10.4375 C-9.88582031 9.41527344 -9.45914062 8.39304687 -9.01953125 7.33984375 C-6.67002245 2.94885944 -5.02426288 0.71775184 0 0 Z " fill="#32925F" transform="translate(496.5,356.5)"/>
<path d="M0 0 C5.11735461 1.00646227 9.78207118 2.05683096 14.4375 4.5 C15.26121094 4.9228125 16.08492187 5.345625 16.93359375 5.78125 C19 7 19 7 21 9 C21.4375 11.8125 21.4375 11.8125 21 15 C18.827365 17.57285724 17.02006162 19.48996919 14 21 C14.7425 21.5259375 14.7425 21.5259375 15.5 22.0625 C17 24 17 24 17.5 27.375 C17 31 17 31 15 33.9375 C11.96816864 36.02188406 10.14721649 36.72003172 6.46875 36.5078125 C1.08449698 35.4002921 -3.96131074 33.15066005 -9 31 C-8.46069876 23.8777995 -6.36180653 17.69091854 -3.9375 11 C-3.56044922 9.93910156 -3.18339844 8.87820313 -2.79492188 7.78515625 C-1.87050336 5.1874232 -0.93872888 2.59258863 0 0 Z " fill="#2F915C" transform="translate(223,484)"/>
<path d="M0 0 C9.57 0 19.14 0 29 0 C29 11.27659574 29 11.27659574 27.75 15 C27.47414063 15.83015625 27.19828125 16.6603125 26.9140625 17.515625 C25.7155345 20.77316265 24.43842978 23.9912337 23.11328125 27.19921875 C21.2803201 31.81056312 19.68012404 36.50515407 18.05078125 41.19140625 C17 44 17 44 16 45 C14.31391034 45.07205511 12.62499341 45.08386068 10.9375 45.0625 C10.01839844 45.05347656 9.09929688 45.04445313 8.15234375 45.03515625 C7.44207031 45.02355469 6.73179687 45.01195312 6 45 C6.5603116 40.18253827 7.55618622 35.97756415 9.25 31.4375 C9.69214844 30.23738281 10.13429688 29.03726562 10.58984375 27.80078125 C10.8204248 27.18154785 11.05100586 26.56231445 11.28857422 25.92431641 C12.4923342 22.66829849 13.64999205 19.39592053 14.8125 16.125 C15.54166667 14.08333333 16.27083333 12.04166667 17 10 C14.36 10 11.72 10 9 10 C9 11.98 9 13.96 9 16 C6.03 16 3.06 16 0 16 C0 10.72 0 5.44 0 0 Z " fill="#BD975F" transform="translate(517,277)"/>
<path d="M0 0 C-0.12109375 1.859375 -0.12109375 1.859375 -1 4 C-3.59765625 5.203125 -3.59765625 5.203125 -7.0625 6.25 C-45.41404821 18.77913174 -75.86560304 49.19934366 -93.95605469 84.52807617 C-101.88534263 100.54325683 -107.69678526 118.08079729 -109 136 C-109.66 135.01 -110.32 134.02 -111 133 C-112.05476516 138.16068491 -112.12969365 143.09712007 -112.09765625 148.3359375 C-112.0962413 149.21528961 -112.09482635 150.09464172 -112.09336853 151.00064087 C-112.08779877 153.79212942 -112.0752519 156.58353594 -112.0625 159.375 C-112.05748109 161.27473842 -112.05291887 163.1744781 -112.04882812 165.07421875 C-112.03783925 169.71617714 -112.02059557 174.35807469 -112 179 C-112.33 179 -112.66 179 -113 179 C-116.76287184 159.36754287 -115.1401341 136.19208655 -110 117 C-109.81808105 116.27296875 -109.63616211 115.5459375 -109.44873047 114.796875 C-98.71158849 72.11697551 -71.01662299 36.83674958 -33.6652832 14.04272461 C-25.69818809 9.28618288 -17.63976642 5.38276569 -9 2 C-8.12859375 1.6184375 -7.2571875 1.236875 -6.359375 0.84375 C-4 0 -4 0 0 0 Z " fill="#238B54" transform="translate(250,144)"/>
<path d="M0 0 C2.30712891 -0.24926758 2.30712891 -0.24926758 5 0 C6.64990234 1.66137695 6.64990234 1.66137695 8.0859375 3.98828125 C8.62130127 4.83551758 9.15666504 5.68275391 9.70825195 6.55566406 C10.25827881 7.46541992 10.80830566 8.37517578 11.375 9.3125 C11.94500732 10.22354492 12.51501465 11.13458984 13.10229492 12.07324219 C14.2331647 13.8830204 15.35695359 15.69724511 16.47314453 17.51611328 C18.38101501 20.61983478 20.34304425 23.68505967 22.3125 26.75 C23.20916465 28.16614064 24.10515848 29.58270664 25 31 C25.05534912 30.26362305 25.11069824 29.52724609 25.16772461 28.76855469 C25.42076358 25.42875623 25.67907333 22.08938571 25.9375 18.75 C26.02451172 17.59113281 26.11152344 16.43226562 26.20117188 15.23828125 C26.28818359 14.12324219 26.37519531 13.00820312 26.46484375 11.859375 C26.543396 10.83295898 26.62194824 9.80654297 26.70288086 8.74902344 C26.95670201 6.40060427 27.35289171 4.26606418 28 2 C29.32 2 30.64 2 32 2 C32.1053354 10.04060243 32.02770363 18.03398571 31.5625 26.0625 C31.52326416 26.76366943 31.48402832 27.46483887 31.44360352 28.18725586 C31.19404894 32.18060808 30.73024714 36.06648387 30 40 C27.7722168 40.36035156 27.7722168 40.36035156 25 40 C22.81176758 37.58496094 22.81176758 37.58496094 20.64453125 34.234375 C20.25682053 33.64456848 19.8691098 33.05476196 19.46965027 32.44708252 C18.23400072 30.55827208 17.02353211 28.65466476 15.8125 26.75 C14.98657606 25.4820619 14.15911837 24.21512146 13.33007812 22.94921875 C10.35644218 18.38242255 7.44034429 13.88068859 5 9 C4.34 18.9 3.68 28.8 3 39 C1.35 39 -0.3 39 -2 39 C-2.16013011 30.39189455 -1.65831987 21.8928988 -1 13.3125 C-0.90460938 12.02666016 -0.80921875 10.74082031 -0.7109375 9.41601562 C-0.47755759 6.2770558 -0.24050669 3.13842042 0 0 Z " fill="#1D884F" transform="translate(299,63)"/>
<path d="M0 0 C5.28 0 10.56 0 16 0 C16 14.85 16 29.7 16 45 C12.7 45 9.4 45 6 45 C6 33.45 6 21.9 6 10 C4.02 10 2.04 10 0 10 C0 6.7 0 3.4 0 0 Z " fill="#BC955C" transform="translate(58,277)"/>
<path d="M0 0 C4.74667219 2.95978233 8.89155511 6.33932967 10.41796875 11.90625 C11.27829554 17.86001592 11.66096459 23.92534389 8.41796875 29.21875 C2.84416267 35.54650087 -7.50783247 40.07201477 -15.58203125 41.90625 C-21.13640513 30.45035387 -25.95629188 18.76502954 -30.58203125 6.90625 C-28.31241525 5.75795023 -26.04142347 4.61253022 -23.76953125 3.46875 C-23.12693359 3.14326172 -22.48433594 2.81777344 -21.82226562 2.48242188 C-14.77952628 -1.05719323 -7.63235971 -3.23307219 0 0 Z M-24.58203125 7.90625 C-23.9821622 13.95577684 -21.62492877 19.18262367 -19.26953125 24.71875 C-18.68268555 26.16797852 -18.68268555 26.16797852 -18.08398438 27.64648438 C-17.69533203 28.56365234 -17.30667969 29.48082031 -16.90625 30.42578125 C-16.55651123 31.26214111 -16.20677246 32.09850098 -15.84643555 32.96020508 C-14.74310021 35.05250424 -14.74310021 35.05250424 -12.61645508 35.7512207 C-9.4515078 35.99239933 -7.37996407 34.70120091 -4.58203125 33.28125 C-3.55078125 32.77335937 -2.51953125 32.26546875 -1.45703125 31.7421875 C2.18961257 29.41348832 4.48618133 26.76982484 6.41796875 22.90625 C6.95832469 17.9810385 6.96232344 14.03683282 4.79296875 9.53125 C1.09101199 5.43961358 -2.07831674 2.72035477 -7.70703125 2.34375 C-13.79674023 2.58317446 -19.15558785 5.33534619 -24.58203125 7.90625 Z " fill="#168449" transform="translate(223.58203125,82.09375)"/>
<path d="M0 0 C4.95525074 2.93539615 9.01662441 6.89653007 11.61328125 12.08984375 C12.11792205 17.6160742 12.40024028 22.48677906 9.92578125 27.52734375 C9.16265625 28.37296875 8.39953125 29.21859375 7.61328125 30.08984375 C6.87078125 30.97671875 6.12828125 31.86359375 5.36328125 32.77734375 C0.48794705 36.8770566 -4.98524566 38.72623153 -11.375 38.4375 C-16.56357352 37.5408339 -20.79443344 35.0873567 -24.26171875 31.15234375 C-28.2033501 25.4717574 -29.11541912 20.91847142 -28.38671875 14.08984375 C-26.42191305 7.27081219 -22.41458651 3.55554058 -16.5234375 -0.05078125 C-11.45886195 -2.08772206 -5.06925944 -1.93312185 0 0 Z M-21.69921875 9.71484375 C-24.58076082 13.7703474 -25.13605487 17.18040021 -24.38671875 22.08984375 C-22.59331165 26.54521386 -20.07325916 29.98605712 -16.01171875 32.58984375 C-11.38014088 34.50635873 -8.12650519 35.00653921 -3.30859375 33.39453125 C1.54960065 31.25332705 4.06895508 28.87317694 6.61328125 24.08984375 C7.81971691 20.47053677 7.93596684 17.8975337 7.61328125 14.08984375 C4.81884305 8.81146048 1.34734743 5.00119914 -4.38671875 3.08984375 C-12.07318773 2.19674926 -16.46806256 3.77677457 -21.69921875 9.71484375 Z " fill="#17844A" transform="translate(271.38671875,67.91015625)"/>
<path d="M0 0 C4.49078192 3.64582644 6.86218418 6.9889152 7.640625 12.7890625 C7.89842358 20.80064917 6.42278809 25.75706881 0.9921875 31.6953125 C-3.95647314 35.81003218 -8.95095516 35.74758152 -15.18359375 35.4375 C-20.32623709 34.54948071 -23.40463519 32.78708669 -26.7578125 28.8203125 C-28.37239169 26.52666029 -29.53299094 24.36794134 -30.7578125 21.8203125 C-31.0878125 21.1603125 -31.4178125 20.5003125 -31.7578125 19.8203125 C-32.27081024 14.67351553 -32.42409283 10.23282681 -30.1953125 5.5078125 C-21.23899776 -4.36709863 -11.94486694 -8.00045605 0 0 Z M-25.0703125 6.4453125 C-27.97842299 10.53820874 -28.24788189 13.88263225 -27.7578125 18.8203125 C-25.9604013 24.10681602 -22.72067249 28.21346727 -17.7578125 30.8203125 C-12.87458772 31.68082346 -8.50892953 31.50553221 -3.8828125 29.6953125 C-3.1815625 29.0765625 -2.4803125 28.4578125 -1.7578125 27.8203125 C-0.8296875 27.0159375 0.0984375 26.2115625 1.0546875 25.3828125 C4.06605691 21.54667312 3.9960468 17.45591826 3.796875 12.734375 C2.92511113 8.15454508 0.78016441 5.71502088 -2.7578125 2.8203125 C-3.5209375 2.1809375 -4.2840625 1.5415625 -5.0703125 0.8828125 C-13.22702466 -2.34193417 -19.37939806 -0.01464443 -25.0703125 6.4453125 Z " fill="#168449" transform="translate(466.7578125,132.1796875)"/>
<path d="M0 0 C0.99 0.33 1.98 0.66 3 1 C2.42582888 4.49861602 1.26480957 6.04783182 -1.3125 8.4375 C-6.65964117 12.92678105 -6.65964117 12.92678105 -9.0625 19 C-7.53860992 21.86849898 -5.37044939 23.81189287 -3 26 C1.6662591 24.19860695 4.28497053 20.52080696 7.46484375 16.8125 C8.60658146 15.50864243 9.79986534 14.2503145 11 13 C11.66 13 12.32 13 13 13 C13.69921875 14.78515625 13.69921875 14.78515625 14 17 C12.70703125 18.74609375 12.70703125 18.74609375 10.8125 20.4375 C7.91728652 23.12425811 5.3926524 25.84169883 3 29 C4.55500981 32.81684226 7.03595495 35.19195732 10 38 C13.80668295 36.46518706 15.8962489 34.13477919 18.5625 31.0625 C23.43676936 25.48133829 23.43676936 25.48133829 26 23 C26.99 23.33 27.98 23.66 29 24 C27.47147075 27.53675651 25.3583611 29.99564746 22.75 32.8125 C19.08291494 36.81134073 15.50851407 40.86175264 12 45 C6.5421781 41.20778042 1.87725368 37.00144712 -2.7578125 32.24609375 C-5.47930949 29.51985548 -8.34234928 27.00466542 -11.2734375 24.5078125 C-11.84320313 24.01023438 -12.41296875 23.51265625 -13 23 C-13.59039062 22.52304688 -14.18078125 22.04609375 -14.7890625 21.5546875 C-16 20 -16 20 -15.94921875 18.08203125 C-14.69690516 15.33518704 -13.00651189 13.75655979 -10.8125 11.6875 C-6.94827696 7.95908032 -3.42749154 4.13056673 0 0 Z " fill="#148347" transform="translate(134,131)"/>
<path d="M0 0 C4.11190168 1.95410807 7.84726043 4.18024495 10.31640625 8.078125 C10.65478516 9.02945313 10.65478516 9.02945313 11 10 C10.67 10.66 10.34 11.32 10 12 C7.19003593 10.66370597 4.68699708 9.13444378 2.125 7.375 C-1.37830821 5.14859852 -3.77614628 4.38187507 -8 5 C-9.25864751 6.07896294 -9.25864751 6.07896294 -9.5625 8.5625 C-8.52760069 14.88688468 -2.69114472 18.55548055 2 22.5625 C4 25 4 25 4.625 28.4375 C4.01957969 31.88839576 3.31757637 34.29650863 0.88671875 36.89453125 C-3.34638878 39.37479922 -8.31886194 38.73778806 -13 38 C-17.85826255 35.7033668 -20.99152834 32.37595877 -24 28 C-23.8125 25.625 -23.8125 25.625 -23 24 C-19.7089747 25.09700843 -19.03976712 25.87619858 -16.9375 28.5 C-14.82278233 31.18106401 -14.82278233 31.18106401 -12 33 C-10.48154798 33.09472912 -8.95889616 33.1298841 -7.4375 33.125 C-6.63183594 33.12757812 -5.82617188 33.13015625 -4.99609375 33.1328125 C-3.00057979 33.22011391 -3.00057979 33.22011391 -2 32 C-1.31602774 29.01539379 -1.0710702 27.84484751 -2 25 C-4.3381019 22.44270104 -6.8314175 20.29713123 -9.51953125 18.11328125 C-12.81408959 15.30642131 -14.79240513 13.39385126 -15.4375 9.0625 C-14.89919863 5.29439042 -13.62436976 3.70155711 -11 1 C-7.45399897 -0.77300051 -3.86240269 -0.63974781 0 0 Z " fill="#17854A" transform="translate(386,79)"/>
<path d="M0 0 C1.82421875 2.4140625 1.82421875 2.4140625 3.6875 5.625 C4.31011719 6.66914063 4.93273437 7.71328125 5.57421875 8.7890625 C7.09884147 12.2225964 7.44850476 14.29201298 7 18 C4.42089807 21.51695718 2.68229237 22.79287553 -1.5 24.0625 C-5 24 -5 24 -7.5625 22.625 C-16 13.53846154 -16 13.53846154 -16 8 C-13.91493174 6.44437846 -11.91800043 5.12330419 -9.6875 3.8125 C-9.09259766 3.44447266 -8.49769531 3.07644531 -7.88476562 2.69726562 C-5.04902949 0.9894871 -3.36630285 0 0 0 Z " fill="#F5F9F7" transform="translate(494,171)"/>
<path d="M0 0 C3.65829624 2.56859098 4.82227491 4.02251199 5.625 8.4375 C4.5795503 14.3965633 0.96121995 17.40289736 -3.625 20.9375 C-5.295625 21.9584375 -5.295625 21.9584375 -7 23 C-10.90065324 21.69978225 -12.36040785 19.2580763 -14.6875 16.0625 C-15.10322266 15.51142578 -15.51894531 14.96035156 -15.94726562 14.39257812 C-19 10.26712592 -19 10.26712592 -19 8 C-16.62109375 6.0546875 -16.62109375 6.0546875 -13.4375 3.875 C-12.40496094 3.15054688 -11.37242187 2.42609375 -10.30859375 1.6796875 C-6.50733031 -0.25011566 -4.20826276 -0.47593448 0 0 Z " fill="#F7FBF9" transform="translate(175,109)"/>
<path d="M0 0 C11.22 0 22.44 0 34 0 C34 3.96 34 7.92 34 12 C29.05 12 24.1 12 19 12 C19.66 10.68 20.32 9.36 21 8 C21.16724737 4.83304044 21.16724737 4.83304044 21 2 C20.34 1.67 19.68 1.34 19 1 C19 2.65 19 4.3 19 6 C18.34 6 17.68 6 17 6 C16.67 4.68 16.34 3.36 16 2 C15.67 2.33 15.34 2.66 15 3 C15 4.32 15 5.64 15 7 C17.475 7.495 17.475 7.495 20 8 C20 8.33 20 8.66 20 9 C17.36 9 14.72 9 12 9 C12 9.66 12 10.32 12 11 C13.98 11 15.96 11 18 11 C18 11.33 18 11.66 18 12 C12.06 12 6.12 12 0 12 C0 8.04 0 4.08 0 0 Z " fill="#FEFDFC" transform="translate(283,124)"/>
<path d="M0 0 C0.99 0 1.98 0 3 0 C2.43994469 4.457418 1.30614476 7.88129414 -0.70874023 11.88745117 C-1.27701035 13.02691696 -1.84528046 14.16638275 -2.43077087 15.34037781 C-3.05649656 16.57468394 -3.6824436 17.80887789 -4.30859375 19.04296875 C-4.95646155 20.3337672 -5.60367115 21.62489618 -6.2502594 22.91633606 C-7.60986372 25.62790973 -8.97457686 28.33682331 -10.34350586 31.04370117 C-12.06795602 34.45357589 -13.78413951 37.8675152 -15.49698448 41.28323174 C-22.54595794 55.33884011 -29.65347459 69.35945652 -37.07424927 83.22354126 C-37.9691548 84.94080997 -38.79930766 86.69134606 -39.62670898 88.44213867 C-41 91 -41 91 -43.1875 91.875 C-43.785625 91.91625 -44.38375 91.9575 -45 92 C-43.45224082 86.84009974 -41.2428374 82.21461021 -38.82568359 77.42431641 C-38.40598801 76.58463318 -37.98629242 75.74494995 -37.55387878 74.87982178 C-36.17251777 72.11848759 -34.78551937 69.36002678 -33.3984375 66.6015625 C-32.43687603 64.68217162 -31.47566881 62.76260323 -30.51480103 60.84286499 C-27.98990374 55.80069165 -25.46020995 50.76093976 -22.92950439 45.72167969 C-20.34593091 40.57502358 -17.76690833 35.42608825 -15.1875 30.27734375 C-10.12944745 20.18266194 -5.06632395 10.09053279 0 0 Z " fill="#EBEEE5" transform="translate(268,329)"/>
<path d="M0 0 C3.70649314 0.63070862 6.14618878 2.27668656 9.1875 4.4375 C10.06792969 5.05496094 10.94835937 5.67242187 11.85546875 6.30859375 C14 8 14 8 15 10 C15.37599902 13.98558966 15.36641508 16.32579625 13.4375 19.875 C10.03297532 22.84304716 8.55076682 23.28893758 4 23 C-5.6180576 18.39435441 -5.6180576 18.39435441 -8.06640625 14.15234375 C-7.95847763 10.65418667 -6.04719327 8.55910432 -4.0625 5.75 C-2.93521484 4.13351563 -2.93521484 4.13351563 -1.78515625 2.484375 C-1.19605469 1.66453125 -0.60695313 0.8446875 0 0 Z " fill="#F6FAF8" transform="translate(418,101)"/>
<path d="M0 0 C2.31 0 4.62 0 7 0 C5.46254909 5.16622338 3.22573526 9.74169658 0.75390625 14.50390625 C0.34212631 15.30481186 -0.06965363 16.10571747 -0.49391174 16.93089294 C-1.36184677 18.61699503 -2.23183597 20.30204112 -3.10375977 21.98608398 C-4.43383397 24.55541824 -5.75748696 27.127979 -7.08007812 29.70117188 C-7.92670909 31.34394292 -8.77370216 32.98652742 -9.62109375 34.62890625 C-10.01493759 35.39360733 -10.40878143 36.15830841 -10.81455994 36.94618225 C-11.864005 38.97093518 -12.9303733 40.98586417 -14 43 C-14.50926025 43.9912085 -15.01852051 44.98241699 -15.54321289 46.00366211 C-16.02395264 46.66245361 -16.50469238 47.32124512 -17 48 C-20.6875 48.3125 -20.6875 48.3125 -24 48 C-22.73863635 43.95836671 -21.24543425 40.28929003 -19.27734375 36.54296875 C-18.74262451 35.52001709 -18.20790527 34.49706543 -17.65698242 33.44311523 C-17.08955322 32.36876221 -16.52212402 31.29440918 -15.9375 30.1875 C-15.35911377 29.08414307 -14.78072754 27.98078613 -14.18481445 26.84399414 C-12.46155588 23.55999453 -10.73189176 20.27945351 -9 17 C-8.50822266 16.06736328 -8.01644531 15.13472656 -7.50976562 14.17382812 C-5.01524105 9.44455116 -2.51245293 4.71977592 0 0 Z " fill="#BF9A64" transform="translate(308,374)"/>
<path d="M0 0 C0.99 0.33 1.98 0.66 3 1 C4.02734375 3.58984375 4.02734375 3.58984375 4.9375 6.9375 C6.13577706 11.14294747 7.40328543 15.16803252 9.125 19.1875 C11.13768801 24.01319684 12.16749705 28.85162649 13 34 C12.34 34 11.68 34 11 34 C10.01 31.03 9.02 28.06 8 25 C1.62641289 24.03794912 -4.55929529 23.89344422 -11 24 C-12.32 26.31 -13.64 28.62 -15 31 C-15.66 31 -16.32 31 -17 31 C-16.07053586 26.71400701 -14.0380091 23.2111285 -11.875 19.4375 C-11.47482666 18.73238281 -11.07465332 18.02726563 -10.66235352 17.30078125 C-7.29364877 11.4107352 -3.73372905 5.66662415 0 0 Z " fill="#2E905C" transform="translate(277,497)"/>
<path d="M0 0 C5.0077817 4.63538306 8.96361891 10.00112883 13.0625 15.4375 C13.76955078 16.36626953 14.47660156 17.29503906 15.20507812 18.25195312 C16.56021819 20.03972007 17.90656504 21.83419735 19.24267578 23.63623047 C20.29200624 25.04768052 21.35789053 26.44739316 22.45654297 27.82080078 C23.62109375 29.34765625 23.62109375 29.34765625 25 32 C24.08618164 34.66577148 24.08618164 34.66577148 23 37 C19.3532707 36.5486251 15.70781904 36.08761523 12.0625 35.625 C11.04091797 35.49867188 10.01933594 35.37234375 8.96679688 35.2421875 C3.53347592 34.54783338 -1.76786002 33.68418199 -7.09936523 32.42822266 C-9.41027359 31.90756328 -11.70537598 31.599488 -14.0625 31.375 C-15.361875 31.25125 -16.66125 31.1275 -18 31 C-17.34 29.68 -16.68 28.36 -16 27 C-8.01677879 27.59558469 -0.19768645 28.69599188 7.6875 30.0625 C8.78255859 30.24876953 9.87761719 30.43503906 11.00585938 30.62695312 C13.67123898 31.0808824 16.33590249 31.5386164 19 32 C14.26368241 25.39826124 9.43458738 18.89330164 4.41455078 12.50512695 C2.03530864 9.45149537 -0.08262933 6.36315502 -2 3 C-1.34 2.01 -0.68 1.02 0 0 Z " fill="#1A864C" transform="translate(106,164)"/>
<path d="M0 0 C-0.12109375 1.859375 -0.12109375 1.859375 -1 4 C-3.59765625 5.203125 -3.59765625 5.203125 -7.0625 6.25 C-30.67073119 13.96261273 -50.53733557 28.76922196 -67.43139648 46.68017578 C-68.08052002 47.35290527 -68.72964355 48.02563477 -69.3984375 48.71875 C-69.97255371 49.32654297 -70.54666992 49.93433594 -71.13818359 50.56054688 C-73.38887278 52.30065486 -75.20798987 52.63803947 -78 53 C-63.53719188 32.10927716 -27.03652173 0 0 0 Z " fill="#1F8850" transform="translate(250,144)"/>
<path d="M0 0 C3.65039561 1.50795123 5.71766179 3.61738168 8.3125 6.5625 C9.1065625 7.45324219 9.900625 8.34398437 10.71875 9.26171875 C12.76628271 11.71945922 14.52258349 14.22960869 16.3125 16.875 C20.31307997 22.23122673 25.69879003 23.52040554 32 25 C31.67 26.32 31.34 27.64 31 29 C27.53058454 28.54177532 24.32604951 28.10868317 21 27 C14.32249875 26.4080504 8.05959815 27.57439507 1.5625 29 C-0.2067163 29.37648312 -1.97623357 29.7515555 -3.74609375 30.125 C-4.51622803 30.29257813 -5.2863623 30.46015625 -6.07983398 30.6328125 C-8 31 -8 31 -10 31 C-9.875 29.125 -9.875 29.125 -9 27 C-4.71528091 25.30409919 -0.31223391 24.32992745 4.1875 23.375 C5.39792969 23.11460937 6.60835937 22.85421875 7.85546875 22.5859375 C11 22 11 22 14 22 C12.41727985 19.93702698 10.83384324 17.87461051 9.25 15.8125 C8.8065625 15.23435547 8.363125 14.65621094 7.90625 14.06054688 C7.24882813 13.20493164 7.24882813 13.20493164 6.578125 12.33203125 C6.14564453 11.76564941 5.71316406 11.19926758 5.26757812 10.61572266 C4.11564524 9.14740758 2.89687723 7.73214917 1.671875 6.32421875 C0 4 0 4 0 0 Z " fill="#1C874D" transform="translate(82,206)"/>
<path d="M0 0 C-1.36018991 3.11963955 -2.83260134 5.00834822 -5.4375 7.1875 C-6.33275391 7.95126953 -6.33275391 7.95126953 -7.24609375 8.73046875 C-11.5699214 11.8601881 -16.903761 11.68603217 -22 11 C-26.20812182 9.17130277 -30.03534149 6.52676502 -33 3 C-33 2.01 -33 1.02 -33 0 C-22.03618138 -1.53878156 -10.96381862 -1.53878156 0 0 Z " fill="#BF9A65" transform="translate(317,159)"/>
<path d="M0 0 C1.51075416 3.91260327 3.00671908 7.83069813 4.5 11.75 C4.92925781 12.86117187 5.35851562 13.97234375 5.80078125 15.1171875 C6.20683594 16.18710938 6.61289062 17.25703125 7.03125 18.359375 C7.40830078 19.34389648 7.78535156 20.32841797 8.17382812 21.34277344 C9 24 9 24 9 28 C8.01 28.33 7.02 28.66 6 29 C3.125 22.375 3.125 22.375 2 19 C-3.9532192 19.94456088 -9.1177863 21.32505574 -14.55859375 23.9140625 C-25.99280576 29 -25.99280576 29 -31 29 C-31.33 27.68 -31.66 26.36 -32 25 C-25.21729496 22.09679671 -18.39001909 19.32498666 -11.5 16.6875 C-10.81808594 16.42114746 -10.13617188 16.15479492 -9.43359375 15.88037109 C-6.03032798 14.59230604 -3.69460441 14 0 14 C-0.28875 13.31292969 -0.5775 12.62585938 -0.875 11.91796875 C-1.24625 11.01691406 -1.6175 10.11585938 -2 9.1875 C-2.37125 8.29417969 -2.7425 7.40085938 -3.125 6.48046875 C-4 4 -4 4 -4 1 C-2 0 -2 0 0 0 Z " fill="#1C874E" transform="translate(517,204)"/>
<path d="M0 0 C6.45951544 0.40371972 13.33168401 2.33168401 18 7 C18.45702148 10.50383136 18.37006943 12.37249097 16.5625 15.4375 C12.61305209 17.84569995 9.38093838 17.00135734 5 16 C1.95236724 15.11609443 -1.03004153 14.11636737 -4 13 C-3.52511102 11.01980257 -3.04497141 9.04086365 -2.5625 7.0625 C-2.29566406 5.96035156 -2.02882812 4.85820312 -1.75390625 3.72265625 C-1 1 -1 1 0 0 Z " fill="#F5F9F7" transform="translate(220,501)"/>
<path d="M0 0 C1.9375 1.125 1.9375 1.125 3 3 C3.39124957 7.7773632 2.43344414 11.02475068 0.5 15.375 C0.0359375 16.43460937 -0.428125 17.49421875 -0.90625 18.5859375 C-1.2671875 19.38257813 -1.628125 20.17921875 -2 21 C-6.571279 20.45144652 -10.67435795 19.58255197 -15 18 C-14.38850942 12.03796686 -12.3966198 5.95936202 -8.5859375 1.25390625 C-5.86968153 -0.89367544 -3.30521795 -0.35413049 0 0 Z " fill="#F5FAF7" transform="translate(515,363)"/>
<path d="M0 0 C3.125 0.1875 3.125 0.1875 6.125 2.1875 C6.97765745 9.00875957 4.94961803 14.03386787 2.125 20.1875 C0.66596742 19.87828116 -0.79220722 19.56501201 -2.25 19.25 C-3.46816406 18.98896484 -3.46816406 18.98896484 -4.7109375 18.72265625 C-6.875 18.1875 -6.875 18.1875 -8.875 17.1875 C-8.4516525 11.26063507 -7.31124948 0.47682062 0 0 Z " fill="#F5F9F7" transform="translate(495.875,358.8125)"/>
<path d="M0 0 C3.25 0.125 3.25 0.125 7 1 C11.30085952 5.85654579 11.59525432 9.83231515 11.4375 16 C11.44458984 16.78117187 11.45167969 17.56234375 11.45898438 18.3671875 C11.40561926 23.24393777 10.83139124 26.8568174 8 31 C4.3125 31.875 4.3125 31.875 1 32 C1.33 30.845 1.66 29.69 2 28.5 C2.99974186 23.96879589 3.2568657 19.50120573 3.3125 14.875 C3.33860352 13.87243164 3.33860352 13.87243164 3.36523438 12.84960938 C3.36026381 7.80448204 2.18308994 4.43530146 0 0 Z " fill="#BE9963" transform="translate(348,338)"/>
<path d="M0 0 C-0.61746094 0.32871094 -1.23492187 0.65742188 -1.87109375 0.99609375 C-16.41818369 9.16637714 -23.74070501 20.90857097 -30 36 C-31.65 34.35 -33.3 32.7 -35 31 C-31.43433257 19.25224546 -24.11141762 9.94232843 -13.41796875 3.91796875 C-12.15877335 3.24808393 -10.89441467 2.58781154 -9.625 1.9375 C-9.017771 1.62586914 -8.41054199 1.31423828 -7.78491211 0.99316406 C-3.38199184 -1.12733061 -3.38199184 -1.12733061 0 0 Z " fill="#C09B66" transform="translate(314,206)"/>
<path d="M0 0 C4.46045305 2.59289888 7.6780704 5.279009 9.77734375 10.08984375 C10.53128404 15.79937075 10.60280989 20.46737583 7.96484375 25.65234375 C6.88203125 26.85890625 6.88203125 26.85890625 5.77734375 28.08984375 C5.28234375 28.66734375 4.78734375 29.24484375 4.27734375 29.83984375 C0.42043861 33.05393137 -3.09434734 33.53050431 -7.98046875 33.40234375 C-14.12107688 32.54650986 -17.70041994 27.71906861 -21.22265625 23.08984375 C-23.35857667 18.81800291 -22.93784171 13.70394346 -22.22265625 9.08984375 C-17.50403786 0.79337186 -9.3077423 -3.8114305 0 0 Z M-19.22265625 8.08984375 C-21.30979621 12.26412368 -20.9562173 17.82628393 -19.5390625 22.19921875 C-17.29183495 26.56312952 -14.83730491 28.60967342 -10.22265625 30.08984375 C-5.95419791 30.6252864 -2.42708369 30.57161473 1.58984375 28.96484375 C4.94599291 26.08814447 7.40332683 23.40874868 8.12890625 18.91015625 C8.31271044 13.94744321 7.68004435 10.25038128 4.77734375 6.08984375 C1.18083562 2.67316103 -1.82492451 1.75668215 -6.66015625 1.46484375 C-12.41649766 1.65331878 -15.60761423 3.70177388 -19.22265625 8.08984375 Z " fill="#33935F" transform="translate(124.22265625,397.91015625)"/>
<path d="M0 0 C6.22682121 0.78654584 12.47231705 2.47231705 17 7 C16.54545455 12.45454545 16.54545455 12.45454545 14 15 C7.3628103 16.18422887 2.67244577 14.30033208 -3 11 C-2.69217504 9.35328588 -2.37860766 7.70764424 -2.0625 6.0625 C-1.88847656 5.14597656 -1.71445313 4.22945313 -1.53515625 3.28515625 C-1 1 -1 1 0 0 Z " fill="#F7FBF9" transform="translate(225,487)"/>
<path d="M0 0 C5.88066874 2.76910026 9.58334362 7.05905307 12 13 C12.8551284 17.15562399 12.815638 20.44188754 10.82421875 24.24609375 C8.14046093 28.02554597 5.42318772 31.35416271 1 33 C-4.95676179 33.78822935 -9.72961908 33.04060438 -15 30 C-18.51850202 26.66380378 -20.76620322 23.4414516 -21.23828125 18.51171875 C-21.39682895 12.47856139 -21.29537816 8.63448696 -17 4 C-11.93112713 -0.69797973 -6.60924196 -1.22810028 0 0 Z M-17 7 C-19.77053329 11.41438305 -19.63956092 15.94746876 -19 21 C-16.6704397 25.83831756 -13.79876079 28.6006196 -9 31 C-3.70385577 31.94271367 0.5190454 31.05519632 5 28 C8.41668272 24.40349187 9.3331616 21.39773174 9.625 16.5625 C9.44026514 11.54044851 8.22001703 8.79610634 4.63671875 5.3046875 C0.74677033 2.20386943 -2.95305285 1.49055812 -7.9375 1.61328125 C-11.61999011 2.30374815 -14.41580968 4.3459667 -17 7 Z " fill="#2E915C" transform="translate(157,439)"/>
<path d="M0 0 C11.88 0 23.76 0 36 0 C36 1.98 36 3.96 36 6 C29.02822864 6.91219438 22.21461101 7.15207943 15.1875 7.125 C14.16462891 7.12886719 13.14175781 7.13273438 12.08789062 7.13671875 C11.10369141 7.13542969 10.11949219 7.13414062 9.10546875 7.1328125 C8.22012451 7.13168457 7.33478027 7.13055664 6.42260742 7.12939453 C4.14353152 7.0076662 2.18449772 6.63900921 0 6 C0 4.02 0 2.04 0 0 Z " fill="#F8F4EE" transform="translate(282,141)"/>
<path d="M0 0 C4.87458106 -0.12405942 9.74823358 -0.21455231 14.62402344 -0.2746582 C16.28076189 -0.299726 17.93739059 -0.3337899 19.59375 -0.37719727 C21.98204684 -0.43819643 24.36887593 -0.46628526 26.7578125 -0.48828125 C27.49242706 -0.51408768 28.22704163 -0.5398941 28.98391724 -0.56648254 C32.92658684 -0.56860881 35.41678841 -0.05070749 38.4375 2.40112305 C43.24717045 7.27907103 44.14626818 12.79227346 44.4375 19.5 C44.24562916 26.01447191 42.24581987 31.12755628 38.25 36.23828125 C35.27373909 38.56865221 33.48054209 38.41219748 29.75 38.25 C28.67234375 38.21390625 27.5946875 38.1778125 26.484375 38.140625 C25.66453125 38.09421875 24.8446875 38.0478125 24 38 C24 37.67 24 37.34 24 37 C24.804375 36.87625 25.60875 36.7525 26.4375 36.625 C27.283125 36.41875 28.12875 36.2125 29 36 C29.33 35.34 29.66 34.68 30 34 C32.32156597 33.59270772 34.6568787 33.25561323 37 33 C39.35473033 28.34682771 39.33316983 24.09304656 39.3125 19 C39.32861328 18.2059375 39.34472656 17.411875 39.36132812 16.59375 C39.36519772 11.95023524 39.13013073 8.69469769 36 5 C32.42003741 3.63099646 32.42003741 3.63099646 29 3 C29 2.67 29 2.34 29 2 C19.43 1.67 9.86 1.34 0 1 C0 0.67 0 0.34 0 0 Z " fill="#E8F0E9" transform="translate(319,335)"/>
<path d="M0 0 C2.71299373 0.31893825 5.26403716 0.5625 8 0.5625 C7.125 5.4375 7.125 5.4375 6 6.5625 C1.74293347 6.80439961 -2.51978162 6.79099951 -6.78295898 6.80273438 C-8.92536161 6.81244498 -11.06680697 6.84345753 -13.20898438 6.875 C-14.56509845 6.88152936 -15.92121941 6.8867801 -17.27734375 6.890625 C-19.13734009 6.90464355 -19.13734009 6.90464355 -21.03491211 6.91894531 C-22.01339111 6.80131836 -22.99187012 6.68369141 -24 6.5625 C-26 3.5625 -26 3.5625 -26 0.5625 C-24.10314453 0.57990234 -24.10314453 0.57990234 -22.16796875 0.59765625 C-20.50781398 0.60703566 -18.84765761 0.6161357 -17.1875 0.625 C-16.35412109 0.63337891 -15.52074219 0.64175781 -14.66210938 0.65039062 C-13.45844727 0.65522461 -13.45844727 0.65522461 -12.23046875 0.66015625 C-11.49207764 0.66539307 -10.75368652 0.67062988 -9.99291992 0.67602539 C-6.33571046 0.46769483 -3.77237693 -0.45470615 0 0 Z " fill="#FBFAF7" transform="translate(309,152.4375)"/>
<path d="M0 0 C6.57403846 -0.37211538 6.57403846 -0.37211538 8.73046875 1.51171875 C9.35888672 2.24841797 9.35888672 2.24841797 10 3 C6.5833102 9.61201914 3.14372715 16.21169356 -0.31884766 22.79980469 C-1.41006125 24.87700884 -2.49844673 26.95570206 -3.58349609 29.03613281 C-5.04170135 31.8234241 -6.5179473 34.60033182 -8 37.375 C-8.44384033 38.2299707 -8.88768066 39.08494141 -9.3449707 39.96582031 C-9.76738037 40.74795898 -10.18979004 41.53009766 -10.625 42.3359375 C-10.98851562 43.02220215 -11.35203125 43.7084668 -11.7265625 44.41552734 C-13.32605604 46.40569473 -14.52027865 46.6370661 -17 47 C-15.15491221 41.97326082 -12.66002753 37.29369368 -10.2109375 32.54296875 C-9.74765045 31.64000565 -9.2843634 30.73704254 -8.80703735 29.80671692 C-7.33177995 26.93256644 -5.85343442 24.06001733 -4.375 21.1875 C-3.37219153 19.23513096 -2.36958504 17.28265817 -1.3671875 15.33007812 C1.08620222 10.5521805 3.54212703 5.77559273 6 1 C4.02 1 2.04 1 0 1 C0 0.67 0 0.34 0 0 Z " fill="#F1F2EC" transform="translate(309,373)"/>
<path d="M0 0 C4.69004387 1.6116367 8.53651453 4.13603415 12.625 6.875 C13.29273438 7.30941406 13.96046875 7.74382812 14.6484375 8.19140625 C21.11981745 12.5013453 21.11981745 12.5013453 23 16 C23.89486349 20.88547094 23.49271949 24.95770878 21.375 29.4375 C17.90628129 33.18006493 14.97411441 34.72192043 9.921875 35.43359375 C4.34564082 34.81709774 0.68198152 32.23319618 -3.9375 29.1875 C-4.81212891 28.64029297 -5.68675781 28.09308594 -6.58789062 27.52929688 C-11.32798327 24.476544 -11.32798327 24.476544 -13 23 C-13 22.01 -13 21.02 -13 20 C-10.30182886 21.29735512 -7.80845159 22.71989855 -5.3203125 24.3828125 C-4.63839844 24.82753906 -3.95648438 25.27226562 -3.25390625 25.73046875 C-1.83649233 26.65893989 -0.42496088 27.59645492 0.98046875 28.54296875 C5.13477273 31.22644571 7.88767172 32.67607313 13 32 C15.82581721 31.11188602 16.8584683 30.17185992 18.75 27.875 C20.32298708 24.25712971 21.11054314 20.85767617 20 17 C15.82191557 12.03902403 10.50767666 8.90961623 5.08789062 5.48632812 C3.36043637 4.37156701 1.67581146 3.19098551 0 2 C0 1.34 0 0.68 0 0 Z " fill="#268C55" transform="translate(473,397)"/>
<path d="M0 0 C3.09308516 2.55245996 3.98199617 5.2310685 5.1875 9 C5.53167969 10.051875 5.87585938 11.10375 6.23046875 12.1875 C7 15 7 15 7 18 C1.72 17.67 -3.56 17.34 -9 17 C-7.4005386 12.20161579 -6.0713266 9.21942188 -3.375 5.125 C-2.74335938 4.15820312 -2.11171875 3.19140625 -1.4609375 2.1953125 C-0.73777344 1.10863281 -0.73777344 1.10863281 0 0 Z " fill="#F1F7F4" transform="translate(277,501)"/>
<path d="M0 0 C0 0.66 0 1.32 0 2 C-1.794375 2.0928125 -1.794375 2.0928125 -3.625 2.1875 C-8.48656871 2.79950599 -10.63343451 4.47312187 -14 8 C-16.28833963 11.95258663 -16.39569707 15.48905339 -16 20 C-14.38101625 24.20935775 -12.85380143 26.66477181 -9 29 C-4.16490842 29.73499157 0.4731167 29.63620138 5 27.75 C8.06381504 25.06916184 9.70917463 22.87247612 11 19 C11.99 19 12.98 19 14 19 C12.74784899 24.84337138 9.78100896 27.73102506 5 31 C0.37164486 32.54278505 -4.1664845 32.50478774 -9 32 C-14.14853681 29.4257316 -17.182008 26.45397599 -19 21 C-19.52166057 16.03139685 -19.5724051 12.14481021 -17.3125 7.625 C-11.64206485 1.18828984 -8.23419386 -0.13280958 0 0 Z " fill="#349461" transform="translate(424,461)"/>
<path d="M0 0 C11.88 0 23.76 0 36 0 C36 4.62 36 9.24 36 14 C24.12 14 12.24 14 0 14 C0 9.38 0 4.76 0 0 Z M1 1 C1 4.96 1 8.92 1 13 C6.94 13 12.88 13 19 13 C19 12.67 19 12.34 19 12 C17.02 12 15.04 12 13 12 C13 11.34 13 10.68 13 10 C15.64 10 18.28 10 21 10 C18.32357511 7.81509993 18.32357511 7.81509993 16 8 C15.67 6.35 15.34 4.7 15 3 C15.66 3 16.32 3 17 3 C17.33 4.32 17.66 5.64 18 7 C18.66 7 19.32 7 20 7 C20 5.35 20 3.7 20 2 C20.66 2.33 21.32 2.66 22 3 C22.19546065 7.30013434 21.9955516 9.00889681 20 13 C24.95 13 29.9 13 35 13 C35 9.04 35 5.08 35 1 C23.78 1 12.56 1 1 1 Z " fill="#E6D8C3" transform="translate(282,123)"/>
<path d="M0 0 C1.33333333 3.33333333 2.66666667 6.66666667 4 10 C4.37382813 10.87269531 4.74765625 11.74539063 5.1328125 12.64453125 C6 15 6 15 6 18 C5.34 18 4.68 18 4 18 C3.1605118 15.89828133 2.32860344 13.79353375 1.5 11.6875 C1.0359375 10.51574219 0.571875 9.34398437 0.09375 8.13671875 C-1 5 -1 5 -1 2 C-2.010625 2.474375 -3.02125 2.94875 -4.0625 3.4375 C-7.65922205 4.9936328 -11.09268709 5.6012946 -15 6 C-14.6390625 6.83144531 -14.278125 7.66289062 -13.90625 8.51953125 C-13.4421875 9.60621094 -12.978125 10.69289063 -12.5 11.8125 C-12.0359375 12.89144531 -11.571875 13.97039062 -11.09375 15.08203125 C-10 18 -10 18 -10 21 C-10.66 21 -11.32 21 -12 21 C-12.67057887 19.2097939 -13.3363469 17.41778511 -14 15.625 C-14.37125 14.62726563 -14.7425 13.62953125 -15.125 12.6015625 C-16 10 -16 10 -16 8 C-16.58007812 8.20496094 -17.16015625 8.40992188 -17.7578125 8.62109375 C-22.1621984 10.14009813 -26.35677777 11.4047151 -31 12 C-30 9 -30 9 -27.67089844 7.83325195 C-26.15544434 7.29124146 -26.15544434 7.29124146 -24.609375 6.73828125 C-22.95615234 6.14370117 -22.95615234 6.14370117 -21.26953125 5.53710938 C-20.10808594 5.13298828 -18.94664063 4.72886719 -17.75 4.3125 C-16.60402344 3.89677734 -15.45804688 3.48105469 -14.27734375 3.05273438 C-4.90842872 -0.26837695 -4.90842872 -0.26837695 0 0 Z " fill="#349460" transform="translate(111,360)"/>
<path d="M0 0 C0.33 0 0.66 0 1 0 C0.57651657 6.60050042 -0.60685719 12.69469808 -2.30078125 19.08203125 C-3.25206899 23.05193037 -3.66129266 26.9355119 -4 31 C-4.66 30.01 -5.32 29.02 -6 28 C-7.05476516 33.16068491 -7.12969365 38.09712007 -7.09765625 43.3359375 C-7.0962413 44.21528961 -7.09482635 45.09464172 -7.09336853 46.00064087 C-7.08779877 48.79212942 -7.0752519 51.58353594 -7.0625 54.375 C-7.05748109 56.27473842 -7.05291887 58.1744781 -7.04882812 60.07421875 C-7.03783925 64.71617714 -7.02059557 69.35807469 -7 74 C-7.33 74 -7.66 74 -8 74 C-9.4313671 66.53196641 -9.28760489 59.01181123 -9.3125 51.4375 C-9.31545074 50.65432404 -9.31840149 49.87114807 -9.32144165 49.0642395 C-9.33233702 36.35910137 -8.4031285 24.30153917 -5 12 C-4.75717285 11.10812988 -4.5143457 10.21625977 -4.26416016 9.29736328 C-2.26671766 2.26671766 -2.26671766 2.26671766 0 0 Z " fill="#258C55" transform="translate(145,249)"/>
<path d="M0 0 C-0.33 0.99 -0.66 1.98 -1 3 C-8.56377996 6.22468362 -17.04583131 7.49053885 -25.125 8.8125 C-25.94210449 8.94849609 -26.75920898 9.08449219 -27.60107422 9.22460938 C-28.37467285 9.34255859 -29.14827148 9.46050781 -29.9453125 9.58203125 C-30.63125488 9.68749268 -31.31719727 9.7929541 -32.02392578 9.90161133 C-34.23361452 10.01163166 -35.86396048 9.55549946 -38 9 C-39.87756738 8.85492152 -41.75876493 8.75366301 -43.640625 8.68359375 C-44.71054687 8.64169922 -45.78046875 8.59980469 -46.8828125 8.55664062 C-47.99398438 8.51732422 -49.10515625 8.47800781 -50.25 8.4375 C-51.37664062 8.39431641 -52.50328125 8.35113281 -53.6640625 8.30664062 C-56.44258954 8.20067985 -59.22120391 8.09860858 -62 8 C-62 7.67 -62 7.34 -62 7 C-61.23147705 6.9906543 -60.4629541 6.98130859 -59.67114258 6.97167969 C-40.51437007 6.6804956 -22.36940836 5.52683786 -4.05541992 -0.51611328 C-2 -1 -2 -1 0 0 Z " fill="#1F884F" transform="translate(351,452)"/>
<path d="M0 0 C0.66 0.33 1.32 0.66 2 1 C1.67 1.66 1.34 2.32 1 3 C1.66 3.33 2.32 3.66 3 4 C2.45472656 4.268125 1.90945313 4.53625 1.34765625 4.8125 C-10.38757895 10.91081026 -19.59959838 20.09923223 -23.97265625 32.83203125 C-25 35 -25 35 -27.125 35.8125 C-27.74375 35.874375 -28.3625 35.93625 -29 36 C-25.5255679 23.53292013 -17.91482067 11.39273579 -6.6171875 4.55859375 C-4.7664258 3.65974712 -2.88576594 2.82287968 -1 2 C-0.67 1.34 -0.34 0.68 0 0 Z " fill="#EDF0E9" transform="translate(314,204)"/>
<path d="M0 0 C4.60268282 1.64445367 8.63830751 3.99947895 12.8125 6.5 C13.50537109 6.90347656 14.19824219 7.30695313 14.91210938 7.72265625 C16.64423445 8.75681171 18.32730564 9.87224632 20 11 C20 11.66 20 12.32 20 13 C16.08406554 12.21681311 12.63593365 10.60820142 9 9 C8.59007812 10.08704224 8.59007812 10.08704224 8.171875 11.19604492 C6.23692823 15.82580818 3.57519743 20.01544297 1 24.3125 C0.4534375 25.24384766 -0.093125 26.17519531 -0.65625 27.13476562 C-1.1821875 28.01455078 -1.708125 28.89433594 -2.25 29.80078125 C-2.72953125 30.60684814 -3.2090625 31.41291504 -3.703125 32.2434082 C-4.13109375 32.8230835 -4.5590625 33.40275879 -5 34 C-5.66 34 -6.32 34 -7 34 C-5.45580824 28.0466066 -2.26321165 23.39636564 1.0625 18.3125 C2.1603962 16.62293849 3.25557436 14.93160677 4.34765625 13.23828125 C4.83242432 12.49618408 5.31719238 11.75408691 5.81665039 10.98950195 C7.14742587 8.91303171 7.14742587 8.91303171 8 6 C7.236875 5.71125 6.47375 5.4225 5.6875 5.125 C3 4 3 4 0 2 C0 1.34 0 0.68 0 0 Z " fill="#268C55" transform="translate(187,464)"/>
<path d="M0 0 C0.66 0 1.32 0 2 0 C3.25144259 10.05623507 4.26040569 19.84417795 4 30 C8.95 29.67 13.9 29.34 19 29 C19 29.99 19 30.98 19 32 C13.39 32 7.78 32 2 32 C1.20270737 28.01353684 0.81702826 24.62756607 0.68359375 20.60546875 C0.64169922 19.40341797 0.59980469 18.20136719 0.55664062 16.96289062 C0.51732422 15.71701172 0.47800781 14.47113281 0.4375 13.1875 C0.37272461 11.28967773 0.37272461 11.28967773 0.30664062 9.35351562 C0.2007553 6.23578111 0.09867595 3.11796965 0 0 Z " fill="#389663" transform="translate(312,498)"/>
<path d="M0 0 C0.66 0 1.32 0 2 0 C5.44545951 9.51166749 7.80466015 19.14432536 10 29 C10.59167969 28.7834375 11.18335938 28.566875 11.79296875 28.34375 C19.64147627 25.57820738 19.64147627 25.57820738 24 26 C24 26.66 24 27.32 24 28 C22.08487728 28.50588147 20.16783078 29.00448391 18.25 29.5 C17.18265625 29.7784375 16.1153125 30.056875 15.015625 30.34375 C12 31 12 31 8 31 C5.48258718 24.05033375 3.43347449 17.06643029 1.75 9.875 C1.57500977 9.12871338 1.40001953 8.38242676 1.21972656 7.61352539 C0 2.28243681 0 2.28243681 0 0 Z " fill="#359461" transform="translate(346,493)"/>
<path d="M0 0 C3.46629835 1.48653506 5.69022036 3.45722351 8.328125 6.1328125 C9.12734375 6.93847656 9.9265625 7.74414062 10.75 8.57421875 C11.575 9.41597656 12.4 10.25773437 13.25 11.125 C14.51070313 12.39923828 14.51070313 12.39923828 15.796875 13.69921875 C17.86915683 15.79504923 19.93662393 17.89540713 22 20 C23.12588014 19.04270084 24.2506715 18.08412105 25.375 17.125 C26.31472656 16.32449219 26.31472656 16.32449219 27.2734375 15.5078125 C28.55836651 14.38567993 29.79371975 13.20628025 31 12 C32.485 12.495 32.485 12.495 34 13 C32.21427748 14.83947337 30.42197551 16.67157741 28.625 18.5 C28.11710937 19.02464844 27.60921875 19.54929687 27.0859375 20.08984375 C25.76167396 21.43153181 24.38394135 22.71995815 23 24 C22.34 24 21.68 24 21 24 C19.765625 22.7421875 19.765625 22.7421875 18.25 20.875 C14.01454144 15.85385937 9.34070942 11.31293511 4.62402344 6.74951172 C4.02750977 6.16443848 3.43099609 5.57936523 2.81640625 4.9765625 C2.27443604 4.45143066 1.73246582 3.92629883 1.17407227 3.38525391 C0 2 0 2 0 0 Z " fill="#2B8F5A" transform="translate(437,443)"/>
<path d="M0 0 C0.33 0 0.66 0 1 0 C1 15.51 1 31.02 1 47 C0.01 47.495 0.01 47.495 -1 48 C-1.99339362 39.24350385 -2.18315716 30.55727983 -2.1875 21.75 C-2.19967738 20.41406073 -2.21204623 19.0781232 -2.22460938 17.7421875 C-2.22750977 15.82019531 -2.22750977 15.82019531 -2.23046875 13.859375 C-2.23457764 12.70920898 -2.23868652 11.55904297 -2.24291992 10.37402344 C-1.97236107 6.6161105 -1.14788157 3.57700028 0 0 Z " fill="#057A3B" transform="translate(139,276)"/>
<path d="M0 0 C3.78989325 5.68483987 3.1837012 10.40872585 3.1875 17.125 C3.19974609 18.24132812 3.21199219 19.35765625 3.22460938 20.5078125 C3.23556958 26.70398062 2.83327884 32.07263997 1 38 C0.67 38 0.34 38 0 38 C0 25.46 0 12.92 0 0 Z " fill="#128145" transform="translate(460,280)"/>
<path d="M0 0 C1.54992682 4.64978046 -0.89043056 7.50065728 -2.98242188 11.74609375 C-3.82643555 13.41865234 -3.82643555 13.41865234 -4.6875 15.125 C-5.23083984 16.24777344 -5.77417969 17.37054688 -6.33398438 18.52734375 C-6.86701172 19.59339844 -7.40003906 20.65945313 -7.94921875 21.7578125 C-8.43737061 22.7389502 -8.92552246 23.72008789 -9.4284668 24.73095703 C-11 27 -11 27 -13.19067383 27.82763672 C-13.78775146 27.8845166 -14.3848291 27.94139648 -15 28 C-13.31942075 22.26514199 -10.72226554 17.07720717 -8.0625 11.75 C-7.61970703 10.83992188 -7.17691406 9.92984375 -6.72070312 8.9921875 C-6.28822266 8.12335938 -5.85574219 7.25453125 -5.41015625 6.359375 C-5.01965088 5.57014648 -4.62914551 4.78091797 -4.22680664 3.96777344 C-3 2 -3 2 0 0 Z " fill="#F5F3EE" transform="translate(238,393)"/>
<path d="M0 0 C0.99 0.66 1.98 1.32 3 2 C4.35011735 9.11548331 2.88445953 15.94551833 -1 22 C-3.29020616 24.92921457 -4.2770013 25.90634732 -8.015625 26.390625 C-9.61664063 26.32101562 -9.61664063 26.32101562 -11.25 26.25 C-12.32765625 26.21390625 -13.4053125 26.1778125 -14.515625 26.140625 C-15.74539063 26.07101562 -15.74539063 26.07101562 -17 26 C-17 25.67 -17 25.34 -17 25 C-16.195625 24.87625 -15.39125 24.7525 -14.5625 24.625 C-13.716875 24.41875 -12.87125 24.2125 -12 24 C-11.67 23.34 -11.34 22.68 -11 22 C-9.329375 21.87625 -9.329375 21.87625 -7.625 21.75 C-3.84014635 21.41184006 -3.84014635 21.41184006 -2.31640625 18.4453125 C-0.85723177 14.62634547 -0.44943197 11.16253695 -0.3125 7.125 C-0.27833984 6.43664062 -0.24417969 5.74828125 -0.20898438 5.0390625 C-0.12735909 3.35991387 -0.0619843 1.67998832 0 0 Z " fill="#EBF1EB" transform="translate(360,347)"/>
<path d="M0 0 C3 0.25 3 0.25 5 2.25 C5.25 5.25 5.25 5.25 5 8.25 C3 10.25 3 10.25 0 10.5 C-3 10.25 -3 10.25 -5 8.25 C-5.25 5.25 -5.25 5.25 -5 2.25 C-3 0.25 -3 0.25 0 0 Z " fill="#FBF9F6" transform="translate(96,302.75)"/>
<path d="M0 0 C3.96811738 1.37669378 5.67101407 2.58397502 8.0625 6.0625 C8.86364041 12.94125736 5.5702349 19.82232245 3.0625 26.0625 C1.7425 25.4025 0.4225 24.7425 -0.9375 24.0625 C-0.2775 23.7325 0.3825 23.4025 1.0625 23.0625 C3.53697674 17.76133997 5.97290118 11.98010765 5.0625 6.0625 C3.12821214 3.67424965 3.12821214 3.67424965 -0.375 3.9375 C-2.1384375 3.999375 -2.1384375 3.999375 -3.9375 4.0625 C-4.9275 4.0625 -5.9175 4.0625 -6.9375 4.0625 C-4.67106229 1.18586753 -3.75000173 0.07978727 0 0 Z " fill="#349360" transform="translate(511.9375,359.9375)"/>
<path d="M0 0 C18.315 0.495 18.315 0.495 37 1 C36.67 1.66 36.34 2.32 36 3 C31.51598515 3.07427649 27.03229826 3.12866111 22.54785156 3.16479492 C21.0230485 3.17986151 19.49828864 3.20031876 17.97363281 3.22631836 C15.77918834 3.26279706 13.58531784 3.27974714 11.390625 3.29296875 C10.07094727 3.3086792 8.75126953 3.32438965 7.39160156 3.34057617 C4 3 4 3 0 0 Z " fill="#017838" transform="translate(277,459)"/>
<path d="M0 0 C2.5 0.25 2.5 0.25 4.5 2.25 C4.75 5.25 4.75 5.25 4.5 8.25 C2.5 10.25 2.5 10.25 0 10.5 C-2.5 10.25 -2.5 10.25 -4.5 8.25 C-4.75 5.25 -4.75 5.25 -4.5 2.25 C-2.5 0.25 -2.5 0.25 0 0 Z " fill="#F9F6F2" transform="translate(497.5,286.75)"/>
<path d="M0 0 C0.33 0 0.66 0 1 0 C1.17015625 0.66386719 1.3403125 1.32773437 1.515625 2.01171875 C3.14707747 7.95610675 4.64213161 12.48159871 9.75 16.3125 C14.73574855 17.83592317 18.71282121 17.57207946 23.375 15.5 C24.24125 15.005 25.1075 14.51 26 14 C26.66 14 27.32 14 28 14 C27.03908527 16.40228681 26.42699298 17.73716415 24.19140625 19.11328125 C19.23542359 21.11864322 14.25452857 20.37635857 9.25 18.875 C4.60791964 16.19687672 1.73271605 13.19814814 0 8 C-0.12781786 5.32605036 -0.04391871 2.67904143 0 0 Z " fill="#2A8E59" transform="translate(136,452)"/>
<path d="M0 0 C9.82252062 -0.44723112 18.4823267 0.78842446 28 3 C28.33 3.99 28.66 4.98 29 6 C22.28727098 6.31663816 16.48871128 5.15574012 10 3.5 C9.03449219 3.26152344 8.06898438 3.02304687 7.07421875 2.77734375 C4.71396013 2.19312132 2.35615018 1.60053719 0 1 C0 0.67 0 0.34 0 0 Z " fill="#208950" transform="translate(251,455)"/>
<path d="M0 0 C0 6.28030491 -7.18006182 11.21842034 -11.42651367 15.49023438 C-13.60806651 17.67002477 -15.80151187 19.83729197 -18 22 C-18.99 21.67 -19.98 21.34 -21 21 C-14.32497556 13.59083582 -7.66925098 6.41040928 0 0 Z " fill="#108144" transform="translate(424,402)"/>
<path d="M0 0 C3.71728269 6.80981199 4.28255173 14.37110317 4 22 C3.67 22 3.34 22 3 22 C2.67 24.64 2.34 27.28 2 30 C1.67 30 1.34 30 1 30 C0.91697632 29.14619751 0.91697632 29.14619751 0.83227539 28.27514648 C0.57729285 25.66243776 0.31991322 23.04997032 0.0625 20.4375 C-0.06801758 19.09461914 -0.06801758 19.09461914 -0.20117188 17.72460938 C-0.68876749 12.79447591 -1.2542319 7.89788241 -2 3 C-1.34 3 -0.68 3 0 3 C0 2.01 0 1.02 0 0 Z " fill="#258C55" transform="translate(458,261)"/>
<path d="M0 0 C4.69004387 1.6116367 8.53651453 4.13603415 12.625 6.875 C13.29273438 7.30941406 13.96046875 7.74382812 14.6484375 8.19140625 C21.10474056 12.49130409 21.10474056 12.49130409 23 16 C23.37460816 18.73713695 23.13898721 21.22025584 23 24 C22.67 24 22.34 24 22 24 C21.64192708 22.33984375 21.28385417 20.6796875 20.92578125 19.01953125 C17.98450263 12.60332431 10.8196774 9.10668461 5.08789062 5.48632812 C3.36043637 4.37156701 1.67581146 3.19098551 0 2 C0 1.34 0 0.68 0 0 Z " fill="#208950" transform="translate(473,397)"/>
<path d="M0 0 C2.89884776 3.49992118 3.31147566 5.43169027 3 10 C2.34 9.01 1.68 8.02 1 7 C-0.05476516 12.16068491 -0.12969365 17.09712007 -0.09765625 22.3359375 C-0.0962413 23.21528961 -0.09482635 24.09464172 -0.09336853 25.00064087 C-0.08779877 27.79212942 -0.0752519 30.58353594 -0.0625 33.375 C-0.05748109 35.27473842 -0.05291887 37.1744781 -0.04882812 39.07421875 C-0.03783925 43.71617714 -0.02059557 48.35807469 0 53 C-0.33 53 -0.66 53 -1 53 C-1.90213488 48.37189058 -2.16046338 43.88035745 -2.16796875 39.1796875 C-2.17129715 38.4397757 -2.17462555 37.69986389 -2.17805481 36.93753052 C-2.18309676 35.37600318 -2.18546398 33.81446516 -2.18530273 32.25292969 C-2.18747431 29.90280634 -2.20561766 27.55316459 -2.22460938 25.203125 C-2.25566376 16.60276651 -1.82370869 8.45002248 0 0 Z " fill="#51A377" transform="translate(138,270)"/>
<path d="M0 0 C2.5625 0.1875 2.5625 0.1875 4.5625 2.1875 C4.8125 4.6875 4.8125 4.6875 4.5625 7.1875 C3.9025 7.8475 3.2425 8.5075 2.5625 9.1875 C-0.73464793 8.85778521 -2.0601839 8.5648161 -4.4375 6.1875 C-3.71780303 0.28598485 -3.71780303 0.28598485 0 0 Z " fill="#F9F5F1" transform="translate(95.4375,284.8125)"/>
<path d="M0 0 C4.38104998 0.50069143 6.95617461 1.78224173 10 5 C10.625 7.9375 10.625 7.9375 10 11 C7.827365 13.57285724 6.02006162 15.48996919 3 17 C3.66 18.32 4.32 19.64 5 21 C3.83054208 20.19152271 2.66449539 19.37810888 1.5 18.5625 C0.8503125 18.11003906 0.200625 17.65757812 -0.46875 17.19140625 C-0.9740625 16.79824219 -1.479375 16.40507812 -2 16 C-2 15.67 -2 15.34 -2 15 C-0.329375 14.5978125 -0.329375 14.5978125 1.375 14.1875 C5.21840951 13.34190981 5.21840951 13.34190981 7 10 C7.15474612 7.43810155 7.15474612 7.43810155 6 5 C3.03292954 3.14083176 3.03292954 3.14083176 0 2 C0 1.34 0 0.68 0 0 Z " fill="#268C55" transform="translate(234,488)"/>
<path d="M0 0 C0.33 0 0.66 0 1 0 C1.15855469 0.66386719 1.31710938 1.32773437 1.48046875 2.01171875 C2.94446507 7.55225732 4.06615445 11.64078601 9 15 C11.59825149 15.66390653 14.13146835 16.11811155 16.79296875 16.4453125 C19 17 19 17 21 20 C16.37069408 20.37034447 12.97317976 20.48658988 8.75 18.375 C5.24196728 15.34533537 2.09754277 12.19508555 0 8 C-0.13415472 5.3276379 -0.04318541 2.67749512 0 0 Z " fill="#419B6B" transform="translate(102,411)"/>
<path d="M0 0 C5.96564796 0.50771472 10.63809899 2.38592128 16 5 C16 6.32 16 7.64 16 9 C10.53262809 7.25192871 5.24175152 5.34205919 0 3 C0 2.01 0 1.02 0 0 Z " fill="#238B53" transform="translate(349,144)"/>
<path d="M0 0 C0.99 0.33 1.98 0.66 3 1 C3 2.32 3 3.64 3 5 C3.66 5 4.32 5 5 5 C5 3.35 5 1.7 5 0 C5.99 0.33 6.98 0.66 8 1 C8.25 6.625 8.25 6.625 6 10 C4.0546875 10.29296875 4.0546875 10.29296875 1.875 10.1875 C-0.043125 10.0946875 -0.043125 10.0946875 -2 10 C-2 9.34 -2 8.68 -2 8 C-0.35 7.67 1.3 7.34 3 7 C2.34 6.67 1.68 6.34 1 6 C0.27840576 4.35636866 -0.39351421 2.68949614 -1 1 C-0.67 0.67 -0.34 0.34 0 0 Z " fill="#CAAB7E" transform="translate(297,125)"/>
<path d="M0 0 C1.45903258 0.30921884 2.91720722 0.62248799 4.375 0.9375 C5.18710938 1.11152344 5.99921875 1.28554688 6.8359375 1.46484375 C9 2 9 2 11 3 C11 3.66 11 4.32 11 5 C8.03 4.67 5.06 4.34 2 4 C1.87882813 4.71027344 1.75765625 5.42054688 1.6328125 6.15234375 C1.46523437 7.07144531 1.29765625 7.99054688 1.125 8.9375 C0.96257812 9.85402344 0.80015625 10.77054687 0.6328125 11.71484375 C0.42398438 12.46894531 0.21515625 13.22304688 0 14 C-0.99 14.495 -0.99 14.495 -2 15 C-3.38766322 8.94474232 -2.49118146 5.67989374 0 0 Z " fill="#419A6A" transform="translate(223,484)"/>
<path d="M0 0 C1.72141768 2.58212652 2.57158383 4.36383668 3.5 7.25 C3.75394531 8.03761719 4.00789062 8.82523437 4.26953125 9.63671875 C5.23035644 12.74527083 6.13262226 15.86409586 7 19 C6.01 18.67 5.02 18.34 4 18 C3.67 18.66 3.34 19.32 3 20 C2.32942113 18.2097939 1.6636531 16.41778511 1 14.625 C0.62875 13.62726563 0.2575 12.62953125 -0.125 11.6015625 C-1 9 -1 9 -1 7 C-0.34 7 0.32 7 1 7 C0.67 4.69 0.34 2.38 0 0 Z " fill="#2D905B" transform="translate(145,343)"/>
<path d="M0 0 C0.33 0 0.66 0 1 0 C1.50220958 6.27761975 1.20069234 9.9591692 -3 15 C-5.10032958 17.43638232 -5.84680631 17.94893544 -9 19 C-10.56118428 19.06740865 -12.1250252 19.08514456 -13.6875 19.0625 C-14.89986328 19.04896484 -14.89986328 19.04896484 -16.13671875 19.03515625 C-16.75160156 19.02355469 -17.36648437 19.01195312 -18 19 C-18 18.67 -18 18.34 -18 18 C-16.783125 17.731875 -15.56625 17.46375 -14.3125 17.1875 C-9.12667263 15.85217232 -5.63063526 14.35824432 -2.75 9.6875 C-1.07975365 6.52211377 -0.34940613 3.58141288 0 0 Z " fill="#238A52" transform="translate(133,411)"/>
<path d="M0 0 C2.78981452 2.53029689 4.90953989 4.86430983 7 8 C6.9765625 10.26171875 6.9765625 10.26171875 6.625 12.6875 C6.45871094 13.89986328 6.45871094 13.89986328 6.2890625 15.13671875 C6.14597656 16.05904297 6.14597656 16.05904297 6 17 C5.67 17 5.34 17 5 17 C4.91363281 16.33613281 4.82726562 15.67226563 4.73828125 14.98828125 C3.80785437 9.14110314 2.8852262 5.7860503 -2 2 C-4.29629994 0.85185003 -6.07698086 0.69230191 -8.625 0.4375 C-9.44226563 0.35371094 -10.25953125 0.26992188 -11.1015625 0.18359375 C-11.72804688 0.12300781 -12.35453125 0.06242187 -13 0 C-13 -0.33 -13 -0.66 -13 -1 C-4.19244604 -2.49280576 -4.19244604 -2.49280576 0 0 Z " fill="#3B9866" transform="translate(127,400)"/>
<path d="M0 0 C0.66 0 1.32 0 2 0 C3.10941367 5.32867983 3.11548069 10.46281855 3.0625 15.875 C3.05798828 16.75414062 3.05347656 17.63328125 3.04882812 18.5390625 C3.03712337 20.69273803 3.01919069 22.84637817 3 25 C2.67 25 2.34 25 2 25 C0.7472283 16.61090382 -0.36011137 8.50262969 0 0 Z " fill="#288D57" transform="translate(312,498)"/>
<path d="M0 0 C0.66 0 1.32 0 2 0 C3.49491558 4.48474674 4.15796289 9.5121496 2.10546875 13.921875 C1 15.5625 1 15.5625 -1 18 C-1.66 17.34 -2.32 16.68 -3 16 C-2.68289062 15.46890625 -2.36578125 14.9378125 -2.0390625 14.390625 C-0.7629651 11.45464152 -0.58292979 8.93825671 -0.375 5.75 C-0.30023438 4.67234375 -0.22546875 3.5946875 -0.1484375 2.484375 C-0.09945312 1.66453125 -0.05046875 0.8446875 0 0 Z " fill="#449C6D" transform="translate(166,449)"/>
<path d="M0 0 C0.66 0 1.32 0 2 0 C5.07708804 5.93438408 6.48736475 10.29873464 6 17 C5.34 17 4.68 17 4 17 C3.32844651 14.73050898 2.6626037 12.4596039 2 10.1875 C1.443125 8.29064453 1.443125 8.29064453 0.875 6.35546875 C0 3 0 3 0 0 Z " fill="#128246" transform="translate(452,247)"/>
<path d="M0 0 C-0.28144987 3.20419855 -1.00288207 4.00246392 -3.50390625 6.140625 C-4.51324219 6.83671875 -5.52257812 7.5328125 -6.5625 8.25 C-7.57441406 8.95640625 -8.58632812 9.6628125 -9.62890625 10.390625 C-10.41136719 10.92171875 -11.19382813 11.4528125 -12 12 C-12 8.36535824 -10.77383718 7.09789076 -8.4375 4.4296875 C-6.00271824 2.00813825 -3.51208377 0 0 0 Z " fill="#168449" transform="translate(208,165)"/>
<path d="M0 0 C10.89 0 21.78 0 33 0 C32.67 0.66 32.34 1.32 32 2 C29.35139573 2.59355614 26.70802678 2.74209269 24 3 C24 2.67 24 2.34 24 2 C16.08 1.67 8.16 1.34 0 1 C0 0.67 0 0.34 0 0 Z " fill="#30925E" transform="translate(289,459)"/>
<path d="M0 0 C0.99 0.66 1.98 1.32 3 2 C3.36328125 4.0234375 3.36328125 4.0234375 3.3125 6.375 C3.30863281 7.14585937 3.30476563 7.91671875 3.30078125 8.7109375 C2.96750169 11.24732479 2.37087054 12.84511989 1 15 C0.01 15.66 -0.98 16.32 -2 17 C-1.34 11.39 -0.68 5.78 0 0 Z " fill="#2D905B" transform="translate(459,312)"/>
<path d="M0 0 C3 2 3 2 3.73046875 4.49609375 C3.88128906 5.46675781 4.03210938 6.43742187 4.1875 7.4375 C4.42533203 8.88962891 4.42533203 8.88962891 4.66796875 10.37109375 C5 13 5 13 5 16 C4.01 15.67 3.02 15.34 2 15 C0.1378492 10.2699378 -0.25833731 5.03757758 0 0 Z " fill="#18854A" transform="translate(141,334)"/>
<path d="M0 0 C2.4375 1.8125 2.4375 1.8125 4 4 C4 4.99 4 5.98 4 7 C4.66 7 5.32 7 6 7 C5.34 8.32 4.68 9.64 4 11 C3.67 11 3.34 11 3 11 C2.71125 9.865625 2.4225 8.73125 2.125 7.5625 C1.75375 6.386875 1.3825 5.21125 1 4 C-1.73905345 2.63047327 -3.97087332 2.87378639 -7 3 C-7.99 3.495 -7.99 3.495 -9 4 C-9 3.01 -9 2.02 -9 1 C-5.90826248 -0.54586876 -3.40570448 -0.29359521 0 0 Z " fill="#228B53" transform="translate(500,357)"/>
<path d="M0 0 C-0.18359375 1.890625 -0.18359375 1.890625 -1 4 C-3.28515625 5.046875 -3.28515625 5.046875 -6.0625 5.75 C-7.44115234 6.11351562 -7.44115234 6.11351562 -8.84765625 6.484375 C-9.55792969 6.65453125 -10.26820313 6.8246875 -11 7 C-10.67 6.01 -10.34 5.02 -10 4 C-10.66 3.67 -11.32 3.34 -12 3 C-10.75336669 2.49166409 -9.50250613 1.99368855 -8.25 1.5 C-7.55390625 1.2215625 -6.8578125 0.943125 -6.140625 0.65625 C-4 0 -4 0 0 0 Z " fill="#2D905B" transform="translate(250,144)"/>
<path d="M0 0 C0.66 0.33 1.32 0.66 2 1 C-0.82790443 6.35813471 -4.47673443 9.5452153 -10 12 C-8.52278578 8.54798361 -6.56205999 6.35038064 -3.875 3.75 C-3.15054687 3.04359375 -2.42609375 2.3371875 -1.6796875 1.609375 C-1.12539063 1.07828125 -0.57109375 0.5471875 0 0 Z " fill="#F4F5F0" transform="translate(304,211)"/>
<path d="M0 0 C1.13508688 3.3515741 0.87309359 5.35675676 -0.25 8.6875 C-0.50265625 9.47511719 -0.7553125 10.26273437 -1.015625 11.07421875 C-2 13 -2 13 -5 14 C-4.03603575 8.79459302 -3.12319499 4.40086567 0 0 Z " fill="#0F8044" transform="translate(455,343)"/>
<path d="M0 0 C0 0.66 0 1.32 0 2 C-8.24427481 4.33587786 -8.24427481 4.33587786 -12 3 C-12.99 2.34 -13.98 1.68 -15 1 C-9.91913204 0.15318867 -5.15171623 -0.09038099 0 0 Z " fill="#158348" transform="translate(333,457)"/>
<path d="M0 0 C6.52307692 -0.36923077 6.52307692 -0.36923077 8.9375 1.5 C9.288125 1.995 9.63875 2.49 10 3 C9.01 4.98 8.02 6.96 7 9 C6.01 9 5.02 9 4 9 C3.67 8.34 3.34 7.68 3 7 C3.93446535 4.96855359 4.93224776 2.96466413 6 1 C4.02 1 2.04 1 0 1 C0 0.67 0 0.34 0 0 Z " fill="#E6E4D5" transform="translate(309,373)"/>
<path d="M0 0 C1 3 1 3 0.22265625 5.04296875 C-0.16019531 5.75066406 -0.54304687 6.45835937 -0.9375 7.1875 C-1.31777344 7.90292969 -1.69804687 8.61835938 -2.08984375 9.35546875 C-2.54037109 10.16951172 -2.54037109 10.16951172 -3 11 C-3.99 11 -4.98 11 -6 11 C-5.44509362 7.67056175 -4.79000672 4.88389972 -3 2 C-2.01 1.34 -1.02 0.68 0 0 Z " fill="#168449" transform="translate(160,216)"/>
<path d="M0 0 C1.96070244 2.94105366 3.40987735 5.87212648 4.90234375 9.0625 C6.04258922 11.07517528 7.29765267 12.44800243 9 14 C8.01 14.33 7.02 14.66 6 15 C1.21055351 10.21055351 0.16439013 6.72505081 0 0 Z " fill="#278D56" transform="translate(405,476)"/>
<path d="M0 0 C1.95825873 -0.02694851 3.91662226 -0.04637218 5.875 -0.0625 C6.96554687 -0.07410156 8.05609375 -0.08570313 9.1796875 -0.09765625 C12 0 12 0 14 1 C14 1.66 14 2.32 14 3 C12.41753293 3.08153933 10.83383727 3.13943557 9.25 3.1875 C8.36828125 3.22230469 7.4865625 3.25710938 6.578125 3.29296875 C3.55328417 2.94923684 2.24416398 1.99772541 0 0 Z " fill="#108044" transform="translate(277,459)"/>
<path d="M0 0 C0.33 0 0.66 0 1 0 C2.46341463 7.07317073 2.46341463 7.07317073 0.3125 11.375 C-1.77782163 13.74779752 -3.06589708 14.9521061 -6 16 C-6.66 15.34 -7.32 14.68 -8 14 C-7.1028125 13.6596875 -7.1028125 13.6596875 -6.1875 13.3125 C-3.30797182 11.58478309 -2.41773487 10.03800329 -1 7 C-0.28076792 3.30476048 -0.28076792 3.30476048 0 0 Z " fill="#409A6A" transform="translate(494,415)"/>
<path d="M0 0 C4.77609498 1.64178265 8.79382904 4.26546702 13 7 C12.67 7.66 12.34 8.32 12 9 C7.50985376 7.50328459 3.52151236 5.16631659 0 2 C0 1.34 0 0.68 0 0 Z " fill="#30915D" transform="translate(473,397)"/>
<path d="M0 0 C0.99 0 1.98 0 3 0 C3.33 1.98 3.66 3.96 4 6 C3.67 6 3.34 6 3 6 C2.67 10.62 2.34 15.24 2 20 C1.67 20 1.34 20 1 20 C0.67 13.4 0.34 6.8 0 0 Z " fill="#DBD8C4" transform="translate(358,342)"/>
<path d="M0 0 C0.99 0.33 1.98 0.66 3 1 C3 3.64 3 6.28 3 9 C2.67 9 2.34 9 2 9 C1.67 11.64 1.34 14.28 1 17 C0.67 17 0.34 17 0 17 C0 11.39 0 5.78 0 0 Z " fill="#33935F" transform="translate(459,274)"/>
<path d="M0 0 C2.89884776 3.49992118 3.31147566 5.43169027 3 10 C2.34 9.01 1.68 8.02 1 7 C0.34 11.29 -0.32 15.58 -1 20 C-1.33 20 -1.66 20 -2 20 C-2.26404456 13.13484138 -1.25841946 6.74153283 0 0 Z " fill="#5DA980" transform="translate(138,270)"/>
<path d="M0 0 C1.07507813 0.34224609 1.07507813 0.34224609 2.171875 0.69140625 C4.08625989 1.05770615 6.00311349 1.41127027 7.921875 1.75390625 C8.90671875 1.93050781 9.8915625 2.10710937 10.90625 2.2890625 C11.65390625 2.42183594 12.4015625 2.55460937 13.171875 2.69140625 C13.171875 3.02140625 13.171875 3.35140625 13.171875 3.69140625 C6.37480287 5.07599502 1.65100927 4.04142011 -4.828125 1.69140625 C-1.828125 -0.30859375 -1.828125 -0.30859375 0 0 Z " fill="#4A9F72" transform="translate(224.828125,499.30859375)"/>
<path d="M0 0 C0.33 0.66 0.66 1.32 1 2 C1.99 1.67 2.98 1.34 4 1 C2.25 6.75 2.25 6.75 0 9 C-0.99 9.33 -1.98 9.66 -3 10 C-2.01 6.7 -1.02 3.4 0 0 Z " fill="#2B8F5A" transform="translate(449,355)"/>
<path d="M0 0 C0.33 0 0.66 0 1 0 C2.38766322 6.05525768 1.49118146 9.32010626 -1 15 C-1.66 14.67 -2.32 14.34 -3 14 C-2.01 9.38 -1.02 4.76 0 0 Z " fill="#449C6D" transform="translate(502,363)"/>
<path d="M0 0 C0.33 0.99 0.66 1.98 1 3 C1.66 3 2.32 3 3 3 C2.67 4.98 2.34 6.96 2 9 C1.34 9 0.68 9 0 9 C-0.66 10.32 -1.32 11.64 -2 13 C-2.33 12.34 -2.66 11.68 -3 11 C-2.34938905 9.32700041 -1.67966676 7.66140763 -1 6 C-0.62406934 4.0075675 -0.28020455 2.0081326 0 0 Z " fill="#359461" transform="translate(455,335)"/>
<path d="M0 0 C0.66 0 1.32 0 2 0 C2 1.32 2 2.64 2 4 C2.66 4.33 3.32 4.66 4 5 C3.01 5 2.02 5 1 5 C0.34 6.98 -0.32 8.96 -1 11 C-1.33 11 -1.66 11 -2 11 C-1.125 3.375 -1.125 3.375 0 0 Z " fill="#278D56" transform="translate(219,495)"/>
<path d="M0 0 C1.44810616 2.31280265 2.12565635 3.41644339 1.5390625 6.140625 C1.23742187 6.83671875 0.93578125 7.5328125 0.625 8.25 C0.32851563 8.95640625 0.03203125 9.6628125 -0.2734375 10.390625 C-0.51320313 10.92171875 -0.75296875 11.4528125 -1 12 C-2.32 11.34 -3.64 10.68 -5 10 C-4.34 9.67 -3.68 9.34 -3 9 C-2.09274566 6.88672575 -2.09274566 6.88672575 -1.375 4.4375 C-1.11460937 3.61121094 -0.85421875 2.78492188 -0.5859375 1.93359375 C-0.39257812 1.29550781 -0.19921875 0.65742188 0 0 Z " fill="#469D6F" transform="translate(516,374)"/>
<path d="M0 0 C0.33 0.66 0.66 1.32 1 2 C1.66 2 2.32 2 3 2 C2.34 4.97 1.68 7.94 1 11 C0.01 10.34 -0.98 9.68 -2 9 C-1.34 6.03 -0.68 3.06 0 0 Z " fill="#288D57" transform="translate(146,241)"/>
<path d="M0 0 C0.05437607 1.58294782 0.09296271 3.16644256 0.125 4.75 C0.14820313 5.63171875 0.17140625 6.5134375 0.1953125 7.421875 C-0.00860498 10.1135858 -0.63448279 11.69904974 -2 14 C-3.10228696 9.59085217 -3.07654536 5.51617599 -3 1 C-1 0 -1 0 0 0 Z " fill="#61AC84" transform="translate(316,516)"/>
<path d="M0 0 C0.99 0.33 1.98 0.66 3 1 C2.01 3.31 1.02 5.62 0 8 C-0.99 8 -1.98 8 -3 8 C-3 4.42424104 -1.91159393 2.94704065 0 0 Z " fill="#EAEFE7" transform="translate(307,391)"/>
<path d="M0 0 C2.00293347 3.00440021 2.49271626 4.70993945 3.125 8.1875 C3.29257812 9.08855469 3.46015625 9.98960937 3.6328125 10.91796875 C3.75398438 11.60503906 3.87515625 12.29210937 4 13 C3.34 13 2.68 13 2 13 C1.46845258 11.39935157 0.95011647 9.79431126 0.4375 8.1875 C0.14746094 7.29417969 -0.14257812 6.40085937 -0.44140625 5.48046875 C-1 3 -1 3 0 0 Z " fill="#3D9968" transform="translate(286,518)"/>
<path d="M0 0 C2.3129482 2.3129482 2.49580975 3.47904875 3.125 6.625 C3.29257812 7.44226563 3.46015625 8.25953125 3.6328125 9.1015625 C3.81457031 10.04128906 3.81457031 10.04128906 4 11 C3.01 11.495 3.01 11.495 2 12 C0.68 8.7 -0.64 5.4 -2 2 C-1.34 2 -0.68 2 0 2 C0 1.34 0 0.68 0 0 Z " fill="#419B6B" transform="translate(279,498)"/>
<path d="M0 0 C0.99 0.33 1.98 0.66 3 1 C0.69 3.31 -1.62 5.62 -4 8 C-4.99 7.67 -5.98 7.34 -7 7 C-4.69 4.69 -2.38 2.38 0 0 Z " fill="#349460" transform="translate(468,455)"/>
<path d="M0 0 C0.66 0.66 1.32 1.32 2 2 C-0.64 2.33 -3.28 2.66 -6 3 C-6 2.34 -6 1.68 -6 1 C-7.32 0.67 -8.64 0.34 -10 0 C-3.42391304 -1.3451087 -3.42391304 -1.3451087 0 0 Z " fill="#2D905B" transform="translate(339,456)"/>
<path d="M0 0 C0.99 0.99 1.98 1.98 3 3 C1.1875 5.5 1.1875 5.5 -1 8 C-1.99 8 -2.98 8 -4 8 C-2.87548273 5.0280615 -1.77706209 2.66559313 0 0 Z " fill="#278D56" transform="translate(162,210)"/>
<path d="M0 0 C0.33 0.99 0.66 1.98 1 3 C-0.65 4.65 -2.3 6.3 -4 8 C-4.33 6.68 -4.66 5.36 -5 4 C-3.35 2.68 -1.7 1.36 0 0 Z " fill="#17844A" transform="translate(168,204)"/>
<path d="M0 0 C3.43595166 1.52708963 6.11912454 3.59927045 9 6 C4.73303602 6 3.33303391 5.49977543 0 3 C0 2.01 0 1.02 0 0 Z " fill="#379563" transform="translate(460,417)"/>
<path d="M0 0 C0.33 0 0.66 0 1 0 C1.28571429 7.42857143 1.28571429 7.42857143 -1 11 C-1.33 11 -1.66 11 -2 11 C-2.28571429 3.57142857 -2.28571429 3.57142857 0 0 Z " fill="#077C3D" transform="translate(141,264)"/>
<path d="M0 0 C4.29 0 8.58 0 13 0 C12.01 0.495 12.01 0.495 11 1 C11 1.66 11 2.32 11 3 C9.741875 2.87625 8.48375 2.7525 7.1875 2.625 C6.12595703 2.52058594 6.12595703 2.52058594 5.04296875 2.4140625 C3 2 3 2 0 0 Z " fill="#349461" transform="translate(251,455)"/>
<path d="M0 0 C1.07310858 3.27185553 0.89263102 5.42947592 0.0625 8.75 C-0.22947266 9.94882812 -0.22947266 9.94882812 -0.52734375 11.171875 C-0.68332031 11.77515625 -0.83929688 12.3784375 -1 13 C-1.33 13 -1.66 13 -2 13 C-3.35384615 5.73846154 -3.35384615 5.73846154 -1.5625 2 C-1.046875 1.34 -0.53125 0.68 0 0 Z " fill="#389664" transform="translate(139,444)"/>
<path d="M0 0 C2.45823172 3.68734758 3.01242616 6.69699971 4 11 C3.01 10.67 2.02 10.34 1 10 C0.67 10.66 0.34 11.32 0 12 C-0.33 10.35 -0.66 8.7 -1 7 C-0.34 7 0.32 7 1 7 C0.67 4.69 0.34 2.38 0 0 Z " fill="#429B6B" transform="translate(145,343)"/>
<path d="M0 0 C0.66 0.99 1.32 1.98 2 3 C0.02 5.97 0.02 5.97 -2 9 C-2.99 8.67 -3.98 8.34 -5 8 C-3.35 5.36 -1.7 2.72 0 0 Z " fill="#339360" transform="translate(193,474)"/>
<path d="M0 0 C4.24223102 -0.3636198 6.58168085 0.4606772 10 3 C10 3.66 10 4.32 10 5 C6.33118845 4.29445932 3.29549466 2.72264494 0 1 C0 0.67 0 0.34 0 0 Z " fill="#359461" transform="translate(197,472)"/>
<path d="M0 0 C-3.18762365 2.12508244 -5.26512223 2.5020163 -9 3 C-8.67 2.01 -8.34 1.02 -8 0 C-5.13822943 -1.43088528 -3.06624227 -0.59991697 0 0 Z " fill="#52A478" transform="translate(89,369)"/>
<path d="M0 0 C-3.21627837 2.14418558 -5.19090105 2.67582137 -9 3 C-9.66 2.34 -10.32 1.68 -11 1 C-6.92630576 -1.03684712 -4.41062136 -1.0257259 0 0 Z " fill="#479E6F" transform="translate(106,363)"/>
<path d="M0 0 C-0.5625 1.9375 -0.5625 1.9375 -2 4 C-5.625 4.75 -5.625 4.75 -9 5 C-7.36885863 1.73771726 -3.62038485 0 0 0 Z " fill="#228A52" transform="translate(164,466)"/>
<path d="M0 0 C0.66 0.33 1.32 0.66 2 1 C1.25 2.9375 1.25 2.9375 0 5 C-2.125 5.75 -2.125 5.75 -4 6 C-4.33 5.01 -4.66 4.02 -5 3 C-2.625 1.4375 -2.625 1.4375 0 0 Z " fill="#1F8950" transform="translate(380,437)"/>
<path d="M0 0 C-0.66 0.66 -1.32 1.32 -2 2 C-2.66 1.67 -3.32 1.34 -4 1 C-5.53668865 0.77532169 -7.07968054 0.59203195 -8.625 0.4375 C-9.44226563 0.35371094 -10.25953125 0.26992188 -11.1015625 0.18359375 C-11.72804688 0.12300781 -12.35453125 0.06242187 -13 0 C-13 -0.33 -13 -0.66 -13 -1 C-4.57142857 -2.42857143 -4.57142857 -2.42857143 0 0 Z " fill="#56A57B" transform="translate(127,400)"/>
<path d="M0 0 C3.12290635 0.48578543 5.99580359 0.9986012 9 2 C9 2.66 9 3.32 9 4 C4.545 3.01 4.545 3.01 0 2 C0 1.34 0 0.68 0 0 Z " fill="#268C56" transform="translate(505,383)"/>
<path d="M0 0 C2.31 0 4.62 0 7 0 C6.67 0.66 6.34 1.32 6 2 C5.34 1.67 4.68 1.34 4 1 C4 2.65 4 4.3 4 6 C3.34 6 2.68 6 2 6 C1.34 4.02 0.68 2.04 0 0 Z " fill="#F6F2EB" transform="translate(298,124)"/>
<path d="M0 0 C0.33 0 0.66 0 1 0 C1.08131463 1.43655854 1.13933559 2.8744483 1.1875 4.3125 C1.23970703 5.51326172 1.23970703 5.51326172 1.29296875 6.73828125 C0.93801608 9.47851584 0.10633718 10.29171079 -2 12 C-1.33333333 8 -0.66666667 4 0 0 Z " fill="#1A864C" transform="translate(133,411)"/>
<path d="M0 0 C-0.33 0.99 -0.66 1.98 -1 3 C-3.31 3 -5.62 3 -8 3 C-8 2.34 -8 1.68 -8 1 C-5.07175348 0.02391783 -3.04386724 -0.08226668 0 0 Z " fill="#278D56" transform="translate(111,360)"/>
<path d="M0 0 C1.485 0.99 1.485 0.99 3 2 C3 3.32 3 4.64 3 6 C2.34 6 1.68 6 1 6 C0.67 6.99 0.34 7.98 0 9 C0 6.03 0 3.06 0 0 Z " fill="#1B864D" transform="translate(458,268)"/>
<path d="M0 0 C0.625 1.8125 0.625 1.8125 1 4 C0.01 5.485 0.01 5.485 -1 7 C-1.66 7 -2.32 7 -3 7 C-2.25 2.25 -2.25 2.25 0 0 Z " fill="#108044" transform="translate(150,236)"/>
<path d="M0 0 C0.99 0.33 1.98 0.66 3 1 C2.34 1 1.68 1 1 1 C1.66 2.98 2.32 4.96 3 7 C2.34 7.66 1.68 8.32 1 9 C-1.125 2.25 -1.125 2.25 0 0 Z " fill="#D0B48D" transform="translate(282,152)"/>
<path d="M0 0 C2.31 0.33 4.62 0.66 7 1 C6.01 1.33 5.02 1.66 4 2 C4 2.66 4 3.32 4 4 C2.68 3.67 1.36 3.34 0 3 C0 2.01 0 1.02 0 0 Z " fill="#449C6C" transform="translate(349,144)"/>
<path d="M0 0 C1.42944945 2.35438733 2.08661261 3.48032433 1.625 6.25 C1.41875 6.8275 1.2125 7.405 1 8 C0.01 8 -0.98 8 -2 8 C-1.34 5.36 -0.68 2.72 0 0 Z " fill="#3A9765" transform="translate(216,504)"/>
<path d="M0 0 C0.99 0 1.98 0 3 0 C3.66 2.31 4.32 4.62 5 7 C4.34 6.67 3.68 6.34 3 6 C3 5.01 3 4.02 3 3 C2.34 3 1.68 3 1 3 C0.67 3.66 0.34 4.32 0 5 C0 3.35 0 1.7 0 0 Z " fill="#3D9867" transform="translate(451,244)"/>
<path d="M0 0 C-3.96 1.98 -3.96 1.98 -8 4 C-8.66 3.34 -9.32 2.68 -10 2 C-3.375 -1.125 -3.375 -1.125 0 0 Z " fill="#D2B993" transform="translate(314,206)"/>
</svg>
