<svg xmlns="http://www.w3.org/2000/svg" viewBox="0.49 0.74 55.79 56.73"><!-- Source: https://football-logos.cc --><g stroke-width="1.163" data-source="https://football-logos.cc"><path fill="#fff" d="M56.285 16.36a5.326 5.326 0 0 0-6.4-5.207C45.631 4.871 38.44.738 30.28.738c-7.343 0-13.904 3.351-18.242 8.602l-.027.004-2.374 1.266-1.158 2.353.295 2.602.662 1.159-2.482 1.867-1.477 2.387-1.323 2.145.08.625-1.692 2.491-.564 6.393-1.487 2.213.255 2.793 3.025 2.357 2.952-3.008.01-1.83.98-3.653c3.018 9.592 11.98 16.546 22.566 16.546 13.068 0 23.658-10.59 23.658-23.655 0-1.178-.088-2.333-.256-3.465a5.32 5.32 0 0 0 2.602-4.57"></path><path d="M20.046 57.464c-1.104 0-1.692-.497-2.014-1.108l.799-.695c.195.38.56.769 1.209.769.52 0 .906-.255.906-.705 0-.584-.433-.823-1.111-.823a4.5 4.5 0 0 0-.863.087v-.695l1.178-1.406h-1.82v-.998h3.835v.024l-1.692 2.095v.017c1.004.08 1.652.654 1.652 1.682 0 1.108-.87 1.756-2.079 1.756M23.528 57.424c-.403 0-.671-.276-.671-.679 0-.396.275-.664.671-.664.393 0 .672.268.672.664s-.279.679-.672.679M27.655 56.286h1.991v1.06h-3.17V51.89h1.179zM31.502 57.346h-1.178V51.89h1.178zM36.57 57.02c-.347.246-.813.444-1.572.444-1.638 0-2.736-1.115-2.736-2.83 0-1.74 1.178-2.861 2.823-2.861 1.004 0 1.578.349 2.025.926l-.786.732c-.275-.362-.624-.608-1.215-.608-.964 0-1.645.659-1.645 1.793 0 1.068.648 1.78 1.611 1.78.507 0 .806-.11 1.031-.269v-.782h-1.148v-.94h2.189v2.941h-.08zM39.493 55.338h1.236l-.608-1.662h-.016zm.027-2.964-.208-.484h1.25l2.188 5.456h-1.279l-.396-1.067h-1.927l-.397 1.067H37.52z"></path><path fill="#fc0" d="m37.167 43.037.708 1.91a21.9 21.9 0 0 0 8.498-5.691l-1.497-1.383a19.9 19.9 0 0 1-7.71 5.164"></path><path fill="#d1070f" d="M30.28 44.262c-1.867 0-3.673-.258-5.385-.738l-.554 1.96c1.89.53 3.88.816 5.94.816 2.064 0 4.062-.285 5.955-.819l-.554-1.96a20 20 0 0 1-5.402.741"></path><path fill="#00111c" d="m15.695 37.883-1.494 1.383a21.96 21.96 0 0 0 8.505 5.688l.705-1.91a19.9 19.9 0 0 1-7.716-5.161"></path><g fill="#858585"><path d="m13.082 37.96 1.599-1.262a19.8 19.8 0 0 1-3.976-8.895l-1.927.782a21.84 21.84 0 0 0 4.304 9.375M30.28 4.529c6.86 0 12.903 3.471 16.472 8.757.41-.558.924-1.031 1.518-1.39C44.31 6.21 37.73 2.49 30.28 2.49a21.83 21.83 0 0 0-15.583 6.514l1.7 1.185a19.8 19.8 0 0 1 13.882-5.66M49.933 21.467q.212 1.436.214 2.928c0 4.64-1.588 8.91-4.257 12.292l1.602 1.263a21.83 21.83 0 0 0 4.694-13.555c0-.99-.068-1.968-.195-2.925a5.2 5.2 0 0 1-2.058-.003"></path></g><path fill="#00111c" d="m12.506 16.895-.91-1.79h.554l.738-.897.256.615-.333.423.417.645-.28.416.357.386.137.756zm38.46-4.14a3.6 3.6 0 0 0-3.592 3.858l-.624.174-1.004.51-3.939.417-2.941 2.175-1.219-.03.574-.624-.507-1.081-3.193 1.1.648.212.182.608-4.11 1.71-.903-.075-1.968.655.88-1.41c-1.132.295-3.606.957-3.606.957l-2.324.366-.507-.037-1.514-.907-.457-1.605 2.035-1.393-.02-.386.789-.141 3.824.265.433.463 1.018.37.769-.094-.125-.43.588-.678-.833-1.511-1.54.248-4.695-1.098-6.507.726-.104-1.347-.6-1.08.194-.985-.816-1.289-1.283-.53-1.517.19-1.524.941-.554 1.273.198 1.742 1.296 2.277-.121.033-.806.604.252.34.594.235-1.131.661-.722-.477-1.585 1.189-1.293 2.095.702.13-2.773 3.761-.158.558-.494.587-.554 6.286-1.386 2.061.124 1.357 1.108.863L4.91 36.23l.006-1.39 2.448-7.038 1.142-.957.325.155 2.972-1.73 3.307 1.901 3.371 2.992 2.317 1.37 5.318 4.616 1.024-.584 1.199.316 1.9-.397.712-.594 2.844-2.135 4.768.752.866-.272.289-.604-.104-.722-.877-.635-3.643-1.296-1.235-.604-1.008.15-.627.588-.282.987-1.434.269-.759-.433.202-.601-.753-.846 2.186-1.615-.03-.564 3.71-3.046 2.387-1.913 2.777-.655 5.483-2.656 1.252.608 1.061-.185.595-.376a3.6 3.6 0 0 0 5.946-2.73 3.6 3.6 0 0 0-3.6-3.602"></path></g><!-- source: https://football-logos.cc --></svg>