<?xml version="1.0" encoding="UTF-8"?>
<svg version="1.1" xmlns="http://www.w3.org/2000/svg" width="1280" height="689">
<path d="M0 0 C162.03 0 324.06 0 491 0 C491.1546875 101.2275 491.1546875 101.2275 491.3125 204.5 C491.37864502 225.83205078 491.44479004 247.16410156 491.51293945 269.14257812 C491.50817871 295.13183594 491.50817871 295.13183594 491.48942566 307.2869873 C491.48078246 315.80202931 491.50771291 324.31605776 491.55863953 332.83093262 C491.61722657 342.64701067 491.63098738 352.46192095 491.58896567 362.27810332 C491.56887895 367.30191966 491.56919125 372.32341928 491.62711203 377.34699345 C491.67910305 381.88963075 491.67135824 386.42807938 491.61576843 390.97063828 C491.60625307 392.61309169 491.61876054 394.25585002 491.65543211 395.89792156 C491.75833824 400.82677824 491.64628966 405.28780867 490 410 C486.051885 413.78811101 481.99796952 415.75615061 477 418 C474.82791809 419.2304845 472.66595045 420.4791841 470.51953125 421.75390625 C468.2850128 423.02547573 466.0492953 424.29493998 463.8125 425.5625 C461.3392156 426.96894929 458.86689155 428.3770833 456.39453125 429.78515625 C455.77401886 430.13828888 455.15350647 430.49142151 454.51419067 430.85525513 C448.32790815 434.37775078 442.16279544 437.93659461 436 441.5 C426.42636073 447.03258566 416.8333055 452.53030638 407.22949219 458.01025391 C398.80632672 462.81717909 390.39715036 467.6477315 382 472.5 C373.05445617 477.66831002 364.0964512 482.81431362 355.125 487.9375 C354.54461975 488.26894012 353.9642395 488.60038025 353.36627197 488.94186401 C348.6544859 491.63234108 343.94188318 494.32138652 339.22924805 497.01037598 C335.11078413 499.36041659 330.99272221 501.71116003 326.875 504.0625 C326.29545563 504.39335602 325.71591125 504.72421204 325.11880493 505.06509399 C316.66733348 509.89082664 308.23583357 514.75033289 299.8125 519.625 C290.11995351 525.23166096 280.38312913 530.75379659 270.59399414 536.19018555 C266.19469257 538.63518677 261.80986147 541.08740076 257.5 543.6875 C256.85192383 544.07494385 256.20384766 544.4623877 255.53613281 544.86157227 C253.90757724 545.84257888 252.28914351 546.84033897 250.671875 547.83984375 C247.4538547 549.23714204 246.32944706 548.90760658 243 548 C240.79370117 547.00708008 240.79370117 547.00708008 238.54296875 545.76953125 C237.26425903 545.07077881 237.26425903 545.07077881 235.9597168 544.35791016 C235.04488525 543.8479248 234.13005371 543.33793945 233.1875 542.8125 C232.22046143 542.27931152 231.25342285 541.74612305 230.25708008 541.19677734 C222.16357027 536.70811486 214.16938648 532.05444669 206.19189453 527.36352539 C198.86731724 523.06339257 191.48348872 518.88127207 184.0625 514.75 C176.56105607 510.57186487 169.10302533 506.34164458 161.72070312 501.95678711 C155.04387519 498.00094093 148.30435148 494.15601091 141.5625 490.3125 C129.09123072 483.20094034 116.64821401 476.04163294 104.21777344 468.85888672 C98.81329359 465.73675397 93.40655282 462.61854119 88 459.5 C81.52233115 455.76363085 75.04510017 452.02651653 68.5703125 448.28515625 C55.15471016 440.53525298 41.71763406 432.82414417 28.26171875 425.14453125 C18.83906092 419.76667221 9.41985185 414.38277248 0 409 C0 274.03 0 139.06 0 0 Z " fill="#F4D67E" transform="translate(0,140)"/>
<path d="M0 0 C162.03 0 324.06 0 491 0 C491.1546875 101.2275 491.1546875 101.2275 491.3125 204.5 C491.37864502 225.83205078 491.44479004 247.16410156 491.51293945 269.14257812 C491.50817871 295.13183594 491.50817871 295.13183594 491.48942566 307.2869873 C491.48078246 315.80202931 491.50771291 324.31605776 491.55863953 332.83093262 C491.61722657 342.64701067 491.63098738 352.46192095 491.58896567 362.27810332 C491.56887895 367.30191966 491.56919125 372.32341928 491.62711203 377.34699345 C491.67910305 381.88963075 491.67135824 386.42807938 491.61576843 390.97063828 C491.60625307 392.61309169 491.61876054 394.25585002 491.65543211 395.89792156 C491.75833824 400.82677824 491.64628966 405.28780867 490 410 C486.051885 413.78811101 481.99796952 415.75615061 477 418 C474.82791809 419.2304845 472.66595045 420.4791841 470.51953125 421.75390625 C468.2850128 423.02547573 466.0492953 424.29493998 463.8125 425.5625 C461.3392156 426.96894929 458.86689155 428.3770833 456.39453125 429.78515625 C455.77401886 430.13828888 455.15350647 430.49142151 454.51419067 430.85525513 C448.32790815 434.37775078 442.16279544 437.93659461 436 441.5 C426.42636073 447.03258566 416.8333055 452.53030638 407.22949219 458.01025391 C398.80632672 462.81717909 390.39715036 467.6477315 382 472.5 C373.05445617 477.66831002 364.0964512 482.81431362 355.125 487.9375 C354.54461975 488.26894012 353.9642395 488.60038025 353.36627197 488.94186401 C348.6544859 491.63234108 343.94188318 494.32138652 339.22924805 497.01037598 C335.11078413 499.36041659 330.99272221 501.71116003 326.875 504.0625 C326.29545563 504.39335602 325.71591125 504.72421204 325.11880493 505.06509399 C316.66733348 509.89082664 308.23583357 514.75033289 299.8125 519.625 C290.11995351 525.23166096 280.38312913 530.75379659 270.59399414 536.19018555 C266.19469257 538.63518677 261.80986147 541.08740076 257.5 543.6875 C256.85192383 544.07494385 256.20384766 544.4623877 255.53613281 544.86157227 C253.90757724 545.84257888 252.28914351 546.84033897 250.671875 547.83984375 C247.4538547 549.23714204 246.32944706 548.90760658 243 548 C240.79370117 547.00708008 240.79370117 547.00708008 238.54296875 545.76953125 C237.26425903 545.07077881 237.26425903 545.07077881 235.9597168 544.35791016 C235.04488525 543.8479248 234.13005371 543.33793945 233.1875 542.8125 C232.22046143 542.27931152 231.25342285 541.74612305 230.25708008 541.19677734 C222.16357027 536.70811486 214.16938648 532.05444669 206.19189453 527.36352539 C198.86731724 523.06339257 191.48348872 518.88127207 184.0625 514.75 C176.56105607 510.57186487 169.10302533 506.34164458 161.72070312 501.95678711 C155.04387519 498.00094093 148.30435148 494.15601091 141.5625 490.3125 C129.09123072 483.20094034 116.64821401 476.04163294 104.21777344 468.85888672 C98.81329359 465.73675397 93.40655282 462.61854119 88 459.5 C81.52233115 455.76363085 75.04510017 452.02651653 68.5703125 448.28515625 C55.15471016 440.53525298 41.71763406 432.82414417 28.26171875 425.14453125 C18.83906092 419.76667221 9.41985185 414.38277248 0 409 C0 274.03 0 139.06 0 0 Z M37 37 C36.649375 94.37875 36.29875 151.7575 35.9375 210.875 C35.78273193 229.00421387 35.62796387 247.13342773 35.46850586 265.81201172 C35.4116567 282.03807372 35.4116567 282.03807372 35.37745667 298.26419067 C35.36159253 305.50220409 35.29920143 312.73799079 35.20521545 319.97537231 C35.09697431 328.32281614 35.04779152 336.66812248 35.07143584 345.01627333 C35.0816785 349.28766587 35.0654962 353.55428323 34.97334278 357.82479835 C33.89002439 373.79796549 33.89002439 373.79796549 38.65146756 388.29551935 C42.58398486 391.83946369 46.87781134 393.72428119 51.88874638 395.28121591 C55.15342243 396.39268693 57.86603308 398.11203343 60.80078125 399.9140625 C62.97072168 401.15215086 65.14130681 402.38910988 67.3125 403.625 C68.51113689 404.30847243 69.70970262 404.99206968 70.90820312 405.67578125 C73.37944998 407.08543528 75.850991 408.49457137 78.32275391 409.90332031 C83.63800078 412.93323389 88.94945176 415.96978764 94.26107788 419.00604248 C97.17388561 420.67098602 100.08695652 422.33546898 103 424 C104.16666792 424.66666448 105.33333459 425.33333114 106.5 426 C107.0775 426.33 107.655 426.66 108.25 427 C119.33333333 433.33333333 130.41666667 439.66666667 141.5 446 C142.07748489 446.32998993 142.65496979 446.65997986 143.24995422 446.99996948 C144.41677849 447.66672911 145.58359774 448.3334975 146.75041199 449.00027466 C149.66462646 450.66559088 152.57892742 452.33075537 155.4934082 453.99560547 C160.77274076 457.01153698 166.05140405 460.02861157 171.32688904 463.05126953 C184.18724484 470.41965177 197.07010567 477.74374645 210.01318359 484.96630859 C217.85796801 489.34758968 225.66688674 493.78900218 233.45483398 498.27050781 C234.66248413 498.96418457 234.66248413 498.96418457 235.89453125 499.671875 C236.59425049 500.0750293 237.29396973 500.47818359 238.01489258 500.89355469 C238.99752075 501.44124512 238.99752075 501.44124512 240 502 C240.64155029 502.39864258 241.28310059 502.79728516 241.9440918 503.20800781 C244.71034264 504.27364345 246.18486594 503.85699038 249 503 C251.43864146 501.92807867 251.43864146 501.92807867 253.89453125 500.55078125 C254.83723877 500.0398291 255.77994629 499.52887695 256.7512207 499.00244141 C257.76144287 498.44476074 258.77166504 497.88708008 259.8125 497.3125 C260.8749292 496.73161621 261.9373584 496.15073242 263.03198242 495.55224609 C271.36666024 490.96740526 279.58884262 486.20220752 287.78442383 481.37426758 C295.2916517 476.96229011 302.87535663 472.70536974 310.5 468.5 C320.10825829 463.1981134 329.62179576 457.76038756 339.08203125 452.19921875 C346.17161148 448.04099732 353.31806095 443.9963387 360.5 440 C368.7220259 435.424336 376.8858143 430.76429252 385 426 C393.114193 421.23570319 401.27812586 416.57594628 409.5 412 C418.06971903 407.22797213 426.58979964 402.37990855 435.0625 397.4375 C436.04347656 396.86580078 437.02445312 396.29410156 438.03515625 395.70507812 C440.69677522 394.14692202 443.35613546 392.58812584 446 391 C446.65382109 390.7472027 447.30764218 390.4944054 447.98127604 390.23394758 C450.50278922 389.08448299 452.11580216 388.04846202 454 386 C455.2249482 381.4272396 455.04596868 376.84804815 454.96203613 372.14933777 C454.96553629 370.7089415 454.97255308 369.26855019 454.98278809 367.82818604 C455.00074944 363.86133222 454.96860826 359.89620277 454.92858183 355.92956804 C454.89368595 351.58990223 454.90533615 347.25031783 454.91112518 342.91055012 C454.91538137 334.48352975 454.87841629 326.05719044 454.82711455 317.63034515 C454.76955716 307.88455871 454.76315908 298.13918245 454.75683594 288.39318848 C454.7148179 262.65785089 454.60312912 236.92266526 454.5 211.1875 C454.335 153.705625 454.17 96.22375 454 37 C316.39 37 178.78 37 37 37 Z " fill="#DAA813" transform="translate(0,140)"/>
<path d="M0 0 C162.36 0 324.72 0 492 0 C492 40.26 492 80.52 492 122 C329.64 122 167.28 122 0 122 C0 81.74 0 41.48 0 0 Z " fill="#0BB9D8" transform="translate(0,0)"/>
<path d="M0 0 C11.88 0 23.76 0 36 0 C36 74.58 36 149.16 36 226 C50.39358472 217.93959255 64.70055413 209.86689141 78.921875 201.52734375 C86.31818725 197.21282827 93.79214557 193.03876623 101.27734375 188.88085938 C103.15694124 187.83566264 105.02938302 186.77743339 106.89245987 185.70306492 C110 184 110 184 113.13998032 182.63396358 C119.45207112 179.7217649 119.45207112 179.7217649 123.10022736 174.11441231 C123.5220549 170.44869997 123.55049228 166.95096531 123.45410156 163.26196289 C123.46058644 161.87175203 123.47234967 160.48155733 123.4889679 159.09143066 C123.51904758 155.33219531 123.47562708 151.57702894 123.41865635 147.8182404 C123.37165217 143.88506372 123.39270374 139.95225473 123.40643311 136.01890564 C123.42211916 128.57757283 123.37689936 121.13791552 123.30961108 113.69692081 C123.23596014 105.2228803 123.23048502 96.74922058 123.23064089 88.27491009 C123.22943893 70.84925932 123.14293259 53.42505282 123 36 C121.7615332 36.0623584 120.52306641 36.1247168 119.24707031 36.18896484 C117.60746555 36.23939618 115.96781352 36.2883071 114.328125 36.3359375 C113.10633545 36.40349243 113.10633545 36.40349243 111.85986328 36.47241211 C105.89146253 36.60242287 105.89146253 36.60242287 103.29076767 34.84495354 C100.9949384 32.51836941 99.10558095 29.91959889 97.515625 27.0703125 C94.61456765 22.20050755 91.04963551 17.90690936 87.5 13.5 C86.29487077 11.99533181 85.09652474 10.48519614 83.90625 8.96875 C83.13764648 8.00098633 83.13764648 8.00098633 82.35351562 7.01367188 C81 5 81 5 79 0 C126.85 0 174.7 0 224 0 C224 39.27 224 78.54 224 119 C250.37598266 107.85853358 250.37598266 107.85853358 253.04345703 92.75024414 C253.35230593 89.40625499 253.35230593 89.40625499 253.09817505 86.44410706 C253.04405582 85.35826387 252.9899366 84.27242069 252.9341774 83.15367317 C252.87597698 82.04206259 252.81777657 80.930452 252.7578125 79.78515625 C252.73170498 77.47498962 252.71716008 75.16466626 252.71359253 72.85435486 C252.67361009 66.81622265 252.47839695 60.79308395 252.24884033 54.75958252 C252.0056249 47.49872082 251.95843749 40.23417634 251.87780762 32.97003937 C251.73403862 21.97004721 251.34428954 11.00372589 251 0 C282.68 0 314.36 0 347 0 C347 11.88 347 23.76 347 36 C327.2 36 307.4 36 287 36 C287.33 51.18 287.66 66.36 288 82 C291.795 79.875625 295.59 77.75125 299.5 75.5625 C300.73492187 74.87148193 301.96984375 74.18046387 303.2421875 73.46850586 C308.2291622 70.67693484 313.21460244 67.88299356 318.1875 65.06640625 C318.92806641 64.64738037 319.66863281 64.22835449 320.43164062 63.79663086 C321.78552776 63.0297158 323.13843339 62.26106478 324.49023438 61.49047852 C328.88950006 59 328.88950006 59 330 59 C330.33101493 65.26070316 330.55778509 71.5191413 330.71411133 77.78662109 C330.77929148 79.915408 330.86787133 82.04361705 330.98071289 84.17041016 C331.88989042 101.75332757 331.88989042 101.75332757 327.50537109 106.96557617 C324.09136658 109.08628814 320.74245932 110.54450266 317 112 C314.79451516 113.21397796 312.60627236 114.45987117 310.4375 115.73828125 C308.29326222 116.93255672 306.14743128 118.12397637 304 119.3125 C301.83296583 120.51626573 299.66628559 121.72066889 297.5 122.92578125 C296.5615625 123.44567627 295.623125 123.96557129 294.65625 124.5012207 C293.7796875 124.99581787 292.903125 125.49041504 292 126 C291.1333991 126.36656865 290.26679819 126.7331373 289.37393665 127.11081409 C286.64144839 128.86160924 286.64144839 128.86160924 286.36914349 132.39891338 C286.34071885 133.8409161 286.34013338 135.2836185 286.36076355 136.72575378 C286.35240787 137.52052622 286.3440522 138.31529865 286.33544332 139.13415509 C286.31343713 141.80626824 286.32714301 144.47701705 286.34057617 147.14916992 C286.33212725 149.06092883 286.32148513 150.97267913 286.30880737 152.88441467 C286.28057943 158.08253763 286.28314706 163.28024911 286.29110122 168.47842574 C286.29421908 173.90774275 286.26921308 179.33692704 286.24714661 184.76618958 C286.20964146 195.05091011 286.19755479 205.3354984 286.1945222 215.62028056 C286.18983839 227.32756739 286.15693683 239.03472116 286.12162435 250.74194944 C286.04960812 274.82795016 286.01316003 298.91390033 286 323 C282.12553786 325.10576903 278.24769915 327.20514343 274.36669922 329.29882812 C273.04871085 330.01097482 271.73163729 330.72481745 270.41552734 331.44042969 C268.51641845 332.47264785 266.61403129 333.49858887 264.7109375 334.5234375 C263.56931152 335.14138184 262.42768555 335.75932617 261.25146484 336.39599609 C258.20784555 337.89746619 255.24320504 339.0162994 252 340 C250.49874052 336.99748104 250.86653018 333.91459662 250.87974548 330.62228394 C250.87846385 329.4681589 250.87846385 329.4681589 250.87715632 328.2907182 C250.87550223 325.69883441 250.88102173 323.10701459 250.88647461 320.51513672 C250.88675652 318.66264853 250.88659867 316.81016024 250.8860321 314.95767212 C250.88574429 309.91661929 250.89163844 304.87559008 250.89860606 299.83454275 C250.90484226 294.57077751 250.90544361 289.30701177 250.90663147 284.04324341 C250.909744 274.07016838 250.91795633 264.09710426 250.92798096 254.12403405 C250.93914453 242.77233087 250.94465316 231.42062719 250.94967639 220.0689199 C250.960139 196.7126072 250.97773693 173.35630421 251 150 C247.46554751 151.92225556 243.93203416 153.84623122 240.39868164 155.77050781 C238.90490871 156.58287399 238.90490871 156.58287399 237.38095856 157.41165161 C230.65811455 161.07436743 224.01474475 164.83153501 217.4375 168.75 C207.26151475 174.75115676 196.95940134 180.49377735 186.58569336 186.14355469 C184.3400176 187.37082585 182.11582287 188.63843964 179.91786194 189.94924927 C177.19270473 191.49380399 174.67464016 192.41811656 171.64807129 193.20413208 C166.22318845 194.92923837 162.14165373 197.12015455 159 202 C155.81782213 213.57856757 156.83813177 226.25802198 157.07437396 238.14960146 C157.15279283 242.99954315 157.13452327 247.84912318 157.12672424 252.69955444 C157.12655638 261.87321745 157.21272076 271.04393469 157.33029372 280.21676195 C157.45997067 290.66409345 157.49282253 301.11103755 157.51774108 311.55906224 C157.57113381 333.04067529 157.74547279 354.51989 158 376 C153.86271988 375.26085878 150.88801097 374.03033718 147.21875 371.9453125 C145.58486328 371.02298828 145.58486328 371.02298828 143.91796875 370.08203125 C142.22607422 369.11330078 142.22607422 369.11330078 140.5 368.125 C139.37207031 367.48691406 138.24414062 366.84882812 137.08203125 366.19140625 C134.04825807 364.47166974 131.01868925 362.74607341 128 361 C127.13078069 360.58415996 126.26156137 360.16831991 125.36600208 359.73987865 C123 358 123 358 122.36914349 355.53812885 C122.36637811 354.55273215 122.36361273 353.56733545 122.36076355 352.55207825 C122.33783234 350.85464729 122.33783234 350.85464729 122.31443787 349.1229248 C122.32737633 347.2596051 122.32737633 347.2596051 122.34057617 345.35864258 C122.33009247 344.05122604 122.31960876 342.74380951 122.30880737 341.39677429 C122.28061139 337.81011631 122.28314105 334.22405533 122.29110122 330.6373198 C122.29422187 326.88960803 122.26920499 323.14208788 122.24714661 319.39445496 C122.20966099 312.29716088 122.19755597 305.20005843 122.1945222 298.10267514 C122.18983624 290.02286027 122.15692789 281.94323794 122.12162435 273.86350787 C122.0496335 257.24235011 122.01316413 240.62131062 122 224 C118.08349408 226.18415769 114.16857781 228.37115028 110.25390625 230.55859375 C109.16259399 231.1671521 108.07128174 231.77571045 106.94689941 232.40270996 C99.55700997 236.53432376 92.22999498 240.76159173 84.9375 245.0625 C75.98664223 250.31790917 66.93607705 255.34145739 57.78881836 260.24633789 C51.29962466 263.73244366 44.8802943 267.31868782 38.5 271 C30.69798471 275.49282236 22.84267598 279.878609 14.9375 284.1875 C13.90753906 284.75275391 12.87757812 285.31800781 11.81640625 285.90039062 C10.85476562 286.42181641 9.893125 286.94324219 8.90234375 287.48046875 C8.05148193 287.94348389 7.20062012 288.40649902 6.32397461 288.88354492 C4 290 4 290 0 291 C0 194.97 0 98.94 0 0 Z " fill="#034B79" transform="translate(72,215)"/>
<path d="M0 0 C47.19 0 94.38 0 143 0 C143 10.89 143 21.78 143 33 C95.81 33 48.62 33 0 33 C0 22.11 0 11.22 0 0 Z " fill="#FEFEFE" transform="translate(13,45)"/>
<path d="M0 0 C46.86 0 93.72 0 142 0 C142 10.89 142 21.78 142 33 C95.14 33 48.28 33 0 33 C0 22.11 0 11.22 0 0 Z " fill="#FFFFFF" transform="translate(336,45)"/>
<path d="M0 0 C3.3 0 6.6 0 10 0 C10 134.97 10 269.94 10 409 C6.7 409 3.4 409 0 409 C0 274.03 0 139.06 0 0 Z " fill="#D9A812" transform="translate(574,140)"/>
<path d="M0 0 C4.29 0 8.58 0 13 0 C16.77328157 8.86780955 20.20530641 17.82393848 23.484375 26.8828125 C23.99022136 28.27344692 24.49635068 29.66397844 25.00274658 31.05441284 C26.31985442 34.6726854 27.63386317 38.29207453 28.94696045 41.9118042 C31.06132538 47.73904345 33.17994787 53.56473425 35.29962921 59.39004135 C36.03702392 61.41821749 36.77273355 63.44699896 37.50823975 65.4758606 C37.95250305 66.69828461 38.39676636 67.92070862 38.85449219 69.18017578 C39.24578308 70.25872833 39.63707397 71.33728088 40.04022217 72.44851685 C40.9280258 74.94244297 40.9280258 74.94244297 42 77 C42.33 51.59 42.66 26.18 43 0 C46.96 0 50.92 0 55 0 C55.02312005 14.32494484 55.04091336 28.64988527 55.05181217 42.97484493 C55.05704174 49.6257353 55.06414072 56.27660786 55.07543945 62.92749023 C55.08626571 69.34002877 55.09227628 75.75255504 55.09487724 82.16510201 C55.09673197 84.61764278 55.10035347 87.07018285 55.10573006 89.52271843 C55.11293702 92.94476677 55.11399109 96.36676371 55.11352539 99.78881836 C55.11712067 100.81380432 55.12071594 101.83879028 55.12442017 102.89483643 C55.1230455 103.82176804 55.12167084 104.74869965 55.12025452 105.70372009 C55.12117631 106.51397613 55.1220981 107.32423216 55.12304783 108.1590414 C55 110 55 110 54 111 C51.8203125 111.203125 51.8203125 111.203125 49.125 111.25 C48.24070312 111.27578125 47.35640625 111.3015625 46.4453125 111.328125 C43.36238068 110.91444086 42.91011165 110.43753956 41 108 C39.86480214 105.40316612 38.84703269 102.84667748 37.8828125 100.1875 C37.58898178 99.39778809 37.29515106 98.60807617 36.99241638 97.79443359 C36.02883807 95.1990929 35.07691621 92.59963819 34.125 90 C33.46162903 88.20674514 32.79747724 86.41377895 32.13256836 84.62109375 C30.76392374 80.92735458 29.39986383 77.23197167 28.03955078 73.53515625 C26.07805432 68.20670643 24.10207141 62.88373364 22.12109375 57.5625 C21.51480145 55.93359738 20.90851868 54.30469121 20.30224609 52.67578125 C20.01275085 51.89799316 19.72325562 51.12020508 19.42498779 50.31884766 C17.27843383 44.54771481 15.13946393 38.77376413 13 33 C12.9845388 33.98240913 12.9845388 33.98240913 12.96876526 34.98466492 C12.85905181 41.91391774 12.74462746 48.84308229 12.62768555 55.7722168 C12.5848548 58.34478883 12.54315357 60.91737995 12.50268555 63.48999023 C12.30381146 76.08780444 12.08932536 88.68181432 11.52734375 101.26953125 C11.49024796 102.14985519 11.45315216 103.03017914 11.41493225 103.93717957 C11.12234855 109.87765145 11.12234855 109.87765145 10 111 C2.47761194 111.23880597 2.47761194 111.23880597 0 110 C0 73.7 0 37.4 0 0 Z " fill="#004978" transform="translate(1101,290)"/>
<path d="M0 0 C10.23 0 20.46 0 31 0 C31 34.65 31 69.3 31 105 C4 120 4 120 0 121 C0 81.07 0 41.14 0 0 Z " fill="#F1D57E" transform="translate(230,250)"/>
<path d="M0 0 C34.19186047 0 34.19186047 0 40.55859375 5.015625 C41.48865234 6.12164062 41.48865234 6.12164062 42.4375 7.25 C43.07558594 7.97703125 43.71367188 8.7040625 44.37109375 9.453125 C48.44218914 15.81848278 48.44800326 22.80242413 48.5 30.125 C48.511521 31.14819336 48.52304199 32.17138672 48.53491211 33.22558594 C48.43729609 40.96856192 46.82292754 45.35063337 42.9597168 52.01489258 C41.62212834 54.97566923 41.62212834 54.97566923 43.25683594 57.48657227 C43.93004883 58.31729248 44.60326172 59.1480127 45.296875 60.00390625 C49.83391581 66.54471012 49.96006564 71.90423661 49.6875 79.6875 C49.68943359 80.85861328 49.69136719 82.02972656 49.69335938 83.23632812 C49.56103059 91.32663612 48.41720448 97.10044657 43.03515625 103.2421875 C42.38417969 103.78101563 41.73320313 104.31984375 41.0625 104.875 C40.41410156 105.42929687 39.76570312 105.98359375 39.09765625 106.5546875 C28.43112403 113.90406724 11.38077617 111 0 111 C0 74.37 0 37.74 0 0 Z M12 12 C12 24.21 12 36.42 12 49 C25.828093 50.28623939 25.828093 50.28623939 32 46 C37.25633004 39.13756911 37.45425677 33.41570446 37 25 C35.86383067 18.69942462 34.44432389 17.33318867 30 12 C24.06 12 18.12 12 12 12 Z M12 61 C12 73.54 12 86.08 12 99 C24.94134429 99.51277557 24.94134429 99.51277557 35.83544922 93.76171875 C38.41431978 89.86043364 37.72249886 84.99681014 37.5625 80.5 C37.56056641 79.46746094 37.55863281 78.43492187 37.55664062 77.37109375 C37.50607879 70.13592131 37.50607879 70.13592131 34 64 C26.36669763 59.82328738 21.52667042 61 12 61 Z " fill="#004978" transform="translate(963,437)"/>
<path d="M0 0 C35.26597938 0 35.26597938 0 42.2421875 5.89453125 C42.78101563 6.52746094 43.31984375 7.16039062 43.875 7.8125 C44.42929687 8.43769531 44.98359375 9.06289063 45.5546875 9.70703125 C49.42468441 15.84672905 49.30972883 22.43429459 49.25 29.4375 C49.26160156 30.79198242 49.26160156 30.79198242 49.2734375 32.17382812 C49.2523775 39.44479427 48.84389289 46.40777133 44.125 52.3125 C43.63257813 52.94800781 43.14015625 53.58351563 42.6328125 54.23828125 C41 56 41 56 38.7421875 57.16796875 C36.7946081 58.80198896 36.7946081 58.80198896 36.96951294 60.84855652 C37.64586942 66.2266814 38.72839758 71.30868867 40.25 76.5078125 C40.46817383 77.27753387 40.68634766 78.04725525 40.91113281 78.84030151 C41.60068029 81.27051861 42.29949922 83.6979196 43 86.125 C43.69956378 88.55946263 44.39691839 90.9944833 45.08886719 93.43112183 C45.51716559 94.93841035 45.9498346 96.44446659 46.38769531 97.94900513 C47.62549617 102.29390644 48.45978484 106.51313143 49 111 C44.71 111 40.42 111 36 111 C32.53234822 99.14901424 29.23238166 87.26341476 26.125 75.3125 C25.8148999 74.12487061 25.5047998 72.93724121 25.18530273 71.71362305 C24.75713257 70.05520386 24.75713257 70.05520386 24.3203125 68.36328125 C24.06523926 67.37626221 23.81016602 66.38924316 23.54736328 65.37231445 C23 63 23 63 23 61 C19.37 61 15.74 61 12 61 C12.00523682 62.47911865 12.01047363 63.9582373 12.01586914 65.48217773 C12.03391238 70.9481547 12.04542952 76.41412901 12.05493164 81.88012695 C12.05997341 84.24992312 12.06680665 86.61971615 12.07543945 88.98950195 C12.0875119 92.38754039 12.09322971 95.78553785 12.09765625 99.18359375 C12.10281754 100.25024765 12.10797882 101.31690155 12.11329651 102.4158783 C12.11337204 103.39681961 12.11344757 104.37776093 12.11352539 105.38842773 C12.115746 106.25668686 12.11796661 107.12494598 12.12025452 108.01951599 C12 110 12 110 11 111 C7.37 111 3.74 111 0 111 C0 74.37 0 37.74 0 0 Z M12 11 C12 23.54 12 36.08 12 49 C25.88196601 50.11803399 25.88196601 50.11803399 33 46 C38.01233626 40.03938391 38.18656224 34.49994782 37.8125 27 C37.28751092 21.62895789 36.26889597 18.29626328 33 14 C27.44127608 9.78303703 18.31809975 11 12 11 Z " fill="#004978" transform="translate(695,290)"/>
<path d="M0 0 C4.74489302 4.32435903 9.66649641 9.18587817 10.24723816 15.82754517 C10.24581314 16.91908905 10.24438812 18.01063293 10.24291992 19.13525391 C10.24753487 20.99967636 10.24753487 20.99967636 10.25224304 22.90176392 C10.24533399 24.26003193 10.2380662 25.61829816 10.23046875 26.9765625 C10.22927427 28.38503985 10.22882435 29.79351801 10.2290802 31.20199585 C10.22751527 34.16270913 10.21923806 37.12330155 10.20581055 40.08398438 C10.18903638 43.8246237 10.1850945 47.56512913 10.18560505 51.30580139 C10.18440707 96.65159856 10.18440707 96.65159856 5.58203125 102.4609375 C-0.67033413 108.54348555 -6.44375021 111.8306908 -15.3125 112.4375 C-22.1926861 112.27284597 -27.86128433 108.86568814 -32.9375 104.4375 C-41.43863015 94.39070982 -40.1552239 82.48325264 -40.1328125 69.81640625 C-40.13376923 68.59904282 -40.13472595 67.38167938 -40.13571167 66.12742615 C-40.13638777 63.57022042 -40.13457356 61.01301291 -40.13037109 58.45581055 C-40.12501948 54.5766203 -40.13033326 50.69754606 -40.13671875 46.81835938 C-40.13605778 44.31770808 -40.13477622 41.81705686 -40.1328125 39.31640625 C-40.13483673 38.17434219 -40.13686096 37.03227814 -40.13894653 35.85560608 C-40.06871708 11.31512292 -40.06871708 11.31512292 -35 5 C-24.95766231 -4.62231596 -12.33784736 -7.57551865 0 0 Z M-25.1424408 12.64907837 C-27.64719251 15.819085 -27.56977454 18.55174775 -27.53344727 22.42724609 C-27.54206284 23.16921738 -27.55067841 23.91118866 -27.55955505 24.67564392 C-27.58223336 27.12526471 -27.5754722 29.57374291 -27.56640625 32.0234375 C-27.57164191 33.72970927 -27.57791818 35.43597813 -27.58518982 37.14224243 C-27.59559808 40.7183392 -27.59102795 44.29403819 -27.57641602 47.87011719 C-27.55924739 52.44581106 -27.5826965 57.02024696 -27.61790562 61.5958004 C-27.63990423 65.12010978 -27.63843192 68.64411948 -27.6301403 72.1684761 C-27.62932174 73.85492963 -27.6361671 75.54140537 -27.65091133 77.22779465 C-27.66839932 79.59062858 -27.65378186 81.95121972 -27.63110352 84.31396484 C-27.64279572 85.00611588 -27.65448792 85.69826691 -27.66653442 86.41139221 C-27.55849104 91.96434048 -25.77544171 94.22387379 -22 98 C-18.91153669 99.86933306 -17.19249418 100.00349989 -13.5625 99.9375 C-9.09533368 98.76192992 -7.28148461 97.20335403 -4 94 C1.24493015 83.5101397 -1.81393217 64.71656809 -1.81469727 53.34643555 C-1.81249436 49.67810737 -1.79423241 46.01007277 -1.77539062 42.34179688 C-1.77245864 39.98177185 -1.77047254 37.62174541 -1.76953125 35.26171875 C-1.76234573 34.17920334 -1.75516022 33.09668793 -1.74775696 31.98136902 C-1.76679828 25.59461051 -1.89773921 19.09748825 -4 13 C-10.92150683 6.40042372 -17.94694983 7.11056896 -25.1424408 12.64907837 Z " fill="#004978" transform="translate(1072,438)"/>
<path d="M0 0 C2.03308053 1.21348251 3.5801806 2.45030848 5.24609375 4.12890625 C5.81585937 4.67160156 6.385625 5.21429688 6.97265625 5.7734375 C12.52929691 11.60659345 13.49527825 17.85846214 13.50488281 25.80493164 C13.50838745 26.53758743 13.51189209 27.27024323 13.51550293 28.02510071 C13.52424239 30.42568687 13.51849949 32.82597381 13.51171875 35.2265625 C13.5130675 36.90612341 13.51500977 38.58568395 13.51751709 40.26524353 C13.52045768 43.77623226 13.51620453 47.28711888 13.50683594 50.7980957 C13.49543321 55.28924453 13.50201279 59.78015449 13.51398087 64.27129459 C13.52122076 67.73634123 13.51890191 71.20133157 13.51372528 74.66637993 C13.51239513 76.32211778 13.51401418 77.97786081 13.51868439 79.63359261 C13.52378571 81.94995725 13.51598951 84.26593912 13.50488281 86.58227539 C13.50329163 87.89797012 13.50170044 89.21366486 13.50006104 90.56922913 C13.00988469 97.43967905 10.54873253 102.98353598 5.5234375 107.76953125 C-0.70833031 112.87388182 -6.70137401 114.44150532 -14.69140625 114.12890625 C-21.8152042 113.17462802 -28.22858864 109.47915267 -32.75390625 103.87890625 C-37.85404181 95.27815088 -37.03777774 84.71461341 -36.984375 75.06640625 C-36.98317938 73.62491904 -36.98273084 72.18343104 -36.98298645 70.74194336 C-36.98143191 67.73644047 -36.97322273 64.73105843 -36.9597168 61.72558594 C-36.94272878 57.89972188 -36.93890322 54.07399002 -36.93966198 50.24809265 C-36.93938826 47.27615123 -36.9338748 44.3042379 -36.92666054 41.33230591 C-36.92350966 39.92270113 -36.92151498 38.51309321 -36.92076683 37.10348511 C-36.89319882 12.31968411 -36.89319882 12.31968411 -28.12890625 3.4921875 C-21.1671125 -2.58197755 -8.68795572 -2.74810514 0 0 Z M-19.75390625 13.12890625 C-23.35723127 16.88343707 -24.28836316 19.33503688 -24.49609375 24.50390625 C-24.52460419 25.14328125 -24.55311462 25.78265625 -24.58248901 26.44140625 C-24.66862666 28.67074378 -24.71626296 30.8982269 -24.75390625 33.12890625 C-24.76844849 33.9787207 -24.78299072 34.82853516 -24.79797363 35.70410156 C-24.88113135 41.49959465 -24.89644597 47.2938336 -24.88427734 53.08984375 C-24.87891537 56.12374873 -24.88425538 59.15750572 -24.890625 62.19140625 C-24.89419748 67.83822743 -24.85052199 73.48290719 -24.75390625 79.12890625 C-24.74065308 79.91426758 -24.7273999 80.69962891 -24.71374512 81.50878906 C-24.66623457 83.59238427 -24.58893284 85.67189691 -24.49609375 87.75390625 C-24.45081543 88.88054687 -24.40553711 90.0071875 -24.35888672 91.16796875 C-23.61845765 94.79182821 -22.31921396 96.49936457 -19.75390625 99.12890625 C-16.21442697 101.09528363 -13.75124665 102.12890625 -9.69140625 102.12890625 C-5.19448229 100.59803852 -1.80971517 98.17157388 0.40080261 93.89489746 C1.42903527 90.5302786 1.50762244 87.64273153 1.52075195 84.12304688 C1.52586288 83.4378447 1.53097382 82.75264252 1.53623962 82.04667664 C1.55008435 79.79274647 1.54918304 77.53912376 1.546875 75.28515625 C1.55076422 73.71244189 1.55509935 72.13972857 1.55986023 70.5670166 C1.56731101 67.27527456 1.56703908 63.98363979 1.56176758 60.69189453 C1.55596864 56.47851041 1.57291941 52.26556526 1.59611225 48.05225372 C1.61085832 44.80598392 1.61172022 41.5598197 1.60860252 38.31352234 C1.60911511 36.76021962 1.61434107 35.20691089 1.62441444 33.65364075 C1.63678152 31.48039347 1.6299869 29.30799971 1.6184082 27.13476562 C1.61903763 25.89964233 1.61966705 24.66451904 1.62031555 23.39196777 C1.08167508 18.69524248 -0.71411108 16.16870142 -4.00390625 12.87890625 C-9.67872521 9.26765782 -14.21608065 9.43702252 -19.75390625 13.12890625 Z " fill="#004978" transform="translate(796.75390625,288.87109375)"/>
<path d="M0 0 C5.38995465 3.80301679 10.1710598 7.99852632 11.55335999 14.67118835 C12.04810539 18.35852989 12.17752766 21.98548404 12.20874023 25.69848633 C12.22341591 26.81928337 12.22341591 26.81928337 12.23838806 27.96272278 C12.26813991 30.41914129 12.2896681 32.87550633 12.30859375 35.33203125 C12.31516558 36.17583532 12.3217374 37.0196394 12.32850838 37.88901329 C12.36100977 42.35380758 12.38548564 46.81857889 12.4050293 51.28344727 C12.42284501 54.96446566 12.45768214 58.6447184 12.50756836 62.32543945 C12.5679453 66.78691301 12.59852727 71.24767682 12.60820198 75.70953941 C12.61672476 77.40195687 12.63546404 79.09435696 12.6649456 80.78653908 C12.92787779 96.73360852 12.92787779 96.73360852 7.5348053 103.4226532 C1.46637191 109.65929052 -4.53195979 112.51469533 -13.1953125 113.0546875 C-20.70010275 112.90835454 -25.69520169 109.94079344 -31.17578125 105.01171875 C-35.89275927 99.80991216 -37.59383048 95.81413566 -37.51757812 88.82666016 C-37.5245874 88.02908798 -37.53159668 87.23151581 -37.53881836 86.40977478 C-37.55635359 83.78584469 -37.54478974 81.16300266 -37.53125 78.5390625 C-37.53394674 76.70592035 -37.53783068 74.8727796 -37.54284668 73.03964233 C-37.54873612 69.20141962 -37.54019871 65.36356989 -37.52148438 61.52539062 C-37.49872734 56.62053944 -37.51180069 51.71656542 -37.53577423 46.8117466 C-37.55027481 43.0265958 -37.5456062 39.24165059 -37.53526306 35.45649338 C-37.53260585 33.64889801 -37.53582993 31.84128361 -37.54518127 30.03371048 C-37.5554138 27.49935229 -37.5397524 24.96638436 -37.51757812 22.43212891 C-37.52567505 21.69420609 -37.53377197 20.95628326 -37.54211426 20.19599915 C-37.44100132 13.9145834 -35.34057983 8.89867429 -31.39453125 4.01171875 C-22.14846331 -3.72758257 -10.89223006 -5.40816301 0 0 Z M-23.1502533 14.14772034 C-25.41972539 17.64720981 -25.57200934 20.4115607 -25.53344727 24.44897461 C-25.54206284 25.18133835 -25.55067841 25.91370209 -25.55955505 26.66825867 C-25.58218688 29.07998384 -25.57548164 31.49054428 -25.56640625 33.90234375 C-25.57164338 35.58476607 -25.57792019 37.26718545 -25.58518982 38.94960022 C-25.59558904 42.47264438 -25.59104006 45.99528452 -25.57641602 49.51831055 C-25.55923473 54.025601 -25.5827168 58.53161588 -25.61790562 63.038764 C-25.6399032 66.51246026 -25.63843242 69.98585245 -25.6301403 73.45959663 C-25.62932195 75.12093059 -25.63616321 76.78228713 -25.65091133 78.44355583 C-25.6684009 80.77036989 -25.6537817 83.09490695 -25.63110352 85.42163086 C-25.64279572 86.10286011 -25.65448792 86.78408936 -25.66653442 87.48596191 C-25.55777846 92.99079686 -23.73295338 95.24994795 -20 99 C-17.39609754 100.47554472 -14.98579264 100.92037886 -12 101 C-6.73312083 99.48242465 -3.4715725 97.20841144 0 93 C0.73970187 89.61048877 0.73970187 89.61048877 0.61523438 85.84228516 C0.62078339 85.14078842 0.6263324 84.43929169 0.63204956 83.71653748 C0.64382193 81.40667534 0.61959396 79.0987863 0.59375 76.7890625 C0.59203776 75.17630096 0.59210574 73.56353663 0.59387207 71.95077515 C0.59222007 68.57303175 0.57354894 65.19595301 0.54199219 61.81835938 C0.5023783 57.50196883 0.49794029 53.18645087 0.50545502 48.8699131 C0.50853453 45.53943985 0.49636842 42.20916047 0.47932434 38.87873459 C0.47232208 37.28803093 0.46916642 35.6973053 0.47001648 34.10658646 C0.46820568 31.87616054 0.44671499 29.64675232 0.41992188 27.41650391 C0.41150269 26.15029205 0.4030835 24.8840802 0.39440918 23.57949829 C-0.10802842 19.01957773 -1.20234714 14.69967652 -4.6484375 11.44140625 C-11.96912437 7.71481226 -17.15543875 8.15996757 -23.1502533 14.14772034 Z " fill="#004A78" transform="translate(1069,290)"/>
<path d="M0 0 C4.55315922 -0.09958121 9.10567152 -0.17179985 13.65966797 -0.21972656 C15.20567887 -0.23972503 16.75161527 -0.26693331 18.29736328 -0.30175781 C36.01422407 -0.69063662 36.01422407 -0.69063662 42.46411133 5.37744141 C47.54087503 11.01583875 49.45004328 16.414527 49.43579102 23.88208008 C49.44586685 24.64878525 49.45594269 25.41549042 49.46632385 26.20542908 C49.49469838 28.72694696 49.50067515 31.24786389 49.50390625 33.76953125 C49.51355533 35.53301738 49.52364839 37.29650113 49.53416443 39.0599823 C49.55209998 42.75269127 49.55768819 46.44519002 49.5559082 50.13793945 C49.55560365 54.85237851 49.59654029 59.56545888 49.64822483 64.2795763 C49.68170759 67.92150469 49.68766214 71.5631089 49.68607903 75.2051754 C49.68960171 76.9422136 49.70277315 78.67926177 49.72607613 80.41614723 C49.92498215 96.77363355 49.92498215 96.77363355 44.52813721 103.48075867 C42.54525641 105.45209636 40.74308688 106.84723113 38.1875 108 C37.41792969 108.37125 36.64835938 108.7425 35.85546875 109.125 C28.48586947 111.38326298 20.70283556 111.15721505 13.0625 111.125 C11.64614258 111.13080078 11.64614258 111.13080078 10.20117188 111.13671875 C9.30076172 111.13542969 8.40035156 111.13414062 7.47265625 111.1328125 C6.66062744 111.13168457 5.84859863 111.13055664 5.01196289 111.12939453 C3 111 3 111 1 110 C0.86770396 99.49682206 0.73720957 88.9936233 0.60884857 78.4903965 C0.54915519 73.61028596 0.48890259 68.73018382 0.42724609 63.85009766 C0.15873154 42.5660617 -0.09967765 21.28616314 0 0 Z M12 11 C12 39.71 12 68.42 12 98 C27.58382361 99.26710519 27.58382361 99.26710519 35 95 C37.31955753 91.14968121 37.26819587 87.43370615 37.30639648 83.01000977 C37.31472 82.32641388 37.32304352 81.64281799 37.33161926 80.93850708 C37.35562144 78.68941477 37.36447825 76.44061286 37.37109375 74.19140625 C37.38006605 72.62108781 37.389188 71.05077023 37.39845276 69.48045349 C37.41491763 66.19292121 37.42263855 62.90549048 37.42553711 59.61791992 C37.43092496 55.41336297 37.4686311 51.2097649 37.51428127 47.00547886 C37.54407578 43.76344849 37.55126114 40.52164869 37.55226326 37.27949333 C37.55645921 35.72977229 37.56886855 34.18005017 37.58978081 32.63046455 C37.61675401 30.45939311 37.61185561 28.2905403 37.59936523 26.11938477 C37.60697121 24.27003075 37.60697121 24.27003075 37.61473083 22.38331604 C36.78554427 17.81969237 35.2881153 16.24871763 32 13 C26.36021682 9.80743041 26.36021682 9.80743041 12 11 Z " fill="#004978" transform="translate(631,437)"/>
<path d="M0 0 C3.96 0 7.92 0 12 0 C12.01213028 1.64918175 12.01213028 1.64918175 12.02450562 3.3316803 C12.10206656 13.70448386 12.18983098 24.07715787 12.28752708 34.44979191 C12.33742452 39.78217542 12.38375519 45.11453974 12.421875 50.44702148 C12.4588105 55.59533553 12.50519297 60.7434865 12.55806351 65.89166069 C12.57656354 67.85356212 12.59168763 69.81549844 12.60334396 71.77745247 C12.6202816 74.53027081 12.6493347 77.28271927 12.68115234 80.03540039 C12.68331253 80.84244919 12.68547272 81.64949799 12.68769836 82.48100281 C12.76711883 87.87708044 12.93784548 93.62059094 16.625 97.875 C21.44110113 100.15631106 25.35905041 100.55730363 30.3125 98.875 C33.40910271 96.71457951 34.42097265 95.4229722 36 92 C36.44082439 88.99505578 36.43754101 86.02027186 36.43237305 82.98706055 C36.4425647 82.08900192 36.45275635 81.1909433 36.46325684 80.26567078 C36.49338031 77.30595658 36.50265186 74.34656609 36.51171875 71.38671875 C36.5285659 69.33119125 36.54671619 67.27567406 36.56611633 65.22016907 C36.61361843 59.81646951 36.64342655 54.41281171 36.66955566 49.00897217 C36.69936002 43.49222567 36.74589082 37.97562307 36.79101562 32.45898438 C36.8770512 21.63939818 36.94439547 10.81978238 37 0 C40.96 0 44.92 0 49 0 C49.06959716 12.2482593 49.12286072 24.49647133 49.15543652 36.74488831 C49.17107349 42.43269856 49.192276 48.12037323 49.22631836 53.80810547 C49.25898172 59.29998096 49.27686782 64.79172626 49.28463173 70.28369141 C49.29016269 72.3759974 49.3009633 74.4682965 49.31719017 76.56054688 C49.33905697 79.49755088 49.34196303 82.43402107 49.34057617 85.37109375 C49.351362 86.2306517 49.36214783 87.09020966 49.3732605 87.97581482 C49.34064803 94.38398528 48.35702093 100.04719108 44.23828125 105.20703125 C37.38456746 110.92077642 31.55064139 113.60422773 22.51953125 113.28515625 C15.39122295 112.47838647 10.00684126 110.12327943 5 105 C-0.0524405 98.08528175 -0.14873848 91.08795109 -0.11352539 82.87353516 C-0.11367142 81.97533051 -0.11381744 81.07712585 -0.1139679 80.15170288 C-0.11327398 77.19746443 -0.10550605 74.24328987 -0.09765625 71.2890625 C-0.09579022 69.23497553 -0.09436719 67.18088811 -0.09336853 65.12680054 C-0.08955794 59.73129031 -0.07974012 54.33580717 -0.06866455 48.94030762 C-0.05841906 43.43026089 -0.05386419 37.92020977 -0.04882812 32.41015625 C-0.03811653 21.60675896 -0.02105764 10.80338174 0 0 Z " fill="#004978" transform="translate(832,437)"/>
<path d="M0 0 C4.13643614 2.45020177 6.83614076 4.78006574 9.375 8.875 C10.1875 12.75 10.1875 12.75 10.375 15.875 C4.255 18.875 4.255 18.875 0.625 18.875 C-2.3876173 17.53605898 -2.98490711 15.67682535 -4.625 12.875 C-8.65431375 10.45741175 -13.03632226 10.28349076 -17.625 10.875 C-21.0280585 12.03262136 -21.0280585 12.03262136 -23.625 13.875 C-24.73904727 17.2171418 -24.83270279 19.90036074 -24.94140625 23.421875 C-24.96218735 24.07013245 -24.98296844 24.71838989 -25.00437927 25.3862915 C-25.04762354 26.76478635 -25.08866797 28.1433517 -25.12768555 29.52197266 C-25.1861075 31.57604101 -25.25158691 33.62978189 -25.31835938 35.68359375 C-25.74824571 49.44888849 -25.72914663 63.20989421 -25.36254883 76.9765625 C-25.32874335 78.34329311 -25.30089735 79.71018223 -25.27856445 81.07714844 C-25.24501248 83.09597802 -25.19113572 85.11443756 -25.13671875 87.1328125 C-25.11053467 88.3098877 -25.08435059 89.48696289 -25.05737305 90.69970703 C-24.58619 94.16001572 -23.69737871 96.08959597 -21.625 98.875 C-17.69680052 100.83909974 -12.91731753 100.20994963 -8.625 99.875 C-5.53144342 98.97319664 -5.53144342 98.97319664 -3.625 96.875 C-1.83817784 92.49597128 -1.33592184 88.65305585 -1.2109375 83.9453125 C-1.17226563 82.65625 -1.13359375 81.3671875 -1.09375 80.0390625 C-1.06230242 78.69271293 -1.03105489 77.34635868 -1 76 C-0.96176959 74.63018486 -0.92271499 73.26039245 -0.8828125 71.890625 C-0.78877285 68.55221737 -0.70311943 65.21381186 -0.625 61.875 C-4.255 61.875 -7.885 61.875 -11.625 61.875 C-11.625 57.915 -11.625 53.955 -11.625 49.875 C-4.035 49.875 3.555 49.875 11.375 49.875 C11.42124198 55.35210585 11.46096648 60.82851759 11.48486328 66.30566406 C11.49483921 68.1637605 11.50842478 70.02184158 11.52587891 71.87988281 C11.77486564 99.09266872 11.77486564 99.09266872 6.8125 105.875 C1.33185996 111.31582909 -5.56610009 113.42792718 -13.140625 113.91015625 C-21.55345884 113.79110671 -27.09806325 111.00114849 -33.375 105.4375 C-37.58704314 100.64045087 -38.00810035 95.87172133 -38.25390625 89.671875 C-38.29133438 88.81865662 -38.32876251 87.96543823 -38.36732483 87.08636475 C-38.8486144 74.26594866 -38.74061948 61.4333742 -38.6027832 48.60742188 C-38.57186991 45.59748673 -38.55852264 42.58821604 -38.55981445 39.578125 C-38.56134226 35.88463232 -38.53373508 32.19242621 -38.48538399 28.49925995 C-38.47185499 27.11039037 -38.46819222 25.72138421 -38.47514153 24.33246613 C-38.50471073 16.69987185 -38.32992231 11.16219432 -33.12579346 5.2943573 C-31.32622033 3.59243273 -29.60218212 2.15162311 -27.4375 0.9375 C-26.78394531 0.55722656 -26.13039063 0.17695313 -25.45703125 -0.21484375 C-18.05602996 -3.89167382 -7.39051818 -3.47789091 0 0 Z " fill="#004978" transform="translate(754.625,142.125)"/>
<path d="M0 0 C3.96 0 7.92 0 12 0 C14.24870837 6.34895358 15.86204896 12.55548377 17.10058594 19.16967773 C17.28794815 20.14313644 17.47531036 21.11659515 17.66835022 22.11955261 C18.27994183 25.30640817 18.88249534 28.49489085 19.484375 31.68359375 C19.90811639 33.908031 20.33221445 36.13240034 20.75665283 38.35670471 C21.64148506 43.00160735 22.52179239 47.64733876 23.39892578 52.29370117 C24.52561316 58.25982093 25.66396306 64.22364654 26.80569077 70.18690395 C27.68202753 74.77118947 28.55208738 79.35664876 29.42023468 83.94249153 C29.83770963 86.1433891 30.25719677 88.34390595 30.67870331 90.54403496 C31.26455231 93.60687912 31.84191436 96.6712019 32.41699219 99.73608398 C32.68181145 101.10669983 32.68181145 101.10669983 32.95198059 102.50500488 C33.10613937 103.33616318 33.26029816 104.16732147 33.41912842 105.02366638 C33.55626629 105.74756782 33.69340416 106.47146925 33.83469772 107.21730709 C34 109 34 109 33 111 C29.37 111 25.74 111 22 111 C21.16288007 107.22997062 20.33014812 103.45906483 19.5 99.6875 C19.26152344 98.61564453 19.02304687 97.54378906 18.77734375 96.43945312 C18.55175781 95.41142578 18.32617188 94.38339844 18.09375 93.32421875 C17.88427734 92.37635498 17.67480469 91.42849121 17.45898438 90.4519043 C17 88 17 88 17 85 C6.605 85.495 6.605 85.495 -4 86 C-4.34933594 87.72089844 -4.69867187 89.44179687 -5.05859375 91.21484375 C-5.51803049 93.45576991 -5.9776767 95.69665313 -6.4375 97.9375 C-6.66759766 99.07380859 -6.89769531 100.21011719 -7.13476562 101.38085938 C-7.35712891 102.46044922 -7.57949219 103.54003906 -7.80859375 104.65234375 C-8.11494751 106.15269165 -8.11494751 106.15269165 -8.42749023 107.68334961 C-9 110 -9 110 -10 111 C-11.85287502 111.07226502 -13.70833878 111.0838122 -15.5625 111.0625 C-17.08037109 111.04896484 -17.08037109 111.04896484 -18.62890625 111.03515625 C-19.41136719 111.02355469 -20.19382812 111.01195312 -21 111 C-20.38195466 104.89987404 -19.52123184 98.92798821 -18.37353516 92.90698242 C-18.21239731 92.04712234 -18.05125946 91.18726227 -17.88523865 90.30134583 C-17.35656429 87.48540434 -16.8229989 84.67041685 -16.2890625 81.85546875 C-15.91634203 79.87929348 -15.54381727 77.90308129 -15.17147827 75.92683411 C-14.39191547 71.79349434 -13.6099082 67.66062655 -12.82617188 63.52807617 C-11.82740591 58.26057291 -10.83484657 52.99192292 -9.84415627 47.72289562 C-9.0762908 43.6429261 -8.30503065 39.56360377 -7.53278732 35.48446083 C-7.16577993 33.54361015 -6.7998136 31.60256227 -6.4349556 29.66130638 C-4.55870443 19.68861339 -2.60382252 9.81233705 0 0 Z M6 27 C4.50262274 32.67308213 3.37964527 38.29641197 2.4921875 44.09375 C2.36184113 44.92588013 2.23149475 45.75801025 2.09719849 46.61535645 C1.68638543 49.24305232 1.28060945 51.87149642 0.875 54.5 C0.59538629 56.29432295 0.31544152 58.08859433 0.03515625 59.8828125 C-0.64705598 64.25462192 -1.32475553 68.62710919 -2 73 C0.10409639 73.02701408 2.20829178 73.04640223 4.3125 73.0625 C5.48425781 73.07410156 6.65601563 73.08570313 7.86328125 73.09765625 C11.03059195 73.14899898 11.03059195 73.14899898 14 72 C13.39635487 62.30320379 11.67122219 52.85446727 9.9375 43.3125 C9.65256601 41.72468626 9.36805765 40.13679608 9.08398438 38.54882812 C8.39422143 34.69832085 7.69872559 30.84889053 7 27 C6.67 27 6.34 27 6 27 Z " fill="#004978" transform="translate(802,142)"/>
<path d="M0 0 C1.95766281 -0.08082094 3.91626728 -0.13910778 5.875 -0.1875 C7.51082031 -0.23970703 7.51082031 -0.23970703 9.1796875 -0.29296875 C10.11039063 -0.19628906 11.04109375 -0.09960938 12 0 C13.88397109 2.82595663 14.39105976 4.11835776 14.99978638 7.32678223 C15.17081879 8.21005692 15.3418512 9.0933316 15.51806641 10.00337219 C15.69789062 10.96970078 15.87771484 11.93602936 16.06298828 12.93164062 C16.25835175 13.95138474 16.45371521 14.97112885 16.65499878 16.02177429 C17.30014235 19.39869471 17.93536068 22.77739965 18.5703125 26.15625 C19.0153368 28.49900062 19.46089022 30.84165078 19.9069519 33.1842041 C20.84079442 38.0961341 21.77006471 43.00889915 22.69580078 47.92236328 C23.8841068 54.22889197 25.08082615 60.53378562 26.28059578 66.8381424 C27.20083006 71.67600755 28.11806574 76.51443701 29.03423691 81.35307312 C29.47462873 83.67847368 29.91561959 86.00376086 30.35721207 88.32893372 C30.97291136 91.57488125 31.58492364 94.82150135 32.19580078 98.06835938 C32.37967346 99.03468796 32.56354614 100.00101654 32.75299072 100.99662781 C32.91838348 101.8799025 33.08377625 102.76317719 33.25418091 103.67321777 C33.39907015 104.44086205 33.54395939 105.20850632 33.69323921 105.99941254 C34 108 34 108 34 111 C30.04 111 26.08 111 22 111 C20.35 102.42 18.7 93.84 17 85 C6.605 85.495 6.605 85.495 -4 86 C-4.33773438 87.70929688 -4.67546875 89.41859375 -5.0234375 91.1796875 C-5.4735588 93.41153895 -5.92410144 95.64330545 -6.375 97.875 C-6.59671875 99.00292969 -6.8184375 100.13085938 -7.046875 101.29296875 C-7.37558594 102.90751953 -7.37558594 102.90751953 -7.7109375 104.5546875 C-7.90993652 105.54968262 -8.10893555 106.54467773 -8.31396484 107.56982422 C-9 110 -9 110 -11 112 C-13.3828125 112.1953125 -13.3828125 112.1953125 -16.125 112.125 C-17.03507812 112.10695313 -17.94515625 112.08890625 -18.8828125 112.0703125 C-19.58148437 112.04710937 -20.28015625 112.02390625 -21 112 C-19.08463069 97.75968251 -16.74482314 83.65789551 -14.0234375 69.55078125 C-13.64863532 67.59024975 -13.27418163 65.6296516 -12.90005493 63.66899109 C-12.12490331 59.61231189 -11.34648657 55.55627869 -10.56542969 51.50073242 C-9.56354263 46.29775894 -8.56880819 41.09344816 -7.57626915 35.88868427 C-6.80822901 31.86408962 -6.03719289 27.84007379 -5.26515579 23.81624413 C-4.89677366 21.89498872 -4.52917196 19.9735835 -4.16236496 18.05202675 C-3.65335494 15.38867927 -3.14047973 12.72610613 -2.62646484 10.0637207 C-2.4758107 9.27168747 -2.32515656 8.47965424 -2.16993713 7.66362 C-1.11442021 2.22884042 -1.11442021 2.22884042 0 0 Z M6 26 C5.01998292 31.56819208 4.04143235 37.1366392 3.06420898 42.70532227 C2.73192471 44.5976448 2.39924768 46.48989842 2.06616211 48.38208008 C1.58602991 51.11000607 1.10733499 53.83818105 0.62890625 56.56640625 C0.48095108 57.40522842 0.33299591 58.2440506 0.18055725 59.10829163 C-0.02954735 60.30874367 -0.02954735 60.30874367 -0.24389648 61.53344727 C-0.36603012 62.22849869 -0.48816376 62.92355011 -0.61399841 63.6396637 C-1.12305238 66.7524451 -1.55393848 69.87756936 -2 73 C3.28 73 8.56 73 14 73 C13.34990879 62.76312074 11.72383079 52.83376009 9.9375 42.75 C9.65251138 41.11857396 9.3680028 39.48706398 9.08398438 37.85546875 C8.39484404 33.90265802 7.69925009 29.9510343 7 26 C6.67 26 6.34 26 6 26 Z " fill="#004978" transform="translate(1192,289)"/>
<path d="M0 0 C33.62857143 0 33.62857143 0 41.1875 5.1875 C48.60168647 12.60168647 49.0044868 20.91483597 49.1875 30.9375 C49.07075757 40.88183267 47.93716746 47.57453678 41 55 C35.47167024 60.25191327 28.25904346 60.23228964 21 61 C16.545 61.495 16.545 61.495 12 62 C11.67 77.84 11.34 93.68 11 110 C8 111 8 111 0 111 C0 74.37 0 37.74 0 0 Z M11 12 C10.89904436 14.65456193 10.86029002 17.28255176 10.8671875 19.9375 C10.86623077 20.732771 10.86527405 21.52804199 10.86428833 22.34741211 C10.86360657 24.0320646 10.86546057 25.71671971 10.86962891 27.40136719 C10.87497725 29.98899197 10.86968381 32.57644316 10.86328125 35.1640625 C10.86394203 36.79687539 10.8652232 38.42968816 10.8671875 40.0625 C10.86516327 40.84165771 10.86313904 41.62081543 10.86105347 42.42358398 C10.5416042 46.007942 10.5416042 46.007942 12 49 C23.76187598 49.95909656 23.76187598 49.95909656 34 45 C37.09131435 40.36302847 36.48843329 35.64589486 36.5625 30.1875 C36.61212891 29.10662109 36.66175781 28.02574219 36.71289062 26.91210938 C36.87570254 21.08929186 36.87570254 21.08929186 34.54248047 15.93603516 C29.43404564 11.36533031 25.05129833 10.85990751 18.3125 10.875 C16.57419922 10.87113281 16.57419922 10.87113281 14.80078125 10.8671875 C12.09500844 10.68071827 12.09500844 10.68071827 11 12 Z " fill="#004978" transform="translate(632,290)"/>
<path d="M0 0 C3.6595006 2.12678769 6.40086279 4.00487391 8.4375 7.8125 C9.01739531 10.51531642 9.24947488 13.03912944 9.4375 15.8125 C6.68671116 16.72942961 5.07801087 16.92136083 2.25 16.875 C0.3628125 16.8440625 0.3628125 16.8440625 -1.5625 16.8125 C-1.830625 15.843125 -2.09875 14.87375 -2.375 13.875 C-2.766875 12.864375 -3.15875 11.85375 -3.5625 10.8125 C-8.80513058 9.06495647 -12.92904801 9.11677045 -17.9375 11.25 C-20.98332395 14.22330433 -21.91387975 16.11230957 -22.55859375 20.265625 C-22.57829135 33.10845994 -11.79474952 43.24265274 -3.9375 52.375 C5.87333621 63.78899172 12.4375 74.4479637 12.4375 89.8125 C11.86531286 95.66847776 10.34579829 100.30292505 6.4375 104.8125 C-2.04736399 111.36060156 -8.82754515 112.829865 -19.5625 111.8125 C-27.4628572 109.2739126 -32.40178546 103.55773854 -36.4375 96.5625 C-37.5625 93.8125 -37.5625 93.8125 -37.5625 90.8125 C-33.7272603 89.00768132 -30.77253892 87.95330838 -26.5625 88.8125 C-24.81738003 90.7178419 -23.438182 92.68642498 -22.0546875 94.8671875 C-20.35217718 97.08669048 -19.17991836 97.86867256 -16.5625 98.8125 C-14.33865205 99.12587208 -14.33865205 99.12587208 -12.0625 99.0625 C-11.3096875 99.06765625 -10.556875 99.0728125 -9.78125 99.078125 C-7.23303734 98.77305729 -5.6965438 98.24122424 -3.5625 96.8125 C-0.4889836 92.24162945 -0.82772465 87.08400759 -1.5625 81.8125 C-4.59351107 72.53389467 -10.75529933 65.67260384 -17.08056641 58.50537109 C-27.06987905 47.09418595 -35.994875 35.81037496 -35.5625 19.8125 C-34.86044275 13.06849548 -32.91203122 7.69512687 -27.62890625 3.1484375 C-19.38499789 -3.23491906 -9.68660106 -4.59825258 0 0 Z " fill="#004978" transform="translate(969.5625,290.1875)"/>
<path d="M0 0 C11.88 0 23.76 0 36 0 C36 3.63 36 7.26 36 11 C27.83204491 11.99005516 20.37441165 12 12 12 C12 24.21 12 36.42 12 49 C19.92 49 27.84 49 36 49 C36 52.96 36 56.92 36 61 C28.08 61 20.16 61 12 61 C12 73.54 12 86.08 12 99 C19.92 99 27.84 99 36 99 C36 102.96 36 106.92 36 111 C31.49764405 111.02472359 26.99532764 111.04287119 22.49291992 111.05493164 C20.9613374 111.0599596 19.42975967 111.06678284 17.89819336 111.07543945 C15.69643978 111.08757229 13.49474967 111.09324367 11.29296875 111.09765625 C10.60849167 111.10281754 9.92401459 111.10797882 9.21879578 111.11329651 C6.19093758 111.1136536 3.89849858 110.96616619 1 110 C-0.14729 97.87178449 -0.12926969 85.80297744 -0.09765625 73.6328125 C-0.09578726 71.50047845 -0.09436563 69.36814396 -0.09336853 67.23580933 C-0.08958124 61.66944152 -0.07978404 56.10310051 -0.06866455 50.53674316 C-0.05836825 44.83830121 -0.05385343 39.13985486 -0.04882812 33.44140625 C-0.03815775 22.29425727 -0.02059239 11.14713507 0 0 Z " fill="#004978" transform="translate(699,437)"/>
<path d="M0 0 C11.88 0 23.76 0 36 0 C36 3.63 36 7.26 36 11 C28.08 11 20.16 11 12 11 C12 23.54 12 36.08 12 49 C19.92 49 27.84 49 36 49 C36 58 36 58 34 61 C31.75341797 61.34057617 31.75341797 61.34057617 28.9921875 61.29296875 C27.65969971 61.28172974 27.65969971 61.28172974 26.30029297 61.27026367 C25.16994629 61.24295166 24.03959961 61.21563965 22.875 61.1875 C19.28625 61.125625 15.6975 61.06375 12 61 C12 73.54 12 86.08 12 99 C19.92 99 27.84 99 36 99 C35.67 102.63 35.34 106.26 35 110 C29.30973325 110.81381795 23.80690273 111.15458491 18.0625 111.125 C17.31548828 111.12886719 16.56847656 111.13273437 15.79882812 111.13671875 C15.05181641 111.13542969 14.30480469 111.13414062 13.53515625 111.1328125 C12.55107788 111.13112061 12.55107788 111.13112061 11.54711914 111.12939453 C7.68469333 110.93318197 3.84375235 110.42708359 0 110 C0 73.7 0 37.4 0 0 Z " fill="#004979" transform="translate(879,290)"/>
<path d="M0 0 C11.88 0 23.76 0 36 0 C36 3.63 36 7.26 36 11 C27.86545985 11.86768428 20.26634997 12 12 12 C12 24.21 12 36.42 12 49 C19.92 49 27.84 49 36 49 C36 52.96 36 56.92 36 61 C28.08 61 20.16 61 12 61 C12 77.5 12 94 12 111 C8.04 111 4.08 111 0 111 C0 74.37 0 37.74 0 0 Z " fill="#004978" transform="translate(782,437)"/>
<path d="M0 0 C6.15628172 2.57620434 10.13417501 7.40233792 12.67578125 13.45703125 C13.73886871 19.71257912 13.51651203 26.09642471 13.36865234 32.41821289 C13.30038623 35.41185406 13.28663245 38.40213115 13.28125 41.39648438 C13.2622676 43.30081529 13.24024197 45.20511885 13.21484375 47.109375 C13.20836823 48.00309311 13.2018927 48.89681122 13.19522095 49.81761169 C13.1728537 50.64600052 13.15048645 51.47438934 13.12744141 52.32788086 C13.10576401 53.41848061 13.10576401 53.41848061 13.08364868 54.53111267 C12.55883412 57.00924657 11.66062279 57.92277379 9.67578125 59.45703125 C7.11328125 59.76953125 7.11328125 59.76953125 4.67578125 59.45703125 C2.67578125 57.45703125 2.67578125 57.45703125 2.44873047 55.39404297 C2.4592041 54.56662598 2.46967773 53.73920898 2.48046875 52.88671875 C2.48546387 52.07960449 2.49045898 51.27249023 2.49560547 50.44091797 C2.52291748 48.90201904 2.52291748 48.90201904 2.55078125 47.33203125 C2.61265625 42.44390625 2.61265625 42.44390625 2.67578125 37.45703125 C-3.92421875 37.45703125 -10.52421875 37.45703125 -17.32421875 37.45703125 C-17.2057563 43.57523289 -17.2057563 43.57523289 -17.05395508 49.69262695 C-17.0464624 50.45663818 -17.03896973 51.22064941 -17.03125 52.0078125 C-17.00768433 53.17824097 -17.00768433 53.17824097 -16.98364258 54.37231445 C-17.41315421 57.0014183 -18.22945705 57.85934224 -20.32421875 59.45703125 C-22.82421875 59.89453125 -22.82421875 59.89453125 -25.32421875 59.45703125 C-28.00556484 57.03164462 -28.53677223 54.93396903 -28.72827148 51.45800781 C-28.7547944 49.83807781 -28.76354825 48.21779321 -28.7578125 46.59765625 C-28.76305435 45.73444763 -28.7682962 44.87123901 -28.7736969 43.98187256 C-28.78011394 42.15622023 -28.7787842 40.33052654 -28.77026367 38.50488281 C-28.76178999 35.73035639 -28.79045906 32.95791494 -28.82226562 30.18359375 C-28.82387886 28.40494853 -28.82329777 26.6262997 -28.8203125 24.84765625 C-28.83154648 24.02654358 -28.84278046 23.20543091 -28.85435486 22.35943604 C-28.77304686 15.53550005 -26.8758342 10.26380825 -22.25390625 5.1796875 C-21.57585937 4.63183594 -20.8978125 4.08398438 -20.19921875 3.51953125 C-19.51601562 2.95363281 -18.8328125 2.38773438 -18.12890625 1.8046875 C-13.04796749 -1.98952002 -5.97362055 -1.39551808 0 0 Z " fill="#F8FDFE" transform="translate(199.32421875,31.54296875)"/>
<path d="M0 0 C11.55 0 23.1 0 35 0 C35 3.63 35 7.26 35 11 C27.41 11 19.82 11 12 11 C12 23.54 12 36.08 12 49 C19.59 49 27.18 49 35 49 C35 52.63 35 56.26 35 60 C34.67 60.33 34.34 60.66 34 61 C26.74 61 19.48 61 12 61 C11.67 77.5 11.34 94 11 111 C7.37 111 3.74 111 0 111 C0 74.37 0 37.74 0 0 Z " fill="#004A78" transform="translate(830,290)"/>
<path d="M0 0 C6.05028388 2.7605858 10.07126136 7.16388372 12.6796875 13.3125 C12.94038391 15.40577698 12.94038391 15.40577698 12.9543457 17.66625977 C12.96864372 18.94262047 12.96864372 18.94262047 12.98323059 20.24476624 C12.98231918 21.15528244 12.98140778 22.06579865 12.98046875 23.00390625 C12.98475388 23.94556137 12.989039 24.88721649 12.99345398 25.85740662 C12.99919025 27.84527788 12.99970272 29.83317013 12.99536133 31.82104492 C12.99219541 34.86738651 13.01568986 37.91276241 13.04101562 40.95898438 C13.04328804 42.89062377 13.04399238 44.82226579 13.04296875 46.75390625 C13.0521785 47.66644669 13.06138824 48.57898712 13.07087708 49.5191803 C13.06464828 50.36693527 13.05841949 51.21469025 13.05200195 52.08813477 C13.05263138 52.83329849 13.0532608 53.57846222 13.0539093 54.34620667 C12.57311015 56.872495 11.69928873 57.76344562 9.6796875 59.3125 C7.1171875 59.625 7.1171875 59.625 4.6796875 59.3125 C2.6796875 57.3125 2.6796875 57.3125 2.45263672 55.24951172 C2.46311035 54.42209473 2.47358398 53.59467773 2.484375 52.7421875 C2.48937012 51.93507324 2.49436523 51.12795898 2.49951172 50.29638672 C2.52682373 48.75748779 2.52682373 48.75748779 2.5546875 47.1875 C2.6165625 42.299375 2.6165625 42.299375 2.6796875 37.3125 C-3.9203125 37.3125 -10.5203125 37.3125 -17.3203125 37.3125 C-17.24123547 43.80461076 -17.24123547 43.80461076 -17.14013672 50.29638672 C-17.13264404 51.50705811 -17.13264404 51.50705811 -17.125 52.7421875 C-17.11452637 53.56960449 -17.10405273 54.39702148 -17.09326172 55.24951172 C-17.3203125 57.3125 -17.3203125 57.3125 -19.3203125 59.3125 C-22.3203125 59.625 -22.3203125 59.625 -25.3203125 59.3125 C-27.35570564 56.25941029 -27.57670473 55.59698288 -27.62670898 52.15161133 C-27.64269638 51.31676712 -27.65868378 50.48192291 -27.67515564 49.6217804 C-27.68051834 48.72178818 -27.68588104 47.82179596 -27.69140625 46.89453125 C-27.70043472 45.96331955 -27.7094632 45.03210785 -27.71876526 44.07267761 C-27.73327851 42.09983538 -27.74215716 40.1269449 -27.74584961 38.15405273 C-27.75770076 35.15329282 -27.80683661 32.15461992 -27.85742188 29.15429688 C-27.86689171 27.234385 -27.87412406 25.31446053 -27.87890625 23.39453125 C-27.89843857 22.50466019 -27.91797089 21.61478912 -27.93809509 20.69795227 C-27.89283172 14.36314306 -26.32803676 10.23754996 -22.3203125 5.3125 C-15.76291871 -0.76508449 -8.73809971 -2.58906658 0 0 Z " fill="#FBFDFE" transform="translate(306.3203125,31.6875)"/>
<path d="M0 0 C4.29 0 8.58 0 13 0 C13 32.67 13 65.34 13 99 C21.91 99 30.82 99 40 99 C40 102.96 40 106.92 40 111 C26.8 111 13.6 111 0 111 C0 74.37 0 37.74 0 0 Z " fill="#004A78" transform="translate(1101,437)"/>
<path d="M0 0 C16.17 0 32.34 0 49 0 C49 3.96 49 7.92 49 12 C42.73 12 36.46 12 30 12 C30 44.67 30 77.34 30 111 C26.37 111 22.74 111 19 111 C19 78.33 19 45.66 19 12 C12.73 12 6.46 12 0 12 C0 8.04 0 4.08 0 0 Z " fill="#004978" transform="translate(898,437)"/>
<path d="M0 0 C3.63 0 7.26 0 11 0 C11 32.67 11 65.34 11 99 C19.91 99 28.82 99 38 99 C38 102.96 38 106.92 38 111 C25.46 111 12.92 111 0 111 C0 74.37 0 37.74 0 0 Z " fill="#004A78" transform="translate(632,142)"/>
<path d="M0 0 C3.63 0 7.26 0 11 0 C11 32.34 11 64.68 11 98 C19.91 98 28.82 98 38 98 C38 101.96 38 105.92 38 110 C25.46 110 12.92 110 0 110 C0 73.7 0 37.4 0 0 Z " fill="#004A78" transform="translate(1242,290)"/>
<path d="M0 0 C3.96 0 7.92 0 12 0 C12 36.63 12 73.26 12 111 C8.04 111 4.08 111 0 111 C0 74.37 0 37.74 0 0 Z " fill="#004978" transform="translate(685,142)"/>
<path d="M0 0 C3.63 0 7.26 0 11 0 C11.79660941 3.18643763 12.12543676 5.31179323 12.12698364 8.49845886 C12.12980347 9.39441269 12.13262329 10.29036652 12.13552856 11.21347046 C12.13350433 12.18869659 12.1314801 13.16392273 12.12939453 14.16870117 C12.13114685 15.20155746 12.13289917 16.23441376 12.13470459 17.29856873 C12.139107 20.71338581 12.1361914 24.12815114 12.1328125 27.54296875 C12.13348585 29.91140249 12.13445613 32.27983615 12.13571167 34.64826965 C12.13718633 39.6104905 12.13504092 44.57269335 12.13037109 49.53491211 C12.12466462 55.91097789 12.12796009 62.28700166 12.13394356 68.66306591 C12.13754745 73.55190857 12.13641154 78.44074117 12.13381577 83.32958412 C12.1331465 85.68164385 12.13397489 88.03370449 12.13629532 90.38576317 C12.13882004 93.66369441 12.13498423 96.94155637 12.12939453 100.21948242 C12.13141876 101.20078125 12.13344299 102.18208008 12.13552856 103.19311523 C12.13270874 104.08060959 12.12988892 104.96810394 12.12698364 105.88249207 C12.12660662 106.65805545 12.12622959 107.43361883 12.12584114 108.23268414 C12 110 12 110 11 111 C9.33570949 111.09823937 7.66718069 111.12973631 6 111.125 C4.63875 111.12886719 4.63875 111.12886719 3.25 111.1328125 C1 111 1 111 0 110 C-0.09554399 108.57053529 -0.12188438 107.13637335 -0.12025452 105.70372009 C-0.12162918 104.77678848 -0.12300385 103.84985687 -0.12442017 102.89483643 C-0.12082489 101.86985046 -0.11722961 100.8448645 -0.11352539 99.78881836 C-0.11367142 98.71577957 -0.11381744 97.64274078 -0.1139679 96.53718567 C-0.11326824 92.97138484 -0.10547338 89.40563551 -0.09765625 85.83984375 C-0.09579226 83.37504607 -0.09436827 80.91024801 -0.09336853 78.44544983 C-0.08954187 71.94346095 -0.07971032 65.44149425 -0.06866455 58.93951416 C-0.05791748 52.31059183 -0.05387159 45.68166307 -0.04882812 39.05273438 C-0.03808819 26.03514648 -0.02101 13.01757508 0 0 Z " fill="#004A78" transform="translate(1000,290)"/>
<path d="M0 0 C0.99322266 -0.02449219 1.98644531 -0.04898437 3.00976562 -0.07421875 C10.248389 -0.10346571 10.248389 -0.10346571 13.62109375 2.23828125 C14.9375 4.375 14.9375 4.375 14.9375 6.9375 C13.72370522 9.89612477 12.64381253 10.71791762 9.9375 12.375 C7.60327148 12.75976562 7.60327148 12.75976562 5.05859375 12.78125 C4.13755859 12.80316406 3.21652344 12.82507812 2.26757812 12.84765625 C0.33528681 12.86592234 -1.59700486 12.88415136 -3.52929688 12.90234375 C-4.90891602 12.93521484 -4.90891602 12.93521484 -6.31640625 12.96875 C-7.15502197 12.97583984 -7.9936377 12.98292969 -8.85766602 12.99023438 C-11.55427257 13.46081924 -12.4335998 14.20817643 -14.0625 16.375 C-14.64025884 19.10730305 -14.64025884 19.10730305 -14.75 22.0625 C-14.81574219 23.05636719 -14.88148438 24.05023438 -14.94921875 25.07421875 C-14.98660156 25.83347656 -15.02398437 26.59273437 -15.0625 27.375 C-14.44729492 27.35405273 -13.83208984 27.33310547 -13.19824219 27.31152344 C-10.40316191 27.22822983 -7.60834285 27.17629987 -4.8125 27.125 C-3.36037109 27.07472656 -3.36037109 27.07472656 -1.87890625 27.0234375 C5.29850523 26.92443872 5.29850523 26.92443872 8.61328125 29.26171875 C9.9375 31.375 9.9375 31.375 9.875 33.4375 C8.79793469 35.66343498 7.87143569 36.82812174 5.9375 38.375 C3.66918945 38.71557617 3.66918945 38.71557617 1.05078125 38.66796875 C0.11298828 38.65830078 -0.82480469 38.64863281 -1.79101562 38.63867188 C-2.76748047 38.61353516 -3.74394531 38.58839844 -4.75 38.5625 C-5.73806641 38.54896484 -6.72613281 38.53542969 -7.74414062 38.52148438 C-10.18414231 38.48612203 -12.62304719 38.43677033 -15.0625 38.375 C-15.04678955 38.93485596 -15.0310791 39.49471191 -15.01489258 40.0715332 C-14.95250152 42.6100859 -14.91349782 45.14847729 -14.875 47.6875 C-14.84986328 48.56857422 -14.82472656 49.44964844 -14.79882812 50.35742188 C-14.78432617 51.62875977 -14.78432617 51.62875977 -14.76953125 52.92578125 C-14.74596558 54.09620972 -14.74596558 54.09620972 -14.72192383 55.2902832 C-15.15138118 57.91905473 -15.96529728 58.78045073 -18.0625 60.375 C-20.5625 60.75 -20.5625 60.75 -23.0625 60.375 C-25.03081088 58.84340815 -25.94662115 57.94333861 -26.45018005 55.47358704 C-26.45558304 54.75825302 -26.46098602 54.04291901 -26.46655273 53.3059082 C-26.47923691 52.49108475 -26.49192108 51.67626129 -26.50498962 50.83674622 C-26.50205399 49.95862778 -26.49911835 49.08050934 -26.49609375 48.17578125 C-26.5013356 47.26676559 -26.50657745 46.35774994 -26.51197815 45.42118835 C-26.51840407 43.49540223 -26.51705399 41.56957688 -26.50854492 39.64379883 C-26.50008117 36.71558312 -26.52871252 33.78934872 -26.56054688 30.86132812 C-26.5621603 28.98697975 -26.56157866 27.11262794 -26.55859375 25.23828125 C-26.56982773 24.37028397 -26.58106171 23.50228668 -26.59263611 22.60798645 C-26.51965078 16.14590577 -25.13444721 10.69826993 -20.65061951 5.84761047 C-14.21563334 0.16345743 -8.17555349 0.01065219 0 0 Z " fill="#F6FCFD" transform="translate(254.0625,30.625)"/>
<path d="M0 0 C2.69105198 2.17574416 4.45532928 3.91065856 6 7 C6.13860991 11.00305407 6.04262206 14.99352624 6 19 C-0.6 19 -7.2 19 -14 19 C-14.49496539 6.74960667 -14.49496539 6.74960667 -12.109375 3.13671875 C-8.56204823 -0.45659189 -4.89742912 -0.86314843 0 0 Z " fill="#11BBD9" transform="translate(196,39)"/>
<path d="M0 0 C2.8100346 1.79363911 4.50940468 3.01880935 6 6 C6.1393329 10.33603979 6.04254111 14.66080671 6 19 C-0.27 19 -6.54 19 -13 19 C-13.60638874 6.023281 -13.60638874 6.023281 -11 1.625 C-7.15787355 -0.45615183 -4.27555887 -0.95876169 0 0 Z " fill="#0CB9D8" transform="translate(303,39)"/>
<path d="M0 0 C7.23214286 5.89285714 7.23214286 5.89285714 9 10 C7.26194659 11.36946622 5.50908767 12.72015954 3.75 14.0625 C2.77546875 14.81660156 1.8009375 15.57070313 0.796875 16.34765625 C-2 18 -2 18 -4.171875 17.99609375 C-6 17 -6 17 -9 13 C-6.03 8.71 -3.06 4.42 0 0 Z " fill="#004977" transform="translate(860,414)"/>
</svg>
