<svg xmlns="http://www.w3.org/2000/svg" class="main__logo--default" viewBox="6.09 59.04 77.93 77.93"><!-- Source: https://football-logos.cc --><g fill="none" fill-rule="evenodd" data-source="https://football-logos.cc"><path fill="#fffffe" d="M45.054 58.384c-21.521 0-38.967 17.446-38.967 38.967s17.446 38.967 38.967 38.967S84.02 118.872 84.02 97.35 66.575 58.384 45.054 58.384" style="fill:#1a1919;fill-opacity:1" transform="translate(0 .652)"></path><path fill="#FFFFFE" d="M45.054 135.517c-20.719 0-37.515-16.795-37.515-37.514 0-20.718 16.796-37.514 37.515-37.514 20.718 0 37.513 16.796 37.513 37.514s-16.795 37.514-37.513 37.514m0-76.481c-21.521 0-38.967 17.446-38.967 38.967s17.446 38.967 38.967 38.967S84.02 119.524 84.02 98.003 66.575 59.036 45.054 59.036"></path><path fill="#05d5f3" d="M78.84 97.776c-.047-7.559-2.543-14.694-7.216-20.635a34.1 34.1 0 0 0-8.506-7.692 33.556 33.556 0 0 0-14.499-5.056l-.052-.006-.039.037a33.156 33.156 0 0 0-7.716 11.078l-.086.2.213-.04a22.6 22.6 0 0 1 4.122-.38l.134.002a22.64 22.64 0 0 1 15.313 6.08 23 23 0 0 1 1.853 1.937 48.12 48.12 0 0 0-22.309-5.615h-.083l-.028.08a35 35 0 0 0-1.05 3.726 34 34 0 0 0-.796 7.32l.001.12.12-.005a37 37 0 0 1 3.708.028 37.2 37.2 0 0 1 15.838 4.602c-3.003 7.304-8.394 13.555-15.195 17.62-4.851-6.276-7.58-14.108-7.684-22.066a36.676 36.676 0 0 1 1.59-11.163 36.786 36.786 0 0 1 2.265-5.655 37 37 0 0 1 1.05-1.957A38 38 0 0 1 41 68.382a37 37 0 0 1 3.027-3.966l.176-.201-.268.009a33.598 33.598 0 0 0-10.395 2 34 34 0 0 0-5.55 2.614c-6.46 3.796-11.545 9.703-14.32 16.634a33.6 33.6 0 0 0-2.378 11.2c-.02.491-.029.924-.029 1.321 0 1.306.08 2.639.234 3.957a33.35 33.35 0 0 0 4.848 13.842 34 34 0 0 0 3.117 4.241l.03.035.046.004a40.982 40.982 0 0 0 10.327-.23 40.6 40.6 0 0 0 8.4-2.21l.154-.06-.108-.124a44 44 0 0 1-2.413-3.06 44.1 44.1 0 0 1-8.225-23.528 44 44 0 0 1-.025-3.895c.047-1.282.15-2.56.305-3.796l.022-.156a44 44 0 0 1 1.26-6.203l.093-.33-.274.206a27.04 27.04 0 0 0-7.46 8.659 26.5 26.5 0 0 0-2.097 5.083 26.5 26.5 0 0 0-.977 5.042 27 27 0 0 0-.123 2.523c0 3.899.83 7.662 2.47 11.186a26.7 26.7 0 0 0 2.205 3.855l.033.049.272.006c1.408.037 2.847-.05 4.294-.218l.216-.024-.14-.166a22.664 22.664 0 0 1-5.407-14.687 22.8 22.8 0 0 1 1.36-7.73 48.278 48.278 0 0 0 8.145 25.199 36.809 36.809 0 0 1-5.888.824c-.745.044-1.472.066-2.162.066-.75 0-1.509-.025-2.316-.075-4.033-5.187-6.2-11.398-6.269-17.965l-.002-.123-.002-.197a29.76 29.76 0 0 1 1.713-9.967c.7-1.968 1.61-3.868 2.709-5.65a30.02 30.02 0 0 1 16.029-12.714 41 41 0 0 0-1.953 4.253 40.4 40.4 0 0 0-2.68 12.069 41 41 0 0 0-.069 3.836c.246 8.374 3.144 16.66 8.158 23.333a40 40 0 0 0 2.449 2.954l.059.065.078-.039a41 41 0 0 0 3.359-1.857c7.131-4.394 12.863-11.041 16.142-18.718a41 41 0 0 0 1.335-3.596l.027-.083-.073-.049a41 41 0 0 0-3.28-1.976 41.2 41.2 0 0 0-16.933-4.826c.137-1.074.343-2.179.614-3.29a44.04 44.04 0 0 1 20.447 6.681 44 44 0 0 1 3.133 2.166l.106.082a43.5 43.5 0 0 1 4.74 4.195l.24.245-.042-.34a26.6 26.6 0 0 0-.976-4.612 27 27 0 0 0-.672-1.9 26.7 26.7 0 0 0-2.1-4.207 26.9 26.9 0 0 0-7.217-7.727 26.57 26.57 0 0 0-12.957-4.859 29 29 0 0 1 2.387-2.907 29.6 29.6 0 0 1 9.765 3.463 30 30 0 0 1 4.225 2.903 30.3 30.3 0 0 1 3.814 3.749 30 30 0 0 1 3.53 5.146 29.6 29.6 0 0 1 3.124 8.915 30 30 0 0 1 .447 6.236 30 30 0 0 1-.592 5.033 41 41 0 0 0-2.71-3.823 40.6 40.6 0 0 0-6.077-6.122l-.128-.104-.055.156a44 44 0 0 1-1.444 3.618 44.1 44.1 0 0 1-16.276 18.874 44 44 0 0 1-6.805 3.598l-.21.086a43.034 43.034 0 0 1-6.005 1.994l-.33.084.314.135a26.4 26.4 0 0 0 4.634 1.498 25.426 25.426 0 0 0 6.47.641l.207-.006a26.6 26.6 0 0 0 5.445-.73 26.5 26.5 0 0 0 4.842-1.684 26.8 26.8 0 0 0 10.567-8.74 30 30 0 0 1 1.32 3.513 30 30 0 0 1-7.777 6.67 29.604 29.604 0 0 1-9.737 3.675c-2.048.383-4.154.55-6.228.499-3.24-.08-6.417-.68-9.445-1.783a30 30 0 0 1-5.61-2.744l-.034-.022-.04.005a44 44 0 0 1-5.649.327l-.488-.005.246.207a34 34 0 0 0 5.007 3.51 33.73 33.73 0 0 0 21.667 4.098 33.6 33.6 0 0 0 5.94-1.429 34 34 0 0 0 4.932-2.133 34 34 0 0 0 4.434-2.81 34 34 0 0 0 7.066-7.148l.032-.043-.013-.052a33 33 0 0 0-1.442-4.566 34 34 0 0 0-1.826-3.854l-.102-.187q-.094-.174-.193-.347a34 34 0 0 0-2.143-3.263l-.13-.173-.072.203a22.7 22.7 0 0 1-1.814 3.871 22.74 22.74 0 0 1-12.808 10.183c-.907.284-1.842.512-2.786.68a48.273 48.273 0 0 0 17.795-19.661 36.868 36.868 0 0 1 7.81 13.192l.086.253.126-.236a33.7 33.7 0 0 0 3.473-10.016c.342-1.936.515-3.92.515-5.896z"></path></g><!-- source: https://football-logos.cc --></svg>