<?xml version="1.0" encoding="UTF-8"?>
<svg version="1.1" xmlns="http://www.w3.org/2000/svg" width="299" height="276">
<path d="M0 0 C98.67 0 197.34 0 299 0 C299 91.08 299 182.16 299 276 C200.33 276 101.66 276 0 276 C0 184.92 0 93.84 0 0 Z " fill="#FCFCFC" transform="translate(0,0)"/>
<path d="M0 0 C0.66 0 1.32 0 2 0 C2.804375 1.11375 2.804375 1.11375 3.625 2.25 C7.30543577 6.51155721 11.76211495 8.16299575 16.9765625 10.11328125 C23.81297331 12.71722432 27.80919213 15.02231393 32 21 C36.62048902 26.957999 42.00941836 31.44194875 48 36 C47.19907001 32.71995235 47.19907001 32.71995235 44 30.5 C41 28 41 28 40 25 C39.42262355 18.30243318 40.92687294 13.92674505 44 8 C44.66 8 45.32 8 46 8 C51.00570477 14.63255882 51.24902825 20.58515171 50.9375 28.5625 C50.6245617 36.87275037 51.19351679 41.69236199 57 48 C57 48.66 57 49.32 57 50 C57.66 50 58.32 50 59 50 C57.04116426 45.81454361 57.04116426 45.81454361 54.3125 42.125 C52.72612985 39.55659119 52.3464625 37.38102116 52.4375 34.37109375 C53.62702796 29.35690298 56.78252355 24.95997101 60 21 C60.66 21 61.32 21 62 21 C63.79137559 25.62474654 64.29740633 29.54927517 64.3125 34.5 C64.32925781 35.7684375 64.34601563 37.036875 64.36328125 38.34375 C63.97519328 42.24966761 62.86721689 44.59051046 61 48 C60.38378386 53.64864794 61.69361575 57.00283413 64 62 C64 62.99 64 63.98 64 65 C64.66 65 65.32 65 66 65 C65.2575 63.576875 65.2575 63.576875 64.5 62.125 C62.55050308 57.44052925 61.89276745 52.99034389 63 48 C65.84398934 43.3998861 69.65413863 40.14401917 74 37 C74.55054808 46.86092787 74.72144803 54.48717884 69 63 C66.83764496 66.24353256 66.78120572 66.61944481 67.2421875 70.23046875 C67.33886719 71.03291016 67.43554688 71.83535156 67.53515625 72.66210938 C67.64730469 73.49548828 67.75945312 74.32886719 67.875 75.1875 C67.97941406 76.03248047 68.08382812 76.87746094 68.19140625 77.74804688 C68.45059557 79.83334275 68.72394803 81.91686936 69 84 C70.33333333 81 70.33333333 81 69 78 C68.37976734 72.85206892 68.27461467 69.1650128 71.0625 64.6875 C74.23716575 61.78301857 77.42227921 59.38514719 81 57 C81.6259465 65.87453034 81.21250929 72.58866545 76 80 C74.76286816 81.22150491 73.51272339 82.429969 72.25 83.625 C67.01819335 89.0951319 67.93951088 96.87956673 68 104 C68.02578125 103.34773438 68.0515625 102.69546875 68.078125 102.0234375 C68.13484375 101.14945312 68.1915625 100.27546875 68.25 99.375 C68.29640625 98.51648438 68.3428125 97.65796875 68.390625 96.7734375 C69.3080745 92.59786606 71.04805979 89.34566456 74.63964844 86.86962891 C76.48027504 85.86803861 78.33724202 84.98029828 80.25 84.125 C80.8996875 83.81820312 81.549375 83.51140625 82.21875 83.1953125 C83.80554705 82.44858448 85.40186792 81.72215059 87 81 C85.49381146 90.00508466 81.01893671 97.2388816 74 103 C72.948125 103.680625 71.89625 104.36125 70.8125 105.0625 C67.53276323 107.32187422 65.91853535 109.5318784 64 113 C64 113.99 64 114.98 64 116 C64.53367188 115.61328125 65.06734375 115.2265625 65.6171875 114.828125 C71.15693345 110.95605344 76.63693125 108.25829162 83 106 C81.51220989 112.28178046 77.83764251 116.95091626 74 122 C73.29875 122.928125 72.5975 123.85625 71.875 124.8125 C67.97745845 127.77802074 63.78819475 129.07862788 59.15625 130.59375 C55.51737219 132.21503219 53.66906778 134.06317543 51 137 C50.05255132 137.94711879 49.09924458 138.88840815 48.140625 139.82421875 C47.17707098 140.77863337 46.21352938 141.73306052 45.25 142.6875 C44.75628906 143.17283203 44.26257813 143.65816406 43.75390625 144.15820312 C41.03384724 146.81840217 41.03384724 146.81840217 39 150 C43.23044512 148.25165758 44.74811695 145.73242648 47.14453125 141.97265625 C51.72634274 137.1014672 58.1082182 136.44369096 64.4375 135.8125 C65.16904297 135.73064453 65.90058594 135.64878906 66.65429688 135.56445312 C68.43514466 135.36658115 70.21744927 135.18189293 72 135 C68.92422146 138.09736296 65.83671463 141.16836739 62.625 144.125 C61.91601562 144.78757813 61.20703125 145.45015625 60.4765625 146.1328125 C55.0772373 150.20359711 50.13897094 151.24539468 43.5 151.5625 C33.8641018 152.34369685 27.49756913 157.30144545 20 163 C19.34 163.33 18.68 163.66 18 164 C21.32033534 163.38407425 22.08317334 162.92069519 24.6875 160.4375 C30.45832348 156.06528221 39.1409414 157.43392005 46 158 C48.00562498 158.2976232 50.0090532 158.61627882 52 159 C49.35347607 162.1474731 46.20060805 163.49972268 42.5 165.1875 C41.3553125 165.71730469 40.210625 166.24710938 39.03125 166.79296875 C36 168 36 168 33 168 C33 168.66 33 169.32 33 170 C33.59167969 170.10957031 34.18335938 170.21914062 34.79296875 170.33203125 C43.59874954 172.09893343 43.59874954 172.09893343 47 175 C49.69699555 180.23495451 50.50045136 184.59623806 50.6875 190.4375 C50.72166016 191.16904297 50.75582031 191.90058594 50.79101562 192.65429688 C50.87251753 194.43569562 50.93795523 196.21781749 51 198 C51.92941406 197.95359375 52.85882813 197.9071875 53.81640625 197.859375 C66.2455043 197.49648163 66.2455043 197.49648163 72 202 C73.2065625 202.7734375 73.2065625 202.7734375 74.4375 203.5625 C77.03181323 207.60962863 76.63784777 212.32739423 76 217 C75.34 217.66 74.68 218.32 74 219 C73.61948486 218.1857959 73.23896973 217.3715918 72.84692383 216.53271484 C71.2532215 213.76596295 71.2532215 213.76596295 68.4597168 213.41650391 C67.46625244 213.43632324 66.47278809 213.45614258 65.44921875 213.4765625 C64.35802734 213.48816406 63.26683594 213.49976563 62.14257812 213.51171875 C60.43231445 213.56779297 60.43231445 213.56779297 58.6875 213.625 C57.55892578 213.63917969 56.43035156 213.65335938 55.26757812 213.66796875 C49.11796155 213.7757151 49.11796155 213.7757151 43.02075195 214.50878906 C39.86814313 215.02144153 36.91115174 215.12942045 33.71875 215.1328125 C31.96111328 215.13474609 31.96111328 215.13474609 30.16796875 215.13671875 C28.35232422 215.13091797 28.35232422 215.13091797 26.5 215.125 C25.28957031 215.12886719 24.07914063 215.13273438 22.83203125 215.13671875 C21.66027344 215.13542969 20.48851562 215.13414062 19.28125 215.1328125 C18.21970703 215.13168457 17.15816406 215.13055664 16.06445312 215.12939453 C12.94441842 214.9976531 10.04402382 214.70310938 7 214 C5.48454861 210.96909721 5.71089966 208.11990957 5.625 204.75 C5.57601562 203.44546875 5.52703125 202.1409375 5.4765625 200.796875 C6.14924414 195.91742313 7.77887148 194.60679698 11 191 C-4.63833153 188.78021905 -20.24719847 188.68843151 -36.00805664 188.73925781 C-39.60577374 188.75070477 -43.20319392 188.7440295 -46.80090046 188.73211288 C-49.62458956 188.72481098 -52.44821069 188.72721901 -55.27190208 188.73236847 C-57.2290657 188.73430407 -59.18623224 188.72835543 -61.14338684 188.72210693 C-74.93584533 188.46477094 -74.93584533 188.46477094 -88 192 C-87.34 192.45375 -86.68 192.9075 -86 193.375 C-83.35064293 196.85228116 -83.55991084 199.30151195 -83.56640625 203.5625 C-84.07982875 206.44876701 -84.99632937 207.88365352 -87 210 C-87.66 210 -88.32 210 -89 210 C-89 210.66 -89 211.32 -89 212 C-88.01 212.33 -87.02 212.66 -86 213 C-89.8070175 214.76390791 -92.78187938 215.24723875 -96.96484375 215.23046875 C-98.09470703 215.22853516 -99.22457031 215.22660156 -100.38867188 215.22460938 C-101.55978516 215.21236328 -102.73089844 215.20011719 -103.9375 215.1875 C-105.10474609 215.18685547 -106.27199219 215.18621094 -107.47460938 215.18554688 C-116.16454196 215.14098312 -116.16454196 215.14098312 -119.98901367 214.49560547 C-123.14179335 213.97666095 -126.08017386 213.88653551 -129.2734375 213.90234375 C-130.42714844 213.90556641 -131.58085937 213.90878906 -132.76953125 213.91210938 C-133.95933594 213.92048828 -135.14914063 213.92886719 -136.375 213.9375 C-138.19451172 213.94426758 -138.19451172 213.94426758 -140.05078125 213.95117188 C-143.03390507 213.96291646 -146.01692679 213.9793416 -149 214 C-149.99 215.98 -149.99 215.98 -151 218 C-151.99 217.67 -152.98 217.34 -154 217 C-154.56349657 211.81374458 -154.91373525 207.36741748 -151.625 203.0625 C-146.35319438 197.81544464 -139.55347803 196.85317126 -132.375 196.8125 C-130.91608919 196.85963404 -129.45726939 196.91628452 -128 197 C-128.02320313 195.90300781 -128.04640625 194.80601562 -128.0703125 193.67578125 C-128.08907921 192.221361 -128.10727844 190.76693336 -128.125 189.3125 C-128.14175781 188.59126953 -128.15851563 187.87003906 -128.17578125 187.12695312 C-128.21382062 182.9616423 -128.12335197 179.63004184 -126 176 C-122.46230025 172.51221488 -119.19972827 171.18900709 -114.4375 169.9375 C-113.21675781 169.61136719 -111.99601562 169.28523437 -110.73828125 168.94921875 C-109.50464844 168.63597656 -108.27101562 168.32273438 -107 168 C-105.81792969 167.69707031 -104.63585937 167.39414063 -103.41796875 167.08203125 C-100.61518429 166.37385439 -97.8098964 165.67931561 -95 165 C-96.28132813 165.0928125 -97.56265625 165.185625 -98.8828125 165.28125 C-111.16863471 165.89554111 -119.12992138 164.68295893 -129 157 C-130.36437979 155.69845349 -131.71076066 154.37601507 -133 153 C-129.95778935 152.91867358 -126.9177762 152.85934626 -123.875 152.8125 C-123.0190625 152.78736328 -122.163125 152.76222656 -121.28125 152.73632812 C-112.99388217 152.64070465 -107.98157067 155.44568438 -102 161 C-102 161.66 -102 162.32 -102 163 C-101.01 162.67 -100.02 162.34 -99 162 C-105.66435694 156.29855395 -112.31756247 151.24950449 -120 147 C-119.34 146.67 -118.68 146.34 -118 146 C-119.97517863 143.08652109 -121.98432391 140.19807604 -124 137.3125 C-124.82951172 136.08756836 -124.82951172 136.08756836 -125.67578125 134.83789062 C-129.49413915 129.41757798 -133.13483959 126.06522942 -139 123 C-140.41666667 122.16666667 -141.83333333 121.33333333 -143.25 120.5 C-143.87390625 120.1390625 -144.4978125 119.778125 -145.140625 119.40625 C-149.66893199 115.98148 -151.98352603 111.38076345 -154.3125 106.3125 C-154.84488281 105.17425781 -155.37726563 104.03601563 -155.92578125 102.86328125 C-156.28027344 101.91839844 -156.63476562 100.97351563 -157 100 C-156.505 99.01 -156.505 99.01 -156 98 C-139.19176079 107.69611457 -139.19176079 107.69611457 -136.1875 117.375 C-135.77696204 118.91281622 -135.37596023 120.45336687 -135 122 C-135 114.47416493 -138.30394962 103.31219869 -143.63671875 97.94140625 C-145.52288769 96.37431636 -147.43293864 94.8354688 -149.3671875 93.328125 C-154.66231703 88.64578494 -157.80548117 81.71594503 -158.875 74.75 C-158.91625 73.8425 -158.9575 72.935 -159 72 C-157.07623848 73.04959944 -155.16124686 74.11528137 -153.25 75.1875 C-152.18265625 75.77917969 -151.1153125 76.37085937 -150.015625 76.98046875 C-146.35979167 79.42874055 -143.96736555 82.0652689 -142 86 C-141.6011526 80.98486324 -142.51849258 78.53571371 -145.375 74.4375 C-149.83238486 67.97154048 -151.30829674 63.57630959 -151.125 55.6875 C-151.11597656 54.94693359 -151.10695313 54.20636719 -151.09765625 53.44335938 C-151.07424213 51.62876533 -151.03837615 49.81433929 -151 48 C-140.2701042 56.77078561 -140.2701042 56.77078561 -139.69140625 61.546875 C-139.57241758 66.72638167 -139.91662837 71.1822031 -142 76 C-138.77285461 71.15928191 -136.947891 65.65755885 -137.0625 59.8125 C-138.26836337 56.19490988 -140.05415697 53.28361011 -142 50 C-144.01003879 43.67728304 -143.33592333 36.412432 -142 30 C-141.34 29.67 -140.68 29.34 -140 29 C-130.84179489 39.18041934 -130.84179489 39.18041934 -130.609375 44.83984375 C-131.4634538 49.56289952 -133.76572735 53.7943103 -136 58 C-135.34 58 -134.68 58 -134 58 C-133.566875 56.63875 -133.566875 56.63875 -133.125 55.25 C-132 52 -132 52 -130.94140625 50.08203125 C-129.86166483 47.69405542 -129.76397125 46.04481753 -129.8125 43.4375 C-129.81894531 42.67308594 -129.82539063 41.90867188 -129.83203125 41.12109375 C-129.92946495 38.81102284 -129.92946495 38.81102284 -131 36 C-131.80020649 28.11599837 -130.44365572 22.08716646 -127 15 C-122.83762444 18.97155032 -119.80232681 23.217515 -119.5 29.0625 C-120.06129867 33.48272703 -121.12508085 35.63223757 -124 39 C-124.99 39.33 -125.98 39.66 -127 40 C-126.67 40.99 -126.34 41.98 -126 43 C-122.14320889 40.07446141 -118.49888173 36.87291675 -117.63574219 31.90234375 C-117.48581778 29.49131446 -117.43560425 27.10315883 -117.4375 24.6875 C-117.44438032 15.87897019 -115.95776632 9.89339706 -110 3 C-109.34 3 -108.68 3 -108 3 C-105.5046567 8.71849507 -103.9336847 13.72960244 -105 20 C-107.0050088 23.8026029 -108.42686262 25.61790841 -112 28 C-112.99 28 -113.98 28 -115 28 C-114.505 29.485 -114.505 29.485 -114 31 C-108.12908169 26.84503024 -102.38707007 22.66171011 -97.046875 17.8359375 C-96.37140625 17.23007812 -95.6959375 16.62421875 -95 16 C-94.514104 15.52030762 -94.02820801 15.04061523 -93.52758789 14.54638672 C-88.99168108 10.28413649 -84.95751444 8.70050777 -78.9375 7.375 C-73.11670367 6.04177196 -68.79297 4.63498845 -64 1 C-63.35604408 6.15164735 -63.46715549 9.95995829 -66.5 14.3125 C-69.76615524 18.19636781 -73.32700304 20.18122276 -78 22 C-78.74894531 22.3609375 -79.49789062 22.721875 -80.26953125 23.09375 C-83.1268659 24.04210714 -85.57676324 24.13738636 -88.57080078 24.12402344 C-97.86521757 24.12844199 -103.02921334 26.67377238 -110 33 C-111.20567806 33.96167179 -112.4135073 34.92066377 -113.625 35.875 C-116.04019849 37.77342668 -116.04019849 37.77342668 -117 40 C-116.57589844 39.566875 -116.15179688 39.13375 -115.71484375 38.6875 C-112.64995252 35.77753734 -110.81777106 34.13381708 -106.5625 33.4375 C-102.34562599 34.10332221 -98.9314439 35.3446552 -95 37 C-95 37.66 -95 38.32 -95 39 C-100.59363404 41.8632322 -104.43872731 42.19153593 -110.625 41.75 C-116.20837724 41.40486204 -116.20837724 41.40486204 -121.21484375 43.546875 C-122.77038889 45.65321134 -122.77038889 45.65321134 -124 49 C-123.67 48.67 -123.34 48.34 -123 48 C-120.46950598 47.92686433 -117.96695163 47.90752473 -115.4375 47.9375 C-114.72658203 47.94201172 -114.01566406 47.94652344 -113.28320312 47.95117188 C-111.52209987 47.96299136 -109.76103964 47.98092737 -108 48 C-109.56323709 51.54136175 -111.18091481 53.24324971 -114.6484375 55.1171875 C-119.57301914 56.96595071 -124.80699002 57.35756578 -130 58 C-131.65 62.62 -133.3 67.24 -135 72 C-134.34 72 -133.68 72 -133 72 C-132.9175 70.906875 -132.835 69.81375 -132.75 68.6875 C-132 65 -132 65 -130.375 63.28125 C-127.19929073 61.56803842 -124.835565 61.70493305 -121.25 61.8125 C-120.07953125 61.83957031 -118.9090625 61.86664063 -117.703125 61.89453125 C-116.81109375 61.92933594 -115.9190625 61.96414062 -115 62 C-116.84996702 66.03395586 -119.19683429 68.69951076 -123 71 C-125.55775553 71.89501554 -128.09394875 72.6028696 -130.73046875 73.2265625 C-133.40495736 74.13800612 -134.44400004 74.6268554 -136 77 C-136.37644848 79.62939205 -136.60133087 82.05072472 -136.6875 84.6875 C-136.72166016 85.38939453 -136.75582031 86.09128906 -136.79101562 86.81445312 C-136.87329947 88.54241387 -136.9383324 90.27118072 -137 92 C-136.34 92 -135.68 92 -135 92 C-135.06960937 91.40832031 -135.13921875 90.81664062 -135.2109375 90.20703125 C-135.51483853 85.77152329 -135.52795473 83.68927422 -132.75 80.0625 C-128.18631444 76.86571543 -122.39979683 76.58541487 -117 76 C-119.89390867 83.68152715 -123.24768969 88.54464192 -130.875 92 C-132.57450338 92.68886537 -134.28020238 93.36349127 -136 94 C-136.48452463 100.94485303 -134.69287491 107.2990368 -133 114 C-132.34 114 -131.68 114 -131 114 C-131.165 113.505 -131.33 113.01 -131.5 112.5 C-132.48118597 107.59407016 -132.90222467 103.65407855 -130.5 99.25 C-127.13405104 96.22064594 -122.69844445 93 -118 93 C-119.78368121 103.61814933 -122.54414032 109.21121004 -131 116 C-129.4763905 121.40188823 -127.07730789 126.314996 -124 131 C-123.34 131.33 -122.68 131.66 -122 132 C-122.33 131.030625 -122.66 130.06125 -123 129.0625 C-124.19380779 124.68520479 -125.05757712 120.48286421 -124 116 C-121.31726262 112.1552213 -118.4614898 109.48716327 -114 108 C-113.5522502 116.15899629 -113.52423448 122.02307139 -118 129 C-118.66 129.66 -119.32 130.32 -120 131 C-120.70289478 134.68858546 -120.04786821 135.92923048 -117.91796875 139.078125 C-117.02044693 140.14616275 -116.1097941 141.20327957 -115.1875 142.25 C-114.73568359 142.79140625 -114.28386719 143.3328125 -113.81835938 143.890625 C-111.59910945 146.48244973 -110.29200945 147.90266352 -107 149 C-108.53604696 145.85808576 -110.05731159 142.91403262 -112 140 C-112.88084292 135.78211754 -112.64992083 132.25260904 -110.65625 128.41015625 C-109.17774971 126.20286691 -107.6520755 124.07984505 -106 122 C-103.14552555 126.28171168 -102.84163436 129.26060206 -102.8125 134.3125 C-102.79832031 135.42238281 -102.78414062 136.53226563 -102.76953125 137.67578125 C-103.00715407 141.10318843 -103.84484733 143.7820747 -105 147 C-104.91563233 150.45907466 -104.20578141 151.7492039 -102 154.4375 C-98.22207083 157.66448117 -94.1912978 160.34277199 -90 163 C-92.0716779 159.4434381 -92.0716779 159.4434381 -94.58203125 156.1953125 C-97.30242167 151.98357857 -96.50219802 146.82882708 -96 142 C-95.24008644 139.63291293 -94.38871085 138.08306627 -93 136 C-89.72689406 138.64965719 -88.02991211 141.98616445 -87 146 C-86.3885047 152.82836415 -87.0529517 158.43458609 -89 165 C-88.03334412 164.8582988 -87.06668823 164.7165976 -86.07073975 164.57060242 C-76.25841035 163.19848083 -66.67085939 162.71581313 -56.765625 162.76953125 C-55.27024373 162.77072902 -53.7748617 162.77117496 -52.27947998 162.7709198 C-49.17699326 162.77246639 -46.07462493 162.78061551 -42.97216797 162.79418945 C-39.0300902 162.81123617 -35.08814077 162.81500085 -31.14603043 162.81424427 C-28.06936457 162.81451826 -24.99272579 162.82003495 -21.91606903 162.82724571 C-20.46345981 162.83038701 -19.01084759 162.83238892 -17.55823517 162.83313942 C-8.99477847 162.84242063 -0.52424604 163.1247482 8 164 C7.67 163.01 7.34 162.02 7 161 C5.72695986 151.75031595 8.6903478 145.06777153 13 137 C13.66 137 14.32 137 15 137 C17.2355392 142.3094056 17.62663749 147.32228454 17 153 C15.54858594 156.24840289 13.75028623 158.72802442 11 161 C10.34 161 9.68 161 9 161 C9 161.99 9 162.98 9 164 C11.27159689 162.70966095 13.54229625 161.41778598 15.8125 160.125 C16.45509766 159.76019531 17.09769531 159.39539063 17.75976562 159.01953125 C20.56768798 157.41916099 23.30964298 155.79357134 26 154 C25.76023438 152.74316406 25.76023438 152.74316406 25.515625 151.4609375 C24.16152165 142.37203166 23.9075041 133.35551247 28 125 C28.66 125 29.32 125 30 125 C33.04260083 130.86787302 34.87152771 135.35460119 34 142 C32.0625 145.25 32.0625 145.25 30 148 C29.35958728 150.10119085 29.35958728 150.10119085 29 152 C30.60902058 150.75625426 32.21203107 149.50473101 33.8125 148.25 C34.70582031 147.55390625 35.59914062 146.8578125 36.51953125 146.140625 C39.48770429 143.57911503 41.715539 141.54421684 42.4375 137.625 C42.18325289 134.81207097 42.18325289 134.81207097 39.98828125 132.421875 C37.39219786 127.95395939 37.54058765 124.67505943 37.75 119.625 C37.76804688 118.79355469 37.78609375 117.96210938 37.8046875 117.10546875 C37.85148427 115.06980926 37.92321702 113.0347491 38 111 C40 111 40 111 41.7265625 112.6171875 C45.91034799 117.5929653 47.91815608 121.04630676 47.4453125 127.625 C46.79351728 131.1012412 45.63467885 133.86686553 44 137 C48.07118515 133.27777358 51.84924501 129.15157029 54 124 C53.6979704 120.69025902 52.45367281 119.20245291 50.125 116.9375 C45.37934518 111.66708527 44 104.95257491 44 98 C46.82138266 99.36948012 49.5165959 100.85636671 52.1875 102.5 C52.88230469 102.9228125 53.57710937 103.345625 54.29296875 103.78125 C56 105 56 105 57 107 C57.27843054 111.82612943 56.75645727 115.49907826 55 120 C57.46507156 117.82107943 58.50780848 116.14760735 59.38671875 112.98828125 C59.7105957 111.85229492 59.7105957 111.85229492 60.04101562 110.69335938 C60.25435547 109.90767578 60.46769531 109.12199219 60.6875 108.3125 C60.91244141 107.51521484 61.13738281 106.71792969 61.36914062 105.89648438 C61.92160901 103.93345841 62.46198869 101.96703739 63 100 C62.08347656 99.72285156 61.16695312 99.44570312 60.22265625 99.16015625 C53.03384479 96.57218412 49.33446309 91.54554437 45.84765625 84.953125 C45 83 45 83 45 81 C57.0575087 83.97742334 57.0575087 83.97742334 61 87 C62.20272819 89.40545638 62.10071472 90.94996953 62.0625 93.625 C62.05347656 94.44226563 62.04445312 95.25953125 62.03515625 96.1015625 C62.01775391 97.04128906 62.01775391 97.04128906 62 98 C62.66 98 63.32 98 64 98 C63.9669923 95.39239154 63.8998852 92.79337154 63.8125 90.1875 C63.80669922 89.44951172 63.80089844 88.71152344 63.79492188 87.95117188 C63.74683485 85.50435338 63.74683485 85.50435338 63 82 C60.27960941 79.74738943 57.9592568 78.98566443 54.625 77.8125 C49.92209729 75.88389735 46.89948711 72.06255822 44 68 C43.67 67.01 43.34 66.02 43 65 C44.89772191 65.25726693 46.79315677 65.53143339 48.6875 65.8125 C49.74324219 65.96332031 50.79898438 66.11414063 51.88671875 66.26953125 C55.14278683 67.03350205 57.29710101 68.05005144 60 70 C61.8029458 73.34832791 62 75.11481261 62 79 C62.66 79 63.32 79 64 79 C62.02 71.575 62.02 71.575 60 64 C57.999375 63.62875 55.99875 63.2575 53.9375 62.875 C47.67756551 61.44669617 44.31770312 59.71934993 40 55 C40 54.34 40 53.68 40 53 C42.12493141 52.97306425 44.24995912 52.95363372 46.375 52.9375 C47.55835938 52.92589844 48.74171875 52.91429687 49.9609375 52.90234375 C53 53 53 53 55 54 C53.49243574 50.81092176 52.70030705 49.16024564 50 47 C46.45900351 46.38873057 43.05914781 46.30980353 39.46875 46.234375 C34.70251393 45.91233202 31.97746131 44.57365143 28 42 C27.67 41.34 27.34 40.68 27 40 C31.93199562 37.97661718 36.72459061 37.02055818 42 38 C45.0625 40.375 45.0625 40.375 47 43 C47 43.66 47 44.32 47 45 C47.66 45 48.32 45 49 45 C44.24494975 37.98863179 38.12155661 30.17342304 30 27 C27.96585258 26.67751321 25.92228372 26.41196123 23.875 26.1875 C16.23256799 25.07977671 9.21427399 22.92482042 4 16.9375 C1.05774166 12.61605806 -0.26420972 10.0399693 -0.125 4.75 C-0.10695312 3.85796875 -0.08890625 2.9659375 -0.0703125 2.046875 C-0.04710937 1.37140625 -0.02390625 0.6959375 0 0 Z " fill="#040404" transform="translate(185,45)"/>
<path d="M0 0 C10.1670157 2.47816091 18.07006389 6.00339508 24 15 C24.48339844 15.85078125 24.96679688 16.7015625 25.46484375 17.578125 C27.02665053 20.04204409 28.46415102 21.40910949 30.75 23.1875 C34.72457172 26.52991863 37.40326274 30.19731775 40.26953125 34.5 C43.22440082 38.76888606 46.61776542 42.96566601 50.578125 46.34765625 C54.70087692 51.13865642 54.33593735 57.41253711 54.3125 63.375 C54.32861328 64.18710938 54.34472656 64.99921875 54.36132812 65.8359375 C54.36590711 71.55050547 53.42760503 75.80698642 51 81 C49.5536424 82.18922736 48.10232201 83.37513088 46.59375 84.484375 C43.81802194 87.12403796 42.42903952 90.58959104 40.703125 93.96875 C38.25054663 98.33388948 35.16569575 102.12798212 32.09375 106.0703125 C30.13969822 108.80452674 28.78390181 111.3717067 27.4375 114.4375 C24.98223748 119.61256512 22.15151741 121.67350827 17 124 C15.52273437 124.69609375 15.52273437 124.69609375 14.015625 125.40625 C4.63354854 129.44637862 -3.63255316 130.82507917 -13.375 127.25 C-14.2825 126.88261719 -15.19 126.51523438 -16.125 126.13671875 C-23.29628084 123.30133461 -30.82870941 121.45539148 -38.3515625 119.8125 C-39.28436035 119.60488037 -40.2171582 119.39726074 -41.17822266 119.18334961 C-43.02088537 118.77792555 -44.8669114 118.38741912 -46.71630859 118.01391602 C-55.46392598 116.08489939 -59.45624925 112.15847085 -64.75 104.875 C-65.50796875 103.84117187 -66.2659375 102.80734375 -67.046875 101.7421875 C-71.01523326 96.1706125 -71.01523326 96.1706125 -70.6875 92.5 C-70 89 -70 89 -69 86 C-68.97307653 84.52340509 -69.00898698 83.04514673 -69.0859375 81.5703125 C-69.12904053 80.69842285 -69.17214355 79.8265332 -69.21655273 78.92822266 C-69.26884033 78.00315918 -69.32112793 77.0780957 -69.375 76.125 C-69.425354 75.18060059 -69.47570801 74.23620117 -69.52758789 73.26318359 C-69.67801919 70.50833687 -69.83795868 67.75418475 -70 65 C-70.03883301 64.29230469 -70.07766602 63.58460938 -70.11767578 62.85546875 C-70.46763434 56.56598101 -71.21839543 51.05745555 -73 45 C-74.03014651 37.27390117 -71.2026865 32.38989109 -67 26 C-66.43152344 25.11957031 -65.86304687 24.23914063 -65.27734375 23.33203125 C-62.51401035 19.64171977 -60.56825225 17.32730489 -55.94921875 16.36328125 C-53.70905882 16.24482391 -51.46582619 16.17552231 -49.22265625 16.15234375 C-45.19610966 15.96199791 -42.31003392 14.81057488 -38.671875 13.17578125 C-35.43917736 11.75320524 -32.14664634 10.60163759 -28.8125 9.4375 C-20.13906947 6.71006712 -20.13906947 6.71006712 -12.6875 1.8125 C-8.43953907 -1.05240388 -4.97117338 -0.8127774 0 0 Z " fill="#3B3A38" transform="translate(160,68)"/>
<path d="M0 0 C0.66 0 1.32 0 2 0 C2.804375 1.11375 2.804375 1.11375 3.625 2.25 C7.30543577 6.51155721 11.76211495 8.16299575 16.9765625 10.11328125 C23.81297331 12.71722432 27.80919213 15.02231393 32 21 C36.62048902 26.957999 42.00941836 31.44194875 48 36 C47.19907001 32.71995235 47.19907001 32.71995235 44 30.5 C41 28 41 28 40 25 C39.42262355 18.30243318 40.92687294 13.92674505 44 8 C44.66 8 45.32 8 46 8 C51.00570477 14.63255882 51.24902825 20.58515171 50.9375 28.5625 C50.6245617 36.87275037 51.19351679 41.69236199 57 48 C57 48.66 57 49.32 57 50 C57.66 50 58.32 50 59 50 C57.04116426 45.81454361 57.04116426 45.81454361 54.3125 42.125 C52.72612985 39.55659119 52.3464625 37.38102116 52.4375 34.37109375 C53.62702796 29.35690298 56.78252355 24.95997101 60 21 C60.66 21 61.32 21 62 21 C63.79137559 25.62474654 64.29740633 29.54927517 64.3125 34.5 C64.32925781 35.7684375 64.34601563 37.036875 64.36328125 38.34375 C63.97519328 42.24966761 62.86721689 44.59051046 61 48 C60.38378386 53.64864794 61.69361575 57.00283413 64 62 C64 62.99 64 63.98 64 65 C64.66 65 65.32 65 66 65 C65.505 64.05125 65.01 63.1025 64.5 62.125 C62.55050308 57.44052925 61.89276745 52.99034389 63 48 C65.84398934 43.3998861 69.65413863 40.14401917 74 37 C74.55054808 46.86092787 74.72144803 54.48717884 69 63 C66.83764496 66.24353256 66.78120572 66.61944481 67.2421875 70.23046875 C67.33886719 71.03291016 67.43554688 71.83535156 67.53515625 72.66210938 C67.64730469 73.49548828 67.75945312 74.32886719 67.875 75.1875 C68.03162109 76.4549707 68.03162109 76.4549707 68.19140625 77.74804688 C68.45059557 79.83334275 68.72394803 81.91686936 69 84 C70.33333333 81 70.33333333 81 69 78 C68.37976734 72.85206892 68.27461467 69.1650128 71.0625 64.6875 C74.23716575 61.78301857 77.42227921 59.38514719 81 57 C81.6259465 65.87453034 81.21250929 72.58866545 76 80 C74.76286816 81.22150491 73.51272339 82.429969 72.25 83.625 C67.01819335 89.0951319 67.93951088 96.87956673 68 104 C68.02578125 103.34773438 68.0515625 102.69546875 68.078125 102.0234375 C68.16320312 100.71246094 68.16320312 100.71246094 68.25 99.375 C68.29640625 98.51648438 68.3428125 97.65796875 68.390625 96.7734375 C69.3080745 92.59786606 71.04805979 89.34566456 74.63964844 86.86962891 C76.48027504 85.86803861 78.33724202 84.98029828 80.25 84.125 C80.8996875 83.81820312 81.549375 83.51140625 82.21875 83.1953125 C83.80554705 82.44858448 85.40186792 81.72215059 87 81 C85.49381146 90.00508466 81.01893671 97.2388816 74 103 C72.948125 103.680625 71.89625 104.36125 70.8125 105.0625 C67.53276323 107.32187422 65.91853535 109.5318784 64 113 C64 113.99 64 114.98 64 116 C64.53367187 115.61328125 65.06734375 115.2265625 65.6171875 114.828125 C71.15693345 110.95605344 76.63693125 108.25829162 83 106 C81.51220989 112.28178046 77.83764251 116.95091626 74 122 C73.29875 122.928125 72.5975 123.85625 71.875 124.8125 C67.97745845 127.77802074 63.78819475 129.07862788 59.15625 130.59375 C55.51737219 132.21503219 53.66906778 134.06317543 51 137 C50.05255132 137.94711879 49.09924458 138.88840815 48.140625 139.82421875 C47.17707098 140.77863337 46.21352938 141.73306052 45.25 142.6875 C44.75628906 143.17283203 44.26257813 143.65816406 43.75390625 144.15820312 C41.03384724 146.81840217 41.03384724 146.81840217 39 150 C43.23044512 148.25165758 44.74811695 145.73242648 47.14453125 141.97265625 C51.72634274 137.1014672 58.1082182 136.44369096 64.4375 135.8125 C65.53481445 135.6897168 65.53481445 135.6897168 66.65429688 135.56445312 C68.43514466 135.36658115 70.21744927 135.18189293 72 135 C68.92422146 138.09736296 65.83671463 141.16836739 62.625 144.125 C61.91601562 144.78757813 61.20703125 145.45015625 60.4765625 146.1328125 C55.05297363 150.22189055 50.04323451 151.26419372 43.375 151.625 C35.4903623 152.28066793 30.57538648 155.24973197 24.4765625 160.1015625 C22 162 22 162 20 162 C20.1875 159.6875 20.1875 159.6875 21 157 C23.5625 155.1875 23.5625 155.1875 26 154 C25.84015625 153.16210938 25.6803125 152.32421875 25.515625 151.4609375 C24.16152165 142.37203166 23.9075041 133.35551247 28 125 C28.66 125 29.32 125 30 125 C33.04260083 130.86787302 34.87152771 135.35460119 34 142 C32.0625 145.25 32.0625 145.25 30 148 C29.35958728 150.10119085 29.35958728 150.10119085 29 152 C30.60902058 150.75625426 32.21203107 149.50473101 33.8125 148.25 C34.70582031 147.55390625 35.59914062 146.8578125 36.51953125 146.140625 C39.48770429 143.57911503 41.715539 141.54421684 42.4375 137.625 C42.18325289 134.81207097 42.18325289 134.81207097 39.98828125 132.421875 C37.39219786 127.95395939 37.54058765 124.67505943 37.75 119.625 C37.76804688 118.79355469 37.78609375 117.96210938 37.8046875 117.10546875 C37.85148427 115.06980926 37.92321702 113.0347491 38 111 C40 111 40 111 41.7265625 112.6171875 C45.91034799 117.5929653 47.91815608 121.04630676 47.4453125 127.625 C46.79351728 131.1012412 45.63467885 133.86686553 44 137 C48.07118515 133.27777358 51.84924501 129.15157029 54 124 C53.6979704 120.69025902 52.45367281 119.20245291 50.125 116.9375 C45.37934518 111.66708527 44 104.95257491 44 98 C46.82138266 99.36948012 49.5165959 100.85636671 52.1875 102.5 C52.88230469 102.9228125 53.57710937 103.345625 54.29296875 103.78125 C56 105 56 105 57 107 C57.27843054 111.82612943 56.75645727 115.49907826 55 120 C57.46507156 117.82107943 58.50780848 116.14760735 59.38671875 112.98828125 C59.60263672 112.23095703 59.81855469 111.47363281 60.04101562 110.69335938 C60.25435547 109.90767578 60.46769531 109.12199219 60.6875 108.3125 C60.91244141 107.51521484 61.13738281 106.71792969 61.36914062 105.89648438 C61.92160901 103.93345841 62.46198869 101.96703739 63 100 C62.08347656 99.72285156 61.16695312 99.44570312 60.22265625 99.16015625 C53.03384479 96.57218412 49.33446309 91.54554437 45.84765625 84.953125 C45 83 45 83 45 81 C57.0575087 83.97742334 57.0575087 83.97742334 61 87 C62.20272819 89.40545638 62.10071472 90.94996953 62.0625 93.625 C62.05347656 94.44226563 62.04445312 95.25953125 62.03515625 96.1015625 C62.02355469 96.72804688 62.01195312 97.35453125 62 98 C62.66 98 63.32 98 64 98 C63.9669923 95.39239154 63.8998852 92.79337154 63.8125 90.1875 C63.80669922 89.44951172 63.80089844 88.71152344 63.79492188 87.95117188 C63.74683485 85.50435338 63.74683485 85.50435338 63 82 C60.27960941 79.74738943 57.9592568 78.98566443 54.625 77.8125 C49.92209729 75.88389735 46.89948711 72.06255822 44 68 C43.67 67.01 43.34 66.02 43 65 C44.89772191 65.25726693 46.79315677 65.53143339 48.6875 65.8125 C50.27111328 66.03873047 50.27111328 66.03873047 51.88671875 66.26953125 C55.14278683 67.03350205 57.29710101 68.05005144 60 70 C61.8029458 73.34832791 62 75.11481261 62 79 C62.66 79 63.32 79 64 79 C62.68 74.05 61.36 69.1 60 64 C57.999375 63.62875 55.99875 63.2575 53.9375 62.875 C47.67756551 61.44669617 44.31770312 59.71934993 40 55 C40 54.34 40 53.68 40 53 C42.12493141 52.97306425 44.24995912 52.95363372 46.375 52.9375 C47.55835938 52.92589844 48.74171875 52.91429687 49.9609375 52.90234375 C53 53 53 53 55 54 C53.49243574 50.81092176 52.70030705 49.16024564 50 47 C46.45900351 46.38873057 43.05914781 46.30980353 39.46875 46.234375 C34.70251393 45.91233202 31.97746131 44.57365143 28 42 C27.67 41.34 27.34 40.68 27 40 C31.93199562 37.97661718 36.72459061 37.02055818 42 38 C45.0625 40.375 45.0625 40.375 47 43 C47 43.66 47 44.32 47 45 C47.66 45 48.32 45 49 45 C44.24494975 37.98863179 38.12155661 30.17342304 30 27 C27.96585258 26.67751321 25.92228372 26.41196123 23.875 26.1875 C16.23256799 25.07977671 9.21427399 22.92482042 4 16.9375 C1.05774166 12.61605806 -0.26420972 10.0399693 -0.125 4.75 C-0.09792969 3.41195312 -0.09792969 3.41195312 -0.0703125 2.046875 C-0.04710937 1.37140625 -0.02390625 0.6959375 0 0 Z " fill="#1D1D1D" transform="translate(185,45)"/>
<path d="M0 0 C0.64395592 5.15164735 0.53284451 8.95995829 -2.5 13.3125 C-5.76615524 17.19636781 -9.32700304 19.18122276 -14 21 C-14.74894531 21.3609375 -15.49789062 21.721875 -16.26953125 22.09375 C-19.1268659 23.04210714 -21.57676324 23.13738636 -24.57080078 23.12402344 C-33.86521757 23.12844199 -39.02921334 25.67377238 -46 32 C-47.20567806 32.96167179 -48.4135073 33.92066377 -49.625 34.875 C-52.04019849 36.77342668 -52.04019849 36.77342668 -53 39 C-52.57589844 38.566875 -52.15179688 38.13375 -51.71484375 37.6875 C-48.64995252 34.77753734 -46.81777106 33.13381708 -42.5625 32.4375 C-38.34562599 33.10332221 -34.9314439 34.3446552 -31 36 C-31 36.66 -31 37.32 -31 38 C-36.59363404 40.8632322 -40.43872731 41.19153593 -46.625 40.75 C-52.20837724 40.40486204 -52.20837724 40.40486204 -57.21484375 42.546875 C-58.77038889 44.65321134 -58.77038889 44.65321134 -60 48 C-59.67 47.67 -59.34 47.34 -59 47 C-56.46950598 46.92686433 -53.96695163 46.90752473 -51.4375 46.9375 C-50.72658203 46.94201172 -50.01566406 46.94652344 -49.28320312 46.95117188 C-47.52209987 46.96299136 -45.76103964 46.98092737 -44 47 C-45.56323709 50.54136175 -47.18091481 52.24324971 -50.6484375 54.1171875 C-55.57301914 55.96595071 -60.80699002 56.35756578 -66 57 C-67.65 61.62 -69.3 66.24 -71 71 C-70.34 71 -69.68 71 -69 71 C-68.9175 69.906875 -68.835 68.81375 -68.75 67.6875 C-68 64 -68 64 -66.375 62.28125 C-63.19929073 60.56803842 -60.835565 60.70493305 -57.25 60.8125 C-56.07953125 60.83957031 -54.9090625 60.86664063 -53.703125 60.89453125 C-52.81109375 60.92933594 -51.9190625 60.96414062 -51 61 C-52.84996702 65.03395586 -55.19683429 67.69951076 -59 70 C-61.55775553 70.89501554 -64.09394875 71.6028696 -66.73046875 72.2265625 C-69.40495736 73.13800612 -70.44400004 73.6268554 -72 76 C-72.37644848 78.62939205 -72.60133087 81.05072472 -72.6875 83.6875 C-72.72166016 84.38939453 -72.75582031 85.09128906 -72.79101562 85.81445312 C-72.87329947 87.54241387 -72.9383324 89.27118072 -73 91 C-72.34 91 -71.68 91 -71 91 C-71.06960937 90.40832031 -71.13921875 89.81664062 -71.2109375 89.20703125 C-71.51483853 84.77152329 -71.52795473 82.68927422 -68.75 79.0625 C-64.18631444 75.86571543 -58.39979683 75.58541487 -53 75 C-55.89390867 82.68152715 -59.24768969 87.54464192 -66.875 91 C-68.57450338 91.68886537 -70.28020238 92.36349127 -72 93 C-72.10662326 98.11791642 -71.71167986 102.92928099 -71 108 C-72.485 108.495 -72.485 108.495 -74 109 C-74.17273438 108.38253906 -74.34546875 107.76507813 -74.5234375 107.12890625 C-76.35911334 101.59661714 -78.34287535 98.34489146 -82.875 94.625 C-89.3484164 89.23207999 -93.59612254 82.17353952 -94.875 73.75 C-94.91625 72.8425 -94.9575 71.935 -95 71 C-93.07623848 72.04959944 -91.16124686 73.11528137 -89.25 74.1875 C-88.18265625 74.77917969 -87.1153125 75.37085937 -86.015625 75.98046875 C-82.35979167 78.42874055 -79.96736555 81.0652689 -78 85 C-77.6011526 79.98486324 -78.51849258 77.53571371 -81.375 73.4375 C-85.83238486 66.97154048 -87.30829674 62.57630959 -87.125 54.6875 C-87.11597656 53.94693359 -87.10695313 53.20636719 -87.09765625 52.44335938 C-87.07424213 50.62876533 -87.03837615 48.81433929 -87 47 C-76.2701042 55.77078561 -76.2701042 55.77078561 -75.69140625 60.546875 C-75.57241758 65.72638167 -75.91662837 70.1822031 -78 75 C-74.77285461 70.15928191 -72.947891 64.65755885 -73.0625 58.8125 C-74.26836337 55.19490988 -76.05415697 52.28361011 -78 49 C-80.01003879 42.67728304 -79.33592333 35.412432 -78 29 C-77.34 28.67 -76.68 28.34 -76 28 C-66.84179489 38.18041934 -66.84179489 38.18041934 -66.609375 43.83984375 C-67.4634538 48.56289952 -69.76572735 52.7943103 -72 57 C-71.34 57 -70.68 57 -70 57 C-69.566875 55.63875 -69.566875 55.63875 -69.125 54.25 C-68 51 -68 51 -66.94140625 49.08203125 C-65.86166483 46.69405542 -65.76397125 45.04481753 -65.8125 42.4375 C-65.81894531 41.67308594 -65.82539062 40.90867188 -65.83203125 40.12109375 C-65.92946495 37.81102284 -65.92946495 37.81102284 -67 35 C-67.80020649 27.11599837 -66.44365572 21.08716646 -63 14 C-58.83762444 17.97155032 -55.80232681 22.217515 -55.5 28.0625 C-56.06129867 32.48272703 -57.12508085 34.63223757 -60 38 C-60.99 38.33 -61.98 38.66 -63 39 C-62.67 39.99 -62.34 40.98 -62 42 C-58.14320889 39.07446141 -54.49888173 35.87291675 -53.63574219 30.90234375 C-53.48581778 28.49131446 -53.43560425 26.10315883 -53.4375 23.6875 C-53.44438032 14.87897019 -51.95776632 8.89339706 -46 2 C-45.34 2 -44.68 2 -44 2 C-41.5046567 7.71849507 -39.9336847 12.72960244 -41 19 C-43.0050088 22.8026029 -44.42686262 24.61790841 -48 27 C-48.99 27 -49.98 27 -51 27 C-50.505 28.485 -50.505 28.485 -50 30 C-44.12908169 25.84503024 -38.38707007 21.66171011 -33.046875 16.8359375 C-32.37140625 16.23007812 -31.6959375 15.62421875 -31 15 C-30.27224365 14.28046143 -30.27224365 14.28046143 -29.52978516 13.54638672 C-24.97810032 9.26499508 -20.9188405 7.69802976 -14.875 6.375 C-10.59091893 5.40422301 -3.11223203 0 0 0 Z " fill="#171717" transform="translate(121,46)"/>
<path d="M0 0 C4.62629437 0.5353203 7.69845485 2.76005053 11.51953125 5.30859375 C12.61104492 6.01145508 12.61104492 6.01145508 13.72460938 6.72851562 C18.94723462 10.11129712 18.94723462 10.11129712 20.20703125 11.37109375 C20.71399063 19.22896422 20.22807949 27.63423743 15.11328125 33.9609375 C11.58198422 36.88944592 8.12683666 38.49737181 3.89453125 40.18359375 C2.81268555 40.65055664 2.81268555 40.65055664 1.70898438 41.12695312 C-3.36447933 43.19729033 -7.31482459 43.98286619 -12.79296875 43.37109375 C-16.05859375 41.796875 -16.05859375 41.796875 -19.04296875 39.68359375 C-20.038125 38.99910156 -21.03328125 38.31460938 -22.05859375 37.609375 C-25.8296782 34.52247302 -28.55429491 32.11000313 -29.23046875 27.18359375 C-28.67666035 22.35754914 -27.45732528 17.92898754 -25.79296875 13.37109375 C-25.59058594 12.69820312 -25.38820313 12.0253125 -25.1796875 11.33203125 C-22.89487585 8.10111449 -19.4922198 6.85034648 -15.98046875 5.18359375 C-15.26826172 4.82845703 -14.55605469 4.47332031 -13.82226562 4.10742188 C-9.16541004 1.83715093 -5.134329 0.68218357 0 0 Z " fill="#EBEBEB" transform="translate(140.79296875,76.62890625)"/>
<path d="M0 0 C3.26343424 1.15467838 5.80785133 2.78544543 8.66796875 4.734375 C9.69019531 5.42144531 10.71242188 6.10851562 11.765625 6.81640625 C18.65100865 11.92125052 18.65100865 11.92125052 19.60546875 16.921875 C21.97643293 38.50166766 21.97643293 38.50166766 17.328125 45.20703125 C14.48953157 47.18452117 11.76905152 48.54287738 8.60546875 49.921875 C7.72632812 50.63085938 6.8471875 51.33984375 5.94140625 52.0703125 C3.60546875 53.921875 3.60546875 53.921875 0.41796875 54.234375 C-6.23569139 52.83360444 -12.0906833 46.04002036 -15.95703125 40.734375 C-19.63877657 33.53096024 -19.66769769 22.8554573 -18.39453125 14.921875 C-16.69824526 11.3272376 -14.50772747 9.32933752 -11.39453125 6.921875 C-10.63785156 6.24253906 -9.88117188 5.56320313 -9.1015625 4.86328125 C-3.31604823 -0.10819081 -3.31604823 -0.10819081 0 0 Z " fill="#EBEBEB" transform="translate(110.39453125,110.078125)"/>
<path d="M0 0 C5.93902426 5.03428602 13.2710233 12.76601665 14.36328125 20.8515625 C14.39989163 28.34448686 13.27550649 35.30549026 9.0625 41.625 C6.61357985 42.23723004 4.56669368 42.46079058 2.0625 42.625 C0.98742187 42.7590625 -0.08765625 42.893125 -1.1953125 43.03125 C-10.36179532 43.74397869 -10.36179532 43.74397869 -14.6328125 40.7109375 C-16.98657431 38.13376778 -18.9799416 35.51320091 -20.9375 32.625 C-21.5459375 31.779375 -22.154375 30.93375 -22.78125 30.0625 C-26.75774109 24.36036183 -28.12958966 20.88428639 -27.625 13.8125 C-27.54636719 12.60980469 -27.46773437 11.40710938 -27.38671875 10.16796875 C-26.94667133 6.69733389 -26.32982559 3.83299342 -24.9375 0.625 C-17.2968389 -3.71968965 -7.1486851 -5.86261695 0 0 Z " fill="#EAEBEB" transform="translate(187.9375,90.375)"/>
<path d="M0 0 C1.52551697 0.31160187 3.04902811 0.63319397 4.5703125 0.96484375 C5.30008301 1.11324707 6.02985352 1.26165039 6.78173828 1.41455078 C10.27864378 2.24590898 12.37513885 3.08631594 14.9609375 5.6171875 C18.45269798 11.38876247 20.62674676 18.54257535 19.5703125 25.27734375 C17.6328125 27.90234375 17.6328125 27.90234375 14.5703125 30.27734375 C13.97347656 30.74527344 13.37664062 31.21320313 12.76171875 31.6953125 C5.84886839 36.36050641 -1.35226195 36.29402665 -9.4296875 35.27734375 C-22.68083227 32.19545608 -22.68083227 32.19545608 -26.4296875 27.27734375 C-27.81896343 24.37873101 -28.64779371 21.38968721 -29.4296875 18.27734375 C-29.60757813 17.60058594 -29.78546875 16.92382812 -29.96875 16.2265625 C-30.30190203 13.85166449 -30.26569313 12.54403942 -29.4296875 10.27734375 C-20.46190791 0.0613018 -13.19627528 -2.33559883 0 0 Z " fill="#D0D0D0" transform="translate(144.4296875,154.72265625)"/>
<path d="M0 0 C6.71838245 -0.3572552 6.71838245 -0.3572552 9.89453125 2.421875 C13.28117081 8.77182417 14.56340143 14.05417247 13.39453125 21.234375 C11.62404098 25.67818834 9.18864613 29.36673177 6.39453125 33.234375 C6.01393555 33.79463379 5.63333984 34.35489258 5.24121094 34.93212891 C-1.19650733 44.21618961 -1.19650733 44.21618961 -6.6015625 45.83056641 C-11.41435104 46.57566555 -15.89755259 46.45727853 -20.60546875 45.234375 C-25.81879993 40.24508781 -26.95987778 33.72056623 -28.23046875 26.859375 C-26.67624696 17.84488861 -20.09239596 9.49650771 -13.60546875 3.234375 C-9.28568754 0.35452086 -5.02230419 0.45178149 0 0 Z " fill="#CFD0D0" transform="translate(189.60546875,133.765625)"/>
<path d="M0 0 C0.33 0 0.66 0 1 0 C1.495 8.415 1.495 8.415 2 17 C3.46308594 16.59007812 4.92617188 16.18015625 6.43359375 15.7578125 C18.27607546 12.51228091 29.75019992 9.95367571 42 9 C41.34 9.66 40.68 10.32 40 11 C40.99 11.680625 40.99 11.680625 42 12.375 C44.64935707 15.85228116 44.44008916 18.30151195 44.43359375 22.5625 C43.92017125 25.44876701 43.00367063 26.88365352 41 29 C40.34 29 39.68 29 39 29 C39 29.66 39 30.32 39 31 C40.485 31.495 40.485 31.495 42 32 C38.1929825 33.76390791 35.21812062 34.24723875 31.03515625 34.23046875 C29.90529297 34.22853516 28.77542969 34.22660156 27.61132812 34.22460938 C25.8546582 34.20624023 25.8546582 34.20624023 24.0625 34.1875 C22.89525391 34.18685547 21.72800781 34.18621094 20.52539062 34.18554688 C11.83545804 34.14098312 11.83545804 34.14098312 8.01098633 33.49560547 C4.85820665 32.97666095 1.91982614 32.88653551 -1.2734375 32.90234375 C-2.42714844 32.90556641 -3.58085938 32.90878906 -4.76953125 32.91210938 C-6.55423828 32.92467773 -6.55423828 32.92467773 -8.375 32.9375 C-10.19451172 32.94426758 -10.19451172 32.94426758 -12.05078125 32.95117188 C-15.03390507 32.96291646 -18.01692679 32.9793416 -21 33 C-21.66 34.32 -22.32 35.64 -23 37 C-23.99 36.67 -24.98 36.34 -26 36 C-26.56349657 30.81374458 -26.91373525 26.36741748 -23.625 22.0625 C-18.35319438 16.81544464 -11.55347803 15.85317126 -4.375 15.8125 C-2.93125 15.874375 -1.4875 15.93625 0 16 C0 10.72 0 5.44 0 0 Z " fill="#0A0A0A" transform="translate(57,226)"/>
<path d="M0 0 C0.99 0 1.98 0 3 0 C3.50377768 2.26999825 4.00290019 4.54103003 4.5 6.8125 C4.7784375 8.07707031 5.056875 9.34164063 5.34375 10.64453125 C6 14 6 14 6 17 C10.41603145 12.88852244 12.90858792 8.63072482 15 3 C15.66 3 16.32 3 17 3 C16.67 7.29 16.34 11.58 16 16 C17.8871875 15.0409375 17.8871875 15.0409375 19.8125 14.0625 C22.21933783 12.8393529 24.42763485 11.85745505 27 11 C27.33 10.01 27.66 9.02 28 8 C28.99 8 29.98 8 31 8 C30.66332966 11.03003306 30.01013461 11.99042843 27.75 14.125 C23.25809373 18.82108383 20.49031529 24.6497851 18.875 30.9375 C17.96062932 34.13779739 17.64724598 35.11159182 15 37 C11.99731445 37.34057617 11.99731445 37.34057617 8.36328125 37.29296875 C7.06455078 37.28330078 5.76582031 37.27363281 4.42773438 37.26367188 C3.05598361 37.23860585 1.68423882 37.21321101 0.3125 37.1875 C-1.07094924 37.1724502 -2.45441401 37.1587623 -3.83789062 37.14648438 C-7.22565207 37.11107223 -10.61263139 37.06168054 -14 37 C-15.41256398 34.36591552 -16.12045482 32.42783962 -16.75 29.4375 C-18.18307278 23.38674827 -21.12480711 16.14360466 -26.1953125 12.36328125 C-26.79085937 11.91339844 -27.38640625 11.46351562 -28 11 C-28 10.01 -28 9.02 -28 8 C-27.01 8 -26.02 8 -25 8 C-23.33333333 9.66666667 -21.66666667 11.33333333 -20 13 C-17.39402896 14.79221057 -14.72297045 16.38467855 -12 18 C-12.33 14.37 -12.66 10.74 -13 7 C-13.66 7 -14.32 7 -15 7 C-15 5.68 -15 4.36 -15 3 C-14.01 3 -13.02 3 -12 3 C-11.59007812 3.85464844 -11.18015625 4.70929687 -10.7578125 5.58984375 C-10.21898437 6.69457031 -9.68015625 7.79929687 -9.125 8.9375 C-8.32449219 10.59072266 -8.32449219 10.59072266 -7.5078125 12.27734375 C-6.28340155 15.09404511 -6.28340155 15.09404511 -4 16 C-2.68 10.72 -1.36 5.44 0 0 Z " fill="#060606" transform="translate(149,13)"/>
<path d="M0 0 C0.33 0 0.66 0 1 0 C1.495 7.92 1.495 7.92 2 16 C5.2484375 15.87625 5.2484375 15.87625 8.5625 15.75 C14.7910751 15.75 18.11359101 16.17585384 23 20 C23.804375 20.515625 24.60875 21.03125 25.4375 21.5625 C28.03181323 25.60962863 27.63784777 30.32739423 27 35 C26.01 35.99 26.01 35.99 25 37 C24.61948486 36.1857959 24.23896973 35.3715918 23.84692383 34.53271484 C22.2532215 31.76596295 22.2532215 31.76596295 19.4597168 31.41650391 C18.46625244 31.43632324 17.47278809 31.45614258 16.44921875 31.4765625 C15.35802734 31.48816406 14.26683594 31.49976563 13.14257812 31.51171875 C12.00240234 31.54910156 10.86222656 31.58648437 9.6875 31.625 C8.55892578 31.63917969 7.43035156 31.65335937 6.26757812 31.66796875 C0.11796155 31.7757151 0.11796155 31.7757151 -5.97924805 32.50878906 C-9.13185687 33.02144153 -12.08884826 33.12942045 -15.28125 33.1328125 C-17.03888672 33.13474609 -17.03888672 33.13474609 -18.83203125 33.13671875 C-20.64767578 33.13091797 -20.64767578 33.13091797 -22.5 33.125 C-23.71042969 33.12886719 -24.92085937 33.13273437 -26.16796875 33.13671875 C-27.33972656 33.13542969 -28.51148438 33.13414062 -29.71875 33.1328125 C-30.78029297 33.13168457 -31.84183594 33.13055664 -32.93554688 33.12939453 C-36.05558158 32.9976531 -38.95597618 32.70310938 -42 32 C-43.53266582 28.93466836 -43.10276471 25.73245728 -43.0625 22.375 C-43.05798828 21.66859375 -43.05347656 20.9621875 -43.04882812 20.234375 C-43.03703875 18.48954725 -43.01910324 16.744763 -43 15 C-42.67 15 -42.34 15 -42 15 C-42 19.62 -42 24.24 -42 29 C-40.88963379 28.69707031 -39.77926758 28.39414063 -38.63525391 28.08203125 C-34.52477773 26.96132541 -30.4134085 25.84392741 -26.30175781 24.72753906 C-24.52058678 24.24341924 -22.73966091 23.75839647 -20.95898438 23.27246094 C-18.40297982 22.57511003 -15.84611805 21.88098572 -13.2890625 21.1875 C-12.09055161 20.85939331 -12.09055161 20.85939331 -10.86782837 20.5246582 C-5.22774341 19 -5.22774341 19 -3 19 C-3 18.34 -3 17.68 -3 17 C-4.65 16.67 -6.3 16.34 -8 16 C-4.98968256 15.06576355 -4.13349732 14.95550089 -1 16 C-0.67 10.72 -0.34 5.44 0 0 Z " fill="#171717" transform="translate(234,227)"/>
<path d="M0 0 C0.33 0 0.66 0 1 0 C1.309375 1.11375 1.61875 2.2275 1.9375 3.375 C2.82326483 6.7945155 2.82326483 6.7945155 4 9 C8.999992 8.5000008 12.58338968 7.36237296 17 5 C17.66 5 18.32 5 19 5 C17.45873646 8.85756246 15.05481733 10.94276149 11.9375 13.625 C8.48348875 16.43092091 8.48348875 16.43092091 6 20 C5.87421518 22.72046244 5.81481356 25.40424944 5.8125 28.125 C5.80025391 28.85976562 5.78800781 29.59453125 5.77539062 30.3515625 C5.75318394 38.76049285 7.1598855 44.94217661 13.06640625 51.16796875 C18.02543824 55.92158783 18.02543824 55.92158783 24.28515625 58.47265625 C29.02327242 57.64774682 32.11080301 54.00640012 35.56445312 50.82226562 C39.96465841 47.05413403 39.96465841 47.05413403 43.23193359 46.88330078 C45.44921875 47.16015625 45.44921875 47.16015625 49 48 C49 48.33 49 48.66 49 49 C47.88625 49 46.7725 49 45.625 49 C38.7506022 49.79792117 33.70508417 55.29491583 29 60 C28.29620849 66.56872079 29.43031677 72.36050044 33 78 C35.48344152 80.00399185 37.98360531 81.01751716 41 82 C42.03125 82.391875 43.0625 82.78375 44.125 83.1875 C50.02978837 84.42560079 55.98410089 84.68293458 62 85 C60.02 85.495 60.02 85.495 58 86 C58.33 86.99 58.66 87.98 59 89 C42.03925084 85.16387189 42.03925084 85.16387189 35.3125 82.70703125 C32.18929454 81.75213228 29.02204974 81.2234473 25.8125 80.625 C13.71115657 78.04666237 8.56664233 68.8499635 2 59 C2.31627097 55.45776514 2.87548091 52.37355726 4 49 C4.02692347 47.52340509 3.99101302 46.04514673 3.9140625 44.5703125 C3.87095947 43.69842285 3.82785645 42.8265332 3.78344727 41.92822266 C3.73115967 41.00315918 3.67887207 40.0780957 3.625 39.125 C3.54946899 37.70840088 3.54946899 37.70840088 3.47241211 36.26318359 C3.32198081 33.50833687 3.16204132 30.75418475 3 28 C2.94175049 26.93845703 2.94175049 26.93845703 2.88232422 25.85546875 C2.53236566 19.56598101 1.78160457 14.05745555 0 8 C-0.15813606 5.30689499 -0.09477747 2.70115799 0 0 Z " fill="#3D3C3A" transform="translate(87,105)"/>
<path d="M0 0 C8.61962599 2.35080709 12.90411044 10.27109699 17.234375 17.4296875 C19.27451762 20.39962963 21.43450042 22.31767201 24.421875 24.29296875 C29.32292987 29.59435731 29.47336573 36.69090553 29.375 43.5 C29.38660156 44.30308594 29.39820313 45.10617188 29.41015625 45.93359375 C29.38264327 51.59209752 28.39359294 55.85632155 26 61 C24.55505514 62.18806577 23.10522256 63.37294461 21.59765625 64.48046875 C18.80890675 67.13284908 17.39254151 70.60201328 15.65625 73.99609375 C12.90215908 78.99113129 9.45184585 83.47054744 6 88 C5.34 87.34 4.68 86.68 4 86 C4.51949219 85.38253906 5.03898438 84.76507813 5.57421875 84.12890625 C15.06756713 72.79951248 15.06756713 72.79951248 17.4375 58.66015625 C16.73609641 54.39537189 15.1213193 50.1213193 12 47 C8.87268987 46.97359328 5.76014433 47.0288204 2.63476562 47.12695312 C-1.43885187 47.19464765 -3.23580159 46.8820992 -7 45 C2.405 44.01 2.405 44.01 12 43 C16.76935999 30.82447252 16.76935999 30.82447252 14.8359375 18.3359375 C10.75329275 11.40590975 5.75023589 5.58594344 0 0 Z " fill="#42413F" transform="translate(185,88)"/>
<path d="M0 0 C10.4174177 0.1518943 22.57889261 2.02338637 32.125 6.375 C32.125 7.035 32.125 7.695 32.125 8.375 C28.35465234 9.48082949 24.58363228 10.58434947 20.8125 11.6875 C19.2337207 12.1505957 19.2337207 12.1505957 17.62304688 12.62304688 C14.45914942 13.54787844 11.29284401 14.46378333 8.125 15.375 C7.09971191 15.67196777 6.07442383 15.96893555 5.01806641 16.27490234 C4.0491748 16.54898926 3.0802832 16.82307617 2.08203125 17.10546875 C1.22198486 17.35063232 0.36193848 17.5957959 -0.52416992 17.84838867 C-2.875 18.375 -2.875 18.375 -6.875 18.375 C-6.92882106 15.74972811 -6.96858313 13.12555287 -7 10.5 C-7.01675781 9.75363281 -7.03351563 9.00726563 -7.05078125 8.23828125 C-7.0683959 6.28305539 -6.97820189 4.32757979 -6.875 2.375 C-4.35617742 -0.14382258 -3.50079925 0.04958639 0 0 Z " fill="#010101" transform="translate(198.875,237.625)"/>
<path d="M0 0 C0.66 0 1.32 0 2 0 C2.804375 1.11375 2.804375 1.11375 3.625 2.25 C7.30543577 6.51155721 11.76211495 8.16299575 16.9765625 10.11328125 C23.79560522 12.71060894 27.87415392 14.98314113 32 21 C33.12249439 22.48106899 34.24748644 23.96024843 35.375 25.4375 C36.25245401 26.62318786 37.1283774 27.81001879 38 29 C32.25 28.125 32.25 28.125 30 27 C28.00221788 26.73285472 26.00169451 26.48604888 24 26.25 C16.32543438 25.09541933 9.24315005 22.95797753 4 16.9375 C1.05774166 12.61605806 -0.26420972 10.0399693 -0.125 4.75 C-0.09792969 3.41195312 -0.09792969 3.41195312 -0.0703125 2.046875 C-0.04710937 1.37140625 -0.02390625 0.6959375 0 0 Z " fill="#0C0C0C" transform="translate(185,45)"/>
<path d="M0 0 C0.64395592 5.15164735 0.53284451 8.95995829 -2.5 13.3125 C-5.76615524 17.19636781 -9.32700304 19.18122276 -14 21 C-14.72445312 21.3609375 -15.44890625 21.721875 -16.1953125 22.09375 C-20.10314574 23.3564482 -23.7362068 23.21383791 -27.8125 23.125 C-28.99489258 23.11146484 -28.99489258 23.11146484 -30.20117188 23.09765625 C-32.13424666 23.07422504 -34.0671638 23.03835838 -36 23 C-33 19.5 -33 19.5 -30 16 C-29.59370361 15.43450439 -29.18740723 14.86900879 -28.76879883 14.28637695 C-24.80535585 9.05769946 -21.26034866 7.61441552 -14.9375 6.3125 C-10.61548256 5.36342025 -3.1268623 0 0 0 Z " fill="#0C0C0C" transform="translate(121,46)"/>
<path d="M0 0 C3.04221065 -0.08132642 6.0822238 -0.14065374 9.125 -0.1875 C9.9809375 -0.21263672 10.836875 -0.23777344 11.71875 -0.26367188 C20.00611783 -0.35929535 25.01842933 2.44568438 31 8 C31 8.66 31 9.32 31 10 C32.32 10.33 33.64 10.66 35 11 C23.81172482 13.40760352 16.58586317 12.1169175 7.03125 6.140625 C4.37260177 4.26312599 2.19553214 2.38925557 0 0 Z " fill="#0E0E0E" transform="translate(52,198)"/>
<path d="M0 0 C17.21582089 8.77913471 17.21582089 8.77913471 20.3125 18.25 C20.59738281 19.28640625 20.88226563 20.3228125 21.17578125 21.390625 C21.81949283 24.12701894 21.81949283 24.12701894 24 26 C23.34 26.33 22.68 26.66 22 27 C10.39531064 22.19741519 6.15176191 15.89406406 1.13671875 4.828125 C0 2 0 2 0 0 Z " fill="#0D0D0D" transform="translate(28,143)"/>
<path d="M0 0 C-16.17130621 15.21030646 -16.17130621 15.21030646 -25.1875 15.0625 C-27.0746875 15.0315625 -27.0746875 15.0315625 -29 15 C-28.58015669 10.24177579 -26.46503532 7.14672499 -23 4 C-17.38807823 0.65672746 -6.01129877 -3.00564938 0 0 Z " fill="#111111" transform="translate(257,181)"/>
<path d="M0 0 C17.10881348 2.95559559 17.10881348 2.95559559 22 8 C24.00482378 11.21165874 25.58339646 14.49254412 27 18 C21.37280524 18.2910618 17.87876655 18.144094 13 15 C10.625 12.8125 10.625 12.8125 8 10 C5.86058041 7.92056414 3.7192425 5.84318637 1.57421875 3.76953125 C0 2 0 2 0 0 Z " fill="#101010" transform="translate(37,173)"/>
<path d="M0 0 C0.33 0.66 0.66 1.32 1 2 C-0.13317103 4.19739251 -1.30745562 6.22985529 -2.625 8.3125 C-2.96917969 8.88162109 -3.31335938 9.45074219 -3.66796875 10.03710938 C-6.715813 14.93502883 -10.35138942 20.05829011 -16 22 C-18.75 22.125 -18.75 22.125 -21 22 C-20.93912884 20.60300686 -20.85011115 19.2072304 -20.75 17.8125 C-20.70359375 17.03519531 -20.6571875 16.25789063 -20.609375 15.45703125 C-19.62525504 11.48900911 -17.64922537 9.03241861 -14.17285156 6.85620117 C-12.05775188 5.73433748 -9.92043485 4.69794096 -7.75 3.6875 C-7.00492187 3.32849609 -6.25984375 2.96949219 -5.4921875 2.59960938 C-3.66674422 1.72199241 -1.8340658 0.85945177 0 0 Z " fill="#0C0C0C" transform="translate(267,151)"/>
<path d="M0 0 C10.69530857 8.74251346 10.69530857 8.74251346 11.34375 13.546875 C11.52420882 19.11102194 11.10784894 23.20873289 8 28 C3.55420258 24.03482933 0.45191238 19.9387585 -0.23706055 13.93383789 C-0.29335253 11.80187103 -0.26354501 9.69371009 -0.1875 7.5625 C-0.17396484 6.83095703 -0.16042969 6.09941406 -0.14648438 5.34570312 C-0.11153874 3.56347578 -0.05774805 1.78163427 0 0 Z " fill="#0D0D0D" transform="translate(34,93)"/>
<path d="M0 0 C0.66 0 1.32 0 2 0 C6.81036187 7.61067967 7.91034614 14.05259794 7 23 C6.67 23.66 6.34 24.32 6 25 C1.69385411 24.52153935 -0.24880549 23.34073619 -3 20 C-5.32017731 13.03946808 -3.97504599 8.05981677 -0.875 1.6875 C-0.58625 1.130625 -0.2975 0.57375 0 0 Z " fill="#111111" transform="translate(229,53)"/>
<path d="M0 0 C1.31999485 3.95998456 0.33101664 5.06928288 -1.5 8.75 C-4.68208199 14.84099222 -8.10906911 20.75821355 -14.9375 22.9375 C-15.618125 22.958125 -16.29875 22.97875 -17 23 C-17.10956696 21.45997544 -17.18629371 19.91760237 -17.25 18.375 C-17.29640625 17.51648438 -17.3428125 16.65796875 -17.390625 15.7734375 C-16.85035761 11.937539 -15.46349686 9.97539231 -13 7 C-9.765625 4.8828125 -9.765625 4.8828125 -6.25 3.125 C-5.07953125 2.52945313 -3.9090625 1.93390625 -2.703125 1.3203125 C-1.81109375 0.88460937 -0.9190625 0.44890625 0 0 Z " fill="#0B0B0B" transform="translate(271,126)"/>
<path d="M0 0 C1.01107131 18.10941062 1.01107131 18.10941062 -5 26 C-5.99 26.66 -6.98 27.32 -8 28 C-10.89408376 22.45300612 -12.39655786 17.25032886 -11 11 C-9.03664487 7.9005167 -6.68096235 5.48577451 -4 3 C-3.17435547 2.14728516 -3.17435547 2.14728516 -2.33203125 1.27734375 C-1 0 -1 0 0 0 Z " fill="#0A0A0A" transform="translate(259,82)"/>
<path d="M0 0 C0.66 0 1.32 0 2 0 C4.50626614 5.74352657 6.02565193 10.70622677 5 17 C2.36687769 22.68754418 -0.50747733 23.80811814 -6 26 C-6.62304694 16.70044748 -6.960896 9.63339315 -1.5078125 1.625 C-1.01023437 1.08875 -0.51265625 0.5525 0 0 Z " fill="#0D0D0D" transform="translate(75,48)"/>
<path d="M0 0 C0.62894395 8.91702762 0.04679554 15.46039334 -5 23 C-5.66 23.66 -6.32 24.32 -7 25 C-9.0625 24.8125 -9.0625 24.8125 -11 24 C-12.45371151 19.63886546 -12.62613918 15.55373948 -12 11 C-10.13786352 8.09725785 -4.06956564 0 0 0 Z " fill="#0A0A0A" transform="translate(266,102)"/>
<path d="M0 0 C0.66 0 1.32 0 2 0 C4.2355392 5.3094056 4.62663749 10.32228454 4 16 C2.54858594 19.24840289 0.75028623 21.72802442 -2 24 C-2.66 24 -3.32 24 -4 24 C-4 24.99 -4 25.98 -4 27 C-3.34 27.33 -2.68 27.66 -2 28 C-4.97 28 -7.94 28 -11 28 C-11 27.67 -11 27.34 -11 27 C-9.02 27 -7.04 27 -5 27 C-5.33 26.01 -5.66 25.02 -6 24 C-7.27304014 14.75031595 -4.3096522 8.06777153 0 0 Z " fill="#161616" transform="translate(198,182)"/>
<path d="M0 0 C-1.78368121 10.61814933 -4.54414032 16.21121004 -13 23 C-13.66 22.34 -14.32 21.68 -15 21 C-14.34 21 -13.68 21 -13 21 C-13.2475 20.2575 -13.2475 20.2575 -13.5 19.5 C-14.48118597 14.59407016 -14.90222467 10.65407855 -12.5 6.25 C-9.13405104 3.22064594 -4.69844445 0 0 0 Z " fill="#161616" transform="translate(67,138)"/>
<path d="M0 0 C3.27265652 2.64929337 4.97186985 5.98606723 6 10 C6.55335878 16.25463104 6.5908391 22.17061202 4 28 C3.34 27.67 2.68 27.34 2 27 C1.87625 26.4225 1.7525 25.845 1.625 25.25 C1.15125089 22.80958085 1.15125089 22.80958085 -1.0625 21 C-4.11202482 16.27815512 -3.64194578 11.46760716 -3 6 C-2.23583463 3.63763734 -1.38698872 2.08048309 0 0 Z " fill="#121212" transform="translate(92,181)"/>
<path d="M0 0 C0.4477498 8.15899629 0.47576552 14.02307139 -4 21 C-4.66 21.66 -5.32 22.32 -6 23 C-6.69748583 24.31747324 -7.36959957 25.64914193 -8 27 C-8 26.34 -8 25.68 -8 25 C-8.66 24.67 -9.32 24.34 -10 24 C-9.34 24 -8.68 24 -8 24 C-8.33 23.030625 -8.66 22.06125 -9 21.0625 C-10.19295058 16.68834788 -11.06446423 12.47863467 -10 8 C-7.90377178 5.06637512 -4.01656735 0 0 0 Z " fill="#111111" transform="translate(71,153)"/>
<path d="M0 0 C0.66 0 1.32 0 2 0 C5.04260083 5.86787302 6.87152771 10.35460119 6 17 C3.20930233 22.48172757 3.20930233 22.48172757 -0.1875 23.9375 C-1.0846875 23.9684375 -1.0846875 23.9684375 -2 24 C-4.26783071 21.73216929 -3.2452397 16.94108928 -3.25976562 13.87866211 C-3.19377694 8.56974541 -2.31669812 4.72992533 0 0 Z " fill="#111111" transform="translate(213,170)"/>
<path d="M0 0 C3.96134883 5.94202325 3.4796734 12.06871932 3 19 C2.2489612 22.19191491 1.24044683 24.95056821 0 28 C-0.99 27.67 -1.98 27.34 -3 27 C-2.34 27 -1.68 27 -1 27 C-2.53604696 23.85808576 -4.05731159 20.91403262 -6 18 C-6.88084292 13.78211754 -6.64992083 10.25260904 -4.65625 6.41015625 C-3.17774971 4.20286691 -1.6520755 2.07984505 0 0 Z " fill="#141414" transform="translate(79,167)"/>
<path d="M0 0 C2.82138266 1.36948012 5.5165959 2.85636671 8.1875 4.5 C9.22970703 5.13421875 9.22970703 5.13421875 10.29296875 5.78125 C12 7 12 7 13 9 C13.3793347 14.02618483 12.98263247 16.89888036 10 21 C6.58264366 19.58592151 5.00432189 18.09177313 3 15 C2.05078125 12.34375 2.05078125 12.34375 1.3125 9.5 C1.06113281 8.5615625 0.80976563 7.623125 0.55078125 6.65625 C0 4 0 4 0 0 Z " fill="#141414" transform="translate(229,143)"/>
<path d="M0 0 C12.0575087 2.97742334 12.0575087 2.97742334 16 6 C17.49297212 8.98594424 17.11755228 11.70853624 17 15 C16.67 15.66 16.34 16.32 16 17 C11.2334197 16.57941939 8.12554164 14.49373372 5 11 C0 3.42146597 0 3.42146597 0 0 Z " fill="#101010" transform="translate(230,126)"/>
<path d="M0 0 C2 0 2 0 3.7265625 1.6171875 C7.98521692 6.68200695 9.7740331 10.07501427 9.44140625 16.73828125 C8.97754149 19.11507503 8.18716245 20.89963566 7 23 C5.68 23 4.36 23 3 23 C-0.85193497 18.74988749 -0.35345065 14.07876845 -0.1875 8.6875 C-0.17396484 7.85154297 -0.16042969 7.01558594 -0.14648438 6.15429688 C-0.11131217 4.10258502 -0.05751048 2.05120725 0 0 Z " fill="#0E0E0E" transform="translate(223,156)"/>
<path d="M0 0 C-1.67984666 5.37550931 -5.12749197 11.25320458 -10.0234375 14.23046875 C-12.44273438 15.17236892 -14.42663353 15.1429648 -17 15 C-17.6930943 12.0791026 -18.19115359 9.94376534 -18 7 C-13.50738987 1.41459281 -7.02814179 0 0 0 Z " fill="#121212" transform="translate(68,121)"/>
<path d="M0 0 C1.89772191 0.25726693 3.79315677 0.53143339 5.6875 0.8125 C6.74324219 0.96332031 7.79898438 1.11414063 8.88671875 1.26953125 C12.13371358 2.0313732 14.2975728 3.06691244 17 5 C18.4783226 7.95664519 18.06032783 10.74229737 18 14 C12.49833194 13.77544212 9.61718965 12.51358589 5.578125 8.765625 C3.16395171 6.06461924 1.61771248 3.23542496 0 0 Z " fill="#161616" transform="translate(228,110)"/>
<path d="M0 0 C1.75570312 0.04060547 1.75570312 0.04060547 3.546875 0.08203125 C4.43890625 0.11683594 5.3309375 0.15164062 6.25 0.1875 C4.41682524 4.18637891 2.12337997 7.02750195 -1.75 9.1875 C-4.75170047 9.86324986 -7.67804244 10.1124077 -10.75 10.1875 C-11 6.875 -11 6.875 -10.75 3.1875 C-7.52342091 -0.29214412 -4.56532278 -0.13695968 0 0 Z " fill="#0E0E0E" transform="translate(63.75,106.8125)"/>
<path d="M0 0 C2.76579669 0.84134375 5.3282618 1.8750576 8 3 C8 3.66 8 4.32 8 5 C1.68284595 8.44572039 -3.90370975 8.31461385 -11 8 C-10.140625 3.2265625 -10.140625 3.2265625 -8.875 1.1875 C-5.84600846 -0.73086131 -3.52111762 -0.34633944 0 0 Z " fill="#111111" transform="translate(82,79)"/>
<path d="M0 0 C2.08153935 -0.13536022 4.16561206 -0.23215465 6.25 -0.3125 C7.41015625 -0.37050781 8.5703125 -0.42851563 9.765625 -0.48828125 C13 0 13 0 15.421875 2.26953125 C17 5 17 5 17 9 C10.06096078 9.56645218 6.33897572 7.80043125 1.0625 3.375 C0 2 0 2 0 0 Z " fill="#0E0E0E" transform="translate(225,98)"/>
<path d="M0 0 C1.38294718 0.01329757 2.76582404 0.03715018 4.1484375 0.0703125 C4.85484375 0.07933594 5.56125 0.08835937 6.2890625 0.09765625 C8.03399848 0.12123647 9.77876045 0.15710789 11.5234375 0.1953125 C9.93603995 3.84556 8.16805458 5.52332522 4.609375 7.4453125 C0.96207622 8.75670083 -2.66003718 8.50686559 -6.4765625 8.1953125 C-5.44752707 0.30604085 -5.44752707 0.30604085 0 0 Z " fill="#0E0E0E" transform="translate(65.4765625,92.8046875)"/>
<path d="M0 0 C0.33 0.99 0.66 1.98 1 3 C-0.14453125 4.54296875 -0.14453125 4.54296875 -1.8125 6.1875 C-5.27686554 9.94927047 -6.12429975 13.00850855 -7 18 C-6.34 18.33 -5.68 18.66 -5 19 C-8.3 19.66 -11.6 20.32 -15 21 C-14.11123392 16.55616961 -12.97948489 13.95896978 -11 10 C-10.23376154 7.68259587 -9.61475622 5.36444701 -9 3 C-8.67 4.32 -8.34 5.64 -8 7 C-4.04 3.535 -4.04 3.535 0 0 Z " fill="#2D2D2D" transform="translate(66,83)"/>
<path d="M0 0 C2.5625 1.8125 2.5625 1.8125 4 4 C4 4.99 4 5.98 4 7 C-2.7621501 7.33015923 -8.02239433 7.37864668 -14 4 C-14.33 3.34 -14.66 2.68 -15 2 C-10.0342054 -0.03724907 -5.31178301 -0.83658063 0 0 Z " fill="#101010" transform="translate(227,83)"/>
<path d="M0 0 C0.33 0 0.66 0 1 0 C1.309375 1.11375 1.61875 2.2275 1.9375 3.375 C2.82326483 6.7945155 2.82326483 6.7945155 4 9 C8.999992 8.5000008 12.58338968 7.36237296 17 5 C17.66 5 18.32 5 19 5 C18.3125 6.875 18.3125 6.875 17 9 C15.35008418 9.70710678 13.6792238 10.36562656 12 11 C10.16783658 12.30466143 8.40196311 13.66584411 6.6484375 15.07421875 C6.10445313 15.37972656 5.56046875 15.68523437 5 16 C4.01 15.67 3.02 15.34 2 15 C0.00813631 9.86308839 -0.1921227 5.47549707 0 0 Z " fill="#7C7B7B" transform="translate(87,105)"/>
<path d="M0 0 C0.66 0.33 1.32 0.66 2 1 C1.43410156 1.55429688 0.86820313 2.10859375 0.28515625 2.6796875 C-0.44832031 3.40414062 -1.18179688 4.12859375 -1.9375 4.875 C-2.66839844 5.59429687 -3.39929688 6.31359375 -4.15234375 7.0546875 C-7.66352383 10.75144792 -7.14970256 14.28329816 -7.125 19.125 C-7.12886719 19.85976562 -7.13273437 20.59453125 -7.13671875 21.3515625 C-7.12797741 26.31664537 -6.70218318 31.08471773 -6 36 C-8 35 -8 35 -9 32 C-9.36639102 28.85627461 -9.58342697 25.72158065 -9.77734375 22.5625 C-9.92084018 20.26655717 -10.11747305 17.97301907 -10.37890625 15.6875 C-10.62545234 12.55675604 -10.73678693 10.05697933 -10 7 C-7.3353988 4.23514647 -4.43935683 2.64490979 -1 1 C-0.67 0.67 -0.34 0.34 0 0 Z " fill="#666564" transform="translate(100,114)"/>
<path d="M0 0 C7.39898238 2.71243722 14.15476969 3.49097067 22.0625 3.625 C20.7425 3.955 19.4225 4.285 18.0625 4.625 C18.3925 5.615 18.7225 6.605 19.0625 7.625 C10.25023425 5.63186986 1.59940936 3.61291828 -6.9375 0.625 C-8.59589874 0.25270641 -10.25951275 -0.1043569 -11.9375 -0.375 C-11.9375 -0.705 -11.9375 -1.035 -11.9375 -1.375 C-7.26710414 -2.84056846 -4.48265009 -1.73182426 0 0 Z " fill="#686766" transform="translate(126.9375,186.375)"/>
<path d="M0 0 C0.33 0 0.66 0 1 0 C1.33 5.61 1.66 11.22 2 17 C3.32 17.33 4.64 17.66 6 18 C5.01 18 4.02 18 3 18 C3 18.66 3 19.32 3 20 C7.455 20.99 7.455 20.99 12 22 C8.05097194 22.98725702 7.33689646 23.09892472 3.8125 21.75 C3.11769531 21.49734375 2.42289063 21.2446875 1.70703125 20.984375 C0 20 0 20 -1 17 C-3.97 17 -6.94 17 -10 17 C-10 16.67 -10 16.34 -10 16 C-6.7 16 -3.4 16 0 16 C0 10.72 0 5.44 0 0 Z " fill="#5F5F5F" transform="translate(57,226)"/>
<path d="M0 0 C3.41255379 1.13751793 3.69510839 1.65297099 5.48046875 4.59765625 C5.92197266 5.31630859 6.36347656 6.03496094 6.81835938 6.77539062 C7.27017578 7.53013672 7.72199219 8.28488281 8.1875 9.0625 C8.65091797 9.82111328 9.11433594 10.57972656 9.59179688 11.36132812 C10.73566706 13.23633183 11.87128255 15.11584922 13 17 C12.01 17 11.02 17 10 17 C8.12409882 14.95571084 6.4703891 12.95894211 4.8125 10.75 C4.34908203 10.16347656 3.88566406 9.57695312 3.40820312 8.97265625 C0.8585904 5.63074856 0 4.32544608 0 0 Z " fill="#7C7B7B" transform="translate(92,162)"/>
<path d="M0 0 C0.33 0.66 0.66 1.32 1 2 C1.66 2.33 2.32 2.66 3 3 C2.67 3.66 2.34 4.32 2 5 C1.87851695 6.62165752 1.82456348 8.24884327 1.8125 9.875 C1.79832031 10.73867187 1.78414062 11.60234375 1.76953125 12.4921875 C2.01369077 15.14897416 2.76686094 16.67019577 4 19 C4 19.99 4 20.98 4 22 C3.34 22 2.68 22 2 22 C-1.07808287 15.17050363 -3.54003623 9.52385643 -1 2.0625 C-0.505 1.0415625 -0.505 1.0415625 0 0 Z " fill="#C9C9C9" transform="translate(247,88)"/>
<path d="M0 0 C-2.83164922 1.51926385 -5.52386107 2.48923348 -8.625 3.3125 C-13.41090111 4.67180919 -17.48186761 6.71176993 -21.7734375 9.20703125 C-24 10 -24 10 -26.2890625 9.13671875 C-26.85367188 8.76160156 -27.41828125 8.38648437 -28 8 C-22.24810993 5.62767668 -16.45164408 3.36944412 -10.625 1.1875 C-9.46226562 0.74792969 -8.29953125 0.30835937 -7.1015625 -0.14453125 C-4.10822209 -0.97015033 -2.82634852 -1.13471628 0 0 Z " fill="#767574" transform="translate(142,76)"/>
<path d="M0 0 C0.66 0.33 1.32 0.66 2 1 C1.34 1.66 0.68 2.32 0 3 C3.3 3.33 6.6 3.66 10 4 C10 4.33 10 4.66 10 5 C8.62328125 5.00386719 8.62328125 5.00386719 7.21875 5.0078125 C-0.12957548 5.23937738 -4.98356783 5.54947611 -10.3515625 10.8203125 C-10.89554688 11.20960938 -11.43953125 11.59890625 -12 12 C-14.10302734 11.57373047 -14.10302734 11.57373047 -16 11 C-14.92878906 10.28972656 -13.85757813 9.57945312 -12.75390625 8.84765625 C-11.35673055 7.91933146 -9.95959733 6.99094274 -8.5625 6.0625 C-7.85544922 5.59392578 -7.14839844 5.12535156 -6.41992188 4.64257812 C-5.74638672 4.19462891 -5.07285156 3.74667969 -4.37890625 3.28515625 C-3.7557251 2.87144775 -3.13254395 2.45773926 -2.49047852 2.03149414 C-1.01980114 1.0794855 -1.01980114 1.0794855 0 0 Z " fill="#AFAFAF" transform="translate(218,198)"/>
<path d="M0 0 C0.99 0 1.98 0 3 0 C3.6212008 7.70288993 1.8741903 12.3723673 -2 19 C-2.66 19 -3.32 19 -4 19 C-3.46059633 16.30298166 -2.64475866 14.26109801 -1.4375 11.75 C0.35646517 7.7353498 0.22915308 4.3539086 0 0 Z " fill="#E9E9E9" transform="translate(53,84)"/>
<path d="M0 0 C0.66 0.33 1.32 0.66 2 1 C2.11472656 1.71800781 2.22945313 2.43601563 2.34765625 3.17578125 C3.21689283 6.93900309 5.07827204 9.14881438 7.4375 12.1875 C8.24058594 13.23292969 9.04367188 14.27835938 9.87109375 15.35546875 C11.89550672 17.96710332 11.89550672 17.96710332 14 20 C13.01 20 12.02 20 11 20 C9.17526956 18.14569532 7.56185306 16.32934594 5.9375 14.3125 C5.26750977 13.51682617 5.26750977 13.51682617 4.58398438 12.70507812 C2.07004668 9.64250829 0.05421271 6.84362024 -1 3 C-0.67 2.01 -0.34 1.02 0 0 Z " fill="#565654" transform="translate(91,161)"/>
<path d="M0 0 C6.13058255 1.67197706 10.24610056 6.2306851 13.55859375 11.4609375 C14.75971308 13.61818864 15.90998982 15.78481802 17 18 C16.34 18.33 15.68 18.66 15 19 C14.5875 18.28714844 14.175 17.57429688 13.75 16.83984375 C10.24374479 11.0247821 6.836455 6.47179922 1.50390625 2.2421875 C1.00761719 1.83226563 0.51132813 1.42234375 0 1 C0 0.67 0 0.34 0 0 Z " fill="#6D6D6B" transform="translate(185,88)"/>
<path d="M0 0 C0.3152595 5.98993047 -0.31780178 9.63560356 -3 15 C-3.66 15 -4.32 15 -5 15 C-4.34 12.03 -3.68 9.06 -3 6 C-3.99 6 -4.98 6 -6 6 C-2.61538462 0 -2.61538462 0 0 0 Z " fill="#212121" transform="translate(247,159)"/>
<path d="M0 0 C3.84516615 3.54938414 7.15122083 7.61288008 10 12 C10 12.66 10 13.32 10 14 C8.35 14.33 6.7 14.66 5 15 C5.33 14.34 5.66 13.68 6 13 C4.84840096 10.58041573 4.84840096 10.58041573 3.1875 8 C2.64480469 7.113125 2.10210937 6.22625 1.54296875 5.3125 C0.06598531 2.93549599 0.06598531 2.93549599 -2 1 C-1.34 0.67 -0.68 0.34 0 0 Z " fill="#B4B4B4" transform="translate(57,177)"/>
<path d="M0 0 C0.66 0.33 1.32 0.66 2 1 C-1.94472808 8.00247588 -5.96194024 14.72549334 -11 21 C-11.66 20.34 -12.32 19.68 -13 19 C-12.48050781 18.38253906 -11.96101562 17.76507813 -11.42578125 17.12890625 C-6.94528543 11.68771262 -3.16551287 6.30058811 0 0 Z " fill="#626260" transform="translate(202,155)"/>
<path d="M0 0 C0 0.33 0 0.66 0 1 C-1.11375 1 -2.2275 1 -3.375 1 C-8.73041832 1.60141061 -11.89910974 4.79998971 -15.80078125 8.28515625 C-18 10 -18 10 -21 10 C-9.38095238 -2.3452381 -9.38095238 -2.3452381 0 0 Z " fill="#6D6C6B" transform="translate(136,153)"/>
<path d="M0 0 C0.66 0.33 1.32 0.66 2 1 C1.16855469 1.77923828 1.16855469 1.77923828 0.3203125 2.57421875 C-0.76636719 3.62029297 -0.76636719 3.62029297 -1.875 4.6875 C-2.95394531 5.71423828 -2.95394531 5.71423828 -4.0546875 6.76171875 C-6.08335887 9.09591291 -7.02992733 11.08467634 -8 14 C-8.33 14 -8.66 14 -9 14 C-9.33 11.69 -9.66 9.38 -10 7 C-9.36191406 6.57847656 -8.72382812 6.15695313 -8.06640625 5.72265625 C-7.24011719 5.17480469 -6.41382812 4.62695312 -5.5625 4.0625 C-4.73878906 3.51722656 -3.91507812 2.97195312 -3.06640625 2.41015625 C-1.10014075 1.16197019 -1.10014075 1.16197019 0 0 Z " fill="#4F4E4D" transform="translate(100,114)"/>
<path d="M0 0 C0.33 0.66 0.66 1.32 1 2 C-1.97 2.66 -4.94 3.32 -8 4 C-8 3.34 -8 2.68 -8 2 C-10.64 2 -13.28 2 -16 2 C-16 1.67 -16 1.34 -16 1 C-10.59255982 0.22750855 -5.46137814 -0.09752461 0 0 Z " fill="#BFBFBF" transform="translate(90,209)"/>
<path d="M0 0 C0.33 0.99 0.66 1.98 1 3 C1.66 3 2.32 3 3 3 C2.71517632 4.41805831 2.42181856 5.83440379 2.125 7.25 C1.96257813 8.03890625 1.80015625 8.8278125 1.6328125 9.640625 C1.00849925 11.96831144 0.15161458 13.89031952 -1 16 C-1.66 15.67 -2.32 15.34 -3 15 C-2.690625 14.195625 -2.38125 13.39125 -2.0625 12.5625 C-0.81434483 8.37750913 -0.3662304 4.33693899 0 0 Z " fill="#BFBFBF" transform="translate(45,106)"/>
<path d="M0 0 C0.66 0.66 1.32 1.32 2 2 C1.2575 2.721875 0.515 3.44375 -0.25 4.1875 C-3.01552388 6.89699658 -3.01552388 6.89699658 -5.125 9.8125 C-5.74375 10.534375 -6.3625 11.25625 -7 12 C-7.99 12 -8.98 12 -10 12 C-8.52278578 8.54798361 -6.56205999 6.35038064 -3.875 3.75 C-3.15054688 3.04359375 -2.42609375 2.3371875 -1.6796875 1.609375 C-1.12539062 1.07828125 -0.57109375 0.5471875 0 0 Z " fill="#C6C6C6" transform="translate(234,183)"/>
<path d="M0 0 C0.66 0.33 1.32 0.66 2 1 C1.38125 1.5775 0.7625 2.155 0.125 2.75 C-2.05759217 4.80950544 -2.05759217 4.80950544 -2.9375 7.125 C-4.42234691 9.74531808 -6.2056545 10.11757511 -9 11 C-7.44095325 7.17324889 -4.96833913 4.81992217 -2 2 C-1.34 1.34 -0.68 0.68 0 0 Z " fill="#1A1A1A" transform="translate(220,192)"/>
<path d="M0 0 C5 3.33333333 10 6.66666667 15 10 C14.34 10.66 13.68 11.32 13 12 C11.24972675 10.72954304 9.49979256 9.45861894 7.75 8.1875 C6.77546875 7.47980469 5.8009375 6.77210937 4.796875 6.04296875 C2.51810991 4.37845179 0.25234178 2.69998177 -2 1 C-1.34 0.67 -0.68 0.34 0 0 Z " fill="#6C6B69" transform="translate(113,109)"/>
<path d="M0 0 C1.16144531 0.38027344 2.32289063 0.76054687 3.51953125 1.15234375 C4.39996094 1.45269531 5.28039062 1.75304687 6.1875 2.0625 C3.869402 3.51853888 2.74330542 4.17087709 0.00390625 3.63671875 C-0.73988281 3.34410156 -1.48367187 3.05148438 -2.25 2.75 C-5.43547647 1.56201703 -8.44162617 0.60618933 -11.8125 0.0625 C-11.8125 -0.2675 -11.8125 -0.5975 -11.8125 -0.9375 C-7.31069881 -2.28549697 -4.40166468 -1.46722156 0 0 Z " fill="#747372" transform="translate(126.8125,185.9375)"/>
<path d="M0 0 C0.66 0.33 1.32 0.66 2 1 C1.67 1.33 1.34 1.66 1 2 C1.66 2.66 2.32 3.32 3 4 C2.0925 4.2475 1.185 4.495 0.25 4.75 C-3.12772697 6.04912576 -4.57519053 7.40198985 -7 10 C-7.66 10 -8.32 10 -9 10 C-7.61811547 6.78956118 -6.07578097 4.95063635 -3.375 2.75 C-2.74335937 2.22921875 -2.11171875 1.7084375 -1.4609375 1.171875 C-0.73777344 0.59179688 -0.73777344 0.59179688 0 0 Z " fill="#C5C5C5" transform="translate(77,75)"/>
<path d="M0 0 C0.33 0.66 0.66 1.32 1 2 C1.66 2.33 2.32 2.66 3 3 C-0.63 5.31 -4.26 7.62 -8 10 C-8 8.68 -8 7.36 -8 6 C-6.20963542 5.0234375 -4.41927083 4.046875 -2.62890625 3.0703125 C-0.83381685 2.08589976 -0.83381685 2.08589976 0 0 Z " fill="#CFCFCF" transform="translate(78,67)"/>
<path d="M0 0 C0.33 0 0.66 0 1 0 C1.38863565 2.12254855 1.76053209 4.24816828 2.125 6.375 C2.33382812 7.55835937 2.54265625 8.74171875 2.7578125 9.9609375 C2.83773437 10.96382812 2.91765625 11.96671875 3 13 C2.34 13.66 1.68 14.32 1 15 C-0.96263236 9.4584498 -1.01603857 5.79141983 0 0 Z " fill="#C3C3C3" transform="translate(253,115)"/>
<path d="M0 0 C3.35435922 1.38801071 5.11290303 2.88629 7 6 C7 6.99 7 7.98 7 9 C6.34 9 5.68 9 5 9 C3.7109375 7.5390625 3.7109375 7.5390625 2.375 5.625 C1.92898437 4.99851562 1.48296875 4.37203125 1.0234375 3.7265625 C0 2 0 2 0 0 Z " fill="#CCCCCC" transform="translate(237,86)"/>
<path d="M0 0 C0.66 0 1.32 0 2 0 C1.67 3.96 1.34 7.92 1 12 C0.67 12 0.34 12 0 12 C-0.33 10.35 -0.66 8.7 -1 7 C-1.99 7.495 -1.99 7.495 -3 8 C-1.125 1.125 -1.125 1.125 0 0 Z " fill="#424242" transform="translate(164,16)"/>
<path d="M0 0 C1.25 1.5625 1.25 1.5625 2 4 C0.93237266 6.57001015 -0.46544943 8.6530403 -2 11 C-2.66 11 -3.32 11 -4 11 C-3.21681311 7.08406554 -1.60820142 3.63593365 0 0 Z " fill="#C3C3C3" transform="translate(53,92)"/>
<path d="M0 0 C0.66 0.66 1.32 1.32 2 2 C0.92892883 2.86949317 -0.15745944 3.72014205 -1.25 4.5625 C-1.85328125 5.03816406 -2.4565625 5.51382813 -3.078125 6.00390625 C-5 7 -5 7 -9 6 C-6.03 4.02 -3.06 2.04 0 0 Z " fill="#CDCDCD" transform="translate(211,203)"/>
<path d="M0 0 C2.56616632 3.84924948 2.55097676 6.4349304 3 11 C2.34 11 1.68 11 1 11 C0.63743142 9.5437328 0.28520207 8.08488815 -0.0625 6.625 C-0.35833984 5.40683594 -0.35833984 5.40683594 -0.66015625 4.1640625 C-1 2 -1 2 0 0 Z " fill="#D2D2D2" transform="translate(246,113)"/>
<path d="M0 0 C0.66 0.99 1.32 1.98 2 3 C-0.31 4.98 -2.62 6.96 -5 9 C-5 5 -5 5 -2.5 2.25 C-1.675 1.5075 -0.85 0.765 0 0 Z " fill="#DADADA" transform="translate(63,80)"/>
<path d="M0 0 C0.99 0 1.98 0 3 0 C3.95024979 3.69541586 3.95024979 6.30458414 3 10 C2.67 10 2.34 10 2 10 C2 8.02 2 6.04 2 4 C1.34 4 0.68 4 0 4 C0 2.68 0 1.36 0 0 Z " fill="#393939" transform="translate(134,16)"/>
<path d="M0 0 C-1.75 3.875 -1.75 3.875 -4 5 C-6.125 4.0625 -6.125 4.0625 -8 3 C-2.25 0 -2.25 0 0 0 Z " fill="#6D6D6C" transform="translate(106,110)"/>
<path d="M0 0 C1.32 1.32 2.64 2.64 4 4 C3.67 4.33 3.34 4.66 3 5 C2.63239269 7.32817964 2.29758419 9.6618385 2 12 C1.67 12 1.34 12 1 12 C0.67 8.04 0.34 4.08 0 0 Z " fill="#535251" transform="translate(201,106)"/>
<path d="M0 0 C1.39195915 4.17587745 -0.17676781 6.13474776 -2 10 C-2.66 10 -3.32 10 -4 10 C-2.8905928 6.51329166 -1.73662334 3.22515763 0 0 Z " fill="#C6C6C6" transform="translate(246,164)"/>
<path d="M0 0 C0.33 0 0.66 0 1 0 C0.67 2.97 0.34 5.94 0 9 C-0.66 9 -1.32 9 -2 9 C-1.125 2.25 -1.125 2.25 0 0 Z " fill="#CDCDCD" transform="translate(52,108)"/>
<path d="M0 0 C2.5 1.3125 2.5 1.3125 5 3 C5 3.99 5 4.98 5 6 C1.83884224 4.63016497 1.0072908 4.0109362 -1 1 C-0.67 0.67 -0.34 0.34 0 0 Z " fill="#D7D7D7" transform="translate(228,75)"/>
<path d="M0 0 C0.99 0 1.98 0 3 0 C2.6875 1.9375 2.6875 1.9375 2 4 C1.01 4.33 0.02 4.66 -1 5 C-1.66 4.34 -2.32 3.68 -3 3 C-2.34 3 -1.68 3 -1 3 C-0.67 2.01 -0.34 1.02 0 0 Z " fill="#464646" transform="translate(177,21)"/>
</svg>
