<?xml version="1.0" encoding="UTF-8"?>
<svg version="1.1" xmlns="http://www.w3.org/2000/svg" width="500" height="474">
<path d="M0 0 C2.375 0.9375 2.375 0.9375 4.375 3.9375 C16.94015785 54.91842705 -5.63565778 129.56724924 -31.62182617 172.86108398 C-35.81623194 179.60171387 -40.41456993 185.93885162 -45.625 191.9375 C-46.33269531 192.75476563 -47.04039062 193.57203125 -47.76953125 194.4140625 C-50.01823797 196.9581335 -52.30910009 199.45451335 -54.625 201.9375 C-55.37265625 202.75089844 -56.1203125 203.56429687 -56.890625 204.40234375 C-81.69965519 230.40253598 -118.94164717 245.5165109 -154.47265625 248.1484375 C-156.625 247.9375 -156.625 247.9375 -159.1875 245.75 C-165.66799962 237.02074657 -166.31122079 225.4020365 -166.625 214.9375 C-165.91182617 214.95321045 -165.19865234 214.9689209 -164.46386719 214.98510742 C-122.61775352 215.78105677 -87.44934423 206.64774287 -56.5625 177.25 C-22.39258648 142.21365445 -12.47909539 88.9931623 -10.625 41.9375 C-11.18703125 42.26621094 -11.7490625 42.59492187 -12.328125 42.93359375 C-29.23975121 52.50474417 -46.76231059 59.28738072 -65.625 63.9375 C-66.39505371 64.13102051 -67.16510742 64.32454102 -67.95849609 64.52392578 C-89.99895006 69.77213031 -117.67326849 69.33667925 -139.625 63.9375 C-140.82092773 63.65543701 -140.82092773 63.65543701 -142.04101562 63.36767578 C-162.06987668 58.52235662 -181.18012398 50.69687565 -198.65234375 39.7734375 C-201.1844851 37.84992182 -201.1844851 37.84992182 -202.625 37.9375 C-195.79717479 73.85779787 -188.24204925 112.01192612 -167.625 142.9375 C-167.48974609 145.94018555 -167.48974609 145.94018555 -167.6484375 149.57421875 C-167.7 150.87294922 -167.7515625 152.17167969 -167.8046875 153.50976562 C-167.86956451 154.88152118 -167.93467163 156.25326587 -168 157.625 C-168.05825621 159.00842326 -168.11555915 160.39188702 -168.171875 161.77539062 C-168.31352876 165.16327631 -168.46496154 168.55044104 -168.625 171.9375 C-207.26492007 133.86066039 -215.44260936 63.19037612 -217.625 11.9375 C-217.69714722 10.32089478 -217.69714722 10.32089478 -217.77075195 8.67163086 C-217.625 5.9375 -217.625 5.9375 -215.625 3.5625 C-214.965 3.02625 -214.305 2.49 -213.625 1.9375 C-210.73123857 3.25227421 -208.66577995 4.68591355 -206.375 6.875 C-178.70313711 31.48355703 -139.50381822 47.93257636 -102.25 47.1875 C-66.21328713 44.70220946 -28.73128472 29.29470895 -4.5 1.5 C-2.625 -0.0625 -2.625 -0.0625 0 0 Z " fill="#939393" transform="translate(358.625,58.0625)"/>
<path d="M0 0 C4.82522317 2.63007487 8.87142133 1.98758289 14.15625 1.17578125 C15.46142578 1.005625 15.46142578 1.005625 16.79296875 0.83203125 C18.91707699 0.55192906 21.03720688 0.24192881 23.15625 -0.07421875 C23.15625 4.21578125 23.15625 8.50578125 23.15625 12.92578125 C13.40625 12.05078125 13.40625 12.05078125 11.15625 10.92578125 C11.65125 11.91578125 11.65125 11.91578125 12.15625 12.92578125 C12.97974827 19.43276758 11.97665818 24.56816741 8.15625 29.92578125 C3.78845648 34.9272443 -1.30622468 37.77919989 -7.84375 38.92578125 C-10.96540876 38.99654933 -14.02835774 38.93380586 -17.14453125 38.73828125 C-20.36599618 38.96205884 -21.64072328 39.58146778 -23.84375 41.92578125 C-23.84375 43.24578125 -23.84375 44.56578125 -23.84375 45.92578125 C-20.79827656 46.80038553 -18.00718667 47.08449212 -14.84375 47.171875 C-13.87937012 47.20313477 -12.91499023 47.23439453 -11.92138672 47.26660156 C-10.9057666 47.29850586 -9.89014648 47.33041016 -8.84375 47.36328125 C12.91681569 48.22381117 12.91681569 48.22381117 18.28125 52.30078125 C21.68102518 57.0604665 22.58989706 59.83772272 21.74609375 65.62109375 C20.03070628 72.3236011 15.23617864 76.09457585 9.5625 79.640625 C5.90161291 81.59587151 2.17220487 82.90713576 -1.84375 83.92578125 C-2.56691406 84.11011719 -3.29007812 84.29445313 -4.03515625 84.484375 C-13.84461955 86.02605699 -26.89147516 86.67988009 -35.84375 81.92578125 C-39.26198651 79.07725082 -39.74127837 77.49403302 -40.53125 73.11328125 C-40.27358547 67.6610998 -36.57436208 64.53656639 -32.84375 60.92578125 C-32.039375 60.10078125 -31.235 59.27578125 -30.40625 58.42578125 C-29.890625 57.93078125 -29.375 57.43578125 -28.84375 56.92578125 C-29.58625 56.67828125 -30.32875 56.43078125 -31.09375 56.17578125 C-34.24006938 54.74563608 -35.83485465 53.75311545 -37.84375 50.92578125 C-38.46620415 48.12473757 -38.51094455 45.72109636 -37.84375 42.92578125 C-34.94800444 39.78182893 -31.8549167 38.3010384 -27.84375 36.92578125 C-28.9575 35.87390625 -28.9575 35.87390625 -30.09375 34.80078125 C-35.17977653 29.4835717 -37.11606794 26.39218268 -37.34375 18.92578125 C-37.10927575 11.49294763 -35.35916616 8.38402886 -30.09375 3.23828125 C-21.71653234 -2.72243131 -9.33865347 -5.40769919 0 0 Z M-21.84375 7.92578125 C-24.54722844 12.68905278 -24.52903192 17.80458123 -23.37890625 23.04296875 C-21.7156841 28.25899088 -19.59459591 31.14698459 -14.84375 33.92578125 C-11.92235709 34.29165897 -9.58302717 34.00630636 -6.84375 32.92578125 C-2.57615504 28.65818629 -1.66052008 25.65068656 -1.53125 19.73828125 C-1.58579965 12.68579028 -2.81412928 9.16434133 -7.65625 3.98828125 C-13.83485691 0.98724361 -17.84246078 2.78126653 -21.84375 7.92578125 Z M-25.16992188 61.32373047 C-27.24773386 64.40805576 -27.24773386 64.40805576 -27.84375 67.92578125 C-26.57115286 72.52670936 -24.42786518 74.51841765 -20.40625 76.80078125 C-13.92126146 79.72612644 -7.3358852 80.25485927 -0.48046875 78.2265625 C4.28726745 76.09858984 7.35090951 73.30912577 10.15625 68.92578125 C10.74153777 65.75559716 10.74153777 65.75559716 10.15625 62.92578125 C5.41891752 58.18844877 -3.05863537 59.36536467 -9.34375 59.05078125 C-10.57996094 58.96570313 -11.81617188 58.880625 -13.08984375 58.79296875 C-14.87068359 58.70789063 -14.87068359 58.70789063 -16.6875 58.62109375 C-17.77224609 58.55937988 -18.85699219 58.49766602 -19.97460938 58.43408203 C-23.05474702 58.67159991 -23.05474702 58.67159991 -25.16992188 61.32373047 Z " fill="#221E1F" transform="translate(474.84375,386.07421875)"/>
<path d="M0 0 C0.33 2.97 0.66 5.94 1 9 C1.78761719 8.566875 2.57523438 8.13375 3.38671875 7.6875 C11.94188344 3.31373533 19.63429162 0.96210962 29.16015625 3.59765625 C34.34228516 6.04635452 37.42013463 11.08267271 40 16 C42.7802622 24.05433535 41.88999847 34.13439801 38.32421875 41.75390625 C33.59712769 49.77183357 27.28445092 54.90616096 18.6875 58.3125 C12.35969117 59.49226097 6.2502825 59.56257063 0 58 C0.33 66.25 0.66 74.5 1 83 C4.63 83.66 8.26 84.32 12 85 C12 86.32 12 87.64 12 89 C0.12 89 -11.76 89 -24 89 C-24 87.68 -24 86.36 -24 85 C-23.43410156 84.81824219 -22.86820313 84.63648438 -22.28515625 84.44921875 C-21.55167969 84.19785156 -20.81820312 83.94648438 -20.0625 83.6875 C-19.33160156 83.44386719 -18.60070312 83.20023437 -17.84765625 82.94921875 C-15.64067976 82.08759559 -15.64067976 82.08759559 -15 79 C-14.91078114 76.92971727 -14.88240349 74.85662411 -14.88647461 72.78442383 C-14.88655014 71.5033223 -14.88662567 70.22222076 -14.88670349 68.90229797 C-14.89181013 67.50387534 -14.89702613 66.1054531 -14.90234375 64.70703125 C-14.90420911 63.27642364 -14.90563246 61.84581539 -14.90663147 60.41520691 C-14.91044733 56.65213249 -14.92026968 52.88909675 -14.93133545 49.1260376 C-14.94156957 45.28520226 -14.94613338 41.44436067 -14.95117188 37.60351562 C-14.96189278 30.0689928 -14.97895804 22.53450182 -15 15 C-17.31 14.01 -19.62 13.02 -22 12 C-21.94921875 9.73828125 -21.94921875 9.73828125 -21 7 C-18.56171195 5.44562895 -16.43583813 4.31391912 -13.8125 3.1875 C-13.15185547 2.87619141 -12.49121094 2.56488281 -11.81054688 2.24414062 C-7.72474702 0.40895905 -4.56020236 -0.36169568 0 0 Z M4.29296875 13.0234375 C3.48754639 13.39130371 2.68212402 13.75916992 1.85229492 14.13818359 C0.93540894 14.56478271 0.93540894 14.56478271 0 15 C-0.19869296 19.3047594 -0.34333564 23.6070532 -0.43945312 27.91503906 C-0.47953636 29.37807725 -0.53402447 30.84079786 -0.60351562 32.30273438 C-1.27150532 40.72948947 -1.27150532 40.72948947 1.67138672 48.29370117 C6.20130647 51.81083398 10.29144199 53.09207352 16 53 C19.74086463 51.77702502 21.58865241 50.44562656 24.25 47.5625 C28.2916589 39.33483724 28.70262648 31.46129557 26.12109375 22.70703125 C23.83741911 17.19279249 20.51339211 13.35354288 15 11 C10.7961033 10.41340976 8.05874131 11.28960591 4.29296875 13.0234375 Z " fill="#231E1F" transform="translate(165,382)"/>
<path d="M0 0 C1.62518657 0.21686366 3.25151507 0.42535233 4.87890625 0.625 C5.94153687 0.76808594 5.94153687 0.76808594 7.02563477 0.9140625 C10.21707392 1.09884935 10.21707392 1.09884935 16.4375 0 C17.4275 7.26 18.4175 14.52 19.4375 22 C17.7875 22 16.1375 22 14.4375 22 C12.6640625 19.98828125 12.6640625 19.98828125 11.0625 17.3125 C7.42761138 11.70937475 3.92303054 8.16184351 -2.5625 6 C-7.2459167 5.58722429 -11.29430842 5.43060786 -15.625 7.375 C-17.75506308 9.16150452 -18.41096003 10.16997428 -18.90625 12.8828125 C-19.22317207 17.43064414 -18.82510277 20.3868689 -15.9375 24 C-11.6201124 28.40460755 -6.41612084 31.48892703 -1.20703125 34.7109375 C8.24696803 40.58239502 16.98328065 46.62053138 21.8125 56.9375 C23.22772168 63.87208623 23.26281396 70.83092225 19.4375 77 C14.47446196 82.71314523 9.02902077 86.93973174 1.4375 88 C-5.95024691 88.46036405 -13.29809256 88.49105243 -20.5625 87 C-22.66573534 86.9340265 -24.77085724 86.91437755 -26.875 86.9375 C-28.47794922 86.95103516 -28.47794922 86.95103516 -30.11328125 86.96484375 C-30.92152344 86.97644531 -31.72976562 86.98804688 -32.5625 87 C-33.06892925 83.93852743 -33.56649322 80.87567701 -34.0625 77.8125 C-34.20558594 76.94818359 -34.34867188 76.08386719 -34.49609375 75.19335938 C-35.15564262 71.09473423 -35.76959266 67.16773976 -35.5625 63 C-33.9125 63 -32.2625 63 -30.5625 63 C-30.03462891 64.21236328 -30.03462891 64.21236328 -29.49609375 65.44921875 C-25.42090735 74.51936633 -25.42090735 74.51936633 -17.5625 80 C-11.17123501 82.0754639 -5.7390306 82.62285422 0.55859375 80.04296875 C4.70571154 77.74093039 6.09744449 75.12643389 7.4375 70.6875 C7.4375 65.7488861 6.52226918 62.87221611 3.4375 59 C0.19484654 56.14522374 -3.25062531 53.65795438 -6.80810547 51.21044922 C-9.28046257 49.5046398 -11.71931281 47.75321912 -14.16064453 46.00341797 C-15.35561602 45.14850739 -16.55307864 44.29706437 -17.75341797 43.44970703 C-27.44760724 36.59531514 -27.44760724 36.59531514 -30.3125 32.4375 C-30.71984375 31.85871094 -31.1271875 31.27992188 -31.546875 30.68359375 C-34.7230078 25.41854284 -34.0801534 18.91291424 -33.5625 13 C-30.92329551 7.31555955 -26.4468725 3.254075 -20.6875 0.75 C-13.43655253 -0.99022739 -7.32469864 -0.9820825 0 0 Z " fill="#221E1F" transform="translate(37.5625,354)"/>
<path d="M0 0 C14.85 0 29.7 0 45 0 C45 1.32 45 2.64 45 4 C43.62714844 4.16435547 43.62714844 4.16435547 42.2265625 4.33203125 C41.03804688 4.49058594 39.84953125 4.64914062 38.625 4.8125 C37.44164062 4.96332031 36.25828125 5.11414063 35.0390625 5.26953125 C31.70467916 5.70699334 31.70467916 5.70699334 30 9 C29.70158991 11.9663567 29.70158991 11.9663567 29.75708008 15.38330078 C29.75400345 16.70121613 29.75092682 18.01913147 29.74775696 19.37698364 C29.75465368 20.81642837 29.76192058 22.25587137 29.76953125 23.6953125 C29.77072327 25.16836507 29.77117617 26.64141841 29.7709198 28.11447144 C29.77248351 31.19957241 29.7807661 34.28455716 29.79418945 37.36962891 C29.81120897 41.33222126 29.81500289 45.29468624 29.81424427 49.25731087 C29.81451558 52.29752833 29.81999003 55.33771772 29.82724571 58.37792587 C29.83043631 59.83962669 29.8324007 61.3013307 29.83313942 62.76303482 C29.83529714 64.80053088 29.84482579 66.83801518 29.85473633 68.87548828 C29.85854813 70.03670197 29.86235992 71.19791565 29.86628723 72.39431763 C29.7045927 74.92790586 29.7045927 74.92790586 31 76 C35.38838063 76.31109572 39.78946011 76.27854704 44.1875 76.3125 C45.42048828 76.34150391 46.65347656 76.37050781 47.92382812 76.40039062 C56.82391039 76.57653432 56.82391039 76.57653432 64 72 C65.89856452 69.6926902 67.52495623 67.30582048 69.19140625 64.828125 C71 63 71 63 73.71484375 62.734375 C74.46894531 62.82203125 75.22304688 62.9096875 76 63 C74 69 74 69 66 84 C44.22 84 22.44 84 0 84 C0 82.68 0 81.36 0 80 C5.445 79.01 5.445 79.01 11 78 C11.80106896 73.99465521 12.13100394 70.842726 12.14526367 66.8203125 C12.15164352 65.59554199 12.15802338 64.37077148 12.16459656 63.10888672 C12.16570938 61.7942041 12.1668222 60.47952148 12.16796875 59.125 C12.17118479 57.75406866 12.17454912 56.38313766 12.17805481 55.01220703 C12.18402983 52.14419763 12.1858963 49.2762183 12.18530273 46.40820312 C12.185201 42.73971734 12.19887186 39.07142462 12.21607494 35.40298462 C12.22720966 32.57364013 12.22922152 29.74434218 12.22869301 26.91497803 C12.23044089 24.90700853 12.24126846 22.89905355 12.25224304 20.89111328 C12.24916641 19.66634277 12.24608978 18.44157227 12.24291992 17.1796875 C12.24434494 16.10444824 12.24576996 15.02920898 12.24723816 13.92138672 C11.98916467 10.87196883 11.41409484 8.7086308 10 6 C7.60884625 4.96656266 7.60884625 4.96656266 4.875 4.6875 C3.50988281 4.47673828 3.50988281 4.47673828 2.1171875 4.26171875 C1.41851562 4.17535156 0.71984375 4.08898437 0 4 C0 2.68 0 1.36 0 0 Z " fill="#221E1F" transform="translate(321,356)"/>
<path d="M0 0 C0.01401855 1.86918091 0.01401855 1.86918091 0.02832031 3.77612305 C0.06824865 8.40766908 0.13401563 13.03855287 0.20751953 17.66967773 C0.23571261 19.67252076 0.25693542 21.6754747 0.27099609 23.6784668 C0.29244854 26.56096107 0.33911056 29.44212409 0.390625 32.32421875 C0.39185364 33.21711105 0.39308228 34.11000336 0.39434814 35.029953 C0.49225661 39.20323869 0.65681482 41.44971956 2.91040039 45.06323242 C5.22377719 47.20741027 6.08013786 47.6816004 9.1875 47.625 C12.99779219 47.35924292 15.51378753 46.3872687 18.80078125 44.4609375 C19.59266846 44.00251465 20.38455566 43.5440918 21.20043945 43.07177734 C21.79429443 42.71809082 22.38814941 42.3644043 23 42 C23.04946113 37.78248718 23.08574827 33.56512832 23.10986328 29.34741211 C23.119917 27.91281188 23.13356194 26.47823211 23.15087891 25.04370117 C23.17515549 22.98090562 23.18648919 20.91838115 23.1953125 18.85546875 C23.20578613 17.61434326 23.21625977 16.37321777 23.22705078 15.09448242 C23.2428807 11.83096691 23.2428807 11.83096691 21 9 C18.81494871 8.20562077 18.81494871 8.20562077 16.375 7.8125 C15.14910156 7.57466797 15.14910156 7.57466797 13.8984375 7.33203125 C13.27195313 7.22246094 12.64546875 7.11289062 12 7 C12 5.68 12 4.36 12 3 C14.64423933 2.4899745 17.28987176 1.99186064 19.9375 1.5 C21.04061523 1.28537109 21.04061523 1.28537109 22.16601562 1.06640625 C22.90400391 0.93105469 23.64199219 0.79570312 24.40234375 0.65625 C25.06741943 0.53056641 25.73249512 0.40488281 26.41772461 0.27539062 C30.25779849 -0.1341398 34.13815037 0 38 0 C38.33 15.84 38.66 31.68 39 48 C41.31 48 43.62 48 46 48 C46 49.65 46 51.3 46 53 C43.4604163 53.67561372 40.91881165 54.34065828 38.375 55 C37.66214844 55.19078125 36.94929688 55.3815625 36.21484375 55.578125 C32.04151456 56.65017287 28.34821249 57.21946814 24 57 C23.505 53.04 23.505 53.04 23 49 C22.27296875 49.48210937 21.5459375 49.96421875 20.796875 50.4609375 C12.90840557 55.41651445 4.5549201 59.51554233 -5 57.4375 C-9.41719205 55.32092881 -11.26257139 52.8240602 -13.07958984 48.32958984 C-14.13494957 44.51181904 -14.35036152 40.90708486 -14.4140625 36.9765625 C-14.43342865 36.23038666 -14.4527948 35.48421082 -14.4727478 34.71542358 C-14.53212065 32.35206223 -14.5787578 29.98865103 -14.625 27.625 C-14.66321884 26.01430268 -14.7022728 24.40362494 -14.7421875 22.79296875 C-14.83778676 18.86213984 -14.921972 14.93121537 -15 11 C-17.31 10.01 -19.62 9.02 -22 8 C-21.67 6.35 -21.34 4.7 -21 3 C-19.00289812 2.48854708 -17.00212297 1.99143018 -15 1.5 C-13.88625 1.2215625 -12.7725 0.943125 -11.625 0.65625 C-7.61772257 -0.0692054 -4.065535 -0.0441906 0 0 Z " fill="#231E1F" transform="translate(91,384)"/>
<path d="M0 0 C4.9839682 2.77087041 8.89940254 6.39772337 13.0859375 10.234375 C15.92095118 12.31348818 15.92095118 12.31348818 19.42578125 11.89453125 C22.93537563 11.01617375 26.37156702 10.05510221 29.8125 8.9375 C35.80427046 7 35.80427046 7 38 7 C37.24856038 12.7843375 35.21500003 17.6340607 32.9609375 22.9765625 C31.94436761 26.1750385 31.95030295 26.95591502 33 30 C34.01629862 31.8489685 34.01629862 31.8489685 35.28515625 33.63671875 C35.73310547 34.29607422 36.18105469 34.95542969 36.64257812 35.63476562 C37.11115234 36.31216797 37.57972656 36.98957031 38.0625 37.6875 C43 44.8883015 43 44.8883015 43 46 C42.39639648 45.91621094 41.79279297 45.83242188 41.17089844 45.74609375 C29.51153767 44.02085529 29.51153767 44.02085529 18.8125 47.5703125 C15.17158598 51.43878365 12.44426555 55.84073894 9.97949219 60.53125 C9.65625977 61.0159375 9.33302734 61.500625 9 62 C8.34 62 7.68 62 7 62 C6.92297852 61.43079834 6.84595703 60.86159668 6.76660156 60.27514648 C5.77173555 53.91381814 4.63070096 47.42297006 1 42 C-4.78438986 37.79305675 -12.06769918 36.29506658 -19 35 C-19 34.34 -19 33.68 -19 33 C-17.45532227 32.04882813 -17.45532227 32.04882813 -15.31640625 31.03125 C-6.74789043 26.94519076 -6.74789043 26.94519076 -1.11279297 19.78564453 C-0.15839771 14.50335448 -0.62018158 9.32273313 -1 4 C-0.51757812 1.75366211 -0.51757812 1.75366211 0 0 Z " fill="#E21836" transform="translate(277,2)"/>
<path d="M0 0 C6.38202767 4.35447517 8.0945652 10.10237543 9.83203125 17.25 C10.49203125 17.25 11.15203125 17.25 11.83203125 17.25 C11.83203125 18.9 11.83203125 20.55 11.83203125 22.25 C-1.36796875 22.25 -14.56796875 22.25 -28.16796875 22.25 C-25.6328496 34.22233241 -25.6328496 34.22233241 -18.48046875 42.5625 C-14.27666932 44.7040582 -10.89704713 45.71082074 -6.16796875 45.25 C-1.8606291 43.7205823 2.26088447 41.85828973 5.484375 38.55859375 C5.92910156 38.12675781 6.37382812 37.69492187 6.83203125 37.25 C9.01953125 37.5625 9.01953125 37.5625 10.83203125 38.25 C7.91172133 45.13578339 0.71770165 50.55797547 -6.0078125 53.56640625 C-13.9550387 56.08135125 -22.58733275 56.040318 -30.10546875 52.28125 C-36.22029541 48.3804123 -39.74784022 42.7286427 -41.48046875 35.75 C-43.2412533 25.95668402 -42.33962833 16.47979651 -36.6484375 8.1015625 C-27.70667934 -3.08153346 -13.0698232 -6.98350479 0 0 Z M-23.16796875 4.25 C-26.52166968 8.50086934 -27.25543143 11.77477606 -28.16796875 17.25 C-20.57796875 17.25 -12.98796875 17.25 -5.16796875 17.25 C-5.93702277 9.20505756 -5.93702277 9.20505756 -10.16796875 3.25 C-15.46105357 0.79949777 -18.43511905 0.77924356 -23.16796875 4.25 Z " fill="#221E1F" transform="translate(256.16796875,386.75)"/>
<path d="M0 0 C0.33 2.97 0.66 5.94 1 9 C1.40992188 8.43410156 1.81984375 7.86820312 2.2421875 7.28515625 C2.78101563 6.55167969 3.31984375 5.81820313 3.875 5.0625 C4.40867187 4.33160156 4.94234375 3.60070312 5.4921875 2.84765625 C7 1 7 1 9 0 C14.93984781 -0.48488554 19.53824265 0.91933053 25 3 C24.33501617 7.38889325 22.81242323 10.9811485 21 15 C17.35846197 14.56301544 14.27131043 14.11395038 10.875 12.6875 C7.90638424 11.62554557 7.90638424 11.62554557 5.25 13.625 C1.5395532 17.54158273 0.74655693 20.31266608 0.734375 25.68359375 C0.73179687 26.77607422 0.72921875 27.86855469 0.7265625 28.99414062 C0.73429687 30.13044922 0.74203125 31.26675781 0.75 32.4375 C0.74226563 33.56994141 0.73453125 34.70238281 0.7265625 35.86914062 C0.73042969 37.50979492 0.73042969 37.50979492 0.734375 39.18359375 C0.73663086 40.17931396 0.73888672 41.17503418 0.74121094 42.20092773 C1.01748055 45.18907031 1.61207091 47.34241444 3 50 C5.62366283 51.03770677 5.62366283 51.03770677 8.625 51.3125 C9.62789063 51.45300781 10.63078125 51.59351563 11.6640625 51.73828125 C12.43492187 51.82464844 13.20578125 51.91101563 14 52 C14 53.32 14 54.64 14 56 C2.12 56 -9.76 56 -22 56 C-22 54.68 -22 53.36 -22 52 C-20.576875 51.7525 -20.576875 51.7525 -19.125 51.5 C-15.69674621 50.29750851 -15.69674621 50.29750851 -14.8125 46.84375 C-13.40940514 40.33011254 -13.79065184 33.62457502 -13.875 27 C-13.88505022 25.63932951 -13.89417246 24.27865183 -13.90234375 22.91796875 C-13.9257918 19.61179353 -13.95861144 16.3059912 -14 13 C-16.64 12.01 -19.28 11.02 -22 10 C-22 8.35 -22 6.7 -22 5 C-19.64995631 4.15313741 -17.2960687 3.32249804 -14.9375 2.5 C-14.28072266 2.26152344 -13.62394531 2.02304687 -12.94726562 1.77734375 C-8.49900091 0.24345937 -4.76538301 -0.24787428 0 0 Z " fill="#221E1F" transform="translate(296,384)"/>
<path d="M0 0 C0.00364563 0.60499329 0.00729126 1.20998657 0.01104736 1.83331299 C0.05284362 8.12771072 0.12216882 14.42137731 0.20751953 20.71533203 C0.23575288 23.06454152 0.25695558 25.41384641 0.27099609 27.76318359 C0.29239224 31.13949518 0.33902737 34.51465667 0.390625 37.890625 C0.39185364 38.94179504 0.39308228 39.99296509 0.39434814 41.07598877 C0.41837314 46.72404154 0.41837314 46.72404154 2.86621094 51.64746094 C5.26476674 53.16782697 7.18995265 53.68777252 10 54 C10 55.32 10 56.64 10 58 C-1.22 58 -12.44 58 -24 58 C-24 56.68 -24 55.36 -24 54 C-23.43410156 53.80664062 -22.86820312 53.61328125 -22.28515625 53.4140625 C-21.18494141 53.02347656 -21.18494141 53.02347656 -20.0625 52.625 C-19.33160156 52.36976563 -18.60070312 52.11453125 -17.84765625 51.8515625 C-15.81317884 51.14728587 -15.81317884 51.14728587 -15 49 C-14.91324462 46.30106819 -14.88442103 43.62830769 -14.90234375 40.9296875 C-14.9037587 40.13345978 -14.90517365 39.33723206 -14.90663147 38.51687622 C-14.91223655 35.9695462 -14.92478986 33.42230353 -14.9375 30.875 C-14.94251435 29.14974085 -14.94707737 27.42448033 -14.95117188 25.69921875 C-14.96220763 21.46611209 -14.97947564 17.23307086 -15 13 C-17.97 12.01 -20.94 11.02 -24 10 C-23.67 8.35 -23.34 6.7 -23 5 C-19.91882573 4.15854044 -16.83474379 3.32826938 -13.75 2.5 C-12.87730469 2.26152344 -12.00460937 2.02304687 -11.10546875 1.77734375 C-10.26113281 1.55175781 -9.41679687 1.32617188 -8.546875 1.09375 C-7.77182617 0.88427734 -6.99677734 0.67480469 -6.19824219 0.45898438 C-4 0 -4 0 0 0 Z " fill="#221E20" transform="translate(421,382)"/>
<path d="M0 0 C3.0625 2.0625 3.0625 2.0625 5 5 C5.0652915 8.78690691 4.83811613 10.960736 2.4375 13.9375 C-1.07781649 15.46981744 -4.28185452 15.77155193 -8 15 C-11.0625 12.9375 -11.0625 12.9375 -13 10 C-13.0652915 6.21309309 -12.83811613 4.039264 -10.4375 1.0625 C-6.92218351 -0.46981744 -3.71814548 -0.77155193 0 0 Z " fill="#231E1F" transform="translate(417,355)"/>
<path d="M0 0 C2.2327477 1.59481979 2.94578835 2.61803461 3.75 5.25 C3.61474313 8.56379342 3.33744474 10.51569407 1.25 13.125 C-2.57219342 14.84498704 -6.13365554 14.91465745 -10.25 14.25 C-12.8125 12.6875 -12.8125 12.6875 -14.25 10.25 C-14.98134328 4.29477612 -14.98134328 4.29477612 -12.9375 1.375 C-8.93344293 -1.29437138 -4.4992509 -1.4997503 0 0 Z " fill="#231E1F" transform="translate(120.25,359.75)"/>
<path d="M0 0 C2.2327477 1.59481979 2.94578835 2.61803461 3.75 5.25 C3.61474313 8.56379342 3.33744474 10.51569407 1.25 13.125 C-2.57219342 14.84498704 -6.13365554 14.91465745 -10.25 14.25 C-12.8125 12.6875 -12.8125 12.6875 -14.25 10.25 C-14.98134328 4.29477612 -14.98134328 4.29477612 -12.9375 1.375 C-8.93344293 -1.29437138 -4.4992509 -1.4997503 0 0 Z " fill="#231E1F" transform="translate(96.25,359.75)"/>
</svg>
